[
    {
        "deltaTime": 434,
        "channel": 1,
        "type": "noteOn",
        "noteNumber": 38,
        "velocity": 99
    },
    {
        "deltaTime": 0,
        "channel": 5,
        "type": "noteOn",
        "noteNumber": 74,
        "velocity": 101
    },
    {
        "deltaTime": 0,
        "running": true,
        "channel": 5,
        "type": "noteOn",
        "noteNumber": 77,
        "velocity": 97
    },
    {
        "deltaTime": 0,
        "running": true,
        "channel": 5,
        "type": "noteOn",
        "noteNumber": 81,
        "velocity": 105
    },
    {
        "deltaTime": 0,
        "channel": 8,
        "type": "noteOn",
        "noteNumber": 38,
        "velocity": 99
    },
    {
        "deltaTime": 0,
        "channel": 9,
        "type": "noteOn",
        "noteNumber": 35,
        "velocity": 114
    },
    {
        "deltaTime": 0,
        "channel": 11,
        "type": "noteOn",
        "noteNumber": 41,
        "velocity": 114
    },
    {
        "deltaTime": 12,
        "channel": 9,
        "type": "noteOff",
        "noteNumber": 35,
        "velocity": 0,
        "byte9": true
    },
    {
        "deltaTime": 1,
        "channel": 14,
        "type": "noteOn",
        "noteNumber": 62,
        "velocity": 101
    },
    {
        "deltaTime": 0,
        "running": true,
        "channel": 14,
        "type": "noteOn",
        "noteNumber": 65,
        "velocity": 97
    },
    {
        "deltaTime": 0,
        "running": true,
        "channel": 14,
        "type": "noteOn",
        "noteNumber": 69,
        "velocity": 105
    },
    {
        "deltaTime": 60,
        "channel": 5,
        "type": "noteOff",
        "noteNumber": 81,
        "velocity": 0,
        "byte9": true
    },
    {
        "deltaTime": 13,
        "channel": 14,
        "type": "noteOff",
        "noteNumber": 69,
        "velocity": 0,
        "byte9": true
    },
    {
        "deltaTime": 35,
        "channel": 5,
        "type": "noteOff",
        "noteNumber": 77,
        "velocity": 0,
        "byte9": true
    },
    {
        "deltaTime": 2,
        "running": true,
        "channel": 5,
        "type": "noteOff",
        "noteNumber": 74,
        "velocity": 0,
        "byte9": true
    },
    {
        "deltaTime": 11,
        "channel": 14,
        "type": "noteOff",
        "noteNumber": 65,
        "velocity": 0,
        "byte9": true
    },
    {
        "deltaTime": 2,
        "running": true,
        "channel": 14,
        "type": "noteOff",
        "noteNumber": 62,
        "velocity": 0,
        "byte9": true
    },
    {
        "deltaTime": 25,
        "channel": 11,
        "type": "noteOff",
        "noteNumber": 41,
        "velocity": 0,
        "byte9": true
    },
    {
        "deltaTime": 319,
        "channel": 5,
        "type": "noteOn",
        "noteNumber": 74,
        "velocity": 111
    },
    {
        "deltaTime": 0,
        "running": true,
        "channel": 5,
        "type": "noteOn",
        "noteNumber": 77,
        "velocity": 107
    },
    {
        "deltaTime": 0,
        "running": true,
        "channel": 5,
        "type": "noteOn",
        "noteNumber": 81,
        "velocity": 105
    },
    {
        "deltaTime": 0,
        "channel": 9,
        "type": "noteOn",
        "noteNumber": 44,
        "velocity": 107
    },
    {
        "deltaTime": 0,
        "running": true,
        "channel": 9,
        "type": "noteOn",
        "noteNumber": 69,
        "velocity": 109
    },
    {
        "deltaTime": 12,
        "running": true,
        "channel": 9,
        "type": "noteOff",
        "noteNumber": 44,
        "velocity": 0,
        "byte9": true
    },
    {
        "deltaTime": 0,
        "running": true,
        "channel": 9,
        "type": "noteOff",
        "noteNumber": 69,
        "velocity": 0,
        "byte9": true
    },
    {
        "deltaTime": 1,
        "channel": 14,
        "type": "noteOn",
        "noteNumber": 62,
        "velocity": 111
    },
    {
        "deltaTime": 0,
        "running": true,
        "channel": 14,
        "type": "noteOn",
        "noteNumber": 65,
        "velocity": 107
    },
    {
        "deltaTime": 0,
        "running": true,
        "channel": 14,
        "type": "noteOn",
        "noteNumber": 69,
        "velocity": 105
    },
    {
        "deltaTime": 144,
        "channel": 5,
        "type": "noteOff",
        "noteNumber": 81,
        "velocity": 0,
        "byte9": true
    },
    {
        "deltaTime": 7,
        "running": true,
        "channel": 5,
        "type": "noteOff",
        "noteNumber": 77,
        "velocity": 0,
        "byte9": true
    },
    {
        "deltaTime": 4,
        "running": true,
        "channel": 5,
        "type": "noteOff",
        "noteNumber": 74,
        "velocity": 0,
        "byte9": true
    },
    {
        "deltaTime": 2,
        "channel": 14,
        "type": "noteOff",
        "noteNumber": 69,
        "velocity": 0,
        "byte9": true
    },
    {
        "deltaTime": 7,
        "running": true,
        "channel": 14,
        "type": "noteOff",
        "noteNumber": 65,
        "velocity": 0,
        "byte9": true
    },
    {
        "deltaTime": 4,
        "running": true,
        "channel": 14,
        "type": "noteOff",
        "noteNumber": 62,
        "velocity": 0,
        "byte9": true
    },
    {
        "deltaTime": 60,
        "channel": 1,
        "type": "noteOff",
        "noteNumber": 38,
        "velocity": 0,
        "byte9": true
    },
    {
        "deltaTime": 0,
        "channel": 8,
        "type": "noteOff",
        "noteNumber": 38,
        "velocity": 0,
        "byte9": true
    },
    {
        "deltaTime": 79,
        "channel": 1,
        "type": "noteOn",
        "noteNumber": 38,
        "velocity": 99
    },
    {
        "deltaTime": 0,
        "channel": 8,
        "type": "noteOn",
        "noteNumber": 38,
        "velocity": 99
    },
    {
        "deltaTime": 0,
        "channel": 9,
        "type": "noteOn",
        "noteNumber": 35,
        "velocity": 107
    },
    {
        "deltaTime": 0,
        "channel": 11,
        "type": "noteOn",
        "noteNumber": 41,
        "velocity": 107
    },
    {
        "deltaTime": 12,
        "channel": 9,
        "type": "noteOff",
        "noteNumber": 35,
        "velocity": 0,
        "byte9": true
    },
    {
        "deltaTime": 148,
        "channel": 5,
        "type": "noteOn",
        "noteNumber": 74,
        "velocity": 105
    },
    {
        "deltaTime": 0,
        "running": true,
        "channel": 5,
        "type": "noteOn",
        "noteNumber": 77,
        "velocity": 94
    },
    {
        "deltaTime": 0,
        "running": true,
        "channel": 5,
        "type": "noteOn",
        "noteNumber": 81,
        "velocity": 94
    },
    {
        "deltaTime": 0,
        "channel": 9,
        "type": "noteOn",
        "noteNumber": 35,
        "velocity": 114
    },
    {
        "deltaTime": 0,
        "channel": 11,
        "type": "noteOn",
        "noteNumber": 41,
        "velocity": 114
    },
    {
        "deltaTime": 1,
        "running": true,
        "channel": 11,
        "type": "noteOff",
        "noteNumber": 41,
        "velocity": 0,
        "byte9": true
    },
    {
        "deltaTime": 11,
        "channel": 9,
        "type": "noteOff",
        "noteNumber": 35,
        "velocity": 0,
        "byte9": true
    },
    {
        "deltaTime": 1,
        "channel": 14,
        "type": "noteOn",
        "noteNumber": 62,
        "velocity": 105
    },
    {
        "deltaTime": 0,
        "running": true,
        "channel": 14,
        "type": "noteOn",
        "noteNumber": 65,
        "velocity": 94
    },
    {
        "deltaTime": 0,
        "running": true,
        "channel": 14,
        "type": "noteOn",
        "noteNumber": 69,
        "velocity": 94
    },
    {
        "deltaTime": 142,
        "channel": 5,
        "type": "noteOff",
        "noteNumber": 81,
        "velocity": 0,
        "byte9": true
    },
    {
        "deltaTime": 6,
        "channel": 11,
        "type": "noteOff",
        "noteNumber": 41,
        "velocity": 0,
        "byte9": true
    },
    {
        "deltaTime": 2,
        "channel": 5,
        "type": "noteOff",
        "noteNumber": 74,
        "velocity": 0,
        "byte9": true
    },
    {
        "deltaTime": 4,
        "running": true,
        "channel": 5,
        "type": "noteOff",
        "noteNumber": 77,
        "velocity": 0,
        "byte9": true
    },
    {
        "deltaTime": 1,
        "channel": 14,
        "type": "noteOff",
        "noteNumber": 69,
        "velocity": 0,
        "byte9": true
    },
    {
        "deltaTime": 8,
        "running": true,
        "channel": 14,
        "type": "noteOff",
        "noteNumber": 62,
        "velocity": 0,
        "byte9": true
    },
    {
        "deltaTime": 4,
        "running": true,
        "channel": 14,
        "type": "noteOff",
        "noteNumber": 65,
        "velocity": 0,
        "byte9": true
    },
    {
        "deltaTime": 140,
        "channel": 9,
        "type": "noteOn",
        "noteNumber": 70,
        "velocity": 65
    },
    {
        "deltaTime": 12,
        "running": true,
        "channel": 9,
        "type": "noteOff",
        "noteNumber": 70,
        "velocity": 0,
        "byte9": true
    },
    {
        "deltaTime": 148,
        "channel": 5,
        "type": "noteOn",
        "noteNumber": 74,
        "velocity": 109
    },
    {
        "deltaTime": 0,
        "running": true,
        "channel": 5,
        "type": "noteOn",
        "noteNumber": 77,
        "velocity": 94
    },
    {
        "deltaTime": 0,
        "running": true,
        "channel": 5,
        "type": "noteOn",
        "noteNumber": 81,
        "velocity": 94
    },
    {
        "deltaTime": 0,
        "channel": 9,
        "type": "noteOn",
        "noteNumber": 44,
        "velocity": 107
    },
    {
        "deltaTime": 0,
        "running": true,
        "channel": 9,
        "type": "noteOn",
        "noteNumber": 54,
        "velocity": 109
    },
    {
        "deltaTime": 12,
        "running": true,
        "channel": 9,
        "type": "noteOff",
        "noteNumber": 44,
        "velocity": 0,
        "byte9": true
    },
    {
        "deltaTime": 0,
        "running": true,
        "channel": 9,
        "type": "noteOff",
        "noteNumber": 54,
        "velocity": 0,
        "byte9": true
    },
    {
        "deltaTime": 1,
        "channel": 14,
        "type": "noteOn",
        "noteNumber": 62,
        "velocity": 109
    },
    {
        "deltaTime": 0,
        "running": true,
        "channel": 14,
        "type": "noteOn",
        "noteNumber": 65,
        "velocity": 94
    },
    {
        "deltaTime": 0,
        "running": true,
        "channel": 14,
        "type": "noteOn",
        "noteNumber": 69,
        "velocity": 94
    },
    {
        "deltaTime": 128,
        "channel": 5,
        "type": "noteOff",
        "noteNumber": 81,
        "velocity": 0,
        "byte9": true
    },
    {
        "deltaTime": 13,
        "running": true,
        "channel": 5,
        "type": "noteOff",
        "noteNumber": 74,
        "velocity": 0,
        "byte9": true
    },
    {
        "deltaTime": 0,
        "running": true,
        "channel": 5,
        "type": "noteOff",
        "noteNumber": 77,
        "velocity": 0,
        "byte9": true
    },
    {
        "deltaTime": 0,
        "channel": 14,
        "type": "noteOff",
        "noteNumber": 69,
        "velocity": 0,
        "byte9": true
    },
    {
        "deltaTime": 7,
        "channel": 1,
        "type": "noteOff",
        "noteNumber": 38,
        "velocity": 0,
        "byte9": true
    },
    {
        "deltaTime": 0,
        "channel": 8,
        "type": "noteOff",
        "noteNumber": 38,
        "velocity": 0,
        "byte9": true
    },
    {
        "deltaTime": 6,
        "channel": 14,
        "type": "noteOff",
        "noteNumber": 62,
        "velocity": 0,
        "byte9": true
    },
    {
        "deltaTime": 0,
        "running": true,
        "channel": 14,
        "type": "noteOff",
        "noteNumber": 65,
        "velocity": 0,
        "byte9": true
    },
    {
        "deltaTime": 153,
        "channel": 1,
        "type": "noteOn",
        "noteNumber": 38,
        "velocity": 99
    },
    {
        "deltaTime": 0,
        "channel": 8,
        "type": "noteOn",
        "noteNumber": 38,
        "velocity": 99
    },
    {
        "deltaTime": 160,
        "channel": 5,
        "type": "noteOn",
        "noteNumber": 74,
        "velocity": 109
    },
    {
        "deltaTime": 0,
        "running": true,
        "channel": 5,
        "type": "noteOn",
        "noteNumber": 77,
        "velocity": 94
    },
    {
        "deltaTime": 0,
        "running": true,
        "channel": 5,
        "type": "noteOn",
        "noteNumber": 81,
        "velocity": 101
    },
    {
        "deltaTime": 0,
        "channel": 9,
        "type": "noteOn",
        "noteNumber": 35,
        "velocity": 114
    },
    {
        "deltaTime": 0,
        "channel": 11,
        "type": "noteOn",
        "noteNumber": 41,
        "velocity": 114
    },
    {
        "deltaTime": 12,
        "channel": 9,
        "type": "noteOff",
        "noteNumber": 35,
        "velocity": 0,
        "byte9": true
    },
    {
        "deltaTime": 1,
        "channel": 14,
        "type": "noteOn",
        "noteNumber": 62,
        "velocity": 109
    },
    {
        "deltaTime": 0,
        "running": true,
        "channel": 14,
        "type": "noteOn",
        "noteNumber": 65,
        "velocity": 94
    },
    {
        "deltaTime": 0,
        "running": true,
        "channel": 14,
        "type": "noteOn",
        "noteNumber": 69,
        "velocity": 101
    },
    {
        "deltaTime": 142,
        "channel": 5,
        "type": "noteOff",
        "noteNumber": 81,
        "velocity": 0,
        "byte9": true
    },
    {
        "deltaTime": 6,
        "channel": 11,
        "type": "noteOff",
        "noteNumber": 41,
        "velocity": 0,
        "byte9": true
    },
    {
        "deltaTime": 7,
        "channel": 14,
        "type": "noteOff",
        "noteNumber": 69,
        "velocity": 0,
        "byte9": true
    },
    {
        "deltaTime": 3,
        "channel": 5,
        "type": "noteOff",
        "noteNumber": 74,
        "velocity": 0,
        "byte9": true
    },
    {
        "deltaTime": 0,
        "running": true,
        "channel": 5,
        "type": "noteOff",
        "noteNumber": 77,
        "velocity": 0,
        "byte9": true
    },
    {
        "deltaTime": 13,
        "channel": 14,
        "type": "noteOff",
        "noteNumber": 62,
        "velocity": 0,
        "byte9": true
    },
    {
        "deltaTime": 0,
        "running": true,
        "channel": 14,
        "type": "noteOff",
        "noteNumber": 65,
        "velocity": 0,
        "byte9": true
    },
    {
        "deltaTime": 296,
        "channel": 5,
        "type": "noteOn",
        "noteNumber": 74,
        "velocity": 108
    },
    {
        "deltaTime": 0,
        "running": true,
        "channel": 5,
        "type": "noteOn",
        "noteNumber": 77,
        "velocity": 97
    },
    {
        "deltaTime": 0,
        "running": true,
        "channel": 5,
        "type": "noteOn",
        "noteNumber": 81,
        "velocity": 98
    },
    {
        "deltaTime": 0,
        "channel": 9,
        "type": "noteOn",
        "noteNumber": 44,
        "velocity": 107
    },
    {
        "deltaTime": 0,
        "running": true,
        "channel": 9,
        "type": "noteOn",
        "noteNumber": 69,
        "velocity": 109
    },
    {
        "deltaTime": 12,
        "running": true,
        "channel": 9,
        "type": "noteOff",
        "noteNumber": 44,
        "velocity": 0,
        "byte9": true
    },
    {
        "deltaTime": 0,
        "running": true,
        "channel": 9,
        "type": "noteOff",
        "noteNumber": 69,
        "velocity": 0,
        "byte9": true
    },
    {
        "deltaTime": 1,
        "channel": 14,
        "type": "noteOn",
        "noteNumber": 62,
        "velocity": 108
    },
    {
        "deltaTime": 0,
        "running": true,
        "channel": 14,
        "type": "noteOn",
        "noteNumber": 65,
        "velocity": 97
    },
    {
        "deltaTime": 0,
        "running": true,
        "channel": 14,
        "type": "noteOn",
        "noteNumber": 69,
        "velocity": 98
    },
    {
        "deltaTime": 133,
        "channel": 5,
        "type": "noteOff",
        "noteNumber": 81,
        "velocity": 0,
        "byte9": true
    },
    {
        "deltaTime": 12,
        "running": true,
        "channel": 5,
        "type": "noteOff",
        "noteNumber": 74,
        "velocity": 0,
        "byte9": true
    },
    {
        "deltaTime": 1,
        "channel": 14,
        "type": "noteOff",
        "noteNumber": 69,
        "velocity": 0,
        "byte9": true
    },
    {
        "deltaTime": 2,
        "channel": 1,
        "type": "noteOff",
        "noteNumber": 38,
        "velocity": 0,
        "byte9": true
    },
    {
        "deltaTime": 0,
        "channel": 8,
        "type": "noteOff",
        "noteNumber": 38,
        "velocity": 0,
        "byte9": true
    },
    {
        "deltaTime": 2,
        "channel": 5,
        "type": "noteOff",
        "noteNumber": 77,
        "velocity": 0,
        "byte9": true
    },
    {
        "deltaTime": 8,
        "channel": 14,
        "type": "noteOff",
        "noteNumber": 62,
        "velocity": 0,
        "byte9": true
    },
    {
        "deltaTime": 5,
        "running": true,
        "channel": 14,
        "type": "noteOff",
        "noteNumber": 65,
        "velocity": 0,
        "byte9": true
    },
    {
        "deltaTime": 144,
        "channel": 1,
        "type": "noteOn",
        "noteNumber": 38,
        "velocity": 99
    },
    {
        "deltaTime": 0,
        "channel": 8,
        "type": "noteOn",
        "noteNumber": 38,
        "velocity": 99
    },
    {
        "deltaTime": 0,
        "channel": 9,
        "type": "noteOn",
        "noteNumber": 35,
        "velocity": 114
    },
    {
        "deltaTime": 0,
        "channel": 11,
        "type": "noteOn",
        "noteNumber": 41,
        "velocity": 114
    },
    {
        "deltaTime": 12,
        "channel": 9,
        "type": "noteOff",
        "noteNumber": 35,
        "velocity": 0,
        "byte9": true
    },
    {
        "deltaTime": 148,
        "channel": 5,
        "type": "noteOn",
        "noteNumber": 74,
        "velocity": 105
    },
    {
        "deltaTime": 0,
        "running": true,
        "channel": 5,
        "type": "noteOn",
        "noteNumber": 77,
        "velocity": 89
    },
    {
        "deltaTime": 0,
        "running": true,
        "channel": 5,
        "type": "noteOn",
        "noteNumber": 81,
        "velocity": 94
    },
    {
        "deltaTime": 1,
        "channel": 11,
        "type": "noteOff",
        "noteNumber": 41,
        "velocity": 0,
        "byte9": true
    },
    {
        "deltaTime": 12,
        "channel": 14,
        "type": "noteOn",
        "noteNumber": 62,
        "velocity": 105
    },
    {
        "deltaTime": 0,
        "running": true,
        "channel": 14,
        "type": "noteOn",
        "noteNumber": 65,
        "velocity": 89
    },
    {
        "deltaTime": 0,
        "running": true,
        "channel": 14,
        "type": "noteOn",
        "noteNumber": 69,
        "velocity": 94
    },
    {
        "deltaTime": 133,
        "channel": 5,
        "type": "noteOff",
        "noteNumber": 81,
        "velocity": 0,
        "byte9": true
    },
    {
        "deltaTime": 13,
        "channel": 14,
        "type": "noteOff",
        "noteNumber": 69,
        "velocity": 0,
        "byte9": true
    },
    {
        "deltaTime": 9,
        "channel": 5,
        "type": "noteOff",
        "noteNumber": 74,
        "velocity": 0,
        "byte9": true
    },
    {
        "deltaTime": 0,
        "running": true,
        "channel": 5,
        "type": "noteOff",
        "noteNumber": 77,
        "velocity": 0,
        "byte9": true
    },
    {
        "deltaTime": 13,
        "channel": 14,
        "type": "noteOff",
        "noteNumber": 62,
        "velocity": 0,
        "byte9": true
    },
    {
        "deltaTime": 0,
        "running": true,
        "channel": 14,
        "type": "noteOff",
        "noteNumber": 65,
        "velocity": 0,
        "byte9": true
    },
    {
        "deltaTime": 135,
        "channel": 1,
        "type": "noteOff",
        "noteNumber": 38,
        "velocity": 0,
        "byte9": true
    },
    {
        "deltaTime": 0,
        "channel": 8,
        "type": "noteOff",
        "noteNumber": 38,
        "velocity": 0,
        "byte9": true
    },
    {
        "deltaTime": 4,
        "channel": 1,
        "type": "noteOn",
        "noteNumber": 36,
        "velocity": 99
    },
    {
        "deltaTime": 0,
        "channel": 8,
        "type": "noteOn",
        "noteNumber": 36,
        "velocity": 99
    },
    {
        "deltaTime": 0,
        "channel": 9,
        "type": "noteOn",
        "noteNumber": 35,
        "velocity": 114
    },
    {
        "deltaTime": 0,
        "running": true,
        "channel": 9,
        "type": "noteOn",
        "noteNumber": 70,
        "velocity": 65
    },
    {
        "deltaTime": 0,
        "channel": 11,
        "type": "noteOn",
        "noteNumber": 41,
        "velocity": 114
    },
    {
        "deltaTime": 12,
        "channel": 9,
        "type": "noteOff",
        "noteNumber": 35,
        "velocity": 0,
        "byte9": true
    },
    {
        "deltaTime": 0,
        "running": true,
        "channel": 9,
        "type": "noteOff",
        "noteNumber": 70,
        "velocity": 0,
        "byte9": true
    },
    {
        "deltaTime": 148,
        "channel": 5,
        "type": "noteOn",
        "noteNumber": 74,
        "velocity": 109
    },
    {
        "deltaTime": 0,
        "running": true,
        "channel": 5,
        "type": "noteOn",
        "noteNumber": 77,
        "velocity": 97
    },
    {
        "deltaTime": 0,
        "running": true,
        "channel": 5,
        "type": "noteOn",
        "noteNumber": 81,
        "velocity": 110
    },
    {
        "deltaTime": 0,
        "channel": 9,
        "type": "noteOn",
        "noteNumber": 44,
        "velocity": 107
    },
    {
        "deltaTime": 0,
        "running": true,
        "channel": 9,
        "type": "noteOn",
        "noteNumber": 54,
        "velocity": 109
    },
    {
        "deltaTime": 1,
        "channel": 11,
        "type": "noteOff",
        "noteNumber": 41,
        "velocity": 0,
        "byte9": true
    },
    {
        "deltaTime": 11,
        "channel": 9,
        "type": "noteOff",
        "noteNumber": 44,
        "velocity": 0,
        "byte9": true
    },
    {
        "deltaTime": 0,
        "running": true,
        "channel": 9,
        "type": "noteOff",
        "noteNumber": 54,
        "velocity": 0,
        "byte9": true
    },
    {
        "deltaTime": 1,
        "channel": 14,
        "type": "noteOn",
        "noteNumber": 62,
        "velocity": 109
    },
    {
        "deltaTime": 0,
        "running": true,
        "channel": 14,
        "type": "noteOn",
        "noteNumber": 65,
        "velocity": 97
    },
    {
        "deltaTime": 0,
        "running": true,
        "channel": 14,
        "type": "noteOn",
        "noteNumber": 69,
        "velocity": 110
    },
    {
        "deltaTime": 136,
        "channel": 5,
        "type": "noteOff",
        "noteNumber": 81,
        "velocity": 0,
        "byte9": true
    },
    {
        "deltaTime": 9,
        "running": true,
        "channel": 5,
        "type": "noteOff",
        "noteNumber": 74,
        "velocity": 0,
        "byte9": true
    },
    {
        "deltaTime": 3,
        "running": true,
        "channel": 5,
        "type": "noteOff",
        "noteNumber": 77,
        "velocity": 0,
        "byte9": true
    },
    {
        "deltaTime": 1,
        "channel": 14,
        "type": "noteOff",
        "noteNumber": 69,
        "velocity": 0,
        "byte9": true
    },
    {
        "deltaTime": 9,
        "running": true,
        "channel": 14,
        "type": "noteOff",
        "noteNumber": 62,
        "velocity": 0,
        "byte9": true
    },
    {
        "deltaTime": 3,
        "running": true,
        "channel": 14,
        "type": "noteOff",
        "noteNumber": 65,
        "velocity": 0,
        "byte9": true
    },
    {
        "deltaTime": 142,
        "channel": 1,
        "type": "noteOff",
        "noteNumber": 36,
        "velocity": 0,
        "byte9": true
    },
    {
        "deltaTime": 0,
        "channel": 8,
        "type": "noteOff",
        "noteNumber": 36,
        "velocity": 0,
        "byte9": true
    },
    {
        "deltaTime": 4,
        "channel": 1,
        "type": "noteOn",
        "noteNumber": 33,
        "velocity": 99
    },
    {
        "deltaTime": 0,
        "channel": 8,
        "type": "noteOn",
        "noteNumber": 33,
        "velocity": 99
    },
    {
        "deltaTime": 156,
        "channel": 1,
        "type": "noteOff",
        "noteNumber": 33,
        "velocity": 0,
        "byte9": true
    },
    {
        "deltaTime": 0,
        "channel": 8,
        "type": "noteOff",
        "noteNumber": 33,
        "velocity": 0,
        "byte9": true
    },
    {
        "deltaTime": 4,
        "channel": 1,
        "type": "noteOn",
        "noteNumber": 31,
        "velocity": 99
    },
    {
        "deltaTime": 0,
        "channel": 5,
        "type": "noteOn",
        "noteNumber": 74,
        "velocity": 101
    },
    {
        "deltaTime": 0,
        "running": true,
        "channel": 5,
        "type": "noteOn",
        "noteNumber": 79,
        "velocity": 97
    },
    {
        "deltaTime": 0,
        "running": true,
        "channel": 5,
        "type": "noteOn",
        "noteNumber": 82,
        "velocity": 105
    },
    {
        "deltaTime": 0,
        "channel": 8,
        "type": "noteOn",
        "noteNumber": 31,
        "velocity": 99
    },
    {
        "deltaTime": 0,
        "channel": 9,
        "type": "noteOn",
        "noteNumber": 35,
        "velocity": 114
    },
    {
        "deltaTime": 0,
        "channel": 11,
        "type": "noteOn",
        "noteNumber": 41,
        "velocity": 114
    },
    {
        "deltaTime": 12,
        "channel": 9,
        "type": "noteOff",
        "noteNumber": 35,
        "velocity": 0,
        "byte9": true
    },
    {
        "deltaTime": 1,
        "channel": 14,
        "type": "noteOn",
        "noteNumber": 62,
        "velocity": 101
    },
    {
        "deltaTime": 0,
        "running": true,
        "channel": 14,
        "type": "noteOn",
        "noteNumber": 67,
        "velocity": 97
    },
    {
        "deltaTime": 0,
        "running": true,
        "channel": 14,
        "type": "noteOn",
        "noteNumber": 70,
        "velocity": 105
    },
    {
        "deltaTime": 60,
        "channel": 5,
        "type": "noteOff",
        "noteNumber": 82,
        "velocity": 0,
        "byte9": true
    },
    {
        "deltaTime": 13,
        "channel": 14,
        "type": "noteOff",
        "noteNumber": 70,
        "velocity": 0,
        "byte9": true
    },
    {
        "deltaTime": 35,
        "channel": 5,
        "type": "noteOff",
        "noteNumber": 79,
        "velocity": 0,
        "byte9": true
    },
    {
        "deltaTime": 2,
        "running": true,
        "channel": 5,
        "type": "noteOff",
        "noteNumber": 74,
        "velocity": 0,
        "byte9": true
    },
    {
        "deltaTime": 11,
        "channel": 14,
        "type": "noteOff",
        "noteNumber": 67,
        "velocity": 0,
        "byte9": true
    },
    {
        "deltaTime": 2,
        "running": true,
        "channel": 14,
        "type": "noteOff",
        "noteNumber": 62,
        "velocity": 0,
        "byte9": true
    },
    {
        "deltaTime": 25,
        "channel": 11,
        "type": "noteOff",
        "noteNumber": 41,
        "velocity": 0,
        "byte9": true
    },
    {
        "deltaTime": 319,
        "channel": 5,
        "type": "noteOn",
        "noteNumber": 74,
        "velocity": 111
    },
    {
        "deltaTime": 0,
        "running": true,
        "channel": 5,
        "type": "noteOn",
        "noteNumber": 79,
        "velocity": 107
    },
    {
        "deltaTime": 0,
        "running": true,
        "channel": 5,
        "type": "noteOn",
        "noteNumber": 82,
        "velocity": 105
    },
    {
        "deltaTime": 0,
        "channel": 9,
        "type": "noteOn",
        "noteNumber": 44,
        "velocity": 107
    },
    {
        "deltaTime": 0,
        "running": true,
        "channel": 9,
        "type": "noteOn",
        "noteNumber": 69,
        "velocity": 109
    },
    {
        "deltaTime": 12,
        "running": true,
        "channel": 9,
        "type": "noteOff",
        "noteNumber": 44,
        "velocity": 0,
        "byte9": true
    },
    {
        "deltaTime": 0,
        "running": true,
        "channel": 9,
        "type": "noteOff",
        "noteNumber": 69,
        "velocity": 0,
        "byte9": true
    },
    {
        "deltaTime": 1,
        "channel": 14,
        "type": "noteOn",
        "noteNumber": 62,
        "velocity": 111
    },
    {
        "deltaTime": 0,
        "running": true,
        "channel": 14,
        "type": "noteOn",
        "noteNumber": 67,
        "velocity": 107
    },
    {
        "deltaTime": 0,
        "running": true,
        "channel": 14,
        "type": "noteOn",
        "noteNumber": 70,
        "velocity": 105
    },
    {
        "deltaTime": 144,
        "channel": 5,
        "type": "noteOff",
        "noteNumber": 82,
        "velocity": 0,
        "byte9": true
    },
    {
        "deltaTime": 4,
        "channel": 1,
        "type": "noteOff",
        "noteNumber": 31,
        "velocity": 0,
        "byte9": true
    },
    {
        "deltaTime": 0,
        "channel": 8,
        "type": "noteOff",
        "noteNumber": 31,
        "velocity": 0,
        "byte9": true
    },
    {
        "deltaTime": 3,
        "channel": 5,
        "type": "noteOff",
        "noteNumber": 79,
        "velocity": 0,
        "byte9": true
    },
    {
        "deltaTime": 4,
        "running": true,
        "channel": 5,
        "type": "noteOff",
        "noteNumber": 74,
        "velocity": 0,
        "byte9": true
    },
    {
        "deltaTime": 2,
        "channel": 14,
        "type": "noteOff",
        "noteNumber": 70,
        "velocity": 0,
        "byte9": true
    },
    {
        "deltaTime": 7,
        "running": true,
        "channel": 14,
        "type": "noteOff",
        "noteNumber": 67,
        "velocity": 0,
        "byte9": true
    },
    {
        "deltaTime": 4,
        "running": true,
        "channel": 14,
        "type": "noteOff",
        "noteNumber": 62,
        "velocity": 0,
        "byte9": true
    },
    {
        "deltaTime": 139,
        "channel": 1,
        "type": "noteOn",
        "noteNumber": 31,
        "velocity": 99
    },
    {
        "deltaTime": 0,
        "channel": 8,
        "type": "noteOn",
        "noteNumber": 31,
        "velocity": 99
    },
    {
        "deltaTime": 0,
        "channel": 9,
        "type": "noteOn",
        "noteNumber": 35,
        "velocity": 107
    },
    {
        "deltaTime": 0,
        "channel": 11,
        "type": "noteOn",
        "noteNumber": 41,
        "velocity": 107
    },
    {
        "deltaTime": 12,
        "channel": 9,
        "type": "noteOff",
        "noteNumber": 35,
        "velocity": 0,
        "byte9": true
    },
    {
        "deltaTime": 148,
        "channel": 5,
        "type": "noteOn",
        "noteNumber": 74,
        "velocity": 105
    },
    {
        "deltaTime": 0,
        "running": true,
        "channel": 5,
        "type": "noteOn",
        "noteNumber": 79,
        "velocity": 94
    },
    {
        "deltaTime": 0,
        "running": true,
        "channel": 5,
        "type": "noteOn",
        "noteNumber": 82,
        "velocity": 94
    },
    {
        "deltaTime": 0,
        "channel": 9,
        "type": "noteOn",
        "noteNumber": 35,
        "velocity": 114
    },
    {
        "deltaTime": 0,
        "channel": 11,
        "type": "noteOn",
        "noteNumber": 41,
        "velocity": 114
    },
    {
        "deltaTime": 1,
        "running": true,
        "channel": 11,
        "type": "noteOff",
        "noteNumber": 41,
        "velocity": 0,
        "byte9": true
    },
    {
        "deltaTime": 11,
        "channel": 9,
        "type": "noteOff",
        "noteNumber": 35,
        "velocity": 0,
        "byte9": true
    },
    {
        "deltaTime": 1,
        "channel": 14,
        "type": "noteOn",
        "noteNumber": 62,
        "velocity": 105
    },
    {
        "deltaTime": 0,
        "running": true,
        "channel": 14,
        "type": "noteOn",
        "noteNumber": 67,
        "velocity": 94
    },
    {
        "deltaTime": 0,
        "running": true,
        "channel": 14,
        "type": "noteOn",
        "noteNumber": 70,
        "velocity": 94
    },
    {
        "deltaTime": 142,
        "channel": 5,
        "type": "noteOff",
        "noteNumber": 82,
        "velocity": 0,
        "byte9": true
    },
    {
        "deltaTime": 6,
        "channel": 11,
        "type": "noteOff",
        "noteNumber": 41,
        "velocity": 0,
        "byte9": true
    },
    {
        "deltaTime": 2,
        "channel": 5,
        "type": "noteOff",
        "noteNumber": 74,
        "velocity": 0,
        "byte9": true
    },
    {
        "deltaTime": 4,
        "running": true,
        "channel": 5,
        "type": "noteOff",
        "noteNumber": 79,
        "velocity": 0,
        "byte9": true
    },
    {
        "deltaTime": 1,
        "channel": 14,
        "type": "noteOff",
        "noteNumber": 70,
        "velocity": 0,
        "byte9": true
    },
    {
        "deltaTime": 8,
        "running": true,
        "channel": 14,
        "type": "noteOff",
        "noteNumber": 62,
        "velocity": 0,
        "byte9": true
    },
    {
        "deltaTime": 4,
        "running": true,
        "channel": 14,
        "type": "noteOff",
        "noteNumber": 67,
        "velocity": 0,
        "byte9": true
    },
    {
        "deltaTime": 140,
        "channel": 9,
        "type": "noteOn",
        "noteNumber": 70,
        "velocity": 65
    },
    {
        "deltaTime": 12,
        "running": true,
        "channel": 9,
        "type": "noteOff",
        "noteNumber": 70,
        "velocity": 0,
        "byte9": true
    },
    {
        "deltaTime": 148,
        "channel": 5,
        "type": "noteOn",
        "noteNumber": 74,
        "velocity": 109
    },
    {
        "deltaTime": 0,
        "running": true,
        "channel": 5,
        "type": "noteOn",
        "noteNumber": 79,
        "velocity": 94
    },
    {
        "deltaTime": 0,
        "running": true,
        "channel": 5,
        "type": "noteOn",
        "noteNumber": 82,
        "velocity": 94
    },
    {
        "deltaTime": 0,
        "channel": 9,
        "type": "noteOn",
        "noteNumber": 44,
        "velocity": 107
    },
    {
        "deltaTime": 0,
        "running": true,
        "channel": 9,
        "type": "noteOn",
        "noteNumber": 54,
        "velocity": 109
    },
    {
        "deltaTime": 12,
        "running": true,
        "channel": 9,
        "type": "noteOff",
        "noteNumber": 44,
        "velocity": 0,
        "byte9": true
    },
    {
        "deltaTime": 0,
        "running": true,
        "channel": 9,
        "type": "noteOff",
        "noteNumber": 54,
        "velocity": 0,
        "byte9": true
    },
    {
        "deltaTime": 1,
        "channel": 14,
        "type": "noteOn",
        "noteNumber": 62,
        "velocity": 109
    },
    {
        "deltaTime": 0,
        "running": true,
        "channel": 14,
        "type": "noteOn",
        "noteNumber": 67,
        "velocity": 94
    },
    {
        "deltaTime": 0,
        "running": true,
        "channel": 14,
        "type": "noteOn",
        "noteNumber": 70,
        "velocity": 94
    },
    {
        "deltaTime": 128,
        "channel": 5,
        "type": "noteOff",
        "noteNumber": 82,
        "velocity": 0,
        "byte9": true
    },
    {
        "deltaTime": 13,
        "running": true,
        "channel": 5,
        "type": "noteOff",
        "noteNumber": 74,
        "velocity": 0,
        "byte9": true
    },
    {
        "deltaTime": 0,
        "running": true,
        "channel": 5,
        "type": "noteOff",
        "noteNumber": 79,
        "velocity": 0,
        "byte9": true
    },
    {
        "deltaTime": 0,
        "channel": 14,
        "type": "noteOff",
        "noteNumber": 70,
        "velocity": 0,
        "byte9": true
    },
    {
        "deltaTime": 7,
        "channel": 1,
        "type": "noteOff",
        "noteNumber": 31,
        "velocity": 0,
        "byte9": true
    },
    {
        "deltaTime": 0,
        "channel": 8,
        "type": "noteOff",
        "noteNumber": 31,
        "velocity": 0,
        "byte9": true
    },
    {
        "deltaTime": 6,
        "channel": 14,
        "type": "noteOff",
        "noteNumber": 62,
        "velocity": 0,
        "byte9": true
    },
    {
        "deltaTime": 0,
        "running": true,
        "channel": 14,
        "type": "noteOff",
        "noteNumber": 67,
        "velocity": 0,
        "byte9": true
    },
    {
        "deltaTime": 153,
        "channel": 1,
        "type": "noteOn",
        "noteNumber": 31,
        "velocity": 99
    },
    {
        "deltaTime": 0,
        "channel": 8,
        "type": "noteOn",
        "noteNumber": 31,
        "velocity": 99
    },
    {
        "deltaTime": 160,
        "channel": 5,
        "type": "noteOn",
        "noteNumber": 74,
        "velocity": 109
    },
    {
        "deltaTime": 0,
        "running": true,
        "channel": 5,
        "type": "noteOn",
        "noteNumber": 79,
        "velocity": 94
    },
    {
        "deltaTime": 0,
        "running": true,
        "channel": 5,
        "type": "noteOn",
        "noteNumber": 82,
        "velocity": 101
    },
    {
        "deltaTime": 0,
        "channel": 9,
        "type": "noteOn",
        "noteNumber": 35,
        "velocity": 114
    },
    {
        "deltaTime": 0,
        "channel": 11,
        "type": "noteOn",
        "noteNumber": 41,
        "velocity": 114
    },
    {
        "deltaTime": 12,
        "channel": 9,
        "type": "noteOff",
        "noteNumber": 35,
        "velocity": 0,
        "byte9": true
    },
    {
        "deltaTime": 1,
        "channel": 14,
        "type": "noteOn",
        "noteNumber": 62,
        "velocity": 109
    },
    {
        "deltaTime": 0,
        "running": true,
        "channel": 14,
        "type": "noteOn",
        "noteNumber": 67,
        "velocity": 94
    },
    {
        "deltaTime": 0,
        "running": true,
        "channel": 14,
        "type": "noteOn",
        "noteNumber": 70,
        "velocity": 101
    },
    {
        "deltaTime": 142,
        "channel": 5,
        "type": "noteOff",
        "noteNumber": 82,
        "velocity": 0,
        "byte9": true
    },
    {
        "deltaTime": 6,
        "channel": 11,
        "type": "noteOff",
        "noteNumber": 41,
        "velocity": 0,
        "byte9": true
    },
    {
        "deltaTime": 7,
        "channel": 14,
        "type": "noteOff",
        "noteNumber": 70,
        "velocity": 0,
        "byte9": true
    },
    {
        "deltaTime": 3,
        "channel": 5,
        "type": "noteOff",
        "noteNumber": 74,
        "velocity": 0,
        "byte9": true
    },
    {
        "deltaTime": 0,
        "running": true,
        "channel": 5,
        "type": "noteOff",
        "noteNumber": 79,
        "velocity": 0,
        "byte9": true
    },
    {
        "deltaTime": 13,
        "channel": 14,
        "type": "noteOff",
        "noteNumber": 62,
        "velocity": 0,
        "byte9": true
    },
    {
        "deltaTime": 0,
        "running": true,
        "channel": 14,
        "type": "noteOff",
        "noteNumber": 67,
        "velocity": 0,
        "byte9": true
    },
    {
        "deltaTime": 296,
        "channel": 5,
        "type": "noteOn",
        "noteNumber": 74,
        "velocity": 108
    },
    {
        "deltaTime": 0,
        "running": true,
        "channel": 5,
        "type": "noteOn",
        "noteNumber": 79,
        "velocity": 97
    },
    {
        "deltaTime": 0,
        "running": true,
        "channel": 5,
        "type": "noteOn",
        "noteNumber": 82,
        "velocity": 98
    },
    {
        "deltaTime": 0,
        "channel": 9,
        "type": "noteOn",
        "noteNumber": 44,
        "velocity": 107
    },
    {
        "deltaTime": 0,
        "running": true,
        "channel": 9,
        "type": "noteOn",
        "noteNumber": 69,
        "velocity": 109
    },
    {
        "deltaTime": 12,
        "running": true,
        "channel": 9,
        "type": "noteOff",
        "noteNumber": 44,
        "velocity": 0,
        "byte9": true
    },
    {
        "deltaTime": 0,
        "running": true,
        "channel": 9,
        "type": "noteOff",
        "noteNumber": 69,
        "velocity": 0,
        "byte9": true
    },
    {
        "deltaTime": 1,
        "channel": 14,
        "type": "noteOn",
        "noteNumber": 62,
        "velocity": 108
    },
    {
        "deltaTime": 0,
        "running": true,
        "channel": 14,
        "type": "noteOn",
        "noteNumber": 67,
        "velocity": 97
    },
    {
        "deltaTime": 0,
        "running": true,
        "channel": 14,
        "type": "noteOn",
        "noteNumber": 70,
        "velocity": 98
    },
    {
        "deltaTime": 133,
        "channel": 5,
        "type": "noteOff",
        "noteNumber": 82,
        "velocity": 0,
        "byte9": true
    },
    {
        "deltaTime": 12,
        "running": true,
        "channel": 5,
        "type": "noteOff",
        "noteNumber": 74,
        "velocity": 0,
        "byte9": true
    },
    {
        "deltaTime": 1,
        "channel": 14,
        "type": "noteOff",
        "noteNumber": 70,
        "velocity": 0,
        "byte9": true
    },
    {
        "deltaTime": 2,
        "channel": 1,
        "type": "noteOff",
        "noteNumber": 31,
        "velocity": 0,
        "byte9": true
    },
    {
        "deltaTime": 0,
        "channel": 8,
        "type": "noteOff",
        "noteNumber": 31,
        "velocity": 0,
        "byte9": true
    },
    {
        "deltaTime": 2,
        "channel": 5,
        "type": "noteOff",
        "noteNumber": 79,
        "velocity": 0,
        "byte9": true
    },
    {
        "deltaTime": 8,
        "channel": 14,
        "type": "noteOff",
        "noteNumber": 62,
        "velocity": 0,
        "byte9": true
    },
    {
        "deltaTime": 5,
        "running": true,
        "channel": 14,
        "type": "noteOff",
        "noteNumber": 67,
        "velocity": 0,
        "byte9": true
    },
    {
        "deltaTime": 144,
        "channel": 1,
        "type": "noteOn",
        "noteNumber": 31,
        "velocity": 99
    },
    {
        "deltaTime": 0,
        "channel": 8,
        "type": "noteOn",
        "noteNumber": 31,
        "velocity": 99
    },
    {
        "deltaTime": 0,
        "channel": 9,
        "type": "noteOn",
        "noteNumber": 35,
        "velocity": 114
    },
    {
        "deltaTime": 0,
        "channel": 11,
        "type": "noteOn",
        "noteNumber": 41,
        "velocity": 114
    },
    {
        "deltaTime": 12,
        "channel": 9,
        "type": "noteOff",
        "noteNumber": 35,
        "velocity": 0,
        "byte9": true
    },
    {
        "deltaTime": 148,
        "channel": 5,
        "type": "noteOn",
        "noteNumber": 74,
        "velocity": 105
    },
    {
        "deltaTime": 0,
        "running": true,
        "channel": 5,
        "type": "noteOn",
        "noteNumber": 79,
        "velocity": 89
    },
    {
        "deltaTime": 0,
        "running": true,
        "channel": 5,
        "type": "noteOn",
        "noteNumber": 82,
        "velocity": 94
    },
    {
        "deltaTime": 1,
        "channel": 11,
        "type": "noteOff",
        "noteNumber": 41,
        "velocity": 0,
        "byte9": true
    },
    {
        "deltaTime": 12,
        "channel": 14,
        "type": "noteOn",
        "noteNumber": 62,
        "velocity": 105
    },
    {
        "deltaTime": 0,
        "running": true,
        "channel": 14,
        "type": "noteOn",
        "noteNumber": 67,
        "velocity": 89
    },
    {
        "deltaTime": 0,
        "running": true,
        "channel": 14,
        "type": "noteOn",
        "noteNumber": 70,
        "velocity": 94
    },
    {
        "deltaTime": 133,
        "channel": 5,
        "type": "noteOff",
        "noteNumber": 82,
        "velocity": 0,
        "byte9": true
    },
    {
        "deltaTime": 13,
        "channel": 14,
        "type": "noteOff",
        "noteNumber": 70,
        "velocity": 0,
        "byte9": true
    },
    {
        "deltaTime": 9,
        "channel": 5,
        "type": "noteOff",
        "noteNumber": 74,
        "velocity": 0,
        "byte9": true
    },
    {
        "deltaTime": 0,
        "running": true,
        "channel": 5,
        "type": "noteOff",
        "noteNumber": 79,
        "velocity": 0,
        "byte9": true
    },
    {
        "deltaTime": 13,
        "channel": 14,
        "type": "noteOff",
        "noteNumber": 62,
        "velocity": 0,
        "byte9": true
    },
    {
        "deltaTime": 0,
        "running": true,
        "channel": 14,
        "type": "noteOff",
        "noteNumber": 67,
        "velocity": 0,
        "byte9": true
    },
    {
        "deltaTime": 135,
        "channel": 1,
        "type": "noteOff",
        "noteNumber": 31,
        "velocity": 0,
        "byte9": true
    },
    {
        "deltaTime": 0,
        "channel": 8,
        "type": "noteOff",
        "noteNumber": 31,
        "velocity": 0,
        "byte9": true
    },
    {
        "deltaTime": 4,
        "channel": 1,
        "type": "noteOn",
        "noteNumber": 32,
        "velocity": 99
    },
    {
        "deltaTime": 0,
        "channel": 8,
        "type": "noteOn",
        "noteNumber": 32,
        "velocity": 99
    },
    {
        "deltaTime": 0,
        "channel": 9,
        "type": "noteOn",
        "noteNumber": 35,
        "velocity": 114
    },
    {
        "deltaTime": 0,
        "running": true,
        "channel": 9,
        "type": "noteOn",
        "noteNumber": 70,
        "velocity": 65
    },
    {
        "deltaTime": 0,
        "channel": 11,
        "type": "noteOn",
        "noteNumber": 41,
        "velocity": 114
    },
    {
        "deltaTime": 12,
        "channel": 9,
        "type": "noteOff",
        "noteNumber": 35,
        "velocity": 0,
        "byte9": true
    },
    {
        "deltaTime": 0,
        "running": true,
        "channel": 9,
        "type": "noteOff",
        "noteNumber": 70,
        "velocity": 0,
        "byte9": true
    },
    {
        "deltaTime": 148,
        "channel": 5,
        "type": "noteOn",
        "noteNumber": 74,
        "velocity": 109
    },
    {
        "deltaTime": 0,
        "running": true,
        "channel": 5,
        "type": "noteOn",
        "noteNumber": 79,
        "velocity": 97
    },
    {
        "deltaTime": 0,
        "running": true,
        "channel": 5,
        "type": "noteOn",
        "noteNumber": 82,
        "velocity": 110
    },
    {
        "deltaTime": 0,
        "channel": 9,
        "type": "noteOn",
        "noteNumber": 44,
        "velocity": 107
    },
    {
        "deltaTime": 0,
        "running": true,
        "channel": 9,
        "type": "noteOn",
        "noteNumber": 54,
        "velocity": 109
    },
    {
        "deltaTime": 1,
        "channel": 11,
        "type": "noteOff",
        "noteNumber": 41,
        "velocity": 0,
        "byte9": true
    },
    {
        "deltaTime": 11,
        "channel": 9,
        "type": "noteOff",
        "noteNumber": 44,
        "velocity": 0,
        "byte9": true
    },
    {
        "deltaTime": 0,
        "running": true,
        "channel": 9,
        "type": "noteOff",
        "noteNumber": 54,
        "velocity": 0,
        "byte9": true
    },
    {
        "deltaTime": 1,
        "channel": 14,
        "type": "noteOn",
        "noteNumber": 62,
        "velocity": 109
    },
    {
        "deltaTime": 0,
        "running": true,
        "channel": 14,
        "type": "noteOn",
        "noteNumber": 67,
        "velocity": 97
    },
    {
        "deltaTime": 0,
        "running": true,
        "channel": 14,
        "type": "noteOn",
        "noteNumber": 70,
        "velocity": 110
    },
    {
        "deltaTime": 136,
        "channel": 5,
        "type": "noteOff",
        "noteNumber": 82,
        "velocity": 0,
        "byte9": true
    },
    {
        "deltaTime": 9,
        "running": true,
        "channel": 5,
        "type": "noteOff",
        "noteNumber": 74,
        "velocity": 0,
        "byte9": true
    },
    {
        "deltaTime": 3,
        "running": true,
        "channel": 5,
        "type": "noteOff",
        "noteNumber": 79,
        "velocity": 0,
        "byte9": true
    },
    {
        "deltaTime": 1,
        "channel": 14,
        "type": "noteOff",
        "noteNumber": 70,
        "velocity": 0,
        "byte9": true
    },
    {
        "deltaTime": 9,
        "running": true,
        "channel": 14,
        "type": "noteOff",
        "noteNumber": 62,
        "velocity": 0,
        "byte9": true
    },
    {
        "deltaTime": 3,
        "running": true,
        "channel": 14,
        "type": "noteOff",
        "noteNumber": 67,
        "velocity": 0,
        "byte9": true
    },
    {
        "deltaTime": 142,
        "channel": 1,
        "type": "noteOff",
        "noteNumber": 32,
        "velocity": 0,
        "byte9": true
    },
    {
        "deltaTime": 0,
        "channel": 8,
        "type": "noteOff",
        "noteNumber": 32,
        "velocity": 0,
        "byte9": true
    },
    {
        "deltaTime": 4,
        "channel": 1,
        "type": "noteOn",
        "noteNumber": 33,
        "velocity": 99
    },
    {
        "deltaTime": 0,
        "channel": 8,
        "type": "noteOn",
        "noteNumber": 33,
        "velocity": 99
    },
    {
        "deltaTime": 156,
        "channel": 1,
        "type": "noteOff",
        "noteNumber": 33,
        "velocity": 0,
        "byte9": true
    },
    {
        "deltaTime": 0,
        "channel": 8,
        "type": "noteOff",
        "noteNumber": 33,
        "velocity": 0,
        "byte9": true
    },
    {
        "deltaTime": 4,
        "channel": 1,
        "type": "noteOn",
        "noteNumber": 34,
        "velocity": 99
    },
    {
        "deltaTime": 0,
        "channel": 5,
        "type": "noteOn",
        "noteNumber": 74,
        "velocity": 101
    },
    {
        "deltaTime": 0,
        "running": true,
        "channel": 5,
        "type": "noteOn",
        "noteNumber": 77,
        "velocity": 97
    },
    {
        "deltaTime": 0,
        "running": true,
        "channel": 5,
        "type": "noteOn",
        "noteNumber": 82,
        "velocity": 105
    },
    {
        "deltaTime": 0,
        "channel": 8,
        "type": "noteOn",
        "noteNumber": 34,
        "velocity": 99
    },
    {
        "deltaTime": 0,
        "channel": 9,
        "type": "noteOn",
        "noteNumber": 35,
        "velocity": 114
    },
    {
        "deltaTime": 0,
        "channel": 11,
        "type": "noteOn",
        "noteNumber": 41,
        "velocity": 114
    },
    {
        "deltaTime": 12,
        "channel": 9,
        "type": "noteOff",
        "noteNumber": 35,
        "velocity": 0,
        "byte9": true
    },
    {
        "deltaTime": 1,
        "channel": 14,
        "type": "noteOn",
        "noteNumber": 62,
        "velocity": 101
    },
    {
        "deltaTime": 0,
        "running": true,
        "channel": 14,
        "type": "noteOn",
        "noteNumber": 65,
        "velocity": 97
    },
    {
        "deltaTime": 0,
        "running": true,
        "channel": 14,
        "type": "noteOn",
        "noteNumber": 70,
        "velocity": 105
    },
    {
        "deltaTime": 60,
        "channel": 5,
        "type": "noteOff",
        "noteNumber": 82,
        "velocity": 0,
        "byte9": true
    },
    {
        "deltaTime": 13,
        "channel": 14,
        "type": "noteOff",
        "noteNumber": 70,
        "velocity": 0,
        "byte9": true
    },
    {
        "deltaTime": 35,
        "channel": 5,
        "type": "noteOff",
        "noteNumber": 77,
        "velocity": 0,
        "byte9": true
    },
    {
        "deltaTime": 2,
        "running": true,
        "channel": 5,
        "type": "noteOff",
        "noteNumber": 74,
        "velocity": 0,
        "byte9": true
    },
    {
        "deltaTime": 11,
        "channel": 14,
        "type": "noteOff",
        "noteNumber": 65,
        "velocity": 0,
        "byte9": true
    },
    {
        "deltaTime": 2,
        "running": true,
        "channel": 14,
        "type": "noteOff",
        "noteNumber": 62,
        "velocity": 0,
        "byte9": true
    },
    {
        "deltaTime": 25,
        "channel": 11,
        "type": "noteOff",
        "noteNumber": 41,
        "velocity": 0,
        "byte9": true
    },
    {
        "deltaTime": 319,
        "channel": 5,
        "type": "noteOn",
        "noteNumber": 74,
        "velocity": 111
    },
    {
        "deltaTime": 0,
        "running": true,
        "channel": 5,
        "type": "noteOn",
        "noteNumber": 77,
        "velocity": 107
    },
    {
        "deltaTime": 0,
        "running": true,
        "channel": 5,
        "type": "noteOn",
        "noteNumber": 82,
        "velocity": 105
    },
    {
        "deltaTime": 0,
        "channel": 9,
        "type": "noteOn",
        "noteNumber": 44,
        "velocity": 107
    },
    {
        "deltaTime": 0,
        "running": true,
        "channel": 9,
        "type": "noteOn",
        "noteNumber": 69,
        "velocity": 109
    },
    {
        "deltaTime": 12,
        "running": true,
        "channel": 9,
        "type": "noteOff",
        "noteNumber": 44,
        "velocity": 0,
        "byte9": true
    },
    {
        "deltaTime": 0,
        "running": true,
        "channel": 9,
        "type": "noteOff",
        "noteNumber": 69,
        "velocity": 0,
        "byte9": true
    },
    {
        "deltaTime": 1,
        "channel": 14,
        "type": "noteOn",
        "noteNumber": 62,
        "velocity": 111
    },
    {
        "deltaTime": 0,
        "running": true,
        "channel": 14,
        "type": "noteOn",
        "noteNumber": 65,
        "velocity": 107
    },
    {
        "deltaTime": 0,
        "running": true,
        "channel": 14,
        "type": "noteOn",
        "noteNumber": 70,
        "velocity": 105
    },
    {
        "deltaTime": 144,
        "channel": 5,
        "type": "noteOff",
        "noteNumber": 82,
        "velocity": 0,
        "byte9": true
    },
    {
        "deltaTime": 7,
        "running": true,
        "channel": 5,
        "type": "noteOff",
        "noteNumber": 77,
        "velocity": 0,
        "byte9": true
    },
    {
        "deltaTime": 4,
        "running": true,
        "channel": 5,
        "type": "noteOff",
        "noteNumber": 74,
        "velocity": 0,
        "byte9": true
    },
    {
        "deltaTime": 2,
        "channel": 14,
        "type": "noteOff",
        "noteNumber": 70,
        "velocity": 0,
        "byte9": true
    },
    {
        "deltaTime": 7,
        "running": true,
        "channel": 14,
        "type": "noteOff",
        "noteNumber": 65,
        "velocity": 0,
        "byte9": true
    },
    {
        "deltaTime": 4,
        "running": true,
        "channel": 14,
        "type": "noteOff",
        "noteNumber": 62,
        "velocity": 0,
        "byte9": true
    },
    {
        "deltaTime": 80,
        "channel": 1,
        "type": "noteOff",
        "noteNumber": 34,
        "velocity": 0,
        "byte9": true
    },
    {
        "deltaTime": 0,
        "channel": 8,
        "type": "noteOff",
        "noteNumber": 34,
        "velocity": 0,
        "byte9": true
    },
    {
        "deltaTime": 59,
        "channel": 1,
        "type": "noteOn",
        "noteNumber": 34,
        "velocity": 99
    },
    {
        "deltaTime": 0,
        "channel": 8,
        "type": "noteOn",
        "noteNumber": 34,
        "velocity": 99
    },
    {
        "deltaTime": 0,
        "channel": 9,
        "type": "noteOn",
        "noteNumber": 35,
        "velocity": 107
    },
    {
        "deltaTime": 0,
        "channel": 11,
        "type": "noteOn",
        "noteNumber": 41,
        "velocity": 107
    },
    {
        "deltaTime": 12,
        "channel": 9,
        "type": "noteOff",
        "noteNumber": 35,
        "velocity": 0,
        "byte9": true
    },
    {
        "deltaTime": 148,
        "channel": 5,
        "type": "noteOn",
        "noteNumber": 74,
        "velocity": 105
    },
    {
        "deltaTime": 0,
        "running": true,
        "channel": 5,
        "type": "noteOn",
        "noteNumber": 77,
        "velocity": 94
    },
    {
        "deltaTime": 0,
        "running": true,
        "channel": 5,
        "type": "noteOn",
        "noteNumber": 82,
        "velocity": 94
    },
    {
        "deltaTime": 0,
        "channel": 9,
        "type": "noteOn",
        "noteNumber": 35,
        "velocity": 114
    },
    {
        "deltaTime": 0,
        "channel": 11,
        "type": "noteOn",
        "noteNumber": 41,
        "velocity": 114
    },
    {
        "deltaTime": 1,
        "running": true,
        "channel": 11,
        "type": "noteOff",
        "noteNumber": 41,
        "velocity": 0,
        "byte9": true
    },
    {
        "deltaTime": 11,
        "channel": 9,
        "type": "noteOff",
        "noteNumber": 35,
        "velocity": 0,
        "byte9": true
    },
    {
        "deltaTime": 1,
        "channel": 14,
        "type": "noteOn",
        "noteNumber": 62,
        "velocity": 105
    },
    {
        "deltaTime": 0,
        "running": true,
        "channel": 14,
        "type": "noteOn",
        "noteNumber": 65,
        "velocity": 94
    },
    {
        "deltaTime": 0,
        "running": true,
        "channel": 14,
        "type": "noteOn",
        "noteNumber": 70,
        "velocity": 94
    },
    {
        "deltaTime": 142,
        "channel": 5,
        "type": "noteOff",
        "noteNumber": 82,
        "velocity": 0,
        "byte9": true
    },
    {
        "deltaTime": 6,
        "channel": 11,
        "type": "noteOff",
        "noteNumber": 41,
        "velocity": 0,
        "byte9": true
    },
    {
        "deltaTime": 2,
        "channel": 5,
        "type": "noteOff",
        "noteNumber": 74,
        "velocity": 0,
        "byte9": true
    },
    {
        "deltaTime": 4,
        "running": true,
        "channel": 5,
        "type": "noteOff",
        "noteNumber": 77,
        "velocity": 0,
        "byte9": true
    },
    {
        "deltaTime": 1,
        "channel": 14,
        "type": "noteOff",
        "noteNumber": 70,
        "velocity": 0,
        "byte9": true
    },
    {
        "deltaTime": 8,
        "running": true,
        "channel": 14,
        "type": "noteOff",
        "noteNumber": 62,
        "velocity": 0,
        "byte9": true
    },
    {
        "deltaTime": 4,
        "running": true,
        "channel": 14,
        "type": "noteOff",
        "noteNumber": 65,
        "velocity": 0,
        "byte9": true
    },
    {
        "deltaTime": 140,
        "channel": 9,
        "type": "noteOn",
        "noteNumber": 70,
        "velocity": 65
    },
    {
        "deltaTime": 12,
        "running": true,
        "channel": 9,
        "type": "noteOff",
        "noteNumber": 70,
        "velocity": 0,
        "byte9": true
    },
    {
        "deltaTime": 148,
        "channel": 5,
        "type": "noteOn",
        "noteNumber": 74,
        "velocity": 109
    },
    {
        "deltaTime": 0,
        "running": true,
        "channel": 5,
        "type": "noteOn",
        "noteNumber": 77,
        "velocity": 94
    },
    {
        "deltaTime": 0,
        "running": true,
        "channel": 5,
        "type": "noteOn",
        "noteNumber": 82,
        "velocity": 94
    },
    {
        "deltaTime": 0,
        "channel": 9,
        "type": "noteOn",
        "noteNumber": 44,
        "velocity": 107
    },
    {
        "deltaTime": 0,
        "running": true,
        "channel": 9,
        "type": "noteOn",
        "noteNumber": 54,
        "velocity": 109
    },
    {
        "deltaTime": 12,
        "running": true,
        "channel": 9,
        "type": "noteOff",
        "noteNumber": 44,
        "velocity": 0,
        "byte9": true
    },
    {
        "deltaTime": 0,
        "running": true,
        "channel": 9,
        "type": "noteOff",
        "noteNumber": 54,
        "velocity": 0,
        "byte9": true
    },
    {
        "deltaTime": 1,
        "channel": 14,
        "type": "noteOn",
        "noteNumber": 62,
        "velocity": 109
    },
    {
        "deltaTime": 0,
        "running": true,
        "channel": 14,
        "type": "noteOn",
        "noteNumber": 65,
        "velocity": 94
    },
    {
        "deltaTime": 0,
        "running": true,
        "channel": 14,
        "type": "noteOn",
        "noteNumber": 70,
        "velocity": 94
    },
    {
        "deltaTime": 88,
        "channel": 1,
        "type": "noteOff",
        "noteNumber": 34,
        "velocity": 0,
        "byte9": true
    },
    {
        "deltaTime": 0,
        "channel": 8,
        "type": "noteOff",
        "noteNumber": 34,
        "velocity": 0,
        "byte9": true
    },
    {
        "deltaTime": 40,
        "channel": 5,
        "type": "noteOff",
        "noteNumber": 82,
        "velocity": 0,
        "byte9": true
    },
    {
        "deltaTime": 13,
        "running": true,
        "channel": 5,
        "type": "noteOff",
        "noteNumber": 74,
        "velocity": 0,
        "byte9": true
    },
    {
        "deltaTime": 0,
        "running": true,
        "channel": 5,
        "type": "noteOff",
        "noteNumber": 77,
        "velocity": 0,
        "byte9": true
    },
    {
        "deltaTime": 0,
        "channel": 14,
        "type": "noteOff",
        "noteNumber": 70,
        "velocity": 0,
        "byte9": true
    },
    {
        "deltaTime": 13,
        "running": true,
        "channel": 14,
        "type": "noteOff",
        "noteNumber": 62,
        "velocity": 0,
        "byte9": true
    },
    {
        "deltaTime": 0,
        "running": true,
        "channel": 14,
        "type": "noteOff",
        "noteNumber": 65,
        "velocity": 0,
        "byte9": true
    },
    {
        "deltaTime": 153,
        "channel": 1,
        "type": "noteOn",
        "noteNumber": 34,
        "velocity": 99
    },
    {
        "deltaTime": 0,
        "channel": 8,
        "type": "noteOn",
        "noteNumber": 34,
        "velocity": 99
    },
    {
        "deltaTime": 160,
        "channel": 5,
        "type": "noteOn",
        "noteNumber": 74,
        "velocity": 109
    },
    {
        "deltaTime": 0,
        "running": true,
        "channel": 5,
        "type": "noteOn",
        "noteNumber": 77,
        "velocity": 94
    },
    {
        "deltaTime": 0,
        "running": true,
        "channel": 5,
        "type": "noteOn",
        "noteNumber": 82,
        "velocity": 101
    },
    {
        "deltaTime": 0,
        "channel": 9,
        "type": "noteOn",
        "noteNumber": 35,
        "velocity": 114
    },
    {
        "deltaTime": 0,
        "channel": 11,
        "type": "noteOn",
        "noteNumber": 41,
        "velocity": 114
    },
    {
        "deltaTime": 12,
        "channel": 9,
        "type": "noteOff",
        "noteNumber": 35,
        "velocity": 0,
        "byte9": true
    },
    {
        "deltaTime": 1,
        "channel": 14,
        "type": "noteOn",
        "noteNumber": 62,
        "velocity": 109
    },
    {
        "deltaTime": 0,
        "running": true,
        "channel": 14,
        "type": "noteOn",
        "noteNumber": 65,
        "velocity": 94
    },
    {
        "deltaTime": 0,
        "running": true,
        "channel": 14,
        "type": "noteOn",
        "noteNumber": 70,
        "velocity": 101
    },
    {
        "deltaTime": 142,
        "channel": 5,
        "type": "noteOff",
        "noteNumber": 82,
        "velocity": 0,
        "byte9": true
    },
    {
        "deltaTime": 6,
        "channel": 11,
        "type": "noteOff",
        "noteNumber": 41,
        "velocity": 0,
        "byte9": true
    },
    {
        "deltaTime": 7,
        "channel": 14,
        "type": "noteOff",
        "noteNumber": 70,
        "velocity": 0,
        "byte9": true
    },
    {
        "deltaTime": 3,
        "channel": 5,
        "type": "noteOff",
        "noteNumber": 74,
        "velocity": 0,
        "byte9": true
    },
    {
        "deltaTime": 0,
        "running": true,
        "channel": 5,
        "type": "noteOff",
        "noteNumber": 77,
        "velocity": 0,
        "byte9": true
    },
    {
        "deltaTime": 13,
        "channel": 14,
        "type": "noteOff",
        "noteNumber": 62,
        "velocity": 0,
        "byte9": true
    },
    {
        "deltaTime": 0,
        "running": true,
        "channel": 14,
        "type": "noteOff",
        "noteNumber": 65,
        "velocity": 0,
        "byte9": true
    },
    {
        "deltaTime": 296,
        "channel": 5,
        "type": "noteOn",
        "noteNumber": 74,
        "velocity": 108
    },
    {
        "deltaTime": 0,
        "running": true,
        "channel": 5,
        "type": "noteOn",
        "noteNumber": 77,
        "velocity": 97
    },
    {
        "deltaTime": 0,
        "running": true,
        "channel": 5,
        "type": "noteOn",
        "noteNumber": 82,
        "velocity": 98
    },
    {
        "deltaTime": 0,
        "channel": 9,
        "type": "noteOn",
        "noteNumber": 44,
        "velocity": 107
    },
    {
        "deltaTime": 0,
        "running": true,
        "channel": 9,
        "type": "noteOn",
        "noteNumber": 69,
        "velocity": 109
    },
    {
        "deltaTime": 12,
        "running": true,
        "channel": 9,
        "type": "noteOff",
        "noteNumber": 44,
        "velocity": 0,
        "byte9": true
    },
    {
        "deltaTime": 0,
        "running": true,
        "channel": 9,
        "type": "noteOff",
        "noteNumber": 69,
        "velocity": 0,
        "byte9": true
    },
    {
        "deltaTime": 1,
        "channel": 14,
        "type": "noteOn",
        "noteNumber": 62,
        "velocity": 108
    },
    {
        "deltaTime": 0,
        "running": true,
        "channel": 14,
        "type": "noteOn",
        "noteNumber": 65,
        "velocity": 97
    },
    {
        "deltaTime": 0,
        "running": true,
        "channel": 14,
        "type": "noteOn",
        "noteNumber": 70,
        "velocity": 98
    },
    {
        "deltaTime": 88,
        "channel": 1,
        "type": "noteOff",
        "noteNumber": 34,
        "velocity": 0,
        "byte9": true
    },
    {
        "deltaTime": 0,
        "channel": 8,
        "type": "noteOff",
        "noteNumber": 34,
        "velocity": 0,
        "byte9": true
    },
    {
        "deltaTime": 45,
        "channel": 5,
        "type": "noteOff",
        "noteNumber": 82,
        "velocity": 0,
        "byte9": true
    },
    {
        "deltaTime": 12,
        "running": true,
        "channel": 5,
        "type": "noteOff",
        "noteNumber": 74,
        "velocity": 0,
        "byte9": true
    },
    {
        "deltaTime": 1,
        "channel": 14,
        "type": "noteOff",
        "noteNumber": 70,
        "velocity": 0,
        "byte9": true
    },
    {
        "deltaTime": 4,
        "channel": 5,
        "type": "noteOff",
        "noteNumber": 77,
        "velocity": 0,
        "byte9": true
    },
    {
        "deltaTime": 8,
        "channel": 14,
        "type": "noteOff",
        "noteNumber": 62,
        "velocity": 0,
        "byte9": true
    },
    {
        "deltaTime": 5,
        "running": true,
        "channel": 14,
        "type": "noteOff",
        "noteNumber": 65,
        "velocity": 0,
        "byte9": true
    },
    {
        "deltaTime": 144,
        "channel": 1,
        "type": "noteOn",
        "noteNumber": 34,
        "velocity": 99
    },
    {
        "deltaTime": 0,
        "channel": 8,
        "type": "noteOn",
        "noteNumber": 34,
        "velocity": 99
    },
    {
        "deltaTime": 0,
        "channel": 9,
        "type": "noteOn",
        "noteNumber": 35,
        "velocity": 114
    },
    {
        "deltaTime": 0,
        "channel": 11,
        "type": "noteOn",
        "noteNumber": 41,
        "velocity": 114
    },
    {
        "deltaTime": 12,
        "channel": 9,
        "type": "noteOff",
        "noteNumber": 35,
        "velocity": 0,
        "byte9": true
    },
    {
        "deltaTime": 148,
        "channel": 5,
        "type": "noteOn",
        "noteNumber": 74,
        "velocity": 105
    },
    {
        "deltaTime": 0,
        "running": true,
        "channel": 5,
        "type": "noteOn",
        "noteNumber": 77,
        "velocity": 89
    },
    {
        "deltaTime": 0,
        "running": true,
        "channel": 5,
        "type": "noteOn",
        "noteNumber": 82,
        "velocity": 94
    },
    {
        "deltaTime": 1,
        "channel": 11,
        "type": "noteOff",
        "noteNumber": 41,
        "velocity": 0,
        "byte9": true
    },
    {
        "deltaTime": 12,
        "channel": 14,
        "type": "noteOn",
        "noteNumber": 62,
        "velocity": 105
    },
    {
        "deltaTime": 0,
        "running": true,
        "channel": 14,
        "type": "noteOn",
        "noteNumber": 65,
        "velocity": 89
    },
    {
        "deltaTime": 0,
        "running": true,
        "channel": 14,
        "type": "noteOn",
        "noteNumber": 70,
        "velocity": 94
    },
    {
        "deltaTime": 133,
        "channel": 5,
        "type": "noteOff",
        "noteNumber": 82,
        "velocity": 0,
        "byte9": true
    },
    {
        "deltaTime": 13,
        "channel": 14,
        "type": "noteOff",
        "noteNumber": 70,
        "velocity": 0,
        "byte9": true
    },
    {
        "deltaTime": 9,
        "channel": 5,
        "type": "noteOff",
        "noteNumber": 74,
        "velocity": 0,
        "byte9": true
    },
    {
        "deltaTime": 0,
        "running": true,
        "channel": 5,
        "type": "noteOff",
        "noteNumber": 77,
        "velocity": 0,
        "byte9": true
    },
    {
        "deltaTime": 13,
        "channel": 14,
        "type": "noteOff",
        "noteNumber": 62,
        "velocity": 0,
        "byte9": true
    },
    {
        "deltaTime": 0,
        "running": true,
        "channel": 14,
        "type": "noteOff",
        "noteNumber": 65,
        "velocity": 0,
        "byte9": true
    },
    {
        "deltaTime": 135,
        "channel": 1,
        "type": "noteOff",
        "noteNumber": 34,
        "velocity": 0,
        "byte9": true
    },
    {
        "deltaTime": 0,
        "channel": 8,
        "type": "noteOff",
        "noteNumber": 34,
        "velocity": 0,
        "byte9": true
    },
    {
        "deltaTime": 4,
        "channel": 1,
        "type": "noteOn",
        "noteNumber": 41,
        "velocity": 99
    },
    {
        "deltaTime": 0,
        "channel": 8,
        "type": "noteOn",
        "noteNumber": 41,
        "velocity": 99
    },
    {
        "deltaTime": 0,
        "channel": 9,
        "type": "noteOn",
        "noteNumber": 35,
        "velocity": 114
    },
    {
        "deltaTime": 0,
        "running": true,
        "channel": 9,
        "type": "noteOn",
        "noteNumber": 70,
        "velocity": 65
    },
    {
        "deltaTime": 0,
        "channel": 11,
        "type": "noteOn",
        "noteNumber": 41,
        "velocity": 114
    },
    {
        "deltaTime": 12,
        "channel": 9,
        "type": "noteOff",
        "noteNumber": 35,
        "velocity": 0,
        "byte9": true
    },
    {
        "deltaTime": 0,
        "running": true,
        "channel": 9,
        "type": "noteOff",
        "noteNumber": 70,
        "velocity": 0,
        "byte9": true
    },
    {
        "deltaTime": 148,
        "channel": 5,
        "type": "noteOn",
        "noteNumber": 74,
        "velocity": 109
    },
    {
        "deltaTime": 0,
        "running": true,
        "channel": 5,
        "type": "noteOn",
        "noteNumber": 77,
        "velocity": 97
    },
    {
        "deltaTime": 0,
        "running": true,
        "channel": 5,
        "type": "noteOn",
        "noteNumber": 82,
        "velocity": 110
    },
    {
        "deltaTime": 0,
        "channel": 9,
        "type": "noteOn",
        "noteNumber": 44,
        "velocity": 107
    },
    {
        "deltaTime": 0,
        "running": true,
        "channel": 9,
        "type": "noteOn",
        "noteNumber": 54,
        "velocity": 109
    },
    {
        "deltaTime": 1,
        "channel": 11,
        "type": "noteOff",
        "noteNumber": 41,
        "velocity": 0,
        "byte9": true
    },
    {
        "deltaTime": 11,
        "channel": 9,
        "type": "noteOff",
        "noteNumber": 44,
        "velocity": 0,
        "byte9": true
    },
    {
        "deltaTime": 0,
        "running": true,
        "channel": 9,
        "type": "noteOff",
        "noteNumber": 54,
        "velocity": 0,
        "byte9": true
    },
    {
        "deltaTime": 1,
        "channel": 14,
        "type": "noteOn",
        "noteNumber": 62,
        "velocity": 109
    },
    {
        "deltaTime": 0,
        "running": true,
        "channel": 14,
        "type": "noteOn",
        "noteNumber": 65,
        "velocity": 97
    },
    {
        "deltaTime": 0,
        "running": true,
        "channel": 14,
        "type": "noteOn",
        "noteNumber": 70,
        "velocity": 110
    },
    {
        "deltaTime": 136,
        "channel": 5,
        "type": "noteOff",
        "noteNumber": 82,
        "velocity": 0,
        "byte9": true
    },
    {
        "deltaTime": 9,
        "running": true,
        "channel": 5,
        "type": "noteOff",
        "noteNumber": 74,
        "velocity": 0,
        "byte9": true
    },
    {
        "deltaTime": 3,
        "running": true,
        "channel": 5,
        "type": "noteOff",
        "noteNumber": 77,
        "velocity": 0,
        "byte9": true
    },
    {
        "deltaTime": 1,
        "channel": 14,
        "type": "noteOff",
        "noteNumber": 70,
        "velocity": 0,
        "byte9": true
    },
    {
        "deltaTime": 9,
        "running": true,
        "channel": 14,
        "type": "noteOff",
        "noteNumber": 62,
        "velocity": 0,
        "byte9": true
    },
    {
        "deltaTime": 3,
        "running": true,
        "channel": 14,
        "type": "noteOff",
        "noteNumber": 65,
        "velocity": 0,
        "byte9": true
    },
    {
        "deltaTime": 142,
        "channel": 1,
        "type": "noteOff",
        "noteNumber": 41,
        "velocity": 0,
        "byte9": true
    },
    {
        "deltaTime": 0,
        "channel": 8,
        "type": "noteOff",
        "noteNumber": 41,
        "velocity": 0,
        "byte9": true
    },
    {
        "deltaTime": 4,
        "channel": 1,
        "type": "noteOn",
        "noteNumber": 34,
        "velocity": 99
    },
    {
        "deltaTime": 0,
        "channel": 8,
        "type": "noteOn",
        "noteNumber": 34,
        "velocity": 99
    },
    {
        "deltaTime": 0,
        "channel": 1,
        "type": "noteOff",
        "noteNumber": 34,
        "velocity": 0,
        "byte9": true
    },
    {
        "deltaTime": 0,
        "channel": 8,
        "type": "noteOff",
        "noteNumber": 34,
        "velocity": 0,
        "byte9": true
    },
    {
        "deltaTime": 160,
        "channel": 1,
        "type": "noteOn",
        "noteNumber": 33,
        "velocity": 99
    },
    {
        "deltaTime": 0,
        "channel": 5,
        "type": "noteOn",
        "noteNumber": 73,
        "velocity": 101
    },
    {
        "deltaTime": 0,
        "running": true,
        "channel": 5,
        "type": "noteOn",
        "noteNumber": 76,
        "velocity": 97
    },
    {
        "deltaTime": 0,
        "running": true,
        "channel": 5,
        "type": "noteOn",
        "noteNumber": 81,
        "velocity": 105
    },
    {
        "deltaTime": 0,
        "channel": 8,
        "type": "noteOn",
        "noteNumber": 33,
        "velocity": 99
    },
    {
        "deltaTime": 0,
        "channel": 9,
        "type": "noteOn",
        "noteNumber": 35,
        "velocity": 114
    },
    {
        "deltaTime": 0,
        "channel": 11,
        "type": "noteOn",
        "noteNumber": 41,
        "velocity": 114
    },
    {
        "deltaTime": 12,
        "channel": 9,
        "type": "noteOff",
        "noteNumber": 35,
        "velocity": 0,
        "byte9": true
    },
    {
        "deltaTime": 1,
        "channel": 14,
        "type": "noteOn",
        "noteNumber": 61,
        "velocity": 101
    },
    {
        "deltaTime": 0,
        "running": true,
        "channel": 14,
        "type": "noteOn",
        "noteNumber": 64,
        "velocity": 97
    },
    {
        "deltaTime": 0,
        "running": true,
        "channel": 14,
        "type": "noteOn",
        "noteNumber": 69,
        "velocity": 105
    },
    {
        "deltaTime": 60,
        "channel": 5,
        "type": "noteOff",
        "noteNumber": 81,
        "velocity": 0,
        "byte9": true
    },
    {
        "deltaTime": 13,
        "channel": 14,
        "type": "noteOff",
        "noteNumber": 69,
        "velocity": 0,
        "byte9": true
    },
    {
        "deltaTime": 35,
        "channel": 5,
        "type": "noteOff",
        "noteNumber": 76,
        "velocity": 0,
        "byte9": true
    },
    {
        "deltaTime": 2,
        "running": true,
        "channel": 5,
        "type": "noteOff",
        "noteNumber": 73,
        "velocity": 0,
        "byte9": true
    },
    {
        "deltaTime": 11,
        "channel": 14,
        "type": "noteOff",
        "noteNumber": 64,
        "velocity": 0,
        "byte9": true
    },
    {
        "deltaTime": 2,
        "running": true,
        "channel": 14,
        "type": "noteOff",
        "noteNumber": 61,
        "velocity": 0,
        "byte9": true
    },
    {
        "deltaTime": 25,
        "channel": 11,
        "type": "noteOff",
        "noteNumber": 41,
        "velocity": 0,
        "byte9": true
    },
    {
        "deltaTime": 319,
        "channel": 5,
        "type": "noteOn",
        "noteNumber": 73,
        "velocity": 111
    },
    {
        "deltaTime": 0,
        "running": true,
        "channel": 5,
        "type": "noteOn",
        "noteNumber": 76,
        "velocity": 107
    },
    {
        "deltaTime": 0,
        "running": true,
        "channel": 5,
        "type": "noteOn",
        "noteNumber": 81,
        "velocity": 105
    },
    {
        "deltaTime": 0,
        "channel": 9,
        "type": "noteOn",
        "noteNumber": 44,
        "velocity": 107
    },
    {
        "deltaTime": 0,
        "running": true,
        "channel": 9,
        "type": "noteOn",
        "noteNumber": 69,
        "velocity": 109
    },
    {
        "deltaTime": 12,
        "running": true,
        "channel": 9,
        "type": "noteOff",
        "noteNumber": 44,
        "velocity": 0,
        "byte9": true
    },
    {
        "deltaTime": 0,
        "running": true,
        "channel": 9,
        "type": "noteOff",
        "noteNumber": 69,
        "velocity": 0,
        "byte9": true
    },
    {
        "deltaTime": 1,
        "channel": 14,
        "type": "noteOn",
        "noteNumber": 61,
        "velocity": 111
    },
    {
        "deltaTime": 0,
        "running": true,
        "channel": 14,
        "type": "noteOn",
        "noteNumber": 64,
        "velocity": 107
    },
    {
        "deltaTime": 0,
        "running": true,
        "channel": 14,
        "type": "noteOn",
        "noteNumber": 69,
        "velocity": 105
    },
    {
        "deltaTime": 144,
        "channel": 5,
        "type": "noteOff",
        "noteNumber": 81,
        "velocity": 0,
        "byte9": true
    },
    {
        "deltaTime": 7,
        "running": true,
        "channel": 5,
        "type": "noteOff",
        "noteNumber": 76,
        "velocity": 0,
        "byte9": true
    },
    {
        "deltaTime": 4,
        "running": true,
        "channel": 5,
        "type": "noteOff",
        "noteNumber": 73,
        "velocity": 0,
        "byte9": true
    },
    {
        "deltaTime": 2,
        "channel": 14,
        "type": "noteOff",
        "noteNumber": 69,
        "velocity": 0,
        "byte9": true
    },
    {
        "deltaTime": 7,
        "running": true,
        "channel": 14,
        "type": "noteOff",
        "noteNumber": 64,
        "velocity": 0,
        "byte9": true
    },
    {
        "deltaTime": 4,
        "running": true,
        "channel": 14,
        "type": "noteOff",
        "noteNumber": 61,
        "velocity": 0,
        "byte9": true
    },
    {
        "deltaTime": 80,
        "channel": 1,
        "type": "noteOff",
        "noteNumber": 33,
        "velocity": 0,
        "byte9": true
    },
    {
        "deltaTime": 0,
        "channel": 8,
        "type": "noteOff",
        "noteNumber": 33,
        "velocity": 0,
        "byte9": true
    },
    {
        "deltaTime": 59,
        "channel": 1,
        "type": "noteOn",
        "noteNumber": 33,
        "velocity": 99
    },
    {
        "deltaTime": 0,
        "channel": 8,
        "type": "noteOn",
        "noteNumber": 33,
        "velocity": 99
    },
    {
        "deltaTime": 0,
        "channel": 9,
        "type": "noteOn",
        "noteNumber": 35,
        "velocity": 107
    },
    {
        "deltaTime": 0,
        "channel": 11,
        "type": "noteOn",
        "noteNumber": 41,
        "velocity": 107
    },
    {
        "deltaTime": 12,
        "channel": 9,
        "type": "noteOff",
        "noteNumber": 35,
        "velocity": 0,
        "byte9": true
    },
    {
        "deltaTime": 148,
        "channel": 5,
        "type": "noteOn",
        "noteNumber": 73,
        "velocity": 105
    },
    {
        "deltaTime": 0,
        "running": true,
        "channel": 5,
        "type": "noteOn",
        "noteNumber": 76,
        "velocity": 94
    },
    {
        "deltaTime": 0,
        "running": true,
        "channel": 5,
        "type": "noteOn",
        "noteNumber": 81,
        "velocity": 94
    },
    {
        "deltaTime": 0,
        "channel": 9,
        "type": "noteOn",
        "noteNumber": 35,
        "velocity": 114
    },
    {
        "deltaTime": 0,
        "channel": 11,
        "type": "noteOn",
        "noteNumber": 41,
        "velocity": 114
    },
    {
        "deltaTime": 1,
        "running": true,
        "channel": 11,
        "type": "noteOff",
        "noteNumber": 41,
        "velocity": 0,
        "byte9": true
    },
    {
        "deltaTime": 11,
        "channel": 9,
        "type": "noteOff",
        "noteNumber": 35,
        "velocity": 0,
        "byte9": true
    },
    {
        "deltaTime": 1,
        "channel": 14,
        "type": "noteOn",
        "noteNumber": 61,
        "velocity": 105
    },
    {
        "deltaTime": 0,
        "running": true,
        "channel": 14,
        "type": "noteOn",
        "noteNumber": 64,
        "velocity": 94
    },
    {
        "deltaTime": 0,
        "running": true,
        "channel": 14,
        "type": "noteOn",
        "noteNumber": 69,
        "velocity": 94
    },
    {
        "deltaTime": 142,
        "channel": 5,
        "type": "noteOff",
        "noteNumber": 81,
        "velocity": 0,
        "byte9": true
    },
    {
        "deltaTime": 6,
        "channel": 11,
        "type": "noteOff",
        "noteNumber": 41,
        "velocity": 0,
        "byte9": true
    },
    {
        "deltaTime": 2,
        "channel": 5,
        "type": "noteOff",
        "noteNumber": 73,
        "velocity": 0,
        "byte9": true
    },
    {
        "deltaTime": 4,
        "running": true,
        "channel": 5,
        "type": "noteOff",
        "noteNumber": 76,
        "velocity": 0,
        "byte9": true
    },
    {
        "deltaTime": 1,
        "channel": 14,
        "type": "noteOff",
        "noteNumber": 69,
        "velocity": 0,
        "byte9": true
    },
    {
        "deltaTime": 8,
        "running": true,
        "channel": 14,
        "type": "noteOff",
        "noteNumber": 61,
        "velocity": 0,
        "byte9": true
    },
    {
        "deltaTime": 4,
        "running": true,
        "channel": 14,
        "type": "noteOff",
        "noteNumber": 64,
        "velocity": 0,
        "byte9": true
    },
    {
        "deltaTime": 140,
        "channel": 9,
        "type": "noteOn",
        "noteNumber": 70,
        "velocity": 65
    },
    {
        "deltaTime": 12,
        "running": true,
        "channel": 9,
        "type": "noteOff",
        "noteNumber": 70,
        "velocity": 0,
        "byte9": true
    },
    {
        "deltaTime": 148,
        "channel": 5,
        "type": "noteOn",
        "noteNumber": 73,
        "velocity": 109
    },
    {
        "deltaTime": 0,
        "running": true,
        "channel": 5,
        "type": "noteOn",
        "noteNumber": 76,
        "velocity": 94
    },
    {
        "deltaTime": 0,
        "running": true,
        "channel": 5,
        "type": "noteOn",
        "noteNumber": 81,
        "velocity": 94
    },
    {
        "deltaTime": 0,
        "channel": 9,
        "type": "noteOn",
        "noteNumber": 44,
        "velocity": 107
    },
    {
        "deltaTime": 0,
        "running": true,
        "channel": 9,
        "type": "noteOn",
        "noteNumber": 54,
        "velocity": 109
    },
    {
        "deltaTime": 12,
        "running": true,
        "channel": 9,
        "type": "noteOff",
        "noteNumber": 44,
        "velocity": 0,
        "byte9": true
    },
    {
        "deltaTime": 0,
        "running": true,
        "channel": 9,
        "type": "noteOff",
        "noteNumber": 54,
        "velocity": 0,
        "byte9": true
    },
    {
        "deltaTime": 1,
        "channel": 14,
        "type": "noteOn",
        "noteNumber": 61,
        "velocity": 109
    },
    {
        "deltaTime": 0,
        "running": true,
        "channel": 14,
        "type": "noteOn",
        "noteNumber": 64,
        "velocity": 94
    },
    {
        "deltaTime": 0,
        "running": true,
        "channel": 14,
        "type": "noteOn",
        "noteNumber": 69,
        "velocity": 94
    },
    {
        "deltaTime": 88,
        "channel": 1,
        "type": "noteOff",
        "noteNumber": 33,
        "velocity": 0,
        "byte9": true
    },
    {
        "deltaTime": 0,
        "channel": 8,
        "type": "noteOff",
        "noteNumber": 33,
        "velocity": 0,
        "byte9": true
    },
    {
        "deltaTime": 40,
        "channel": 5,
        "type": "noteOff",
        "noteNumber": 81,
        "velocity": 0,
        "byte9": true
    },
    {
        "deltaTime": 13,
        "running": true,
        "channel": 5,
        "type": "noteOff",
        "noteNumber": 73,
        "velocity": 0,
        "byte9": true
    },
    {
        "deltaTime": 0,
        "running": true,
        "channel": 5,
        "type": "noteOff",
        "noteNumber": 76,
        "velocity": 0,
        "byte9": true
    },
    {
        "deltaTime": 0,
        "channel": 14,
        "type": "noteOff",
        "noteNumber": 69,
        "velocity": 0,
        "byte9": true
    },
    {
        "deltaTime": 13,
        "running": true,
        "channel": 14,
        "type": "noteOff",
        "noteNumber": 61,
        "velocity": 0,
        "byte9": true
    },
    {
        "deltaTime": 0,
        "running": true,
        "channel": 14,
        "type": "noteOff",
        "noteNumber": 64,
        "velocity": 0,
        "byte9": true
    },
    {
        "deltaTime": 153,
        "channel": 1,
        "type": "noteOn",
        "noteNumber": 33,
        "velocity": 99
    },
    {
        "deltaTime": 0,
        "channel": 8,
        "type": "noteOn",
        "noteNumber": 33,
        "velocity": 99
    },
    {
        "deltaTime": 160,
        "channel": 5,
        "type": "noteOn",
        "noteNumber": 73,
        "velocity": 109
    },
    {
        "deltaTime": 0,
        "running": true,
        "channel": 5,
        "type": "noteOn",
        "noteNumber": 76,
        "velocity": 94
    },
    {
        "deltaTime": 0,
        "running": true,
        "channel": 5,
        "type": "noteOn",
        "noteNumber": 81,
        "velocity": 101
    },
    {
        "deltaTime": 0,
        "channel": 9,
        "type": "noteOn",
        "noteNumber": 35,
        "velocity": 114
    },
    {
        "deltaTime": 0,
        "channel": 11,
        "type": "noteOn",
        "noteNumber": 41,
        "velocity": 114
    },
    {
        "deltaTime": 12,
        "channel": 9,
        "type": "noteOff",
        "noteNumber": 35,
        "velocity": 0,
        "byte9": true
    },
    {
        "deltaTime": 1,
        "channel": 14,
        "type": "noteOn",
        "noteNumber": 61,
        "velocity": 109
    },
    {
        "deltaTime": 0,
        "running": true,
        "channel": 14,
        "type": "noteOn",
        "noteNumber": 64,
        "velocity": 94
    },
    {
        "deltaTime": 0,
        "running": true,
        "channel": 14,
        "type": "noteOn",
        "noteNumber": 69,
        "velocity": 101
    },
    {
        "deltaTime": 142,
        "channel": 5,
        "type": "noteOff",
        "noteNumber": 81,
        "velocity": 0,
        "byte9": true
    },
    {
        "deltaTime": 6,
        "channel": 11,
        "type": "noteOff",
        "noteNumber": 41,
        "velocity": 0,
        "byte9": true
    },
    {
        "deltaTime": 7,
        "channel": 14,
        "type": "noteOff",
        "noteNumber": 69,
        "velocity": 0,
        "byte9": true
    },
    {
        "deltaTime": 3,
        "channel": 5,
        "type": "noteOff",
        "noteNumber": 73,
        "velocity": 0,
        "byte9": true
    },
    {
        "deltaTime": 0,
        "running": true,
        "channel": 5,
        "type": "noteOff",
        "noteNumber": 76,
        "velocity": 0,
        "byte9": true
    },
    {
        "deltaTime": 13,
        "channel": 14,
        "type": "noteOff",
        "noteNumber": 61,
        "velocity": 0,
        "byte9": true
    },
    {
        "deltaTime": 0,
        "running": true,
        "channel": 14,
        "type": "noteOff",
        "noteNumber": 64,
        "velocity": 0,
        "byte9": true
    },
    {
        "deltaTime": 296,
        "channel": 5,
        "type": "noteOn",
        "noteNumber": 73,
        "velocity": 108
    },
    {
        "deltaTime": 0,
        "running": true,
        "channel": 5,
        "type": "noteOn",
        "noteNumber": 76,
        "velocity": 97
    },
    {
        "deltaTime": 0,
        "running": true,
        "channel": 5,
        "type": "noteOn",
        "noteNumber": 81,
        "velocity": 98
    },
    {
        "deltaTime": 0,
        "channel": 9,
        "type": "noteOn",
        "noteNumber": 44,
        "velocity": 107
    },
    {
        "deltaTime": 0,
        "running": true,
        "channel": 9,
        "type": "noteOn",
        "noteNumber": 69,
        "velocity": 109
    },
    {
        "deltaTime": 12,
        "running": true,
        "channel": 9,
        "type": "noteOff",
        "noteNumber": 44,
        "velocity": 0,
        "byte9": true
    },
    {
        "deltaTime": 0,
        "running": true,
        "channel": 9,
        "type": "noteOff",
        "noteNumber": 69,
        "velocity": 0,
        "byte9": true
    },
    {
        "deltaTime": 1,
        "channel": 14,
        "type": "noteOn",
        "noteNumber": 61,
        "velocity": 108
    },
    {
        "deltaTime": 0,
        "running": true,
        "channel": 14,
        "type": "noteOn",
        "noteNumber": 64,
        "velocity": 97
    },
    {
        "deltaTime": 0,
        "running": true,
        "channel": 14,
        "type": "noteOn",
        "noteNumber": 69,
        "velocity": 98
    },
    {
        "deltaTime": 88,
        "channel": 1,
        "type": "noteOff",
        "noteNumber": 33,
        "velocity": 0,
        "byte9": true
    },
    {
        "deltaTime": 0,
        "channel": 8,
        "type": "noteOff",
        "noteNumber": 33,
        "velocity": 0,
        "byte9": true
    },
    {
        "deltaTime": 45,
        "channel": 5,
        "type": "noteOff",
        "noteNumber": 81,
        "velocity": 0,
        "byte9": true
    },
    {
        "deltaTime": 12,
        "running": true,
        "channel": 5,
        "type": "noteOff",
        "noteNumber": 73,
        "velocity": 0,
        "byte9": true
    },
    {
        "deltaTime": 1,
        "channel": 14,
        "type": "noteOff",
        "noteNumber": 69,
        "velocity": 0,
        "byte9": true
    },
    {
        "deltaTime": 4,
        "channel": 5,
        "type": "noteOff",
        "noteNumber": 76,
        "velocity": 0,
        "byte9": true
    },
    {
        "deltaTime": 8,
        "channel": 14,
        "type": "noteOff",
        "noteNumber": 61,
        "velocity": 0,
        "byte9": true
    },
    {
        "deltaTime": 5,
        "running": true,
        "channel": 14,
        "type": "noteOff",
        "noteNumber": 64,
        "velocity": 0,
        "byte9": true
    },
    {
        "deltaTime": 144,
        "channel": 1,
        "type": "noteOn",
        "noteNumber": 33,
        "velocity": 99
    },
    {
        "deltaTime": 0,
        "channel": 8,
        "type": "noteOn",
        "noteNumber": 33,
        "velocity": 99
    },
    {
        "deltaTime": 0,
        "channel": 9,
        "type": "noteOn",
        "noteNumber": 35,
        "velocity": 114
    },
    {
        "deltaTime": 0,
        "channel": 11,
        "type": "noteOn",
        "noteNumber": 41,
        "velocity": 114
    },
    {
        "deltaTime": 12,
        "channel": 9,
        "type": "noteOff",
        "noteNumber": 35,
        "velocity": 0,
        "byte9": true
    },
    {
        "deltaTime": 148,
        "channel": 5,
        "type": "noteOn",
        "noteNumber": 73,
        "velocity": 105
    },
    {
        "deltaTime": 0,
        "running": true,
        "channel": 5,
        "type": "noteOn",
        "noteNumber": 76,
        "velocity": 89
    },
    {
        "deltaTime": 0,
        "running": true,
        "channel": 5,
        "type": "noteOn",
        "noteNumber": 81,
        "velocity": 94
    },
    {
        "deltaTime": 1,
        "channel": 11,
        "type": "noteOff",
        "noteNumber": 41,
        "velocity": 0,
        "byte9": true
    },
    {
        "deltaTime": 12,
        "channel": 14,
        "type": "noteOn",
        "noteNumber": 61,
        "velocity": 105
    },
    {
        "deltaTime": 0,
        "running": true,
        "channel": 14,
        "type": "noteOn",
        "noteNumber": 64,
        "velocity": 89
    },
    {
        "deltaTime": 0,
        "running": true,
        "channel": 14,
        "type": "noteOn",
        "noteNumber": 69,
        "velocity": 94
    },
    {
        "deltaTime": 133,
        "channel": 5,
        "type": "noteOff",
        "noteNumber": 81,
        "velocity": 0,
        "byte9": true
    },
    {
        "deltaTime": 13,
        "channel": 14,
        "type": "noteOff",
        "noteNumber": 69,
        "velocity": 0,
        "byte9": true
    },
    {
        "deltaTime": 9,
        "channel": 5,
        "type": "noteOff",
        "noteNumber": 73,
        "velocity": 0,
        "byte9": true
    },
    {
        "deltaTime": 0,
        "running": true,
        "channel": 5,
        "type": "noteOff",
        "noteNumber": 76,
        "velocity": 0,
        "byte9": true
    },
    {
        "deltaTime": 13,
        "channel": 14,
        "type": "noteOff",
        "noteNumber": 61,
        "velocity": 0,
        "byte9": true
    },
    {
        "deltaTime": 0,
        "running": true,
        "channel": 14,
        "type": "noteOff",
        "noteNumber": 64,
        "velocity": 0,
        "byte9": true
    },
    {
        "deltaTime": 135,
        "channel": 1,
        "type": "noteOff",
        "noteNumber": 33,
        "velocity": 0,
        "byte9": true
    },
    {
        "deltaTime": 0,
        "channel": 8,
        "type": "noteOff",
        "noteNumber": 33,
        "velocity": 0,
        "byte9": true
    },
    {
        "deltaTime": 4,
        "channel": 1,
        "type": "noteOn",
        "noteNumber": 36,
        "velocity": 99
    },
    {
        "deltaTime": 0,
        "channel": 8,
        "type": "noteOn",
        "noteNumber": 36,
        "velocity": 99
    },
    {
        "deltaTime": 0,
        "channel": 9,
        "type": "noteOn",
        "noteNumber": 35,
        "velocity": 114
    },
    {
        "deltaTime": 0,
        "running": true,
        "channel": 9,
        "type": "noteOn",
        "noteNumber": 70,
        "velocity": 65
    },
    {
        "deltaTime": 0,
        "channel": 11,
        "type": "noteOn",
        "noteNumber": 41,
        "velocity": 114
    },
    {
        "deltaTime": 12,
        "channel": 9,
        "type": "noteOff",
        "noteNumber": 35,
        "velocity": 0,
        "byte9": true
    },
    {
        "deltaTime": 0,
        "running": true,
        "channel": 9,
        "type": "noteOff",
        "noteNumber": 70,
        "velocity": 0,
        "byte9": true
    },
    {
        "deltaTime": 148,
        "channel": 5,
        "type": "noteOn",
        "noteNumber": 73,
        "velocity": 109
    },
    {
        "deltaTime": 0,
        "running": true,
        "channel": 5,
        "type": "noteOn",
        "noteNumber": 76,
        "velocity": 97
    },
    {
        "deltaTime": 0,
        "running": true,
        "channel": 5,
        "type": "noteOn",
        "noteNumber": 81,
        "velocity": 110
    },
    {
        "deltaTime": 0,
        "channel": 9,
        "type": "noteOn",
        "noteNumber": 44,
        "velocity": 107
    },
    {
        "deltaTime": 0,
        "running": true,
        "channel": 9,
        "type": "noteOn",
        "noteNumber": 54,
        "velocity": 109
    },
    {
        "deltaTime": 1,
        "channel": 11,
        "type": "noteOff",
        "noteNumber": 41,
        "velocity": 0,
        "byte9": true
    },
    {
        "deltaTime": 11,
        "channel": 9,
        "type": "noteOff",
        "noteNumber": 44,
        "velocity": 0,
        "byte9": true
    },
    {
        "deltaTime": 0,
        "running": true,
        "channel": 9,
        "type": "noteOff",
        "noteNumber": 54,
        "velocity": 0,
        "byte9": true
    },
    {
        "deltaTime": 1,
        "channel": 14,
        "type": "noteOn",
        "noteNumber": 61,
        "velocity": 109
    },
    {
        "deltaTime": 0,
        "running": true,
        "channel": 14,
        "type": "noteOn",
        "noteNumber": 64,
        "velocity": 97
    },
    {
        "deltaTime": 0,
        "running": true,
        "channel": 14,
        "type": "noteOn",
        "noteNumber": 69,
        "velocity": 110
    },
    {
        "deltaTime": 136,
        "channel": 5,
        "type": "noteOff",
        "noteNumber": 81,
        "velocity": 0,
        "byte9": true
    },
    {
        "deltaTime": 9,
        "running": true,
        "channel": 5,
        "type": "noteOff",
        "noteNumber": 73,
        "velocity": 0,
        "byte9": true
    },
    {
        "deltaTime": 3,
        "running": true,
        "channel": 5,
        "type": "noteOff",
        "noteNumber": 76,
        "velocity": 0,
        "byte9": true
    },
    {
        "deltaTime": 1,
        "channel": 14,
        "type": "noteOff",
        "noteNumber": 69,
        "velocity": 0,
        "byte9": true
    },
    {
        "deltaTime": 9,
        "running": true,
        "channel": 14,
        "type": "noteOff",
        "noteNumber": 61,
        "velocity": 0,
        "byte9": true
    },
    {
        "deltaTime": 3,
        "running": true,
        "channel": 14,
        "type": "noteOff",
        "noteNumber": 64,
        "velocity": 0,
        "byte9": true
    },
    {
        "deltaTime": 142,
        "channel": 1,
        "type": "noteOff",
        "noteNumber": 36,
        "velocity": 0,
        "byte9": true
    },
    {
        "deltaTime": 0,
        "channel": 8,
        "type": "noteOff",
        "noteNumber": 36,
        "velocity": 0,
        "byte9": true
    },
    {
        "deltaTime": 4,
        "channel": 1,
        "type": "noteOn",
        "noteNumber": 37,
        "velocity": 99
    },
    {
        "deltaTime": 0,
        "channel": 8,
        "type": "noteOn",
        "noteNumber": 37,
        "velocity": 99
    },
    {
        "deltaTime": 156,
        "channel": 1,
        "type": "noteOff",
        "noteNumber": 37,
        "velocity": 0,
        "byte9": true
    },
    {
        "deltaTime": 0,
        "channel": 8,
        "type": "noteOff",
        "noteNumber": 37,
        "velocity": 0,
        "byte9": true
    },
    {
        "deltaTime": 4,
        "channel": 1,
        "type": "noteOn",
        "noteNumber": 38,
        "velocity": 99
    },
    {
        "deltaTime": 0,
        "channel": 5,
        "type": "noteOn",
        "noteNumber": 74,
        "velocity": 101
    },
    {
        "deltaTime": 0,
        "running": true,
        "channel": 5,
        "type": "noteOn",
        "noteNumber": 77,
        "velocity": 97
    },
    {
        "deltaTime": 0,
        "running": true,
        "channel": 5,
        "type": "noteOn",
        "noteNumber": 81,
        "velocity": 105
    },
    {
        "deltaTime": 0,
        "channel": 8,
        "type": "noteOn",
        "noteNumber": 38,
        "velocity": 99
    },
    {
        "deltaTime": 0,
        "channel": 9,
        "type": "noteOn",
        "noteNumber": 35,
        "velocity": 114
    },
    {
        "deltaTime": 0,
        "channel": 11,
        "type": "noteOn",
        "noteNumber": 41,
        "velocity": 114
    },
    {
        "deltaTime": 12,
        "channel": 9,
        "type": "noteOff",
        "noteNumber": 35,
        "velocity": 0,
        "byte9": true
    },
    {
        "deltaTime": 13,
        "channel": 14,
        "type": "noteOn",
        "noteNumber": 62,
        "velocity": 101
    },
    {
        "deltaTime": 0,
        "running": true,
        "channel": 14,
        "type": "noteOn",
        "noteNumber": 65,
        "velocity": 97
    },
    {
        "deltaTime": 0,
        "running": true,
        "channel": 14,
        "type": "noteOn",
        "noteNumber": 69,
        "velocity": 105
    },
    {
        "deltaTime": 48,
        "channel": 5,
        "type": "noteOff",
        "noteNumber": 81,
        "velocity": 0,
        "byte9": true
    },
    {
        "deltaTime": 25,
        "channel": 14,
        "type": "noteOff",
        "noteNumber": 69,
        "velocity": 0,
        "byte9": true
    },
    {
        "deltaTime": 23,
        "channel": 5,
        "type": "noteOff",
        "noteNumber": 77,
        "velocity": 0,
        "byte9": true
    },
    {
        "deltaTime": 2,
        "running": true,
        "channel": 5,
        "type": "noteOff",
        "noteNumber": 74,
        "velocity": 0,
        "byte9": true
    },
    {
        "deltaTime": 23,
        "channel": 14,
        "type": "noteOff",
        "noteNumber": 65,
        "velocity": 0,
        "byte9": true
    },
    {
        "deltaTime": 2,
        "running": true,
        "channel": 14,
        "type": "noteOff",
        "noteNumber": 62,
        "velocity": 0,
        "byte9": true
    },
    {
        "deltaTime": 13,
        "channel": 11,
        "type": "noteOff",
        "noteNumber": 41,
        "velocity": 0,
        "byte9": true
    },
    {
        "deltaTime": 0,
        "channel": 3,
        "type": "noteOn",
        "noteNumber": 74,
        "velocity": 114
    },
    {
        "deltaTime": 20,
        "channel": 5,
        "type": "noteOn",
        "noteNumber": 74,
        "velocity": 111
    },
    {
        "deltaTime": 0,
        "running": true,
        "channel": 5,
        "type": "noteOn",
        "noteNumber": 77,
        "velocity": 107
    },
    {
        "deltaTime": 0,
        "running": true,
        "channel": 5,
        "type": "noteOn",
        "noteNumber": 81,
        "velocity": 105
    },
    {
        "deltaTime": 0,
        "channel": 9,
        "type": "noteOn",
        "noteNumber": 44,
        "velocity": 107
    },
    {
        "deltaTime": 0,
        "running": true,
        "channel": 9,
        "type": "noteOn",
        "noteNumber": 69,
        "velocity": 109
    },
    {
        "deltaTime": 12,
        "running": true,
        "channel": 9,
        "type": "noteOff",
        "noteNumber": 44,
        "velocity": 0,
        "byte9": true
    },
    {
        "deltaTime": 0,
        "running": true,
        "channel": 9,
        "type": "noteOff",
        "noteNumber": 69,
        "velocity": 0,
        "byte9": true
    },
    {
        "deltaTime": 13,
        "channel": 14,
        "type": "noteOn",
        "noteNumber": 62,
        "velocity": 111
    },
    {
        "deltaTime": 0,
        "running": true,
        "channel": 14,
        "type": "noteOn",
        "noteNumber": 65,
        "velocity": 107
    },
    {
        "deltaTime": 0,
        "running": true,
        "channel": 14,
        "type": "noteOn",
        "noteNumber": 69,
        "velocity": 105
    },
    {
        "deltaTime": 132,
        "channel": 5,
        "type": "noteOff",
        "noteNumber": 81,
        "velocity": 0,
        "byte9": true
    },
    {
        "deltaTime": 7,
        "running": true,
        "channel": 5,
        "type": "noteOff",
        "noteNumber": 77,
        "velocity": 0,
        "byte9": true
    },
    {
        "deltaTime": 4,
        "running": true,
        "channel": 5,
        "type": "noteOff",
        "noteNumber": 74,
        "velocity": 0,
        "byte9": true
    },
    {
        "deltaTime": 14,
        "channel": 14,
        "type": "noteOff",
        "noteNumber": 69,
        "velocity": 0,
        "byte9": true
    },
    {
        "deltaTime": 7,
        "running": true,
        "channel": 14,
        "type": "noteOff",
        "noteNumber": 65,
        "velocity": 0,
        "byte9": true
    },
    {
        "deltaTime": 4,
        "running": true,
        "channel": 14,
        "type": "noteOff",
        "noteNumber": 62,
        "velocity": 0,
        "byte9": true
    },
    {
        "deltaTime": 48,
        "channel": 1,
        "type": "noteOff",
        "noteNumber": 38,
        "velocity": 0,
        "byte9": true
    },
    {
        "deltaTime": 0,
        "channel": 8,
        "type": "noteOff",
        "noteNumber": 38,
        "velocity": 0,
        "byte9": true
    },
    {
        "deltaTime": 79,
        "channel": 1,
        "type": "noteOn",
        "noteNumber": 38,
        "velocity": 99
    },
    {
        "deltaTime": 0,
        "channel": 8,
        "type": "noteOn",
        "noteNumber": 38,
        "velocity": 99
    },
    {
        "deltaTime": 0,
        "channel": 9,
        "type": "noteOn",
        "noteNumber": 35,
        "velocity": 107
    },
    {
        "deltaTime": 0,
        "channel": 11,
        "type": "noteOn",
        "noteNumber": 41,
        "velocity": 107
    },
    {
        "deltaTime": 12,
        "channel": 9,
        "type": "noteOff",
        "noteNumber": 35,
        "velocity": 0,
        "byte9": true
    },
    {
        "deltaTime": 148,
        "channel": 5,
        "type": "noteOn",
        "noteNumber": 74,
        "velocity": 105
    },
    {
        "deltaTime": 0,
        "running": true,
        "channel": 5,
        "type": "noteOn",
        "noteNumber": 77,
        "velocity": 94
    },
    {
        "deltaTime": 0,
        "running": true,
        "channel": 5,
        "type": "noteOn",
        "noteNumber": 81,
        "velocity": 94
    },
    {
        "deltaTime": 0,
        "channel": 9,
        "type": "noteOn",
        "noteNumber": 35,
        "velocity": 114
    },
    {
        "deltaTime": 0,
        "channel": 11,
        "type": "noteOn",
        "noteNumber": 41,
        "velocity": 114
    },
    {
        "deltaTime": 1,
        "running": true,
        "channel": 11,
        "type": "noteOff",
        "noteNumber": 41,
        "velocity": 0,
        "byte9": true
    },
    {
        "deltaTime": 11,
        "channel": 9,
        "type": "noteOff",
        "noteNumber": 35,
        "velocity": 0,
        "byte9": true
    },
    {
        "deltaTime": 13,
        "channel": 14,
        "type": "noteOn",
        "noteNumber": 62,
        "velocity": 105
    },
    {
        "deltaTime": 0,
        "running": true,
        "channel": 14,
        "type": "noteOn",
        "noteNumber": 65,
        "velocity": 94
    },
    {
        "deltaTime": 0,
        "running": true,
        "channel": 14,
        "type": "noteOn",
        "noteNumber": 69,
        "velocity": 94
    },
    {
        "deltaTime": 130,
        "channel": 5,
        "type": "noteOff",
        "noteNumber": 81,
        "velocity": 0,
        "byte9": true
    },
    {
        "deltaTime": 6,
        "channel": 11,
        "type": "noteOff",
        "noteNumber": 41,
        "velocity": 0,
        "byte9": true
    },
    {
        "deltaTime": 2,
        "channel": 5,
        "type": "noteOff",
        "noteNumber": 74,
        "velocity": 0,
        "byte9": true
    },
    {
        "deltaTime": 4,
        "running": true,
        "channel": 5,
        "type": "noteOff",
        "noteNumber": 77,
        "velocity": 0,
        "byte9": true
    },
    {
        "deltaTime": 13,
        "channel": 14,
        "type": "noteOff",
        "noteNumber": 69,
        "velocity": 0,
        "byte9": true
    },
    {
        "deltaTime": 8,
        "running": true,
        "channel": 14,
        "type": "noteOff",
        "noteNumber": 62,
        "velocity": 0,
        "byte9": true
    },
    {
        "deltaTime": 4,
        "running": true,
        "channel": 14,
        "type": "noteOff",
        "noteNumber": 65,
        "velocity": 0,
        "byte9": true
    },
    {
        "deltaTime": 128,
        "channel": 9,
        "type": "noteOn",
        "noteNumber": 70,
        "velocity": 65
    },
    {
        "deltaTime": 12,
        "running": true,
        "channel": 9,
        "type": "noteOff",
        "noteNumber": 70,
        "velocity": 0,
        "byte9": true
    },
    {
        "deltaTime": 132,
        "channel": 3,
        "type": "noteOff",
        "noteNumber": 74,
        "velocity": 0,
        "byte9": true
    },
    {
        "deltaTime": 16,
        "channel": 5,
        "type": "noteOn",
        "noteNumber": 74,
        "velocity": 109
    },
    {
        "deltaTime": 0,
        "running": true,
        "channel": 5,
        "type": "noteOn",
        "noteNumber": 77,
        "velocity": 94
    },
    {
        "deltaTime": 0,
        "running": true,
        "channel": 5,
        "type": "noteOn",
        "noteNumber": 81,
        "velocity": 94
    },
    {
        "deltaTime": 0,
        "channel": 9,
        "type": "noteOn",
        "noteNumber": 44,
        "velocity": 107
    },
    {
        "deltaTime": 0,
        "running": true,
        "channel": 9,
        "type": "noteOn",
        "noteNumber": 54,
        "velocity": 109
    },
    {
        "deltaTime": 12,
        "running": true,
        "channel": 9,
        "type": "noteOff",
        "noteNumber": 44,
        "velocity": 0,
        "byte9": true
    },
    {
        "deltaTime": 0,
        "running": true,
        "channel": 9,
        "type": "noteOff",
        "noteNumber": 54,
        "velocity": 0,
        "byte9": true
    },
    {
        "deltaTime": 0,
        "channel": 3,
        "type": "noteOn",
        "noteNumber": 74,
        "velocity": 114
    },
    {
        "deltaTime": 12,
        "channel": 14,
        "type": "noteOn",
        "noteNumber": 62,
        "velocity": 109
    },
    {
        "deltaTime": 0,
        "running": true,
        "channel": 14,
        "type": "noteOn",
        "noteNumber": 65,
        "velocity": 94
    },
    {
        "deltaTime": 0,
        "running": true,
        "channel": 14,
        "type": "noteOn",
        "noteNumber": 69,
        "velocity": 94
    },
    {
        "deltaTime": 116,
        "channel": 5,
        "type": "noteOff",
        "noteNumber": 81,
        "velocity": 0,
        "byte9": true
    },
    {
        "deltaTime": 13,
        "running": true,
        "channel": 5,
        "type": "noteOff",
        "noteNumber": 74,
        "velocity": 0,
        "byte9": true
    },
    {
        "deltaTime": 0,
        "running": true,
        "channel": 5,
        "type": "noteOff",
        "noteNumber": 77,
        "velocity": 0,
        "byte9": true
    },
    {
        "deltaTime": 7,
        "channel": 1,
        "type": "noteOff",
        "noteNumber": 38,
        "velocity": 0,
        "byte9": true
    },
    {
        "deltaTime": 0,
        "channel": 8,
        "type": "noteOff",
        "noteNumber": 38,
        "velocity": 0,
        "byte9": true
    },
    {
        "deltaTime": 5,
        "channel": 14,
        "type": "noteOff",
        "noteNumber": 69,
        "velocity": 0,
        "byte9": true
    },
    {
        "deltaTime": 13,
        "running": true,
        "channel": 14,
        "type": "noteOff",
        "noteNumber": 62,
        "velocity": 0,
        "byte9": true
    },
    {
        "deltaTime": 0,
        "running": true,
        "channel": 14,
        "type": "noteOff",
        "noteNumber": 65,
        "velocity": 0,
        "byte9": true
    },
    {
        "deltaTime": 52,
        "channel": 3,
        "type": "noteOff",
        "noteNumber": 74,
        "velocity": 0,
        "byte9": true
    },
    {
        "deltaTime": 89,
        "channel": 1,
        "type": "noteOn",
        "noteNumber": 38,
        "velocity": 99
    },
    {
        "deltaTime": 0,
        "channel": 8,
        "type": "noteOn",
        "noteNumber": 38,
        "velocity": 99
    },
    {
        "deltaTime": 160,
        "channel": 5,
        "type": "noteOn",
        "noteNumber": 74,
        "velocity": 109
    },
    {
        "deltaTime": 0,
        "running": true,
        "channel": 5,
        "type": "noteOn",
        "noteNumber": 77,
        "velocity": 94
    },
    {
        "deltaTime": 0,
        "running": true,
        "channel": 5,
        "type": "noteOn",
        "noteNumber": 81,
        "velocity": 101
    },
    {
        "deltaTime": 0,
        "channel": 9,
        "type": "noteOn",
        "noteNumber": 35,
        "velocity": 114
    },
    {
        "deltaTime": 0,
        "channel": 11,
        "type": "noteOn",
        "noteNumber": 41,
        "velocity": 114
    },
    {
        "deltaTime": 0,
        "channel": 3,
        "type": "noteOn",
        "noteNumber": 74,
        "velocity": 124
    },
    {
        "deltaTime": 3,
        "channel": 9,
        "type": "noteOff",
        "noteNumber": 35,
        "velocity": 0,
        "byte9": true
    },
    {
        "deltaTime": 13,
        "channel": 14,
        "type": "noteOn",
        "noteNumber": 62,
        "velocity": 109
    },
    {
        "deltaTime": 0,
        "running": true,
        "channel": 14,
        "type": "noteOn",
        "noteNumber": 65,
        "velocity": 94
    },
    {
        "deltaTime": 0,
        "running": true,
        "channel": 14,
        "type": "noteOn",
        "noteNumber": 69,
        "velocity": 101
    },
    {
        "deltaTime": 130,
        "channel": 5,
        "type": "noteOff",
        "noteNumber": 81,
        "velocity": 0,
        "byte9": true
    },
    {
        "deltaTime": 6,
        "channel": 11,
        "type": "noteOff",
        "noteNumber": 41,
        "velocity": 0,
        "byte9": true
    },
    {
        "deltaTime": 10,
        "channel": 5,
        "type": "noteOff",
        "noteNumber": 74,
        "velocity": 0,
        "byte9": true
    },
    {
        "deltaTime": 0,
        "running": true,
        "channel": 5,
        "type": "noteOff",
        "noteNumber": 77,
        "velocity": 0,
        "byte9": true
    },
    {
        "deltaTime": 9,
        "channel": 14,
        "type": "noteOff",
        "noteNumber": 69,
        "velocity": 0,
        "byte9": true
    },
    {
        "deltaTime": 16,
        "running": true,
        "channel": 14,
        "type": "noteOff",
        "noteNumber": 62,
        "velocity": 0,
        "byte9": true
    },
    {
        "deltaTime": 0,
        "running": true,
        "channel": 14,
        "type": "noteOff",
        "noteNumber": 65,
        "velocity": 0,
        "byte9": true
    },
    {
        "deltaTime": 21,
        "channel": 3,
        "type": "noteOff",
        "noteNumber": 74,
        "velocity": 0,
        "byte9": true
    },
    {
        "deltaTime": 263,
        "channel": 5,
        "type": "noteOn",
        "noteNumber": 74,
        "velocity": 108
    },
    {
        "deltaTime": 0,
        "running": true,
        "channel": 5,
        "type": "noteOn",
        "noteNumber": 77,
        "velocity": 97
    },
    {
        "deltaTime": 0,
        "running": true,
        "channel": 5,
        "type": "noteOn",
        "noteNumber": 81,
        "velocity": 98
    },
    {
        "deltaTime": 0,
        "channel": 9,
        "type": "noteOn",
        "noteNumber": 44,
        "velocity": 107
    },
    {
        "deltaTime": 0,
        "running": true,
        "channel": 9,
        "type": "noteOn",
        "noteNumber": 69,
        "velocity": 109
    },
    {
        "deltaTime": 12,
        "running": true,
        "channel": 9,
        "type": "noteOff",
        "noteNumber": 44,
        "velocity": 0,
        "byte9": true
    },
    {
        "deltaTime": 0,
        "running": true,
        "channel": 9,
        "type": "noteOff",
        "noteNumber": 69,
        "velocity": 0,
        "byte9": true
    },
    {
        "deltaTime": 0,
        "channel": 3,
        "type": "noteOn",
        "noteNumber": 74,
        "velocity": 124
    },
    {
        "deltaTime": 2,
        "channel": 14,
        "type": "noteOn",
        "noteNumber": 62,
        "velocity": 108
    },
    {
        "deltaTime": 0,
        "running": true,
        "channel": 14,
        "type": "noteOn",
        "noteNumber": 65,
        "velocity": 97
    },
    {
        "deltaTime": 0,
        "running": true,
        "channel": 14,
        "type": "noteOn",
        "noteNumber": 69,
        "velocity": 98
    },
    {
        "deltaTime": 121,
        "channel": 5,
        "type": "noteOff",
        "noteNumber": 81,
        "velocity": 0,
        "byte9": true
    },
    {
        "deltaTime": 12,
        "running": true,
        "channel": 5,
        "type": "noteOff",
        "noteNumber": 74,
        "velocity": 0,
        "byte9": true
    },
    {
        "deltaTime": 3,
        "channel": 1,
        "type": "noteOff",
        "noteNumber": 38,
        "velocity": 0,
        "byte9": true
    },
    {
        "deltaTime": 0,
        "channel": 8,
        "type": "noteOff",
        "noteNumber": 38,
        "velocity": 0,
        "byte9": true
    },
    {
        "deltaTime": 2,
        "channel": 5,
        "type": "noteOff",
        "noteNumber": 77,
        "velocity": 0,
        "byte9": true
    },
    {
        "deltaTime": 8,
        "channel": 14,
        "type": "noteOff",
        "noteNumber": 69,
        "velocity": 0,
        "byte9": true
    },
    {
        "deltaTime": 12,
        "running": true,
        "channel": 14,
        "type": "noteOff",
        "noteNumber": 62,
        "velocity": 0,
        "byte9": true
    },
    {
        "deltaTime": 5,
        "running": true,
        "channel": 14,
        "type": "noteOff",
        "noteNumber": 65,
        "velocity": 0,
        "byte9": true
    },
    {
        "deltaTime": 132,
        "channel": 1,
        "type": "noteOn",
        "noteNumber": 38,
        "velocity": 99
    },
    {
        "deltaTime": 0,
        "channel": 8,
        "type": "noteOn",
        "noteNumber": 38,
        "velocity": 99
    },
    {
        "deltaTime": 0,
        "channel": 9,
        "type": "noteOn",
        "noteNumber": 35,
        "velocity": 114
    },
    {
        "deltaTime": 0,
        "channel": 11,
        "type": "noteOn",
        "noteNumber": 41,
        "velocity": 114
    },
    {
        "deltaTime": 12,
        "channel": 9,
        "type": "noteOff",
        "noteNumber": 35,
        "velocity": 0,
        "byte9": true
    },
    {
        "deltaTime": 148,
        "channel": 5,
        "type": "noteOn",
        "noteNumber": 74,
        "velocity": 105
    },
    {
        "deltaTime": 0,
        "running": true,
        "channel": 5,
        "type": "noteOn",
        "noteNumber": 77,
        "velocity": 89
    },
    {
        "deltaTime": 0,
        "running": true,
        "channel": 5,
        "type": "noteOn",
        "noteNumber": 81,
        "velocity": 94
    },
    {
        "deltaTime": 1,
        "channel": 11,
        "type": "noteOff",
        "noteNumber": 41,
        "velocity": 0,
        "byte9": true
    },
    {
        "deltaTime": 24,
        "channel": 14,
        "type": "noteOn",
        "noteNumber": 62,
        "velocity": 105
    },
    {
        "deltaTime": 0,
        "running": true,
        "channel": 14,
        "type": "noteOn",
        "noteNumber": 65,
        "velocity": 89
    },
    {
        "deltaTime": 0,
        "running": true,
        "channel": 14,
        "type": "noteOn",
        "noteNumber": 69,
        "velocity": 94
    },
    {
        "deltaTime": 121,
        "channel": 5,
        "type": "noteOff",
        "noteNumber": 81,
        "velocity": 0,
        "byte9": true
    },
    {
        "deltaTime": 22,
        "running": true,
        "channel": 5,
        "type": "noteOff",
        "noteNumber": 74,
        "velocity": 0,
        "byte9": true
    },
    {
        "deltaTime": 0,
        "running": true,
        "channel": 5,
        "type": "noteOff",
        "noteNumber": 77,
        "velocity": 0,
        "byte9": true
    },
    {
        "deltaTime": 3,
        "channel": 14,
        "type": "noteOff",
        "noteNumber": 69,
        "velocity": 0,
        "byte9": true
    },
    {
        "deltaTime": 12,
        "channel": 3,
        "type": "noteOff",
        "noteNumber": 74,
        "velocity": 0,
        "byte9": true
    },
    {
        "deltaTime": 10,
        "channel": 14,
        "type": "noteOff",
        "noteNumber": 62,
        "velocity": 0,
        "byte9": true
    },
    {
        "deltaTime": 0,
        "running": true,
        "channel": 14,
        "type": "noteOff",
        "noteNumber": 65,
        "velocity": 0,
        "byte9": true
    },
    {
        "deltaTime": 0,
        "channel": 3,
        "type": "noteOn",
        "noteNumber": 74,
        "velocity": 119
    },
    {
        "deltaTime": 29,
        "channel": 1,
        "type": "noteOff",
        "noteNumber": 38,
        "velocity": 0,
        "byte9": true
    },
    {
        "deltaTime": 0,
        "channel": 8,
        "type": "noteOff",
        "noteNumber": 38,
        "velocity": 0,
        "byte9": true
    },
    {
        "deltaTime": 4,
        "channel": 1,
        "type": "noteOn",
        "noteNumber": 36,
        "velocity": 99
    },
    {
        "deltaTime": 0,
        "channel": 8,
        "type": "noteOn",
        "noteNumber": 36,
        "velocity": 99
    },
    {
        "deltaTime": 0,
        "channel": 9,
        "type": "noteOn",
        "noteNumber": 35,
        "velocity": 114
    },
    {
        "deltaTime": 0,
        "running": true,
        "channel": 9,
        "type": "noteOn",
        "noteNumber": 70,
        "velocity": 65
    },
    {
        "deltaTime": 0,
        "channel": 11,
        "type": "noteOn",
        "noteNumber": 41,
        "velocity": 114
    },
    {
        "deltaTime": 12,
        "channel": 9,
        "type": "noteOff",
        "noteNumber": 35,
        "velocity": 0,
        "byte9": true
    },
    {
        "deltaTime": 0,
        "running": true,
        "channel": 9,
        "type": "noteOff",
        "noteNumber": 70,
        "velocity": 0,
        "byte9": true
    },
    {
        "deltaTime": 148,
        "channel": 5,
        "type": "noteOn",
        "noteNumber": 74,
        "velocity": 109
    },
    {
        "deltaTime": 0,
        "running": true,
        "channel": 5,
        "type": "noteOn",
        "noteNumber": 77,
        "velocity": 97
    },
    {
        "deltaTime": 0,
        "running": true,
        "channel": 5,
        "type": "noteOn",
        "noteNumber": 81,
        "velocity": 110
    },
    {
        "deltaTime": 0,
        "channel": 9,
        "type": "noteOn",
        "noteNumber": 44,
        "velocity": 107
    },
    {
        "deltaTime": 0,
        "running": true,
        "channel": 9,
        "type": "noteOn",
        "noteNumber": 54,
        "velocity": 109
    },
    {
        "deltaTime": 1,
        "channel": 11,
        "type": "noteOff",
        "noteNumber": 41,
        "velocity": 0,
        "byte9": true
    },
    {
        "deltaTime": 11,
        "channel": 9,
        "type": "noteOff",
        "noteNumber": 44,
        "velocity": 0,
        "byte9": true
    },
    {
        "deltaTime": 0,
        "running": true,
        "channel": 9,
        "type": "noteOff",
        "noteNumber": 54,
        "velocity": 0,
        "byte9": true
    },
    {
        "deltaTime": 13,
        "channel": 14,
        "type": "noteOn",
        "noteNumber": 62,
        "velocity": 109
    },
    {
        "deltaTime": 0,
        "running": true,
        "channel": 14,
        "type": "noteOn",
        "noteNumber": 65,
        "velocity": 97
    },
    {
        "deltaTime": 0,
        "running": true,
        "channel": 14,
        "type": "noteOn",
        "noteNumber": 69,
        "velocity": 110
    },
    {
        "deltaTime": 81,
        "channel": 3,
        "type": "noteOff",
        "noteNumber": 74,
        "velocity": 0,
        "byte9": true
    },
    {
        "deltaTime": 43,
        "channel": 5,
        "type": "noteOff",
        "noteNumber": 81,
        "velocity": 0,
        "byte9": true
    },
    {
        "deltaTime": 9,
        "running": true,
        "channel": 5,
        "type": "noteOff",
        "noteNumber": 74,
        "velocity": 0,
        "byte9": true
    },
    {
        "deltaTime": 3,
        "running": true,
        "channel": 5,
        "type": "noteOff",
        "noteNumber": 77,
        "velocity": 0,
        "byte9": true
    },
    {
        "deltaTime": 13,
        "channel": 14,
        "type": "noteOff",
        "noteNumber": 69,
        "velocity": 0,
        "byte9": true
    },
    {
        "deltaTime": 9,
        "running": true,
        "channel": 14,
        "type": "noteOff",
        "noteNumber": 62,
        "velocity": 0,
        "byte9": true
    },
    {
        "deltaTime": 3,
        "running": true,
        "channel": 14,
        "type": "noteOff",
        "noteNumber": 65,
        "velocity": 0,
        "byte9": true
    },
    {
        "deltaTime": 0,
        "channel": 3,
        "type": "noteOn",
        "noteNumber": 74,
        "velocity": 119
    },
    {
        "deltaTime": 116,
        "channel": 1,
        "type": "noteOff",
        "noteNumber": 36,
        "velocity": 0,
        "byte9": true
    },
    {
        "deltaTime": 0,
        "channel": 8,
        "type": "noteOff",
        "noteNumber": 36,
        "velocity": 0,
        "byte9": true
    },
    {
        "deltaTime": 4,
        "channel": 1,
        "type": "noteOn",
        "noteNumber": 33,
        "velocity": 99
    },
    {
        "deltaTime": 0,
        "channel": 8,
        "type": "noteOn",
        "noteNumber": 33,
        "velocity": 99
    },
    {
        "deltaTime": 116,
        "channel": 3,
        "type": "noteOff",
        "noteNumber": 74,
        "velocity": 0,
        "byte9": true
    },
    {
        "deltaTime": 40,
        "channel": 1,
        "type": "noteOff",
        "noteNumber": 33,
        "velocity": 0,
        "byte9": true
    },
    {
        "deltaTime": 0,
        "channel": 8,
        "type": "noteOff",
        "noteNumber": 33,
        "velocity": 0,
        "byte9": true
    },
    {
        "deltaTime": 4,
        "channel": 1,
        "type": "noteOn",
        "noteNumber": 31,
        "velocity": 99
    },
    {
        "deltaTime": 0,
        "channel": 5,
        "type": "noteOn",
        "noteNumber": 74,
        "velocity": 101
    },
    {
        "deltaTime": 0,
        "running": true,
        "channel": 5,
        "type": "noteOn",
        "noteNumber": 79,
        "velocity": 97
    },
    {
        "deltaTime": 0,
        "running": true,
        "channel": 5,
        "type": "noteOn",
        "noteNumber": 82,
        "velocity": 105
    },
    {
        "deltaTime": 0,
        "channel": 8,
        "type": "noteOn",
        "noteNumber": 31,
        "velocity": 99
    },
    {
        "deltaTime": 0,
        "channel": 9,
        "type": "noteOn",
        "noteNumber": 35,
        "velocity": 114
    },
    {
        "deltaTime": 0,
        "channel": 11,
        "type": "noteOn",
        "noteNumber": 41,
        "velocity": 114
    },
    {
        "deltaTime": 12,
        "channel": 9,
        "type": "noteOff",
        "noteNumber": 35,
        "velocity": 0,
        "byte9": true
    },
    {
        "deltaTime": 13,
        "channel": 14,
        "type": "noteOn",
        "noteNumber": 62,
        "velocity": 101
    },
    {
        "deltaTime": 0,
        "running": true,
        "channel": 14,
        "type": "noteOn",
        "noteNumber": 67,
        "velocity": 97
    },
    {
        "deltaTime": 0,
        "running": true,
        "channel": 14,
        "type": "noteOn",
        "noteNumber": 70,
        "velocity": 105
    },
    {
        "deltaTime": 0,
        "channel": 3,
        "type": "noteOn",
        "noteNumber": 74,
        "velocity": 114
    },
    {
        "deltaTime": 31,
        "channel": 5,
        "type": "noteOff",
        "noteNumber": 82,
        "velocity": 0,
        "byte9": true
    },
    {
        "deltaTime": 25,
        "channel": 14,
        "type": "noteOff",
        "noteNumber": 70,
        "velocity": 0,
        "byte9": true
    },
    {
        "deltaTime": 23,
        "channel": 5,
        "type": "noteOff",
        "noteNumber": 79,
        "velocity": 0,
        "byte9": true
    },
    {
        "deltaTime": 2,
        "running": true,
        "channel": 5,
        "type": "noteOff",
        "noteNumber": 74,
        "velocity": 0,
        "byte9": true
    },
    {
        "deltaTime": 23,
        "channel": 14,
        "type": "noteOff",
        "noteNumber": 67,
        "velocity": 0,
        "byte9": true
    },
    {
        "deltaTime": 2,
        "running": true,
        "channel": 14,
        "type": "noteOff",
        "noteNumber": 62,
        "velocity": 0,
        "byte9": true
    },
    {
        "deltaTime": 13,
        "channel": 11,
        "type": "noteOff",
        "noteNumber": 41,
        "velocity": 0,
        "byte9": true
    },
    {
        "deltaTime": 319,
        "channel": 5,
        "type": "noteOn",
        "noteNumber": 74,
        "velocity": 111
    },
    {
        "deltaTime": 0,
        "running": true,
        "channel": 5,
        "type": "noteOn",
        "noteNumber": 79,
        "velocity": 107
    },
    {
        "deltaTime": 0,
        "running": true,
        "channel": 5,
        "type": "noteOn",
        "noteNumber": 82,
        "velocity": 105
    },
    {
        "deltaTime": 0,
        "channel": 9,
        "type": "noteOn",
        "noteNumber": 44,
        "velocity": 107
    },
    {
        "deltaTime": 0,
        "running": true,
        "channel": 9,
        "type": "noteOn",
        "noteNumber": 69,
        "velocity": 109
    },
    {
        "deltaTime": 12,
        "running": true,
        "channel": 9,
        "type": "noteOff",
        "noteNumber": 44,
        "velocity": 0,
        "byte9": true
    },
    {
        "deltaTime": 0,
        "running": true,
        "channel": 9,
        "type": "noteOff",
        "noteNumber": 69,
        "velocity": 0,
        "byte9": true
    },
    {
        "deltaTime": 13,
        "channel": 14,
        "type": "noteOn",
        "noteNumber": 62,
        "velocity": 111
    },
    {
        "deltaTime": 0,
        "running": true,
        "channel": 14,
        "type": "noteOn",
        "noteNumber": 67,
        "velocity": 107
    },
    {
        "deltaTime": 0,
        "running": true,
        "channel": 14,
        "type": "noteOn",
        "noteNumber": 70,
        "velocity": 105
    },
    {
        "deltaTime": 132,
        "channel": 5,
        "type": "noteOff",
        "noteNumber": 82,
        "velocity": 0,
        "byte9": true
    },
    {
        "deltaTime": 4,
        "channel": 1,
        "type": "noteOff",
        "noteNumber": 31,
        "velocity": 0,
        "byte9": true
    },
    {
        "deltaTime": 0,
        "channel": 8,
        "type": "noteOff",
        "noteNumber": 31,
        "velocity": 0,
        "byte9": true
    },
    {
        "deltaTime": 3,
        "channel": 5,
        "type": "noteOff",
        "noteNumber": 79,
        "velocity": 0,
        "byte9": true
    },
    {
        "deltaTime": 4,
        "running": true,
        "channel": 5,
        "type": "noteOff",
        "noteNumber": 74,
        "velocity": 0,
        "byte9": true
    },
    {
        "deltaTime": 14,
        "channel": 14,
        "type": "noteOff",
        "noteNumber": 70,
        "velocity": 0,
        "byte9": true
    },
    {
        "deltaTime": 7,
        "running": true,
        "channel": 14,
        "type": "noteOff",
        "noteNumber": 67,
        "velocity": 0,
        "byte9": true
    },
    {
        "deltaTime": 4,
        "running": true,
        "channel": 14,
        "type": "noteOff",
        "noteNumber": 62,
        "velocity": 0,
        "byte9": true
    },
    {
        "deltaTime": 127,
        "channel": 1,
        "type": "noteOn",
        "noteNumber": 31,
        "velocity": 99
    },
    {
        "deltaTime": 0,
        "channel": 8,
        "type": "noteOn",
        "noteNumber": 31,
        "velocity": 99
    },
    {
        "deltaTime": 0,
        "channel": 9,
        "type": "noteOn",
        "noteNumber": 35,
        "velocity": 107
    },
    {
        "deltaTime": 0,
        "channel": 11,
        "type": "noteOn",
        "noteNumber": 41,
        "velocity": 107
    },
    {
        "deltaTime": 12,
        "channel": 9,
        "type": "noteOff",
        "noteNumber": 35,
        "velocity": 0,
        "byte9": true
    },
    {
        "deltaTime": 148,
        "channel": 5,
        "type": "noteOn",
        "noteNumber": 74,
        "velocity": 105
    },
    {
        "deltaTime": 0,
        "running": true,
        "channel": 5,
        "type": "noteOn",
        "noteNumber": 79,
        "velocity": 94
    },
    {
        "deltaTime": 0,
        "running": true,
        "channel": 5,
        "type": "noteOn",
        "noteNumber": 82,
        "velocity": 94
    },
    {
        "deltaTime": 0,
        "channel": 9,
        "type": "noteOn",
        "noteNumber": 35,
        "velocity": 114
    },
    {
        "deltaTime": 0,
        "channel": 11,
        "type": "noteOn",
        "noteNumber": 41,
        "velocity": 114
    },
    {
        "deltaTime": 1,
        "running": true,
        "channel": 11,
        "type": "noteOff",
        "noteNumber": 41,
        "velocity": 0,
        "byte9": true
    },
    {
        "deltaTime": 11,
        "channel": 9,
        "type": "noteOff",
        "noteNumber": 35,
        "velocity": 0,
        "byte9": true
    },
    {
        "deltaTime": 13,
        "channel": 14,
        "type": "noteOn",
        "noteNumber": 62,
        "velocity": 105
    },
    {
        "deltaTime": 0,
        "running": true,
        "channel": 14,
        "type": "noteOn",
        "noteNumber": 67,
        "velocity": 94
    },
    {
        "deltaTime": 0,
        "running": true,
        "channel": 14,
        "type": "noteOn",
        "noteNumber": 70,
        "velocity": 94
    },
    {
        "deltaTime": 74,
        "channel": 3,
        "type": "noteOff",
        "noteNumber": 74,
        "velocity": 0,
        "byte9": true
    },
    {
        "deltaTime": 56,
        "channel": 5,
        "type": "noteOff",
        "noteNumber": 82,
        "velocity": 0,
        "byte9": true
    },
    {
        "deltaTime": 6,
        "channel": 11,
        "type": "noteOff",
        "noteNumber": 41,
        "velocity": 0,
        "byte9": true
    },
    {
        "deltaTime": 2,
        "channel": 5,
        "type": "noteOff",
        "noteNumber": 74,
        "velocity": 0,
        "byte9": true
    },
    {
        "deltaTime": 4,
        "running": true,
        "channel": 5,
        "type": "noteOff",
        "noteNumber": 79,
        "velocity": 0,
        "byte9": true
    },
    {
        "deltaTime": 13,
        "channel": 14,
        "type": "noteOff",
        "noteNumber": 70,
        "velocity": 0,
        "byte9": true
    },
    {
        "deltaTime": 8,
        "running": true,
        "channel": 14,
        "type": "noteOff",
        "noteNumber": 62,
        "velocity": 0,
        "byte9": true
    },
    {
        "deltaTime": 4,
        "running": true,
        "channel": 14,
        "type": "noteOff",
        "noteNumber": 67,
        "velocity": 0,
        "byte9": true
    },
    {
        "deltaTime": 128,
        "channel": 9,
        "type": "noteOn",
        "noteNumber": 70,
        "velocity": 65
    },
    {
        "deltaTime": 12,
        "running": true,
        "channel": 9,
        "type": "noteOff",
        "noteNumber": 70,
        "velocity": 0,
        "byte9": true
    },
    {
        "deltaTime": 148,
        "channel": 5,
        "type": "noteOn",
        "noteNumber": 74,
        "velocity": 109
    },
    {
        "deltaTime": 0,
        "running": true,
        "channel": 5,
        "type": "noteOn",
        "noteNumber": 79,
        "velocity": 94
    },
    {
        "deltaTime": 0,
        "running": true,
        "channel": 5,
        "type": "noteOn",
        "noteNumber": 82,
        "velocity": 94
    },
    {
        "deltaTime": 0,
        "channel": 9,
        "type": "noteOn",
        "noteNumber": 44,
        "velocity": 107
    },
    {
        "deltaTime": 0,
        "running": true,
        "channel": 9,
        "type": "noteOn",
        "noteNumber": 54,
        "velocity": 109
    },
    {
        "deltaTime": 12,
        "running": true,
        "channel": 9,
        "type": "noteOff",
        "noteNumber": 44,
        "velocity": 0,
        "byte9": true
    },
    {
        "deltaTime": 0,
        "running": true,
        "channel": 9,
        "type": "noteOff",
        "noteNumber": 54,
        "velocity": 0,
        "byte9": true
    },
    {
        "deltaTime": 13,
        "channel": 14,
        "type": "noteOn",
        "noteNumber": 62,
        "velocity": 109
    },
    {
        "deltaTime": 0,
        "running": true,
        "channel": 14,
        "type": "noteOn",
        "noteNumber": 67,
        "velocity": 94
    },
    {
        "deltaTime": 0,
        "running": true,
        "channel": 14,
        "type": "noteOn",
        "noteNumber": 70,
        "velocity": 94
    },
    {
        "deltaTime": 116,
        "channel": 5,
        "type": "noteOff",
        "noteNumber": 82,
        "velocity": 0,
        "byte9": true
    },
    {
        "deltaTime": 13,
        "running": true,
        "channel": 5,
        "type": "noteOff",
        "noteNumber": 74,
        "velocity": 0,
        "byte9": true
    },
    {
        "deltaTime": 0,
        "running": true,
        "channel": 5,
        "type": "noteOff",
        "noteNumber": 79,
        "velocity": 0,
        "byte9": true
    },
    {
        "deltaTime": 7,
        "channel": 1,
        "type": "noteOff",
        "noteNumber": 31,
        "velocity": 0,
        "byte9": true
    },
    {
        "deltaTime": 0,
        "channel": 8,
        "type": "noteOff",
        "noteNumber": 31,
        "velocity": 0,
        "byte9": true
    },
    {
        "deltaTime": 5,
        "channel": 14,
        "type": "noteOff",
        "noteNumber": 70,
        "velocity": 0,
        "byte9": true
    },
    {
        "deltaTime": 13,
        "running": true,
        "channel": 14,
        "type": "noteOff",
        "noteNumber": 62,
        "velocity": 0,
        "byte9": true
    },
    {
        "deltaTime": 0,
        "running": true,
        "channel": 14,
        "type": "noteOff",
        "noteNumber": 67,
        "velocity": 0,
        "byte9": true
    },
    {
        "deltaTime": 141,
        "channel": 1,
        "type": "noteOn",
        "noteNumber": 31,
        "velocity": 99
    },
    {
        "deltaTime": 0,
        "channel": 8,
        "type": "noteOn",
        "noteNumber": 31,
        "velocity": 99
    },
    {
        "deltaTime": 160,
        "channel": 5,
        "type": "noteOn",
        "noteNumber": 74,
        "velocity": 109
    },
    {
        "deltaTime": 0,
        "running": true,
        "channel": 5,
        "type": "noteOn",
        "noteNumber": 79,
        "velocity": 94
    },
    {
        "deltaTime": 0,
        "running": true,
        "channel": 5,
        "type": "noteOn",
        "noteNumber": 82,
        "velocity": 101
    },
    {
        "deltaTime": 0,
        "channel": 9,
        "type": "noteOn",
        "noteNumber": 35,
        "velocity": 114
    },
    {
        "deltaTime": 0,
        "channel": 11,
        "type": "noteOn",
        "noteNumber": 41,
        "velocity": 114
    },
    {
        "deltaTime": 12,
        "channel": 9,
        "type": "noteOff",
        "noteNumber": 35,
        "velocity": 0,
        "byte9": true
    },
    {
        "deltaTime": 13,
        "channel": 14,
        "type": "noteOn",
        "noteNumber": 62,
        "velocity": 109
    },
    {
        "deltaTime": 0,
        "running": true,
        "channel": 14,
        "type": "noteOn",
        "noteNumber": 67,
        "velocity": 94
    },
    {
        "deltaTime": 0,
        "running": true,
        "channel": 14,
        "type": "noteOn",
        "noteNumber": 70,
        "velocity": 101
    },
    {
        "deltaTime": 130,
        "channel": 5,
        "type": "noteOff",
        "noteNumber": 82,
        "velocity": 0,
        "byte9": true
    },
    {
        "deltaTime": 6,
        "channel": 11,
        "type": "noteOff",
        "noteNumber": 41,
        "velocity": 0,
        "byte9": true
    },
    {
        "deltaTime": 10,
        "channel": 5,
        "type": "noteOff",
        "noteNumber": 74,
        "velocity": 0,
        "byte9": true
    },
    {
        "deltaTime": 0,
        "running": true,
        "channel": 5,
        "type": "noteOff",
        "noteNumber": 79,
        "velocity": 0,
        "byte9": true
    },
    {
        "deltaTime": 9,
        "channel": 14,
        "type": "noteOff",
        "noteNumber": 70,
        "velocity": 0,
        "byte9": true
    },
    {
        "deltaTime": 16,
        "running": true,
        "channel": 14,
        "type": "noteOff",
        "noteNumber": 62,
        "velocity": 0,
        "byte9": true
    },
    {
        "deltaTime": 0,
        "running": true,
        "channel": 14,
        "type": "noteOff",
        "noteNumber": 67,
        "velocity": 0,
        "byte9": true
    },
    {
        "deltaTime": 284,
        "channel": 5,
        "type": "noteOn",
        "noteNumber": 74,
        "velocity": 108
    },
    {
        "deltaTime": 0,
        "running": true,
        "channel": 5,
        "type": "noteOn",
        "noteNumber": 79,
        "velocity": 97
    },
    {
        "deltaTime": 0,
        "running": true,
        "channel": 5,
        "type": "noteOn",
        "noteNumber": 82,
        "velocity": 98
    },
    {
        "deltaTime": 0,
        "channel": 9,
        "type": "noteOn",
        "noteNumber": 44,
        "velocity": 107
    },
    {
        "deltaTime": 0,
        "running": true,
        "channel": 9,
        "type": "noteOn",
        "noteNumber": 69,
        "velocity": 109
    },
    {
        "deltaTime": 0,
        "channel": 3,
        "type": "noteOn",
        "noteNumber": 74,
        "velocity": 109
    },
    {
        "deltaTime": 8,
        "channel": 9,
        "type": "noteOff",
        "noteNumber": 44,
        "velocity": 0,
        "byte9": true
    },
    {
        "deltaTime": 0,
        "running": true,
        "channel": 9,
        "type": "noteOff",
        "noteNumber": 69,
        "velocity": 0,
        "byte9": true
    },
    {
        "deltaTime": 13,
        "channel": 14,
        "type": "noteOn",
        "noteNumber": 62,
        "velocity": 108
    },
    {
        "deltaTime": 0,
        "running": true,
        "channel": 14,
        "type": "noteOn",
        "noteNumber": 67,
        "velocity": 97
    },
    {
        "deltaTime": 0,
        "running": true,
        "channel": 14,
        "type": "noteOn",
        "noteNumber": 70,
        "velocity": 98
    },
    {
        "deltaTime": 121,
        "channel": 5,
        "type": "noteOff",
        "noteNumber": 82,
        "velocity": 0,
        "byte9": true
    },
    {
        "deltaTime": 12,
        "running": true,
        "channel": 5,
        "type": "noteOff",
        "noteNumber": 74,
        "velocity": 0,
        "byte9": true
    },
    {
        "deltaTime": 3,
        "channel": 1,
        "type": "noteOff",
        "noteNumber": 31,
        "velocity": 0,
        "byte9": true
    },
    {
        "deltaTime": 0,
        "channel": 8,
        "type": "noteOff",
        "noteNumber": 31,
        "velocity": 0,
        "byte9": true
    },
    {
        "deltaTime": 2,
        "channel": 5,
        "type": "noteOff",
        "noteNumber": 79,
        "velocity": 0,
        "byte9": true
    },
    {
        "deltaTime": 8,
        "channel": 14,
        "type": "noteOff",
        "noteNumber": 70,
        "velocity": 0,
        "byte9": true
    },
    {
        "deltaTime": 12,
        "running": true,
        "channel": 14,
        "type": "noteOff",
        "noteNumber": 62,
        "velocity": 0,
        "byte9": true
    },
    {
        "deltaTime": 5,
        "running": true,
        "channel": 14,
        "type": "noteOff",
        "noteNumber": 67,
        "velocity": 0,
        "byte9": true
    },
    {
        "deltaTime": 132,
        "channel": 1,
        "type": "noteOn",
        "noteNumber": 31,
        "velocity": 99
    },
    {
        "deltaTime": 0,
        "channel": 8,
        "type": "noteOn",
        "noteNumber": 31,
        "velocity": 99
    },
    {
        "deltaTime": 0,
        "channel": 9,
        "type": "noteOn",
        "noteNumber": 35,
        "velocity": 114
    },
    {
        "deltaTime": 0,
        "channel": 11,
        "type": "noteOn",
        "noteNumber": 41,
        "velocity": 114
    },
    {
        "deltaTime": 12,
        "channel": 9,
        "type": "noteOff",
        "noteNumber": 35,
        "velocity": 0,
        "byte9": true
    },
    {
        "deltaTime": 21,
        "channel": 3,
        "type": "noteOff",
        "noteNumber": 74,
        "velocity": 0,
        "byte9": true
    },
    {
        "deltaTime": 127,
        "channel": 5,
        "type": "noteOn",
        "noteNumber": 74,
        "velocity": 105
    },
    {
        "deltaTime": 0,
        "running": true,
        "channel": 5,
        "type": "noteOn",
        "noteNumber": 79,
        "velocity": 89
    },
    {
        "deltaTime": 0,
        "running": true,
        "channel": 5,
        "type": "noteOn",
        "noteNumber": 82,
        "velocity": 94
    },
    {
        "deltaTime": 1,
        "channel": 11,
        "type": "noteOff",
        "noteNumber": 41,
        "velocity": 0,
        "byte9": true
    },
    {
        "deltaTime": 0,
        "channel": 3,
        "type": "noteOn",
        "noteNumber": 74,
        "velocity": 114
    },
    {
        "deltaTime": 4,
        "channel": 14,
        "type": "noteOn",
        "noteNumber": 62,
        "velocity": 105
    },
    {
        "deltaTime": 0,
        "running": true,
        "channel": 14,
        "type": "noteOn",
        "noteNumber": 67,
        "velocity": 89
    },
    {
        "deltaTime": 0,
        "running": true,
        "channel": 14,
        "type": "noteOn",
        "noteNumber": 70,
        "velocity": 94
    },
    {
        "deltaTime": 121,
        "channel": 5,
        "type": "noteOff",
        "noteNumber": 82,
        "velocity": 0,
        "byte9": true
    },
    {
        "deltaTime": 22,
        "running": true,
        "channel": 5,
        "type": "noteOff",
        "noteNumber": 74,
        "velocity": 0,
        "byte9": true
    },
    {
        "deltaTime": 0,
        "running": true,
        "channel": 5,
        "type": "noteOff",
        "noteNumber": 79,
        "velocity": 0,
        "byte9": true
    },
    {
        "deltaTime": 3,
        "channel": 14,
        "type": "noteOff",
        "noteNumber": 70,
        "velocity": 0,
        "byte9": true
    },
    {
        "deltaTime": 22,
        "running": true,
        "channel": 14,
        "type": "noteOff",
        "noteNumber": 62,
        "velocity": 0,
        "byte9": true
    },
    {
        "deltaTime": 0,
        "running": true,
        "channel": 14,
        "type": "noteOff",
        "noteNumber": 67,
        "velocity": 0,
        "byte9": true
    },
    {
        "deltaTime": 123,
        "channel": 1,
        "type": "noteOff",
        "noteNumber": 31,
        "velocity": 0,
        "byte9": true
    },
    {
        "deltaTime": 0,
        "channel": 8,
        "type": "noteOff",
        "noteNumber": 31,
        "velocity": 0,
        "byte9": true
    },
    {
        "deltaTime": 4,
        "channel": 1,
        "type": "noteOn",
        "noteNumber": 32,
        "velocity": 99
    },
    {
        "deltaTime": 0,
        "channel": 8,
        "type": "noteOn",
        "noteNumber": 32,
        "velocity": 99
    },
    {
        "deltaTime": 0,
        "channel": 9,
        "type": "noteOn",
        "noteNumber": 35,
        "velocity": 114
    },
    {
        "deltaTime": 0,
        "running": true,
        "channel": 9,
        "type": "noteOn",
        "noteNumber": 70,
        "velocity": 65
    },
    {
        "deltaTime": 0,
        "channel": 11,
        "type": "noteOn",
        "noteNumber": 41,
        "velocity": 114
    },
    {
        "deltaTime": 12,
        "channel": 9,
        "type": "noteOff",
        "noteNumber": 35,
        "velocity": 0,
        "byte9": true
    },
    {
        "deltaTime": 0,
        "running": true,
        "channel": 9,
        "type": "noteOff",
        "noteNumber": 70,
        "velocity": 0,
        "byte9": true
    },
    {
        "deltaTime": 29,
        "channel": 3,
        "type": "noteOff",
        "noteNumber": 74,
        "velocity": 0,
        "byte9": true
    },
    {
        "deltaTime": 119,
        "channel": 5,
        "type": "noteOn",
        "noteNumber": 74,
        "velocity": 109
    },
    {
        "deltaTime": 0,
        "running": true,
        "channel": 5,
        "type": "noteOn",
        "noteNumber": 79,
        "velocity": 97
    },
    {
        "deltaTime": 0,
        "running": true,
        "channel": 5,
        "type": "noteOn",
        "noteNumber": 82,
        "velocity": 110
    },
    {
        "deltaTime": 0,
        "channel": 9,
        "type": "noteOn",
        "noteNumber": 44,
        "velocity": 107
    },
    {
        "deltaTime": 0,
        "running": true,
        "channel": 9,
        "type": "noteOn",
        "noteNumber": 54,
        "velocity": 109
    },
    {
        "deltaTime": 1,
        "channel": 11,
        "type": "noteOff",
        "noteNumber": 41,
        "velocity": 0,
        "byte9": true
    },
    {
        "deltaTime": 11,
        "channel": 9,
        "type": "noteOff",
        "noteNumber": 44,
        "velocity": 0,
        "byte9": true
    },
    {
        "deltaTime": 0,
        "running": true,
        "channel": 9,
        "type": "noteOff",
        "noteNumber": 54,
        "velocity": 0,
        "byte9": true
    },
    {
        "deltaTime": 13,
        "channel": 14,
        "type": "noteOn",
        "noteNumber": 62,
        "velocity": 109
    },
    {
        "deltaTime": 0,
        "running": true,
        "channel": 14,
        "type": "noteOn",
        "noteNumber": 67,
        "velocity": 97
    },
    {
        "deltaTime": 0,
        "running": true,
        "channel": 14,
        "type": "noteOn",
        "noteNumber": 70,
        "velocity": 110
    },
    {
        "deltaTime": 0,
        "channel": 3,
        "type": "noteOn",
        "noteNumber": 74,
        "velocity": 119
    },
    {
        "deltaTime": 114,
        "channel": 5,
        "type": "noteOff",
        "noteNumber": 82,
        "velocity": 0,
        "byte9": true
    },
    {
        "deltaTime": 9,
        "running": true,
        "channel": 5,
        "type": "noteOff",
        "noteNumber": 74,
        "velocity": 0,
        "byte9": true
    },
    {
        "deltaTime": 3,
        "running": true,
        "channel": 5,
        "type": "noteOff",
        "noteNumber": 79,
        "velocity": 0,
        "byte9": true
    },
    {
        "deltaTime": 13,
        "channel": 14,
        "type": "noteOff",
        "noteNumber": 70,
        "velocity": 0,
        "byte9": true
    },
    {
        "deltaTime": 9,
        "running": true,
        "channel": 14,
        "type": "noteOff",
        "noteNumber": 62,
        "velocity": 0,
        "byte9": true
    },
    {
        "deltaTime": 3,
        "running": true,
        "channel": 14,
        "type": "noteOff",
        "noteNumber": 67,
        "velocity": 0,
        "byte9": true
    },
    {
        "deltaTime": 130,
        "channel": 1,
        "type": "noteOff",
        "noteNumber": 32,
        "velocity": 0,
        "byte9": true
    },
    {
        "deltaTime": 0,
        "channel": 8,
        "type": "noteOff",
        "noteNumber": 32,
        "velocity": 0,
        "byte9": true
    },
    {
        "deltaTime": 4,
        "channel": 1,
        "type": "noteOn",
        "noteNumber": 33,
        "velocity": 99
    },
    {
        "deltaTime": 0,
        "channel": 8,
        "type": "noteOn",
        "noteNumber": 33,
        "velocity": 99
    },
    {
        "deltaTime": 144,
        "channel": 3,
        "type": "noteOff",
        "noteNumber": 74,
        "velocity": 0,
        "byte9": true
    },
    {
        "deltaTime": 12,
        "channel": 1,
        "type": "noteOff",
        "noteNumber": 33,
        "velocity": 0,
        "byte9": true
    },
    {
        "deltaTime": 0,
        "channel": 8,
        "type": "noteOff",
        "noteNumber": 33,
        "velocity": 0,
        "byte9": true
    },
    {
        "deltaTime": 4,
        "channel": 1,
        "type": "noteOn",
        "noteNumber": 34,
        "velocity": 99
    },
    {
        "deltaTime": 0,
        "channel": 5,
        "type": "noteOn",
        "noteNumber": 74,
        "velocity": 101
    },
    {
        "deltaTime": 0,
        "running": true,
        "channel": 5,
        "type": "noteOn",
        "noteNumber": 77,
        "velocity": 97
    },
    {
        "deltaTime": 0,
        "running": true,
        "channel": 5,
        "type": "noteOn",
        "noteNumber": 82,
        "velocity": 105
    },
    {
        "deltaTime": 0,
        "channel": 8,
        "type": "noteOn",
        "noteNumber": 34,
        "velocity": 99
    },
    {
        "deltaTime": 0,
        "channel": 9,
        "type": "noteOn",
        "noteNumber": 35,
        "velocity": 114
    },
    {
        "deltaTime": 0,
        "channel": 11,
        "type": "noteOn",
        "noteNumber": 41,
        "velocity": 114
    },
    {
        "deltaTime": 12,
        "channel": 9,
        "type": "noteOff",
        "noteNumber": 35,
        "velocity": 0,
        "byte9": true
    },
    {
        "deltaTime": 13,
        "channel": 14,
        "type": "noteOn",
        "noteNumber": 62,
        "velocity": 101
    },
    {
        "deltaTime": 0,
        "running": true,
        "channel": 14,
        "type": "noteOn",
        "noteNumber": 65,
        "velocity": 97
    },
    {
        "deltaTime": 0,
        "running": true,
        "channel": 14,
        "type": "noteOn",
        "noteNumber": 70,
        "velocity": 105
    },
    {
        "deltaTime": 48,
        "channel": 5,
        "type": "noteOff",
        "noteNumber": 82,
        "velocity": 0,
        "byte9": true
    },
    {
        "deltaTime": 25,
        "channel": 14,
        "type": "noteOff",
        "noteNumber": 70,
        "velocity": 0,
        "byte9": true
    },
    {
        "deltaTime": 23,
        "channel": 5,
        "type": "noteOff",
        "noteNumber": 77,
        "velocity": 0,
        "byte9": true
    },
    {
        "deltaTime": 2,
        "running": true,
        "channel": 5,
        "type": "noteOff",
        "noteNumber": 74,
        "velocity": 0,
        "byte9": true
    },
    {
        "deltaTime": 23,
        "channel": 14,
        "type": "noteOff",
        "noteNumber": 65,
        "velocity": 0,
        "byte9": true
    },
    {
        "deltaTime": 2,
        "running": true,
        "channel": 14,
        "type": "noteOff",
        "noteNumber": 62,
        "velocity": 0,
        "byte9": true
    },
    {
        "deltaTime": 13,
        "channel": 11,
        "type": "noteOff",
        "noteNumber": 41,
        "velocity": 0,
        "byte9": true
    },
    {
        "deltaTime": 319,
        "channel": 5,
        "type": "noteOn",
        "noteNumber": 74,
        "velocity": 111
    },
    {
        "deltaTime": 0,
        "running": true,
        "channel": 5,
        "type": "noteOn",
        "noteNumber": 77,
        "velocity": 107
    },
    {
        "deltaTime": 0,
        "running": true,
        "channel": 5,
        "type": "noteOn",
        "noteNumber": 82,
        "velocity": 105
    },
    {
        "deltaTime": 0,
        "channel": 9,
        "type": "noteOn",
        "noteNumber": 44,
        "velocity": 107
    },
    {
        "deltaTime": 0,
        "running": true,
        "channel": 9,
        "type": "noteOn",
        "noteNumber": 69,
        "velocity": 109
    },
    {
        "deltaTime": 12,
        "running": true,
        "channel": 9,
        "type": "noteOff",
        "noteNumber": 44,
        "velocity": 0,
        "byte9": true
    },
    {
        "deltaTime": 0,
        "running": true,
        "channel": 9,
        "type": "noteOff",
        "noteNumber": 69,
        "velocity": 0,
        "byte9": true
    },
    {
        "deltaTime": 0,
        "channel": 3,
        "type": "noteOn",
        "noteNumber": 74,
        "velocity": 124
    },
    {
        "deltaTime": 10,
        "channel": 14,
        "type": "noteOn",
        "noteNumber": 62,
        "velocity": 111
    },
    {
        "deltaTime": 0,
        "running": true,
        "channel": 14,
        "type": "noteOn",
        "noteNumber": 65,
        "velocity": 107
    },
    {
        "deltaTime": 0,
        "running": true,
        "channel": 14,
        "type": "noteOn",
        "noteNumber": 70,
        "velocity": 105
    },
    {
        "deltaTime": 132,
        "channel": 5,
        "type": "noteOff",
        "noteNumber": 82,
        "velocity": 0,
        "byte9": true
    },
    {
        "deltaTime": 7,
        "running": true,
        "channel": 5,
        "type": "noteOff",
        "noteNumber": 77,
        "velocity": 0,
        "byte9": true
    },
    {
        "deltaTime": 4,
        "running": true,
        "channel": 5,
        "type": "noteOff",
        "noteNumber": 74,
        "velocity": 0,
        "byte9": true
    },
    {
        "deltaTime": 14,
        "channel": 14,
        "type": "noteOff",
        "noteNumber": 70,
        "velocity": 0,
        "byte9": true
    },
    {
        "deltaTime": 7,
        "running": true,
        "channel": 14,
        "type": "noteOff",
        "noteNumber": 65,
        "velocity": 0,
        "byte9": true
    },
    {
        "deltaTime": 4,
        "running": true,
        "channel": 14,
        "type": "noteOff",
        "noteNumber": 62,
        "velocity": 0,
        "byte9": true
    },
    {
        "deltaTime": 68,
        "channel": 1,
        "type": "noteOff",
        "noteNumber": 34,
        "velocity": 0,
        "byte9": true
    },
    {
        "deltaTime": 0,
        "channel": 8,
        "type": "noteOff",
        "noteNumber": 34,
        "velocity": 0,
        "byte9": true
    },
    {
        "deltaTime": 59,
        "channel": 1,
        "type": "noteOn",
        "noteNumber": 34,
        "velocity": 99
    },
    {
        "deltaTime": 0,
        "channel": 8,
        "type": "noteOn",
        "noteNumber": 34,
        "velocity": 99
    },
    {
        "deltaTime": 0,
        "channel": 9,
        "type": "noteOn",
        "noteNumber": 35,
        "velocity": 107
    },
    {
        "deltaTime": 0,
        "channel": 11,
        "type": "noteOn",
        "noteNumber": 41,
        "velocity": 107
    },
    {
        "deltaTime": 12,
        "channel": 9,
        "type": "noteOff",
        "noteNumber": 35,
        "velocity": 0,
        "byte9": true
    },
    {
        "deltaTime": 148,
        "channel": 5,
        "type": "noteOn",
        "noteNumber": 74,
        "velocity": 105
    },
    {
        "deltaTime": 0,
        "running": true,
        "channel": 5,
        "type": "noteOn",
        "noteNumber": 77,
        "velocity": 94
    },
    {
        "deltaTime": 0,
        "running": true,
        "channel": 5,
        "type": "noteOn",
        "noteNumber": 82,
        "velocity": 94
    },
    {
        "deltaTime": 0,
        "channel": 9,
        "type": "noteOn",
        "noteNumber": 35,
        "velocity": 114
    },
    {
        "deltaTime": 0,
        "channel": 11,
        "type": "noteOn",
        "noteNumber": 41,
        "velocity": 114
    },
    {
        "deltaTime": 1,
        "running": true,
        "channel": 11,
        "type": "noteOff",
        "noteNumber": 41,
        "velocity": 0,
        "byte9": true
    },
    {
        "deltaTime": 11,
        "channel": 9,
        "type": "noteOff",
        "noteNumber": 35,
        "velocity": 0,
        "byte9": true
    },
    {
        "deltaTime": 13,
        "channel": 14,
        "type": "noteOn",
        "noteNumber": 62,
        "velocity": 105
    },
    {
        "deltaTime": 0,
        "running": true,
        "channel": 14,
        "type": "noteOn",
        "noteNumber": 65,
        "velocity": 94
    },
    {
        "deltaTime": 0,
        "running": true,
        "channel": 14,
        "type": "noteOn",
        "noteNumber": 70,
        "velocity": 94
    },
    {
        "deltaTime": 130,
        "channel": 5,
        "type": "noteOff",
        "noteNumber": 82,
        "velocity": 0,
        "byte9": true
    },
    {
        "deltaTime": 6,
        "channel": 11,
        "type": "noteOff",
        "noteNumber": 41,
        "velocity": 0,
        "byte9": true
    },
    {
        "deltaTime": 2,
        "channel": 5,
        "type": "noteOff",
        "noteNumber": 74,
        "velocity": 0,
        "byte9": true
    },
    {
        "deltaTime": 4,
        "running": true,
        "channel": 5,
        "type": "noteOff",
        "noteNumber": 77,
        "velocity": 0,
        "byte9": true
    },
    {
        "deltaTime": 13,
        "channel": 14,
        "type": "noteOff",
        "noteNumber": 70,
        "velocity": 0,
        "byte9": true
    },
    {
        "deltaTime": 8,
        "running": true,
        "channel": 14,
        "type": "noteOff",
        "noteNumber": 62,
        "velocity": 0,
        "byte9": true
    },
    {
        "deltaTime": 4,
        "running": true,
        "channel": 14,
        "type": "noteOff",
        "noteNumber": 65,
        "velocity": 0,
        "byte9": true
    },
    {
        "deltaTime": 128,
        "channel": 9,
        "type": "noteOn",
        "noteNumber": 70,
        "velocity": 65
    },
    {
        "deltaTime": 12,
        "running": true,
        "channel": 9,
        "type": "noteOff",
        "noteNumber": 70,
        "velocity": 0,
        "byte9": true
    },
    {
        "deltaTime": 55,
        "channel": 3,
        "type": "noteOff",
        "noteNumber": 74,
        "velocity": 0,
        "byte9": true
    },
    {
        "deltaTime": 93,
        "channel": 5,
        "type": "noteOn",
        "noteNumber": 74,
        "velocity": 109
    },
    {
        "deltaTime": 0,
        "running": true,
        "channel": 5,
        "type": "noteOn",
        "noteNumber": 77,
        "velocity": 94
    },
    {
        "deltaTime": 0,
        "running": true,
        "channel": 5,
        "type": "noteOn",
        "noteNumber": 82,
        "velocity": 94
    },
    {
        "deltaTime": 0,
        "channel": 9,
        "type": "noteOn",
        "noteNumber": 44,
        "velocity": 107
    },
    {
        "deltaTime": 0,
        "running": true,
        "channel": 9,
        "type": "noteOn",
        "noteNumber": 54,
        "velocity": 109
    },
    {
        "deltaTime": 12,
        "running": true,
        "channel": 9,
        "type": "noteOff",
        "noteNumber": 44,
        "velocity": 0,
        "byte9": true
    },
    {
        "deltaTime": 0,
        "running": true,
        "channel": 9,
        "type": "noteOff",
        "noteNumber": 54,
        "velocity": 0,
        "byte9": true
    },
    {
        "deltaTime": 13,
        "channel": 14,
        "type": "noteOn",
        "noteNumber": 62,
        "velocity": 109
    },
    {
        "deltaTime": 0,
        "running": true,
        "channel": 14,
        "type": "noteOn",
        "noteNumber": 65,
        "velocity": 94
    },
    {
        "deltaTime": 0,
        "running": true,
        "channel": 14,
        "type": "noteOn",
        "noteNumber": 70,
        "velocity": 94
    },
    {
        "deltaTime": 76,
        "channel": 1,
        "type": "noteOff",
        "noteNumber": 34,
        "velocity": 0,
        "byte9": true
    },
    {
        "deltaTime": 0,
        "channel": 8,
        "type": "noteOff",
        "noteNumber": 34,
        "velocity": 0,
        "byte9": true
    },
    {
        "deltaTime": 40,
        "channel": 5,
        "type": "noteOff",
        "noteNumber": 82,
        "velocity": 0,
        "byte9": true
    },
    {
        "deltaTime": 13,
        "running": true,
        "channel": 5,
        "type": "noteOff",
        "noteNumber": 74,
        "velocity": 0,
        "byte9": true
    },
    {
        "deltaTime": 0,
        "running": true,
        "channel": 5,
        "type": "noteOff",
        "noteNumber": 77,
        "velocity": 0,
        "byte9": true
    },
    {
        "deltaTime": 12,
        "channel": 14,
        "type": "noteOff",
        "noteNumber": 70,
        "velocity": 0,
        "byte9": true
    },
    {
        "deltaTime": 13,
        "running": true,
        "channel": 14,
        "type": "noteOff",
        "noteNumber": 62,
        "velocity": 0,
        "byte9": true
    },
    {
        "deltaTime": 0,
        "running": true,
        "channel": 14,
        "type": "noteOff",
        "noteNumber": 65,
        "velocity": 0,
        "byte9": true
    },
    {
        "deltaTime": 141,
        "channel": 1,
        "type": "noteOn",
        "noteNumber": 34,
        "velocity": 99
    },
    {
        "deltaTime": 0,
        "channel": 8,
        "type": "noteOn",
        "noteNumber": 34,
        "velocity": 99
    },
    {
        "deltaTime": 0,
        "channel": 3,
        "type": "noteOn",
        "noteNumber": 69,
        "velocity": 119
    },
    {
        "deltaTime": 106,
        "running": true,
        "channel": 3,
        "type": "noteOff",
        "noteNumber": 69,
        "velocity": 0,
        "byte9": true
    },
    {
        "deltaTime": 31,
        "channel": 5,
        "type": "noteOn",
        "noteNumber": 74,
        "velocity": 109
    },
    {
        "deltaTime": 0,
        "running": true,
        "channel": 5,
        "type": "noteOn",
        "noteNumber": 77,
        "velocity": 94
    },
    {
        "deltaTime": 0,
        "running": true,
        "channel": 5,
        "type": "noteOn",
        "noteNumber": 82,
        "velocity": 101
    },
    {
        "deltaTime": 0,
        "channel": 9,
        "type": "noteOn",
        "noteNumber": 35,
        "velocity": 114
    },
    {
        "deltaTime": 0,
        "channel": 11,
        "type": "noteOn",
        "noteNumber": 41,
        "velocity": 114
    },
    {
        "deltaTime": 12,
        "channel": 9,
        "type": "noteOff",
        "noteNumber": 35,
        "velocity": 0,
        "byte9": true
    },
    {
        "deltaTime": 13,
        "channel": 14,
        "type": "noteOn",
        "noteNumber": 62,
        "velocity": 109
    },
    {
        "deltaTime": 0,
        "running": true,
        "channel": 14,
        "type": "noteOn",
        "noteNumber": 65,
        "velocity": 94
    },
    {
        "deltaTime": 0,
        "running": true,
        "channel": 14,
        "type": "noteOn",
        "noteNumber": 70,
        "velocity": 101
    },
    {
        "deltaTime": 0,
        "channel": 3,
        "type": "noteOn",
        "noteNumber": 74,
        "velocity": 127
    },
    {
        "deltaTime": 114,
        "channel": 5,
        "type": "noteOff",
        "noteNumber": 82,
        "velocity": 0,
        "byte9": true
    },
    {
        "deltaTime": 6,
        "channel": 11,
        "type": "noteOff",
        "noteNumber": 41,
        "velocity": 0,
        "byte9": true
    },
    {
        "deltaTime": 10,
        "channel": 5,
        "type": "noteOff",
        "noteNumber": 74,
        "velocity": 0,
        "byte9": true
    },
    {
        "deltaTime": 0,
        "running": true,
        "channel": 5,
        "type": "noteOff",
        "noteNumber": 77,
        "velocity": 0,
        "byte9": true
    },
    {
        "deltaTime": 9,
        "channel": 14,
        "type": "noteOff",
        "noteNumber": 70,
        "velocity": 0,
        "byte9": true
    },
    {
        "deltaTime": 16,
        "running": true,
        "channel": 14,
        "type": "noteOff",
        "noteNumber": 62,
        "velocity": 0,
        "byte9": true
    },
    {
        "deltaTime": 0,
        "running": true,
        "channel": 14,
        "type": "noteOff",
        "noteNumber": 65,
        "velocity": 0,
        "byte9": true
    },
    {
        "deltaTime": 95,
        "channel": 3,
        "type": "noteOff",
        "noteNumber": 74,
        "velocity": 0,
        "byte9": true
    },
    {
        "deltaTime": 189,
        "channel": 5,
        "type": "noteOn",
        "noteNumber": 74,
        "velocity": 108
    },
    {
        "deltaTime": 0,
        "running": true,
        "channel": 5,
        "type": "noteOn",
        "noteNumber": 77,
        "velocity": 97
    },
    {
        "deltaTime": 0,
        "running": true,
        "channel": 5,
        "type": "noteOn",
        "noteNumber": 82,
        "velocity": 98
    },
    {
        "deltaTime": 0,
        "channel": 9,
        "type": "noteOn",
        "noteNumber": 44,
        "velocity": 107
    },
    {
        "deltaTime": 0,
        "running": true,
        "channel": 9,
        "type": "noteOn",
        "noteNumber": 69,
        "velocity": 109
    },
    {
        "deltaTime": 12,
        "running": true,
        "channel": 9,
        "type": "noteOff",
        "noteNumber": 44,
        "velocity": 0,
        "byte9": true
    },
    {
        "deltaTime": 0,
        "running": true,
        "channel": 9,
        "type": "noteOff",
        "noteNumber": 69,
        "velocity": 0,
        "byte9": true
    },
    {
        "deltaTime": 0,
        "channel": 3,
        "type": "noteOn",
        "noteNumber": 69,
        "velocity": 109
    },
    {
        "deltaTime": 4,
        "channel": 14,
        "type": "noteOn",
        "noteNumber": 62,
        "velocity": 108
    },
    {
        "deltaTime": 0,
        "running": true,
        "channel": 14,
        "type": "noteOn",
        "noteNumber": 65,
        "velocity": 97
    },
    {
        "deltaTime": 0,
        "running": true,
        "channel": 14,
        "type": "noteOn",
        "noteNumber": 70,
        "velocity": 98
    },
    {
        "deltaTime": 76,
        "channel": 1,
        "type": "noteOff",
        "noteNumber": 34,
        "velocity": 0,
        "byte9": true
    },
    {
        "deltaTime": 0,
        "channel": 8,
        "type": "noteOff",
        "noteNumber": 34,
        "velocity": 0,
        "byte9": true
    },
    {
        "deltaTime": 45,
        "channel": 5,
        "type": "noteOff",
        "noteNumber": 82,
        "velocity": 0,
        "byte9": true
    },
    {
        "deltaTime": 12,
        "running": true,
        "channel": 5,
        "type": "noteOff",
        "noteNumber": 74,
        "velocity": 0,
        "byte9": true
    },
    {
        "deltaTime": 5,
        "running": true,
        "channel": 5,
        "type": "noteOff",
        "noteNumber": 77,
        "velocity": 0,
        "byte9": true
    },
    {
        "deltaTime": 8,
        "channel": 14,
        "type": "noteOff",
        "noteNumber": 70,
        "velocity": 0,
        "byte9": true
    },
    {
        "deltaTime": 12,
        "running": true,
        "channel": 14,
        "type": "noteOff",
        "noteNumber": 62,
        "velocity": 0,
        "byte9": true
    },
    {
        "deltaTime": 5,
        "running": true,
        "channel": 14,
        "type": "noteOff",
        "noteNumber": 65,
        "velocity": 0,
        "byte9": true
    },
    {
        "deltaTime": 117,
        "channel": 3,
        "type": "noteOff",
        "noteNumber": 69,
        "velocity": 0,
        "byte9": true
    },
    {
        "deltaTime": 15,
        "channel": 1,
        "type": "noteOn",
        "noteNumber": 34,
        "velocity": 99
    },
    {
        "deltaTime": 0,
        "channel": 8,
        "type": "noteOn",
        "noteNumber": 34,
        "velocity": 99
    },
    {
        "deltaTime": 0,
        "channel": 9,
        "type": "noteOn",
        "noteNumber": 35,
        "velocity": 114
    },
    {
        "deltaTime": 0,
        "channel": 11,
        "type": "noteOn",
        "noteNumber": 41,
        "velocity": 114
    },
    {
        "deltaTime": 12,
        "channel": 9,
        "type": "noteOff",
        "noteNumber": 35,
        "velocity": 0,
        "byte9": true
    },
    {
        "deltaTime": 148,
        "channel": 5,
        "type": "noteOn",
        "noteNumber": 74,
        "velocity": 105
    },
    {
        "deltaTime": 0,
        "running": true,
        "channel": 5,
        "type": "noteOn",
        "noteNumber": 77,
        "velocity": 89
    },
    {
        "deltaTime": 0,
        "running": true,
        "channel": 5,
        "type": "noteOn",
        "noteNumber": 82,
        "velocity": 94
    },
    {
        "deltaTime": 1,
        "channel": 11,
        "type": "noteOff",
        "noteNumber": 41,
        "velocity": 0,
        "byte9": true
    },
    {
        "deltaTime": 0,
        "channel": 3,
        "type": "noteOn",
        "noteNumber": 74,
        "velocity": 127
    },
    {
        "deltaTime": 19,
        "channel": 14,
        "type": "noteOn",
        "noteNumber": 62,
        "velocity": 105
    },
    {
        "deltaTime": 0,
        "running": true,
        "channel": 14,
        "type": "noteOn",
        "noteNumber": 65,
        "velocity": 89
    },
    {
        "deltaTime": 0,
        "running": true,
        "channel": 14,
        "type": "noteOn",
        "noteNumber": 70,
        "velocity": 94
    },
    {
        "deltaTime": 121,
        "channel": 5,
        "type": "noteOff",
        "noteNumber": 82,
        "velocity": 0,
        "byte9": true
    },
    {
        "deltaTime": 22,
        "running": true,
        "channel": 5,
        "type": "noteOff",
        "noteNumber": 74,
        "velocity": 0,
        "byte9": true
    },
    {
        "deltaTime": 0,
        "running": true,
        "channel": 5,
        "type": "noteOff",
        "noteNumber": 77,
        "velocity": 0,
        "byte9": true
    },
    {
        "deltaTime": 3,
        "channel": 14,
        "type": "noteOff",
        "noteNumber": 70,
        "velocity": 0,
        "byte9": true
    },
    {
        "deltaTime": 22,
        "running": true,
        "channel": 14,
        "type": "noteOff",
        "noteNumber": 62,
        "velocity": 0,
        "byte9": true
    },
    {
        "deltaTime": 0,
        "running": true,
        "channel": 14,
        "type": "noteOff",
        "noteNumber": 65,
        "velocity": 0,
        "byte9": true
    },
    {
        "deltaTime": 68,
        "channel": 3,
        "type": "noteOff",
        "noteNumber": 74,
        "velocity": 0,
        "byte9": true
    },
    {
        "deltaTime": 55,
        "channel": 1,
        "type": "noteOff",
        "noteNumber": 34,
        "velocity": 0,
        "byte9": true
    },
    {
        "deltaTime": 0,
        "channel": 8,
        "type": "noteOff",
        "noteNumber": 34,
        "velocity": 0,
        "byte9": true
    },
    {
        "deltaTime": 4,
        "channel": 1,
        "type": "noteOn",
        "noteNumber": 41,
        "velocity": 99
    },
    {
        "deltaTime": 0,
        "channel": 8,
        "type": "noteOn",
        "noteNumber": 41,
        "velocity": 99
    },
    {
        "deltaTime": 0,
        "channel": 9,
        "type": "noteOn",
        "noteNumber": 35,
        "velocity": 114
    },
    {
        "deltaTime": 0,
        "running": true,
        "channel": 9,
        "type": "noteOn",
        "noteNumber": 70,
        "velocity": 65
    },
    {
        "deltaTime": 0,
        "channel": 11,
        "type": "noteOn",
        "noteNumber": 41,
        "velocity": 114
    },
    {
        "deltaTime": 12,
        "channel": 9,
        "type": "noteOff",
        "noteNumber": 35,
        "velocity": 0,
        "byte9": true
    },
    {
        "deltaTime": 0,
        "running": true,
        "channel": 9,
        "type": "noteOff",
        "noteNumber": 70,
        "velocity": 0,
        "byte9": true
    },
    {
        "deltaTime": 0,
        "channel": 3,
        "type": "noteOn",
        "noteNumber": 69,
        "velocity": 119
    },
    {
        "deltaTime": 3,
        "channel": 5,
        "type": "noteOn",
        "noteNumber": 74,
        "velocity": 109
    },
    {
        "deltaTime": 0,
        "running": true,
        "channel": 5,
        "type": "noteOn",
        "noteNumber": 77,
        "velocity": 97
    },
    {
        "deltaTime": 0,
        "running": true,
        "channel": 5,
        "type": "noteOn",
        "noteNumber": 82,
        "velocity": 110
    },
    {
        "deltaTime": 0,
        "channel": 9,
        "type": "noteOn",
        "noteNumber": 44,
        "velocity": 107
    },
    {
        "deltaTime": 0,
        "running": true,
        "channel": 9,
        "type": "noteOn",
        "noteNumber": 54,
        "velocity": 109
    },
    {
        "deltaTime": 1,
        "channel": 11,
        "type": "noteOff",
        "noteNumber": 41,
        "velocity": 0,
        "byte9": true
    },
    {
        "deltaTime": 11,
        "channel": 9,
        "type": "noteOff",
        "noteNumber": 44,
        "velocity": 0,
        "byte9": true
    },
    {
        "deltaTime": 0,
        "running": true,
        "channel": 9,
        "type": "noteOff",
        "noteNumber": 54,
        "velocity": 0,
        "byte9": true
    },
    {
        "deltaTime": 13,
        "channel": 14,
        "type": "noteOn",
        "noteNumber": 62,
        "velocity": 109
    },
    {
        "deltaTime": 0,
        "running": true,
        "channel": 14,
        "type": "noteOn",
        "noteNumber": 65,
        "velocity": 97
    },
    {
        "deltaTime": 0,
        "running": true,
        "channel": 14,
        "type": "noteOn",
        "noteNumber": 70,
        "velocity": 110
    },
    {
        "deltaTime": 124,
        "channel": 5,
        "type": "noteOff",
        "noteNumber": 82,
        "velocity": 0,
        "byte9": true
    },
    {
        "deltaTime": 9,
        "running": true,
        "channel": 5,
        "type": "noteOff",
        "noteNumber": 74,
        "velocity": 0,
        "byte9": true
    },
    {
        "deltaTime": 3,
        "running": true,
        "channel": 5,
        "type": "noteOff",
        "noteNumber": 77,
        "velocity": 0,
        "byte9": true
    },
    {
        "deltaTime": 13,
        "channel": 14,
        "type": "noteOff",
        "noteNumber": 70,
        "velocity": 0,
        "byte9": true
    },
    {
        "deltaTime": 9,
        "running": true,
        "channel": 14,
        "type": "noteOff",
        "noteNumber": 62,
        "velocity": 0,
        "byte9": true
    },
    {
        "deltaTime": 3,
        "running": true,
        "channel": 14,
        "type": "noteOff",
        "noteNumber": 65,
        "velocity": 0,
        "byte9": true
    },
    {
        "deltaTime": 130,
        "channel": 1,
        "type": "noteOff",
        "noteNumber": 41,
        "velocity": 0,
        "byte9": true
    },
    {
        "deltaTime": 0,
        "channel": 8,
        "type": "noteOff",
        "noteNumber": 41,
        "velocity": 0,
        "byte9": true
    },
    {
        "deltaTime": 4,
        "channel": 1,
        "type": "noteOn",
        "noteNumber": 34,
        "velocity": 99
    },
    {
        "deltaTime": 0,
        "channel": 8,
        "type": "noteOn",
        "noteNumber": 34,
        "velocity": 99
    },
    {
        "deltaTime": 0,
        "channel": 1,
        "type": "noteOff",
        "noteNumber": 34,
        "velocity": 0,
        "byte9": true
    },
    {
        "deltaTime": 0,
        "channel": 8,
        "type": "noteOff",
        "noteNumber": 34,
        "velocity": 0,
        "byte9": true
    },
    {
        "deltaTime": 160,
        "channel": 1,
        "type": "noteOn",
        "noteNumber": 33,
        "velocity": 99
    },
    {
        "deltaTime": 0,
        "channel": 5,
        "type": "noteOn",
        "noteNumber": 73,
        "velocity": 101
    },
    {
        "deltaTime": 0,
        "running": true,
        "channel": 5,
        "type": "noteOn",
        "noteNumber": 76,
        "velocity": 97
    },
    {
        "deltaTime": 0,
        "running": true,
        "channel": 5,
        "type": "noteOn",
        "noteNumber": 81,
        "velocity": 105
    },
    {
        "deltaTime": 0,
        "channel": 7,
        "type": "noteOn",
        "noteNumber": 81,
        "velocity": 119
    },
    {
        "deltaTime": 0,
        "channel": 8,
        "type": "noteOn",
        "noteNumber": 33,
        "velocity": 99
    },
    {
        "deltaTime": 0,
        "channel": 9,
        "type": "noteOn",
        "noteNumber": 35,
        "velocity": 114
    },
    {
        "deltaTime": 0,
        "channel": 11,
        "type": "noteOn",
        "noteNumber": 41,
        "velocity": 114
    },
    {
        "deltaTime": 12,
        "channel": 9,
        "type": "noteOff",
        "noteNumber": 35,
        "velocity": 0,
        "byte9": true
    },
    {
        "deltaTime": 13,
        "channel": 14,
        "type": "noteOn",
        "noteNumber": 61,
        "velocity": 101
    },
    {
        "deltaTime": 0,
        "running": true,
        "channel": 14,
        "type": "noteOn",
        "noteNumber": 64,
        "velocity": 97
    },
    {
        "deltaTime": 0,
        "running": true,
        "channel": 14,
        "type": "noteOn",
        "noteNumber": 69,
        "velocity": 105
    },
    {
        "deltaTime": 48,
        "channel": 5,
        "type": "noteOff",
        "noteNumber": 81,
        "velocity": 0,
        "byte9": true
    },
    {
        "deltaTime": 25,
        "channel": 14,
        "type": "noteOff",
        "noteNumber": 69,
        "velocity": 0,
        "byte9": true
    },
    {
        "deltaTime": 23,
        "channel": 5,
        "type": "noteOff",
        "noteNumber": 76,
        "velocity": 0,
        "byte9": true
    },
    {
        "deltaTime": 2,
        "running": true,
        "channel": 5,
        "type": "noteOff",
        "noteNumber": 73,
        "velocity": 0,
        "byte9": true
    },
    {
        "deltaTime": 23,
        "channel": 14,
        "type": "noteOff",
        "noteNumber": 64,
        "velocity": 0,
        "byte9": true
    },
    {
        "deltaTime": 2,
        "running": true,
        "channel": 14,
        "type": "noteOff",
        "noteNumber": 61,
        "velocity": 0,
        "byte9": true
    },
    {
        "deltaTime": 10,
        "channel": 3,
        "type": "noteOff",
        "noteNumber": 69,
        "velocity": 0,
        "byte9": true
    },
    {
        "deltaTime": 3,
        "channel": 11,
        "type": "noteOff",
        "noteNumber": 41,
        "velocity": 0,
        "byte9": true
    },
    {
        "deltaTime": 0,
        "channel": 3,
        "type": "noteOn",
        "noteNumber": 73,
        "velocity": 127
    },
    {
        "deltaTime": 29,
        "channel": 5,
        "type": "noteOn",
        "noteNumber": 73,
        "velocity": 111
    },
    {
        "deltaTime": 0,
        "running": true,
        "channel": 5,
        "type": "noteOn",
        "noteNumber": 76,
        "velocity": 107
    },
    {
        "deltaTime": 0,
        "running": true,
        "channel": 5,
        "type": "noteOn",
        "noteNumber": 81,
        "velocity": 105
    },
    {
        "deltaTime": 0,
        "channel": 9,
        "type": "noteOn",
        "noteNumber": 44,
        "velocity": 107
    },
    {
        "deltaTime": 0,
        "running": true,
        "channel": 9,
        "type": "noteOn",
        "noteNumber": 69,
        "velocity": 109
    },
    {
        "deltaTime": 12,
        "running": true,
        "channel": 9,
        "type": "noteOff",
        "noteNumber": 44,
        "velocity": 0,
        "byte9": true
    },
    {
        "deltaTime": 0,
        "running": true,
        "channel": 9,
        "type": "noteOff",
        "noteNumber": 69,
        "velocity": 0,
        "byte9": true
    },
    {
        "deltaTime": 13,
        "channel": 14,
        "type": "noteOn",
        "noteNumber": 61,
        "velocity": 111
    },
    {
        "deltaTime": 0,
        "running": true,
        "channel": 14,
        "type": "noteOn",
        "noteNumber": 64,
        "velocity": 107
    },
    {
        "deltaTime": 0,
        "running": true,
        "channel": 14,
        "type": "noteOn",
        "noteNumber": 69,
        "velocity": 105
    },
    {
        "deltaTime": 132,
        "channel": 5,
        "type": "noteOff",
        "noteNumber": 81,
        "velocity": 0,
        "byte9": true
    },
    {
        "deltaTime": 4,
        "channel": 7,
        "type": "noteOff",
        "noteNumber": 81,
        "velocity": 0,
        "byte9": true
    },
    {
        "deltaTime": 3,
        "channel": 5,
        "type": "noteOff",
        "noteNumber": 76,
        "velocity": 0,
        "byte9": true
    },
    {
        "deltaTime": 4,
        "running": true,
        "channel": 5,
        "type": "noteOff",
        "noteNumber": 73,
        "velocity": 0,
        "byte9": true
    },
    {
        "deltaTime": 14,
        "channel": 14,
        "type": "noteOff",
        "noteNumber": 69,
        "velocity": 0,
        "byte9": true
    },
    {
        "deltaTime": 7,
        "running": true,
        "channel": 14,
        "type": "noteOff",
        "noteNumber": 64,
        "velocity": 0,
        "byte9": true
    },
    {
        "deltaTime": 4,
        "running": true,
        "channel": 14,
        "type": "noteOff",
        "noteNumber": 61,
        "velocity": 0,
        "byte9": true
    },
    {
        "deltaTime": 68,
        "channel": 1,
        "type": "noteOff",
        "noteNumber": 33,
        "velocity": 0,
        "byte9": true
    },
    {
        "deltaTime": 0,
        "channel": 8,
        "type": "noteOff",
        "noteNumber": 33,
        "velocity": 0,
        "byte9": true
    },
    {
        "deltaTime": 59,
        "channel": 1,
        "type": "noteOn",
        "noteNumber": 33,
        "velocity": 99
    },
    {
        "deltaTime": 0,
        "channel": 8,
        "type": "noteOn",
        "noteNumber": 33,
        "velocity": 99
    },
    {
        "deltaTime": 0,
        "channel": 9,
        "type": "noteOn",
        "noteNumber": 35,
        "velocity": 107
    },
    {
        "deltaTime": 0,
        "channel": 11,
        "type": "noteOn",
        "noteNumber": 41,
        "velocity": 107
    },
    {
        "deltaTime": 12,
        "channel": 9,
        "type": "noteOff",
        "noteNumber": 35,
        "velocity": 0,
        "byte9": true
    },
    {
        "deltaTime": 148,
        "channel": 5,
        "type": "noteOn",
        "noteNumber": 73,
        "velocity": 105
    },
    {
        "deltaTime": 0,
        "running": true,
        "channel": 5,
        "type": "noteOn",
        "noteNumber": 76,
        "velocity": 94
    },
    {
        "deltaTime": 0,
        "running": true,
        "channel": 5,
        "type": "noteOn",
        "noteNumber": 81,
        "velocity": 94
    },
    {
        "deltaTime": 0,
        "channel": 9,
        "type": "noteOn",
        "noteNumber": 35,
        "velocity": 114
    },
    {
        "deltaTime": 0,
        "channel": 11,
        "type": "noteOn",
        "noteNumber": 41,
        "velocity": 114
    },
    {
        "deltaTime": 1,
        "running": true,
        "channel": 11,
        "type": "noteOff",
        "noteNumber": 41,
        "velocity": 0,
        "byte9": true
    },
    {
        "deltaTime": 11,
        "channel": 9,
        "type": "noteOff",
        "noteNumber": 35,
        "velocity": 0,
        "byte9": true
    },
    {
        "deltaTime": 13,
        "channel": 14,
        "type": "noteOn",
        "noteNumber": 61,
        "velocity": 105
    },
    {
        "deltaTime": 0,
        "running": true,
        "channel": 14,
        "type": "noteOn",
        "noteNumber": 64,
        "velocity": 94
    },
    {
        "deltaTime": 0,
        "running": true,
        "channel": 14,
        "type": "noteOn",
        "noteNumber": 69,
        "velocity": 94
    },
    {
        "deltaTime": 130,
        "channel": 5,
        "type": "noteOff",
        "noteNumber": 81,
        "velocity": 0,
        "byte9": true
    },
    {
        "deltaTime": 6,
        "channel": 11,
        "type": "noteOff",
        "noteNumber": 41,
        "velocity": 0,
        "byte9": true
    },
    {
        "deltaTime": 2,
        "channel": 5,
        "type": "noteOff",
        "noteNumber": 73,
        "velocity": 0,
        "byte9": true
    },
    {
        "deltaTime": 4,
        "running": true,
        "channel": 5,
        "type": "noteOff",
        "noteNumber": 76,
        "velocity": 0,
        "byte9": true
    },
    {
        "deltaTime": 13,
        "channel": 14,
        "type": "noteOff",
        "noteNumber": 69,
        "velocity": 0,
        "byte9": true
    },
    {
        "deltaTime": 8,
        "running": true,
        "channel": 14,
        "type": "noteOff",
        "noteNumber": 61,
        "velocity": 0,
        "byte9": true
    },
    {
        "deltaTime": 4,
        "running": true,
        "channel": 14,
        "type": "noteOff",
        "noteNumber": 64,
        "velocity": 0,
        "byte9": true
    },
    {
        "deltaTime": 128,
        "channel": 9,
        "type": "noteOn",
        "noteNumber": 70,
        "velocity": 65
    },
    {
        "deltaTime": 12,
        "running": true,
        "channel": 9,
        "type": "noteOff",
        "noteNumber": 70,
        "velocity": 0,
        "byte9": true
    },
    {
        "deltaTime": 123,
        "channel": 3,
        "type": "noteOff",
        "noteNumber": 73,
        "velocity": 0,
        "byte9": true
    },
    {
        "deltaTime": 25,
        "channel": 5,
        "type": "noteOn",
        "noteNumber": 73,
        "velocity": 109
    },
    {
        "deltaTime": 0,
        "running": true,
        "channel": 5,
        "type": "noteOn",
        "noteNumber": 76,
        "velocity": 94
    },
    {
        "deltaTime": 0,
        "running": true,
        "channel": 5,
        "type": "noteOn",
        "noteNumber": 81,
        "velocity": 94
    },
    {
        "deltaTime": 0,
        "channel": 9,
        "type": "noteOn",
        "noteNumber": 44,
        "velocity": 107
    },
    {
        "deltaTime": 0,
        "running": true,
        "channel": 9,
        "type": "noteOn",
        "noteNumber": 54,
        "velocity": 109
    },
    {
        "deltaTime": 12,
        "running": true,
        "channel": 9,
        "type": "noteOff",
        "noteNumber": 44,
        "velocity": 0,
        "byte9": true
    },
    {
        "deltaTime": 0,
        "running": true,
        "channel": 9,
        "type": "noteOff",
        "noteNumber": 54,
        "velocity": 0,
        "byte9": true
    },
    {
        "deltaTime": 13,
        "channel": 14,
        "type": "noteOn",
        "noteNumber": 61,
        "velocity": 109
    },
    {
        "deltaTime": 0,
        "running": true,
        "channel": 14,
        "type": "noteOn",
        "noteNumber": 64,
        "velocity": 94
    },
    {
        "deltaTime": 0,
        "running": true,
        "channel": 14,
        "type": "noteOn",
        "noteNumber": 69,
        "velocity": 94
    },
    {
        "deltaTime": 76,
        "channel": 1,
        "type": "noteOff",
        "noteNumber": 33,
        "velocity": 0,
        "byte9": true
    },
    {
        "deltaTime": 0,
        "channel": 8,
        "type": "noteOff",
        "noteNumber": 33,
        "velocity": 0,
        "byte9": true
    },
    {
        "deltaTime": 40,
        "channel": 5,
        "type": "noteOff",
        "noteNumber": 81,
        "velocity": 0,
        "byte9": true
    },
    {
        "deltaTime": 13,
        "running": true,
        "channel": 5,
        "type": "noteOff",
        "noteNumber": 73,
        "velocity": 0,
        "byte9": true
    },
    {
        "deltaTime": 0,
        "running": true,
        "channel": 5,
        "type": "noteOff",
        "noteNumber": 76,
        "velocity": 0,
        "byte9": true
    },
    {
        "deltaTime": 12,
        "channel": 14,
        "type": "noteOff",
        "noteNumber": 69,
        "velocity": 0,
        "byte9": true
    },
    {
        "deltaTime": 13,
        "running": true,
        "channel": 14,
        "type": "noteOff",
        "noteNumber": 61,
        "velocity": 0,
        "byte9": true
    },
    {
        "deltaTime": 0,
        "running": true,
        "channel": 14,
        "type": "noteOff",
        "noteNumber": 64,
        "velocity": 0,
        "byte9": true
    },
    {
        "deltaTime": 141,
        "channel": 1,
        "type": "noteOn",
        "noteNumber": 33,
        "velocity": 99
    },
    {
        "deltaTime": 0,
        "channel": 8,
        "type": "noteOn",
        "noteNumber": 33,
        "velocity": 99
    },
    {
        "deltaTime": 160,
        "channel": 5,
        "type": "noteOn",
        "noteNumber": 73,
        "velocity": 109
    },
    {
        "deltaTime": 0,
        "running": true,
        "channel": 5,
        "type": "noteOn",
        "noteNumber": 76,
        "velocity": 94
    },
    {
        "deltaTime": 0,
        "running": true,
        "channel": 5,
        "type": "noteOn",
        "noteNumber": 81,
        "velocity": 101
    },
    {
        "deltaTime": 0,
        "channel": 7,
        "type": "noteOn",
        "noteNumber": 81,
        "velocity": 119
    },
    {
        "deltaTime": 0,
        "channel": 9,
        "type": "noteOn",
        "noteNumber": 35,
        "velocity": 114
    },
    {
        "deltaTime": 0,
        "channel": 11,
        "type": "noteOn",
        "noteNumber": 41,
        "velocity": 114
    },
    {
        "deltaTime": 12,
        "channel": 9,
        "type": "noteOff",
        "noteNumber": 35,
        "velocity": 0,
        "byte9": true
    },
    {
        "deltaTime": 13,
        "channel": 14,
        "type": "noteOn",
        "noteNumber": 61,
        "velocity": 109
    },
    {
        "deltaTime": 0,
        "running": true,
        "channel": 14,
        "type": "noteOn",
        "noteNumber": 64,
        "velocity": 94
    },
    {
        "deltaTime": 0,
        "running": true,
        "channel": 14,
        "type": "noteOn",
        "noteNumber": 69,
        "velocity": 101
    },
    {
        "deltaTime": 130,
        "channel": 5,
        "type": "noteOff",
        "noteNumber": 81,
        "velocity": 0,
        "byte9": true
    },
    {
        "deltaTime": 6,
        "channel": 11,
        "type": "noteOff",
        "noteNumber": 41,
        "velocity": 0,
        "byte9": true
    },
    {
        "deltaTime": 10,
        "channel": 5,
        "type": "noteOff",
        "noteNumber": 73,
        "velocity": 0,
        "byte9": true
    },
    {
        "deltaTime": 0,
        "running": true,
        "channel": 5,
        "type": "noteOff",
        "noteNumber": 76,
        "velocity": 0,
        "byte9": true
    },
    {
        "deltaTime": 9,
        "channel": 14,
        "type": "noteOff",
        "noteNumber": 69,
        "velocity": 0,
        "byte9": true
    },
    {
        "deltaTime": 16,
        "running": true,
        "channel": 14,
        "type": "noteOff",
        "noteNumber": 61,
        "velocity": 0,
        "byte9": true
    },
    {
        "deltaTime": 0,
        "running": true,
        "channel": 14,
        "type": "noteOff",
        "noteNumber": 64,
        "velocity": 0,
        "byte9": true
    },
    {
        "deltaTime": 280,
        "channel": 7,
        "type": "noteOff",
        "noteNumber": 81,
        "velocity": 0,
        "byte9": true
    },
    {
        "deltaTime": 4,
        "channel": 5,
        "type": "noteOn",
        "noteNumber": 73,
        "velocity": 108
    },
    {
        "deltaTime": 0,
        "running": true,
        "channel": 5,
        "type": "noteOn",
        "noteNumber": 76,
        "velocity": 97
    },
    {
        "deltaTime": 0,
        "running": true,
        "channel": 5,
        "type": "noteOn",
        "noteNumber": 81,
        "velocity": 98
    },
    {
        "deltaTime": 0,
        "channel": 7,
        "type": "noteOn",
        "noteNumber": 79,
        "velocity": 119
    },
    {
        "deltaTime": 0,
        "channel": 9,
        "type": "noteOn",
        "noteNumber": 44,
        "velocity": 107
    },
    {
        "deltaTime": 0,
        "running": true,
        "channel": 9,
        "type": "noteOn",
        "noteNumber": 69,
        "velocity": 109
    },
    {
        "deltaTime": 12,
        "running": true,
        "channel": 9,
        "type": "noteOff",
        "noteNumber": 44,
        "velocity": 0,
        "byte9": true
    },
    {
        "deltaTime": 0,
        "running": true,
        "channel": 9,
        "type": "noteOff",
        "noteNumber": 69,
        "velocity": 0,
        "byte9": true
    },
    {
        "deltaTime": 13,
        "channel": 14,
        "type": "noteOn",
        "noteNumber": 61,
        "velocity": 108
    },
    {
        "deltaTime": 0,
        "running": true,
        "channel": 14,
        "type": "noteOn",
        "noteNumber": 64,
        "velocity": 97
    },
    {
        "deltaTime": 0,
        "running": true,
        "channel": 14,
        "type": "noteOn",
        "noteNumber": 69,
        "velocity": 98
    },
    {
        "deltaTime": 76,
        "channel": 1,
        "type": "noteOff",
        "noteNumber": 33,
        "velocity": 0,
        "byte9": true
    },
    {
        "deltaTime": 0,
        "channel": 8,
        "type": "noteOff",
        "noteNumber": 33,
        "velocity": 0,
        "byte9": true
    },
    {
        "deltaTime": 45,
        "channel": 5,
        "type": "noteOff",
        "noteNumber": 81,
        "velocity": 0,
        "byte9": true
    },
    {
        "deltaTime": 12,
        "running": true,
        "channel": 5,
        "type": "noteOff",
        "noteNumber": 73,
        "velocity": 0,
        "byte9": true
    },
    {
        "deltaTime": 5,
        "running": true,
        "channel": 5,
        "type": "noteOff",
        "noteNumber": 76,
        "velocity": 0,
        "byte9": true
    },
    {
        "deltaTime": 8,
        "channel": 14,
        "type": "noteOff",
        "noteNumber": 69,
        "velocity": 0,
        "byte9": true
    },
    {
        "deltaTime": 12,
        "running": true,
        "channel": 14,
        "type": "noteOff",
        "noteNumber": 61,
        "velocity": 0,
        "byte9": true
    },
    {
        "deltaTime": 5,
        "running": true,
        "channel": 14,
        "type": "noteOff",
        "noteNumber": 64,
        "velocity": 0,
        "byte9": true
    },
    {
        "deltaTime": 132,
        "channel": 1,
        "type": "noteOn",
        "noteNumber": 33,
        "velocity": 99
    },
    {
        "deltaTime": 0,
        "channel": 8,
        "type": "noteOn",
        "noteNumber": 33,
        "velocity": 99
    },
    {
        "deltaTime": 0,
        "channel": 9,
        "type": "noteOn",
        "noteNumber": 35,
        "velocity": 114
    },
    {
        "deltaTime": 0,
        "channel": 11,
        "type": "noteOn",
        "noteNumber": 41,
        "velocity": 114
    },
    {
        "deltaTime": 12,
        "channel": 9,
        "type": "noteOff",
        "noteNumber": 35,
        "velocity": 0,
        "byte9": true
    },
    {
        "deltaTime": 144,
        "channel": 7,
        "type": "noteOff",
        "noteNumber": 79,
        "velocity": 0,
        "byte9": true
    },
    {
        "deltaTime": 4,
        "channel": 5,
        "type": "noteOn",
        "noteNumber": 73,
        "velocity": 105
    },
    {
        "deltaTime": 0,
        "running": true,
        "channel": 5,
        "type": "noteOn",
        "noteNumber": 76,
        "velocity": 89
    },
    {
        "deltaTime": 0,
        "running": true,
        "channel": 5,
        "type": "noteOn",
        "noteNumber": 81,
        "velocity": 94
    },
    {
        "deltaTime": 0,
        "channel": 7,
        "type": "noteOn",
        "noteNumber": 77,
        "velocity": 119
    },
    {
        "deltaTime": 1,
        "channel": 11,
        "type": "noteOff",
        "noteNumber": 41,
        "velocity": 0,
        "byte9": true
    },
    {
        "deltaTime": 24,
        "channel": 14,
        "type": "noteOn",
        "noteNumber": 61,
        "velocity": 105
    },
    {
        "deltaTime": 0,
        "running": true,
        "channel": 14,
        "type": "noteOn",
        "noteNumber": 64,
        "velocity": 89
    },
    {
        "deltaTime": 0,
        "running": true,
        "channel": 14,
        "type": "noteOn",
        "noteNumber": 69,
        "velocity": 94
    },
    {
        "deltaTime": 121,
        "channel": 5,
        "type": "noteOff",
        "noteNumber": 81,
        "velocity": 0,
        "byte9": true
    },
    {
        "deltaTime": 22,
        "running": true,
        "channel": 5,
        "type": "noteOff",
        "noteNumber": 73,
        "velocity": 0,
        "byte9": true
    },
    {
        "deltaTime": 0,
        "running": true,
        "channel": 5,
        "type": "noteOff",
        "noteNumber": 76,
        "velocity": 0,
        "byte9": true
    },
    {
        "deltaTime": 3,
        "channel": 14,
        "type": "noteOff",
        "noteNumber": 69,
        "velocity": 0,
        "byte9": true
    },
    {
        "deltaTime": 22,
        "running": true,
        "channel": 14,
        "type": "noteOff",
        "noteNumber": 61,
        "velocity": 0,
        "byte9": true
    },
    {
        "deltaTime": 0,
        "running": true,
        "channel": 14,
        "type": "noteOff",
        "noteNumber": 64,
        "velocity": 0,
        "byte9": true
    },
    {
        "deltaTime": 123,
        "channel": 1,
        "type": "noteOff",
        "noteNumber": 33,
        "velocity": 0,
        "byte9": true
    },
    {
        "deltaTime": 0,
        "channel": 8,
        "type": "noteOff",
        "noteNumber": 33,
        "velocity": 0,
        "byte9": true
    },
    {
        "deltaTime": 4,
        "channel": 1,
        "type": "noteOn",
        "noteNumber": 36,
        "velocity": 99
    },
    {
        "deltaTime": 0,
        "channel": 8,
        "type": "noteOn",
        "noteNumber": 36,
        "velocity": 99
    },
    {
        "deltaTime": 0,
        "channel": 9,
        "type": "noteOn",
        "noteNumber": 35,
        "velocity": 114
    },
    {
        "deltaTime": 0,
        "running": true,
        "channel": 9,
        "type": "noteOn",
        "noteNumber": 70,
        "velocity": 65
    },
    {
        "deltaTime": 0,
        "channel": 11,
        "type": "noteOn",
        "noteNumber": 41,
        "velocity": 114
    },
    {
        "deltaTime": 12,
        "channel": 9,
        "type": "noteOff",
        "noteNumber": 35,
        "velocity": 0,
        "byte9": true
    },
    {
        "deltaTime": 0,
        "running": true,
        "channel": 9,
        "type": "noteOff",
        "noteNumber": 70,
        "velocity": 0,
        "byte9": true
    },
    {
        "deltaTime": 144,
        "channel": 7,
        "type": "noteOff",
        "noteNumber": 77,
        "velocity": 0,
        "byte9": true
    },
    {
        "deltaTime": 4,
        "channel": 5,
        "type": "noteOn",
        "noteNumber": 73,
        "velocity": 109
    },
    {
        "deltaTime": 0,
        "running": true,
        "channel": 5,
        "type": "noteOn",
        "noteNumber": 76,
        "velocity": 97
    },
    {
        "deltaTime": 0,
        "running": true,
        "channel": 5,
        "type": "noteOn",
        "noteNumber": 81,
        "velocity": 110
    },
    {
        "deltaTime": 0,
        "channel": 7,
        "type": "noteOn",
        "noteNumber": 76,
        "velocity": 119
    },
    {
        "deltaTime": 0,
        "channel": 9,
        "type": "noteOn",
        "noteNumber": 44,
        "velocity": 107
    },
    {
        "deltaTime": 0,
        "running": true,
        "channel": 9,
        "type": "noteOn",
        "noteNumber": 54,
        "velocity": 109
    },
    {
        "deltaTime": 1,
        "channel": 11,
        "type": "noteOff",
        "noteNumber": 41,
        "velocity": 0,
        "byte9": true
    },
    {
        "deltaTime": 11,
        "channel": 9,
        "type": "noteOff",
        "noteNumber": 44,
        "velocity": 0,
        "byte9": true
    },
    {
        "deltaTime": 0,
        "running": true,
        "channel": 9,
        "type": "noteOff",
        "noteNumber": 54,
        "velocity": 0,
        "byte9": true
    },
    {
        "deltaTime": 13,
        "channel": 14,
        "type": "noteOn",
        "noteNumber": 61,
        "velocity": 109
    },
    {
        "deltaTime": 0,
        "running": true,
        "channel": 14,
        "type": "noteOn",
        "noteNumber": 64,
        "velocity": 97
    },
    {
        "deltaTime": 0,
        "running": true,
        "channel": 14,
        "type": "noteOn",
        "noteNumber": 69,
        "velocity": 110
    },
    {
        "deltaTime": 124,
        "channel": 5,
        "type": "noteOff",
        "noteNumber": 81,
        "velocity": 0,
        "byte9": true
    },
    {
        "deltaTime": 9,
        "running": true,
        "channel": 5,
        "type": "noteOff",
        "noteNumber": 73,
        "velocity": 0,
        "byte9": true
    },
    {
        "deltaTime": 3,
        "running": true,
        "channel": 5,
        "type": "noteOff",
        "noteNumber": 76,
        "velocity": 0,
        "byte9": true
    },
    {
        "deltaTime": 13,
        "channel": 14,
        "type": "noteOff",
        "noteNumber": 69,
        "velocity": 0,
        "byte9": true
    },
    {
        "deltaTime": 9,
        "running": true,
        "channel": 14,
        "type": "noteOff",
        "noteNumber": 61,
        "velocity": 0,
        "byte9": true
    },
    {
        "deltaTime": 3,
        "running": true,
        "channel": 14,
        "type": "noteOff",
        "noteNumber": 64,
        "velocity": 0,
        "byte9": true
    },
    {
        "deltaTime": 0,
        "channel": 3,
        "type": "noteOn",
        "noteNumber": 74,
        "velocity": 116
    },
    {
        "deltaTime": 31,
        "channel": 1,
        "type": "noteOff",
        "noteNumber": 36,
        "velocity": 0,
        "byte9": true
    },
    {
        "deltaTime": 0,
        "channel": 8,
        "type": "noteOff",
        "noteNumber": 36,
        "velocity": 0,
        "byte9": true
    },
    {
        "deltaTime": 4,
        "channel": 1,
        "type": "noteOn",
        "noteNumber": 37,
        "velocity": 99
    },
    {
        "deltaTime": 0,
        "channel": 8,
        "type": "noteOn",
        "noteNumber": 37,
        "velocity": 99
    },
    {
        "deltaTime": 156,
        "channel": 1,
        "type": "noteOff",
        "noteNumber": 37,
        "velocity": 0,
        "byte9": true
    },
    {
        "deltaTime": 0,
        "channel": 7,
        "type": "noteOff",
        "noteNumber": 76,
        "velocity": 0,
        "byte9": true
    },
    {
        "deltaTime": 0,
        "channel": 8,
        "type": "noteOff",
        "noteNumber": 37,
        "velocity": 0,
        "byte9": true
    },
    {
        "deltaTime": 4,
        "channel": 1,
        "type": "noteOn",
        "noteNumber": 38,
        "velocity": 99
    },
    {
        "deltaTime": 0,
        "channel": 5,
        "type": "noteOn",
        "noteNumber": 74,
        "velocity": 101
    },
    {
        "deltaTime": 0,
        "running": true,
        "channel": 5,
        "type": "noteOn",
        "noteNumber": 77,
        "velocity": 97
    },
    {
        "deltaTime": 0,
        "running": true,
        "channel": 5,
        "type": "noteOn",
        "noteNumber": 81,
        "velocity": 105
    },
    {
        "deltaTime": 0,
        "channel": 7,
        "type": "noteOn",
        "noteNumber": 74,
        "velocity": 119
    },
    {
        "deltaTime": 0,
        "channel": 8,
        "type": "noteOn",
        "noteNumber": 38,
        "velocity": 99
    },
    {
        "deltaTime": 0,
        "channel": 9,
        "type": "noteOn",
        "noteNumber": 35,
        "velocity": 114
    },
    {
        "deltaTime": 0,
        "channel": 11,
        "type": "noteOn",
        "noteNumber": 41,
        "velocity": 114
    },
    {
        "deltaTime": 12,
        "channel": 9,
        "type": "noteOff",
        "noteNumber": 35,
        "velocity": 0,
        "byte9": true
    },
    {
        "deltaTime": 13,
        "channel": 14,
        "type": "noteOn",
        "noteNumber": 62,
        "velocity": 101
    },
    {
        "deltaTime": 0,
        "running": true,
        "channel": 14,
        "type": "noteOn",
        "noteNumber": 65,
        "velocity": 97
    },
    {
        "deltaTime": 0,
        "running": true,
        "channel": 14,
        "type": "noteOn",
        "noteNumber": 69,
        "velocity": 105
    },
    {
        "deltaTime": 48,
        "channel": 5,
        "type": "noteOff",
        "noteNumber": 81,
        "velocity": 0,
        "byte9": true
    },
    {
        "deltaTime": 25,
        "channel": 14,
        "type": "noteOff",
        "noteNumber": 69,
        "velocity": 0,
        "byte9": true
    },
    {
        "deltaTime": 23,
        "channel": 5,
        "type": "noteOff",
        "noteNumber": 77,
        "velocity": 0,
        "byte9": true
    },
    {
        "deltaTime": 2,
        "running": true,
        "channel": 5,
        "type": "noteOff",
        "noteNumber": 74,
        "velocity": 0,
        "byte9": true
    },
    {
        "deltaTime": 23,
        "channel": 14,
        "type": "noteOff",
        "noteNumber": 65,
        "velocity": 0,
        "byte9": true
    },
    {
        "deltaTime": 2,
        "running": true,
        "channel": 14,
        "type": "noteOff",
        "noteNumber": 62,
        "velocity": 0,
        "byte9": true
    },
    {
        "deltaTime": 13,
        "channel": 11,
        "type": "noteOff",
        "noteNumber": 41,
        "velocity": 0,
        "byte9": true
    },
    {
        "deltaTime": 315,
        "channel": 7,
        "type": "noteOff",
        "noteNumber": 74,
        "velocity": 0,
        "byte9": true
    },
    {
        "deltaTime": 4,
        "channel": 5,
        "type": "noteOn",
        "noteNumber": 74,
        "velocity": 111
    },
    {
        "deltaTime": 0,
        "running": true,
        "channel": 5,
        "type": "noteOn",
        "noteNumber": 77,
        "velocity": 107
    },
    {
        "deltaTime": 0,
        "running": true,
        "channel": 5,
        "type": "noteOn",
        "noteNumber": 81,
        "velocity": 105
    },
    {
        "deltaTime": 0,
        "channel": 9,
        "type": "noteOn",
        "noteNumber": 44,
        "velocity": 107
    },
    {
        "deltaTime": 0,
        "running": true,
        "channel": 9,
        "type": "noteOn",
        "noteNumber": 69,
        "velocity": 109
    },
    {
        "deltaTime": 12,
        "running": true,
        "channel": 9,
        "type": "noteOff",
        "noteNumber": 44,
        "velocity": 0,
        "byte9": true
    },
    {
        "deltaTime": 0,
        "running": true,
        "channel": 9,
        "type": "noteOff",
        "noteNumber": 69,
        "velocity": 0,
        "byte9": true
    },
    {
        "deltaTime": 13,
        "channel": 14,
        "type": "noteOn",
        "noteNumber": 62,
        "velocity": 111
    },
    {
        "deltaTime": 0,
        "running": true,
        "channel": 14,
        "type": "noteOn",
        "noteNumber": 65,
        "velocity": 107
    },
    {
        "deltaTime": 0,
        "running": true,
        "channel": 14,
        "type": "noteOn",
        "noteNumber": 69,
        "velocity": 105
    },
    {
        "deltaTime": 132,
        "channel": 5,
        "type": "noteOff",
        "noteNumber": 81,
        "velocity": 0,
        "byte9": true
    },
    {
        "deltaTime": 7,
        "running": true,
        "channel": 5,
        "type": "noteOff",
        "noteNumber": 77,
        "velocity": 0,
        "byte9": true
    },
    {
        "deltaTime": 4,
        "running": true,
        "channel": 5,
        "type": "noteOff",
        "noteNumber": 74,
        "velocity": 0,
        "byte9": true
    },
    {
        "deltaTime": 14,
        "channel": 14,
        "type": "noteOff",
        "noteNumber": 69,
        "velocity": 0,
        "byte9": true
    },
    {
        "deltaTime": 7,
        "running": true,
        "channel": 14,
        "type": "noteOff",
        "noteNumber": 65,
        "velocity": 0,
        "byte9": true
    },
    {
        "deltaTime": 4,
        "running": true,
        "channel": 14,
        "type": "noteOff",
        "noteNumber": 62,
        "velocity": 0,
        "byte9": true
    },
    {
        "deltaTime": 48,
        "channel": 1,
        "type": "noteOff",
        "noteNumber": 38,
        "velocity": 0,
        "byte9": true
    },
    {
        "deltaTime": 0,
        "channel": 8,
        "type": "noteOff",
        "noteNumber": 38,
        "velocity": 0,
        "byte9": true
    },
    {
        "deltaTime": 79,
        "channel": 1,
        "type": "noteOn",
        "noteNumber": 38,
        "velocity": 99
    },
    {
        "deltaTime": 0,
        "channel": 8,
        "type": "noteOn",
        "noteNumber": 38,
        "velocity": 99
    },
    {
        "deltaTime": 0,
        "channel": 9,
        "type": "noteOn",
        "noteNumber": 35,
        "velocity": 107
    },
    {
        "deltaTime": 0,
        "channel": 11,
        "type": "noteOn",
        "noteNumber": 41,
        "velocity": 107
    },
    {
        "deltaTime": 12,
        "channel": 9,
        "type": "noteOff",
        "noteNumber": 35,
        "velocity": 0,
        "byte9": true
    },
    {
        "deltaTime": 148,
        "channel": 5,
        "type": "noteOn",
        "noteNumber": 74,
        "velocity": 105
    },
    {
        "deltaTime": 0,
        "running": true,
        "channel": 5,
        "type": "noteOn",
        "noteNumber": 77,
        "velocity": 94
    },
    {
        "deltaTime": 0,
        "running": true,
        "channel": 5,
        "type": "noteOn",
        "noteNumber": 81,
        "velocity": 94
    },
    {
        "deltaTime": 0,
        "channel": 9,
        "type": "noteOn",
        "noteNumber": 35,
        "velocity": 114
    },
    {
        "deltaTime": 0,
        "channel": 11,
        "type": "noteOn",
        "noteNumber": 41,
        "velocity": 114
    },
    {
        "deltaTime": 1,
        "running": true,
        "channel": 11,
        "type": "noteOff",
        "noteNumber": 41,
        "velocity": 0,
        "byte9": true
    },
    {
        "deltaTime": 11,
        "channel": 9,
        "type": "noteOff",
        "noteNumber": 35,
        "velocity": 0,
        "byte9": true
    },
    {
        "deltaTime": 13,
        "channel": 14,
        "type": "noteOn",
        "noteNumber": 62,
        "velocity": 105
    },
    {
        "deltaTime": 0,
        "running": true,
        "channel": 14,
        "type": "noteOn",
        "noteNumber": 65,
        "velocity": 94
    },
    {
        "deltaTime": 0,
        "running": true,
        "channel": 14,
        "type": "noteOn",
        "noteNumber": 69,
        "velocity": 94
    },
    {
        "deltaTime": 130,
        "channel": 5,
        "type": "noteOff",
        "noteNumber": 81,
        "velocity": 0,
        "byte9": true
    },
    {
        "deltaTime": 6,
        "channel": 11,
        "type": "noteOff",
        "noteNumber": 41,
        "velocity": 0,
        "byte9": true
    },
    {
        "deltaTime": 2,
        "channel": 5,
        "type": "noteOff",
        "noteNumber": 74,
        "velocity": 0,
        "byte9": true
    },
    {
        "deltaTime": 4,
        "running": true,
        "channel": 5,
        "type": "noteOff",
        "noteNumber": 77,
        "velocity": 0,
        "byte9": true
    },
    {
        "deltaTime": 13,
        "channel": 14,
        "type": "noteOff",
        "noteNumber": 69,
        "velocity": 0,
        "byte9": true
    },
    {
        "deltaTime": 8,
        "running": true,
        "channel": 14,
        "type": "noteOff",
        "noteNumber": 62,
        "velocity": 0,
        "byte9": true
    },
    {
        "deltaTime": 4,
        "running": true,
        "channel": 14,
        "type": "noteOff",
        "noteNumber": 65,
        "velocity": 0,
        "byte9": true
    },
    {
        "deltaTime": 128,
        "channel": 9,
        "type": "noteOn",
        "noteNumber": 70,
        "velocity": 65
    },
    {
        "deltaTime": 12,
        "running": true,
        "channel": 9,
        "type": "noteOff",
        "noteNumber": 70,
        "velocity": 0,
        "byte9": true
    },
    {
        "deltaTime": 63,
        "channel": 3,
        "type": "noteOff",
        "noteNumber": 74,
        "velocity": 0,
        "byte9": true
    },
    {
        "deltaTime": 85,
        "channel": 5,
        "type": "noteOn",
        "noteNumber": 74,
        "velocity": 109
    },
    {
        "deltaTime": 0,
        "running": true,
        "channel": 5,
        "type": "noteOn",
        "noteNumber": 77,
        "velocity": 94
    },
    {
        "deltaTime": 0,
        "running": true,
        "channel": 5,
        "type": "noteOn",
        "noteNumber": 81,
        "velocity": 94
    },
    {
        "deltaTime": 0,
        "channel": 9,
        "type": "noteOn",
        "noteNumber": 44,
        "velocity": 107
    },
    {
        "deltaTime": 0,
        "running": true,
        "channel": 9,
        "type": "noteOn",
        "noteNumber": 54,
        "velocity": 109
    },
    {
        "deltaTime": 12,
        "running": true,
        "channel": 9,
        "type": "noteOff",
        "noteNumber": 44,
        "velocity": 0,
        "byte9": true
    },
    {
        "deltaTime": 0,
        "running": true,
        "channel": 9,
        "type": "noteOff",
        "noteNumber": 54,
        "velocity": 0,
        "byte9": true
    },
    {
        "deltaTime": 13,
        "channel": 14,
        "type": "noteOn",
        "noteNumber": 62,
        "velocity": 109
    },
    {
        "deltaTime": 0,
        "running": true,
        "channel": 14,
        "type": "noteOn",
        "noteNumber": 65,
        "velocity": 94
    },
    {
        "deltaTime": 0,
        "running": true,
        "channel": 14,
        "type": "noteOn",
        "noteNumber": 69,
        "velocity": 94
    },
    {
        "deltaTime": 116,
        "channel": 5,
        "type": "noteOff",
        "noteNumber": 81,
        "velocity": 0,
        "byte9": true
    },
    {
        "deltaTime": 13,
        "running": true,
        "channel": 5,
        "type": "noteOff",
        "noteNumber": 74,
        "velocity": 0,
        "byte9": true
    },
    {
        "deltaTime": 0,
        "running": true,
        "channel": 5,
        "type": "noteOff",
        "noteNumber": 77,
        "velocity": 0,
        "byte9": true
    },
    {
        "deltaTime": 7,
        "channel": 1,
        "type": "noteOff",
        "noteNumber": 38,
        "velocity": 0,
        "byte9": true
    },
    {
        "deltaTime": 0,
        "channel": 8,
        "type": "noteOff",
        "noteNumber": 38,
        "velocity": 0,
        "byte9": true
    },
    {
        "deltaTime": 5,
        "channel": 14,
        "type": "noteOff",
        "noteNumber": 69,
        "velocity": 0,
        "byte9": true
    },
    {
        "deltaTime": 13,
        "running": true,
        "channel": 14,
        "type": "noteOff",
        "noteNumber": 62,
        "velocity": 0,
        "byte9": true
    },
    {
        "deltaTime": 0,
        "running": true,
        "channel": 14,
        "type": "noteOff",
        "noteNumber": 65,
        "velocity": 0,
        "byte9": true
    },
    {
        "deltaTime": 141,
        "channel": 1,
        "type": "noteOn",
        "noteNumber": 38,
        "velocity": 99
    },
    {
        "deltaTime": 0,
        "channel": 8,
        "type": "noteOn",
        "noteNumber": 38,
        "velocity": 99
    },
    {
        "deltaTime": 160,
        "channel": 5,
        "type": "noteOn",
        "noteNumber": 74,
        "velocity": 109
    },
    {
        "deltaTime": 0,
        "running": true,
        "channel": 5,
        "type": "noteOn",
        "noteNumber": 77,
        "velocity": 94
    },
    {
        "deltaTime": 0,
        "running": true,
        "channel": 5,
        "type": "noteOn",
        "noteNumber": 81,
        "velocity": 101
    },
    {
        "deltaTime": 0,
        "channel": 9,
        "type": "noteOn",
        "noteNumber": 35,
        "velocity": 114
    },
    {
        "deltaTime": 0,
        "channel": 11,
        "type": "noteOn",
        "noteNumber": 41,
        "velocity": 114
    },
    {
        "deltaTime": 12,
        "channel": 9,
        "type": "noteOff",
        "noteNumber": 35,
        "velocity": 0,
        "byte9": true
    },
    {
        "deltaTime": 13,
        "channel": 14,
        "type": "noteOn",
        "noteNumber": 62,
        "velocity": 109
    },
    {
        "deltaTime": 0,
        "running": true,
        "channel": 14,
        "type": "noteOn",
        "noteNumber": 65,
        "velocity": 94
    },
    {
        "deltaTime": 0,
        "running": true,
        "channel": 14,
        "type": "noteOn",
        "noteNumber": 69,
        "velocity": 101
    },
    {
        "deltaTime": 130,
        "channel": 5,
        "type": "noteOff",
        "noteNumber": 81,
        "velocity": 0,
        "byte9": true
    },
    {
        "deltaTime": 6,
        "channel": 11,
        "type": "noteOff",
        "noteNumber": 41,
        "velocity": 0,
        "byte9": true
    },
    {
        "deltaTime": 10,
        "channel": 5,
        "type": "noteOff",
        "noteNumber": 74,
        "velocity": 0,
        "byte9": true
    },
    {
        "deltaTime": 0,
        "running": true,
        "channel": 5,
        "type": "noteOff",
        "noteNumber": 77,
        "velocity": 0,
        "byte9": true
    },
    {
        "deltaTime": 9,
        "channel": 14,
        "type": "noteOff",
        "noteNumber": 69,
        "velocity": 0,
        "byte9": true
    },
    {
        "deltaTime": 16,
        "running": true,
        "channel": 14,
        "type": "noteOff",
        "noteNumber": 62,
        "velocity": 0,
        "byte9": true
    },
    {
        "deltaTime": 0,
        "running": true,
        "channel": 14,
        "type": "noteOff",
        "noteNumber": 65,
        "velocity": 0,
        "byte9": true
    },
    {
        "deltaTime": 284,
        "channel": 5,
        "type": "noteOn",
        "noteNumber": 74,
        "velocity": 108
    },
    {
        "deltaTime": 0,
        "running": true,
        "channel": 5,
        "type": "noteOn",
        "noteNumber": 77,
        "velocity": 97
    },
    {
        "deltaTime": 0,
        "running": true,
        "channel": 5,
        "type": "noteOn",
        "noteNumber": 81,
        "velocity": 98
    },
    {
        "deltaTime": 0,
        "channel": 9,
        "type": "noteOn",
        "noteNumber": 44,
        "velocity": 107
    },
    {
        "deltaTime": 0,
        "running": true,
        "channel": 9,
        "type": "noteOn",
        "noteNumber": 69,
        "velocity": 109
    },
    {
        "deltaTime": 12,
        "running": true,
        "channel": 9,
        "type": "noteOff",
        "noteNumber": 44,
        "velocity": 0,
        "byte9": true
    },
    {
        "deltaTime": 0,
        "running": true,
        "channel": 9,
        "type": "noteOff",
        "noteNumber": 69,
        "velocity": 0,
        "byte9": true
    },
    {
        "deltaTime": 0,
        "channel": 3,
        "type": "noteOn",
        "noteNumber": 74,
        "velocity": 119
    },
    {
        "deltaTime": 8,
        "channel": 14,
        "type": "noteOn",
        "noteNumber": 62,
        "velocity": 108
    },
    {
        "deltaTime": 0,
        "running": true,
        "channel": 14,
        "type": "noteOn",
        "noteNumber": 65,
        "velocity": 97
    },
    {
        "deltaTime": 0,
        "running": true,
        "channel": 14,
        "type": "noteOn",
        "noteNumber": 69,
        "velocity": 98
    },
    {
        "deltaTime": 121,
        "channel": 5,
        "type": "noteOff",
        "noteNumber": 81,
        "velocity": 0,
        "byte9": true
    },
    {
        "deltaTime": 12,
        "running": true,
        "channel": 5,
        "type": "noteOff",
        "noteNumber": 74,
        "velocity": 0,
        "byte9": true
    },
    {
        "deltaTime": 3,
        "channel": 1,
        "type": "noteOff",
        "noteNumber": 38,
        "velocity": 0,
        "byte9": true
    },
    {
        "deltaTime": 0,
        "channel": 8,
        "type": "noteOff",
        "noteNumber": 38,
        "velocity": 0,
        "byte9": true
    },
    {
        "deltaTime": 2,
        "channel": 5,
        "type": "noteOff",
        "noteNumber": 77,
        "velocity": 0,
        "byte9": true
    },
    {
        "deltaTime": 8,
        "channel": 14,
        "type": "noteOff",
        "noteNumber": 69,
        "velocity": 0,
        "byte9": true
    },
    {
        "deltaTime": 12,
        "running": true,
        "channel": 14,
        "type": "noteOff",
        "noteNumber": 62,
        "velocity": 0,
        "byte9": true
    },
    {
        "deltaTime": 5,
        "running": true,
        "channel": 14,
        "type": "noteOff",
        "noteNumber": 65,
        "velocity": 0,
        "byte9": true
    },
    {
        "deltaTime": 71,
        "channel": 3,
        "type": "noteOff",
        "noteNumber": 74,
        "velocity": 0,
        "byte9": true
    },
    {
        "deltaTime": 61,
        "channel": 1,
        "type": "noteOn",
        "noteNumber": 38,
        "velocity": 99
    },
    {
        "deltaTime": 0,
        "channel": 8,
        "type": "noteOn",
        "noteNumber": 38,
        "velocity": 99
    },
    {
        "deltaTime": 0,
        "channel": 9,
        "type": "noteOn",
        "noteNumber": 35,
        "velocity": 114
    },
    {
        "deltaTime": 0,
        "channel": 11,
        "type": "noteOn",
        "noteNumber": 41,
        "velocity": 114
    },
    {
        "deltaTime": 12,
        "channel": 9,
        "type": "noteOff",
        "noteNumber": 35,
        "velocity": 0,
        "byte9": true
    },
    {
        "deltaTime": 148,
        "channel": 5,
        "type": "noteOn",
        "noteNumber": 74,
        "velocity": 105
    },
    {
        "deltaTime": 0,
        "running": true,
        "channel": 5,
        "type": "noteOn",
        "noteNumber": 77,
        "velocity": 89
    },
    {
        "deltaTime": 0,
        "running": true,
        "channel": 5,
        "type": "noteOn",
        "noteNumber": 81,
        "velocity": 94
    },
    {
        "deltaTime": 1,
        "channel": 11,
        "type": "noteOff",
        "noteNumber": 41,
        "velocity": 0,
        "byte9": true
    },
    {
        "deltaTime": 24,
        "channel": 14,
        "type": "noteOn",
        "noteNumber": 62,
        "velocity": 105
    },
    {
        "deltaTime": 0,
        "running": true,
        "channel": 14,
        "type": "noteOn",
        "noteNumber": 65,
        "velocity": 89
    },
    {
        "deltaTime": 0,
        "running": true,
        "channel": 14,
        "type": "noteOn",
        "noteNumber": 69,
        "velocity": 94
    },
    {
        "deltaTime": 0,
        "channel": 3,
        "type": "noteOn",
        "noteNumber": 74,
        "velocity": 124
    },
    {
        "deltaTime": 104,
        "channel": 5,
        "type": "noteOff",
        "noteNumber": 81,
        "velocity": 0,
        "byte9": true
    },
    {
        "deltaTime": 22,
        "running": true,
        "channel": 5,
        "type": "noteOff",
        "noteNumber": 74,
        "velocity": 0,
        "byte9": true
    },
    {
        "deltaTime": 0,
        "running": true,
        "channel": 5,
        "type": "noteOff",
        "noteNumber": 77,
        "velocity": 0,
        "byte9": true
    },
    {
        "deltaTime": 3,
        "channel": 14,
        "type": "noteOff",
        "noteNumber": 69,
        "velocity": 0,
        "byte9": true
    },
    {
        "deltaTime": 22,
        "running": true,
        "channel": 14,
        "type": "noteOff",
        "noteNumber": 62,
        "velocity": 0,
        "byte9": true
    },
    {
        "deltaTime": 0,
        "running": true,
        "channel": 14,
        "type": "noteOff",
        "noteNumber": 65,
        "velocity": 0,
        "byte9": true
    },
    {
        "deltaTime": 123,
        "channel": 1,
        "type": "noteOff",
        "noteNumber": 38,
        "velocity": 0,
        "byte9": true
    },
    {
        "deltaTime": 0,
        "channel": 8,
        "type": "noteOff",
        "noteNumber": 38,
        "velocity": 0,
        "byte9": true
    },
    {
        "deltaTime": 4,
        "channel": 1,
        "type": "noteOn",
        "noteNumber": 36,
        "velocity": 99
    },
    {
        "deltaTime": 0,
        "channel": 8,
        "type": "noteOn",
        "noteNumber": 36,
        "velocity": 99
    },
    {
        "deltaTime": 0,
        "channel": 9,
        "type": "noteOn",
        "noteNumber": 35,
        "velocity": 114
    },
    {
        "deltaTime": 0,
        "running": true,
        "channel": 9,
        "type": "noteOn",
        "noteNumber": 70,
        "velocity": 65
    },
    {
        "deltaTime": 0,
        "channel": 11,
        "type": "noteOn",
        "noteNumber": 41,
        "velocity": 114
    },
    {
        "deltaTime": 12,
        "channel": 9,
        "type": "noteOff",
        "noteNumber": 35,
        "velocity": 0,
        "byte9": true
    },
    {
        "deltaTime": 0,
        "running": true,
        "channel": 9,
        "type": "noteOff",
        "noteNumber": 70,
        "velocity": 0,
        "byte9": true
    },
    {
        "deltaTime": 96,
        "channel": 3,
        "type": "noteOff",
        "noteNumber": 74,
        "velocity": 0,
        "byte9": true
    },
    {
        "deltaTime": 52,
        "channel": 5,
        "type": "noteOn",
        "noteNumber": 74,
        "velocity": 109
    },
    {
        "deltaTime": 0,
        "running": true,
        "channel": 5,
        "type": "noteOn",
        "noteNumber": 77,
        "velocity": 97
    },
    {
        "deltaTime": 0,
        "running": true,
        "channel": 5,
        "type": "noteOn",
        "noteNumber": 81,
        "velocity": 110
    },
    {
        "deltaTime": 0,
        "channel": 9,
        "type": "noteOn",
        "noteNumber": 44,
        "velocity": 107
    },
    {
        "deltaTime": 0,
        "running": true,
        "channel": 9,
        "type": "noteOn",
        "noteNumber": 54,
        "velocity": 109
    },
    {
        "deltaTime": 1,
        "channel": 11,
        "type": "noteOff",
        "noteNumber": 41,
        "velocity": 0,
        "byte9": true
    },
    {
        "deltaTime": 0,
        "channel": 3,
        "type": "noteOn",
        "noteNumber": 72,
        "velocity": 127
    },
    {
        "deltaTime": 8,
        "channel": 9,
        "type": "noteOff",
        "noteNumber": 44,
        "velocity": 0,
        "byte9": true
    },
    {
        "deltaTime": 0,
        "running": true,
        "channel": 9,
        "type": "noteOff",
        "noteNumber": 54,
        "velocity": 0,
        "byte9": true
    },
    {
        "deltaTime": 13,
        "channel": 14,
        "type": "noteOn",
        "noteNumber": 62,
        "velocity": 109
    },
    {
        "deltaTime": 0,
        "running": true,
        "channel": 14,
        "type": "noteOn",
        "noteNumber": 65,
        "velocity": 97
    },
    {
        "deltaTime": 0,
        "running": true,
        "channel": 14,
        "type": "noteOn",
        "noteNumber": 69,
        "velocity": 110
    },
    {
        "deltaTime": 124,
        "channel": 5,
        "type": "noteOff",
        "noteNumber": 81,
        "velocity": 0,
        "byte9": true
    },
    {
        "deltaTime": 9,
        "running": true,
        "channel": 5,
        "type": "noteOff",
        "noteNumber": 74,
        "velocity": 0,
        "byte9": true
    },
    {
        "deltaTime": 3,
        "running": true,
        "channel": 5,
        "type": "noteOff",
        "noteNumber": 77,
        "velocity": 0,
        "byte9": true
    },
    {
        "deltaTime": 13,
        "channel": 14,
        "type": "noteOff",
        "noteNumber": 69,
        "velocity": 0,
        "byte9": true
    },
    {
        "deltaTime": 9,
        "running": true,
        "channel": 14,
        "type": "noteOff",
        "noteNumber": 62,
        "velocity": 0,
        "byte9": true
    },
    {
        "deltaTime": 3,
        "running": true,
        "channel": 14,
        "type": "noteOff",
        "noteNumber": 65,
        "velocity": 0,
        "byte9": true
    },
    {
        "deltaTime": 130,
        "channel": 1,
        "type": "noteOff",
        "noteNumber": 36,
        "velocity": 0,
        "byte9": true
    },
    {
        "deltaTime": 0,
        "channel": 8,
        "type": "noteOff",
        "noteNumber": 36,
        "velocity": 0,
        "byte9": true
    },
    {
        "deltaTime": 4,
        "channel": 1,
        "type": "noteOn",
        "noteNumber": 33,
        "velocity": 99
    },
    {
        "deltaTime": 0,
        "channel": 8,
        "type": "noteOn",
        "noteNumber": 33,
        "velocity": 99
    },
    {
        "deltaTime": 156,
        "channel": 1,
        "type": "noteOff",
        "noteNumber": 33,
        "velocity": 0,
        "byte9": true
    },
    {
        "deltaTime": 0,
        "channel": 8,
        "type": "noteOff",
        "noteNumber": 33,
        "velocity": 0,
        "byte9": true
    },
    {
        "deltaTime": 4,
        "channel": 1,
        "type": "noteOn",
        "noteNumber": 31,
        "velocity": 99
    },
    {
        "deltaTime": 0,
        "channel": 5,
        "type": "noteOn",
        "noteNumber": 74,
        "velocity": 101
    },
    {
        "deltaTime": 0,
        "running": true,
        "channel": 5,
        "type": "noteOn",
        "noteNumber": 79,
        "velocity": 97
    },
    {
        "deltaTime": 0,
        "running": true,
        "channel": 5,
        "type": "noteOn",
        "noteNumber": 82,
        "velocity": 105
    },
    {
        "deltaTime": 0,
        "channel": 8,
        "type": "noteOn",
        "noteNumber": 31,
        "velocity": 99
    },
    {
        "deltaTime": 0,
        "channel": 9,
        "type": "noteOn",
        "noteNumber": 35,
        "velocity": 114
    },
    {
        "deltaTime": 0,
        "channel": 11,
        "type": "noteOn",
        "noteNumber": 41,
        "velocity": 114
    },
    {
        "deltaTime": 12,
        "channel": 9,
        "type": "noteOff",
        "noteNumber": 35,
        "velocity": 0,
        "byte9": true
    },
    {
        "deltaTime": 13,
        "channel": 14,
        "type": "noteOn",
        "noteNumber": 62,
        "velocity": 101
    },
    {
        "deltaTime": 0,
        "running": true,
        "channel": 14,
        "type": "noteOn",
        "noteNumber": 67,
        "velocity": 97
    },
    {
        "deltaTime": 0,
        "running": true,
        "channel": 14,
        "type": "noteOn",
        "noteNumber": 70,
        "velocity": 105
    },
    {
        "deltaTime": 48,
        "channel": 5,
        "type": "noteOff",
        "noteNumber": 82,
        "velocity": 0,
        "byte9": true
    },
    {
        "deltaTime": 25,
        "channel": 14,
        "type": "noteOff",
        "noteNumber": 70,
        "velocity": 0,
        "byte9": true
    },
    {
        "deltaTime": 23,
        "channel": 5,
        "type": "noteOff",
        "noteNumber": 79,
        "velocity": 0,
        "byte9": true
    },
    {
        "deltaTime": 2,
        "running": true,
        "channel": 5,
        "type": "noteOff",
        "noteNumber": 74,
        "velocity": 0,
        "byte9": true
    },
    {
        "deltaTime": 23,
        "channel": 14,
        "type": "noteOff",
        "noteNumber": 67,
        "velocity": 0,
        "byte9": true
    },
    {
        "deltaTime": 2,
        "running": true,
        "channel": 14,
        "type": "noteOff",
        "noteNumber": 62,
        "velocity": 0,
        "byte9": true
    },
    {
        "deltaTime": 13,
        "channel": 11,
        "type": "noteOff",
        "noteNumber": 41,
        "velocity": 0,
        "byte9": true
    },
    {
        "deltaTime": 191,
        "channel": 3,
        "type": "noteOff",
        "noteNumber": 72,
        "velocity": 0,
        "byte9": true
    },
    {
        "deltaTime": 0,
        "channel": 3,
        "type": "noteOn",
        "noteNumber": 74,
        "velocity": 121
    },
    {
        "deltaTime": 78,
        "channel": 5,
        "type": "noteOn",
        "noteNumber": 74,
        "velocity": 111
    },
    {
        "deltaTime": 0,
        "running": true,
        "channel": 5,
        "type": "noteOn",
        "noteNumber": 79,
        "velocity": 107
    },
    {
        "deltaTime": 0,
        "running": true,
        "channel": 5,
        "type": "noteOn",
        "noteNumber": 82,
        "velocity": 105
    },
    {
        "deltaTime": 0,
        "channel": 9,
        "type": "noteOn",
        "noteNumber": 44,
        "velocity": 107
    },
    {
        "deltaTime": 0,
        "running": true,
        "channel": 9,
        "type": "noteOn",
        "noteNumber": 69,
        "velocity": 109
    },
    {
        "deltaTime": 12,
        "running": true,
        "channel": 9,
        "type": "noteOff",
        "noteNumber": 44,
        "velocity": 0,
        "byte9": true
    },
    {
        "deltaTime": 0,
        "running": true,
        "channel": 9,
        "type": "noteOff",
        "noteNumber": 69,
        "velocity": 0,
        "byte9": true
    },
    {
        "deltaTime": 13,
        "channel": 14,
        "type": "noteOn",
        "noteNumber": 62,
        "velocity": 111
    },
    {
        "deltaTime": 0,
        "running": true,
        "channel": 14,
        "type": "noteOn",
        "noteNumber": 67,
        "velocity": 107
    },
    {
        "deltaTime": 0,
        "running": true,
        "channel": 14,
        "type": "noteOn",
        "noteNumber": 70,
        "velocity": 105
    },
    {
        "deltaTime": 132,
        "channel": 5,
        "type": "noteOff",
        "noteNumber": 82,
        "velocity": 0,
        "byte9": true
    },
    {
        "deltaTime": 4,
        "channel": 1,
        "type": "noteOff",
        "noteNumber": 31,
        "velocity": 0,
        "byte9": true
    },
    {
        "deltaTime": 0,
        "channel": 8,
        "type": "noteOff",
        "noteNumber": 31,
        "velocity": 0,
        "byte9": true
    },
    {
        "deltaTime": 3,
        "channel": 5,
        "type": "noteOff",
        "noteNumber": 79,
        "velocity": 0,
        "byte9": true
    },
    {
        "deltaTime": 4,
        "running": true,
        "channel": 5,
        "type": "noteOff",
        "noteNumber": 74,
        "velocity": 0,
        "byte9": true
    },
    {
        "deltaTime": 14,
        "channel": 14,
        "type": "noteOff",
        "noteNumber": 70,
        "velocity": 0,
        "byte9": true
    },
    {
        "deltaTime": 7,
        "running": true,
        "channel": 14,
        "type": "noteOff",
        "noteNumber": 67,
        "velocity": 0,
        "byte9": true
    },
    {
        "deltaTime": 4,
        "running": true,
        "channel": 14,
        "type": "noteOff",
        "noteNumber": 62,
        "velocity": 0,
        "byte9": true
    },
    {
        "deltaTime": 127,
        "channel": 1,
        "type": "noteOn",
        "noteNumber": 31,
        "velocity": 99
    },
    {
        "deltaTime": 0,
        "channel": 8,
        "type": "noteOn",
        "noteNumber": 31,
        "velocity": 99
    },
    {
        "deltaTime": 0,
        "channel": 9,
        "type": "noteOn",
        "noteNumber": 35,
        "velocity": 107
    },
    {
        "deltaTime": 0,
        "channel": 11,
        "type": "noteOn",
        "noteNumber": 41,
        "velocity": 107
    },
    {
        "deltaTime": 12,
        "channel": 9,
        "type": "noteOff",
        "noteNumber": 35,
        "velocity": 0,
        "byte9": true
    },
    {
        "deltaTime": 148,
        "channel": 5,
        "type": "noteOn",
        "noteNumber": 74,
        "velocity": 105
    },
    {
        "deltaTime": 0,
        "running": true,
        "channel": 5,
        "type": "noteOn",
        "noteNumber": 79,
        "velocity": 94
    },
    {
        "deltaTime": 0,
        "running": true,
        "channel": 5,
        "type": "noteOn",
        "noteNumber": 82,
        "velocity": 94
    },
    {
        "deltaTime": 0,
        "channel": 9,
        "type": "noteOn",
        "noteNumber": 35,
        "velocity": 114
    },
    {
        "deltaTime": 0,
        "channel": 11,
        "type": "noteOn",
        "noteNumber": 41,
        "velocity": 114
    },
    {
        "deltaTime": 1,
        "running": true,
        "channel": 11,
        "type": "noteOff",
        "noteNumber": 41,
        "velocity": 0,
        "byte9": true
    },
    {
        "deltaTime": 11,
        "channel": 9,
        "type": "noteOff",
        "noteNumber": 35,
        "velocity": 0,
        "byte9": true
    },
    {
        "deltaTime": 13,
        "channel": 14,
        "type": "noteOn",
        "noteNumber": 62,
        "velocity": 105
    },
    {
        "deltaTime": 0,
        "running": true,
        "channel": 14,
        "type": "noteOn",
        "noteNumber": 67,
        "velocity": 94
    },
    {
        "deltaTime": 0,
        "running": true,
        "channel": 14,
        "type": "noteOn",
        "noteNumber": 70,
        "velocity": 94
    },
    {
        "deltaTime": 130,
        "channel": 5,
        "type": "noteOff",
        "noteNumber": 82,
        "velocity": 0,
        "byte9": true
    },
    {
        "deltaTime": 6,
        "channel": 11,
        "type": "noteOff",
        "noteNumber": 41,
        "velocity": 0,
        "byte9": true
    },
    {
        "deltaTime": 2,
        "channel": 5,
        "type": "noteOff",
        "noteNumber": 74,
        "velocity": 0,
        "byte9": true
    },
    {
        "deltaTime": 4,
        "running": true,
        "channel": 5,
        "type": "noteOff",
        "noteNumber": 79,
        "velocity": 0,
        "byte9": true
    },
    {
        "deltaTime": 13,
        "channel": 14,
        "type": "noteOff",
        "noteNumber": 70,
        "velocity": 0,
        "byte9": true
    },
    {
        "deltaTime": 8,
        "running": true,
        "channel": 14,
        "type": "noteOff",
        "noteNumber": 62,
        "velocity": 0,
        "byte9": true
    },
    {
        "deltaTime": 4,
        "running": true,
        "channel": 14,
        "type": "noteOff",
        "noteNumber": 67,
        "velocity": 0,
        "byte9": true
    },
    {
        "deltaTime": 128,
        "channel": 9,
        "type": "noteOn",
        "noteNumber": 70,
        "velocity": 65
    },
    {
        "deltaTime": 12,
        "running": true,
        "channel": 9,
        "type": "noteOff",
        "noteNumber": 70,
        "velocity": 0,
        "byte9": true
    },
    {
        "deltaTime": 148,
        "channel": 5,
        "type": "noteOn",
        "noteNumber": 74,
        "velocity": 109
    },
    {
        "deltaTime": 0,
        "running": true,
        "channel": 5,
        "type": "noteOn",
        "noteNumber": 79,
        "velocity": 94
    },
    {
        "deltaTime": 0,
        "running": true,
        "channel": 5,
        "type": "noteOn",
        "noteNumber": 82,
        "velocity": 94
    },
    {
        "deltaTime": 0,
        "channel": 9,
        "type": "noteOn",
        "noteNumber": 44,
        "velocity": 107
    },
    {
        "deltaTime": 0,
        "running": true,
        "channel": 9,
        "type": "noteOn",
        "noteNumber": 54,
        "velocity": 109
    },
    {
        "deltaTime": 12,
        "running": true,
        "channel": 9,
        "type": "noteOff",
        "noteNumber": 44,
        "velocity": 0,
        "byte9": true
    },
    {
        "deltaTime": 0,
        "running": true,
        "channel": 9,
        "type": "noteOff",
        "noteNumber": 54,
        "velocity": 0,
        "byte9": true
    },
    {
        "deltaTime": 13,
        "channel": 14,
        "type": "noteOn",
        "noteNumber": 62,
        "velocity": 109
    },
    {
        "deltaTime": 0,
        "running": true,
        "channel": 14,
        "type": "noteOn",
        "noteNumber": 67,
        "velocity": 94
    },
    {
        "deltaTime": 0,
        "running": true,
        "channel": 14,
        "type": "noteOn",
        "noteNumber": 70,
        "velocity": 94
    },
    {
        "deltaTime": 116,
        "channel": 5,
        "type": "noteOff",
        "noteNumber": 82,
        "velocity": 0,
        "byte9": true
    },
    {
        "deltaTime": 9,
        "channel": 3,
        "type": "noteOff",
        "noteNumber": 74,
        "velocity": 0,
        "byte9": true
    },
    {
        "deltaTime": 4,
        "channel": 5,
        "type": "noteOff",
        "noteNumber": 74,
        "velocity": 0,
        "byte9": true
    },
    {
        "deltaTime": 0,
        "running": true,
        "channel": 5,
        "type": "noteOff",
        "noteNumber": 79,
        "velocity": 0,
        "byte9": true
    },
    {
        "deltaTime": 7,
        "channel": 1,
        "type": "noteOff",
        "noteNumber": 31,
        "velocity": 0,
        "byte9": true
    },
    {
        "deltaTime": 0,
        "channel": 8,
        "type": "noteOff",
        "noteNumber": 31,
        "velocity": 0,
        "byte9": true
    },
    {
        "deltaTime": 5,
        "channel": 14,
        "type": "noteOff",
        "noteNumber": 70,
        "velocity": 0,
        "byte9": true
    },
    {
        "deltaTime": 13,
        "running": true,
        "channel": 14,
        "type": "noteOff",
        "noteNumber": 62,
        "velocity": 0,
        "byte9": true
    },
    {
        "deltaTime": 0,
        "running": true,
        "channel": 14,
        "type": "noteOff",
        "noteNumber": 67,
        "velocity": 0,
        "byte9": true
    },
    {
        "deltaTime": 141,
        "channel": 1,
        "type": "noteOn",
        "noteNumber": 31,
        "velocity": 99
    },
    {
        "deltaTime": 0,
        "channel": 8,
        "type": "noteOn",
        "noteNumber": 31,
        "velocity": 99
    },
    {
        "deltaTime": 160,
        "channel": 5,
        "type": "noteOn",
        "noteNumber": 74,
        "velocity": 109
    },
    {
        "deltaTime": 0,
        "running": true,
        "channel": 5,
        "type": "noteOn",
        "noteNumber": 79,
        "velocity": 94
    },
    {
        "deltaTime": 0,
        "running": true,
        "channel": 5,
        "type": "noteOn",
        "noteNumber": 82,
        "velocity": 101
    },
    {
        "deltaTime": 0,
        "channel": 9,
        "type": "noteOn",
        "noteNumber": 35,
        "velocity": 114
    },
    {
        "deltaTime": 0,
        "channel": 11,
        "type": "noteOn",
        "noteNumber": 41,
        "velocity": 114
    },
    {
        "deltaTime": 12,
        "channel": 9,
        "type": "noteOff",
        "noteNumber": 35,
        "velocity": 0,
        "byte9": true
    },
    {
        "deltaTime": 13,
        "channel": 14,
        "type": "noteOn",
        "noteNumber": 62,
        "velocity": 109
    },
    {
        "deltaTime": 0,
        "running": true,
        "channel": 14,
        "type": "noteOn",
        "noteNumber": 67,
        "velocity": 94
    },
    {
        "deltaTime": 0,
        "running": true,
        "channel": 14,
        "type": "noteOn",
        "noteNumber": 70,
        "velocity": 101
    },
    {
        "deltaTime": 130,
        "channel": 5,
        "type": "noteOff",
        "noteNumber": 82,
        "velocity": 0,
        "byte9": true
    },
    {
        "deltaTime": 6,
        "channel": 11,
        "type": "noteOff",
        "noteNumber": 41,
        "velocity": 0,
        "byte9": true
    },
    {
        "deltaTime": 10,
        "channel": 5,
        "type": "noteOff",
        "noteNumber": 74,
        "velocity": 0,
        "byte9": true
    },
    {
        "deltaTime": 0,
        "running": true,
        "channel": 5,
        "type": "noteOff",
        "noteNumber": 79,
        "velocity": 0,
        "byte9": true
    },
    {
        "deltaTime": 9,
        "channel": 14,
        "type": "noteOff",
        "noteNumber": 70,
        "velocity": 0,
        "byte9": true
    },
    {
        "deltaTime": 16,
        "running": true,
        "channel": 14,
        "type": "noteOff",
        "noteNumber": 62,
        "velocity": 0,
        "byte9": true
    },
    {
        "deltaTime": 0,
        "running": true,
        "channel": 14,
        "type": "noteOff",
        "noteNumber": 67,
        "velocity": 0,
        "byte9": true
    },
    {
        "deltaTime": 0,
        "channel": 3,
        "type": "noteOn",
        "noteNumber": 74,
        "velocity": 119
    },
    {
        "deltaTime": 27,
        "channel": 5,
        "type": "noteOn",
        "noteNumber": 74,
        "velocity": 108
    },
    {
        "deltaTime": 0,
        "running": true,
        "channel": 5,
        "type": "noteOn",
        "noteNumber": 79,
        "velocity": 97
    },
    {
        "deltaTime": 0,
        "running": true,
        "channel": 5,
        "type": "noteOn",
        "noteNumber": 82,
        "velocity": 98
    },
    {
        "deltaTime": 0,
        "channel": 9,
        "type": "noteOn",
        "noteNumber": 44,
        "velocity": 107
    },
    {
        "deltaTime": 0,
        "running": true,
        "channel": 9,
        "type": "noteOn",
        "noteNumber": 69,
        "velocity": 109
    },
    {
        "deltaTime": 12,
        "running": true,
        "channel": 9,
        "type": "noteOff",
        "noteNumber": 44,
        "velocity": 0,
        "byte9": true
    },
    {
        "deltaTime": 0,
        "running": true,
        "channel": 9,
        "type": "noteOff",
        "noteNumber": 69,
        "velocity": 0,
        "byte9": true
    },
    {
        "deltaTime": 13,
        "channel": 14,
        "type": "noteOn",
        "noteNumber": 62,
        "velocity": 108
    },
    {
        "deltaTime": 0,
        "running": true,
        "channel": 14,
        "type": "noteOn",
        "noteNumber": 67,
        "velocity": 97
    },
    {
        "deltaTime": 0,
        "running": true,
        "channel": 14,
        "type": "noteOn",
        "noteNumber": 70,
        "velocity": 98
    },
    {
        "deltaTime": 121,
        "channel": 5,
        "type": "noteOff",
        "noteNumber": 82,
        "velocity": 0,
        "byte9": true
    },
    {
        "deltaTime": 12,
        "running": true,
        "channel": 5,
        "type": "noteOff",
        "noteNumber": 74,
        "velocity": 0,
        "byte9": true
    },
    {
        "deltaTime": 3,
        "channel": 1,
        "type": "noteOff",
        "noteNumber": 31,
        "velocity": 0,
        "byte9": true
    },
    {
        "deltaTime": 0,
        "channel": 8,
        "type": "noteOff",
        "noteNumber": 31,
        "velocity": 0,
        "byte9": true
    },
    {
        "deltaTime": 2,
        "channel": 5,
        "type": "noteOff",
        "noteNumber": 79,
        "velocity": 0,
        "byte9": true
    },
    {
        "deltaTime": 8,
        "channel": 14,
        "type": "noteOff",
        "noteNumber": 70,
        "velocity": 0,
        "byte9": true
    },
    {
        "deltaTime": 12,
        "running": true,
        "channel": 14,
        "type": "noteOff",
        "noteNumber": 62,
        "velocity": 0,
        "byte9": true
    },
    {
        "deltaTime": 5,
        "running": true,
        "channel": 14,
        "type": "noteOff",
        "noteNumber": 67,
        "velocity": 0,
        "byte9": true
    },
    {
        "deltaTime": 92,
        "channel": 3,
        "type": "noteOff",
        "noteNumber": 74,
        "velocity": 0,
        "byte9": true
    },
    {
        "deltaTime": 40,
        "channel": 1,
        "type": "noteOn",
        "noteNumber": 31,
        "velocity": 99
    },
    {
        "deltaTime": 0,
        "channel": 8,
        "type": "noteOn",
        "noteNumber": 31,
        "velocity": 99
    },
    {
        "deltaTime": 0,
        "channel": 9,
        "type": "noteOn",
        "noteNumber": 35,
        "velocity": 114
    },
    {
        "deltaTime": 0,
        "channel": 11,
        "type": "noteOn",
        "noteNumber": 41,
        "velocity": 114
    },
    {
        "deltaTime": 12,
        "channel": 9,
        "type": "noteOff",
        "noteNumber": 35,
        "velocity": 0,
        "byte9": true
    },
    {
        "deltaTime": 0,
        "channel": 3,
        "type": "noteOn",
        "noteNumber": 74,
        "velocity": 124
    },
    {
        "deltaTime": 16,
        "channel": 5,
        "type": "noteOn",
        "noteNumber": 74,
        "velocity": 105
    },
    {
        "deltaTime": 0,
        "running": true,
        "channel": 5,
        "type": "noteOn",
        "noteNumber": 79,
        "velocity": 89
    },
    {
        "deltaTime": 0,
        "running": true,
        "channel": 5,
        "type": "noteOn",
        "noteNumber": 82,
        "velocity": 94
    },
    {
        "deltaTime": 1,
        "channel": 11,
        "type": "noteOff",
        "noteNumber": 41,
        "velocity": 0,
        "byte9": true
    },
    {
        "deltaTime": 24,
        "channel": 14,
        "type": "noteOn",
        "noteNumber": 62,
        "velocity": 105
    },
    {
        "deltaTime": 0,
        "running": true,
        "channel": 14,
        "type": "noteOn",
        "noteNumber": 67,
        "velocity": 89
    },
    {
        "deltaTime": 0,
        "running": true,
        "channel": 14,
        "type": "noteOn",
        "noteNumber": 70,
        "velocity": 94
    },
    {
        "deltaTime": 121,
        "channel": 5,
        "type": "noteOff",
        "noteNumber": 82,
        "velocity": 0,
        "byte9": true
    },
    {
        "deltaTime": 22,
        "running": true,
        "channel": 5,
        "type": "noteOff",
        "noteNumber": 74,
        "velocity": 0,
        "byte9": true
    },
    {
        "deltaTime": 0,
        "running": true,
        "channel": 5,
        "type": "noteOff",
        "noteNumber": 79,
        "velocity": 0,
        "byte9": true
    },
    {
        "deltaTime": 3,
        "channel": 14,
        "type": "noteOff",
        "noteNumber": 70,
        "velocity": 0,
        "byte9": true
    },
    {
        "deltaTime": 22,
        "running": true,
        "channel": 14,
        "type": "noteOff",
        "noteNumber": 62,
        "velocity": 0,
        "byte9": true
    },
    {
        "deltaTime": 0,
        "running": true,
        "channel": 14,
        "type": "noteOff",
        "noteNumber": 67,
        "velocity": 0,
        "byte9": true
    },
    {
        "deltaTime": 123,
        "channel": 1,
        "type": "noteOff",
        "noteNumber": 31,
        "velocity": 0,
        "byte9": true
    },
    {
        "deltaTime": 0,
        "channel": 8,
        "type": "noteOff",
        "noteNumber": 31,
        "velocity": 0,
        "byte9": true
    },
    {
        "deltaTime": 4,
        "channel": 1,
        "type": "noteOn",
        "noteNumber": 32,
        "velocity": 99
    },
    {
        "deltaTime": 0,
        "channel": 8,
        "type": "noteOn",
        "noteNumber": 32,
        "velocity": 99
    },
    {
        "deltaTime": 0,
        "channel": 9,
        "type": "noteOn",
        "noteNumber": 35,
        "velocity": 114
    },
    {
        "deltaTime": 0,
        "running": true,
        "channel": 9,
        "type": "noteOn",
        "noteNumber": 70,
        "velocity": 65
    },
    {
        "deltaTime": 0,
        "channel": 11,
        "type": "noteOn",
        "noteNumber": 41,
        "velocity": 114
    },
    {
        "deltaTime": 12,
        "channel": 9,
        "type": "noteOff",
        "noteNumber": 35,
        "velocity": 0,
        "byte9": true
    },
    {
        "deltaTime": 0,
        "running": true,
        "channel": 9,
        "type": "noteOff",
        "noteNumber": 70,
        "velocity": 0,
        "byte9": true
    },
    {
        "deltaTime": 24,
        "channel": 3,
        "type": "noteOff",
        "noteNumber": 74,
        "velocity": 0,
        "byte9": true
    },
    {
        "deltaTime": 0,
        "channel": 3,
        "type": "noteOn",
        "noteNumber": 74,
        "velocity": 119
    },
    {
        "deltaTime": 0,
        "channel": 5,
        "type": "noteOn",
        "noteNumber": 74,
        "velocity": 109
    },
    {
        "deltaTime": 0,
        "running": true,
        "channel": 5,
        "type": "noteOn",
        "noteNumber": 79,
        "velocity": 97
    },
    {
        "deltaTime": 0,
        "running": true,
        "channel": 5,
        "type": "noteOn",
        "noteNumber": 82,
        "velocity": 110
    },
    {
        "deltaTime": 0,
        "channel": 9,
        "type": "noteOn",
        "noteNumber": 44,
        "velocity": 107
    },
    {
        "deltaTime": 0,
        "running": true,
        "channel": 9,
        "type": "noteOn",
        "noteNumber": 54,
        "velocity": 109
    },
    {
        "deltaTime": 1,
        "channel": 11,
        "type": "noteOff",
        "noteNumber": 41,
        "velocity": 0,
        "byte9": true
    },
    {
        "deltaTime": 11,
        "channel": 9,
        "type": "noteOff",
        "noteNumber": 44,
        "velocity": 0,
        "byte9": true
    },
    {
        "deltaTime": 0,
        "running": true,
        "channel": 9,
        "type": "noteOff",
        "noteNumber": 54,
        "velocity": 0,
        "byte9": true
    },
    {
        "deltaTime": 13,
        "channel": 14,
        "type": "noteOn",
        "noteNumber": 62,
        "velocity": 109
    },
    {
        "deltaTime": 0,
        "running": true,
        "channel": 14,
        "type": "noteOn",
        "noteNumber": 67,
        "velocity": 97
    },
    {
        "deltaTime": 0,
        "running": true,
        "channel": 14,
        "type": "noteOn",
        "noteNumber": 70,
        "velocity": 110
    },
    {
        "deltaTime": 124,
        "channel": 5,
        "type": "noteOff",
        "noteNumber": 82,
        "velocity": 0,
        "byte9": true
    },
    {
        "deltaTime": 9,
        "running": true,
        "channel": 5,
        "type": "noteOff",
        "noteNumber": 74,
        "velocity": 0,
        "byte9": true
    },
    {
        "deltaTime": 3,
        "running": true,
        "channel": 5,
        "type": "noteOff",
        "noteNumber": 79,
        "velocity": 0,
        "byte9": true
    },
    {
        "deltaTime": 13,
        "channel": 14,
        "type": "noteOff",
        "noteNumber": 70,
        "velocity": 0,
        "byte9": true
    },
    {
        "deltaTime": 9,
        "running": true,
        "channel": 14,
        "type": "noteOff",
        "noteNumber": 62,
        "velocity": 0,
        "byte9": true
    },
    {
        "deltaTime": 3,
        "running": true,
        "channel": 14,
        "type": "noteOff",
        "noteNumber": 67,
        "velocity": 0,
        "byte9": true
    },
    {
        "deltaTime": 130,
        "channel": 1,
        "type": "noteOff",
        "noteNumber": 32,
        "velocity": 0,
        "byte9": true
    },
    {
        "deltaTime": 0,
        "channel": 8,
        "type": "noteOff",
        "noteNumber": 32,
        "velocity": 0,
        "byte9": true
    },
    {
        "deltaTime": 4,
        "channel": 1,
        "type": "noteOn",
        "noteNumber": 33,
        "velocity": 99
    },
    {
        "deltaTime": 0,
        "channel": 8,
        "type": "noteOn",
        "noteNumber": 33,
        "velocity": 99
    },
    {
        "deltaTime": 156,
        "channel": 1,
        "type": "noteOff",
        "noteNumber": 33,
        "velocity": 0,
        "byte9": true
    },
    {
        "deltaTime": 0,
        "channel": 8,
        "type": "noteOff",
        "noteNumber": 33,
        "velocity": 0,
        "byte9": true
    },
    {
        "deltaTime": 4,
        "channel": 1,
        "type": "noteOn",
        "noteNumber": 34,
        "velocity": 99
    },
    {
        "deltaTime": 0,
        "channel": 5,
        "type": "noteOn",
        "noteNumber": 74,
        "velocity": 101
    },
    {
        "deltaTime": 0,
        "running": true,
        "channel": 5,
        "type": "noteOn",
        "noteNumber": 77,
        "velocity": 97
    },
    {
        "deltaTime": 0,
        "running": true,
        "channel": 5,
        "type": "noteOn",
        "noteNumber": 82,
        "velocity": 105
    },
    {
        "deltaTime": 0,
        "channel": 8,
        "type": "noteOn",
        "noteNumber": 34,
        "velocity": 99
    },
    {
        "deltaTime": 0,
        "channel": 9,
        "type": "noteOn",
        "noteNumber": 35,
        "velocity": 114
    },
    {
        "deltaTime": 0,
        "channel": 11,
        "type": "noteOn",
        "noteNumber": 41,
        "velocity": 114
    },
    {
        "deltaTime": 12,
        "channel": 9,
        "type": "noteOff",
        "noteNumber": 35,
        "velocity": 0,
        "byte9": true
    },
    {
        "deltaTime": 13,
        "channel": 14,
        "type": "noteOn",
        "noteNumber": 62,
        "velocity": 101
    },
    {
        "deltaTime": 0,
        "running": true,
        "channel": 14,
        "type": "noteOn",
        "noteNumber": 65,
        "velocity": 97
    },
    {
        "deltaTime": 0,
        "running": true,
        "channel": 14,
        "type": "noteOn",
        "noteNumber": 70,
        "velocity": 105
    },
    {
        "deltaTime": 48,
        "channel": 5,
        "type": "noteOff",
        "noteNumber": 82,
        "velocity": 0,
        "byte9": true
    },
    {
        "deltaTime": 25,
        "channel": 14,
        "type": "noteOff",
        "noteNumber": 70,
        "velocity": 0,
        "byte9": true
    },
    {
        "deltaTime": 23,
        "channel": 5,
        "type": "noteOff",
        "noteNumber": 77,
        "velocity": 0,
        "byte9": true
    },
    {
        "deltaTime": 2,
        "running": true,
        "channel": 5,
        "type": "noteOff",
        "noteNumber": 74,
        "velocity": 0,
        "byte9": true
    },
    {
        "deltaTime": 23,
        "channel": 14,
        "type": "noteOff",
        "noteNumber": 65,
        "velocity": 0,
        "byte9": true
    },
    {
        "deltaTime": 2,
        "running": true,
        "channel": 14,
        "type": "noteOff",
        "noteNumber": 62,
        "velocity": 0,
        "byte9": true
    },
    {
        "deltaTime": 13,
        "channel": 11,
        "type": "noteOff",
        "noteNumber": 41,
        "velocity": 0,
        "byte9": true
    },
    {
        "deltaTime": 238,
        "channel": 3,
        "type": "noteOff",
        "noteNumber": 74,
        "velocity": 0,
        "byte9": true
    },
    {
        "deltaTime": 0,
        "channel": 3,
        "type": "noteOn",
        "noteNumber": 74,
        "velocity": 119
    },
    {
        "deltaTime": 56,
        "channel": 5,
        "type": "noteOn",
        "noteNumber": 74,
        "velocity": 111
    },
    {
        "deltaTime": 0,
        "running": true,
        "channel": 5,
        "type": "noteOn",
        "noteNumber": 77,
        "velocity": 107
    },
    {
        "deltaTime": 0,
        "running": true,
        "channel": 5,
        "type": "noteOn",
        "noteNumber": 82,
        "velocity": 105
    },
    {
        "deltaTime": 0,
        "channel": 9,
        "type": "noteOn",
        "noteNumber": 44,
        "velocity": 107
    },
    {
        "deltaTime": 0,
        "running": true,
        "channel": 9,
        "type": "noteOn",
        "noteNumber": 69,
        "velocity": 109
    },
    {
        "deltaTime": 12,
        "running": true,
        "channel": 9,
        "type": "noteOff",
        "noteNumber": 44,
        "velocity": 0,
        "byte9": true
    },
    {
        "deltaTime": 0,
        "running": true,
        "channel": 9,
        "type": "noteOff",
        "noteNumber": 69,
        "velocity": 0,
        "byte9": true
    },
    {
        "deltaTime": 13,
        "channel": 14,
        "type": "noteOn",
        "noteNumber": 62,
        "velocity": 111
    },
    {
        "deltaTime": 0,
        "running": true,
        "channel": 14,
        "type": "noteOn",
        "noteNumber": 65,
        "velocity": 107
    },
    {
        "deltaTime": 0,
        "running": true,
        "channel": 14,
        "type": "noteOn",
        "noteNumber": 70,
        "velocity": 105
    },
    {
        "deltaTime": 132,
        "channel": 5,
        "type": "noteOff",
        "noteNumber": 82,
        "velocity": 0,
        "byte9": true
    },
    {
        "deltaTime": 7,
        "running": true,
        "channel": 5,
        "type": "noteOff",
        "noteNumber": 77,
        "velocity": 0,
        "byte9": true
    },
    {
        "deltaTime": 4,
        "running": true,
        "channel": 5,
        "type": "noteOff",
        "noteNumber": 74,
        "velocity": 0,
        "byte9": true
    },
    {
        "deltaTime": 14,
        "channel": 14,
        "type": "noteOff",
        "noteNumber": 70,
        "velocity": 0,
        "byte9": true
    },
    {
        "deltaTime": 7,
        "running": true,
        "channel": 14,
        "type": "noteOff",
        "noteNumber": 65,
        "velocity": 0,
        "byte9": true
    },
    {
        "deltaTime": 4,
        "running": true,
        "channel": 14,
        "type": "noteOff",
        "noteNumber": 62,
        "velocity": 0,
        "byte9": true
    },
    {
        "deltaTime": 68,
        "channel": 1,
        "type": "noteOff",
        "noteNumber": 34,
        "velocity": 0,
        "byte9": true
    },
    {
        "deltaTime": 0,
        "channel": 8,
        "type": "noteOff",
        "noteNumber": 34,
        "velocity": 0,
        "byte9": true
    },
    {
        "deltaTime": 59,
        "channel": 1,
        "type": "noteOn",
        "noteNumber": 34,
        "velocity": 99
    },
    {
        "deltaTime": 0,
        "channel": 8,
        "type": "noteOn",
        "noteNumber": 34,
        "velocity": 99
    },
    {
        "deltaTime": 0,
        "channel": 9,
        "type": "noteOn",
        "noteNumber": 35,
        "velocity": 107
    },
    {
        "deltaTime": 0,
        "channel": 11,
        "type": "noteOn",
        "noteNumber": 41,
        "velocity": 107
    },
    {
        "deltaTime": 12,
        "channel": 9,
        "type": "noteOff",
        "noteNumber": 35,
        "velocity": 0,
        "byte9": true
    },
    {
        "deltaTime": 148,
        "channel": 5,
        "type": "noteOn",
        "noteNumber": 74,
        "velocity": 105
    },
    {
        "deltaTime": 0,
        "running": true,
        "channel": 5,
        "type": "noteOn",
        "noteNumber": 77,
        "velocity": 94
    },
    {
        "deltaTime": 0,
        "running": true,
        "channel": 5,
        "type": "noteOn",
        "noteNumber": 82,
        "velocity": 94
    },
    {
        "deltaTime": 0,
        "channel": 9,
        "type": "noteOn",
        "noteNumber": 35,
        "velocity": 114
    },
    {
        "deltaTime": 0,
        "channel": 11,
        "type": "noteOn",
        "noteNumber": 41,
        "velocity": 114
    },
    {
        "deltaTime": 1,
        "running": true,
        "channel": 11,
        "type": "noteOff",
        "noteNumber": 41,
        "velocity": 0,
        "byte9": true
    },
    {
        "deltaTime": 11,
        "channel": 9,
        "type": "noteOff",
        "noteNumber": 35,
        "velocity": 0,
        "byte9": true
    },
    {
        "deltaTime": 13,
        "channel": 14,
        "type": "noteOn",
        "noteNumber": 62,
        "velocity": 105
    },
    {
        "deltaTime": 0,
        "running": true,
        "channel": 14,
        "type": "noteOn",
        "noteNumber": 65,
        "velocity": 94
    },
    {
        "deltaTime": 0,
        "running": true,
        "channel": 14,
        "type": "noteOn",
        "noteNumber": 70,
        "velocity": 94
    },
    {
        "deltaTime": 130,
        "channel": 5,
        "type": "noteOff",
        "noteNumber": 82,
        "velocity": 0,
        "byte9": true
    },
    {
        "deltaTime": 6,
        "channel": 11,
        "type": "noteOff",
        "noteNumber": 41,
        "velocity": 0,
        "byte9": true
    },
    {
        "deltaTime": 2,
        "channel": 5,
        "type": "noteOff",
        "noteNumber": 74,
        "velocity": 0,
        "byte9": true
    },
    {
        "deltaTime": 4,
        "running": true,
        "channel": 5,
        "type": "noteOff",
        "noteNumber": 77,
        "velocity": 0,
        "byte9": true
    },
    {
        "deltaTime": 13,
        "channel": 14,
        "type": "noteOff",
        "noteNumber": 70,
        "velocity": 0,
        "byte9": true
    },
    {
        "deltaTime": 8,
        "running": true,
        "channel": 14,
        "type": "noteOff",
        "noteNumber": 62,
        "velocity": 0,
        "byte9": true
    },
    {
        "deltaTime": 4,
        "running": true,
        "channel": 14,
        "type": "noteOff",
        "noteNumber": 65,
        "velocity": 0,
        "byte9": true
    },
    {
        "deltaTime": 128,
        "channel": 9,
        "type": "noteOn",
        "noteNumber": 70,
        "velocity": 65
    },
    {
        "deltaTime": 12,
        "running": true,
        "channel": 9,
        "type": "noteOff",
        "noteNumber": 70,
        "velocity": 0,
        "byte9": true
    },
    {
        "deltaTime": 148,
        "channel": 5,
        "type": "noteOn",
        "noteNumber": 74,
        "velocity": 109
    },
    {
        "deltaTime": 0,
        "running": true,
        "channel": 5,
        "type": "noteOn",
        "noteNumber": 77,
        "velocity": 94
    },
    {
        "deltaTime": 0,
        "running": true,
        "channel": 5,
        "type": "noteOn",
        "noteNumber": 82,
        "velocity": 94
    },
    {
        "deltaTime": 0,
        "channel": 9,
        "type": "noteOn",
        "noteNumber": 44,
        "velocity": 107
    },
    {
        "deltaTime": 0,
        "running": true,
        "channel": 9,
        "type": "noteOn",
        "noteNumber": 54,
        "velocity": 109
    },
    {
        "deltaTime": 12,
        "running": true,
        "channel": 9,
        "type": "noteOff",
        "noteNumber": 44,
        "velocity": 0,
        "byte9": true
    },
    {
        "deltaTime": 0,
        "running": true,
        "channel": 9,
        "type": "noteOff",
        "noteNumber": 54,
        "velocity": 0,
        "byte9": true
    },
    {
        "deltaTime": 13,
        "channel": 14,
        "type": "noteOn",
        "noteNumber": 62,
        "velocity": 109
    },
    {
        "deltaTime": 0,
        "running": true,
        "channel": 14,
        "type": "noteOn",
        "noteNumber": 65,
        "velocity": 94
    },
    {
        "deltaTime": 0,
        "running": true,
        "channel": 14,
        "type": "noteOn",
        "noteNumber": 70,
        "velocity": 94
    },
    {
        "deltaTime": 34,
        "channel": 3,
        "type": "noteOff",
        "noteNumber": 74,
        "velocity": 0,
        "byte9": true
    },
    {
        "deltaTime": 42,
        "channel": 1,
        "type": "noteOff",
        "noteNumber": 34,
        "velocity": 0,
        "byte9": true
    },
    {
        "deltaTime": 0,
        "channel": 8,
        "type": "noteOff",
        "noteNumber": 34,
        "velocity": 0,
        "byte9": true
    },
    {
        "deltaTime": 40,
        "channel": 5,
        "type": "noteOff",
        "noteNumber": 82,
        "velocity": 0,
        "byte9": true
    },
    {
        "deltaTime": 13,
        "running": true,
        "channel": 5,
        "type": "noteOff",
        "noteNumber": 74,
        "velocity": 0,
        "byte9": true
    },
    {
        "deltaTime": 0,
        "running": true,
        "channel": 5,
        "type": "noteOff",
        "noteNumber": 77,
        "velocity": 0,
        "byte9": true
    },
    {
        "deltaTime": 12,
        "channel": 14,
        "type": "noteOff",
        "noteNumber": 70,
        "velocity": 0,
        "byte9": true
    },
    {
        "deltaTime": 13,
        "running": true,
        "channel": 14,
        "type": "noteOff",
        "noteNumber": 62,
        "velocity": 0,
        "byte9": true
    },
    {
        "deltaTime": 0,
        "running": true,
        "channel": 14,
        "type": "noteOff",
        "noteNumber": 65,
        "velocity": 0,
        "byte9": true
    },
    {
        "deltaTime": 0,
        "channel": 3,
        "type": "noteOn",
        "noteNumber": 69,
        "velocity": 127
    },
    {
        "deltaTime": 64,
        "channel": 1,
        "type": "noteOn",
        "noteNumber": 34,
        "velocity": 99
    },
    {
        "deltaTime": 0,
        "channel": 8,
        "type": "noteOn",
        "noteNumber": 34,
        "velocity": 99
    },
    {
        "deltaTime": 64,
        "channel": 3,
        "type": "noteOff",
        "noteNumber": 69,
        "velocity": 0,
        "byte9": true
    },
    {
        "deltaTime": 0,
        "channel": 3,
        "type": "noteOn",
        "noteNumber": 74,
        "velocity": 127
    },
    {
        "deltaTime": 22,
        "channel": 5,
        "type": "noteOn",
        "noteNumber": 74,
        "velocity": 109
    },
    {
        "deltaTime": 0,
        "running": true,
        "channel": 5,
        "type": "noteOn",
        "noteNumber": 77,
        "velocity": 94
    },
    {
        "deltaTime": 0,
        "running": true,
        "channel": 5,
        "type": "noteOn",
        "noteNumber": 82,
        "velocity": 101
    },
    {
        "deltaTime": 0,
        "channel": 9,
        "type": "noteOn",
        "noteNumber": 35,
        "velocity": 114
    },
    {
        "deltaTime": 0,
        "channel": 11,
        "type": "noteOn",
        "noteNumber": 41,
        "velocity": 114
    },
    {
        "deltaTime": 12,
        "channel": 9,
        "type": "noteOff",
        "noteNumber": 35,
        "velocity": 0,
        "byte9": true
    },
    {
        "deltaTime": 13,
        "channel": 14,
        "type": "noteOn",
        "noteNumber": 62,
        "velocity": 109
    },
    {
        "deltaTime": 0,
        "running": true,
        "channel": 14,
        "type": "noteOn",
        "noteNumber": 65,
        "velocity": 94
    },
    {
        "deltaTime": 0,
        "running": true,
        "channel": 14,
        "type": "noteOn",
        "noteNumber": 70,
        "velocity": 101
    },
    {
        "deltaTime": 130,
        "channel": 5,
        "type": "noteOff",
        "noteNumber": 82,
        "velocity": 0,
        "byte9": true
    },
    {
        "deltaTime": 6,
        "channel": 11,
        "type": "noteOff",
        "noteNumber": 41,
        "velocity": 0,
        "byte9": true
    },
    {
        "deltaTime": 10,
        "channel": 5,
        "type": "noteOff",
        "noteNumber": 74,
        "velocity": 0,
        "byte9": true
    },
    {
        "deltaTime": 0,
        "running": true,
        "channel": 5,
        "type": "noteOff",
        "noteNumber": 77,
        "velocity": 0,
        "byte9": true
    },
    {
        "deltaTime": 9,
        "channel": 14,
        "type": "noteOff",
        "noteNumber": 70,
        "velocity": 0,
        "byte9": true
    },
    {
        "deltaTime": 16,
        "running": true,
        "channel": 14,
        "type": "noteOff",
        "noteNumber": 62,
        "velocity": 0,
        "byte9": true
    },
    {
        "deltaTime": 0,
        "running": true,
        "channel": 14,
        "type": "noteOff",
        "noteNumber": 65,
        "velocity": 0,
        "byte9": true
    },
    {
        "deltaTime": 29,
        "channel": 3,
        "type": "noteOff",
        "noteNumber": 74,
        "velocity": 0,
        "byte9": true
    },
    {
        "deltaTime": 0,
        "channel": 3,
        "type": "noteOn",
        "noteNumber": 69,
        "velocity": 127
    },
    {
        "deltaTime": 50,
        "channel": 5,
        "type": "noteOn",
        "noteNumber": 74,
        "velocity": 108
    },
    {
        "deltaTime": 0,
        "running": true,
        "channel": 5,
        "type": "noteOn",
        "noteNumber": 77,
        "velocity": 97
    },
    {
        "deltaTime": 0,
        "running": true,
        "channel": 5,
        "type": "noteOn",
        "noteNumber": 82,
        "velocity": 98
    },
    {
        "deltaTime": 0,
        "channel": 9,
        "type": "noteOn",
        "noteNumber": 44,
        "velocity": 107
    },
    {
        "deltaTime": 0,
        "running": true,
        "channel": 9,
        "type": "noteOn",
        "noteNumber": 69,
        "velocity": 109
    },
    {
        "deltaTime": 12,
        "running": true,
        "channel": 9,
        "type": "noteOff",
        "noteNumber": 44,
        "velocity": 0,
        "byte9": true
    },
    {
        "deltaTime": 0,
        "running": true,
        "channel": 9,
        "type": "noteOff",
        "noteNumber": 69,
        "velocity": 0,
        "byte9": true
    },
    {
        "deltaTime": 13,
        "channel": 14,
        "type": "noteOn",
        "noteNumber": 62,
        "velocity": 108
    },
    {
        "deltaTime": 0,
        "running": true,
        "channel": 14,
        "type": "noteOn",
        "noteNumber": 65,
        "velocity": 97
    },
    {
        "deltaTime": 0,
        "running": true,
        "channel": 14,
        "type": "noteOn",
        "noteNumber": 70,
        "velocity": 98
    },
    {
        "deltaTime": 76,
        "channel": 1,
        "type": "noteOff",
        "noteNumber": 34,
        "velocity": 0,
        "byte9": true
    },
    {
        "deltaTime": 0,
        "channel": 8,
        "type": "noteOff",
        "noteNumber": 34,
        "velocity": 0,
        "byte9": true
    },
    {
        "deltaTime": 45,
        "channel": 5,
        "type": "noteOff",
        "noteNumber": 82,
        "velocity": 0,
        "byte9": true
    },
    {
        "deltaTime": 12,
        "running": true,
        "channel": 5,
        "type": "noteOff",
        "noteNumber": 74,
        "velocity": 0,
        "byte9": true
    },
    {
        "deltaTime": 5,
        "running": true,
        "channel": 5,
        "type": "noteOff",
        "noteNumber": 77,
        "velocity": 0,
        "byte9": true
    },
    {
        "deltaTime": 8,
        "channel": 14,
        "type": "noteOff",
        "noteNumber": 70,
        "velocity": 0,
        "byte9": true
    },
    {
        "deltaTime": 12,
        "running": true,
        "channel": 14,
        "type": "noteOff",
        "noteNumber": 62,
        "velocity": 0,
        "byte9": true
    },
    {
        "deltaTime": 5,
        "running": true,
        "channel": 14,
        "type": "noteOff",
        "noteNumber": 65,
        "velocity": 0,
        "byte9": true
    },
    {
        "deltaTime": 132,
        "channel": 1,
        "type": "noteOn",
        "noteNumber": 34,
        "velocity": 99
    },
    {
        "deltaTime": 0,
        "channel": 8,
        "type": "noteOn",
        "noteNumber": 34,
        "velocity": 99
    },
    {
        "deltaTime": 0,
        "channel": 9,
        "type": "noteOn",
        "noteNumber": 35,
        "velocity": 114
    },
    {
        "deltaTime": 0,
        "channel": 11,
        "type": "noteOn",
        "noteNumber": 41,
        "velocity": 114
    },
    {
        "deltaTime": 12,
        "channel": 9,
        "type": "noteOff",
        "noteNumber": 35,
        "velocity": 0,
        "byte9": true
    },
    {
        "deltaTime": 76,
        "channel": 3,
        "type": "noteOff",
        "noteNumber": 69,
        "velocity": 0,
        "byte9": true
    },
    {
        "deltaTime": 0,
        "channel": 3,
        "type": "noteOn",
        "noteNumber": 74,
        "velocity": 114
    },
    {
        "deltaTime": 40,
        "channel": 5,
        "type": "noteOn",
        "noteNumber": 74,
        "velocity": 105
    },
    {
        "deltaTime": 0,
        "running": true,
        "channel": 5,
        "type": "noteOn",
        "noteNumber": 77,
        "velocity": 89
    },
    {
        "deltaTime": 0,
        "running": true,
        "channel": 5,
        "type": "noteOn",
        "noteNumber": 82,
        "velocity": 94
    },
    {
        "deltaTime": 1,
        "channel": 11,
        "type": "noteOff",
        "noteNumber": 41,
        "velocity": 0,
        "byte9": true
    },
    {
        "deltaTime": 24,
        "channel": 14,
        "type": "noteOn",
        "noteNumber": 62,
        "velocity": 105
    },
    {
        "deltaTime": 0,
        "running": true,
        "channel": 14,
        "type": "noteOn",
        "noteNumber": 65,
        "velocity": 89
    },
    {
        "deltaTime": 0,
        "running": true,
        "channel": 14,
        "type": "noteOn",
        "noteNumber": 70,
        "velocity": 94
    },
    {
        "deltaTime": 121,
        "channel": 5,
        "type": "noteOff",
        "noteNumber": 82,
        "velocity": 0,
        "byte9": true
    },
    {
        "deltaTime": 22,
        "running": true,
        "channel": 5,
        "type": "noteOff",
        "noteNumber": 74,
        "velocity": 0,
        "byte9": true
    },
    {
        "deltaTime": 0,
        "running": true,
        "channel": 5,
        "type": "noteOff",
        "noteNumber": 77,
        "velocity": 0,
        "byte9": true
    },
    {
        "deltaTime": 3,
        "channel": 14,
        "type": "noteOff",
        "noteNumber": 70,
        "velocity": 0,
        "byte9": true
    },
    {
        "deltaTime": 22,
        "running": true,
        "channel": 14,
        "type": "noteOff",
        "noteNumber": 62,
        "velocity": 0,
        "byte9": true
    },
    {
        "deltaTime": 0,
        "running": true,
        "channel": 14,
        "type": "noteOff",
        "noteNumber": 65,
        "velocity": 0,
        "byte9": true
    },
    {
        "deltaTime": 49,
        "channel": 3,
        "type": "noteOff",
        "noteNumber": 74,
        "velocity": 0,
        "byte9": true
    },
    {
        "deltaTime": 74,
        "channel": 1,
        "type": "noteOff",
        "noteNumber": 34,
        "velocity": 0,
        "byte9": true
    },
    {
        "deltaTime": 0,
        "channel": 8,
        "type": "noteOff",
        "noteNumber": 34,
        "velocity": 0,
        "byte9": true
    },
    {
        "deltaTime": 4,
        "channel": 1,
        "type": "noteOn",
        "noteNumber": 41,
        "velocity": 99
    },
    {
        "deltaTime": 0,
        "channel": 8,
        "type": "noteOn",
        "noteNumber": 41,
        "velocity": 99
    },
    {
        "deltaTime": 0,
        "channel": 9,
        "type": "noteOn",
        "noteNumber": 35,
        "velocity": 114
    },
    {
        "deltaTime": 0,
        "running": true,
        "channel": 9,
        "type": "noteOn",
        "noteNumber": 70,
        "velocity": 65
    },
    {
        "deltaTime": 0,
        "channel": 11,
        "type": "noteOn",
        "noteNumber": 41,
        "velocity": 114
    },
    {
        "deltaTime": 12,
        "channel": 9,
        "type": "noteOff",
        "noteNumber": 35,
        "velocity": 0,
        "byte9": true
    },
    {
        "deltaTime": 0,
        "running": true,
        "channel": 9,
        "type": "noteOff",
        "noteNumber": 70,
        "velocity": 0,
        "byte9": true
    },
    {
        "deltaTime": 0,
        "channel": 3,
        "type": "noteOn",
        "noteNumber": 74,
        "velocity": 124
    },
    {
        "deltaTime": 48,
        "channel": 5,
        "type": "noteOn",
        "noteNumber": 74,
        "velocity": 109
    },
    {
        "deltaTime": 0,
        "running": true,
        "channel": 5,
        "type": "noteOn",
        "noteNumber": 77,
        "velocity": 97
    },
    {
        "deltaTime": 0,
        "running": true,
        "channel": 5,
        "type": "noteOn",
        "noteNumber": 82,
        "velocity": 110
    },
    {
        "deltaTime": 0,
        "channel": 9,
        "type": "noteOn",
        "noteNumber": 44,
        "velocity": 107
    },
    {
        "deltaTime": 0,
        "running": true,
        "channel": 9,
        "type": "noteOn",
        "noteNumber": 54,
        "velocity": 109
    },
    {
        "deltaTime": 1,
        "channel": 11,
        "type": "noteOff",
        "noteNumber": 41,
        "velocity": 0,
        "byte9": true
    },
    {
        "deltaTime": 11,
        "channel": 9,
        "type": "noteOff",
        "noteNumber": 44,
        "velocity": 0,
        "byte9": true
    },
    {
        "deltaTime": 0,
        "running": true,
        "channel": 9,
        "type": "noteOff",
        "noteNumber": 54,
        "velocity": 0,
        "byte9": true
    },
    {
        "deltaTime": 13,
        "channel": 14,
        "type": "noteOn",
        "noteNumber": 62,
        "velocity": 109
    },
    {
        "deltaTime": 0,
        "running": true,
        "channel": 14,
        "type": "noteOn",
        "noteNumber": 65,
        "velocity": 97
    },
    {
        "deltaTime": 0,
        "running": true,
        "channel": 14,
        "type": "noteOn",
        "noteNumber": 70,
        "velocity": 110
    },
    {
        "deltaTime": 124,
        "channel": 5,
        "type": "noteOff",
        "noteNumber": 82,
        "velocity": 0,
        "byte9": true
    },
    {
        "deltaTime": 9,
        "running": true,
        "channel": 5,
        "type": "noteOff",
        "noteNumber": 74,
        "velocity": 0,
        "byte9": true
    },
    {
        "deltaTime": 3,
        "running": true,
        "channel": 5,
        "type": "noteOff",
        "noteNumber": 77,
        "velocity": 0,
        "byte9": true
    },
    {
        "deltaTime": 13,
        "channel": 14,
        "type": "noteOff",
        "noteNumber": 70,
        "velocity": 0,
        "byte9": true
    },
    {
        "deltaTime": 9,
        "running": true,
        "channel": 14,
        "type": "noteOff",
        "noteNumber": 62,
        "velocity": 0,
        "byte9": true
    },
    {
        "deltaTime": 3,
        "running": true,
        "channel": 14,
        "type": "noteOff",
        "noteNumber": 65,
        "velocity": 0,
        "byte9": true
    },
    {
        "deltaTime": 130,
        "channel": 1,
        "type": "noteOff",
        "noteNumber": 41,
        "velocity": 0,
        "byte9": true
    },
    {
        "deltaTime": 0,
        "channel": 8,
        "type": "noteOff",
        "noteNumber": 41,
        "velocity": 0,
        "byte9": true
    },
    {
        "deltaTime": 4,
        "channel": 1,
        "type": "noteOn",
        "noteNumber": 34,
        "velocity": 99
    },
    {
        "deltaTime": 0,
        "channel": 8,
        "type": "noteOn",
        "noteNumber": 34,
        "velocity": 99
    },
    {
        "deltaTime": 0,
        "channel": 1,
        "type": "noteOff",
        "noteNumber": 34,
        "velocity": 0,
        "byte9": true
    },
    {
        "deltaTime": 0,
        "channel": 8,
        "type": "noteOff",
        "noteNumber": 34,
        "velocity": 0,
        "byte9": true
    },
    {
        "deltaTime": 160,
        "channel": 1,
        "type": "noteOn",
        "noteNumber": 33,
        "velocity": 99
    },
    {
        "deltaTime": 0,
        "channel": 5,
        "type": "noteOn",
        "noteNumber": 73,
        "velocity": 101
    },
    {
        "deltaTime": 0,
        "running": true,
        "channel": 5,
        "type": "noteOn",
        "noteNumber": 76,
        "velocity": 97
    },
    {
        "deltaTime": 0,
        "running": true,
        "channel": 5,
        "type": "noteOn",
        "noteNumber": 81,
        "velocity": 105
    },
    {
        "deltaTime": 0,
        "channel": 7,
        "type": "noteOn",
        "noteNumber": 81,
        "velocity": 119
    },
    {
        "deltaTime": 0,
        "channel": 8,
        "type": "noteOn",
        "noteNumber": 33,
        "velocity": 99
    },
    {
        "deltaTime": 0,
        "channel": 9,
        "type": "noteOn",
        "noteNumber": 35,
        "velocity": 114
    },
    {
        "deltaTime": 0,
        "channel": 11,
        "type": "noteOn",
        "noteNumber": 41,
        "velocity": 114
    },
    {
        "deltaTime": 12,
        "channel": 9,
        "type": "noteOff",
        "noteNumber": 35,
        "velocity": 0,
        "byte9": true
    },
    {
        "deltaTime": 13,
        "channel": 14,
        "type": "noteOn",
        "noteNumber": 61,
        "velocity": 101
    },
    {
        "deltaTime": 0,
        "running": true,
        "channel": 14,
        "type": "noteOn",
        "noteNumber": 64,
        "velocity": 97
    },
    {
        "deltaTime": 0,
        "running": true,
        "channel": 14,
        "type": "noteOn",
        "noteNumber": 69,
        "velocity": 105
    },
    {
        "deltaTime": 48,
        "channel": 5,
        "type": "noteOff",
        "noteNumber": 81,
        "velocity": 0,
        "byte9": true
    },
    {
        "deltaTime": 25,
        "channel": 14,
        "type": "noteOff",
        "noteNumber": 69,
        "velocity": 0,
        "byte9": true
    },
    {
        "deltaTime": 23,
        "channel": 5,
        "type": "noteOff",
        "noteNumber": 76,
        "velocity": 0,
        "byte9": true
    },
    {
        "deltaTime": 2,
        "running": true,
        "channel": 5,
        "type": "noteOff",
        "noteNumber": 73,
        "velocity": 0,
        "byte9": true
    },
    {
        "deltaTime": 23,
        "channel": 14,
        "type": "noteOff",
        "noteNumber": 64,
        "velocity": 0,
        "byte9": true
    },
    {
        "deltaTime": 2,
        "running": true,
        "channel": 14,
        "type": "noteOff",
        "noteNumber": 61,
        "velocity": 0,
        "byte9": true
    },
    {
        "deltaTime": 13,
        "channel": 11,
        "type": "noteOff",
        "noteNumber": 41,
        "velocity": 0,
        "byte9": true
    },
    {
        "deltaTime": 49,
        "channel": 3,
        "type": "noteOff",
        "noteNumber": 74,
        "velocity": 0,
        "byte9": true
    },
    {
        "deltaTime": 0,
        "channel": 3,
        "type": "noteOn",
        "noteNumber": 73,
        "velocity": 122
    },
    {
        "deltaTime": 100,
        "channel": 5,
        "type": "noteOn",
        "noteNumber": 73,
        "velocity": 111
    },
    {
        "deltaTime": 0,
        "running": true,
        "channel": 5,
        "type": "noteOn",
        "noteNumber": 76,
        "velocity": 107
    },
    {
        "deltaTime": 0,
        "running": true,
        "channel": 5,
        "type": "noteOn",
        "noteNumber": 81,
        "velocity": 105
    },
    {
        "deltaTime": 0,
        "channel": 9,
        "type": "noteOn",
        "noteNumber": 44,
        "velocity": 107
    },
    {
        "deltaTime": 0,
        "running": true,
        "channel": 9,
        "type": "noteOn",
        "noteNumber": 69,
        "velocity": 109
    },
    {
        "deltaTime": 12,
        "running": true,
        "channel": 9,
        "type": "noteOff",
        "noteNumber": 44,
        "velocity": 0,
        "byte9": true
    },
    {
        "deltaTime": 0,
        "running": true,
        "channel": 9,
        "type": "noteOff",
        "noteNumber": 69,
        "velocity": 0,
        "byte9": true
    },
    {
        "deltaTime": 13,
        "channel": 14,
        "type": "noteOn",
        "noteNumber": 61,
        "velocity": 111
    },
    {
        "deltaTime": 0,
        "running": true,
        "channel": 14,
        "type": "noteOn",
        "noteNumber": 64,
        "velocity": 107
    },
    {
        "deltaTime": 0,
        "running": true,
        "channel": 14,
        "type": "noteOn",
        "noteNumber": 69,
        "velocity": 105
    },
    {
        "deltaTime": 132,
        "channel": 5,
        "type": "noteOff",
        "noteNumber": 81,
        "velocity": 0,
        "byte9": true
    },
    {
        "deltaTime": 4,
        "channel": 7,
        "type": "noteOff",
        "noteNumber": 81,
        "velocity": 0,
        "byte9": true
    },
    {
        "deltaTime": 3,
        "channel": 5,
        "type": "noteOff",
        "noteNumber": 76,
        "velocity": 0,
        "byte9": true
    },
    {
        "deltaTime": 4,
        "running": true,
        "channel": 5,
        "type": "noteOff",
        "noteNumber": 73,
        "velocity": 0,
        "byte9": true
    },
    {
        "deltaTime": 14,
        "channel": 14,
        "type": "noteOff",
        "noteNumber": 69,
        "velocity": 0,
        "byte9": true
    },
    {
        "deltaTime": 7,
        "running": true,
        "channel": 14,
        "type": "noteOff",
        "noteNumber": 64,
        "velocity": 0,
        "byte9": true
    },
    {
        "deltaTime": 4,
        "running": true,
        "channel": 14,
        "type": "noteOff",
        "noteNumber": 61,
        "velocity": 0,
        "byte9": true
    },
    {
        "deltaTime": 68,
        "channel": 1,
        "type": "noteOff",
        "noteNumber": 33,
        "velocity": 0,
        "byte9": true
    },
    {
        "deltaTime": 0,
        "channel": 8,
        "type": "noteOff",
        "noteNumber": 33,
        "velocity": 0,
        "byte9": true
    },
    {
        "deltaTime": 59,
        "channel": 1,
        "type": "noteOn",
        "noteNumber": 33,
        "velocity": 99
    },
    {
        "deltaTime": 0,
        "channel": 8,
        "type": "noteOn",
        "noteNumber": 33,
        "velocity": 99
    },
    {
        "deltaTime": 0,
        "channel": 9,
        "type": "noteOn",
        "noteNumber": 35,
        "velocity": 107
    },
    {
        "deltaTime": 0,
        "channel": 11,
        "type": "noteOn",
        "noteNumber": 41,
        "velocity": 107
    },
    {
        "deltaTime": 12,
        "channel": 9,
        "type": "noteOff",
        "noteNumber": 35,
        "velocity": 0,
        "byte9": true
    },
    {
        "deltaTime": 148,
        "channel": 5,
        "type": "noteOn",
        "noteNumber": 73,
        "velocity": 105
    },
    {
        "deltaTime": 0,
        "running": true,
        "channel": 5,
        "type": "noteOn",
        "noteNumber": 76,
        "velocity": 94
    },
    {
        "deltaTime": 0,
        "running": true,
        "channel": 5,
        "type": "noteOn",
        "noteNumber": 81,
        "velocity": 94
    },
    {
        "deltaTime": 0,
        "channel": 9,
        "type": "noteOn",
        "noteNumber": 35,
        "velocity": 114
    },
    {
        "deltaTime": 0,
        "channel": 11,
        "type": "noteOn",
        "noteNumber": 41,
        "velocity": 114
    },
    {
        "deltaTime": 1,
        "running": true,
        "channel": 11,
        "type": "noteOff",
        "noteNumber": 41,
        "velocity": 0,
        "byte9": true
    },
    {
        "deltaTime": 11,
        "channel": 9,
        "type": "noteOff",
        "noteNumber": 35,
        "velocity": 0,
        "byte9": true
    },
    {
        "deltaTime": 13,
        "channel": 14,
        "type": "noteOn",
        "noteNumber": 61,
        "velocity": 105
    },
    {
        "deltaTime": 0,
        "running": true,
        "channel": 14,
        "type": "noteOn",
        "noteNumber": 64,
        "velocity": 94
    },
    {
        "deltaTime": 0,
        "running": true,
        "channel": 14,
        "type": "noteOn",
        "noteNumber": 69,
        "velocity": 94
    },
    {
        "deltaTime": 130,
        "channel": 5,
        "type": "noteOff",
        "noteNumber": 81,
        "velocity": 0,
        "byte9": true
    },
    {
        "deltaTime": 6,
        "channel": 11,
        "type": "noteOff",
        "noteNumber": 41,
        "velocity": 0,
        "byte9": true
    },
    {
        "deltaTime": 2,
        "channel": 5,
        "type": "noteOff",
        "noteNumber": 73,
        "velocity": 0,
        "byte9": true
    },
    {
        "deltaTime": 4,
        "running": true,
        "channel": 5,
        "type": "noteOff",
        "noteNumber": 76,
        "velocity": 0,
        "byte9": true
    },
    {
        "deltaTime": 13,
        "channel": 14,
        "type": "noteOff",
        "noteNumber": 69,
        "velocity": 0,
        "byte9": true
    },
    {
        "deltaTime": 8,
        "running": true,
        "channel": 14,
        "type": "noteOff",
        "noteNumber": 61,
        "velocity": 0,
        "byte9": true
    },
    {
        "deltaTime": 4,
        "running": true,
        "channel": 14,
        "type": "noteOff",
        "noteNumber": 64,
        "velocity": 0,
        "byte9": true
    },
    {
        "deltaTime": 128,
        "channel": 9,
        "type": "noteOn",
        "noteNumber": 70,
        "velocity": 65
    },
    {
        "deltaTime": 12,
        "running": true,
        "channel": 9,
        "type": "noteOff",
        "noteNumber": 70,
        "velocity": 0,
        "byte9": true
    },
    {
        "deltaTime": 148,
        "channel": 5,
        "type": "noteOn",
        "noteNumber": 73,
        "velocity": 109
    },
    {
        "deltaTime": 0,
        "running": true,
        "channel": 5,
        "type": "noteOn",
        "noteNumber": 76,
        "velocity": 94
    },
    {
        "deltaTime": 0,
        "running": true,
        "channel": 5,
        "type": "noteOn",
        "noteNumber": 81,
        "velocity": 94
    },
    {
        "deltaTime": 0,
        "channel": 9,
        "type": "noteOn",
        "noteNumber": 44,
        "velocity": 107
    },
    {
        "deltaTime": 0,
        "running": true,
        "channel": 9,
        "type": "noteOn",
        "noteNumber": 54,
        "velocity": 109
    },
    {
        "deltaTime": 12,
        "running": true,
        "channel": 9,
        "type": "noteOff",
        "noteNumber": 44,
        "velocity": 0,
        "byte9": true
    },
    {
        "deltaTime": 0,
        "running": true,
        "channel": 9,
        "type": "noteOff",
        "noteNumber": 54,
        "velocity": 0,
        "byte9": true
    },
    {
        "deltaTime": 13,
        "channel": 14,
        "type": "noteOn",
        "noteNumber": 61,
        "velocity": 109
    },
    {
        "deltaTime": 0,
        "running": true,
        "channel": 14,
        "type": "noteOn",
        "noteNumber": 64,
        "velocity": 94
    },
    {
        "deltaTime": 0,
        "running": true,
        "channel": 14,
        "type": "noteOn",
        "noteNumber": 69,
        "velocity": 94
    },
    {
        "deltaTime": 76,
        "channel": 1,
        "type": "noteOff",
        "noteNumber": 33,
        "velocity": 0,
        "byte9": true
    },
    {
        "deltaTime": 0,
        "channel": 8,
        "type": "noteOff",
        "noteNumber": 33,
        "velocity": 0,
        "byte9": true
    },
    {
        "deltaTime": 40,
        "channel": 5,
        "type": "noteOff",
        "noteNumber": 81,
        "velocity": 0,
        "byte9": true
    },
    {
        "deltaTime": 13,
        "running": true,
        "channel": 5,
        "type": "noteOff",
        "noteNumber": 73,
        "velocity": 0,
        "byte9": true
    },
    {
        "deltaTime": 0,
        "running": true,
        "channel": 5,
        "type": "noteOff",
        "noteNumber": 76,
        "velocity": 0,
        "byte9": true
    },
    {
        "deltaTime": 12,
        "channel": 14,
        "type": "noteOff",
        "noteNumber": 69,
        "velocity": 0,
        "byte9": true
    },
    {
        "deltaTime": 13,
        "running": true,
        "channel": 14,
        "type": "noteOff",
        "noteNumber": 61,
        "velocity": 0,
        "byte9": true
    },
    {
        "deltaTime": 0,
        "running": true,
        "channel": 14,
        "type": "noteOff",
        "noteNumber": 64,
        "velocity": 0,
        "byte9": true
    },
    {
        "deltaTime": 141,
        "channel": 1,
        "type": "noteOn",
        "noteNumber": 33,
        "velocity": 99
    },
    {
        "deltaTime": 0,
        "channel": 8,
        "type": "noteOn",
        "noteNumber": 33,
        "velocity": 99
    },
    {
        "deltaTime": 160,
        "channel": 5,
        "type": "noteOn",
        "noteNumber": 73,
        "velocity": 109
    },
    {
        "deltaTime": 0,
        "running": true,
        "channel": 5,
        "type": "noteOn",
        "noteNumber": 76,
        "velocity": 94
    },
    {
        "deltaTime": 0,
        "running": true,
        "channel": 5,
        "type": "noteOn",
        "noteNumber": 81,
        "velocity": 101
    },
    {
        "deltaTime": 0,
        "channel": 7,
        "type": "noteOn",
        "noteNumber": 81,
        "velocity": 119
    },
    {
        "deltaTime": 0,
        "channel": 9,
        "type": "noteOn",
        "noteNumber": 35,
        "velocity": 114
    },
    {
        "deltaTime": 0,
        "channel": 11,
        "type": "noteOn",
        "noteNumber": 41,
        "velocity": 114
    },
    {
        "deltaTime": 12,
        "channel": 9,
        "type": "noteOff",
        "noteNumber": 35,
        "velocity": 0,
        "byte9": true
    },
    {
        "deltaTime": 13,
        "channel": 14,
        "type": "noteOn",
        "noteNumber": 61,
        "velocity": 109
    },
    {
        "deltaTime": 0,
        "running": true,
        "channel": 14,
        "type": "noteOn",
        "noteNumber": 64,
        "velocity": 94
    },
    {
        "deltaTime": 0,
        "running": true,
        "channel": 14,
        "type": "noteOn",
        "noteNumber": 69,
        "velocity": 101
    },
    {
        "deltaTime": 130,
        "channel": 5,
        "type": "noteOff",
        "noteNumber": 81,
        "velocity": 0,
        "byte9": true
    },
    {
        "deltaTime": 6,
        "channel": 11,
        "type": "noteOff",
        "noteNumber": 41,
        "velocity": 0,
        "byte9": true
    },
    {
        "deltaTime": 10,
        "channel": 5,
        "type": "noteOff",
        "noteNumber": 73,
        "velocity": 0,
        "byte9": true
    },
    {
        "deltaTime": 0,
        "running": true,
        "channel": 5,
        "type": "noteOff",
        "noteNumber": 76,
        "velocity": 0,
        "byte9": true
    },
    {
        "deltaTime": 9,
        "channel": 14,
        "type": "noteOff",
        "noteNumber": 69,
        "velocity": 0,
        "byte9": true
    },
    {
        "deltaTime": 16,
        "running": true,
        "channel": 14,
        "type": "noteOff",
        "noteNumber": 61,
        "velocity": 0,
        "byte9": true
    },
    {
        "deltaTime": 0,
        "running": true,
        "channel": 14,
        "type": "noteOff",
        "noteNumber": 64,
        "velocity": 0,
        "byte9": true
    },
    {
        "deltaTime": 64,
        "channel": 3,
        "type": "noteOff",
        "noteNumber": 73,
        "velocity": 0,
        "byte9": true
    },
    {
        "deltaTime": 216,
        "channel": 7,
        "type": "noteOff",
        "noteNumber": 81,
        "velocity": 0,
        "byte9": true
    },
    {
        "deltaTime": 4,
        "channel": 5,
        "type": "noteOn",
        "noteNumber": 73,
        "velocity": 108
    },
    {
        "deltaTime": 0,
        "running": true,
        "channel": 5,
        "type": "noteOn",
        "noteNumber": 76,
        "velocity": 97
    },
    {
        "deltaTime": 0,
        "running": true,
        "channel": 5,
        "type": "noteOn",
        "noteNumber": 81,
        "velocity": 98
    },
    {
        "deltaTime": 0,
        "channel": 7,
        "type": "noteOn",
        "noteNumber": 79,
        "velocity": 119
    },
    {
        "deltaTime": 0,
        "channel": 9,
        "type": "noteOn",
        "noteNumber": 44,
        "velocity": 107
    },
    {
        "deltaTime": 0,
        "running": true,
        "channel": 9,
        "type": "noteOn",
        "noteNumber": 69,
        "velocity": 109
    },
    {
        "deltaTime": 12,
        "running": true,
        "channel": 9,
        "type": "noteOff",
        "noteNumber": 44,
        "velocity": 0,
        "byte9": true
    },
    {
        "deltaTime": 0,
        "running": true,
        "channel": 9,
        "type": "noteOff",
        "noteNumber": 69,
        "velocity": 0,
        "byte9": true
    },
    {
        "deltaTime": 13,
        "channel": 14,
        "type": "noteOn",
        "noteNumber": 61,
        "velocity": 108
    },
    {
        "deltaTime": 0,
        "running": true,
        "channel": 14,
        "type": "noteOn",
        "noteNumber": 64,
        "velocity": 97
    },
    {
        "deltaTime": 0,
        "running": true,
        "channel": 14,
        "type": "noteOn",
        "noteNumber": 69,
        "velocity": 98
    },
    {
        "deltaTime": 76,
        "channel": 1,
        "type": "noteOff",
        "noteNumber": 33,
        "velocity": 0,
        "byte9": true
    },
    {
        "deltaTime": 0,
        "channel": 8,
        "type": "noteOff",
        "noteNumber": 33,
        "velocity": 0,
        "byte9": true
    },
    {
        "deltaTime": 45,
        "channel": 5,
        "type": "noteOff",
        "noteNumber": 81,
        "velocity": 0,
        "byte9": true
    },
    {
        "deltaTime": 12,
        "running": true,
        "channel": 5,
        "type": "noteOff",
        "noteNumber": 73,
        "velocity": 0,
        "byte9": true
    },
    {
        "deltaTime": 5,
        "running": true,
        "channel": 5,
        "type": "noteOff",
        "noteNumber": 76,
        "velocity": 0,
        "byte9": true
    },
    {
        "deltaTime": 8,
        "channel": 14,
        "type": "noteOff",
        "noteNumber": 69,
        "velocity": 0,
        "byte9": true
    },
    {
        "deltaTime": 12,
        "running": true,
        "channel": 14,
        "type": "noteOff",
        "noteNumber": 61,
        "velocity": 0,
        "byte9": true
    },
    {
        "deltaTime": 5,
        "running": true,
        "channel": 14,
        "type": "noteOff",
        "noteNumber": 64,
        "velocity": 0,
        "byte9": true
    },
    {
        "deltaTime": 132,
        "channel": 1,
        "type": "noteOn",
        "noteNumber": 33,
        "velocity": 99
    },
    {
        "deltaTime": 0,
        "channel": 8,
        "type": "noteOn",
        "noteNumber": 33,
        "velocity": 99
    },
    {
        "deltaTime": 0,
        "channel": 9,
        "type": "noteOn",
        "noteNumber": 35,
        "velocity": 114
    },
    {
        "deltaTime": 0,
        "channel": 11,
        "type": "noteOn",
        "noteNumber": 41,
        "velocity": 114
    },
    {
        "deltaTime": 12,
        "channel": 9,
        "type": "noteOff",
        "noteNumber": 35,
        "velocity": 0,
        "byte9": true
    },
    {
        "deltaTime": 144,
        "channel": 7,
        "type": "noteOff",
        "noteNumber": 79,
        "velocity": 0,
        "byte9": true
    },
    {
        "deltaTime": 4,
        "channel": 5,
        "type": "noteOn",
        "noteNumber": 73,
        "velocity": 105
    },
    {
        "deltaTime": 0,
        "running": true,
        "channel": 5,
        "type": "noteOn",
        "noteNumber": 76,
        "velocity": 89
    },
    {
        "deltaTime": 0,
        "running": true,
        "channel": 5,
        "type": "noteOn",
        "noteNumber": 81,
        "velocity": 94
    },
    {
        "deltaTime": 0,
        "channel": 7,
        "type": "noteOn",
        "noteNumber": 77,
        "velocity": 119
    },
    {
        "deltaTime": 1,
        "channel": 11,
        "type": "noteOff",
        "noteNumber": 41,
        "velocity": 0,
        "byte9": true
    },
    {
        "deltaTime": 24,
        "channel": 14,
        "type": "noteOn",
        "noteNumber": 61,
        "velocity": 105
    },
    {
        "deltaTime": 0,
        "running": true,
        "channel": 14,
        "type": "noteOn",
        "noteNumber": 64,
        "velocity": 89
    },
    {
        "deltaTime": 0,
        "running": true,
        "channel": 14,
        "type": "noteOn",
        "noteNumber": 69,
        "velocity": 94
    },
    {
        "deltaTime": 121,
        "channel": 5,
        "type": "noteOff",
        "noteNumber": 81,
        "velocity": 0,
        "byte9": true
    },
    {
        "deltaTime": 22,
        "running": true,
        "channel": 5,
        "type": "noteOff",
        "noteNumber": 73,
        "velocity": 0,
        "byte9": true
    },
    {
        "deltaTime": 0,
        "running": true,
        "channel": 5,
        "type": "noteOff",
        "noteNumber": 76,
        "velocity": 0,
        "byte9": true
    },
    {
        "deltaTime": 3,
        "channel": 14,
        "type": "noteOff",
        "noteNumber": 69,
        "velocity": 0,
        "byte9": true
    },
    {
        "deltaTime": 22,
        "running": true,
        "channel": 14,
        "type": "noteOff",
        "noteNumber": 61,
        "velocity": 0,
        "byte9": true
    },
    {
        "deltaTime": 0,
        "running": true,
        "channel": 14,
        "type": "noteOff",
        "noteNumber": 64,
        "velocity": 0,
        "byte9": true
    },
    {
        "deltaTime": 123,
        "channel": 1,
        "type": "noteOff",
        "noteNumber": 33,
        "velocity": 0,
        "byte9": true
    },
    {
        "deltaTime": 0,
        "channel": 8,
        "type": "noteOff",
        "noteNumber": 33,
        "velocity": 0,
        "byte9": true
    },
    {
        "deltaTime": 4,
        "channel": 1,
        "type": "noteOn",
        "noteNumber": 36,
        "velocity": 99
    },
    {
        "deltaTime": 0,
        "channel": 8,
        "type": "noteOn",
        "noteNumber": 36,
        "velocity": 99
    },
    {
        "deltaTime": 0,
        "channel": 9,
        "type": "noteOn",
        "noteNumber": 35,
        "velocity": 114
    },
    {
        "deltaTime": 0,
        "running": true,
        "channel": 9,
        "type": "noteOn",
        "noteNumber": 70,
        "velocity": 65
    },
    {
        "deltaTime": 0,
        "channel": 11,
        "type": "noteOn",
        "noteNumber": 41,
        "velocity": 114
    },
    {
        "deltaTime": 12,
        "channel": 9,
        "type": "noteOff",
        "noteNumber": 35,
        "velocity": 0,
        "byte9": true
    },
    {
        "deltaTime": 0,
        "running": true,
        "channel": 9,
        "type": "noteOff",
        "noteNumber": 70,
        "velocity": 0,
        "byte9": true
    },
    {
        "deltaTime": 144,
        "channel": 7,
        "type": "noteOff",
        "noteNumber": 77,
        "velocity": 0,
        "byte9": true
    },
    {
        "deltaTime": 4,
        "channel": 5,
        "type": "noteOn",
        "noteNumber": 73,
        "velocity": 109
    },
    {
        "deltaTime": 0,
        "running": true,
        "channel": 5,
        "type": "noteOn",
        "noteNumber": 76,
        "velocity": 97
    },
    {
        "deltaTime": 0,
        "running": true,
        "channel": 5,
        "type": "noteOn",
        "noteNumber": 81,
        "velocity": 110
    },
    {
        "deltaTime": 0,
        "channel": 7,
        "type": "noteOn",
        "noteNumber": 76,
        "velocity": 119
    },
    {
        "deltaTime": 0,
        "channel": 9,
        "type": "noteOn",
        "noteNumber": 44,
        "velocity": 107
    },
    {
        "deltaTime": 0,
        "running": true,
        "channel": 9,
        "type": "noteOn",
        "noteNumber": 54,
        "velocity": 109
    },
    {
        "deltaTime": 1,
        "channel": 11,
        "type": "noteOff",
        "noteNumber": 41,
        "velocity": 0,
        "byte9": true
    },
    {
        "deltaTime": 11,
        "channel": 9,
        "type": "noteOff",
        "noteNumber": 44,
        "velocity": 0,
        "byte9": true
    },
    {
        "deltaTime": 0,
        "running": true,
        "channel": 9,
        "type": "noteOff",
        "noteNumber": 54,
        "velocity": 0,
        "byte9": true
    },
    {
        "deltaTime": 13,
        "channel": 14,
        "type": "noteOn",
        "noteNumber": 61,
        "velocity": 109
    },
    {
        "deltaTime": 0,
        "running": true,
        "channel": 14,
        "type": "noteOn",
        "noteNumber": 64,
        "velocity": 97
    },
    {
        "deltaTime": 0,
        "running": true,
        "channel": 14,
        "type": "noteOn",
        "noteNumber": 69,
        "velocity": 110
    },
    {
        "deltaTime": 124,
        "channel": 5,
        "type": "noteOff",
        "noteNumber": 81,
        "velocity": 0,
        "byte9": true
    },
    {
        "deltaTime": 9,
        "running": true,
        "channel": 5,
        "type": "noteOff",
        "noteNumber": 73,
        "velocity": 0,
        "byte9": true
    },
    {
        "deltaTime": 3,
        "running": true,
        "channel": 5,
        "type": "noteOff",
        "noteNumber": 76,
        "velocity": 0,
        "byte9": true
    },
    {
        "deltaTime": 13,
        "channel": 14,
        "type": "noteOff",
        "noteNumber": 69,
        "velocity": 0,
        "byte9": true
    },
    {
        "deltaTime": 9,
        "running": true,
        "channel": 14,
        "type": "noteOff",
        "noteNumber": 61,
        "velocity": 0,
        "byte9": true
    },
    {
        "deltaTime": 3,
        "running": true,
        "channel": 14,
        "type": "noteOff",
        "noteNumber": 64,
        "velocity": 0,
        "byte9": true
    },
    {
        "deltaTime": 0,
        "channel": 3,
        "type": "noteOn",
        "noteNumber": 74,
        "velocity": 114
    },
    {
        "deltaTime": 20,
        "channel": 1,
        "type": "noteOff",
        "noteNumber": 36,
        "velocity": 0,
        "byte9": true
    },
    {
        "deltaTime": 0,
        "channel": 8,
        "type": "noteOff",
        "noteNumber": 36,
        "velocity": 0,
        "byte9": true
    },
    {
        "deltaTime": 4,
        "channel": 1,
        "type": "noteOn",
        "noteNumber": 37,
        "velocity": 99
    },
    {
        "deltaTime": 0,
        "channel": 8,
        "type": "noteOn",
        "noteNumber": 37,
        "velocity": 99
    },
    {
        "deltaTime": 156,
        "channel": 1,
        "type": "noteOff",
        "noteNumber": 37,
        "velocity": 0,
        "byte9": true
    },
    {
        "deltaTime": 0,
        "channel": 7,
        "type": "noteOff",
        "noteNumber": 76,
        "velocity": 0,
        "byte9": true
    },
    {
        "deltaTime": 0,
        "channel": 8,
        "type": "noteOff",
        "noteNumber": 37,
        "velocity": 0,
        "byte9": true
    },
    {
        "deltaTime": 4,
        "channel": 1,
        "type": "noteOn",
        "noteNumber": 38,
        "velocity": 99
    },
    {
        "deltaTime": 0,
        "channel": 5,
        "type": "noteOn",
        "noteNumber": 74,
        "velocity": 101
    },
    {
        "deltaTime": 0,
        "running": true,
        "channel": 5,
        "type": "noteOn",
        "noteNumber": 77,
        "velocity": 97
    },
    {
        "deltaTime": 0,
        "running": true,
        "channel": 5,
        "type": "noteOn",
        "noteNumber": 81,
        "velocity": 105
    },
    {
        "deltaTime": 0,
        "channel": 6,
        "type": "noteOn",
        "noteNumber": 53,
        "velocity": 72
    },
    {
        "deltaTime": 0,
        "running": true,
        "channel": 6,
        "type": "noteOn",
        "noteNumber": 57,
        "velocity": 72
    },
    {
        "deltaTime": 0,
        "running": true,
        "channel": 6,
        "type": "noteOn",
        "noteNumber": 60,
        "velocity": 72
    },
    {
        "deltaTime": 0,
        "channel": 7,
        "type": "noteOn",
        "noteNumber": 74,
        "velocity": 119
    },
    {
        "deltaTime": 0,
        "channel": 8,
        "type": "noteOn",
        "noteNumber": 38,
        "velocity": 99
    },
    {
        "deltaTime": 0,
        "channel": 9,
        "type": "noteOn",
        "noteNumber": 35,
        "velocity": 114
    },
    {
        "deltaTime": 0,
        "channel": 11,
        "type": "noteOn",
        "noteNumber": 41,
        "velocity": 114
    },
    {
        "deltaTime": 12,
        "channel": 9,
        "type": "noteOff",
        "noteNumber": 35,
        "velocity": 0,
        "byte9": true
    },
    {
        "deltaTime": 13,
        "channel": 14,
        "type": "noteOn",
        "noteNumber": 62,
        "velocity": 101
    },
    {
        "deltaTime": 0,
        "running": true,
        "channel": 14,
        "type": "noteOn",
        "noteNumber": 65,
        "velocity": 97
    },
    {
        "deltaTime": 0,
        "running": true,
        "channel": 14,
        "type": "noteOn",
        "noteNumber": 69,
        "velocity": 105
    },
    {
        "deltaTime": 48,
        "channel": 5,
        "type": "noteOff",
        "noteNumber": 81,
        "velocity": 0,
        "byte9": true
    },
    {
        "deltaTime": 25,
        "channel": 14,
        "type": "noteOff",
        "noteNumber": 69,
        "velocity": 0,
        "byte9": true
    },
    {
        "deltaTime": 23,
        "channel": 5,
        "type": "noteOff",
        "noteNumber": 77,
        "velocity": 0,
        "byte9": true
    },
    {
        "deltaTime": 2,
        "running": true,
        "channel": 5,
        "type": "noteOff",
        "noteNumber": 74,
        "velocity": 0,
        "byte9": true
    },
    {
        "deltaTime": 23,
        "channel": 14,
        "type": "noteOff",
        "noteNumber": 65,
        "velocity": 0,
        "byte9": true
    },
    {
        "deltaTime": 2,
        "running": true,
        "channel": 14,
        "type": "noteOff",
        "noteNumber": 62,
        "velocity": 0,
        "byte9": true
    },
    {
        "deltaTime": 13,
        "channel": 11,
        "type": "noteOff",
        "noteNumber": 41,
        "velocity": 0,
        "byte9": true
    },
    {
        "deltaTime": 315,
        "channel": 7,
        "type": "noteOff",
        "noteNumber": 74,
        "velocity": 0,
        "byte9": true
    },
    {
        "deltaTime": 4,
        "channel": 5,
        "type": "noteOn",
        "noteNumber": 74,
        "velocity": 111
    },
    {
        "deltaTime": 0,
        "running": true,
        "channel": 5,
        "type": "noteOn",
        "noteNumber": 77,
        "velocity": 107
    },
    {
        "deltaTime": 0,
        "running": true,
        "channel": 5,
        "type": "noteOn",
        "noteNumber": 81,
        "velocity": 105
    },
    {
        "deltaTime": 0,
        "channel": 9,
        "type": "noteOn",
        "noteNumber": 44,
        "velocity": 107
    },
    {
        "deltaTime": 0,
        "running": true,
        "channel": 9,
        "type": "noteOn",
        "noteNumber": 69,
        "velocity": 109
    },
    {
        "deltaTime": 12,
        "running": true,
        "channel": 9,
        "type": "noteOff",
        "noteNumber": 44,
        "velocity": 0,
        "byte9": true
    },
    {
        "deltaTime": 0,
        "running": true,
        "channel": 9,
        "type": "noteOff",
        "noteNumber": 69,
        "velocity": 0,
        "byte9": true
    },
    {
        "deltaTime": 13,
        "channel": 14,
        "type": "noteOn",
        "noteNumber": 62,
        "velocity": 111
    },
    {
        "deltaTime": 0,
        "running": true,
        "channel": 14,
        "type": "noteOn",
        "noteNumber": 65,
        "velocity": 107
    },
    {
        "deltaTime": 0,
        "running": true,
        "channel": 14,
        "type": "noteOn",
        "noteNumber": 69,
        "velocity": 105
    },
    {
        "deltaTime": 132,
        "channel": 5,
        "type": "noteOff",
        "noteNumber": 81,
        "velocity": 0,
        "byte9": true
    },
    {
        "deltaTime": 7,
        "running": true,
        "channel": 5,
        "type": "noteOff",
        "noteNumber": 77,
        "velocity": 0,
        "byte9": true
    },
    {
        "deltaTime": 4,
        "running": true,
        "channel": 5,
        "type": "noteOff",
        "noteNumber": 74,
        "velocity": 0,
        "byte9": true
    },
    {
        "deltaTime": 14,
        "channel": 14,
        "type": "noteOff",
        "noteNumber": 69,
        "velocity": 0,
        "byte9": true
    },
    {
        "deltaTime": 7,
        "running": true,
        "channel": 14,
        "type": "noteOff",
        "noteNumber": 65,
        "velocity": 0,
        "byte9": true
    },
    {
        "deltaTime": 4,
        "running": true,
        "channel": 14,
        "type": "noteOff",
        "noteNumber": 62,
        "velocity": 0,
        "byte9": true
    },
    {
        "deltaTime": 48,
        "channel": 1,
        "type": "noteOff",
        "noteNumber": 38,
        "velocity": 0,
        "byte9": true
    },
    {
        "deltaTime": 0,
        "channel": 8,
        "type": "noteOff",
        "noteNumber": 38,
        "velocity": 0,
        "byte9": true
    },
    {
        "deltaTime": 79,
        "channel": 1,
        "type": "noteOn",
        "noteNumber": 38,
        "velocity": 99
    },
    {
        "deltaTime": 0,
        "channel": 8,
        "type": "noteOn",
        "noteNumber": 38,
        "velocity": 99
    },
    {
        "deltaTime": 0,
        "channel": 9,
        "type": "noteOn",
        "noteNumber": 35,
        "velocity": 107
    },
    {
        "deltaTime": 0,
        "channel": 11,
        "type": "noteOn",
        "noteNumber": 41,
        "velocity": 107
    },
    {
        "deltaTime": 12,
        "channel": 9,
        "type": "noteOff",
        "noteNumber": 35,
        "velocity": 0,
        "byte9": true
    },
    {
        "deltaTime": 148,
        "channel": 5,
        "type": "noteOn",
        "noteNumber": 74,
        "velocity": 105
    },
    {
        "deltaTime": 0,
        "running": true,
        "channel": 5,
        "type": "noteOn",
        "noteNumber": 77,
        "velocity": 94
    },
    {
        "deltaTime": 0,
        "running": true,
        "channel": 5,
        "type": "noteOn",
        "noteNumber": 81,
        "velocity": 94
    },
    {
        "deltaTime": 0,
        "channel": 9,
        "type": "noteOn",
        "noteNumber": 35,
        "velocity": 114
    },
    {
        "deltaTime": 0,
        "channel": 11,
        "type": "noteOn",
        "noteNumber": 41,
        "velocity": 114
    },
    {
        "deltaTime": 1,
        "running": true,
        "channel": 11,
        "type": "noteOff",
        "noteNumber": 41,
        "velocity": 0,
        "byte9": true
    },
    {
        "deltaTime": 11,
        "channel": 9,
        "type": "noteOff",
        "noteNumber": 35,
        "velocity": 0,
        "byte9": true
    },
    {
        "deltaTime": 13,
        "channel": 14,
        "type": "noteOn",
        "noteNumber": 62,
        "velocity": 105
    },
    {
        "deltaTime": 0,
        "running": true,
        "channel": 14,
        "type": "noteOn",
        "noteNumber": 65,
        "velocity": 94
    },
    {
        "deltaTime": 0,
        "running": true,
        "channel": 14,
        "type": "noteOn",
        "noteNumber": 69,
        "velocity": 94
    },
    {
        "deltaTime": 88,
        "channel": 3,
        "type": "noteOff",
        "noteNumber": 74,
        "velocity": 0,
        "byte9": true
    },
    {
        "deltaTime": 42,
        "channel": 5,
        "type": "noteOff",
        "noteNumber": 81,
        "velocity": 0,
        "byte9": true
    },
    {
        "deltaTime": 6,
        "channel": 11,
        "type": "noteOff",
        "noteNumber": 41,
        "velocity": 0,
        "byte9": true
    },
    {
        "deltaTime": 2,
        "channel": 5,
        "type": "noteOff",
        "noteNumber": 74,
        "velocity": 0,
        "byte9": true
    },
    {
        "deltaTime": 4,
        "running": true,
        "channel": 5,
        "type": "noteOff",
        "noteNumber": 77,
        "velocity": 0,
        "byte9": true
    },
    {
        "deltaTime": 13,
        "channel": 14,
        "type": "noteOff",
        "noteNumber": 69,
        "velocity": 0,
        "byte9": true
    },
    {
        "deltaTime": 8,
        "running": true,
        "channel": 14,
        "type": "noteOff",
        "noteNumber": 62,
        "velocity": 0,
        "byte9": true
    },
    {
        "deltaTime": 4,
        "running": true,
        "channel": 14,
        "type": "noteOff",
        "noteNumber": 65,
        "velocity": 0,
        "byte9": true
    },
    {
        "deltaTime": 128,
        "channel": 9,
        "type": "noteOn",
        "noteNumber": 70,
        "velocity": 65
    },
    {
        "deltaTime": 12,
        "running": true,
        "channel": 9,
        "type": "noteOff",
        "noteNumber": 70,
        "velocity": 0,
        "byte9": true
    },
    {
        "deltaTime": 2,
        "channel": 3,
        "type": "noteOn",
        "noteNumber": 72,
        "velocity": 127
    },
    {
        "deltaTime": 104,
        "running": true,
        "channel": 3,
        "type": "noteOff",
        "noteNumber": 72,
        "velocity": 0,
        "byte9": true
    },
    {
        "deltaTime": 42,
        "channel": 5,
        "type": "noteOn",
        "noteNumber": 74,
        "velocity": 109
    },
    {
        "deltaTime": 0,
        "running": true,
        "channel": 5,
        "type": "noteOn",
        "noteNumber": 77,
        "velocity": 94
    },
    {
        "deltaTime": 0,
        "running": true,
        "channel": 5,
        "type": "noteOn",
        "noteNumber": 81,
        "velocity": 94
    },
    {
        "deltaTime": 0,
        "channel": 9,
        "type": "noteOn",
        "noteNumber": 44,
        "velocity": 107
    },
    {
        "deltaTime": 0,
        "running": true,
        "channel": 9,
        "type": "noteOn",
        "noteNumber": 54,
        "velocity": 109
    },
    {
        "deltaTime": 12,
        "running": true,
        "channel": 9,
        "type": "noteOff",
        "noteNumber": 44,
        "velocity": 0,
        "byte9": true
    },
    {
        "deltaTime": 0,
        "running": true,
        "channel": 9,
        "type": "noteOff",
        "noteNumber": 54,
        "velocity": 0,
        "byte9": true
    },
    {
        "deltaTime": 13,
        "channel": 14,
        "type": "noteOn",
        "noteNumber": 62,
        "velocity": 109
    },
    {
        "deltaTime": 0,
        "running": true,
        "channel": 14,
        "type": "noteOn",
        "noteNumber": 65,
        "velocity": 94
    },
    {
        "deltaTime": 0,
        "running": true,
        "channel": 14,
        "type": "noteOn",
        "noteNumber": 69,
        "velocity": 94
    },
    {
        "deltaTime": 0,
        "channel": 3,
        "type": "noteOn",
        "noteNumber": 74,
        "velocity": 114
    },
    {
        "deltaTime": 114,
        "channel": 5,
        "type": "noteOff",
        "noteNumber": 81,
        "velocity": 0,
        "byte9": true
    },
    {
        "deltaTime": 13,
        "running": true,
        "channel": 5,
        "type": "noteOff",
        "noteNumber": 74,
        "velocity": 0,
        "byte9": true
    },
    {
        "deltaTime": 0,
        "running": true,
        "channel": 5,
        "type": "noteOff",
        "noteNumber": 77,
        "velocity": 0,
        "byte9": true
    },
    {
        "deltaTime": 7,
        "channel": 1,
        "type": "noteOff",
        "noteNumber": 38,
        "velocity": 0,
        "byte9": true
    },
    {
        "deltaTime": 0,
        "channel": 8,
        "type": "noteOff",
        "noteNumber": 38,
        "velocity": 0,
        "byte9": true
    },
    {
        "deltaTime": 5,
        "channel": 14,
        "type": "noteOff",
        "noteNumber": 69,
        "velocity": 0,
        "byte9": true
    },
    {
        "deltaTime": 13,
        "running": true,
        "channel": 14,
        "type": "noteOff",
        "noteNumber": 62,
        "velocity": 0,
        "byte9": true
    },
    {
        "deltaTime": 0,
        "running": true,
        "channel": 14,
        "type": "noteOff",
        "noteNumber": 65,
        "velocity": 0,
        "byte9": true
    },
    {
        "deltaTime": 99,
        "channel": 3,
        "type": "noteOff",
        "noteNumber": 74,
        "velocity": 0,
        "byte9": true
    },
    {
        "deltaTime": 42,
        "channel": 1,
        "type": "noteOn",
        "noteNumber": 38,
        "velocity": 99
    },
    {
        "deltaTime": 0,
        "channel": 8,
        "type": "noteOn",
        "noteNumber": 38,
        "velocity": 99
    },
    {
        "deltaTime": 6,
        "channel": 3,
        "type": "noteOn",
        "noteNumber": 72,
        "velocity": 114
    },
    {
        "deltaTime": 122,
        "running": true,
        "channel": 3,
        "type": "noteOff",
        "noteNumber": 72,
        "velocity": 0,
        "byte9": true
    },
    {
        "deltaTime": 22,
        "channel": 6,
        "type": "noteOff",
        "noteNumber": 60,
        "velocity": 0,
        "byte9": true
    },
    {
        "deltaTime": 10,
        "channel": 5,
        "type": "noteOn",
        "noteNumber": 74,
        "velocity": 109
    },
    {
        "deltaTime": 0,
        "running": true,
        "channel": 5,
        "type": "noteOn",
        "noteNumber": 77,
        "velocity": 94
    },
    {
        "deltaTime": 0,
        "running": true,
        "channel": 5,
        "type": "noteOn",
        "noteNumber": 81,
        "velocity": 101
    },
    {
        "deltaTime": 0,
        "channel": 6,
        "type": "noteOn",
        "noteNumber": 59,
        "velocity": 72
    },
    {
        "deltaTime": 0,
        "channel": 9,
        "type": "noteOn",
        "noteNumber": 35,
        "velocity": 114
    },
    {
        "deltaTime": 0,
        "channel": 11,
        "type": "noteOn",
        "noteNumber": 41,
        "velocity": 114
    },
    {
        "deltaTime": 12,
        "channel": 9,
        "type": "noteOff",
        "noteNumber": 35,
        "velocity": 0,
        "byte9": true
    },
    {
        "deltaTime": 13,
        "channel": 14,
        "type": "noteOn",
        "noteNumber": 62,
        "velocity": 109
    },
    {
        "deltaTime": 0,
        "running": true,
        "channel": 14,
        "type": "noteOn",
        "noteNumber": 65,
        "velocity": 94
    },
    {
        "deltaTime": 0,
        "running": true,
        "channel": 14,
        "type": "noteOn",
        "noteNumber": 69,
        "velocity": 101
    },
    {
        "deltaTime": 0,
        "channel": 3,
        "type": "noteOn",
        "noteNumber": 74,
        "velocity": 119
    },
    {
        "deltaTime": 124,
        "channel": 5,
        "type": "noteOff",
        "noteNumber": 81,
        "velocity": 0,
        "byte9": true
    },
    {
        "deltaTime": 6,
        "channel": 11,
        "type": "noteOff",
        "noteNumber": 41,
        "velocity": 0,
        "byte9": true
    },
    {
        "deltaTime": 10,
        "channel": 5,
        "type": "noteOff",
        "noteNumber": 74,
        "velocity": 0,
        "byte9": true
    },
    {
        "deltaTime": 0,
        "running": true,
        "channel": 5,
        "type": "noteOff",
        "noteNumber": 77,
        "velocity": 0,
        "byte9": true
    },
    {
        "deltaTime": 9,
        "channel": 14,
        "type": "noteOff",
        "noteNumber": 69,
        "velocity": 0,
        "byte9": true
    },
    {
        "deltaTime": 16,
        "running": true,
        "channel": 14,
        "type": "noteOff",
        "noteNumber": 62,
        "velocity": 0,
        "byte9": true
    },
    {
        "deltaTime": 0,
        "running": true,
        "channel": 14,
        "type": "noteOff",
        "noteNumber": 65,
        "velocity": 0,
        "byte9": true
    },
    {
        "deltaTime": 156,
        "channel": 3,
        "type": "noteOff",
        "noteNumber": 74,
        "velocity": 0,
        "byte9": true
    },
    {
        "deltaTime": 128,
        "channel": 5,
        "type": "noteOn",
        "noteNumber": 74,
        "velocity": 108
    },
    {
        "deltaTime": 0,
        "running": true,
        "channel": 5,
        "type": "noteOn",
        "noteNumber": 77,
        "velocity": 97
    },
    {
        "deltaTime": 0,
        "running": true,
        "channel": 5,
        "type": "noteOn",
        "noteNumber": 81,
        "velocity": 98
    },
    {
        "deltaTime": 0,
        "channel": 9,
        "type": "noteOn",
        "noteNumber": 44,
        "velocity": 107
    },
    {
        "deltaTime": 0,
        "running": true,
        "channel": 9,
        "type": "noteOn",
        "noteNumber": 69,
        "velocity": 109
    },
    {
        "deltaTime": 12,
        "running": true,
        "channel": 9,
        "type": "noteOff",
        "noteNumber": 44,
        "velocity": 0,
        "byte9": true
    },
    {
        "deltaTime": 0,
        "running": true,
        "channel": 9,
        "type": "noteOff",
        "noteNumber": 69,
        "velocity": 0,
        "byte9": true
    },
    {
        "deltaTime": 13,
        "channel": 14,
        "type": "noteOn",
        "noteNumber": 62,
        "velocity": 108
    },
    {
        "deltaTime": 0,
        "running": true,
        "channel": 14,
        "type": "noteOn",
        "noteNumber": 65,
        "velocity": 97
    },
    {
        "deltaTime": 0,
        "running": true,
        "channel": 14,
        "type": "noteOn",
        "noteNumber": 69,
        "velocity": 98
    },
    {
        "deltaTime": 121,
        "channel": 5,
        "type": "noteOff",
        "noteNumber": 81,
        "velocity": 0,
        "byte9": true
    },
    {
        "deltaTime": 12,
        "running": true,
        "channel": 5,
        "type": "noteOff",
        "noteNumber": 74,
        "velocity": 0,
        "byte9": true
    },
    {
        "deltaTime": 3,
        "channel": 1,
        "type": "noteOff",
        "noteNumber": 38,
        "velocity": 0,
        "byte9": true
    },
    {
        "deltaTime": 0,
        "channel": 8,
        "type": "noteOff",
        "noteNumber": 38,
        "velocity": 0,
        "byte9": true
    },
    {
        "deltaTime": 2,
        "channel": 5,
        "type": "noteOff",
        "noteNumber": 77,
        "velocity": 0,
        "byte9": true
    },
    {
        "deltaTime": 8,
        "channel": 14,
        "type": "noteOff",
        "noteNumber": 69,
        "velocity": 0,
        "byte9": true
    },
    {
        "deltaTime": 12,
        "running": true,
        "channel": 14,
        "type": "noteOff",
        "noteNumber": 62,
        "velocity": 0,
        "byte9": true
    },
    {
        "deltaTime": 5,
        "running": true,
        "channel": 14,
        "type": "noteOff",
        "noteNumber": 65,
        "velocity": 0,
        "byte9": true
    },
    {
        "deltaTime": 0,
        "channel": 3,
        "type": "noteOn",
        "noteNumber": 74,
        "velocity": 119
    },
    {
        "deltaTime": 34,
        "channel": 1,
        "type": "noteOn",
        "noteNumber": 38,
        "velocity": 99
    },
    {
        "deltaTime": 0,
        "channel": 8,
        "type": "noteOn",
        "noteNumber": 38,
        "velocity": 99
    },
    {
        "deltaTime": 0,
        "channel": 9,
        "type": "noteOn",
        "noteNumber": 35,
        "velocity": 114
    },
    {
        "deltaTime": 0,
        "channel": 11,
        "type": "noteOn",
        "noteNumber": 41,
        "velocity": 114
    },
    {
        "deltaTime": 12,
        "channel": 9,
        "type": "noteOff",
        "noteNumber": 35,
        "velocity": 0,
        "byte9": true
    },
    {
        "deltaTime": 24,
        "channel": 3,
        "type": "noteOff",
        "noteNumber": 74,
        "velocity": 0,
        "byte9": true
    },
    {
        "deltaTime": 124,
        "channel": 5,
        "type": "noteOn",
        "noteNumber": 74,
        "velocity": 105
    },
    {
        "deltaTime": 0,
        "running": true,
        "channel": 5,
        "type": "noteOn",
        "noteNumber": 77,
        "velocity": 89
    },
    {
        "deltaTime": 0,
        "running": true,
        "channel": 5,
        "type": "noteOn",
        "noteNumber": 81,
        "velocity": 94
    },
    {
        "deltaTime": 1,
        "channel": 11,
        "type": "noteOff",
        "noteNumber": 41,
        "velocity": 0,
        "byte9": true
    },
    {
        "deltaTime": 0,
        "channel": 3,
        "type": "noteOn",
        "noteNumber": 74,
        "velocity": 127
    },
    {
        "deltaTime": 21,
        "channel": 14,
        "type": "noteOn",
        "noteNumber": 62,
        "velocity": 105
    },
    {
        "deltaTime": 0,
        "running": true,
        "channel": 14,
        "type": "noteOn",
        "noteNumber": 65,
        "velocity": 89
    },
    {
        "deltaTime": 0,
        "running": true,
        "channel": 14,
        "type": "noteOn",
        "noteNumber": 69,
        "velocity": 94
    },
    {
        "deltaTime": 121,
        "channel": 5,
        "type": "noteOff",
        "noteNumber": 81,
        "velocity": 0,
        "byte9": true
    },
    {
        "deltaTime": 22,
        "running": true,
        "channel": 5,
        "type": "noteOff",
        "noteNumber": 74,
        "velocity": 0,
        "byte9": true
    },
    {
        "deltaTime": 0,
        "running": true,
        "channel": 5,
        "type": "noteOff",
        "noteNumber": 77,
        "velocity": 0,
        "byte9": true
    },
    {
        "deltaTime": 3,
        "channel": 14,
        "type": "noteOff",
        "noteNumber": 69,
        "velocity": 0,
        "byte9": true
    },
    {
        "deltaTime": 22,
        "running": true,
        "channel": 14,
        "type": "noteOff",
        "noteNumber": 62,
        "velocity": 0,
        "byte9": true
    },
    {
        "deltaTime": 0,
        "running": true,
        "channel": 14,
        "type": "noteOff",
        "noteNumber": 65,
        "velocity": 0,
        "byte9": true
    },
    {
        "deltaTime": 49,
        "channel": 3,
        "type": "noteOff",
        "noteNumber": 74,
        "velocity": 0,
        "byte9": true
    },
    {
        "deltaTime": 74,
        "channel": 1,
        "type": "noteOff",
        "noteNumber": 38,
        "velocity": 0,
        "byte9": true
    },
    {
        "deltaTime": 0,
        "channel": 8,
        "type": "noteOff",
        "noteNumber": 38,
        "velocity": 0,
        "byte9": true
    },
    {
        "deltaTime": 4,
        "channel": 1,
        "type": "noteOn",
        "noteNumber": 36,
        "velocity": 99
    },
    {
        "deltaTime": 0,
        "channel": 8,
        "type": "noteOn",
        "noteNumber": 36,
        "velocity": 99
    },
    {
        "deltaTime": 0,
        "channel": 9,
        "type": "noteOn",
        "noteNumber": 35,
        "velocity": 114
    },
    {
        "deltaTime": 0,
        "running": true,
        "channel": 9,
        "type": "noteOn",
        "noteNumber": 70,
        "velocity": 65
    },
    {
        "deltaTime": 0,
        "channel": 11,
        "type": "noteOn",
        "noteNumber": 41,
        "velocity": 114
    },
    {
        "deltaTime": 12,
        "channel": 9,
        "type": "noteOff",
        "noteNumber": 35,
        "velocity": 0,
        "byte9": true
    },
    {
        "deltaTime": 0,
        "running": true,
        "channel": 9,
        "type": "noteOff",
        "noteNumber": 70,
        "velocity": 0,
        "byte9": true
    },
    {
        "deltaTime": 148,
        "channel": 5,
        "type": "noteOn",
        "noteNumber": 74,
        "velocity": 109
    },
    {
        "deltaTime": 0,
        "running": true,
        "channel": 5,
        "type": "noteOn",
        "noteNumber": 77,
        "velocity": 97
    },
    {
        "deltaTime": 0,
        "running": true,
        "channel": 5,
        "type": "noteOn",
        "noteNumber": 81,
        "velocity": 110
    },
    {
        "deltaTime": 0,
        "channel": 9,
        "type": "noteOn",
        "noteNumber": 44,
        "velocity": 107
    },
    {
        "deltaTime": 0,
        "running": true,
        "channel": 9,
        "type": "noteOn",
        "noteNumber": 54,
        "velocity": 109
    },
    {
        "deltaTime": 1,
        "channel": 11,
        "type": "noteOff",
        "noteNumber": 41,
        "velocity": 0,
        "byte9": true
    },
    {
        "deltaTime": 11,
        "channel": 9,
        "type": "noteOff",
        "noteNumber": 44,
        "velocity": 0,
        "byte9": true
    },
    {
        "deltaTime": 0,
        "running": true,
        "channel": 9,
        "type": "noteOff",
        "noteNumber": 54,
        "velocity": 0,
        "byte9": true
    },
    {
        "deltaTime": 0,
        "channel": 3,
        "type": "noteOn",
        "noteNumber": 74,
        "velocity": 127
    },
    {
        "deltaTime": 11,
        "channel": 14,
        "type": "noteOn",
        "noteNumber": 62,
        "velocity": 109
    },
    {
        "deltaTime": 0,
        "running": true,
        "channel": 14,
        "type": "noteOn",
        "noteNumber": 65,
        "velocity": 97
    },
    {
        "deltaTime": 0,
        "running": true,
        "channel": 14,
        "type": "noteOn",
        "noteNumber": 69,
        "velocity": 110
    },
    {
        "deltaTime": 124,
        "channel": 5,
        "type": "noteOff",
        "noteNumber": 81,
        "velocity": 0,
        "byte9": true
    },
    {
        "deltaTime": 9,
        "running": true,
        "channel": 5,
        "type": "noteOff",
        "noteNumber": 74,
        "velocity": 0,
        "byte9": true
    },
    {
        "deltaTime": 3,
        "running": true,
        "channel": 5,
        "type": "noteOff",
        "noteNumber": 77,
        "velocity": 0,
        "byte9": true
    },
    {
        "deltaTime": 13,
        "channel": 14,
        "type": "noteOff",
        "noteNumber": 69,
        "velocity": 0,
        "byte9": true
    },
    {
        "deltaTime": 9,
        "running": true,
        "channel": 14,
        "type": "noteOff",
        "noteNumber": 62,
        "velocity": 0,
        "byte9": true
    },
    {
        "deltaTime": 3,
        "running": true,
        "channel": 14,
        "type": "noteOff",
        "noteNumber": 65,
        "velocity": 0,
        "byte9": true
    },
    {
        "deltaTime": 130,
        "channel": 1,
        "type": "noteOff",
        "noteNumber": 36,
        "velocity": 0,
        "byte9": true
    },
    {
        "deltaTime": 0,
        "channel": 8,
        "type": "noteOff",
        "noteNumber": 36,
        "velocity": 0,
        "byte9": true
    },
    {
        "deltaTime": 4,
        "channel": 1,
        "type": "noteOn",
        "noteNumber": 33,
        "velocity": 99
    },
    {
        "deltaTime": 0,
        "channel": 8,
        "type": "noteOn",
        "noteNumber": 33,
        "velocity": 99
    },
    {
        "deltaTime": 1,
        "channel": 3,
        "type": "noteOff",
        "noteNumber": 74,
        "velocity": 0,
        "byte9": true
    },
    {
        "deltaTime": 149,
        "channel": 6,
        "type": "noteOff",
        "noteNumber": 53,
        "velocity": 0,
        "byte9": true
    },
    {
        "deltaTime": 0,
        "running": true,
        "channel": 6,
        "type": "noteOff",
        "noteNumber": 57,
        "velocity": 0,
        "byte9": true
    },
    {
        "deltaTime": 0,
        "running": true,
        "channel": 6,
        "type": "noteOff",
        "noteNumber": 59,
        "velocity": 0,
        "byte9": true
    },
    {
        "deltaTime": 6,
        "channel": 1,
        "type": "noteOff",
        "noteNumber": 33,
        "velocity": 0,
        "byte9": true
    },
    {
        "deltaTime": 0,
        "channel": 8,
        "type": "noteOff",
        "noteNumber": 33,
        "velocity": 0,
        "byte9": true
    },
    {
        "deltaTime": 4,
        "channel": 1,
        "type": "noteOn",
        "noteNumber": 31,
        "velocity": 99
    },
    {
        "deltaTime": 0,
        "channel": 4,
        "type": "noteOn",
        "noteNumber": 58,
        "velocity": 78
    },
    {
        "deltaTime": 0,
        "running": true,
        "channel": 4,
        "type": "noteOn",
        "noteNumber": 62,
        "velocity": 78
    },
    {
        "deltaTime": 0,
        "running": true,
        "channel": 4,
        "type": "noteOn",
        "noteNumber": 65,
        "velocity": 78
    },
    {
        "deltaTime": 0,
        "channel": 5,
        "type": "noteOn",
        "noteNumber": 74,
        "velocity": 101
    },
    {
        "deltaTime": 0,
        "running": true,
        "channel": 5,
        "type": "noteOn",
        "noteNumber": 79,
        "velocity": 97
    },
    {
        "deltaTime": 0,
        "running": true,
        "channel": 5,
        "type": "noteOn",
        "noteNumber": 82,
        "velocity": 105
    },
    {
        "deltaTime": 0,
        "channel": 8,
        "type": "noteOn",
        "noteNumber": 31,
        "velocity": 99
    },
    {
        "deltaTime": 0,
        "channel": 9,
        "type": "noteOn",
        "noteNumber": 35,
        "velocity": 114
    },
    {
        "deltaTime": 0,
        "channel": 11,
        "type": "noteOn",
        "noteNumber": 41,
        "velocity": 114
    },
    {
        "deltaTime": 12,
        "channel": 9,
        "type": "noteOff",
        "noteNumber": 35,
        "velocity": 0,
        "byte9": true
    },
    {
        "deltaTime": 13,
        "channel": 14,
        "type": "noteOn",
        "noteNumber": 62,
        "velocity": 101
    },
    {
        "deltaTime": 0,
        "running": true,
        "channel": 14,
        "type": "noteOn",
        "noteNumber": 67,
        "velocity": 97
    },
    {
        "deltaTime": 0,
        "running": true,
        "channel": 14,
        "type": "noteOn",
        "noteNumber": 70,
        "velocity": 105
    },
    {
        "deltaTime": 48,
        "channel": 5,
        "type": "noteOff",
        "noteNumber": 82,
        "velocity": 0,
        "byte9": true
    },
    {
        "deltaTime": 25,
        "channel": 14,
        "type": "noteOff",
        "noteNumber": 70,
        "velocity": 0,
        "byte9": true
    },
    {
        "deltaTime": 23,
        "channel": 5,
        "type": "noteOff",
        "noteNumber": 79,
        "velocity": 0,
        "byte9": true
    },
    {
        "deltaTime": 2,
        "running": true,
        "channel": 5,
        "type": "noteOff",
        "noteNumber": 74,
        "velocity": 0,
        "byte9": true
    },
    {
        "deltaTime": 23,
        "channel": 14,
        "type": "noteOff",
        "noteNumber": 67,
        "velocity": 0,
        "byte9": true
    },
    {
        "deltaTime": 2,
        "running": true,
        "channel": 14,
        "type": "noteOff",
        "noteNumber": 62,
        "velocity": 0,
        "byte9": true
    },
    {
        "deltaTime": 13,
        "channel": 11,
        "type": "noteOff",
        "noteNumber": 41,
        "velocity": 0,
        "byte9": true
    },
    {
        "deltaTime": 0,
        "channel": 3,
        "type": "noteOn",
        "noteNumber": 74,
        "velocity": 119
    },
    {
        "deltaTime": 3,
        "channel": 5,
        "type": "noteOn",
        "noteNumber": 74,
        "velocity": 111
    },
    {
        "deltaTime": 0,
        "running": true,
        "channel": 5,
        "type": "noteOn",
        "noteNumber": 79,
        "velocity": 107
    },
    {
        "deltaTime": 0,
        "running": true,
        "channel": 5,
        "type": "noteOn",
        "noteNumber": 82,
        "velocity": 105
    },
    {
        "deltaTime": 0,
        "channel": 9,
        "type": "noteOn",
        "noteNumber": 44,
        "velocity": 107
    },
    {
        "deltaTime": 0,
        "running": true,
        "channel": 9,
        "type": "noteOn",
        "noteNumber": 69,
        "velocity": 109
    },
    {
        "deltaTime": 12,
        "running": true,
        "channel": 9,
        "type": "noteOff",
        "noteNumber": 44,
        "velocity": 0,
        "byte9": true
    },
    {
        "deltaTime": 0,
        "running": true,
        "channel": 9,
        "type": "noteOff",
        "noteNumber": 69,
        "velocity": 0,
        "byte9": true
    },
    {
        "deltaTime": 13,
        "channel": 14,
        "type": "noteOn",
        "noteNumber": 62,
        "velocity": 111
    },
    {
        "deltaTime": 0,
        "running": true,
        "channel": 14,
        "type": "noteOn",
        "noteNumber": 67,
        "velocity": 107
    },
    {
        "deltaTime": 0,
        "running": true,
        "channel": 14,
        "type": "noteOn",
        "noteNumber": 70,
        "velocity": 105
    },
    {
        "deltaTime": 132,
        "channel": 5,
        "type": "noteOff",
        "noteNumber": 82,
        "velocity": 0,
        "byte9": true
    },
    {
        "deltaTime": 4,
        "channel": 1,
        "type": "noteOff",
        "noteNumber": 31,
        "velocity": 0,
        "byte9": true
    },
    {
        "deltaTime": 0,
        "channel": 8,
        "type": "noteOff",
        "noteNumber": 31,
        "velocity": 0,
        "byte9": true
    },
    {
        "deltaTime": 3,
        "channel": 5,
        "type": "noteOff",
        "noteNumber": 79,
        "velocity": 0,
        "byte9": true
    },
    {
        "deltaTime": 4,
        "running": true,
        "channel": 5,
        "type": "noteOff",
        "noteNumber": 74,
        "velocity": 0,
        "byte9": true
    },
    {
        "deltaTime": 14,
        "channel": 14,
        "type": "noteOff",
        "noteNumber": 70,
        "velocity": 0,
        "byte9": true
    },
    {
        "deltaTime": 7,
        "running": true,
        "channel": 14,
        "type": "noteOff",
        "noteNumber": 67,
        "velocity": 0,
        "byte9": true
    },
    {
        "deltaTime": 4,
        "running": true,
        "channel": 14,
        "type": "noteOff",
        "noteNumber": 62,
        "velocity": 0,
        "byte9": true
    },
    {
        "deltaTime": 127,
        "channel": 1,
        "type": "noteOn",
        "noteNumber": 31,
        "velocity": 99
    },
    {
        "deltaTime": 0,
        "channel": 8,
        "type": "noteOn",
        "noteNumber": 31,
        "velocity": 99
    },
    {
        "deltaTime": 0,
        "channel": 9,
        "type": "noteOn",
        "noteNumber": 35,
        "velocity": 107
    },
    {
        "deltaTime": 0,
        "channel": 11,
        "type": "noteOn",
        "noteNumber": 41,
        "velocity": 107
    },
    {
        "deltaTime": 12,
        "channel": 9,
        "type": "noteOff",
        "noteNumber": 35,
        "velocity": 0,
        "byte9": true
    },
    {
        "deltaTime": 148,
        "channel": 5,
        "type": "noteOn",
        "noteNumber": 74,
        "velocity": 105
    },
    {
        "deltaTime": 0,
        "running": true,
        "channel": 5,
        "type": "noteOn",
        "noteNumber": 79,
        "velocity": 94
    },
    {
        "deltaTime": 0,
        "running": true,
        "channel": 5,
        "type": "noteOn",
        "noteNumber": 82,
        "velocity": 94
    },
    {
        "deltaTime": 0,
        "channel": 9,
        "type": "noteOn",
        "noteNumber": 35,
        "velocity": 114
    },
    {
        "deltaTime": 0,
        "channel": 11,
        "type": "noteOn",
        "noteNumber": 41,
        "velocity": 114
    },
    {
        "deltaTime": 1,
        "running": true,
        "channel": 11,
        "type": "noteOff",
        "noteNumber": 41,
        "velocity": 0,
        "byte9": true
    },
    {
        "deltaTime": 11,
        "channel": 9,
        "type": "noteOff",
        "noteNumber": 35,
        "velocity": 0,
        "byte9": true
    },
    {
        "deltaTime": 13,
        "channel": 14,
        "type": "noteOn",
        "noteNumber": 62,
        "velocity": 105
    },
    {
        "deltaTime": 0,
        "running": true,
        "channel": 14,
        "type": "noteOn",
        "noteNumber": 67,
        "velocity": 94
    },
    {
        "deltaTime": 0,
        "running": true,
        "channel": 14,
        "type": "noteOn",
        "noteNumber": 70,
        "velocity": 94
    },
    {
        "deltaTime": 130,
        "channel": 5,
        "type": "noteOff",
        "noteNumber": 82,
        "velocity": 0,
        "byte9": true
    },
    {
        "deltaTime": 6,
        "channel": 11,
        "type": "noteOff",
        "noteNumber": 41,
        "velocity": 0,
        "byte9": true
    },
    {
        "deltaTime": 2,
        "channel": 5,
        "type": "noteOff",
        "noteNumber": 74,
        "velocity": 0,
        "byte9": true
    },
    {
        "deltaTime": 4,
        "running": true,
        "channel": 5,
        "type": "noteOff",
        "noteNumber": 79,
        "velocity": 0,
        "byte9": true
    },
    {
        "deltaTime": 13,
        "channel": 14,
        "type": "noteOff",
        "noteNumber": 70,
        "velocity": 0,
        "byte9": true
    },
    {
        "deltaTime": 8,
        "running": true,
        "channel": 14,
        "type": "noteOff",
        "noteNumber": 62,
        "velocity": 0,
        "byte9": true
    },
    {
        "deltaTime": 4,
        "running": true,
        "channel": 14,
        "type": "noteOff",
        "noteNumber": 67,
        "velocity": 0,
        "byte9": true
    },
    {
        "deltaTime": 128,
        "channel": 9,
        "type": "noteOn",
        "noteNumber": 70,
        "velocity": 65
    },
    {
        "deltaTime": 12,
        "running": true,
        "channel": 9,
        "type": "noteOff",
        "noteNumber": 70,
        "velocity": 0,
        "byte9": true
    },
    {
        "deltaTime": 148,
        "channel": 5,
        "type": "noteOn",
        "noteNumber": 74,
        "velocity": 109
    },
    {
        "deltaTime": 0,
        "running": true,
        "channel": 5,
        "type": "noteOn",
        "noteNumber": 79,
        "velocity": 94
    },
    {
        "deltaTime": 0,
        "running": true,
        "channel": 5,
        "type": "noteOn",
        "noteNumber": 82,
        "velocity": 94
    },
    {
        "deltaTime": 0,
        "channel": 9,
        "type": "noteOn",
        "noteNumber": 44,
        "velocity": 107
    },
    {
        "deltaTime": 0,
        "running": true,
        "channel": 9,
        "type": "noteOn",
        "noteNumber": 54,
        "velocity": 109
    },
    {
        "deltaTime": 12,
        "running": true,
        "channel": 9,
        "type": "noteOff",
        "noteNumber": 44,
        "velocity": 0,
        "byte9": true
    },
    {
        "deltaTime": 0,
        "running": true,
        "channel": 9,
        "type": "noteOff",
        "noteNumber": 54,
        "velocity": 0,
        "byte9": true
    },
    {
        "deltaTime": 13,
        "channel": 14,
        "type": "noteOn",
        "noteNumber": 62,
        "velocity": 109
    },
    {
        "deltaTime": 0,
        "running": true,
        "channel": 14,
        "type": "noteOn",
        "noteNumber": 67,
        "velocity": 94
    },
    {
        "deltaTime": 0,
        "running": true,
        "channel": 14,
        "type": "noteOn",
        "noteNumber": 70,
        "velocity": 94
    },
    {
        "deltaTime": 116,
        "channel": 5,
        "type": "noteOff",
        "noteNumber": 82,
        "velocity": 0,
        "byte9": true
    },
    {
        "deltaTime": 13,
        "running": true,
        "channel": 5,
        "type": "noteOff",
        "noteNumber": 74,
        "velocity": 0,
        "byte9": true
    },
    {
        "deltaTime": 0,
        "running": true,
        "channel": 5,
        "type": "noteOff",
        "noteNumber": 79,
        "velocity": 0,
        "byte9": true
    },
    {
        "deltaTime": 7,
        "channel": 1,
        "type": "noteOff",
        "noteNumber": 31,
        "velocity": 0,
        "byte9": true
    },
    {
        "deltaTime": 0,
        "channel": 8,
        "type": "noteOff",
        "noteNumber": 31,
        "velocity": 0,
        "byte9": true
    },
    {
        "deltaTime": 5,
        "channel": 14,
        "type": "noteOff",
        "noteNumber": 70,
        "velocity": 0,
        "byte9": true
    },
    {
        "deltaTime": 13,
        "running": true,
        "channel": 14,
        "type": "noteOff",
        "noteNumber": 62,
        "velocity": 0,
        "byte9": true
    },
    {
        "deltaTime": 0,
        "running": true,
        "channel": 14,
        "type": "noteOff",
        "noteNumber": 67,
        "velocity": 0,
        "byte9": true
    },
    {
        "deltaTime": 141,
        "channel": 1,
        "type": "noteOn",
        "noteNumber": 31,
        "velocity": 99
    },
    {
        "deltaTime": 0,
        "channel": 8,
        "type": "noteOn",
        "noteNumber": 31,
        "velocity": 99
    },
    {
        "deltaTime": 13,
        "channel": 3,
        "type": "noteOff",
        "noteNumber": 74,
        "velocity": 0,
        "byte9": true
    },
    {
        "deltaTime": 147,
        "channel": 5,
        "type": "noteOn",
        "noteNumber": 74,
        "velocity": 109
    },
    {
        "deltaTime": 0,
        "running": true,
        "channel": 5,
        "type": "noteOn",
        "noteNumber": 79,
        "velocity": 94
    },
    {
        "deltaTime": 0,
        "running": true,
        "channel": 5,
        "type": "noteOn",
        "noteNumber": 82,
        "velocity": 101
    },
    {
        "deltaTime": 0,
        "channel": 9,
        "type": "noteOn",
        "noteNumber": 35,
        "velocity": 114
    },
    {
        "deltaTime": 0,
        "channel": 11,
        "type": "noteOn",
        "noteNumber": 41,
        "velocity": 114
    },
    {
        "deltaTime": 12,
        "channel": 9,
        "type": "noteOff",
        "noteNumber": 35,
        "velocity": 0,
        "byte9": true
    },
    {
        "deltaTime": 13,
        "channel": 14,
        "type": "noteOn",
        "noteNumber": 62,
        "velocity": 109
    },
    {
        "deltaTime": 0,
        "running": true,
        "channel": 14,
        "type": "noteOn",
        "noteNumber": 67,
        "velocity": 94
    },
    {
        "deltaTime": 0,
        "running": true,
        "channel": 14,
        "type": "noteOn",
        "noteNumber": 70,
        "velocity": 101
    },
    {
        "deltaTime": 130,
        "channel": 5,
        "type": "noteOff",
        "noteNumber": 82,
        "velocity": 0,
        "byte9": true
    },
    {
        "deltaTime": 6,
        "channel": 11,
        "type": "noteOff",
        "noteNumber": 41,
        "velocity": 0,
        "byte9": true
    },
    {
        "deltaTime": 10,
        "channel": 5,
        "type": "noteOff",
        "noteNumber": 74,
        "velocity": 0,
        "byte9": true
    },
    {
        "deltaTime": 0,
        "running": true,
        "channel": 5,
        "type": "noteOff",
        "noteNumber": 79,
        "velocity": 0,
        "byte9": true
    },
    {
        "deltaTime": 9,
        "channel": 14,
        "type": "noteOff",
        "noteNumber": 70,
        "velocity": 0,
        "byte9": true
    },
    {
        "deltaTime": 16,
        "running": true,
        "channel": 14,
        "type": "noteOff",
        "noteNumber": 62,
        "velocity": 0,
        "byte9": true
    },
    {
        "deltaTime": 0,
        "running": true,
        "channel": 14,
        "type": "noteOff",
        "noteNumber": 67,
        "velocity": 0,
        "byte9": true
    },
    {
        "deltaTime": 284,
        "channel": 5,
        "type": "noteOn",
        "noteNumber": 74,
        "velocity": 108
    },
    {
        "deltaTime": 0,
        "running": true,
        "channel": 5,
        "type": "noteOn",
        "noteNumber": 79,
        "velocity": 97
    },
    {
        "deltaTime": 0,
        "running": true,
        "channel": 5,
        "type": "noteOn",
        "noteNumber": 82,
        "velocity": 98
    },
    {
        "deltaTime": 0,
        "channel": 9,
        "type": "noteOn",
        "noteNumber": 44,
        "velocity": 107
    },
    {
        "deltaTime": 0,
        "running": true,
        "channel": 9,
        "type": "noteOn",
        "noteNumber": 69,
        "velocity": 109
    },
    {
        "deltaTime": 0,
        "channel": 3,
        "type": "noteOn",
        "noteNumber": 74,
        "velocity": 127
    },
    {
        "deltaTime": 8,
        "channel": 9,
        "type": "noteOff",
        "noteNumber": 44,
        "velocity": 0,
        "byte9": true
    },
    {
        "deltaTime": 0,
        "running": true,
        "channel": 9,
        "type": "noteOff",
        "noteNumber": 69,
        "velocity": 0,
        "byte9": true
    },
    {
        "deltaTime": 13,
        "channel": 14,
        "type": "noteOn",
        "noteNumber": 62,
        "velocity": 108
    },
    {
        "deltaTime": 0,
        "running": true,
        "channel": 14,
        "type": "noteOn",
        "noteNumber": 67,
        "velocity": 97
    },
    {
        "deltaTime": 0,
        "running": true,
        "channel": 14,
        "type": "noteOn",
        "noteNumber": 70,
        "velocity": 98
    },
    {
        "deltaTime": 121,
        "channel": 5,
        "type": "noteOff",
        "noteNumber": 82,
        "velocity": 0,
        "byte9": true
    },
    {
        "deltaTime": 12,
        "running": true,
        "channel": 5,
        "type": "noteOff",
        "noteNumber": 74,
        "velocity": 0,
        "byte9": true
    },
    {
        "deltaTime": 3,
        "channel": 1,
        "type": "noteOff",
        "noteNumber": 31,
        "velocity": 0,
        "byte9": true
    },
    {
        "deltaTime": 0,
        "channel": 8,
        "type": "noteOff",
        "noteNumber": 31,
        "velocity": 0,
        "byte9": true
    },
    {
        "deltaTime": 2,
        "channel": 5,
        "type": "noteOff",
        "noteNumber": 79,
        "velocity": 0,
        "byte9": true
    },
    {
        "deltaTime": 8,
        "channel": 14,
        "type": "noteOff",
        "noteNumber": 70,
        "velocity": 0,
        "byte9": true
    },
    {
        "deltaTime": 12,
        "running": true,
        "channel": 14,
        "type": "noteOff",
        "noteNumber": 62,
        "velocity": 0,
        "byte9": true
    },
    {
        "deltaTime": 5,
        "running": true,
        "channel": 14,
        "type": "noteOff",
        "noteNumber": 67,
        "velocity": 0,
        "byte9": true
    },
    {
        "deltaTime": 51,
        "channel": 3,
        "type": "noteOff",
        "noteNumber": 74,
        "velocity": 0,
        "byte9": true
    },
    {
        "deltaTime": 81,
        "channel": 1,
        "type": "noteOn",
        "noteNumber": 31,
        "velocity": 99
    },
    {
        "deltaTime": 0,
        "channel": 8,
        "type": "noteOn",
        "noteNumber": 31,
        "velocity": 99
    },
    {
        "deltaTime": 0,
        "channel": 9,
        "type": "noteOn",
        "noteNumber": 35,
        "velocity": 114
    },
    {
        "deltaTime": 0,
        "channel": 11,
        "type": "noteOn",
        "noteNumber": 41,
        "velocity": 114
    },
    {
        "deltaTime": 12,
        "channel": 9,
        "type": "noteOff",
        "noteNumber": 35,
        "velocity": 0,
        "byte9": true
    },
    {
        "deltaTime": 148,
        "channel": 5,
        "type": "noteOn",
        "noteNumber": 74,
        "velocity": 105
    },
    {
        "deltaTime": 0,
        "running": true,
        "channel": 5,
        "type": "noteOn",
        "noteNumber": 79,
        "velocity": 89
    },
    {
        "deltaTime": 0,
        "running": true,
        "channel": 5,
        "type": "noteOn",
        "noteNumber": 82,
        "velocity": 94
    },
    {
        "deltaTime": 1,
        "channel": 11,
        "type": "noteOff",
        "noteNumber": 41,
        "velocity": 0,
        "byte9": true
    },
    {
        "deltaTime": 24,
        "channel": 14,
        "type": "noteOn",
        "noteNumber": 62,
        "velocity": 105
    },
    {
        "deltaTime": 0,
        "running": true,
        "channel": 14,
        "type": "noteOn",
        "noteNumber": 67,
        "velocity": 89
    },
    {
        "deltaTime": 0,
        "running": true,
        "channel": 14,
        "type": "noteOn",
        "noteNumber": 70,
        "velocity": 94
    },
    {
        "deltaTime": 0,
        "channel": 3,
        "type": "noteOn",
        "noteNumber": 74,
        "velocity": 124
    },
    {
        "deltaTime": 101,
        "channel": 5,
        "type": "noteOff",
        "noteNumber": 82,
        "velocity": 0,
        "byte9": true
    },
    {
        "deltaTime": 22,
        "running": true,
        "channel": 5,
        "type": "noteOff",
        "noteNumber": 74,
        "velocity": 0,
        "byte9": true
    },
    {
        "deltaTime": 0,
        "running": true,
        "channel": 5,
        "type": "noteOff",
        "noteNumber": 79,
        "velocity": 0,
        "byte9": true
    },
    {
        "deltaTime": 3,
        "channel": 14,
        "type": "noteOff",
        "noteNumber": 70,
        "velocity": 0,
        "byte9": true
    },
    {
        "deltaTime": 22,
        "running": true,
        "channel": 14,
        "type": "noteOff",
        "noteNumber": 62,
        "velocity": 0,
        "byte9": true
    },
    {
        "deltaTime": 0,
        "running": true,
        "channel": 14,
        "type": "noteOff",
        "noteNumber": 67,
        "velocity": 0,
        "byte9": true
    },
    {
        "deltaTime": 123,
        "channel": 1,
        "type": "noteOff",
        "noteNumber": 31,
        "velocity": 0,
        "byte9": true
    },
    {
        "deltaTime": 0,
        "channel": 8,
        "type": "noteOff",
        "noteNumber": 31,
        "velocity": 0,
        "byte9": true
    },
    {
        "deltaTime": 4,
        "channel": 1,
        "type": "noteOn",
        "noteNumber": 32,
        "velocity": 99
    },
    {
        "deltaTime": 0,
        "channel": 8,
        "type": "noteOn",
        "noteNumber": 32,
        "velocity": 99
    },
    {
        "deltaTime": 0,
        "channel": 9,
        "type": "noteOn",
        "noteNumber": 35,
        "velocity": 114
    },
    {
        "deltaTime": 0,
        "running": true,
        "channel": 9,
        "type": "noteOn",
        "noteNumber": 70,
        "velocity": 65
    },
    {
        "deltaTime": 0,
        "channel": 11,
        "type": "noteOn",
        "noteNumber": 41,
        "velocity": 114
    },
    {
        "deltaTime": 12,
        "channel": 9,
        "type": "noteOff",
        "noteNumber": 35,
        "velocity": 0,
        "byte9": true
    },
    {
        "deltaTime": 0,
        "running": true,
        "channel": 9,
        "type": "noteOff",
        "noteNumber": 70,
        "velocity": 0,
        "byte9": true
    },
    {
        "deltaTime": 148,
        "channel": 5,
        "type": "noteOn",
        "noteNumber": 74,
        "velocity": 109
    },
    {
        "deltaTime": 0,
        "running": true,
        "channel": 5,
        "type": "noteOn",
        "noteNumber": 79,
        "velocity": 97
    },
    {
        "deltaTime": 0,
        "running": true,
        "channel": 5,
        "type": "noteOn",
        "noteNumber": 82,
        "velocity": 110
    },
    {
        "deltaTime": 0,
        "channel": 9,
        "type": "noteOn",
        "noteNumber": 44,
        "velocity": 107
    },
    {
        "deltaTime": 0,
        "running": true,
        "channel": 9,
        "type": "noteOn",
        "noteNumber": 54,
        "velocity": 109
    },
    {
        "deltaTime": 1,
        "channel": 11,
        "type": "noteOff",
        "noteNumber": 41,
        "velocity": 0,
        "byte9": true
    },
    {
        "deltaTime": 11,
        "channel": 9,
        "type": "noteOff",
        "noteNumber": 44,
        "velocity": 0,
        "byte9": true
    },
    {
        "deltaTime": 0,
        "running": true,
        "channel": 9,
        "type": "noteOff",
        "noteNumber": 54,
        "velocity": 0,
        "byte9": true
    },
    {
        "deltaTime": 13,
        "channel": 14,
        "type": "noteOn",
        "noteNumber": 62,
        "velocity": 109
    },
    {
        "deltaTime": 0,
        "running": true,
        "channel": 14,
        "type": "noteOn",
        "noteNumber": 67,
        "velocity": 97
    },
    {
        "deltaTime": 0,
        "running": true,
        "channel": 14,
        "type": "noteOn",
        "noteNumber": 70,
        "velocity": 110
    },
    {
        "deltaTime": 124,
        "channel": 5,
        "type": "noteOff",
        "noteNumber": 82,
        "velocity": 0,
        "byte9": true
    },
    {
        "deltaTime": 9,
        "running": true,
        "channel": 5,
        "type": "noteOff",
        "noteNumber": 74,
        "velocity": 0,
        "byte9": true
    },
    {
        "deltaTime": 3,
        "running": true,
        "channel": 5,
        "type": "noteOff",
        "noteNumber": 79,
        "velocity": 0,
        "byte9": true
    },
    {
        "deltaTime": 13,
        "channel": 14,
        "type": "noteOff",
        "noteNumber": 70,
        "velocity": 0,
        "byte9": true
    },
    {
        "deltaTime": 9,
        "running": true,
        "channel": 14,
        "type": "noteOff",
        "noteNumber": 62,
        "velocity": 0,
        "byte9": true
    },
    {
        "deltaTime": 3,
        "running": true,
        "channel": 14,
        "type": "noteOff",
        "noteNumber": 67,
        "velocity": 0,
        "byte9": true
    },
    {
        "deltaTime": 130,
        "channel": 1,
        "type": "noteOff",
        "noteNumber": 32,
        "velocity": 0,
        "byte9": true
    },
    {
        "deltaTime": 0,
        "channel": 8,
        "type": "noteOff",
        "noteNumber": 32,
        "velocity": 0,
        "byte9": true
    },
    {
        "deltaTime": 4,
        "channel": 1,
        "type": "noteOn",
        "noteNumber": 33,
        "velocity": 99
    },
    {
        "deltaTime": 0,
        "channel": 8,
        "type": "noteOn",
        "noteNumber": 33,
        "velocity": 99
    },
    {
        "deltaTime": 115,
        "channel": 4,
        "type": "noteOff",
        "noteNumber": 58,
        "velocity": 0,
        "byte9": true
    },
    {
        "deltaTime": 0,
        "running": true,
        "channel": 4,
        "type": "noteOff",
        "noteNumber": 62,
        "velocity": 0,
        "byte9": true
    },
    {
        "deltaTime": 0,
        "running": true,
        "channel": 4,
        "type": "noteOff",
        "noteNumber": 65,
        "velocity": 0,
        "byte9": true
    },
    {
        "deltaTime": 41,
        "channel": 1,
        "type": "noteOff",
        "noteNumber": 33,
        "velocity": 0,
        "byte9": true
    },
    {
        "deltaTime": 0,
        "channel": 8,
        "type": "noteOff",
        "noteNumber": 33,
        "velocity": 0,
        "byte9": true
    },
    {
        "deltaTime": 4,
        "channel": 1,
        "type": "noteOn",
        "noteNumber": 34,
        "velocity": 99
    },
    {
        "deltaTime": 0,
        "channel": 4,
        "type": "noteOn",
        "noteNumber": 58,
        "velocity": 78
    },
    {
        "deltaTime": 0,
        "running": true,
        "channel": 4,
        "type": "noteOn",
        "noteNumber": 62,
        "velocity": 78
    },
    {
        "deltaTime": 0,
        "running": true,
        "channel": 4,
        "type": "noteOn",
        "noteNumber": 65,
        "velocity": 78
    },
    {
        "deltaTime": 0,
        "running": true,
        "channel": 4,
        "type": "noteOn",
        "noteNumber": 70,
        "velocity": 78
    },
    {
        "deltaTime": 0,
        "channel": 5,
        "type": "noteOn",
        "noteNumber": 74,
        "velocity": 101
    },
    {
        "deltaTime": 0,
        "running": true,
        "channel": 5,
        "type": "noteOn",
        "noteNumber": 77,
        "velocity": 97
    },
    {
        "deltaTime": 0,
        "running": true,
        "channel": 5,
        "type": "noteOn",
        "noteNumber": 82,
        "velocity": 105
    },
    {
        "deltaTime": 0,
        "channel": 8,
        "type": "noteOn",
        "noteNumber": 34,
        "velocity": 99
    },
    {
        "deltaTime": 0,
        "channel": 9,
        "type": "noteOn",
        "noteNumber": 35,
        "velocity": 114
    },
    {
        "deltaTime": 0,
        "channel": 11,
        "type": "noteOn",
        "noteNumber": 41,
        "velocity": 114
    },
    {
        "deltaTime": 12,
        "channel": 9,
        "type": "noteOff",
        "noteNumber": 35,
        "velocity": 0,
        "byte9": true
    },
    {
        "deltaTime": 13,
        "channel": 14,
        "type": "noteOn",
        "noteNumber": 62,
        "velocity": 101
    },
    {
        "deltaTime": 0,
        "running": true,
        "channel": 14,
        "type": "noteOn",
        "noteNumber": 65,
        "velocity": 97
    },
    {
        "deltaTime": 0,
        "running": true,
        "channel": 14,
        "type": "noteOn",
        "noteNumber": 70,
        "velocity": 105
    },
    {
        "deltaTime": 48,
        "channel": 5,
        "type": "noteOff",
        "noteNumber": 82,
        "velocity": 0,
        "byte9": true
    },
    {
        "deltaTime": 25,
        "channel": 14,
        "type": "noteOff",
        "noteNumber": 70,
        "velocity": 0,
        "byte9": true
    },
    {
        "deltaTime": 23,
        "channel": 5,
        "type": "noteOff",
        "noteNumber": 77,
        "velocity": 0,
        "byte9": true
    },
    {
        "deltaTime": 2,
        "running": true,
        "channel": 5,
        "type": "noteOff",
        "noteNumber": 74,
        "velocity": 0,
        "byte9": true
    },
    {
        "deltaTime": 23,
        "channel": 14,
        "type": "noteOff",
        "noteNumber": 65,
        "velocity": 0,
        "byte9": true
    },
    {
        "deltaTime": 2,
        "running": true,
        "channel": 14,
        "type": "noteOff",
        "noteNumber": 62,
        "velocity": 0,
        "byte9": true
    },
    {
        "deltaTime": 13,
        "channel": 11,
        "type": "noteOff",
        "noteNumber": 41,
        "velocity": 0,
        "byte9": true
    },
    {
        "deltaTime": 310,
        "channel": 3,
        "type": "noteOff",
        "noteNumber": 74,
        "velocity": 0,
        "byte9": true
    },
    {
        "deltaTime": 9,
        "channel": 5,
        "type": "noteOn",
        "noteNumber": 74,
        "velocity": 111
    },
    {
        "deltaTime": 0,
        "running": true,
        "channel": 5,
        "type": "noteOn",
        "noteNumber": 77,
        "velocity": 107
    },
    {
        "deltaTime": 0,
        "running": true,
        "channel": 5,
        "type": "noteOn",
        "noteNumber": 82,
        "velocity": 105
    },
    {
        "deltaTime": 0,
        "channel": 9,
        "type": "noteOn",
        "noteNumber": 44,
        "velocity": 107
    },
    {
        "deltaTime": 0,
        "running": true,
        "channel": 9,
        "type": "noteOn",
        "noteNumber": 69,
        "velocity": 109
    },
    {
        "deltaTime": 12,
        "running": true,
        "channel": 9,
        "type": "noteOff",
        "noteNumber": 44,
        "velocity": 0,
        "byte9": true
    },
    {
        "deltaTime": 0,
        "running": true,
        "channel": 9,
        "type": "noteOff",
        "noteNumber": 69,
        "velocity": 0,
        "byte9": true
    },
    {
        "deltaTime": 13,
        "channel": 14,
        "type": "noteOn",
        "noteNumber": 62,
        "velocity": 111
    },
    {
        "deltaTime": 0,
        "running": true,
        "channel": 14,
        "type": "noteOn",
        "noteNumber": 65,
        "velocity": 107
    },
    {
        "deltaTime": 0,
        "running": true,
        "channel": 14,
        "type": "noteOn",
        "noteNumber": 70,
        "velocity": 105
    },
    {
        "deltaTime": 132,
        "channel": 5,
        "type": "noteOff",
        "noteNumber": 82,
        "velocity": 0,
        "byte9": true
    },
    {
        "deltaTime": 7,
        "running": true,
        "channel": 5,
        "type": "noteOff",
        "noteNumber": 77,
        "velocity": 0,
        "byte9": true
    },
    {
        "deltaTime": 4,
        "running": true,
        "channel": 5,
        "type": "noteOff",
        "noteNumber": 74,
        "velocity": 0,
        "byte9": true
    },
    {
        "deltaTime": 14,
        "channel": 14,
        "type": "noteOff",
        "noteNumber": 70,
        "velocity": 0,
        "byte9": true
    },
    {
        "deltaTime": 7,
        "running": true,
        "channel": 14,
        "type": "noteOff",
        "noteNumber": 65,
        "velocity": 0,
        "byte9": true
    },
    {
        "deltaTime": 4,
        "running": true,
        "channel": 14,
        "type": "noteOff",
        "noteNumber": 62,
        "velocity": 0,
        "byte9": true
    },
    {
        "deltaTime": 68,
        "channel": 1,
        "type": "noteOff",
        "noteNumber": 34,
        "velocity": 0,
        "byte9": true
    },
    {
        "deltaTime": 0,
        "channel": 8,
        "type": "noteOff",
        "noteNumber": 34,
        "velocity": 0,
        "byte9": true
    },
    {
        "deltaTime": 59,
        "channel": 1,
        "type": "noteOn",
        "noteNumber": 34,
        "velocity": 99
    },
    {
        "deltaTime": 0,
        "channel": 8,
        "type": "noteOn",
        "noteNumber": 34,
        "velocity": 99
    },
    {
        "deltaTime": 0,
        "channel": 9,
        "type": "noteOn",
        "noteNumber": 35,
        "velocity": 107
    },
    {
        "deltaTime": 0,
        "channel": 11,
        "type": "noteOn",
        "noteNumber": 41,
        "velocity": 107
    },
    {
        "deltaTime": 12,
        "channel": 9,
        "type": "noteOff",
        "noteNumber": 35,
        "velocity": 0,
        "byte9": true
    },
    {
        "deltaTime": 148,
        "channel": 5,
        "type": "noteOn",
        "noteNumber": 74,
        "velocity": 105
    },
    {
        "deltaTime": 0,
        "running": true,
        "channel": 5,
        "type": "noteOn",
        "noteNumber": 77,
        "velocity": 94
    },
    {
        "deltaTime": 0,
        "running": true,
        "channel": 5,
        "type": "noteOn",
        "noteNumber": 82,
        "velocity": 94
    },
    {
        "deltaTime": 0,
        "channel": 9,
        "type": "noteOn",
        "noteNumber": 35,
        "velocity": 114
    },
    {
        "deltaTime": 0,
        "channel": 11,
        "type": "noteOn",
        "noteNumber": 41,
        "velocity": 114
    },
    {
        "deltaTime": 1,
        "running": true,
        "channel": 11,
        "type": "noteOff",
        "noteNumber": 41,
        "velocity": 0,
        "byte9": true
    },
    {
        "deltaTime": 11,
        "channel": 9,
        "type": "noteOff",
        "noteNumber": 35,
        "velocity": 0,
        "byte9": true
    },
    {
        "deltaTime": 13,
        "channel": 14,
        "type": "noteOn",
        "noteNumber": 62,
        "velocity": 105
    },
    {
        "deltaTime": 0,
        "running": true,
        "channel": 14,
        "type": "noteOn",
        "noteNumber": 65,
        "velocity": 94
    },
    {
        "deltaTime": 0,
        "running": true,
        "channel": 14,
        "type": "noteOn",
        "noteNumber": 70,
        "velocity": 94
    },
    {
        "deltaTime": 130,
        "channel": 5,
        "type": "noteOff",
        "noteNumber": 82,
        "velocity": 0,
        "byte9": true
    },
    {
        "deltaTime": 6,
        "channel": 11,
        "type": "noteOff",
        "noteNumber": 41,
        "velocity": 0,
        "byte9": true
    },
    {
        "deltaTime": 2,
        "channel": 5,
        "type": "noteOff",
        "noteNumber": 74,
        "velocity": 0,
        "byte9": true
    },
    {
        "deltaTime": 4,
        "running": true,
        "channel": 5,
        "type": "noteOff",
        "noteNumber": 77,
        "velocity": 0,
        "byte9": true
    },
    {
        "deltaTime": 13,
        "channel": 14,
        "type": "noteOff",
        "noteNumber": 70,
        "velocity": 0,
        "byte9": true
    },
    {
        "deltaTime": 8,
        "running": true,
        "channel": 14,
        "type": "noteOff",
        "noteNumber": 62,
        "velocity": 0,
        "byte9": true
    },
    {
        "deltaTime": 4,
        "running": true,
        "channel": 14,
        "type": "noteOff",
        "noteNumber": 65,
        "velocity": 0,
        "byte9": true
    },
    {
        "deltaTime": 128,
        "channel": 9,
        "type": "noteOn",
        "noteNumber": 70,
        "velocity": 65
    },
    {
        "deltaTime": 12,
        "running": true,
        "channel": 9,
        "type": "noteOff",
        "noteNumber": 70,
        "velocity": 0,
        "byte9": true
    },
    {
        "deltaTime": 148,
        "channel": 5,
        "type": "noteOn",
        "noteNumber": 74,
        "velocity": 109
    },
    {
        "deltaTime": 0,
        "running": true,
        "channel": 5,
        "type": "noteOn",
        "noteNumber": 77,
        "velocity": 94
    },
    {
        "deltaTime": 0,
        "running": true,
        "channel": 5,
        "type": "noteOn",
        "noteNumber": 82,
        "velocity": 94
    },
    {
        "deltaTime": 0,
        "channel": 9,
        "type": "noteOn",
        "noteNumber": 44,
        "velocity": 107
    },
    {
        "deltaTime": 0,
        "running": true,
        "channel": 9,
        "type": "noteOn",
        "noteNumber": 54,
        "velocity": 109
    },
    {
        "deltaTime": 12,
        "running": true,
        "channel": 9,
        "type": "noteOff",
        "noteNumber": 44,
        "velocity": 0,
        "byte9": true
    },
    {
        "deltaTime": 0,
        "running": true,
        "channel": 9,
        "type": "noteOff",
        "noteNumber": 54,
        "velocity": 0,
        "byte9": true
    },
    {
        "deltaTime": 13,
        "channel": 14,
        "type": "noteOn",
        "noteNumber": 62,
        "velocity": 109
    },
    {
        "deltaTime": 0,
        "running": true,
        "channel": 14,
        "type": "noteOn",
        "noteNumber": 65,
        "velocity": 94
    },
    {
        "deltaTime": 0,
        "running": true,
        "channel": 14,
        "type": "noteOn",
        "noteNumber": 70,
        "velocity": 94
    },
    {
        "deltaTime": 76,
        "channel": 1,
        "type": "noteOff",
        "noteNumber": 34,
        "velocity": 0,
        "byte9": true
    },
    {
        "deltaTime": 0,
        "channel": 8,
        "type": "noteOff",
        "noteNumber": 34,
        "velocity": 0,
        "byte9": true
    },
    {
        "deltaTime": 40,
        "channel": 5,
        "type": "noteOff",
        "noteNumber": 82,
        "velocity": 0,
        "byte9": true
    },
    {
        "deltaTime": 13,
        "running": true,
        "channel": 5,
        "type": "noteOff",
        "noteNumber": 74,
        "velocity": 0,
        "byte9": true
    },
    {
        "deltaTime": 0,
        "running": true,
        "channel": 5,
        "type": "noteOff",
        "noteNumber": 77,
        "velocity": 0,
        "byte9": true
    },
    {
        "deltaTime": 12,
        "channel": 14,
        "type": "noteOff",
        "noteNumber": 70,
        "velocity": 0,
        "byte9": true
    },
    {
        "deltaTime": 13,
        "running": true,
        "channel": 14,
        "type": "noteOff",
        "noteNumber": 62,
        "velocity": 0,
        "byte9": true
    },
    {
        "deltaTime": 0,
        "running": true,
        "channel": 14,
        "type": "noteOff",
        "noteNumber": 65,
        "velocity": 0,
        "byte9": true
    },
    {
        "deltaTime": 141,
        "channel": 1,
        "type": "noteOn",
        "noteNumber": 34,
        "velocity": 99
    },
    {
        "deltaTime": 0,
        "channel": 8,
        "type": "noteOn",
        "noteNumber": 34,
        "velocity": 99
    },
    {
        "deltaTime": 0,
        "channel": 3,
        "type": "noteOn",
        "noteNumber": 69,
        "velocity": 101
    },
    {
        "deltaTime": 144,
        "channel": 5,
        "type": "noteOn",
        "noteNumber": 74,
        "velocity": 109
    },
    {
        "deltaTime": 0,
        "running": true,
        "channel": 5,
        "type": "noteOn",
        "noteNumber": 77,
        "velocity": 94
    },
    {
        "deltaTime": 0,
        "running": true,
        "channel": 5,
        "type": "noteOn",
        "noteNumber": 82,
        "velocity": 101
    },
    {
        "deltaTime": 0,
        "channel": 9,
        "type": "noteOn",
        "noteNumber": 35,
        "velocity": 114
    },
    {
        "deltaTime": 0,
        "channel": 11,
        "type": "noteOn",
        "noteNumber": 41,
        "velocity": 114
    },
    {
        "deltaTime": 4,
        "channel": 3,
        "type": "noteOff",
        "noteNumber": 69,
        "velocity": 0,
        "byte9": true
    },
    {
        "deltaTime": 8,
        "channel": 9,
        "type": "noteOff",
        "noteNumber": 35,
        "velocity": 0,
        "byte9": true
    },
    {
        "deltaTime": 13,
        "channel": 14,
        "type": "noteOn",
        "noteNumber": 62,
        "velocity": 109
    },
    {
        "deltaTime": 0,
        "running": true,
        "channel": 14,
        "type": "noteOn",
        "noteNumber": 65,
        "velocity": 94
    },
    {
        "deltaTime": 0,
        "running": true,
        "channel": 14,
        "type": "noteOn",
        "noteNumber": 70,
        "velocity": 101
    },
    {
        "deltaTime": 0,
        "channel": 3,
        "type": "noteOn",
        "noteNumber": 74,
        "velocity": 114
    },
    {
        "deltaTime": 119,
        "channel": 5,
        "type": "noteOff",
        "noteNumber": 82,
        "velocity": 0,
        "byte9": true
    },
    {
        "deltaTime": 6,
        "channel": 11,
        "type": "noteOff",
        "noteNumber": 41,
        "velocity": 0,
        "byte9": true
    },
    {
        "deltaTime": 10,
        "channel": 5,
        "type": "noteOff",
        "noteNumber": 74,
        "velocity": 0,
        "byte9": true
    },
    {
        "deltaTime": 0,
        "running": true,
        "channel": 5,
        "type": "noteOff",
        "noteNumber": 77,
        "velocity": 0,
        "byte9": true
    },
    {
        "deltaTime": 9,
        "channel": 14,
        "type": "noteOff",
        "noteNumber": 70,
        "velocity": 0,
        "byte9": true
    },
    {
        "deltaTime": 16,
        "running": true,
        "channel": 14,
        "type": "noteOff",
        "noteNumber": 62,
        "velocity": 0,
        "byte9": true
    },
    {
        "deltaTime": 0,
        "running": true,
        "channel": 14,
        "type": "noteOff",
        "noteNumber": 65,
        "velocity": 0,
        "byte9": true
    },
    {
        "deltaTime": 108,
        "channel": 3,
        "type": "noteOff",
        "noteNumber": 74,
        "velocity": 0,
        "byte9": true
    },
    {
        "deltaTime": 176,
        "channel": 5,
        "type": "noteOn",
        "noteNumber": 74,
        "velocity": 108
    },
    {
        "deltaTime": 0,
        "running": true,
        "channel": 5,
        "type": "noteOn",
        "noteNumber": 77,
        "velocity": 97
    },
    {
        "deltaTime": 0,
        "running": true,
        "channel": 5,
        "type": "noteOn",
        "noteNumber": 82,
        "velocity": 98
    },
    {
        "deltaTime": 0,
        "channel": 9,
        "type": "noteOn",
        "noteNumber": 44,
        "velocity": 107
    },
    {
        "deltaTime": 0,
        "running": true,
        "channel": 9,
        "type": "noteOn",
        "noteNumber": 69,
        "velocity": 109
    },
    {
        "deltaTime": 0,
        "channel": 3,
        "type": "noteOn",
        "noteNumber": 69,
        "velocity": 105
    },
    {
        "deltaTime": 7,
        "channel": 9,
        "type": "noteOff",
        "noteNumber": 44,
        "velocity": 0,
        "byte9": true
    },
    {
        "deltaTime": 0,
        "running": true,
        "channel": 9,
        "type": "noteOff",
        "noteNumber": 69,
        "velocity": 0,
        "byte9": true
    },
    {
        "deltaTime": 13,
        "channel": 14,
        "type": "noteOn",
        "noteNumber": 62,
        "velocity": 108
    },
    {
        "deltaTime": 0,
        "running": true,
        "channel": 14,
        "type": "noteOn",
        "noteNumber": 65,
        "velocity": 97
    },
    {
        "deltaTime": 0,
        "running": true,
        "channel": 14,
        "type": "noteOn",
        "noteNumber": 70,
        "velocity": 98
    },
    {
        "deltaTime": 76,
        "channel": 1,
        "type": "noteOff",
        "noteNumber": 34,
        "velocity": 0,
        "byte9": true
    },
    {
        "deltaTime": 0,
        "channel": 8,
        "type": "noteOff",
        "noteNumber": 34,
        "velocity": 0,
        "byte9": true
    },
    {
        "deltaTime": 45,
        "channel": 5,
        "type": "noteOff",
        "noteNumber": 82,
        "velocity": 0,
        "byte9": true
    },
    {
        "deltaTime": 12,
        "running": true,
        "channel": 5,
        "type": "noteOff",
        "noteNumber": 74,
        "velocity": 0,
        "byte9": true
    },
    {
        "deltaTime": 5,
        "running": true,
        "channel": 5,
        "type": "noteOff",
        "noteNumber": 77,
        "velocity": 0,
        "byte9": true
    },
    {
        "deltaTime": 8,
        "channel": 14,
        "type": "noteOff",
        "noteNumber": 70,
        "velocity": 0,
        "byte9": true
    },
    {
        "deltaTime": 12,
        "running": true,
        "channel": 14,
        "type": "noteOff",
        "noteNumber": 62,
        "velocity": 0,
        "byte9": true
    },
    {
        "deltaTime": 5,
        "running": true,
        "channel": 14,
        "type": "noteOff",
        "noteNumber": 65,
        "velocity": 0,
        "byte9": true
    },
    {
        "deltaTime": 132,
        "channel": 1,
        "type": "noteOn",
        "noteNumber": 34,
        "velocity": 99
    },
    {
        "deltaTime": 0,
        "channel": 3,
        "type": "noteOff",
        "noteNumber": 69,
        "velocity": 0,
        "byte9": true
    },
    {
        "deltaTime": 0,
        "channel": 8,
        "type": "noteOn",
        "noteNumber": 34,
        "velocity": 99
    },
    {
        "deltaTime": 0,
        "channel": 9,
        "type": "noteOn",
        "noteNumber": 35,
        "velocity": 114
    },
    {
        "deltaTime": 0,
        "channel": 11,
        "type": "noteOn",
        "noteNumber": 41,
        "velocity": 114
    },
    {
        "deltaTime": 12,
        "channel": 9,
        "type": "noteOff",
        "noteNumber": 35,
        "velocity": 0,
        "byte9": true
    },
    {
        "deltaTime": 0,
        "channel": 3,
        "type": "noteOn",
        "noteNumber": 74,
        "velocity": 119
    },
    {
        "deltaTime": 3,
        "channel": 5,
        "type": "noteOn",
        "noteNumber": 74,
        "velocity": 105
    },
    {
        "deltaTime": 0,
        "running": true,
        "channel": 5,
        "type": "noteOn",
        "noteNumber": 77,
        "velocity": 89
    },
    {
        "deltaTime": 0,
        "running": true,
        "channel": 5,
        "type": "noteOn",
        "noteNumber": 82,
        "velocity": 94
    },
    {
        "deltaTime": 1,
        "channel": 11,
        "type": "noteOff",
        "noteNumber": 41,
        "velocity": 0,
        "byte9": true
    },
    {
        "deltaTime": 24,
        "channel": 14,
        "type": "noteOn",
        "noteNumber": 62,
        "velocity": 105
    },
    {
        "deltaTime": 0,
        "running": true,
        "channel": 14,
        "type": "noteOn",
        "noteNumber": 65,
        "velocity": 89
    },
    {
        "deltaTime": 0,
        "running": true,
        "channel": 14,
        "type": "noteOn",
        "noteNumber": 70,
        "velocity": 94
    },
    {
        "deltaTime": 121,
        "channel": 5,
        "type": "noteOff",
        "noteNumber": 82,
        "velocity": 0,
        "byte9": true
    },
    {
        "deltaTime": 22,
        "running": true,
        "channel": 5,
        "type": "noteOff",
        "noteNumber": 74,
        "velocity": 0,
        "byte9": true
    },
    {
        "deltaTime": 0,
        "running": true,
        "channel": 5,
        "type": "noteOff",
        "noteNumber": 77,
        "velocity": 0,
        "byte9": true
    },
    {
        "deltaTime": 3,
        "channel": 14,
        "type": "noteOff",
        "noteNumber": 70,
        "velocity": 0,
        "byte9": true
    },
    {
        "deltaTime": 22,
        "running": true,
        "channel": 14,
        "type": "noteOff",
        "noteNumber": 62,
        "velocity": 0,
        "byte9": true
    },
    {
        "deltaTime": 0,
        "running": true,
        "channel": 14,
        "type": "noteOff",
        "noteNumber": 65,
        "velocity": 0,
        "byte9": true
    },
    {
        "deltaTime": 123,
        "channel": 1,
        "type": "noteOff",
        "noteNumber": 34,
        "velocity": 0,
        "byte9": true
    },
    {
        "deltaTime": 0,
        "channel": 8,
        "type": "noteOff",
        "noteNumber": 34,
        "velocity": 0,
        "byte9": true
    },
    {
        "deltaTime": 4,
        "channel": 1,
        "type": "noteOn",
        "noteNumber": 41,
        "velocity": 99
    },
    {
        "deltaTime": 0,
        "channel": 8,
        "type": "noteOn",
        "noteNumber": 41,
        "velocity": 99
    },
    {
        "deltaTime": 0,
        "channel": 9,
        "type": "noteOn",
        "noteNumber": 35,
        "velocity": 114
    },
    {
        "deltaTime": 0,
        "running": true,
        "channel": 9,
        "type": "noteOn",
        "noteNumber": 70,
        "velocity": 65
    },
    {
        "deltaTime": 0,
        "channel": 11,
        "type": "noteOn",
        "noteNumber": 41,
        "velocity": 114
    },
    {
        "deltaTime": 9,
        "channel": 3,
        "type": "noteOff",
        "noteNumber": 74,
        "velocity": 0,
        "byte9": true
    },
    {
        "deltaTime": 3,
        "channel": 9,
        "type": "noteOff",
        "noteNumber": 35,
        "velocity": 0,
        "byte9": true
    },
    {
        "deltaTime": 0,
        "running": true,
        "channel": 9,
        "type": "noteOff",
        "noteNumber": 70,
        "velocity": 0,
        "byte9": true
    },
    {
        "deltaTime": 148,
        "channel": 5,
        "type": "noteOn",
        "noteNumber": 74,
        "velocity": 109
    },
    {
        "deltaTime": 0,
        "running": true,
        "channel": 5,
        "type": "noteOn",
        "noteNumber": 77,
        "velocity": 97
    },
    {
        "deltaTime": 0,
        "running": true,
        "channel": 5,
        "type": "noteOn",
        "noteNumber": 82,
        "velocity": 110
    },
    {
        "deltaTime": 0,
        "channel": 9,
        "type": "noteOn",
        "noteNumber": 44,
        "velocity": 107
    },
    {
        "deltaTime": 0,
        "running": true,
        "channel": 9,
        "type": "noteOn",
        "noteNumber": 54,
        "velocity": 109
    },
    {
        "deltaTime": 1,
        "channel": 11,
        "type": "noteOff",
        "noteNumber": 41,
        "velocity": 0,
        "byte9": true
    },
    {
        "deltaTime": 11,
        "channel": 9,
        "type": "noteOff",
        "noteNumber": 44,
        "velocity": 0,
        "byte9": true
    },
    {
        "deltaTime": 0,
        "running": true,
        "channel": 9,
        "type": "noteOff",
        "noteNumber": 54,
        "velocity": 0,
        "byte9": true
    },
    {
        "deltaTime": 13,
        "channel": 14,
        "type": "noteOn",
        "noteNumber": 62,
        "velocity": 109
    },
    {
        "deltaTime": 0,
        "running": true,
        "channel": 14,
        "type": "noteOn",
        "noteNumber": 65,
        "velocity": 97
    },
    {
        "deltaTime": 0,
        "running": true,
        "channel": 14,
        "type": "noteOn",
        "noteNumber": 70,
        "velocity": 110
    },
    {
        "deltaTime": 0,
        "channel": 3,
        "type": "noteOn",
        "noteNumber": 69,
        "velocity": 109
    },
    {
        "deltaTime": 122,
        "channel": 5,
        "type": "noteOff",
        "noteNumber": 82,
        "velocity": 0,
        "byte9": true
    },
    {
        "deltaTime": 9,
        "running": true,
        "channel": 5,
        "type": "noteOff",
        "noteNumber": 74,
        "velocity": 0,
        "byte9": true
    },
    {
        "deltaTime": 3,
        "running": true,
        "channel": 5,
        "type": "noteOff",
        "noteNumber": 77,
        "velocity": 0,
        "byte9": true
    },
    {
        "deltaTime": 13,
        "channel": 14,
        "type": "noteOff",
        "noteNumber": 70,
        "velocity": 0,
        "byte9": true
    },
    {
        "deltaTime": 9,
        "running": true,
        "channel": 14,
        "type": "noteOff",
        "noteNumber": 62,
        "velocity": 0,
        "byte9": true
    },
    {
        "deltaTime": 3,
        "running": true,
        "channel": 14,
        "type": "noteOff",
        "noteNumber": 65,
        "velocity": 0,
        "byte9": true
    },
    {
        "deltaTime": 130,
        "channel": 1,
        "type": "noteOff",
        "noteNumber": 41,
        "velocity": 0,
        "byte9": true
    },
    {
        "deltaTime": 0,
        "channel": 8,
        "type": "noteOff",
        "noteNumber": 41,
        "velocity": 0,
        "byte9": true
    },
    {
        "deltaTime": 4,
        "channel": 1,
        "type": "noteOn",
        "noteNumber": 34,
        "velocity": 99
    },
    {
        "deltaTime": 0,
        "channel": 8,
        "type": "noteOn",
        "noteNumber": 34,
        "velocity": 99
    },
    {
        "deltaTime": 0,
        "channel": 1,
        "type": "noteOff",
        "noteNumber": 34,
        "velocity": 0,
        "byte9": true
    },
    {
        "deltaTime": 0,
        "channel": 8,
        "type": "noteOff",
        "noteNumber": 34,
        "velocity": 0,
        "byte9": true
    },
    {
        "deltaTime": 115,
        "channel": 4,
        "type": "noteOff",
        "noteNumber": 58,
        "velocity": 0,
        "byte9": true
    },
    {
        "deltaTime": 0,
        "running": true,
        "channel": 4,
        "type": "noteOff",
        "noteNumber": 62,
        "velocity": 0,
        "byte9": true
    },
    {
        "deltaTime": 0,
        "running": true,
        "channel": 4,
        "type": "noteOff",
        "noteNumber": 65,
        "velocity": 0,
        "byte9": true
    },
    {
        "deltaTime": 0,
        "running": true,
        "channel": 4,
        "type": "noteOff",
        "noteNumber": 70,
        "velocity": 0,
        "byte9": true
    },
    {
        "deltaTime": 45,
        "channel": 1,
        "type": "noteOn",
        "noteNumber": 33,
        "velocity": 99
    },
    {
        "deltaTime": 0,
        "channel": 4,
        "type": "noteOn",
        "noteNumber": 61,
        "velocity": 78
    },
    {
        "deltaTime": 0,
        "running": true,
        "channel": 4,
        "type": "noteOn",
        "noteNumber": 64,
        "velocity": 78
    },
    {
        "deltaTime": 0,
        "running": true,
        "channel": 4,
        "type": "noteOn",
        "noteNumber": 69,
        "velocity": 78
    },
    {
        "deltaTime": 0,
        "channel": 5,
        "type": "noteOn",
        "noteNumber": 73,
        "velocity": 101
    },
    {
        "deltaTime": 0,
        "running": true,
        "channel": 5,
        "type": "noteOn",
        "noteNumber": 76,
        "velocity": 97
    },
    {
        "deltaTime": 0,
        "running": true,
        "channel": 5,
        "type": "noteOn",
        "noteNumber": 81,
        "velocity": 105
    },
    {
        "deltaTime": 0,
        "channel": 7,
        "type": "noteOn",
        "noteNumber": 81,
        "velocity": 119
    },
    {
        "deltaTime": 0,
        "channel": 8,
        "type": "noteOn",
        "noteNumber": 33,
        "velocity": 99
    },
    {
        "deltaTime": 0,
        "channel": 9,
        "type": "noteOn",
        "noteNumber": 35,
        "velocity": 114
    },
    {
        "deltaTime": 0,
        "channel": 11,
        "type": "noteOn",
        "noteNumber": 41,
        "velocity": 114
    },
    {
        "deltaTime": 12,
        "channel": 9,
        "type": "noteOff",
        "noteNumber": 35,
        "velocity": 0,
        "byte9": true
    },
    {
        "deltaTime": 13,
        "channel": 14,
        "type": "noteOn",
        "noteNumber": 61,
        "velocity": 101
    },
    {
        "deltaTime": 0,
        "running": true,
        "channel": 14,
        "type": "noteOn",
        "noteNumber": 64,
        "velocity": 97
    },
    {
        "deltaTime": 0,
        "running": true,
        "channel": 14,
        "type": "noteOn",
        "noteNumber": 69,
        "velocity": 105
    },
    {
        "deltaTime": 48,
        "channel": 5,
        "type": "noteOff",
        "noteNumber": 81,
        "velocity": 0,
        "byte9": true
    },
    {
        "deltaTime": 25,
        "channel": 14,
        "type": "noteOff",
        "noteNumber": 69,
        "velocity": 0,
        "byte9": true
    },
    {
        "deltaTime": 23,
        "channel": 5,
        "type": "noteOff",
        "noteNumber": 76,
        "velocity": 0,
        "byte9": true
    },
    {
        "deltaTime": 2,
        "running": true,
        "channel": 5,
        "type": "noteOff",
        "noteNumber": 73,
        "velocity": 0,
        "byte9": true
    },
    {
        "deltaTime": 23,
        "channel": 14,
        "type": "noteOff",
        "noteNumber": 64,
        "velocity": 0,
        "byte9": true
    },
    {
        "deltaTime": 2,
        "running": true,
        "channel": 14,
        "type": "noteOff",
        "noteNumber": 61,
        "velocity": 0,
        "byte9": true
    },
    {
        "deltaTime": 13,
        "channel": 11,
        "type": "noteOff",
        "noteNumber": 41,
        "velocity": 0,
        "byte9": true
    },
    {
        "deltaTime": 319,
        "channel": 5,
        "type": "noteOn",
        "noteNumber": 73,
        "velocity": 111
    },
    {
        "deltaTime": 0,
        "running": true,
        "channel": 5,
        "type": "noteOn",
        "noteNumber": 76,
        "velocity": 107
    },
    {
        "deltaTime": 0,
        "running": true,
        "channel": 5,
        "type": "noteOn",
        "noteNumber": 81,
        "velocity": 105
    },
    {
        "deltaTime": 0,
        "channel": 9,
        "type": "noteOn",
        "noteNumber": 44,
        "velocity": 107
    },
    {
        "deltaTime": 0,
        "running": true,
        "channel": 9,
        "type": "noteOn",
        "noteNumber": 69,
        "velocity": 109
    },
    {
        "deltaTime": 12,
        "running": true,
        "channel": 9,
        "type": "noteOff",
        "noteNumber": 44,
        "velocity": 0,
        "byte9": true
    },
    {
        "deltaTime": 0,
        "running": true,
        "channel": 9,
        "type": "noteOff",
        "noteNumber": 69,
        "velocity": 0,
        "byte9": true
    },
    {
        "deltaTime": 4,
        "channel": 3,
        "type": "noteOff",
        "noteNumber": 69,
        "velocity": 0,
        "byte9": true
    },
    {
        "deltaTime": 0,
        "channel": 3,
        "type": "noteOn",
        "noteNumber": 73,
        "velocity": 115
    },
    {
        "deltaTime": 0,
        "channel": 14,
        "type": "noteOn",
        "noteNumber": 61,
        "velocity": 111
    },
    {
        "deltaTime": 0,
        "running": true,
        "channel": 14,
        "type": "noteOn",
        "noteNumber": 64,
        "velocity": 107
    },
    {
        "deltaTime": 0,
        "running": true,
        "channel": 14,
        "type": "noteOn",
        "noteNumber": 69,
        "velocity": 105
    },
    {
        "deltaTime": 132,
        "channel": 5,
        "type": "noteOff",
        "noteNumber": 81,
        "velocity": 0,
        "byte9": true
    },
    {
        "deltaTime": 4,
        "channel": 7,
        "type": "noteOff",
        "noteNumber": 81,
        "velocity": 0,
        "byte9": true
    },
    {
        "deltaTime": 3,
        "channel": 5,
        "type": "noteOff",
        "noteNumber": 76,
        "velocity": 0,
        "byte9": true
    },
    {
        "deltaTime": 4,
        "running": true,
        "channel": 5,
        "type": "noteOff",
        "noteNumber": 73,
        "velocity": 0,
        "byte9": true
    },
    {
        "deltaTime": 14,
        "channel": 14,
        "type": "noteOff",
        "noteNumber": 69,
        "velocity": 0,
        "byte9": true
    },
    {
        "deltaTime": 7,
        "running": true,
        "channel": 14,
        "type": "noteOff",
        "noteNumber": 64,
        "velocity": 0,
        "byte9": true
    },
    {
        "deltaTime": 4,
        "running": true,
        "channel": 14,
        "type": "noteOff",
        "noteNumber": 61,
        "velocity": 0,
        "byte9": true
    },
    {
        "deltaTime": 68,
        "channel": 1,
        "type": "noteOff",
        "noteNumber": 33,
        "velocity": 0,
        "byte9": true
    },
    {
        "deltaTime": 0,
        "channel": 8,
        "type": "noteOff",
        "noteNumber": 33,
        "velocity": 0,
        "byte9": true
    },
    {
        "deltaTime": 59,
        "channel": 1,
        "type": "noteOn",
        "noteNumber": 33,
        "velocity": 99
    },
    {
        "deltaTime": 0,
        "channel": 8,
        "type": "noteOn",
        "noteNumber": 33,
        "velocity": 99
    },
    {
        "deltaTime": 0,
        "channel": 9,
        "type": "noteOn",
        "noteNumber": 35,
        "velocity": 107
    },
    {
        "deltaTime": 0,
        "channel": 11,
        "type": "noteOn",
        "noteNumber": 41,
        "velocity": 107
    },
    {
        "deltaTime": 12,
        "channel": 9,
        "type": "noteOff",
        "noteNumber": 35,
        "velocity": 0,
        "byte9": true
    },
    {
        "deltaTime": 148,
        "channel": 5,
        "type": "noteOn",
        "noteNumber": 73,
        "velocity": 105
    },
    {
        "deltaTime": 0,
        "running": true,
        "channel": 5,
        "type": "noteOn",
        "noteNumber": 76,
        "velocity": 94
    },
    {
        "deltaTime": 0,
        "running": true,
        "channel": 5,
        "type": "noteOn",
        "noteNumber": 81,
        "velocity": 94
    },
    {
        "deltaTime": 0,
        "channel": 9,
        "type": "noteOn",
        "noteNumber": 35,
        "velocity": 114
    },
    {
        "deltaTime": 0,
        "channel": 11,
        "type": "noteOn",
        "noteNumber": 41,
        "velocity": 114
    },
    {
        "deltaTime": 1,
        "running": true,
        "channel": 11,
        "type": "noteOff",
        "noteNumber": 41,
        "velocity": 0,
        "byte9": true
    },
    {
        "deltaTime": 11,
        "channel": 9,
        "type": "noteOff",
        "noteNumber": 35,
        "velocity": 0,
        "byte9": true
    },
    {
        "deltaTime": 13,
        "channel": 14,
        "type": "noteOn",
        "noteNumber": 61,
        "velocity": 105
    },
    {
        "deltaTime": 0,
        "running": true,
        "channel": 14,
        "type": "noteOn",
        "noteNumber": 64,
        "velocity": 94
    },
    {
        "deltaTime": 0,
        "running": true,
        "channel": 14,
        "type": "noteOn",
        "noteNumber": 69,
        "velocity": 94
    },
    {
        "deltaTime": 130,
        "channel": 5,
        "type": "noteOff",
        "noteNumber": 81,
        "velocity": 0,
        "byte9": true
    },
    {
        "deltaTime": 6,
        "channel": 11,
        "type": "noteOff",
        "noteNumber": 41,
        "velocity": 0,
        "byte9": true
    },
    {
        "deltaTime": 2,
        "channel": 5,
        "type": "noteOff",
        "noteNumber": 73,
        "velocity": 0,
        "byte9": true
    },
    {
        "deltaTime": 4,
        "running": true,
        "channel": 5,
        "type": "noteOff",
        "noteNumber": 76,
        "velocity": 0,
        "byte9": true
    },
    {
        "deltaTime": 13,
        "channel": 14,
        "type": "noteOff",
        "noteNumber": 69,
        "velocity": 0,
        "byte9": true
    },
    {
        "deltaTime": 8,
        "running": true,
        "channel": 14,
        "type": "noteOff",
        "noteNumber": 61,
        "velocity": 0,
        "byte9": true
    },
    {
        "deltaTime": 4,
        "running": true,
        "channel": 14,
        "type": "noteOff",
        "noteNumber": 64,
        "velocity": 0,
        "byte9": true
    },
    {
        "deltaTime": 128,
        "channel": 9,
        "type": "noteOn",
        "noteNumber": 70,
        "velocity": 65
    },
    {
        "deltaTime": 12,
        "running": true,
        "channel": 9,
        "type": "noteOff",
        "noteNumber": 70,
        "velocity": 0,
        "byte9": true
    },
    {
        "deltaTime": 148,
        "channel": 5,
        "type": "noteOn",
        "noteNumber": 73,
        "velocity": 109
    },
    {
        "deltaTime": 0,
        "running": true,
        "channel": 5,
        "type": "noteOn",
        "noteNumber": 76,
        "velocity": 94
    },
    {
        "deltaTime": 0,
        "running": true,
        "channel": 5,
        "type": "noteOn",
        "noteNumber": 81,
        "velocity": 94
    },
    {
        "deltaTime": 0,
        "channel": 9,
        "type": "noteOn",
        "noteNumber": 44,
        "velocity": 107
    },
    {
        "deltaTime": 0,
        "running": true,
        "channel": 9,
        "type": "noteOn",
        "noteNumber": 54,
        "velocity": 109
    },
    {
        "deltaTime": 12,
        "running": true,
        "channel": 9,
        "type": "noteOff",
        "noteNumber": 44,
        "velocity": 0,
        "byte9": true
    },
    {
        "deltaTime": 0,
        "running": true,
        "channel": 9,
        "type": "noteOff",
        "noteNumber": 54,
        "velocity": 0,
        "byte9": true
    },
    {
        "deltaTime": 13,
        "channel": 14,
        "type": "noteOn",
        "noteNumber": 61,
        "velocity": 109
    },
    {
        "deltaTime": 0,
        "running": true,
        "channel": 14,
        "type": "noteOn",
        "noteNumber": 64,
        "velocity": 94
    },
    {
        "deltaTime": 0,
        "running": true,
        "channel": 14,
        "type": "noteOn",
        "noteNumber": 69,
        "velocity": 94
    },
    {
        "deltaTime": 76,
        "channel": 1,
        "type": "noteOff",
        "noteNumber": 33,
        "velocity": 0,
        "byte9": true
    },
    {
        "deltaTime": 0,
        "channel": 8,
        "type": "noteOff",
        "noteNumber": 33,
        "velocity": 0,
        "byte9": true
    },
    {
        "deltaTime": 40,
        "channel": 5,
        "type": "noteOff",
        "noteNumber": 81,
        "velocity": 0,
        "byte9": true
    },
    {
        "deltaTime": 13,
        "running": true,
        "channel": 5,
        "type": "noteOff",
        "noteNumber": 73,
        "velocity": 0,
        "byte9": true
    },
    {
        "deltaTime": 0,
        "running": true,
        "channel": 5,
        "type": "noteOff",
        "noteNumber": 76,
        "velocity": 0,
        "byte9": true
    },
    {
        "deltaTime": 12,
        "channel": 14,
        "type": "noteOff",
        "noteNumber": 69,
        "velocity": 0,
        "byte9": true
    },
    {
        "deltaTime": 13,
        "running": true,
        "channel": 14,
        "type": "noteOff",
        "noteNumber": 61,
        "velocity": 0,
        "byte9": true
    },
    {
        "deltaTime": 0,
        "running": true,
        "channel": 14,
        "type": "noteOff",
        "noteNumber": 64,
        "velocity": 0,
        "byte9": true
    },
    {
        "deltaTime": 141,
        "channel": 1,
        "type": "noteOn",
        "noteNumber": 33,
        "velocity": 99
    },
    {
        "deltaTime": 0,
        "channel": 8,
        "type": "noteOn",
        "noteNumber": 33,
        "velocity": 99
    },
    {
        "deltaTime": 160,
        "channel": 5,
        "type": "noteOn",
        "noteNumber": 73,
        "velocity": 109
    },
    {
        "deltaTime": 0,
        "running": true,
        "channel": 5,
        "type": "noteOn",
        "noteNumber": 76,
        "velocity": 94
    },
    {
        "deltaTime": 0,
        "running": true,
        "channel": 5,
        "type": "noteOn",
        "noteNumber": 81,
        "velocity": 101
    },
    {
        "deltaTime": 0,
        "channel": 7,
        "type": "noteOn",
        "noteNumber": 81,
        "velocity": 119
    },
    {
        "deltaTime": 0,
        "channel": 9,
        "type": "noteOn",
        "noteNumber": 35,
        "velocity": 114
    },
    {
        "deltaTime": 0,
        "channel": 11,
        "type": "noteOn",
        "noteNumber": 41,
        "velocity": 114
    },
    {
        "deltaTime": 12,
        "channel": 9,
        "type": "noteOff",
        "noteNumber": 35,
        "velocity": 0,
        "byte9": true
    },
    {
        "deltaTime": 13,
        "channel": 14,
        "type": "noteOn",
        "noteNumber": 61,
        "velocity": 109
    },
    {
        "deltaTime": 0,
        "running": true,
        "channel": 14,
        "type": "noteOn",
        "noteNumber": 64,
        "velocity": 94
    },
    {
        "deltaTime": 0,
        "running": true,
        "channel": 14,
        "type": "noteOn",
        "noteNumber": 69,
        "velocity": 101
    },
    {
        "deltaTime": 130,
        "channel": 5,
        "type": "noteOff",
        "noteNumber": 81,
        "velocity": 0,
        "byte9": true
    },
    {
        "deltaTime": 6,
        "channel": 11,
        "type": "noteOff",
        "noteNumber": 41,
        "velocity": 0,
        "byte9": true
    },
    {
        "deltaTime": 10,
        "channel": 5,
        "type": "noteOff",
        "noteNumber": 73,
        "velocity": 0,
        "byte9": true
    },
    {
        "deltaTime": 0,
        "running": true,
        "channel": 5,
        "type": "noteOff",
        "noteNumber": 76,
        "velocity": 0,
        "byte9": true
    },
    {
        "deltaTime": 9,
        "channel": 14,
        "type": "noteOff",
        "noteNumber": 69,
        "velocity": 0,
        "byte9": true
    },
    {
        "deltaTime": 16,
        "running": true,
        "channel": 14,
        "type": "noteOff",
        "noteNumber": 61,
        "velocity": 0,
        "byte9": true
    },
    {
        "deltaTime": 0,
        "running": true,
        "channel": 14,
        "type": "noteOff",
        "noteNumber": 64,
        "velocity": 0,
        "byte9": true
    },
    {
        "deltaTime": 280,
        "channel": 7,
        "type": "noteOff",
        "noteNumber": 81,
        "velocity": 0,
        "byte9": true
    },
    {
        "deltaTime": 4,
        "channel": 5,
        "type": "noteOn",
        "noteNumber": 73,
        "velocity": 108
    },
    {
        "deltaTime": 0,
        "running": true,
        "channel": 5,
        "type": "noteOn",
        "noteNumber": 76,
        "velocity": 97
    },
    {
        "deltaTime": 0,
        "running": true,
        "channel": 5,
        "type": "noteOn",
        "noteNumber": 81,
        "velocity": 98
    },
    {
        "deltaTime": 0,
        "channel": 7,
        "type": "noteOn",
        "noteNumber": 79,
        "velocity": 119
    },
    {
        "deltaTime": 0,
        "channel": 9,
        "type": "noteOn",
        "noteNumber": 44,
        "velocity": 107
    },
    {
        "deltaTime": 0,
        "running": true,
        "channel": 9,
        "type": "noteOn",
        "noteNumber": 69,
        "velocity": 109
    },
    {
        "deltaTime": 12,
        "running": true,
        "channel": 9,
        "type": "noteOff",
        "noteNumber": 44,
        "velocity": 0,
        "byte9": true
    },
    {
        "deltaTime": 0,
        "running": true,
        "channel": 9,
        "type": "noteOff",
        "noteNumber": 69,
        "velocity": 0,
        "byte9": true
    },
    {
        "deltaTime": 13,
        "channel": 14,
        "type": "noteOn",
        "noteNumber": 61,
        "velocity": 108
    },
    {
        "deltaTime": 0,
        "running": true,
        "channel": 14,
        "type": "noteOn",
        "noteNumber": 64,
        "velocity": 97
    },
    {
        "deltaTime": 0,
        "running": true,
        "channel": 14,
        "type": "noteOn",
        "noteNumber": 69,
        "velocity": 98
    },
    {
        "deltaTime": 76,
        "channel": 1,
        "type": "noteOff",
        "noteNumber": 33,
        "velocity": 0,
        "byte9": true
    },
    {
        "deltaTime": 0,
        "channel": 8,
        "type": "noteOff",
        "noteNumber": 33,
        "velocity": 0,
        "byte9": true
    },
    {
        "deltaTime": 45,
        "channel": 5,
        "type": "noteOff",
        "noteNumber": 81,
        "velocity": 0,
        "byte9": true
    },
    {
        "deltaTime": 12,
        "running": true,
        "channel": 5,
        "type": "noteOff",
        "noteNumber": 73,
        "velocity": 0,
        "byte9": true
    },
    {
        "deltaTime": 5,
        "running": true,
        "channel": 5,
        "type": "noteOff",
        "noteNumber": 76,
        "velocity": 0,
        "byte9": true
    },
    {
        "deltaTime": 8,
        "channel": 14,
        "type": "noteOff",
        "noteNumber": 69,
        "velocity": 0,
        "byte9": true
    },
    {
        "deltaTime": 12,
        "running": true,
        "channel": 14,
        "type": "noteOff",
        "noteNumber": 61,
        "velocity": 0,
        "byte9": true
    },
    {
        "deltaTime": 5,
        "running": true,
        "channel": 14,
        "type": "noteOff",
        "noteNumber": 64,
        "velocity": 0,
        "byte9": true
    },
    {
        "deltaTime": 132,
        "channel": 1,
        "type": "noteOn",
        "noteNumber": 33,
        "velocity": 99
    },
    {
        "deltaTime": 0,
        "channel": 8,
        "type": "noteOn",
        "noteNumber": 33,
        "velocity": 99
    },
    {
        "deltaTime": 0,
        "channel": 9,
        "type": "noteOn",
        "noteNumber": 35,
        "velocity": 114
    },
    {
        "deltaTime": 0,
        "channel": 11,
        "type": "noteOn",
        "noteNumber": 41,
        "velocity": 114
    },
    {
        "deltaTime": 12,
        "channel": 9,
        "type": "noteOff",
        "noteNumber": 35,
        "velocity": 0,
        "byte9": true
    },
    {
        "deltaTime": 93,
        "channel": 3,
        "type": "noteOff",
        "noteNumber": 73,
        "velocity": 0,
        "byte9": true
    },
    {
        "deltaTime": 51,
        "channel": 7,
        "type": "noteOff",
        "noteNumber": 79,
        "velocity": 0,
        "byte9": true
    },
    {
        "deltaTime": 4,
        "channel": 5,
        "type": "noteOn",
        "noteNumber": 73,
        "velocity": 105
    },
    {
        "deltaTime": 0,
        "running": true,
        "channel": 5,
        "type": "noteOn",
        "noteNumber": 76,
        "velocity": 89
    },
    {
        "deltaTime": 0,
        "running": true,
        "channel": 5,
        "type": "noteOn",
        "noteNumber": 81,
        "velocity": 94
    },
    {
        "deltaTime": 0,
        "channel": 7,
        "type": "noteOn",
        "noteNumber": 77,
        "velocity": 119
    },
    {
        "deltaTime": 1,
        "channel": 11,
        "type": "noteOff",
        "noteNumber": 41,
        "velocity": 0,
        "byte9": true
    },
    {
        "deltaTime": 24,
        "channel": 14,
        "type": "noteOn",
        "noteNumber": 61,
        "velocity": 105
    },
    {
        "deltaTime": 0,
        "running": true,
        "channel": 14,
        "type": "noteOn",
        "noteNumber": 64,
        "velocity": 89
    },
    {
        "deltaTime": 0,
        "running": true,
        "channel": 14,
        "type": "noteOn",
        "noteNumber": 69,
        "velocity": 94
    },
    {
        "deltaTime": 121,
        "channel": 5,
        "type": "noteOff",
        "noteNumber": 81,
        "velocity": 0,
        "byte9": true
    },
    {
        "deltaTime": 22,
        "running": true,
        "channel": 5,
        "type": "noteOff",
        "noteNumber": 73,
        "velocity": 0,
        "byte9": true
    },
    {
        "deltaTime": 0,
        "running": true,
        "channel": 5,
        "type": "noteOff",
        "noteNumber": 76,
        "velocity": 0,
        "byte9": true
    },
    {
        "deltaTime": 3,
        "channel": 14,
        "type": "noteOff",
        "noteNumber": 69,
        "velocity": 0,
        "byte9": true
    },
    {
        "deltaTime": 22,
        "running": true,
        "channel": 14,
        "type": "noteOff",
        "noteNumber": 61,
        "velocity": 0,
        "byte9": true
    },
    {
        "deltaTime": 0,
        "running": true,
        "channel": 14,
        "type": "noteOff",
        "noteNumber": 64,
        "velocity": 0,
        "byte9": true
    },
    {
        "deltaTime": 123,
        "channel": 1,
        "type": "noteOff",
        "noteNumber": 33,
        "velocity": 0,
        "byte9": true
    },
    {
        "deltaTime": 0,
        "channel": 8,
        "type": "noteOff",
        "noteNumber": 33,
        "velocity": 0,
        "byte9": true
    },
    {
        "deltaTime": 4,
        "channel": 1,
        "type": "noteOn",
        "noteNumber": 36,
        "velocity": 99
    },
    {
        "deltaTime": 0,
        "channel": 8,
        "type": "noteOn",
        "noteNumber": 36,
        "velocity": 99
    },
    {
        "deltaTime": 0,
        "channel": 9,
        "type": "noteOn",
        "noteNumber": 35,
        "velocity": 114
    },
    {
        "deltaTime": 0,
        "running": true,
        "channel": 9,
        "type": "noteOn",
        "noteNumber": 70,
        "velocity": 65
    },
    {
        "deltaTime": 0,
        "channel": 11,
        "type": "noteOn",
        "noteNumber": 41,
        "velocity": 114
    },
    {
        "deltaTime": 12,
        "channel": 9,
        "type": "noteOff",
        "noteNumber": 35,
        "velocity": 0,
        "byte9": true
    },
    {
        "deltaTime": 0,
        "running": true,
        "channel": 9,
        "type": "noteOff",
        "noteNumber": 70,
        "velocity": 0,
        "byte9": true
    },
    {
        "deltaTime": 144,
        "channel": 7,
        "type": "noteOff",
        "noteNumber": 77,
        "velocity": 0,
        "byte9": true
    },
    {
        "deltaTime": 4,
        "channel": 5,
        "type": "noteOn",
        "noteNumber": 73,
        "velocity": 109
    },
    {
        "deltaTime": 0,
        "running": true,
        "channel": 5,
        "type": "noteOn",
        "noteNumber": 76,
        "velocity": 97
    },
    {
        "deltaTime": 0,
        "running": true,
        "channel": 5,
        "type": "noteOn",
        "noteNumber": 81,
        "velocity": 110
    },
    {
        "deltaTime": 0,
        "channel": 7,
        "type": "noteOn",
        "noteNumber": 76,
        "velocity": 119
    },
    {
        "deltaTime": 0,
        "channel": 9,
        "type": "noteOn",
        "noteNumber": 44,
        "velocity": 107
    },
    {
        "deltaTime": 0,
        "running": true,
        "channel": 9,
        "type": "noteOn",
        "noteNumber": 54,
        "velocity": 109
    },
    {
        "deltaTime": 1,
        "channel": 11,
        "type": "noteOff",
        "noteNumber": 41,
        "velocity": 0,
        "byte9": true
    },
    {
        "deltaTime": 11,
        "channel": 9,
        "type": "noteOff",
        "noteNumber": 44,
        "velocity": 0,
        "byte9": true
    },
    {
        "deltaTime": 0,
        "running": true,
        "channel": 9,
        "type": "noteOff",
        "noteNumber": 54,
        "velocity": 0,
        "byte9": true
    },
    {
        "deltaTime": 13,
        "channel": 14,
        "type": "noteOn",
        "noteNumber": 61,
        "velocity": 109
    },
    {
        "deltaTime": 0,
        "running": true,
        "channel": 14,
        "type": "noteOn",
        "noteNumber": 64,
        "velocity": 97
    },
    {
        "deltaTime": 0,
        "running": true,
        "channel": 14,
        "type": "noteOn",
        "noteNumber": 69,
        "velocity": 110
    },
    {
        "deltaTime": 124,
        "channel": 5,
        "type": "noteOff",
        "noteNumber": 81,
        "velocity": 0,
        "byte9": true
    },
    {
        "deltaTime": 9,
        "running": true,
        "channel": 5,
        "type": "noteOff",
        "noteNumber": 73,
        "velocity": 0,
        "byte9": true
    },
    {
        "deltaTime": 3,
        "running": true,
        "channel": 5,
        "type": "noteOff",
        "noteNumber": 76,
        "velocity": 0,
        "byte9": true
    },
    {
        "deltaTime": 13,
        "channel": 14,
        "type": "noteOff",
        "noteNumber": 69,
        "velocity": 0,
        "byte9": true
    },
    {
        "deltaTime": 9,
        "running": true,
        "channel": 14,
        "type": "noteOff",
        "noteNumber": 61,
        "velocity": 0,
        "byte9": true
    },
    {
        "deltaTime": 3,
        "running": true,
        "channel": 14,
        "type": "noteOff",
        "noteNumber": 64,
        "velocity": 0,
        "byte9": true
    },
    {
        "deltaTime": 0,
        "channel": 3,
        "type": "noteOn",
        "noteNumber": 69,
        "velocity": 109
    },
    {
        "deltaTime": 4,
        "channel": 1,
        "type": "noteOff",
        "noteNumber": 36,
        "velocity": 0,
        "byte9": true
    },
    {
        "deltaTime": 0,
        "channel": 8,
        "type": "noteOff",
        "noteNumber": 36,
        "velocity": 0,
        "byte9": true
    },
    {
        "deltaTime": 4,
        "channel": 1,
        "type": "noteOn",
        "noteNumber": 37,
        "velocity": 99
    },
    {
        "deltaTime": 0,
        "channel": 8,
        "type": "noteOn",
        "noteNumber": 37,
        "velocity": 99
    },
    {
        "deltaTime": 115,
        "channel": 4,
        "type": "noteOff",
        "noteNumber": 61,
        "velocity": 0,
        "byte9": true
    },
    {
        "deltaTime": 0,
        "running": true,
        "channel": 4,
        "type": "noteOff",
        "noteNumber": 64,
        "velocity": 0,
        "byte9": true
    },
    {
        "deltaTime": 0,
        "running": true,
        "channel": 4,
        "type": "noteOff",
        "noteNumber": 69,
        "velocity": 0,
        "byte9": true
    },
    {
        "deltaTime": 28,
        "channel": 3,
        "type": "noteOff",
        "noteNumber": 69,
        "velocity": 0,
        "byte9": true
    },
    {
        "deltaTime": 13,
        "channel": 1,
        "type": "noteOff",
        "noteNumber": 37,
        "velocity": 0,
        "byte9": true
    },
    {
        "deltaTime": 0,
        "channel": 7,
        "type": "noteOff",
        "noteNumber": 76,
        "velocity": 0,
        "byte9": true
    },
    {
        "deltaTime": 0,
        "channel": 8,
        "type": "noteOff",
        "noteNumber": 37,
        "velocity": 0,
        "byte9": true
    },
    {
        "deltaTime": 4,
        "channel": 1,
        "type": "noteOn",
        "noteNumber": 38,
        "velocity": 99
    },
    {
        "deltaTime": 0,
        "channel": 5,
        "type": "noteOn",
        "noteNumber": 74,
        "velocity": 101
    },
    {
        "deltaTime": 0,
        "running": true,
        "channel": 5,
        "type": "noteOn",
        "noteNumber": 77,
        "velocity": 97
    },
    {
        "deltaTime": 0,
        "running": true,
        "channel": 5,
        "type": "noteOn",
        "noteNumber": 81,
        "velocity": 105
    },
    {
        "deltaTime": 0,
        "channel": 7,
        "type": "noteOn",
        "noteNumber": 74,
        "velocity": 119
    },
    {
        "deltaTime": 0,
        "channel": 8,
        "type": "noteOn",
        "noteNumber": 38,
        "velocity": 99
    },
    {
        "deltaTime": 0,
        "channel": 9,
        "type": "noteOn",
        "noteNumber": 35,
        "velocity": 114
    },
    {
        "deltaTime": 0,
        "channel": 11,
        "type": "noteOn",
        "noteNumber": 41,
        "velocity": 114
    },
    {
        "deltaTime": 12,
        "channel": 9,
        "type": "noteOff",
        "noteNumber": 35,
        "velocity": 0,
        "byte9": true
    },
    {
        "deltaTime": 0,
        "channel": 3,
        "type": "noteOn",
        "noteNumber": 74,
        "velocity": 114
    },
    {
        "deltaTime": 7,
        "channel": 14,
        "type": "noteOn",
        "noteNumber": 62,
        "velocity": 101
    },
    {
        "deltaTime": 0,
        "running": true,
        "channel": 14,
        "type": "noteOn",
        "noteNumber": 65,
        "velocity": 97
    },
    {
        "deltaTime": 0,
        "running": true,
        "channel": 14,
        "type": "noteOn",
        "noteNumber": 69,
        "velocity": 105
    },
    {
        "deltaTime": 48,
        "channel": 5,
        "type": "noteOff",
        "noteNumber": 81,
        "velocity": 0,
        "byte9": true
    },
    {
        "deltaTime": 25,
        "channel": 14,
        "type": "noteOff",
        "noteNumber": 69,
        "velocity": 0,
        "byte9": true
    },
    {
        "deltaTime": 23,
        "channel": 5,
        "type": "noteOff",
        "noteNumber": 77,
        "velocity": 0,
        "byte9": true
    },
    {
        "deltaTime": 2,
        "running": true,
        "channel": 5,
        "type": "noteOff",
        "noteNumber": 74,
        "velocity": 0,
        "byte9": true
    },
    {
        "deltaTime": 23,
        "channel": 14,
        "type": "noteOff",
        "noteNumber": 65,
        "velocity": 0,
        "byte9": true
    },
    {
        "deltaTime": 2,
        "running": true,
        "channel": 14,
        "type": "noteOff",
        "noteNumber": 62,
        "velocity": 0,
        "byte9": true
    },
    {
        "deltaTime": 13,
        "channel": 11,
        "type": "noteOff",
        "noteNumber": 41,
        "velocity": 0,
        "byte9": true
    },
    {
        "deltaTime": 315,
        "channel": 7,
        "type": "noteOff",
        "noteNumber": 74,
        "velocity": 0,
        "byte9": true
    },
    {
        "deltaTime": 4,
        "channel": 5,
        "type": "noteOn",
        "noteNumber": 74,
        "velocity": 111
    },
    {
        "deltaTime": 0,
        "running": true,
        "channel": 5,
        "type": "noteOn",
        "noteNumber": 77,
        "velocity": 107
    },
    {
        "deltaTime": 0,
        "running": true,
        "channel": 5,
        "type": "noteOn",
        "noteNumber": 81,
        "velocity": 105
    },
    {
        "deltaTime": 0,
        "channel": 9,
        "type": "noteOn",
        "noteNumber": 44,
        "velocity": 107
    },
    {
        "deltaTime": 0,
        "running": true,
        "channel": 9,
        "type": "noteOn",
        "noteNumber": 69,
        "velocity": 109
    },
    {
        "deltaTime": 0,
        "channel": 13,
        "type": "noteOn",
        "noteNumber": 62,
        "velocity": 83
    },
    {
        "deltaTime": 12,
        "channel": 9,
        "type": "noteOff",
        "noteNumber": 44,
        "velocity": 0,
        "byte9": true
    },
    {
        "deltaTime": 0,
        "running": true,
        "channel": 9,
        "type": "noteOff",
        "noteNumber": 69,
        "velocity": 0,
        "byte9": true
    },
    {
        "deltaTime": 13,
        "channel": 14,
        "type": "noteOn",
        "noteNumber": 62,
        "velocity": 111
    },
    {
        "deltaTime": 0,
        "running": true,
        "channel": 14,
        "type": "noteOn",
        "noteNumber": 65,
        "velocity": 107
    },
    {
        "deltaTime": 0,
        "running": true,
        "channel": 14,
        "type": "noteOn",
        "noteNumber": 69,
        "velocity": 105
    },
    {
        "deltaTime": 132,
        "channel": 5,
        "type": "noteOff",
        "noteNumber": 81,
        "velocity": 0,
        "byte9": true
    },
    {
        "deltaTime": 7,
        "running": true,
        "channel": 5,
        "type": "noteOff",
        "noteNumber": 77,
        "velocity": 0,
        "byte9": true
    },
    {
        "deltaTime": 4,
        "running": true,
        "channel": 5,
        "type": "noteOff",
        "noteNumber": 74,
        "velocity": 0,
        "byte9": true
    },
    {
        "deltaTime": 14,
        "channel": 14,
        "type": "noteOff",
        "noteNumber": 69,
        "velocity": 0,
        "byte9": true
    },
    {
        "deltaTime": 7,
        "running": true,
        "channel": 14,
        "type": "noteOff",
        "noteNumber": 65,
        "velocity": 0,
        "byte9": true
    },
    {
        "deltaTime": 4,
        "running": true,
        "channel": 14,
        "type": "noteOff",
        "noteNumber": 62,
        "velocity": 0,
        "byte9": true
    },
    {
        "deltaTime": 48,
        "channel": 1,
        "type": "noteOff",
        "noteNumber": 38,
        "velocity": 0,
        "byte9": true
    },
    {
        "deltaTime": 0,
        "channel": 8,
        "type": "noteOff",
        "noteNumber": 38,
        "velocity": 0,
        "byte9": true
    },
    {
        "deltaTime": 79,
        "channel": 1,
        "type": "noteOn",
        "noteNumber": 38,
        "velocity": 99
    },
    {
        "deltaTime": 0,
        "channel": 8,
        "type": "noteOn",
        "noteNumber": 38,
        "velocity": 99
    },
    {
        "deltaTime": 0,
        "channel": 9,
        "type": "noteOn",
        "noteNumber": 35,
        "velocity": 107
    },
    {
        "deltaTime": 0,
        "channel": 11,
        "type": "noteOn",
        "noteNumber": 41,
        "velocity": 107
    },
    {
        "deltaTime": 12,
        "channel": 9,
        "type": "noteOff",
        "noteNumber": 35,
        "velocity": 0,
        "byte9": true
    },
    {
        "deltaTime": 148,
        "channel": 5,
        "type": "noteOn",
        "noteNumber": 74,
        "velocity": 105
    },
    {
        "deltaTime": 0,
        "running": true,
        "channel": 5,
        "type": "noteOn",
        "noteNumber": 77,
        "velocity": 94
    },
    {
        "deltaTime": 0,
        "running": true,
        "channel": 5,
        "type": "noteOn",
        "noteNumber": 81,
        "velocity": 94
    },
    {
        "deltaTime": 0,
        "channel": 9,
        "type": "noteOn",
        "noteNumber": 35,
        "velocity": 114
    },
    {
        "deltaTime": 0,
        "channel": 11,
        "type": "noteOn",
        "noteNumber": 41,
        "velocity": 114
    },
    {
        "deltaTime": 1,
        "running": true,
        "channel": 11,
        "type": "noteOff",
        "noteNumber": 41,
        "velocity": 0,
        "byte9": true
    },
    {
        "deltaTime": 11,
        "channel": 9,
        "type": "noteOff",
        "noteNumber": 35,
        "velocity": 0,
        "byte9": true
    },
    {
        "deltaTime": 13,
        "channel": 14,
        "type": "noteOn",
        "noteNumber": 62,
        "velocity": 105
    },
    {
        "deltaTime": 0,
        "running": true,
        "channel": 14,
        "type": "noteOn",
        "noteNumber": 65,
        "velocity": 94
    },
    {
        "deltaTime": 0,
        "running": true,
        "channel": 14,
        "type": "noteOn",
        "noteNumber": 69,
        "velocity": 94
    },
    {
        "deltaTime": 130,
        "channel": 5,
        "type": "noteOff",
        "noteNumber": 81,
        "velocity": 0,
        "byte9": true
    },
    {
        "deltaTime": 6,
        "channel": 11,
        "type": "noteOff",
        "noteNumber": 41,
        "velocity": 0,
        "byte9": true
    },
    {
        "deltaTime": 2,
        "channel": 5,
        "type": "noteOff",
        "noteNumber": 74,
        "velocity": 0,
        "byte9": true
    },
    {
        "deltaTime": 4,
        "running": true,
        "channel": 5,
        "type": "noteOff",
        "noteNumber": 77,
        "velocity": 0,
        "byte9": true
    },
    {
        "deltaTime": 13,
        "channel": 14,
        "type": "noteOff",
        "noteNumber": 69,
        "velocity": 0,
        "byte9": true
    },
    {
        "deltaTime": 8,
        "running": true,
        "channel": 14,
        "type": "noteOff",
        "noteNumber": 62,
        "velocity": 0,
        "byte9": true
    },
    {
        "deltaTime": 4,
        "running": true,
        "channel": 14,
        "type": "noteOff",
        "noteNumber": 65,
        "velocity": 0,
        "byte9": true
    },
    {
        "deltaTime": 128,
        "channel": 9,
        "type": "noteOn",
        "noteNumber": 70,
        "velocity": 65
    },
    {
        "deltaTime": 12,
        "running": true,
        "channel": 9,
        "type": "noteOff",
        "noteNumber": 70,
        "velocity": 0,
        "byte9": true
    },
    {
        "deltaTime": 121,
        "channel": 3,
        "type": "noteOff",
        "noteNumber": 74,
        "velocity": 0,
        "byte9": true
    },
    {
        "deltaTime": 27,
        "channel": 5,
        "type": "noteOn",
        "noteNumber": 74,
        "velocity": 109
    },
    {
        "deltaTime": 0,
        "running": true,
        "channel": 5,
        "type": "noteOn",
        "noteNumber": 77,
        "velocity": 94
    },
    {
        "deltaTime": 0,
        "running": true,
        "channel": 5,
        "type": "noteOn",
        "noteNumber": 81,
        "velocity": 94
    },
    {
        "deltaTime": 0,
        "channel": 9,
        "type": "noteOn",
        "noteNumber": 44,
        "velocity": 107
    },
    {
        "deltaTime": 0,
        "running": true,
        "channel": 9,
        "type": "noteOn",
        "noteNumber": 54,
        "velocity": 109
    },
    {
        "deltaTime": 0,
        "channel": 13,
        "type": "noteOn",
        "noteNumber": 65,
        "velocity": 83
    },
    {
        "deltaTime": 12,
        "channel": 9,
        "type": "noteOff",
        "noteNumber": 44,
        "velocity": 0,
        "byte9": true
    },
    {
        "deltaTime": 0,
        "running": true,
        "channel": 9,
        "type": "noteOff",
        "noteNumber": 54,
        "velocity": 0,
        "byte9": true
    },
    {
        "deltaTime": 13,
        "channel": 14,
        "type": "noteOn",
        "noteNumber": 62,
        "velocity": 109
    },
    {
        "deltaTime": 0,
        "running": true,
        "channel": 14,
        "type": "noteOn",
        "noteNumber": 65,
        "velocity": 94
    },
    {
        "deltaTime": 0,
        "running": true,
        "channel": 14,
        "type": "noteOn",
        "noteNumber": 69,
        "velocity": 94
    },
    {
        "deltaTime": 116,
        "channel": 5,
        "type": "noteOff",
        "noteNumber": 81,
        "velocity": 0,
        "byte9": true
    },
    {
        "deltaTime": 13,
        "running": true,
        "channel": 5,
        "type": "noteOff",
        "noteNumber": 74,
        "velocity": 0,
        "byte9": true
    },
    {
        "deltaTime": 0,
        "running": true,
        "channel": 5,
        "type": "noteOff",
        "noteNumber": 77,
        "velocity": 0,
        "byte9": true
    },
    {
        "deltaTime": 7,
        "channel": 1,
        "type": "noteOff",
        "noteNumber": 38,
        "velocity": 0,
        "byte9": true
    },
    {
        "deltaTime": 0,
        "channel": 8,
        "type": "noteOff",
        "noteNumber": 38,
        "velocity": 0,
        "byte9": true
    },
    {
        "deltaTime": 5,
        "channel": 14,
        "type": "noteOff",
        "noteNumber": 69,
        "velocity": 0,
        "byte9": true
    },
    {
        "deltaTime": 13,
        "running": true,
        "channel": 14,
        "type": "noteOff",
        "noteNumber": 62,
        "velocity": 0,
        "byte9": true
    },
    {
        "deltaTime": 0,
        "running": true,
        "channel": 14,
        "type": "noteOff",
        "noteNumber": 65,
        "velocity": 0,
        "byte9": true
    },
    {
        "deltaTime": 0,
        "channel": 3,
        "type": "noteOn",
        "noteNumber": 72,
        "velocity": 127
    },
    {
        "deltaTime": 16,
        "channel": 1,
        "type": "noteOn",
        "noteNumber": 38,
        "velocity": 99
    },
    {
        "deltaTime": 0,
        "channel": 8,
        "type": "noteOn",
        "noteNumber": 38,
        "velocity": 99
    },
    {
        "deltaTime": 115,
        "channel": 3,
        "type": "noteOff",
        "noteNumber": 72,
        "velocity": 0,
        "byte9": true
    },
    {
        "deltaTime": 35,
        "channel": 13,
        "type": "noteOff",
        "noteNumber": 62,
        "velocity": 0,
        "byte9": true
    },
    {
        "deltaTime": 10,
        "channel": 5,
        "type": "noteOn",
        "noteNumber": 74,
        "velocity": 109
    },
    {
        "deltaTime": 0,
        "running": true,
        "channel": 5,
        "type": "noteOn",
        "noteNumber": 77,
        "velocity": 94
    },
    {
        "deltaTime": 0,
        "running": true,
        "channel": 5,
        "type": "noteOn",
        "noteNumber": 81,
        "velocity": 101
    },
    {
        "deltaTime": 0,
        "channel": 9,
        "type": "noteOn",
        "noteNumber": 35,
        "velocity": 114
    },
    {
        "deltaTime": 0,
        "channel": 11,
        "type": "noteOn",
        "noteNumber": 41,
        "velocity": 114
    },
    {
        "deltaTime": 12,
        "channel": 9,
        "type": "noteOff",
        "noteNumber": 35,
        "velocity": 0,
        "byte9": true
    },
    {
        "deltaTime": 5,
        "channel": 3,
        "type": "noteOn",
        "noteNumber": 74,
        "velocity": 114
    },
    {
        "deltaTime": 8,
        "channel": 14,
        "type": "noteOn",
        "noteNumber": 62,
        "velocity": 109
    },
    {
        "deltaTime": 0,
        "running": true,
        "channel": 14,
        "type": "noteOn",
        "noteNumber": 65,
        "velocity": 94
    },
    {
        "deltaTime": 0,
        "running": true,
        "channel": 14,
        "type": "noteOn",
        "noteNumber": 69,
        "velocity": 101
    },
    {
        "deltaTime": 130,
        "channel": 5,
        "type": "noteOff",
        "noteNumber": 81,
        "velocity": 0,
        "byte9": true
    },
    {
        "deltaTime": 6,
        "channel": 11,
        "type": "noteOff",
        "noteNumber": 41,
        "velocity": 0,
        "byte9": true
    },
    {
        "deltaTime": 10,
        "channel": 5,
        "type": "noteOff",
        "noteNumber": 74,
        "velocity": 0,
        "byte9": true
    },
    {
        "deltaTime": 0,
        "running": true,
        "channel": 5,
        "type": "noteOff",
        "noteNumber": 77,
        "velocity": 0,
        "byte9": true
    },
    {
        "deltaTime": 9,
        "channel": 14,
        "type": "noteOff",
        "noteNumber": 69,
        "velocity": 0,
        "byte9": true
    },
    {
        "deltaTime": 16,
        "running": true,
        "channel": 14,
        "type": "noteOff",
        "noteNumber": 62,
        "velocity": 0,
        "byte9": true
    },
    {
        "deltaTime": 0,
        "running": true,
        "channel": 14,
        "type": "noteOff",
        "noteNumber": 65,
        "velocity": 0,
        "byte9": true
    },
    {
        "deltaTime": 170,
        "channel": 3,
        "type": "noteOff",
        "noteNumber": 74,
        "velocity": 0,
        "byte9": true
    },
    {
        "deltaTime": 114,
        "channel": 5,
        "type": "noteOn",
        "noteNumber": 74,
        "velocity": 108
    },
    {
        "deltaTime": 0,
        "running": true,
        "channel": 5,
        "type": "noteOn",
        "noteNumber": 77,
        "velocity": 97
    },
    {
        "deltaTime": 0,
        "running": true,
        "channel": 5,
        "type": "noteOn",
        "noteNumber": 81,
        "velocity": 98
    },
    {
        "deltaTime": 0,
        "channel": 9,
        "type": "noteOn",
        "noteNumber": 44,
        "velocity": 107
    },
    {
        "deltaTime": 0,
        "running": true,
        "channel": 9,
        "type": "noteOn",
        "noteNumber": 69,
        "velocity": 109
    },
    {
        "deltaTime": 12,
        "running": true,
        "channel": 9,
        "type": "noteOff",
        "noteNumber": 44,
        "velocity": 0,
        "byte9": true
    },
    {
        "deltaTime": 0,
        "running": true,
        "channel": 9,
        "type": "noteOff",
        "noteNumber": 69,
        "velocity": 0,
        "byte9": true
    },
    {
        "deltaTime": 13,
        "channel": 14,
        "type": "noteOn",
        "noteNumber": 62,
        "velocity": 108
    },
    {
        "deltaTime": 0,
        "running": true,
        "channel": 14,
        "type": "noteOn",
        "noteNumber": 65,
        "velocity": 97
    },
    {
        "deltaTime": 0,
        "running": true,
        "channel": 14,
        "type": "noteOn",
        "noteNumber": 69,
        "velocity": 98
    },
    {
        "deltaTime": 121,
        "channel": 5,
        "type": "noteOff",
        "noteNumber": 81,
        "velocity": 0,
        "byte9": true
    },
    {
        "deltaTime": 12,
        "running": true,
        "channel": 5,
        "type": "noteOff",
        "noteNumber": 74,
        "velocity": 0,
        "byte9": true
    },
    {
        "deltaTime": 3,
        "channel": 1,
        "type": "noteOff",
        "noteNumber": 38,
        "velocity": 0,
        "byte9": true
    },
    {
        "deltaTime": 0,
        "channel": 8,
        "type": "noteOff",
        "noteNumber": 38,
        "velocity": 0,
        "byte9": true
    },
    {
        "deltaTime": 2,
        "channel": 5,
        "type": "noteOff",
        "noteNumber": 77,
        "velocity": 0,
        "byte9": true
    },
    {
        "deltaTime": 8,
        "channel": 14,
        "type": "noteOff",
        "noteNumber": 69,
        "velocity": 0,
        "byte9": true
    },
    {
        "deltaTime": 12,
        "running": true,
        "channel": 14,
        "type": "noteOff",
        "noteNumber": 62,
        "velocity": 0,
        "byte9": true
    },
    {
        "deltaTime": 5,
        "running": true,
        "channel": 14,
        "type": "noteOff",
        "noteNumber": 65,
        "velocity": 0,
        "byte9": true
    },
    {
        "deltaTime": 0,
        "channel": 3,
        "type": "noteOn",
        "noteNumber": 72,
        "velocity": 127
    },
    {
        "deltaTime": 18,
        "channel": 1,
        "type": "noteOn",
        "noteNumber": 38,
        "velocity": 99
    },
    {
        "deltaTime": 0,
        "channel": 8,
        "type": "noteOn",
        "noteNumber": 38,
        "velocity": 99
    },
    {
        "deltaTime": 0,
        "channel": 9,
        "type": "noteOn",
        "noteNumber": 35,
        "velocity": 114
    },
    {
        "deltaTime": 0,
        "channel": 11,
        "type": "noteOn",
        "noteNumber": 41,
        "velocity": 114
    },
    {
        "deltaTime": 0,
        "channel": 13,
        "type": "noteOn",
        "noteNumber": 57,
        "velocity": 83
    },
    {
        "deltaTime": 12,
        "channel": 9,
        "type": "noteOff",
        "noteNumber": 35,
        "velocity": 0,
        "byte9": true
    },
    {
        "deltaTime": 75,
        "channel": 3,
        "type": "noteOff",
        "noteNumber": 72,
        "velocity": 0,
        "byte9": true
    },
    {
        "deltaTime": 63,
        "channel": 13,
        "type": "noteOff",
        "noteNumber": 65,
        "velocity": 0,
        "byte9": true
    },
    {
        "deltaTime": 10,
        "channel": 5,
        "type": "noteOn",
        "noteNumber": 74,
        "velocity": 105
    },
    {
        "deltaTime": 0,
        "running": true,
        "channel": 5,
        "type": "noteOn",
        "noteNumber": 77,
        "velocity": 89
    },
    {
        "deltaTime": 0,
        "running": true,
        "channel": 5,
        "type": "noteOn",
        "noteNumber": 81,
        "velocity": 94
    },
    {
        "deltaTime": 1,
        "channel": 11,
        "type": "noteOff",
        "noteNumber": 41,
        "velocity": 0,
        "byte9": true
    },
    {
        "deltaTime": 0,
        "channel": 3,
        "type": "noteOn",
        "noteNumber": 74,
        "velocity": 114
    },
    {
        "deltaTime": 17,
        "channel": 14,
        "type": "noteOn",
        "noteNumber": 62,
        "velocity": 105
    },
    {
        "deltaTime": 0,
        "running": true,
        "channel": 14,
        "type": "noteOn",
        "noteNumber": 65,
        "velocity": 89
    },
    {
        "deltaTime": 0,
        "running": true,
        "channel": 14,
        "type": "noteOn",
        "noteNumber": 69,
        "velocity": 94
    },
    {
        "deltaTime": 121,
        "channel": 5,
        "type": "noteOff",
        "noteNumber": 81,
        "velocity": 0,
        "byte9": true
    },
    {
        "deltaTime": 22,
        "running": true,
        "channel": 5,
        "type": "noteOff",
        "noteNumber": 74,
        "velocity": 0,
        "byte9": true
    },
    {
        "deltaTime": 0,
        "running": true,
        "channel": 5,
        "type": "noteOff",
        "noteNumber": 77,
        "velocity": 0,
        "byte9": true
    },
    {
        "deltaTime": 3,
        "channel": 14,
        "type": "noteOff",
        "noteNumber": 69,
        "velocity": 0,
        "byte9": true
    },
    {
        "deltaTime": 22,
        "running": true,
        "channel": 14,
        "type": "noteOff",
        "noteNumber": 62,
        "velocity": 0,
        "byte9": true
    },
    {
        "deltaTime": 0,
        "running": true,
        "channel": 14,
        "type": "noteOff",
        "noteNumber": 65,
        "velocity": 0,
        "byte9": true
    },
    {
        "deltaTime": 123,
        "channel": 1,
        "type": "noteOff",
        "noteNumber": 38,
        "velocity": 0,
        "byte9": true
    },
    {
        "deltaTime": 0,
        "channel": 8,
        "type": "noteOff",
        "noteNumber": 38,
        "velocity": 0,
        "byte9": true
    },
    {
        "deltaTime": 4,
        "channel": 1,
        "type": "noteOn",
        "noteNumber": 36,
        "velocity": 99
    },
    {
        "deltaTime": 0,
        "channel": 8,
        "type": "noteOn",
        "noteNumber": 36,
        "velocity": 99
    },
    {
        "deltaTime": 0,
        "channel": 9,
        "type": "noteOn",
        "noteNumber": 35,
        "velocity": 114
    },
    {
        "deltaTime": 0,
        "running": true,
        "channel": 9,
        "type": "noteOn",
        "noteNumber": 70,
        "velocity": 65
    },
    {
        "deltaTime": 0,
        "channel": 11,
        "type": "noteOn",
        "noteNumber": 41,
        "velocity": 114
    },
    {
        "deltaTime": 12,
        "channel": 9,
        "type": "noteOff",
        "noteNumber": 35,
        "velocity": 0,
        "byte9": true
    },
    {
        "deltaTime": 0,
        "running": true,
        "channel": 9,
        "type": "noteOff",
        "noteNumber": 70,
        "velocity": 0,
        "byte9": true
    },
    {
        "deltaTime": 64,
        "channel": 3,
        "type": "noteOff",
        "noteNumber": 74,
        "velocity": 0,
        "byte9": true
    },
    {
        "deltaTime": 84,
        "channel": 5,
        "type": "noteOn",
        "noteNumber": 74,
        "velocity": 109
    },
    {
        "deltaTime": 0,
        "running": true,
        "channel": 5,
        "type": "noteOn",
        "noteNumber": 77,
        "velocity": 97
    },
    {
        "deltaTime": 0,
        "running": true,
        "channel": 5,
        "type": "noteOn",
        "noteNumber": 81,
        "velocity": 110
    },
    {
        "deltaTime": 0,
        "channel": 9,
        "type": "noteOn",
        "noteNumber": 44,
        "velocity": 107
    },
    {
        "deltaTime": 0,
        "running": true,
        "channel": 9,
        "type": "noteOn",
        "noteNumber": 54,
        "velocity": 109
    },
    {
        "deltaTime": 1,
        "channel": 11,
        "type": "noteOff",
        "noteNumber": 41,
        "velocity": 0,
        "byte9": true
    },
    {
        "deltaTime": 11,
        "channel": 9,
        "type": "noteOff",
        "noteNumber": 44,
        "velocity": 0,
        "byte9": true
    },
    {
        "deltaTime": 0,
        "running": true,
        "channel": 9,
        "type": "noteOff",
        "noteNumber": 54,
        "velocity": 0,
        "byte9": true
    },
    {
        "deltaTime": 13,
        "channel": 14,
        "type": "noteOn",
        "noteNumber": 62,
        "velocity": 109
    },
    {
        "deltaTime": 0,
        "running": true,
        "channel": 14,
        "type": "noteOn",
        "noteNumber": 65,
        "velocity": 97
    },
    {
        "deltaTime": 0,
        "running": true,
        "channel": 14,
        "type": "noteOn",
        "noteNumber": 69,
        "velocity": 110
    },
    {
        "deltaTime": 0,
        "channel": 3,
        "type": "noteOn",
        "noteNumber": 74,
        "velocity": 114
    },
    {
        "deltaTime": 119,
        "channel": 5,
        "type": "noteOff",
        "noteNumber": 81,
        "velocity": 0,
        "byte9": true
    },
    {
        "deltaTime": 9,
        "running": true,
        "channel": 5,
        "type": "noteOff",
        "noteNumber": 74,
        "velocity": 0,
        "byte9": true
    },
    {
        "deltaTime": 3,
        "running": true,
        "channel": 5,
        "type": "noteOff",
        "noteNumber": 77,
        "velocity": 0,
        "byte9": true
    },
    {
        "deltaTime": 13,
        "channel": 14,
        "type": "noteOff",
        "noteNumber": 69,
        "velocity": 0,
        "byte9": true
    },
    {
        "deltaTime": 9,
        "running": true,
        "channel": 14,
        "type": "noteOff",
        "noteNumber": 62,
        "velocity": 0,
        "byte9": true
    },
    {
        "deltaTime": 3,
        "running": true,
        "channel": 14,
        "type": "noteOff",
        "noteNumber": 65,
        "velocity": 0,
        "byte9": true
    },
    {
        "deltaTime": 130,
        "channel": 1,
        "type": "noteOff",
        "noteNumber": 36,
        "velocity": 0,
        "byte9": true
    },
    {
        "deltaTime": 0,
        "channel": 8,
        "type": "noteOff",
        "noteNumber": 36,
        "velocity": 0,
        "byte9": true
    },
    {
        "deltaTime": 4,
        "channel": 1,
        "type": "noteOn",
        "noteNumber": 33,
        "velocity": 99
    },
    {
        "deltaTime": 0,
        "channel": 8,
        "type": "noteOn",
        "noteNumber": 33,
        "velocity": 99
    },
    {
        "deltaTime": 156,
        "channel": 1,
        "type": "noteOff",
        "noteNumber": 33,
        "velocity": 0,
        "byte9": true
    },
    {
        "deltaTime": 0,
        "channel": 8,
        "type": "noteOff",
        "noteNumber": 33,
        "velocity": 0,
        "byte9": true
    },
    {
        "deltaTime": 4,
        "channel": 1,
        "type": "noteOn",
        "noteNumber": 31,
        "velocity": 99
    },
    {
        "deltaTime": 0,
        "channel": 5,
        "type": "noteOn",
        "noteNumber": 74,
        "velocity": 101
    },
    {
        "deltaTime": 0,
        "running": true,
        "channel": 5,
        "type": "noteOn",
        "noteNumber": 79,
        "velocity": 97
    },
    {
        "deltaTime": 0,
        "running": true,
        "channel": 5,
        "type": "noteOn",
        "noteNumber": 82,
        "velocity": 105
    },
    {
        "deltaTime": 0,
        "channel": 8,
        "type": "noteOn",
        "noteNumber": 31,
        "velocity": 99
    },
    {
        "deltaTime": 0,
        "channel": 9,
        "type": "noteOn",
        "noteNumber": 35,
        "velocity": 114
    },
    {
        "deltaTime": 0,
        "channel": 11,
        "type": "noteOn",
        "noteNumber": 41,
        "velocity": 114
    },
    {
        "deltaTime": 12,
        "channel": 9,
        "type": "noteOff",
        "noteNumber": 35,
        "velocity": 0,
        "byte9": true
    },
    {
        "deltaTime": 13,
        "channel": 14,
        "type": "noteOn",
        "noteNumber": 62,
        "velocity": 101
    },
    {
        "deltaTime": 0,
        "running": true,
        "channel": 14,
        "type": "noteOn",
        "noteNumber": 67,
        "velocity": 97
    },
    {
        "deltaTime": 0,
        "running": true,
        "channel": 14,
        "type": "noteOn",
        "noteNumber": 70,
        "velocity": 105
    },
    {
        "deltaTime": 48,
        "channel": 5,
        "type": "noteOff",
        "noteNumber": 82,
        "velocity": 0,
        "byte9": true
    },
    {
        "deltaTime": 25,
        "channel": 14,
        "type": "noteOff",
        "noteNumber": 70,
        "velocity": 0,
        "byte9": true
    },
    {
        "deltaTime": 23,
        "channel": 5,
        "type": "noteOff",
        "noteNumber": 79,
        "velocity": 0,
        "byte9": true
    },
    {
        "deltaTime": 2,
        "running": true,
        "channel": 5,
        "type": "noteOff",
        "noteNumber": 74,
        "velocity": 0,
        "byte9": true
    },
    {
        "deltaTime": 23,
        "channel": 14,
        "type": "noteOff",
        "noteNumber": 67,
        "velocity": 0,
        "byte9": true
    },
    {
        "deltaTime": 2,
        "running": true,
        "channel": 14,
        "type": "noteOff",
        "noteNumber": 62,
        "velocity": 0,
        "byte9": true
    },
    {
        "deltaTime": 13,
        "channel": 11,
        "type": "noteOff",
        "noteNumber": 41,
        "velocity": 0,
        "byte9": true
    },
    {
        "deltaTime": 149,
        "channel": 13,
        "type": "noteOff",
        "noteNumber": 57,
        "velocity": 0,
        "byte9": true
    },
    {
        "deltaTime": 73,
        "channel": 3,
        "type": "noteOff",
        "noteNumber": 74,
        "velocity": 0,
        "byte9": true
    },
    {
        "deltaTime": 97,
        "channel": 5,
        "type": "noteOn",
        "noteNumber": 74,
        "velocity": 111
    },
    {
        "deltaTime": 0,
        "running": true,
        "channel": 5,
        "type": "noteOn",
        "noteNumber": 79,
        "velocity": 107
    },
    {
        "deltaTime": 0,
        "running": true,
        "channel": 5,
        "type": "noteOn",
        "noteNumber": 82,
        "velocity": 105
    },
    {
        "deltaTime": 0,
        "channel": 9,
        "type": "noteOn",
        "noteNumber": 44,
        "velocity": 107
    },
    {
        "deltaTime": 0,
        "running": true,
        "channel": 9,
        "type": "noteOn",
        "noteNumber": 69,
        "velocity": 109
    },
    {
        "deltaTime": 0,
        "channel": 13,
        "type": "noteOn",
        "noteNumber": 62,
        "velocity": 83
    },
    {
        "deltaTime": 12,
        "channel": 9,
        "type": "noteOff",
        "noteNumber": 44,
        "velocity": 0,
        "byte9": true
    },
    {
        "deltaTime": 0,
        "running": true,
        "channel": 9,
        "type": "noteOff",
        "noteNumber": 69,
        "velocity": 0,
        "byte9": true
    },
    {
        "deltaTime": 0,
        "channel": 3,
        "type": "noteOn",
        "noteNumber": 74,
        "velocity": 105
    },
    {
        "deltaTime": 11,
        "channel": 14,
        "type": "noteOn",
        "noteNumber": 62,
        "velocity": 111
    },
    {
        "deltaTime": 0,
        "running": true,
        "channel": 14,
        "type": "noteOn",
        "noteNumber": 67,
        "velocity": 107
    },
    {
        "deltaTime": 0,
        "running": true,
        "channel": 14,
        "type": "noteOn",
        "noteNumber": 70,
        "velocity": 105
    },
    {
        "deltaTime": 132,
        "channel": 5,
        "type": "noteOff",
        "noteNumber": 82,
        "velocity": 0,
        "byte9": true
    },
    {
        "deltaTime": 4,
        "channel": 1,
        "type": "noteOff",
        "noteNumber": 31,
        "velocity": 0,
        "byte9": true
    },
    {
        "deltaTime": 0,
        "channel": 8,
        "type": "noteOff",
        "noteNumber": 31,
        "velocity": 0,
        "byte9": true
    },
    {
        "deltaTime": 3,
        "channel": 5,
        "type": "noteOff",
        "noteNumber": 79,
        "velocity": 0,
        "byte9": true
    },
    {
        "deltaTime": 4,
        "running": true,
        "channel": 5,
        "type": "noteOff",
        "noteNumber": 74,
        "velocity": 0,
        "byte9": true
    },
    {
        "deltaTime": 14,
        "channel": 14,
        "type": "noteOff",
        "noteNumber": 70,
        "velocity": 0,
        "byte9": true
    },
    {
        "deltaTime": 7,
        "running": true,
        "channel": 14,
        "type": "noteOff",
        "noteNumber": 67,
        "velocity": 0,
        "byte9": true
    },
    {
        "deltaTime": 4,
        "running": true,
        "channel": 14,
        "type": "noteOff",
        "noteNumber": 62,
        "velocity": 0,
        "byte9": true
    },
    {
        "deltaTime": 127,
        "channel": 1,
        "type": "noteOn",
        "noteNumber": 31,
        "velocity": 99
    },
    {
        "deltaTime": 0,
        "channel": 8,
        "type": "noteOn",
        "noteNumber": 31,
        "velocity": 99
    },
    {
        "deltaTime": 0,
        "channel": 9,
        "type": "noteOn",
        "noteNumber": 35,
        "velocity": 107
    },
    {
        "deltaTime": 0,
        "channel": 11,
        "type": "noteOn",
        "noteNumber": 41,
        "velocity": 107
    },
    {
        "deltaTime": 12,
        "channel": 9,
        "type": "noteOff",
        "noteNumber": 35,
        "velocity": 0,
        "byte9": true
    },
    {
        "deltaTime": 148,
        "channel": 5,
        "type": "noteOn",
        "noteNumber": 74,
        "velocity": 105
    },
    {
        "deltaTime": 0,
        "running": true,
        "channel": 5,
        "type": "noteOn",
        "noteNumber": 79,
        "velocity": 94
    },
    {
        "deltaTime": 0,
        "running": true,
        "channel": 5,
        "type": "noteOn",
        "noteNumber": 82,
        "velocity": 94
    },
    {
        "deltaTime": 0,
        "channel": 9,
        "type": "noteOn",
        "noteNumber": 35,
        "velocity": 114
    },
    {
        "deltaTime": 0,
        "channel": 11,
        "type": "noteOn",
        "noteNumber": 41,
        "velocity": 114
    },
    {
        "deltaTime": 1,
        "running": true,
        "channel": 11,
        "type": "noteOff",
        "noteNumber": 41,
        "velocity": 0,
        "byte9": true
    },
    {
        "deltaTime": 11,
        "channel": 9,
        "type": "noteOff",
        "noteNumber": 35,
        "velocity": 0,
        "byte9": true
    },
    {
        "deltaTime": 13,
        "channel": 14,
        "type": "noteOn",
        "noteNumber": 62,
        "velocity": 105
    },
    {
        "deltaTime": 0,
        "running": true,
        "channel": 14,
        "type": "noteOn",
        "noteNumber": 67,
        "velocity": 94
    },
    {
        "deltaTime": 0,
        "running": true,
        "channel": 14,
        "type": "noteOn",
        "noteNumber": 70,
        "velocity": 94
    },
    {
        "deltaTime": 130,
        "channel": 5,
        "type": "noteOff",
        "noteNumber": 82,
        "velocity": 0,
        "byte9": true
    },
    {
        "deltaTime": 6,
        "channel": 11,
        "type": "noteOff",
        "noteNumber": 41,
        "velocity": 0,
        "byte9": true
    },
    {
        "deltaTime": 2,
        "channel": 5,
        "type": "noteOff",
        "noteNumber": 74,
        "velocity": 0,
        "byte9": true
    },
    {
        "deltaTime": 4,
        "running": true,
        "channel": 5,
        "type": "noteOff",
        "noteNumber": 79,
        "velocity": 0,
        "byte9": true
    },
    {
        "deltaTime": 13,
        "channel": 14,
        "type": "noteOff",
        "noteNumber": 70,
        "velocity": 0,
        "byte9": true
    },
    {
        "deltaTime": 8,
        "running": true,
        "channel": 14,
        "type": "noteOff",
        "noteNumber": 62,
        "velocity": 0,
        "byte9": true
    },
    {
        "deltaTime": 4,
        "running": true,
        "channel": 14,
        "type": "noteOff",
        "noteNumber": 67,
        "velocity": 0,
        "byte9": true
    },
    {
        "deltaTime": 128,
        "channel": 9,
        "type": "noteOn",
        "noteNumber": 70,
        "velocity": 65
    },
    {
        "deltaTime": 12,
        "running": true,
        "channel": 9,
        "type": "noteOff",
        "noteNumber": 70,
        "velocity": 0,
        "byte9": true
    },
    {
        "deltaTime": 123,
        "channel": 3,
        "type": "noteOff",
        "noteNumber": 74,
        "velocity": 0,
        "byte9": true
    },
    {
        "deltaTime": 25,
        "channel": 5,
        "type": "noteOn",
        "noteNumber": 74,
        "velocity": 109
    },
    {
        "deltaTime": 0,
        "running": true,
        "channel": 5,
        "type": "noteOn",
        "noteNumber": 79,
        "velocity": 94
    },
    {
        "deltaTime": 0,
        "running": true,
        "channel": 5,
        "type": "noteOn",
        "noteNumber": 82,
        "velocity": 94
    },
    {
        "deltaTime": 0,
        "channel": 9,
        "type": "noteOn",
        "noteNumber": 44,
        "velocity": 107
    },
    {
        "deltaTime": 0,
        "running": true,
        "channel": 9,
        "type": "noteOn",
        "noteNumber": 54,
        "velocity": 109
    },
    {
        "deltaTime": 0,
        "channel": 13,
        "type": "noteOn",
        "noteNumber": 67,
        "velocity": 83
    },
    {
        "deltaTime": 12,
        "channel": 9,
        "type": "noteOff",
        "noteNumber": 44,
        "velocity": 0,
        "byte9": true
    },
    {
        "deltaTime": 0,
        "running": true,
        "channel": 9,
        "type": "noteOff",
        "noteNumber": 54,
        "velocity": 0,
        "byte9": true
    },
    {
        "deltaTime": 13,
        "channel": 14,
        "type": "noteOn",
        "noteNumber": 62,
        "velocity": 109
    },
    {
        "deltaTime": 0,
        "running": true,
        "channel": 14,
        "type": "noteOn",
        "noteNumber": 67,
        "velocity": 94
    },
    {
        "deltaTime": 0,
        "running": true,
        "channel": 14,
        "type": "noteOn",
        "noteNumber": 70,
        "velocity": 94
    },
    {
        "deltaTime": 116,
        "channel": 5,
        "type": "noteOff",
        "noteNumber": 82,
        "velocity": 0,
        "byte9": true
    },
    {
        "deltaTime": 13,
        "running": true,
        "channel": 5,
        "type": "noteOff",
        "noteNumber": 74,
        "velocity": 0,
        "byte9": true
    },
    {
        "deltaTime": 0,
        "running": true,
        "channel": 5,
        "type": "noteOff",
        "noteNumber": 79,
        "velocity": 0,
        "byte9": true
    },
    {
        "deltaTime": 7,
        "channel": 1,
        "type": "noteOff",
        "noteNumber": 31,
        "velocity": 0,
        "byte9": true
    },
    {
        "deltaTime": 0,
        "channel": 8,
        "type": "noteOff",
        "noteNumber": 31,
        "velocity": 0,
        "byte9": true
    },
    {
        "deltaTime": 5,
        "channel": 14,
        "type": "noteOff",
        "noteNumber": 70,
        "velocity": 0,
        "byte9": true
    },
    {
        "deltaTime": 13,
        "running": true,
        "channel": 14,
        "type": "noteOff",
        "noteNumber": 62,
        "velocity": 0,
        "byte9": true
    },
    {
        "deltaTime": 0,
        "running": true,
        "channel": 14,
        "type": "noteOff",
        "noteNumber": 67,
        "velocity": 0,
        "byte9": true
    },
    {
        "deltaTime": 141,
        "channel": 1,
        "type": "noteOn",
        "noteNumber": 31,
        "velocity": 99
    },
    {
        "deltaTime": 0,
        "channel": 8,
        "type": "noteOn",
        "noteNumber": 31,
        "velocity": 99
    },
    {
        "deltaTime": 150,
        "channel": 13,
        "type": "noteOff",
        "noteNumber": 62,
        "velocity": 0,
        "byte9": true
    },
    {
        "deltaTime": 10,
        "channel": 5,
        "type": "noteOn",
        "noteNumber": 74,
        "velocity": 109
    },
    {
        "deltaTime": 0,
        "running": true,
        "channel": 5,
        "type": "noteOn",
        "noteNumber": 79,
        "velocity": 94
    },
    {
        "deltaTime": 0,
        "running": true,
        "channel": 5,
        "type": "noteOn",
        "noteNumber": 82,
        "velocity": 101
    },
    {
        "deltaTime": 0,
        "channel": 9,
        "type": "noteOn",
        "noteNumber": 35,
        "velocity": 114
    },
    {
        "deltaTime": 0,
        "channel": 11,
        "type": "noteOn",
        "noteNumber": 41,
        "velocity": 114
    },
    {
        "deltaTime": 12,
        "channel": 9,
        "type": "noteOff",
        "noteNumber": 35,
        "velocity": 0,
        "byte9": true
    },
    {
        "deltaTime": 13,
        "channel": 14,
        "type": "noteOn",
        "noteNumber": 62,
        "velocity": 109
    },
    {
        "deltaTime": 0,
        "running": true,
        "channel": 14,
        "type": "noteOn",
        "noteNumber": 67,
        "velocity": 94
    },
    {
        "deltaTime": 0,
        "running": true,
        "channel": 14,
        "type": "noteOn",
        "noteNumber": 70,
        "velocity": 101
    },
    {
        "deltaTime": 130,
        "channel": 5,
        "type": "noteOff",
        "noteNumber": 82,
        "velocity": 0,
        "byte9": true
    },
    {
        "deltaTime": 6,
        "channel": 11,
        "type": "noteOff",
        "noteNumber": 41,
        "velocity": 0,
        "byte9": true
    },
    {
        "deltaTime": 10,
        "channel": 5,
        "type": "noteOff",
        "noteNumber": 74,
        "velocity": 0,
        "byte9": true
    },
    {
        "deltaTime": 0,
        "running": true,
        "channel": 5,
        "type": "noteOff",
        "noteNumber": 79,
        "velocity": 0,
        "byte9": true
    },
    {
        "deltaTime": 9,
        "channel": 14,
        "type": "noteOff",
        "noteNumber": 70,
        "velocity": 0,
        "byte9": true
    },
    {
        "deltaTime": 16,
        "running": true,
        "channel": 14,
        "type": "noteOff",
        "noteNumber": 62,
        "velocity": 0,
        "byte9": true
    },
    {
        "deltaTime": 0,
        "running": true,
        "channel": 14,
        "type": "noteOff",
        "noteNumber": 67,
        "velocity": 0,
        "byte9": true
    },
    {
        "deltaTime": 284,
        "channel": 5,
        "type": "noteOn",
        "noteNumber": 74,
        "velocity": 108
    },
    {
        "deltaTime": 0,
        "running": true,
        "channel": 5,
        "type": "noteOn",
        "noteNumber": 79,
        "velocity": 97
    },
    {
        "deltaTime": 0,
        "running": true,
        "channel": 5,
        "type": "noteOn",
        "noteNumber": 82,
        "velocity": 98
    },
    {
        "deltaTime": 0,
        "channel": 9,
        "type": "noteOn",
        "noteNumber": 44,
        "velocity": 107
    },
    {
        "deltaTime": 0,
        "running": true,
        "channel": 9,
        "type": "noteOn",
        "noteNumber": 69,
        "velocity": 109
    },
    {
        "deltaTime": 0,
        "channel": 3,
        "type": "noteOn",
        "noteNumber": 74,
        "velocity": 109
    },
    {
        "deltaTime": 2,
        "channel": 9,
        "type": "noteOff",
        "noteNumber": 44,
        "velocity": 0,
        "byte9": true
    },
    {
        "deltaTime": 0,
        "running": true,
        "channel": 9,
        "type": "noteOff",
        "noteNumber": 69,
        "velocity": 0,
        "byte9": true
    },
    {
        "deltaTime": 13,
        "channel": 14,
        "type": "noteOn",
        "noteNumber": 62,
        "velocity": 108
    },
    {
        "deltaTime": 0,
        "running": true,
        "channel": 14,
        "type": "noteOn",
        "noteNumber": 67,
        "velocity": 97
    },
    {
        "deltaTime": 0,
        "running": true,
        "channel": 14,
        "type": "noteOn",
        "noteNumber": 70,
        "velocity": 98
    },
    {
        "deltaTime": 121,
        "channel": 5,
        "type": "noteOff",
        "noteNumber": 82,
        "velocity": 0,
        "byte9": true
    },
    {
        "deltaTime": 12,
        "running": true,
        "channel": 5,
        "type": "noteOff",
        "noteNumber": 74,
        "velocity": 0,
        "byte9": true
    },
    {
        "deltaTime": 3,
        "channel": 1,
        "type": "noteOff",
        "noteNumber": 31,
        "velocity": 0,
        "byte9": true
    },
    {
        "deltaTime": 0,
        "channel": 8,
        "type": "noteOff",
        "noteNumber": 31,
        "velocity": 0,
        "byte9": true
    },
    {
        "deltaTime": 2,
        "channel": 5,
        "type": "noteOff",
        "noteNumber": 79,
        "velocity": 0,
        "byte9": true
    },
    {
        "deltaTime": 8,
        "channel": 14,
        "type": "noteOff",
        "noteNumber": 70,
        "velocity": 0,
        "byte9": true
    },
    {
        "deltaTime": 12,
        "running": true,
        "channel": 14,
        "type": "noteOff",
        "noteNumber": 62,
        "velocity": 0,
        "byte9": true
    },
    {
        "deltaTime": 5,
        "running": true,
        "channel": 14,
        "type": "noteOff",
        "noteNumber": 67,
        "velocity": 0,
        "byte9": true
    },
    {
        "deltaTime": 132,
        "channel": 1,
        "type": "noteOn",
        "noteNumber": 31,
        "velocity": 99
    },
    {
        "deltaTime": 0,
        "channel": 8,
        "type": "noteOn",
        "noteNumber": 31,
        "velocity": 99
    },
    {
        "deltaTime": 0,
        "channel": 9,
        "type": "noteOn",
        "noteNumber": 35,
        "velocity": 114
    },
    {
        "deltaTime": 0,
        "channel": 11,
        "type": "noteOn",
        "noteNumber": 41,
        "velocity": 114
    },
    {
        "deltaTime": 0,
        "channel": 13,
        "type": "noteOn",
        "noteNumber": 58,
        "velocity": 83
    },
    {
        "deltaTime": 12,
        "channel": 9,
        "type": "noteOff",
        "noteNumber": 35,
        "velocity": 0,
        "byte9": true
    },
    {
        "deltaTime": 37,
        "channel": 3,
        "type": "noteOff",
        "noteNumber": 74,
        "velocity": 0,
        "byte9": true
    },
    {
        "deltaTime": 101,
        "channel": 13,
        "type": "noteOff",
        "noteNumber": 67,
        "velocity": 0,
        "byte9": true
    },
    {
        "deltaTime": 0,
        "channel": 3,
        "type": "noteOn",
        "noteNumber": 74,
        "velocity": 109
    },
    {
        "deltaTime": 8,
        "channel": 5,
        "type": "noteOn",
        "noteNumber": 74,
        "velocity": 105
    },
    {
        "deltaTime": 0,
        "running": true,
        "channel": 5,
        "type": "noteOn",
        "noteNumber": 79,
        "velocity": 89
    },
    {
        "deltaTime": 0,
        "running": true,
        "channel": 5,
        "type": "noteOn",
        "noteNumber": 82,
        "velocity": 94
    },
    {
        "deltaTime": 1,
        "channel": 11,
        "type": "noteOff",
        "noteNumber": 41,
        "velocity": 0,
        "byte9": true
    },
    {
        "deltaTime": 24,
        "channel": 14,
        "type": "noteOn",
        "noteNumber": 62,
        "velocity": 105
    },
    {
        "deltaTime": 0,
        "running": true,
        "channel": 14,
        "type": "noteOn",
        "noteNumber": 67,
        "velocity": 89
    },
    {
        "deltaTime": 0,
        "running": true,
        "channel": 14,
        "type": "noteOn",
        "noteNumber": 70,
        "velocity": 94
    },
    {
        "deltaTime": 121,
        "channel": 5,
        "type": "noteOff",
        "noteNumber": 82,
        "velocity": 0,
        "byte9": true
    },
    {
        "deltaTime": 22,
        "running": true,
        "channel": 5,
        "type": "noteOff",
        "noteNumber": 74,
        "velocity": 0,
        "byte9": true
    },
    {
        "deltaTime": 0,
        "running": true,
        "channel": 5,
        "type": "noteOff",
        "noteNumber": 79,
        "velocity": 0,
        "byte9": true
    },
    {
        "deltaTime": 3,
        "channel": 14,
        "type": "noteOff",
        "noteNumber": 70,
        "velocity": 0,
        "byte9": true
    },
    {
        "deltaTime": 22,
        "running": true,
        "channel": 14,
        "type": "noteOff",
        "noteNumber": 62,
        "velocity": 0,
        "byte9": true
    },
    {
        "deltaTime": 0,
        "running": true,
        "channel": 14,
        "type": "noteOff",
        "noteNumber": 67,
        "velocity": 0,
        "byte9": true
    },
    {
        "deltaTime": 123,
        "channel": 1,
        "type": "noteOff",
        "noteNumber": 31,
        "velocity": 0,
        "byte9": true
    },
    {
        "deltaTime": 0,
        "channel": 8,
        "type": "noteOff",
        "noteNumber": 31,
        "velocity": 0,
        "byte9": true
    },
    {
        "deltaTime": 4,
        "channel": 1,
        "type": "noteOn",
        "noteNumber": 32,
        "velocity": 99
    },
    {
        "deltaTime": 0,
        "channel": 8,
        "type": "noteOn",
        "noteNumber": 32,
        "velocity": 99
    },
    {
        "deltaTime": 0,
        "channel": 9,
        "type": "noteOn",
        "noteNumber": 35,
        "velocity": 114
    },
    {
        "deltaTime": 0,
        "running": true,
        "channel": 9,
        "type": "noteOn",
        "noteNumber": 70,
        "velocity": 65
    },
    {
        "deltaTime": 0,
        "channel": 11,
        "type": "noteOn",
        "noteNumber": 41,
        "velocity": 114
    },
    {
        "deltaTime": 12,
        "channel": 9,
        "type": "noteOff",
        "noteNumber": 35,
        "velocity": 0,
        "byte9": true
    },
    {
        "deltaTime": 0,
        "running": true,
        "channel": 9,
        "type": "noteOff",
        "noteNumber": 70,
        "velocity": 0,
        "byte9": true
    },
    {
        "deltaTime": 17,
        "channel": 3,
        "type": "noteOff",
        "noteNumber": 74,
        "velocity": 0,
        "byte9": true
    },
    {
        "deltaTime": 131,
        "channel": 5,
        "type": "noteOn",
        "noteNumber": 74,
        "velocity": 109
    },
    {
        "deltaTime": 0,
        "running": true,
        "channel": 5,
        "type": "noteOn",
        "noteNumber": 79,
        "velocity": 97
    },
    {
        "deltaTime": 0,
        "running": true,
        "channel": 5,
        "type": "noteOn",
        "noteNumber": 82,
        "velocity": 110
    },
    {
        "deltaTime": 0,
        "channel": 9,
        "type": "noteOn",
        "noteNumber": 44,
        "velocity": 107
    },
    {
        "deltaTime": 0,
        "running": true,
        "channel": 9,
        "type": "noteOn",
        "noteNumber": 54,
        "velocity": 109
    },
    {
        "deltaTime": 1,
        "channel": 11,
        "type": "noteOff",
        "noteNumber": 41,
        "velocity": 0,
        "byte9": true
    },
    {
        "deltaTime": 0,
        "channel": 3,
        "type": "noteOn",
        "noteNumber": 74,
        "velocity": 105
    },
    {
        "deltaTime": 9,
        "channel": 9,
        "type": "noteOff",
        "noteNumber": 44,
        "velocity": 0,
        "byte9": true
    },
    {
        "deltaTime": 0,
        "running": true,
        "channel": 9,
        "type": "noteOff",
        "noteNumber": 54,
        "velocity": 0,
        "byte9": true
    },
    {
        "deltaTime": 13,
        "channel": 14,
        "type": "noteOn",
        "noteNumber": 62,
        "velocity": 109
    },
    {
        "deltaTime": 0,
        "running": true,
        "channel": 14,
        "type": "noteOn",
        "noteNumber": 67,
        "velocity": 97
    },
    {
        "deltaTime": 0,
        "running": true,
        "channel": 14,
        "type": "noteOn",
        "noteNumber": 70,
        "velocity": 110
    },
    {
        "deltaTime": 124,
        "channel": 5,
        "type": "noteOff",
        "noteNumber": 82,
        "velocity": 0,
        "byte9": true
    },
    {
        "deltaTime": 9,
        "running": true,
        "channel": 5,
        "type": "noteOff",
        "noteNumber": 74,
        "velocity": 0,
        "byte9": true
    },
    {
        "deltaTime": 3,
        "running": true,
        "channel": 5,
        "type": "noteOff",
        "noteNumber": 79,
        "velocity": 0,
        "byte9": true
    },
    {
        "deltaTime": 13,
        "channel": 14,
        "type": "noteOff",
        "noteNumber": 70,
        "velocity": 0,
        "byte9": true
    },
    {
        "deltaTime": 9,
        "running": true,
        "channel": 14,
        "type": "noteOff",
        "noteNumber": 62,
        "velocity": 0,
        "byte9": true
    },
    {
        "deltaTime": 3,
        "running": true,
        "channel": 14,
        "type": "noteOff",
        "noteNumber": 67,
        "velocity": 0,
        "byte9": true
    },
    {
        "deltaTime": 130,
        "channel": 1,
        "type": "noteOff",
        "noteNumber": 32,
        "velocity": 0,
        "byte9": true
    },
    {
        "deltaTime": 0,
        "channel": 8,
        "type": "noteOff",
        "noteNumber": 32,
        "velocity": 0,
        "byte9": true
    },
    {
        "deltaTime": 4,
        "channel": 1,
        "type": "noteOn",
        "noteNumber": 33,
        "velocity": 99
    },
    {
        "deltaTime": 0,
        "channel": 8,
        "type": "noteOn",
        "noteNumber": 33,
        "velocity": 99
    },
    {
        "deltaTime": 156,
        "channel": 1,
        "type": "noteOff",
        "noteNumber": 33,
        "velocity": 0,
        "byte9": true
    },
    {
        "deltaTime": 0,
        "channel": 8,
        "type": "noteOff",
        "noteNumber": 33,
        "velocity": 0,
        "byte9": true
    },
    {
        "deltaTime": 4,
        "channel": 1,
        "type": "noteOn",
        "noteNumber": 34,
        "velocity": 99
    },
    {
        "deltaTime": 0,
        "channel": 5,
        "type": "noteOn",
        "noteNumber": 74,
        "velocity": 101
    },
    {
        "deltaTime": 0,
        "running": true,
        "channel": 5,
        "type": "noteOn",
        "noteNumber": 77,
        "velocity": 97
    },
    {
        "deltaTime": 0,
        "running": true,
        "channel": 5,
        "type": "noteOn",
        "noteNumber": 82,
        "velocity": 105
    },
    {
        "deltaTime": 0,
        "channel": 8,
        "type": "noteOn",
        "noteNumber": 34,
        "velocity": 99
    },
    {
        "deltaTime": 0,
        "channel": 9,
        "type": "noteOn",
        "noteNumber": 35,
        "velocity": 114
    },
    {
        "deltaTime": 0,
        "channel": 11,
        "type": "noteOn",
        "noteNumber": 41,
        "velocity": 114
    },
    {
        "deltaTime": 12,
        "channel": 9,
        "type": "noteOff",
        "noteNumber": 35,
        "velocity": 0,
        "byte9": true
    },
    {
        "deltaTime": 13,
        "channel": 14,
        "type": "noteOn",
        "noteNumber": 62,
        "velocity": 101
    },
    {
        "deltaTime": 0,
        "running": true,
        "channel": 14,
        "type": "noteOn",
        "noteNumber": 65,
        "velocity": 97
    },
    {
        "deltaTime": 0,
        "running": true,
        "channel": 14,
        "type": "noteOn",
        "noteNumber": 70,
        "velocity": 105
    },
    {
        "deltaTime": 48,
        "channel": 5,
        "type": "noteOff",
        "noteNumber": 82,
        "velocity": 0,
        "byte9": true
    },
    {
        "deltaTime": 25,
        "channel": 14,
        "type": "noteOff",
        "noteNumber": 70,
        "velocity": 0,
        "byte9": true
    },
    {
        "deltaTime": 23,
        "channel": 5,
        "type": "noteOff",
        "noteNumber": 77,
        "velocity": 0,
        "byte9": true
    },
    {
        "deltaTime": 2,
        "running": true,
        "channel": 5,
        "type": "noteOff",
        "noteNumber": 74,
        "velocity": 0,
        "byte9": true
    },
    {
        "deltaTime": 23,
        "channel": 14,
        "type": "noteOff",
        "noteNumber": 65,
        "velocity": 0,
        "byte9": true
    },
    {
        "deltaTime": 2,
        "running": true,
        "channel": 14,
        "type": "noteOff",
        "noteNumber": 62,
        "velocity": 0,
        "byte9": true
    },
    {
        "deltaTime": 13,
        "channel": 11,
        "type": "noteOff",
        "noteNumber": 41,
        "velocity": 0,
        "byte9": true
    },
    {
        "deltaTime": 70,
        "channel": 3,
        "type": "noteOff",
        "noteNumber": 74,
        "velocity": 0,
        "byte9": true
    },
    {
        "deltaTime": 79,
        "channel": 13,
        "type": "noteOff",
        "noteNumber": 58,
        "velocity": 0,
        "byte9": true
    },
    {
        "deltaTime": 170,
        "channel": 5,
        "type": "noteOn",
        "noteNumber": 74,
        "velocity": 111
    },
    {
        "deltaTime": 0,
        "running": true,
        "channel": 5,
        "type": "noteOn",
        "noteNumber": 77,
        "velocity": 107
    },
    {
        "deltaTime": 0,
        "running": true,
        "channel": 5,
        "type": "noteOn",
        "noteNumber": 82,
        "velocity": 105
    },
    {
        "deltaTime": 0,
        "channel": 9,
        "type": "noteOn",
        "noteNumber": 44,
        "velocity": 107
    },
    {
        "deltaTime": 0,
        "running": true,
        "channel": 9,
        "type": "noteOn",
        "noteNumber": 69,
        "velocity": 109
    },
    {
        "deltaTime": 0,
        "channel": 13,
        "type": "noteOn",
        "noteNumber": 62,
        "velocity": 83
    },
    {
        "deltaTime": 0,
        "channel": 3,
        "type": "noteOn",
        "noteNumber": 74,
        "velocity": 114
    },
    {
        "deltaTime": 1,
        "channel": 9,
        "type": "noteOff",
        "noteNumber": 44,
        "velocity": 0,
        "byte9": true
    },
    {
        "deltaTime": 0,
        "running": true,
        "channel": 9,
        "type": "noteOff",
        "noteNumber": 69,
        "velocity": 0,
        "byte9": true
    },
    {
        "deltaTime": 13,
        "channel": 14,
        "type": "noteOn",
        "noteNumber": 62,
        "velocity": 111
    },
    {
        "deltaTime": 0,
        "running": true,
        "channel": 14,
        "type": "noteOn",
        "noteNumber": 65,
        "velocity": 107
    },
    {
        "deltaTime": 0,
        "running": true,
        "channel": 14,
        "type": "noteOn",
        "noteNumber": 70,
        "velocity": 105
    },
    {
        "deltaTime": 132,
        "channel": 5,
        "type": "noteOff",
        "noteNumber": 82,
        "velocity": 0,
        "byte9": true
    },
    {
        "deltaTime": 7,
        "running": true,
        "channel": 5,
        "type": "noteOff",
        "noteNumber": 77,
        "velocity": 0,
        "byte9": true
    },
    {
        "deltaTime": 4,
        "running": true,
        "channel": 5,
        "type": "noteOff",
        "noteNumber": 74,
        "velocity": 0,
        "byte9": true
    },
    {
        "deltaTime": 14,
        "channel": 14,
        "type": "noteOff",
        "noteNumber": 70,
        "velocity": 0,
        "byte9": true
    },
    {
        "deltaTime": 7,
        "running": true,
        "channel": 14,
        "type": "noteOff",
        "noteNumber": 65,
        "velocity": 0,
        "byte9": true
    },
    {
        "deltaTime": 4,
        "running": true,
        "channel": 14,
        "type": "noteOff",
        "noteNumber": 62,
        "velocity": 0,
        "byte9": true
    },
    {
        "deltaTime": 68,
        "channel": 1,
        "type": "noteOff",
        "noteNumber": 34,
        "velocity": 0,
        "byte9": true
    },
    {
        "deltaTime": 0,
        "channel": 8,
        "type": "noteOff",
        "noteNumber": 34,
        "velocity": 0,
        "byte9": true
    },
    {
        "deltaTime": 59,
        "channel": 1,
        "type": "noteOn",
        "noteNumber": 34,
        "velocity": 99
    },
    {
        "deltaTime": 0,
        "channel": 8,
        "type": "noteOn",
        "noteNumber": 34,
        "velocity": 99
    },
    {
        "deltaTime": 0,
        "channel": 9,
        "type": "noteOn",
        "noteNumber": 35,
        "velocity": 107
    },
    {
        "deltaTime": 0,
        "channel": 11,
        "type": "noteOn",
        "noteNumber": 41,
        "velocity": 107
    },
    {
        "deltaTime": 12,
        "channel": 9,
        "type": "noteOff",
        "noteNumber": 35,
        "velocity": 0,
        "byte9": true
    },
    {
        "deltaTime": 148,
        "channel": 5,
        "type": "noteOn",
        "noteNumber": 74,
        "velocity": 105
    },
    {
        "deltaTime": 0,
        "running": true,
        "channel": 5,
        "type": "noteOn",
        "noteNumber": 77,
        "velocity": 94
    },
    {
        "deltaTime": 0,
        "running": true,
        "channel": 5,
        "type": "noteOn",
        "noteNumber": 82,
        "velocity": 94
    },
    {
        "deltaTime": 0,
        "channel": 9,
        "type": "noteOn",
        "noteNumber": 35,
        "velocity": 114
    },
    {
        "deltaTime": 0,
        "channel": 11,
        "type": "noteOn",
        "noteNumber": 41,
        "velocity": 114
    },
    {
        "deltaTime": 1,
        "running": true,
        "channel": 11,
        "type": "noteOff",
        "noteNumber": 41,
        "velocity": 0,
        "byte9": true
    },
    {
        "deltaTime": 11,
        "channel": 9,
        "type": "noteOff",
        "noteNumber": 35,
        "velocity": 0,
        "byte9": true
    },
    {
        "deltaTime": 13,
        "channel": 14,
        "type": "noteOn",
        "noteNumber": 62,
        "velocity": 105
    },
    {
        "deltaTime": 0,
        "running": true,
        "channel": 14,
        "type": "noteOn",
        "noteNumber": 65,
        "velocity": 94
    },
    {
        "deltaTime": 0,
        "running": true,
        "channel": 14,
        "type": "noteOn",
        "noteNumber": 70,
        "velocity": 94
    },
    {
        "deltaTime": 130,
        "channel": 5,
        "type": "noteOff",
        "noteNumber": 82,
        "velocity": 0,
        "byte9": true
    },
    {
        "deltaTime": 6,
        "channel": 11,
        "type": "noteOff",
        "noteNumber": 41,
        "velocity": 0,
        "byte9": true
    },
    {
        "deltaTime": 2,
        "channel": 5,
        "type": "noteOff",
        "noteNumber": 74,
        "velocity": 0,
        "byte9": true
    },
    {
        "deltaTime": 4,
        "running": true,
        "channel": 5,
        "type": "noteOff",
        "noteNumber": 77,
        "velocity": 0,
        "byte9": true
    },
    {
        "deltaTime": 13,
        "channel": 14,
        "type": "noteOff",
        "noteNumber": 70,
        "velocity": 0,
        "byte9": true
    },
    {
        "deltaTime": 8,
        "running": true,
        "channel": 14,
        "type": "noteOff",
        "noteNumber": 62,
        "velocity": 0,
        "byte9": true
    },
    {
        "deltaTime": 4,
        "running": true,
        "channel": 14,
        "type": "noteOff",
        "noteNumber": 65,
        "velocity": 0,
        "byte9": true
    },
    {
        "deltaTime": 128,
        "channel": 9,
        "type": "noteOn",
        "noteNumber": 70,
        "velocity": 65
    },
    {
        "deltaTime": 12,
        "running": true,
        "channel": 9,
        "type": "noteOff",
        "noteNumber": 70,
        "velocity": 0,
        "byte9": true
    },
    {
        "deltaTime": 145,
        "channel": 3,
        "type": "noteOff",
        "noteNumber": 74,
        "velocity": 0,
        "byte9": true
    },
    {
        "deltaTime": 3,
        "channel": 5,
        "type": "noteOn",
        "noteNumber": 74,
        "velocity": 109
    },
    {
        "deltaTime": 0,
        "running": true,
        "channel": 5,
        "type": "noteOn",
        "noteNumber": 77,
        "velocity": 94
    },
    {
        "deltaTime": 0,
        "running": true,
        "channel": 5,
        "type": "noteOn",
        "noteNumber": 82,
        "velocity": 94
    },
    {
        "deltaTime": 0,
        "channel": 9,
        "type": "noteOn",
        "noteNumber": 44,
        "velocity": 107
    },
    {
        "deltaTime": 0,
        "running": true,
        "channel": 9,
        "type": "noteOn",
        "noteNumber": 54,
        "velocity": 109
    },
    {
        "deltaTime": 0,
        "channel": 13,
        "type": "noteOn",
        "noteNumber": 65,
        "velocity": 83
    },
    {
        "deltaTime": 12,
        "channel": 9,
        "type": "noteOff",
        "noteNumber": 44,
        "velocity": 0,
        "byte9": true
    },
    {
        "deltaTime": 0,
        "running": true,
        "channel": 9,
        "type": "noteOff",
        "noteNumber": 54,
        "velocity": 0,
        "byte9": true
    },
    {
        "deltaTime": 13,
        "channel": 14,
        "type": "noteOn",
        "noteNumber": 62,
        "velocity": 109
    },
    {
        "deltaTime": 0,
        "running": true,
        "channel": 14,
        "type": "noteOn",
        "noteNumber": 65,
        "velocity": 94
    },
    {
        "deltaTime": 0,
        "running": true,
        "channel": 14,
        "type": "noteOn",
        "noteNumber": 70,
        "velocity": 94
    },
    {
        "deltaTime": 76,
        "channel": 1,
        "type": "noteOff",
        "noteNumber": 34,
        "velocity": 0,
        "byte9": true
    },
    {
        "deltaTime": 0,
        "channel": 8,
        "type": "noteOff",
        "noteNumber": 34,
        "velocity": 0,
        "byte9": true
    },
    {
        "deltaTime": 40,
        "channel": 5,
        "type": "noteOff",
        "noteNumber": 82,
        "velocity": 0,
        "byte9": true
    },
    {
        "deltaTime": 13,
        "running": true,
        "channel": 5,
        "type": "noteOff",
        "noteNumber": 74,
        "velocity": 0,
        "byte9": true
    },
    {
        "deltaTime": 0,
        "running": true,
        "channel": 5,
        "type": "noteOff",
        "noteNumber": 77,
        "velocity": 0,
        "byte9": true
    },
    {
        "deltaTime": 12,
        "channel": 14,
        "type": "noteOff",
        "noteNumber": 70,
        "velocity": 0,
        "byte9": true
    },
    {
        "deltaTime": 13,
        "running": true,
        "channel": 14,
        "type": "noteOff",
        "noteNumber": 62,
        "velocity": 0,
        "byte9": true
    },
    {
        "deltaTime": 0,
        "running": true,
        "channel": 14,
        "type": "noteOff",
        "noteNumber": 65,
        "velocity": 0,
        "byte9": true
    },
    {
        "deltaTime": 0,
        "channel": 3,
        "type": "noteOn",
        "noteNumber": 69,
        "velocity": 105
    },
    {
        "deltaTime": 10,
        "channel": 1,
        "type": "noteOn",
        "noteNumber": 34,
        "velocity": 99
    },
    {
        "deltaTime": 0,
        "channel": 8,
        "type": "noteOn",
        "noteNumber": 34,
        "velocity": 99
    },
    {
        "deltaTime": 69,
        "channel": 3,
        "type": "noteOff",
        "noteNumber": 69,
        "velocity": 0,
        "byte9": true
    },
    {
        "deltaTime": 81,
        "channel": 13,
        "type": "noteOff",
        "noteNumber": 62,
        "velocity": 0,
        "byte9": true
    },
    {
        "deltaTime": 10,
        "channel": 5,
        "type": "noteOn",
        "noteNumber": 74,
        "velocity": 109
    },
    {
        "deltaTime": 0,
        "running": true,
        "channel": 5,
        "type": "noteOn",
        "noteNumber": 77,
        "velocity": 94
    },
    {
        "deltaTime": 0,
        "running": true,
        "channel": 5,
        "type": "noteOn",
        "noteNumber": 82,
        "velocity": 101
    },
    {
        "deltaTime": 0,
        "channel": 9,
        "type": "noteOn",
        "noteNumber": 35,
        "velocity": 114
    },
    {
        "deltaTime": 0,
        "channel": 11,
        "type": "noteOn",
        "noteNumber": 41,
        "velocity": 114
    },
    {
        "deltaTime": 10,
        "channel": 3,
        "type": "noteOn",
        "noteNumber": 74,
        "velocity": 119
    },
    {
        "deltaTime": 2,
        "channel": 9,
        "type": "noteOff",
        "noteNumber": 35,
        "velocity": 0,
        "byte9": true
    },
    {
        "deltaTime": 13,
        "channel": 14,
        "type": "noteOn",
        "noteNumber": 62,
        "velocity": 109
    },
    {
        "deltaTime": 0,
        "running": true,
        "channel": 14,
        "type": "noteOn",
        "noteNumber": 65,
        "velocity": 94
    },
    {
        "deltaTime": 0,
        "running": true,
        "channel": 14,
        "type": "noteOn",
        "noteNumber": 70,
        "velocity": 101
    },
    {
        "deltaTime": 130,
        "channel": 5,
        "type": "noteOff",
        "noteNumber": 82,
        "velocity": 0,
        "byte9": true
    },
    {
        "deltaTime": 6,
        "channel": 11,
        "type": "noteOff",
        "noteNumber": 41,
        "velocity": 0,
        "byte9": true
    },
    {
        "deltaTime": 10,
        "channel": 5,
        "type": "noteOff",
        "noteNumber": 74,
        "velocity": 0,
        "byte9": true
    },
    {
        "deltaTime": 0,
        "running": true,
        "channel": 5,
        "type": "noteOff",
        "noteNumber": 77,
        "velocity": 0,
        "byte9": true
    },
    {
        "deltaTime": 9,
        "channel": 14,
        "type": "noteOff",
        "noteNumber": 70,
        "velocity": 0,
        "byte9": true
    },
    {
        "deltaTime": 16,
        "running": true,
        "channel": 14,
        "type": "noteOff",
        "noteNumber": 62,
        "velocity": 0,
        "byte9": true
    },
    {
        "deltaTime": 0,
        "running": true,
        "channel": 14,
        "type": "noteOff",
        "noteNumber": 65,
        "velocity": 0,
        "byte9": true
    },
    {
        "deltaTime": 132,
        "channel": 3,
        "type": "noteOff",
        "noteNumber": 74,
        "velocity": 0,
        "byte9": true
    },
    {
        "deltaTime": 0,
        "channel": 3,
        "type": "noteOn",
        "noteNumber": 69,
        "velocity": 97
    },
    {
        "deltaTime": 25,
        "channel": 5,
        "type": "noteOn",
        "noteNumber": 74,
        "velocity": 108
    },
    {
        "deltaTime": 0,
        "running": true,
        "channel": 5,
        "type": "noteOn",
        "noteNumber": 77,
        "velocity": 97
    },
    {
        "deltaTime": 0,
        "running": true,
        "channel": 5,
        "type": "noteOn",
        "noteNumber": 82,
        "velocity": 98
    },
    {
        "deltaTime": 0,
        "channel": 9,
        "type": "noteOn",
        "noteNumber": 44,
        "velocity": 107
    },
    {
        "deltaTime": 0,
        "running": true,
        "channel": 9,
        "type": "noteOn",
        "noteNumber": 69,
        "velocity": 109
    },
    {
        "deltaTime": 12,
        "running": true,
        "channel": 9,
        "type": "noteOff",
        "noteNumber": 44,
        "velocity": 0,
        "byte9": true
    },
    {
        "deltaTime": 0,
        "running": true,
        "channel": 9,
        "type": "noteOff",
        "noteNumber": 69,
        "velocity": 0,
        "byte9": true
    },
    {
        "deltaTime": 13,
        "channel": 14,
        "type": "noteOn",
        "noteNumber": 62,
        "velocity": 108
    },
    {
        "deltaTime": 0,
        "running": true,
        "channel": 14,
        "type": "noteOn",
        "noteNumber": 65,
        "velocity": 97
    },
    {
        "deltaTime": 0,
        "running": true,
        "channel": 14,
        "type": "noteOn",
        "noteNumber": 70,
        "velocity": 98
    },
    {
        "deltaTime": 76,
        "channel": 1,
        "type": "noteOff",
        "noteNumber": 34,
        "velocity": 0,
        "byte9": true
    },
    {
        "deltaTime": 0,
        "channel": 8,
        "type": "noteOff",
        "noteNumber": 34,
        "velocity": 0,
        "byte9": true
    },
    {
        "deltaTime": 45,
        "channel": 5,
        "type": "noteOff",
        "noteNumber": 82,
        "velocity": 0,
        "byte9": true
    },
    {
        "deltaTime": 12,
        "running": true,
        "channel": 5,
        "type": "noteOff",
        "noteNumber": 74,
        "velocity": 0,
        "byte9": true
    },
    {
        "deltaTime": 5,
        "running": true,
        "channel": 5,
        "type": "noteOff",
        "noteNumber": 77,
        "velocity": 0,
        "byte9": true
    },
    {
        "deltaTime": 8,
        "channel": 14,
        "type": "noteOff",
        "noteNumber": 70,
        "velocity": 0,
        "byte9": true
    },
    {
        "deltaTime": 12,
        "running": true,
        "channel": 14,
        "type": "noteOff",
        "noteNumber": 62,
        "velocity": 0,
        "byte9": true
    },
    {
        "deltaTime": 5,
        "running": true,
        "channel": 14,
        "type": "noteOff",
        "noteNumber": 65,
        "velocity": 0,
        "byte9": true
    },
    {
        "deltaTime": 119,
        "channel": 3,
        "type": "noteOff",
        "noteNumber": 69,
        "velocity": 0,
        "byte9": true
    },
    {
        "deltaTime": 13,
        "channel": 1,
        "type": "noteOn",
        "noteNumber": 34,
        "velocity": 99
    },
    {
        "deltaTime": 0,
        "channel": 8,
        "type": "noteOn",
        "noteNumber": 34,
        "velocity": 99
    },
    {
        "deltaTime": 0,
        "channel": 9,
        "type": "noteOn",
        "noteNumber": 35,
        "velocity": 114
    },
    {
        "deltaTime": 0,
        "channel": 11,
        "type": "noteOn",
        "noteNumber": 41,
        "velocity": 114
    },
    {
        "deltaTime": 0,
        "channel": 13,
        "type": "noteOn",
        "noteNumber": 57,
        "velocity": 83
    },
    {
        "deltaTime": 12,
        "channel": 9,
        "type": "noteOff",
        "noteNumber": 35,
        "velocity": 0,
        "byte9": true
    },
    {
        "deltaTime": 0,
        "channel": 3,
        "type": "noteOn",
        "noteNumber": 74,
        "velocity": 124
    },
    {
        "deltaTime": 15,
        "channel": 13,
        "type": "noteOff",
        "noteNumber": 65,
        "velocity": 0,
        "byte9": true
    },
    {
        "deltaTime": 10,
        "channel": 5,
        "type": "noteOn",
        "noteNumber": 74,
        "velocity": 105
    },
    {
        "deltaTime": 0,
        "running": true,
        "channel": 5,
        "type": "noteOn",
        "noteNumber": 77,
        "velocity": 89
    },
    {
        "deltaTime": 0,
        "running": true,
        "channel": 5,
        "type": "noteOn",
        "noteNumber": 82,
        "velocity": 94
    },
    {
        "deltaTime": 1,
        "channel": 11,
        "type": "noteOff",
        "noteNumber": 41,
        "velocity": 0,
        "byte9": true
    },
    {
        "deltaTime": 24,
        "channel": 14,
        "type": "noteOn",
        "noteNumber": 62,
        "velocity": 105
    },
    {
        "deltaTime": 0,
        "running": true,
        "channel": 14,
        "type": "noteOn",
        "noteNumber": 65,
        "velocity": 89
    },
    {
        "deltaTime": 0,
        "running": true,
        "channel": 14,
        "type": "noteOn",
        "noteNumber": 70,
        "velocity": 94
    },
    {
        "deltaTime": 121,
        "channel": 5,
        "type": "noteOff",
        "noteNumber": 82,
        "velocity": 0,
        "byte9": true
    },
    {
        "deltaTime": 22,
        "running": true,
        "channel": 5,
        "type": "noteOff",
        "noteNumber": 74,
        "velocity": 0,
        "byte9": true
    },
    {
        "deltaTime": 0,
        "running": true,
        "channel": 5,
        "type": "noteOff",
        "noteNumber": 77,
        "velocity": 0,
        "byte9": true
    },
    {
        "deltaTime": 3,
        "channel": 14,
        "type": "noteOff",
        "noteNumber": 70,
        "velocity": 0,
        "byte9": true
    },
    {
        "deltaTime": 22,
        "running": true,
        "channel": 14,
        "type": "noteOff",
        "noteNumber": 62,
        "velocity": 0,
        "byte9": true
    },
    {
        "deltaTime": 0,
        "running": true,
        "channel": 14,
        "type": "noteOff",
        "noteNumber": 65,
        "velocity": 0,
        "byte9": true
    },
    {
        "deltaTime": 111,
        "channel": 3,
        "type": "noteOff",
        "noteNumber": 74,
        "velocity": 0,
        "byte9": true
    },
    {
        "deltaTime": 12,
        "channel": 1,
        "type": "noteOff",
        "noteNumber": 34,
        "velocity": 0,
        "byte9": true
    },
    {
        "deltaTime": 0,
        "channel": 8,
        "type": "noteOff",
        "noteNumber": 34,
        "velocity": 0,
        "byte9": true
    },
    {
        "deltaTime": 4,
        "channel": 1,
        "type": "noteOn",
        "noteNumber": 41,
        "velocity": 99
    },
    {
        "deltaTime": 0,
        "channel": 8,
        "type": "noteOn",
        "noteNumber": 41,
        "velocity": 99
    },
    {
        "deltaTime": 0,
        "channel": 9,
        "type": "noteOn",
        "noteNumber": 35,
        "velocity": 114
    },
    {
        "deltaTime": 0,
        "running": true,
        "channel": 9,
        "type": "noteOn",
        "noteNumber": 70,
        "velocity": 65
    },
    {
        "deltaTime": 0,
        "channel": 11,
        "type": "noteOn",
        "noteNumber": 41,
        "velocity": 114
    },
    {
        "deltaTime": 12,
        "channel": 9,
        "type": "noteOff",
        "noteNumber": 35,
        "velocity": 0,
        "byte9": true
    },
    {
        "deltaTime": 0,
        "running": true,
        "channel": 9,
        "type": "noteOff",
        "noteNumber": 70,
        "velocity": 0,
        "byte9": true
    },
    {
        "deltaTime": 0,
        "channel": 3,
        "type": "noteOn",
        "noteNumber": 69,
        "velocity": 105
    },
    {
        "deltaTime": 1,
        "channel": 5,
        "type": "noteOn",
        "noteNumber": 74,
        "velocity": 109
    },
    {
        "deltaTime": 0,
        "running": true,
        "channel": 5,
        "type": "noteOn",
        "noteNumber": 77,
        "velocity": 97
    },
    {
        "deltaTime": 0,
        "running": true,
        "channel": 5,
        "type": "noteOn",
        "noteNumber": 82,
        "velocity": 110
    },
    {
        "deltaTime": 0,
        "channel": 9,
        "type": "noteOn",
        "noteNumber": 44,
        "velocity": 107
    },
    {
        "deltaTime": 0,
        "running": true,
        "channel": 9,
        "type": "noteOn",
        "noteNumber": 54,
        "velocity": 109
    },
    {
        "deltaTime": 1,
        "channel": 11,
        "type": "noteOff",
        "noteNumber": 41,
        "velocity": 0,
        "byte9": true
    },
    {
        "deltaTime": 11,
        "channel": 9,
        "type": "noteOff",
        "noteNumber": 44,
        "velocity": 0,
        "byte9": true
    },
    {
        "deltaTime": 0,
        "running": true,
        "channel": 9,
        "type": "noteOff",
        "noteNumber": 54,
        "velocity": 0,
        "byte9": true
    },
    {
        "deltaTime": 13,
        "channel": 14,
        "type": "noteOn",
        "noteNumber": 62,
        "velocity": 109
    },
    {
        "deltaTime": 0,
        "running": true,
        "channel": 14,
        "type": "noteOn",
        "noteNumber": 65,
        "velocity": 97
    },
    {
        "deltaTime": 0,
        "running": true,
        "channel": 14,
        "type": "noteOn",
        "noteNumber": 70,
        "velocity": 110
    },
    {
        "deltaTime": 124,
        "channel": 5,
        "type": "noteOff",
        "noteNumber": 82,
        "velocity": 0,
        "byte9": true
    },
    {
        "deltaTime": 9,
        "running": true,
        "channel": 5,
        "type": "noteOff",
        "noteNumber": 74,
        "velocity": 0,
        "byte9": true
    },
    {
        "deltaTime": 3,
        "running": true,
        "channel": 5,
        "type": "noteOff",
        "noteNumber": 77,
        "velocity": 0,
        "byte9": true
    },
    {
        "deltaTime": 13,
        "channel": 14,
        "type": "noteOff",
        "noteNumber": 70,
        "velocity": 0,
        "byte9": true
    },
    {
        "deltaTime": 9,
        "running": true,
        "channel": 14,
        "type": "noteOff",
        "noteNumber": 62,
        "velocity": 0,
        "byte9": true
    },
    {
        "deltaTime": 3,
        "running": true,
        "channel": 14,
        "type": "noteOff",
        "noteNumber": 65,
        "velocity": 0,
        "byte9": true
    },
    {
        "deltaTime": 130,
        "channel": 1,
        "type": "noteOff",
        "noteNumber": 41,
        "velocity": 0,
        "byte9": true
    },
    {
        "deltaTime": 0,
        "channel": 8,
        "type": "noteOff",
        "noteNumber": 41,
        "velocity": 0,
        "byte9": true
    },
    {
        "deltaTime": 4,
        "channel": 1,
        "type": "noteOn",
        "noteNumber": 34,
        "velocity": 99
    },
    {
        "deltaTime": 0,
        "channel": 8,
        "type": "noteOn",
        "noteNumber": 34,
        "velocity": 99
    },
    {
        "deltaTime": 0,
        "channel": 1,
        "type": "noteOff",
        "noteNumber": 34,
        "velocity": 0,
        "byte9": true
    },
    {
        "deltaTime": 0,
        "channel": 8,
        "type": "noteOff",
        "noteNumber": 34,
        "velocity": 0,
        "byte9": true
    },
    {
        "deltaTime": 160,
        "channel": 1,
        "type": "noteOn",
        "noteNumber": 33,
        "velocity": 99
    },
    {
        "deltaTime": 0,
        "channel": 5,
        "type": "noteOn",
        "noteNumber": 73,
        "velocity": 101
    },
    {
        "deltaTime": 0,
        "running": true,
        "channel": 5,
        "type": "noteOn",
        "noteNumber": 76,
        "velocity": 97
    },
    {
        "deltaTime": 0,
        "running": true,
        "channel": 5,
        "type": "noteOn",
        "noteNumber": 81,
        "velocity": 105
    },
    {
        "deltaTime": 0,
        "channel": 8,
        "type": "noteOn",
        "noteNumber": 33,
        "velocity": 99
    },
    {
        "deltaTime": 0,
        "channel": 9,
        "type": "noteOn",
        "noteNumber": 35,
        "velocity": 114
    },
    {
        "deltaTime": 0,
        "channel": 11,
        "type": "noteOn",
        "noteNumber": 41,
        "velocity": 114
    },
    {
        "deltaTime": 12,
        "channel": 9,
        "type": "noteOff",
        "noteNumber": 35,
        "velocity": 0,
        "byte9": true
    },
    {
        "deltaTime": 13,
        "channel": 14,
        "type": "noteOn",
        "noteNumber": 61,
        "velocity": 101
    },
    {
        "deltaTime": 0,
        "running": true,
        "channel": 14,
        "type": "noteOn",
        "noteNumber": 64,
        "velocity": 97
    },
    {
        "deltaTime": 0,
        "running": true,
        "channel": 14,
        "type": "noteOn",
        "noteNumber": 69,
        "velocity": 105
    },
    {
        "deltaTime": 48,
        "channel": 5,
        "type": "noteOff",
        "noteNumber": 81,
        "velocity": 0,
        "byte9": true
    },
    {
        "deltaTime": 25,
        "channel": 14,
        "type": "noteOff",
        "noteNumber": 69,
        "velocity": 0,
        "byte9": true
    },
    {
        "deltaTime": 23,
        "channel": 5,
        "type": "noteOff",
        "noteNumber": 76,
        "velocity": 0,
        "byte9": true
    },
    {
        "deltaTime": 2,
        "running": true,
        "channel": 5,
        "type": "noteOff",
        "noteNumber": 73,
        "velocity": 0,
        "byte9": true
    },
    {
        "deltaTime": 23,
        "channel": 14,
        "type": "noteOff",
        "noteNumber": 64,
        "velocity": 0,
        "byte9": true
    },
    {
        "deltaTime": 2,
        "running": true,
        "channel": 14,
        "type": "noteOff",
        "noteNumber": 61,
        "velocity": 0,
        "byte9": true
    },
    {
        "deltaTime": 13,
        "channel": 11,
        "type": "noteOff",
        "noteNumber": 41,
        "velocity": 0,
        "byte9": true
    },
    {
        "deltaTime": 112,
        "channel": 3,
        "type": "noteOff",
        "noteNumber": 69,
        "velocity": 0,
        "byte9": true
    },
    {
        "deltaTime": 0,
        "channel": 3,
        "type": "noteOn",
        "noteNumber": 73,
        "velocity": 122
    },
    {
        "deltaTime": 33,
        "channel": 13,
        "type": "noteOff",
        "noteNumber": 57,
        "velocity": 0,
        "byte9": true
    },
    {
        "deltaTime": 45,
        "channel": 3,
        "type": "noteOff",
        "noteNumber": 73,
        "velocity": 0,
        "byte9": true
    },
    {
        "deltaTime": 0,
        "channel": 3,
        "type": "noteOn",
        "noteNumber": 73,
        "velocity": 115
    },
    {
        "deltaTime": 47,
        "channel": 5,
        "type": "noteOn",
        "noteNumber": 73,
        "velocity": 111
    },
    {
        "deltaTime": 0,
        "running": true,
        "channel": 5,
        "type": "noteOn",
        "noteNumber": 76,
        "velocity": 107
    },
    {
        "deltaTime": 0,
        "running": true,
        "channel": 5,
        "type": "noteOn",
        "noteNumber": 81,
        "velocity": 105
    },
    {
        "deltaTime": 0,
        "channel": 9,
        "type": "noteOn",
        "noteNumber": 44,
        "velocity": 107
    },
    {
        "deltaTime": 0,
        "running": true,
        "channel": 9,
        "type": "noteOn",
        "noteNumber": 69,
        "velocity": 109
    },
    {
        "deltaTime": 12,
        "running": true,
        "channel": 9,
        "type": "noteOff",
        "noteNumber": 44,
        "velocity": 0,
        "byte9": true
    },
    {
        "deltaTime": 0,
        "running": true,
        "channel": 9,
        "type": "noteOff",
        "noteNumber": 69,
        "velocity": 0,
        "byte9": true
    },
    {
        "deltaTime": 13,
        "channel": 14,
        "type": "noteOn",
        "noteNumber": 61,
        "velocity": 111
    },
    {
        "deltaTime": 0,
        "running": true,
        "channel": 14,
        "type": "noteOn",
        "noteNumber": 64,
        "velocity": 107
    },
    {
        "deltaTime": 0,
        "running": true,
        "channel": 14,
        "type": "noteOn",
        "noteNumber": 69,
        "velocity": 105
    },
    {
        "deltaTime": 132,
        "channel": 5,
        "type": "noteOff",
        "noteNumber": 81,
        "velocity": 0,
        "byte9": true
    },
    {
        "deltaTime": 7,
        "running": true,
        "channel": 5,
        "type": "noteOff",
        "noteNumber": 76,
        "velocity": 0,
        "byte9": true
    },
    {
        "deltaTime": 4,
        "running": true,
        "channel": 5,
        "type": "noteOff",
        "noteNumber": 73,
        "velocity": 0,
        "byte9": true
    },
    {
        "deltaTime": 14,
        "channel": 14,
        "type": "noteOff",
        "noteNumber": 69,
        "velocity": 0,
        "byte9": true
    },
    {
        "deltaTime": 7,
        "running": true,
        "channel": 14,
        "type": "noteOff",
        "noteNumber": 64,
        "velocity": 0,
        "byte9": true
    },
    {
        "deltaTime": 4,
        "running": true,
        "channel": 14,
        "type": "noteOff",
        "noteNumber": 61,
        "velocity": 0,
        "byte9": true
    },
    {
        "deltaTime": 68,
        "channel": 1,
        "type": "noteOff",
        "noteNumber": 33,
        "velocity": 0,
        "byte9": true
    },
    {
        "deltaTime": 0,
        "channel": 8,
        "type": "noteOff",
        "noteNumber": 33,
        "velocity": 0,
        "byte9": true
    },
    {
        "deltaTime": 59,
        "channel": 1,
        "type": "noteOn",
        "noteNumber": 33,
        "velocity": 99
    },
    {
        "deltaTime": 0,
        "channel": 8,
        "type": "noteOn",
        "noteNumber": 33,
        "velocity": 99
    },
    {
        "deltaTime": 0,
        "channel": 9,
        "type": "noteOn",
        "noteNumber": 35,
        "velocity": 107
    },
    {
        "deltaTime": 0,
        "channel": 11,
        "type": "noteOn",
        "noteNumber": 41,
        "velocity": 107
    },
    {
        "deltaTime": 12,
        "channel": 9,
        "type": "noteOff",
        "noteNumber": 35,
        "velocity": 0,
        "byte9": true
    },
    {
        "deltaTime": 148,
        "channel": 5,
        "type": "noteOn",
        "noteNumber": 73,
        "velocity": 105
    },
    {
        "deltaTime": 0,
        "running": true,
        "channel": 5,
        "type": "noteOn",
        "noteNumber": 76,
        "velocity": 94
    },
    {
        "deltaTime": 0,
        "running": true,
        "channel": 5,
        "type": "noteOn",
        "noteNumber": 81,
        "velocity": 94
    },
    {
        "deltaTime": 0,
        "channel": 9,
        "type": "noteOn",
        "noteNumber": 35,
        "velocity": 114
    },
    {
        "deltaTime": 0,
        "channel": 11,
        "type": "noteOn",
        "noteNumber": 41,
        "velocity": 114
    },
    {
        "deltaTime": 1,
        "running": true,
        "channel": 11,
        "type": "noteOff",
        "noteNumber": 41,
        "velocity": 0,
        "byte9": true
    },
    {
        "deltaTime": 11,
        "channel": 9,
        "type": "noteOff",
        "noteNumber": 35,
        "velocity": 0,
        "byte9": true
    },
    {
        "deltaTime": 13,
        "channel": 14,
        "type": "noteOn",
        "noteNumber": 61,
        "velocity": 105
    },
    {
        "deltaTime": 0,
        "running": true,
        "channel": 14,
        "type": "noteOn",
        "noteNumber": 64,
        "velocity": 94
    },
    {
        "deltaTime": 0,
        "running": true,
        "channel": 14,
        "type": "noteOn",
        "noteNumber": 69,
        "velocity": 94
    },
    {
        "deltaTime": 130,
        "channel": 5,
        "type": "noteOff",
        "noteNumber": 81,
        "velocity": 0,
        "byte9": true
    },
    {
        "deltaTime": 6,
        "channel": 11,
        "type": "noteOff",
        "noteNumber": 41,
        "velocity": 0,
        "byte9": true
    },
    {
        "deltaTime": 2,
        "channel": 5,
        "type": "noteOff",
        "noteNumber": 73,
        "velocity": 0,
        "byte9": true
    },
    {
        "deltaTime": 4,
        "running": true,
        "channel": 5,
        "type": "noteOff",
        "noteNumber": 76,
        "velocity": 0,
        "byte9": true
    },
    {
        "deltaTime": 13,
        "channel": 14,
        "type": "noteOff",
        "noteNumber": 69,
        "velocity": 0,
        "byte9": true
    },
    {
        "deltaTime": 8,
        "running": true,
        "channel": 14,
        "type": "noteOff",
        "noteNumber": 61,
        "velocity": 0,
        "byte9": true
    },
    {
        "deltaTime": 4,
        "running": true,
        "channel": 14,
        "type": "noteOff",
        "noteNumber": 64,
        "velocity": 0,
        "byte9": true
    },
    {
        "deltaTime": 128,
        "channel": 9,
        "type": "noteOn",
        "noteNumber": 70,
        "velocity": 65
    },
    {
        "deltaTime": 12,
        "running": true,
        "channel": 9,
        "type": "noteOff",
        "noteNumber": 70,
        "velocity": 0,
        "byte9": true
    },
    {
        "deltaTime": 148,
        "channel": 5,
        "type": "noteOn",
        "noteNumber": 73,
        "velocity": 109
    },
    {
        "deltaTime": 0,
        "running": true,
        "channel": 5,
        "type": "noteOn",
        "noteNumber": 76,
        "velocity": 94
    },
    {
        "deltaTime": 0,
        "running": true,
        "channel": 5,
        "type": "noteOn",
        "noteNumber": 81,
        "velocity": 94
    },
    {
        "deltaTime": 0,
        "channel": 9,
        "type": "noteOn",
        "noteNumber": 44,
        "velocity": 107
    },
    {
        "deltaTime": 0,
        "running": true,
        "channel": 9,
        "type": "noteOn",
        "noteNumber": 54,
        "velocity": 109
    },
    {
        "deltaTime": 12,
        "running": true,
        "channel": 9,
        "type": "noteOff",
        "noteNumber": 44,
        "velocity": 0,
        "byte9": true
    },
    {
        "deltaTime": 0,
        "running": true,
        "channel": 9,
        "type": "noteOff",
        "noteNumber": 54,
        "velocity": 0,
        "byte9": true
    },
    {
        "deltaTime": 13,
        "channel": 14,
        "type": "noteOn",
        "noteNumber": 61,
        "velocity": 109
    },
    {
        "deltaTime": 0,
        "running": true,
        "channel": 14,
        "type": "noteOn",
        "noteNumber": 64,
        "velocity": 94
    },
    {
        "deltaTime": 0,
        "running": true,
        "channel": 14,
        "type": "noteOn",
        "noteNumber": 69,
        "velocity": 94
    },
    {
        "deltaTime": 76,
        "channel": 1,
        "type": "noteOff",
        "noteNumber": 33,
        "velocity": 0,
        "byte9": true
    },
    {
        "deltaTime": 0,
        "channel": 8,
        "type": "noteOff",
        "noteNumber": 33,
        "velocity": 0,
        "byte9": true
    },
    {
        "deltaTime": 40,
        "channel": 5,
        "type": "noteOff",
        "noteNumber": 81,
        "velocity": 0,
        "byte9": true
    },
    {
        "deltaTime": 13,
        "running": true,
        "channel": 5,
        "type": "noteOff",
        "noteNumber": 73,
        "velocity": 0,
        "byte9": true
    },
    {
        "deltaTime": 0,
        "running": true,
        "channel": 5,
        "type": "noteOff",
        "noteNumber": 76,
        "velocity": 0,
        "byte9": true
    },
    {
        "deltaTime": 12,
        "channel": 14,
        "type": "noteOff",
        "noteNumber": 69,
        "velocity": 0,
        "byte9": true
    },
    {
        "deltaTime": 13,
        "running": true,
        "channel": 14,
        "type": "noteOff",
        "noteNumber": 61,
        "velocity": 0,
        "byte9": true
    },
    {
        "deltaTime": 0,
        "running": true,
        "channel": 14,
        "type": "noteOff",
        "noteNumber": 64,
        "velocity": 0,
        "byte9": true
    },
    {
        "deltaTime": 141,
        "channel": 1,
        "type": "noteOn",
        "noteNumber": 33,
        "velocity": 99
    },
    {
        "deltaTime": 0,
        "channel": 8,
        "type": "noteOn",
        "noteNumber": 33,
        "velocity": 99
    },
    {
        "deltaTime": 160,
        "channel": 5,
        "type": "noteOn",
        "noteNumber": 73,
        "velocity": 109
    },
    {
        "deltaTime": 0,
        "running": true,
        "channel": 5,
        "type": "noteOn",
        "noteNumber": 76,
        "velocity": 94
    },
    {
        "deltaTime": 0,
        "running": true,
        "channel": 5,
        "type": "noteOn",
        "noteNumber": 81,
        "velocity": 101
    },
    {
        "deltaTime": 0,
        "channel": 9,
        "type": "noteOn",
        "noteNumber": 35,
        "velocity": 114
    },
    {
        "deltaTime": 0,
        "channel": 11,
        "type": "noteOn",
        "noteNumber": 41,
        "velocity": 114
    },
    {
        "deltaTime": 12,
        "channel": 9,
        "type": "noteOff",
        "noteNumber": 35,
        "velocity": 0,
        "byte9": true
    },
    {
        "deltaTime": 13,
        "channel": 14,
        "type": "noteOn",
        "noteNumber": 61,
        "velocity": 109
    },
    {
        "deltaTime": 0,
        "running": true,
        "channel": 14,
        "type": "noteOn",
        "noteNumber": 64,
        "velocity": 94
    },
    {
        "deltaTime": 0,
        "running": true,
        "channel": 14,
        "type": "noteOn",
        "noteNumber": 69,
        "velocity": 101
    },
    {
        "deltaTime": 130,
        "channel": 5,
        "type": "noteOff",
        "noteNumber": 81,
        "velocity": 0,
        "byte9": true
    },
    {
        "deltaTime": 6,
        "channel": 11,
        "type": "noteOff",
        "noteNumber": 41,
        "velocity": 0,
        "byte9": true
    },
    {
        "deltaTime": 10,
        "channel": 5,
        "type": "noteOff",
        "noteNumber": 73,
        "velocity": 0,
        "byte9": true
    },
    {
        "deltaTime": 0,
        "running": true,
        "channel": 5,
        "type": "noteOff",
        "noteNumber": 76,
        "velocity": 0,
        "byte9": true
    },
    {
        "deltaTime": 9,
        "channel": 14,
        "type": "noteOff",
        "noteNumber": 69,
        "velocity": 0,
        "byte9": true
    },
    {
        "deltaTime": 16,
        "running": true,
        "channel": 14,
        "type": "noteOff",
        "noteNumber": 61,
        "velocity": 0,
        "byte9": true
    },
    {
        "deltaTime": 0,
        "running": true,
        "channel": 14,
        "type": "noteOff",
        "noteNumber": 64,
        "velocity": 0,
        "byte9": true
    },
    {
        "deltaTime": 233,
        "channel": 3,
        "type": "noteOff",
        "noteNumber": 73,
        "velocity": 0,
        "byte9": true
    },
    {
        "deltaTime": 51,
        "channel": 5,
        "type": "noteOn",
        "noteNumber": 73,
        "velocity": 108
    },
    {
        "deltaTime": 0,
        "running": true,
        "channel": 5,
        "type": "noteOn",
        "noteNumber": 76,
        "velocity": 97
    },
    {
        "deltaTime": 0,
        "running": true,
        "channel": 5,
        "type": "noteOn",
        "noteNumber": 81,
        "velocity": 98
    },
    {
        "deltaTime": 0,
        "channel": 9,
        "type": "noteOn",
        "noteNumber": 44,
        "velocity": 107
    },
    {
        "deltaTime": 0,
        "running": true,
        "channel": 9,
        "type": "noteOn",
        "noteNumber": 69,
        "velocity": 109
    },
    {
        "deltaTime": 12,
        "running": true,
        "channel": 9,
        "type": "noteOff",
        "noteNumber": 44,
        "velocity": 0,
        "byte9": true
    },
    {
        "deltaTime": 0,
        "running": true,
        "channel": 9,
        "type": "noteOff",
        "noteNumber": 69,
        "velocity": 0,
        "byte9": true
    },
    {
        "deltaTime": 13,
        "channel": 14,
        "type": "noteOn",
        "noteNumber": 61,
        "velocity": 108
    },
    {
        "deltaTime": 0,
        "running": true,
        "channel": 14,
        "type": "noteOn",
        "noteNumber": 64,
        "velocity": 97
    },
    {
        "deltaTime": 0,
        "running": true,
        "channel": 14,
        "type": "noteOn",
        "noteNumber": 69,
        "velocity": 98
    },
    {
        "deltaTime": 76,
        "channel": 1,
        "type": "noteOff",
        "noteNumber": 33,
        "velocity": 0,
        "byte9": true
    },
    {
        "deltaTime": 0,
        "channel": 8,
        "type": "noteOff",
        "noteNumber": 33,
        "velocity": 0,
        "byte9": true
    },
    {
        "deltaTime": 45,
        "channel": 5,
        "type": "noteOff",
        "noteNumber": 81,
        "velocity": 0,
        "byte9": true
    },
    {
        "deltaTime": 12,
        "running": true,
        "channel": 5,
        "type": "noteOff",
        "noteNumber": 73,
        "velocity": 0,
        "byte9": true
    },
    {
        "deltaTime": 5,
        "running": true,
        "channel": 5,
        "type": "noteOff",
        "noteNumber": 76,
        "velocity": 0,
        "byte9": true
    },
    {
        "deltaTime": 8,
        "channel": 14,
        "type": "noteOff",
        "noteNumber": 69,
        "velocity": 0,
        "byte9": true
    },
    {
        "deltaTime": 12,
        "running": true,
        "channel": 14,
        "type": "noteOff",
        "noteNumber": 61,
        "velocity": 0,
        "byte9": true
    },
    {
        "deltaTime": 5,
        "running": true,
        "channel": 14,
        "type": "noteOff",
        "noteNumber": 64,
        "velocity": 0,
        "byte9": true
    },
    {
        "deltaTime": 132,
        "channel": 1,
        "type": "noteOn",
        "noteNumber": 33,
        "velocity": 99
    },
    {
        "deltaTime": 0,
        "channel": 8,
        "type": "noteOn",
        "noteNumber": 33,
        "velocity": 99
    },
    {
        "deltaTime": 0,
        "channel": 9,
        "type": "noteOn",
        "noteNumber": 35,
        "velocity": 114
    },
    {
        "deltaTime": 0,
        "channel": 11,
        "type": "noteOn",
        "noteNumber": 41,
        "velocity": 114
    },
    {
        "deltaTime": 12,
        "channel": 9,
        "type": "noteOff",
        "noteNumber": 35,
        "velocity": 0,
        "byte9": true
    },
    {
        "deltaTime": 148,
        "channel": 5,
        "type": "noteOn",
        "noteNumber": 73,
        "velocity": 105
    },
    {
        "deltaTime": 0,
        "running": true,
        "channel": 5,
        "type": "noteOn",
        "noteNumber": 76,
        "velocity": 89
    },
    {
        "deltaTime": 0,
        "running": true,
        "channel": 5,
        "type": "noteOn",
        "noteNumber": 81,
        "velocity": 94
    },
    {
        "deltaTime": 0,
        "channel": 12,
        "type": "noteOn",
        "noteNumber": 55,
        "velocity": 119
    },
    {
        "deltaTime": 1,
        "channel": 11,
        "type": "noteOff",
        "noteNumber": 41,
        "velocity": 0,
        "byte9": true
    },
    {
        "deltaTime": 24,
        "channel": 14,
        "type": "noteOn",
        "noteNumber": 61,
        "velocity": 105
    },
    {
        "deltaTime": 0,
        "running": true,
        "channel": 14,
        "type": "noteOn",
        "noteNumber": 64,
        "velocity": 89
    },
    {
        "deltaTime": 0,
        "running": true,
        "channel": 14,
        "type": "noteOn",
        "noteNumber": 69,
        "velocity": 94
    },
    {
        "deltaTime": 121,
        "channel": 5,
        "type": "noteOff",
        "noteNumber": 81,
        "velocity": 0,
        "byte9": true
    },
    {
        "deltaTime": 22,
        "running": true,
        "channel": 5,
        "type": "noteOff",
        "noteNumber": 73,
        "velocity": 0,
        "byte9": true
    },
    {
        "deltaTime": 0,
        "running": true,
        "channel": 5,
        "type": "noteOff",
        "noteNumber": 76,
        "velocity": 0,
        "byte9": true
    },
    {
        "deltaTime": 3,
        "channel": 14,
        "type": "noteOff",
        "noteNumber": 69,
        "velocity": 0,
        "byte9": true
    },
    {
        "deltaTime": 22,
        "running": true,
        "channel": 14,
        "type": "noteOff",
        "noteNumber": 61,
        "velocity": 0,
        "byte9": true
    },
    {
        "deltaTime": 0,
        "running": true,
        "channel": 14,
        "type": "noteOff",
        "noteNumber": 64,
        "velocity": 0,
        "byte9": true
    },
    {
        "deltaTime": 109,
        "channel": 12,
        "type": "noteOff",
        "noteNumber": 55,
        "velocity": 0,
        "byte9": true
    },
    {
        "deltaTime": 14,
        "channel": 1,
        "type": "noteOff",
        "noteNumber": 33,
        "velocity": 0,
        "byte9": true
    },
    {
        "deltaTime": 0,
        "channel": 8,
        "type": "noteOff",
        "noteNumber": 33,
        "velocity": 0,
        "byte9": true
    },
    {
        "deltaTime": 4,
        "channel": 1,
        "type": "noteOn",
        "noteNumber": 36,
        "velocity": 99
    },
    {
        "deltaTime": 0,
        "channel": 8,
        "type": "noteOn",
        "noteNumber": 36,
        "velocity": 99
    },
    {
        "deltaTime": 0,
        "channel": 9,
        "type": "noteOn",
        "noteNumber": 35,
        "velocity": 114
    },
    {
        "deltaTime": 0,
        "running": true,
        "channel": 9,
        "type": "noteOn",
        "noteNumber": 70,
        "velocity": 65
    },
    {
        "deltaTime": 0,
        "channel": 11,
        "type": "noteOn",
        "noteNumber": 41,
        "velocity": 114
    },
    {
        "deltaTime": 0,
        "channel": 12,
        "type": "noteOn",
        "noteNumber": 57,
        "velocity": 114
    },
    {
        "deltaTime": 12,
        "channel": 9,
        "type": "noteOff",
        "noteNumber": 35,
        "velocity": 0,
        "byte9": true
    },
    {
        "deltaTime": 0,
        "running": true,
        "channel": 9,
        "type": "noteOff",
        "noteNumber": 70,
        "velocity": 0,
        "byte9": true
    },
    {
        "deltaTime": 148,
        "channel": 5,
        "type": "noteOn",
        "noteNumber": 73,
        "velocity": 109
    },
    {
        "deltaTime": 0,
        "running": true,
        "channel": 5,
        "type": "noteOn",
        "noteNumber": 76,
        "velocity": 97
    },
    {
        "deltaTime": 0,
        "running": true,
        "channel": 5,
        "type": "noteOn",
        "noteNumber": 81,
        "velocity": 110
    },
    {
        "deltaTime": 0,
        "channel": 9,
        "type": "noteOn",
        "noteNumber": 44,
        "velocity": 107
    },
    {
        "deltaTime": 0,
        "running": true,
        "channel": 9,
        "type": "noteOn",
        "noteNumber": 54,
        "velocity": 109
    },
    {
        "deltaTime": 1,
        "channel": 11,
        "type": "noteOff",
        "noteNumber": 41,
        "velocity": 0,
        "byte9": true
    },
    {
        "deltaTime": 11,
        "channel": 9,
        "type": "noteOff",
        "noteNumber": 44,
        "velocity": 0,
        "byte9": true
    },
    {
        "deltaTime": 0,
        "running": true,
        "channel": 9,
        "type": "noteOff",
        "noteNumber": 54,
        "velocity": 0,
        "byte9": true
    },
    {
        "deltaTime": 13,
        "channel": 14,
        "type": "noteOn",
        "noteNumber": 61,
        "velocity": 109
    },
    {
        "deltaTime": 0,
        "running": true,
        "channel": 14,
        "type": "noteOn",
        "noteNumber": 64,
        "velocity": 97
    },
    {
        "deltaTime": 0,
        "running": true,
        "channel": 14,
        "type": "noteOn",
        "noteNumber": 69,
        "velocity": 110
    },
    {
        "deltaTime": 124,
        "channel": 5,
        "type": "noteOff",
        "noteNumber": 81,
        "velocity": 0,
        "byte9": true
    },
    {
        "deltaTime": 9,
        "running": true,
        "channel": 5,
        "type": "noteOff",
        "noteNumber": 73,
        "velocity": 0,
        "byte9": true
    },
    {
        "deltaTime": 3,
        "running": true,
        "channel": 5,
        "type": "noteOff",
        "noteNumber": 76,
        "velocity": 0,
        "byte9": true
    },
    {
        "deltaTime": 13,
        "channel": 14,
        "type": "noteOff",
        "noteNumber": 69,
        "velocity": 0,
        "byte9": true
    },
    {
        "deltaTime": 9,
        "running": true,
        "channel": 14,
        "type": "noteOff",
        "noteNumber": 61,
        "velocity": 0,
        "byte9": true
    },
    {
        "deltaTime": 3,
        "running": true,
        "channel": 14,
        "type": "noteOff",
        "noteNumber": 64,
        "velocity": 0,
        "byte9": true
    },
    {
        "deltaTime": 130,
        "channel": 1,
        "type": "noteOff",
        "noteNumber": 36,
        "velocity": 0,
        "byte9": true
    },
    {
        "deltaTime": 0,
        "channel": 8,
        "type": "noteOff",
        "noteNumber": 36,
        "velocity": 0,
        "byte9": true
    },
    {
        "deltaTime": 4,
        "channel": 1,
        "type": "noteOn",
        "noteNumber": 37,
        "velocity": 99
    },
    {
        "deltaTime": 0,
        "channel": 8,
        "type": "noteOn",
        "noteNumber": 37,
        "velocity": 99
    },
    {
        "deltaTime": 0,
        "channel": 12,
        "type": "noteOn",
        "noteNumber": 50,
        "velocity": 104
    },
    {
        "deltaTime": 156,
        "channel": 1,
        "type": "noteOff",
        "noteNumber": 37,
        "velocity": 0,
        "byte9": true
    },
    {
        "deltaTime": 0,
        "channel": 8,
        "type": "noteOff",
        "noteNumber": 37,
        "velocity": 0,
        "byte9": true
    },
    {
        "deltaTime": 4,
        "channel": 1,
        "type": "noteOn",
        "noteNumber": 38,
        "velocity": 110
    },
    {
        "deltaTime": 0,
        "channel": 5,
        "type": "noteOn",
        "noteNumber": 74,
        "velocity": 101
    },
    {
        "deltaTime": 0,
        "running": true,
        "channel": 5,
        "type": "noteOn",
        "noteNumber": 77,
        "velocity": 97
    },
    {
        "deltaTime": 0,
        "running": true,
        "channel": 5,
        "type": "noteOn",
        "noteNumber": 81,
        "velocity": 105
    },
    {
        "deltaTime": 0,
        "channel": 8,
        "type": "noteOn",
        "noteNumber": 38,
        "velocity": 110
    },
    {
        "deltaTime": 0,
        "channel": 9,
        "type": "noteOn",
        "noteNumber": 35,
        "velocity": 114
    },
    {
        "deltaTime": 0,
        "channel": 11,
        "type": "noteOn",
        "noteNumber": 41,
        "velocity": 114
    },
    {
        "deltaTime": 12,
        "channel": 9,
        "type": "noteOff",
        "noteNumber": 35,
        "velocity": 0,
        "byte9": true
    },
    {
        "deltaTime": 7,
        "channel": 14,
        "type": "noteOn",
        "noteNumber": 62,
        "velocity": 101
    },
    {
        "deltaTime": 0,
        "running": true,
        "channel": 14,
        "type": "noteOn",
        "noteNumber": 65,
        "velocity": 97
    },
    {
        "deltaTime": 0,
        "running": true,
        "channel": 14,
        "type": "noteOn",
        "noteNumber": 69,
        "velocity": 105
    },
    {
        "deltaTime": 54,
        "channel": 5,
        "type": "noteOff",
        "noteNumber": 81,
        "velocity": 0,
        "byte9": true
    },
    {
        "deltaTime": 20,
        "channel": 14,
        "type": "noteOff",
        "noteNumber": 69,
        "velocity": 0,
        "byte9": true
    },
    {
        "deltaTime": 28,
        "channel": 5,
        "type": "noteOff",
        "noteNumber": 77,
        "velocity": 0,
        "byte9": true
    },
    {
        "deltaTime": 2,
        "running": true,
        "channel": 5,
        "type": "noteOff",
        "noteNumber": 74,
        "velocity": 0,
        "byte9": true
    },
    {
        "deltaTime": 17,
        "channel": 14,
        "type": "noteOff",
        "noteNumber": 65,
        "velocity": 0,
        "byte9": true
    },
    {
        "deltaTime": 2,
        "running": true,
        "channel": 14,
        "type": "noteOff",
        "noteNumber": 62,
        "velocity": 0,
        "byte9": true
    },
    {
        "deltaTime": 19,
        "channel": 11,
        "type": "noteOff",
        "noteNumber": 41,
        "velocity": 0,
        "byte9": true
    },
    {
        "deltaTime": 319,
        "channel": 5,
        "type": "noteOn",
        "noteNumber": 74,
        "velocity": 111
    },
    {
        "deltaTime": 0,
        "running": true,
        "channel": 5,
        "type": "noteOn",
        "noteNumber": 77,
        "velocity": 107
    },
    {
        "deltaTime": 0,
        "running": true,
        "channel": 5,
        "type": "noteOn",
        "noteNumber": 81,
        "velocity": 105
    },
    {
        "deltaTime": 0,
        "channel": 9,
        "type": "noteOn",
        "noteNumber": 44,
        "velocity": 107
    },
    {
        "deltaTime": 0,
        "running": true,
        "channel": 9,
        "type": "noteOn",
        "noteNumber": 69,
        "velocity": 109
    },
    {
        "deltaTime": 0,
        "channel": 12,
        "type": "noteOn",
        "noteNumber": 62,
        "velocity": 119
    },
    {
        "deltaTime": 12,
        "channel": 9,
        "type": "noteOff",
        "noteNumber": 44,
        "velocity": 0,
        "byte9": true
    },
    {
        "deltaTime": 0,
        "running": true,
        "channel": 9,
        "type": "noteOff",
        "noteNumber": 69,
        "velocity": 0,
        "byte9": true
    },
    {
        "deltaTime": 1,
        "channel": 1,
        "type": "noteOff",
        "noteNumber": 38,
        "velocity": 0,
        "byte9": true
    },
    {
        "deltaTime": 0,
        "channel": 8,
        "type": "noteOff",
        "noteNumber": 38,
        "velocity": 0,
        "byte9": true
    },
    {
        "deltaTime": 6,
        "channel": 14,
        "type": "noteOn",
        "noteNumber": 62,
        "velocity": 111
    },
    {
        "deltaTime": 0,
        "running": true,
        "channel": 14,
        "type": "noteOn",
        "noteNumber": 65,
        "velocity": 107
    },
    {
        "deltaTime": 0,
        "running": true,
        "channel": 14,
        "type": "noteOn",
        "noteNumber": 69,
        "velocity": 105
    },
    {
        "deltaTime": 138,
        "channel": 5,
        "type": "noteOff",
        "noteNumber": 81,
        "velocity": 0,
        "byte9": true
    },
    {
        "deltaTime": 7,
        "running": true,
        "channel": 5,
        "type": "noteOff",
        "noteNumber": 77,
        "velocity": 0,
        "byte9": true
    },
    {
        "deltaTime": 4,
        "running": true,
        "channel": 5,
        "type": "noteOff",
        "noteNumber": 74,
        "velocity": 0,
        "byte9": true
    },
    {
        "deltaTime": 9,
        "channel": 14,
        "type": "noteOff",
        "noteNumber": 69,
        "velocity": 0,
        "byte9": true
    },
    {
        "deltaTime": 7,
        "running": true,
        "channel": 14,
        "type": "noteOff",
        "noteNumber": 65,
        "velocity": 0,
        "byte9": true
    },
    {
        "deltaTime": 4,
        "running": true,
        "channel": 14,
        "type": "noteOff",
        "noteNumber": 62,
        "velocity": 0,
        "byte9": true
    },
    {
        "deltaTime": 132,
        "channel": 1,
        "type": "noteOn",
        "noteNumber": 38,
        "velocity": 110
    },
    {
        "deltaTime": 0,
        "channel": 8,
        "type": "noteOn",
        "noteNumber": 38,
        "velocity": 110
    },
    {
        "deltaTime": 0,
        "channel": 9,
        "type": "noteOn",
        "noteNumber": 35,
        "velocity": 107
    },
    {
        "deltaTime": 0,
        "channel": 11,
        "type": "noteOn",
        "noteNumber": 41,
        "velocity": 107
    },
    {
        "deltaTime": 12,
        "channel": 9,
        "type": "noteOff",
        "noteNumber": 35,
        "velocity": 0,
        "byte9": true
    },
    {
        "deltaTime": 34,
        "channel": 1,
        "type": "noteOff",
        "noteNumber": 38,
        "velocity": 0,
        "byte9": true
    },
    {
        "deltaTime": 0,
        "channel": 8,
        "type": "noteOff",
        "noteNumber": 38,
        "velocity": 0,
        "byte9": true
    },
    {
        "deltaTime": 0,
        "channel": 3,
        "type": "noteOn",
        "noteNumber": 76,
        "velocity": 124
    },
    {
        "deltaTime": 22,
        "channel": 1,
        "type": "noteOn",
        "noteNumber": 38,
        "velocity": 110
    },
    {
        "deltaTime": 0,
        "channel": 5,
        "type": "noteOn",
        "noteNumber": 74,
        "velocity": 105
    },
    {
        "deltaTime": 0,
        "running": true,
        "channel": 5,
        "type": "noteOn",
        "noteNumber": 77,
        "velocity": 94
    },
    {
        "deltaTime": 0,
        "running": true,
        "channel": 5,
        "type": "noteOn",
        "noteNumber": 81,
        "velocity": 94
    },
    {
        "deltaTime": 0,
        "channel": 8,
        "type": "noteOn",
        "noteNumber": 38,
        "velocity": 110
    },
    {
        "deltaTime": 0,
        "channel": 9,
        "type": "noteOn",
        "noteNumber": 35,
        "velocity": 114
    },
    {
        "deltaTime": 0,
        "channel": 11,
        "type": "noteOn",
        "noteNumber": 41,
        "velocity": 114
    },
    {
        "deltaTime": 1,
        "running": true,
        "channel": 11,
        "type": "noteOff",
        "noteNumber": 41,
        "velocity": 0,
        "byte9": true
    },
    {
        "deltaTime": 11,
        "channel": 9,
        "type": "noteOff",
        "noteNumber": 35,
        "velocity": 0,
        "byte9": true
    },
    {
        "deltaTime": 7,
        "channel": 14,
        "type": "noteOn",
        "noteNumber": 62,
        "velocity": 105
    },
    {
        "deltaTime": 0,
        "running": true,
        "channel": 14,
        "type": "noteOn",
        "noteNumber": 65,
        "velocity": 94
    },
    {
        "deltaTime": 0,
        "running": true,
        "channel": 14,
        "type": "noteOn",
        "noteNumber": 69,
        "velocity": 94
    },
    {
        "deltaTime": 24,
        "channel": 12,
        "type": "noteOff",
        "noteNumber": 57,
        "velocity": 0,
        "byte9": true
    },
    {
        "deltaTime": 47,
        "running": true,
        "channel": 12,
        "type": "noteOff",
        "noteNumber": 50,
        "velocity": 0,
        "byte9": true
    },
    {
        "deltaTime": 65,
        "channel": 5,
        "type": "noteOff",
        "noteNumber": 81,
        "velocity": 0,
        "byte9": true
    },
    {
        "deltaTime": 6,
        "channel": 11,
        "type": "noteOff",
        "noteNumber": 41,
        "velocity": 0,
        "byte9": true
    },
    {
        "deltaTime": 2,
        "channel": 5,
        "type": "noteOff",
        "noteNumber": 74,
        "velocity": 0,
        "byte9": true
    },
    {
        "deltaTime": 4,
        "running": true,
        "channel": 5,
        "type": "noteOff",
        "noteNumber": 77,
        "velocity": 0,
        "byte9": true
    },
    {
        "deltaTime": 8,
        "channel": 14,
        "type": "noteOff",
        "noteNumber": 69,
        "velocity": 0,
        "byte9": true
    },
    {
        "deltaTime": 8,
        "running": true,
        "channel": 14,
        "type": "noteOff",
        "noteNumber": 62,
        "velocity": 0,
        "byte9": true
    },
    {
        "deltaTime": 4,
        "running": true,
        "channel": 14,
        "type": "noteOff",
        "noteNumber": 65,
        "velocity": 0,
        "byte9": true
    },
    {
        "deltaTime": 75,
        "channel": 3,
        "type": "noteOff",
        "noteNumber": 76,
        "velocity": 0,
        "byte9": true
    },
    {
        "deltaTime": 58,
        "channel": 9,
        "type": "noteOn",
        "noteNumber": 70,
        "velocity": 65
    },
    {
        "deltaTime": 12,
        "running": true,
        "channel": 9,
        "type": "noteOff",
        "noteNumber": 70,
        "velocity": 0,
        "byte9": true
    },
    {
        "deltaTime": 0,
        "channel": 3,
        "type": "noteOn",
        "noteNumber": 77,
        "velocity": 114
    },
    {
        "deltaTime": 132,
        "channel": 5,
        "type": "noteOn",
        "noteNumber": 74,
        "velocity": 109
    },
    {
        "deltaTime": 0,
        "running": true,
        "channel": 5,
        "type": "noteOn",
        "noteNumber": 77,
        "velocity": 94
    },
    {
        "deltaTime": 0,
        "running": true,
        "channel": 5,
        "type": "noteOn",
        "noteNumber": 81,
        "velocity": 94
    },
    {
        "deltaTime": 0,
        "channel": 9,
        "type": "noteOn",
        "noteNumber": 44,
        "velocity": 107
    },
    {
        "deltaTime": 0,
        "running": true,
        "channel": 9,
        "type": "noteOn",
        "noteNumber": 54,
        "velocity": 109
    },
    {
        "deltaTime": 12,
        "running": true,
        "channel": 9,
        "type": "noteOff",
        "noteNumber": 44,
        "velocity": 0,
        "byte9": true
    },
    {
        "deltaTime": 0,
        "running": true,
        "channel": 9,
        "type": "noteOff",
        "noteNumber": 54,
        "velocity": 0,
        "byte9": true
    },
    {
        "deltaTime": 1,
        "channel": 1,
        "type": "noteOff",
        "noteNumber": 38,
        "velocity": 0,
        "byte9": true
    },
    {
        "deltaTime": 0,
        "channel": 8,
        "type": "noteOff",
        "noteNumber": 38,
        "velocity": 0,
        "byte9": true
    },
    {
        "deltaTime": 6,
        "channel": 14,
        "type": "noteOn",
        "noteNumber": 62,
        "velocity": 109
    },
    {
        "deltaTime": 0,
        "running": true,
        "channel": 14,
        "type": "noteOn",
        "noteNumber": 65,
        "velocity": 94
    },
    {
        "deltaTime": 0,
        "running": true,
        "channel": 14,
        "type": "noteOn",
        "noteNumber": 69,
        "velocity": 94
    },
    {
        "deltaTime": 63,
        "channel": 3,
        "type": "noteOff",
        "noteNumber": 77,
        "velocity": 0,
        "byte9": true
    },
    {
        "deltaTime": 59,
        "channel": 5,
        "type": "noteOff",
        "noteNumber": 81,
        "velocity": 0,
        "byte9": true
    },
    {
        "deltaTime": 13,
        "running": true,
        "channel": 5,
        "type": "noteOff",
        "noteNumber": 74,
        "velocity": 0,
        "byte9": true
    },
    {
        "deltaTime": 0,
        "running": true,
        "channel": 5,
        "type": "noteOff",
        "noteNumber": 77,
        "velocity": 0,
        "byte9": true
    },
    {
        "deltaTime": 7,
        "channel": 14,
        "type": "noteOff",
        "noteNumber": 69,
        "velocity": 0,
        "byte9": true
    },
    {
        "deltaTime": 13,
        "running": true,
        "channel": 14,
        "type": "noteOff",
        "noteNumber": 62,
        "velocity": 0,
        "byte9": true
    },
    {
        "deltaTime": 0,
        "running": true,
        "channel": 14,
        "type": "noteOff",
        "noteNumber": 65,
        "velocity": 0,
        "byte9": true
    },
    {
        "deltaTime": 0,
        "channel": 3,
        "type": "noteOn",
        "noteNumber": 76,
        "velocity": 127
    },
    {
        "deltaTime": 67,
        "channel": 12,
        "type": "noteOff",
        "noteNumber": 62,
        "velocity": 0,
        "byte9": true
    },
    {
        "deltaTime": 204,
        "channel": 3,
        "type": "noteOff",
        "noteNumber": 76,
        "velocity": 0,
        "byte9": true
    },
    {
        "deltaTime": 26,
        "channel": 1,
        "type": "noteOn",
        "noteNumber": 38,
        "velocity": 110
    },
    {
        "deltaTime": 0,
        "channel": 5,
        "type": "noteOn",
        "noteNumber": 74,
        "velocity": 109
    },
    {
        "deltaTime": 0,
        "running": true,
        "channel": 5,
        "type": "noteOn",
        "noteNumber": 77,
        "velocity": 94
    },
    {
        "deltaTime": 0,
        "running": true,
        "channel": 5,
        "type": "noteOn",
        "noteNumber": 81,
        "velocity": 101
    },
    {
        "deltaTime": 0,
        "channel": 8,
        "type": "noteOn",
        "noteNumber": 38,
        "velocity": 110
    },
    {
        "deltaTime": 0,
        "channel": 9,
        "type": "noteOn",
        "noteNumber": 35,
        "velocity": 114
    },
    {
        "deltaTime": 0,
        "channel": 11,
        "type": "noteOn",
        "noteNumber": 41,
        "velocity": 114
    },
    {
        "deltaTime": 12,
        "channel": 9,
        "type": "noteOff",
        "noteNumber": 35,
        "velocity": 0,
        "byte9": true
    },
    {
        "deltaTime": 7,
        "channel": 14,
        "type": "noteOn",
        "noteNumber": 62,
        "velocity": 109
    },
    {
        "deltaTime": 0,
        "running": true,
        "channel": 14,
        "type": "noteOn",
        "noteNumber": 65,
        "velocity": 94
    },
    {
        "deltaTime": 0,
        "running": true,
        "channel": 14,
        "type": "noteOn",
        "noteNumber": 69,
        "velocity": 101
    },
    {
        "deltaTime": 0,
        "channel": 3,
        "type": "noteOn",
        "noteNumber": 79,
        "velocity": 123
    },
    {
        "deltaTime": 132,
        "channel": 5,
        "type": "noteOff",
        "noteNumber": 81,
        "velocity": 0,
        "byte9": true
    },
    {
        "deltaTime": 6,
        "channel": 11,
        "type": "noteOff",
        "noteNumber": 41,
        "velocity": 0,
        "byte9": true
    },
    {
        "deltaTime": 10,
        "channel": 5,
        "type": "noteOff",
        "noteNumber": 74,
        "velocity": 0,
        "byte9": true
    },
    {
        "deltaTime": 0,
        "running": true,
        "channel": 5,
        "type": "noteOff",
        "noteNumber": 77,
        "velocity": 0,
        "byte9": true
    },
    {
        "deltaTime": 4,
        "channel": 14,
        "type": "noteOff",
        "noteNumber": 69,
        "velocity": 0,
        "byte9": true
    },
    {
        "deltaTime": 16,
        "running": true,
        "channel": 14,
        "type": "noteOff",
        "noteNumber": 62,
        "velocity": 0,
        "byte9": true
    },
    {
        "deltaTime": 0,
        "running": true,
        "channel": 14,
        "type": "noteOff",
        "noteNumber": 65,
        "velocity": 0,
        "byte9": true
    },
    {
        "deltaTime": 103,
        "channel": 3,
        "type": "noteOff",
        "noteNumber": 79,
        "velocity": 0,
        "byte9": true
    },
    {
        "deltaTime": 0,
        "channel": 3,
        "type": "noteOn",
        "noteNumber": 77,
        "velocity": 125
    },
    {
        "deltaTime": 42,
        "channel": 5,
        "type": "noteOn",
        "noteNumber": 74,
        "velocity": 108
    },
    {
        "deltaTime": 0,
        "running": true,
        "channel": 5,
        "type": "noteOn",
        "noteNumber": 77,
        "velocity": 97
    },
    {
        "deltaTime": 0,
        "running": true,
        "channel": 5,
        "type": "noteOn",
        "noteNumber": 81,
        "velocity": 98
    },
    {
        "deltaTime": 0,
        "channel": 9,
        "type": "noteOn",
        "noteNumber": 44,
        "velocity": 107
    },
    {
        "deltaTime": 0,
        "running": true,
        "channel": 9,
        "type": "noteOn",
        "noteNumber": 69,
        "velocity": 109
    },
    {
        "deltaTime": 0,
        "channel": 10,
        "type": "noteOn",
        "noteNumber": 57,
        "velocity": 105
    },
    {
        "deltaTime": 0,
        "channel": 12,
        "type": "noteOn",
        "noteNumber": 57,
        "velocity": 124
    },
    {
        "deltaTime": 12,
        "channel": 9,
        "type": "noteOff",
        "noteNumber": 44,
        "velocity": 0,
        "byte9": true
    },
    {
        "deltaTime": 0,
        "running": true,
        "channel": 9,
        "type": "noteOff",
        "noteNumber": 69,
        "velocity": 0,
        "byte9": true
    },
    {
        "deltaTime": 7,
        "channel": 14,
        "type": "noteOn",
        "noteNumber": 62,
        "velocity": 108
    },
    {
        "deltaTime": 0,
        "running": true,
        "channel": 14,
        "type": "noteOn",
        "noteNumber": 65,
        "velocity": 97
    },
    {
        "deltaTime": 0,
        "running": true,
        "channel": 14,
        "type": "noteOn",
        "noteNumber": 69,
        "velocity": 98
    },
    {
        "deltaTime": 14,
        "channel": 1,
        "type": "noteOff",
        "noteNumber": 38,
        "velocity": 0,
        "byte9": true
    },
    {
        "deltaTime": 0,
        "channel": 8,
        "type": "noteOff",
        "noteNumber": 38,
        "velocity": 0,
        "byte9": true
    },
    {
        "deltaTime": 113,
        "channel": 5,
        "type": "noteOff",
        "noteNumber": 81,
        "velocity": 0,
        "byte9": true
    },
    {
        "deltaTime": 12,
        "running": true,
        "channel": 5,
        "type": "noteOff",
        "noteNumber": 74,
        "velocity": 0,
        "byte9": true
    },
    {
        "deltaTime": 3,
        "channel": 3,
        "type": "noteOff",
        "noteNumber": 77,
        "velocity": 0,
        "byte9": true
    },
    {
        "deltaTime": 2,
        "channel": 5,
        "type": "noteOff",
        "noteNumber": 77,
        "velocity": 0,
        "byte9": true
    },
    {
        "deltaTime": 3,
        "channel": 14,
        "type": "noteOff",
        "noteNumber": 69,
        "velocity": 0,
        "byte9": true
    },
    {
        "deltaTime": 12,
        "running": true,
        "channel": 14,
        "type": "noteOff",
        "noteNumber": 62,
        "velocity": 0,
        "byte9": true
    },
    {
        "deltaTime": 5,
        "running": true,
        "channel": 14,
        "type": "noteOff",
        "noteNumber": 65,
        "velocity": 0,
        "byte9": true
    },
    {
        "deltaTime": 65,
        "channel": 10,
        "type": "noteOff",
        "noteNumber": 57,
        "velocity": 0,
        "byte9": true
    },
    {
        "deltaTime": 0,
        "channel": 3,
        "type": "noteOn",
        "noteNumber": 77,
        "velocity": 114
    },
    {
        "deltaTime": 40,
        "channel": 1,
        "type": "noteOn",
        "noteNumber": 38,
        "velocity": 110
    },
    {
        "deltaTime": 0,
        "channel": 8,
        "type": "noteOn",
        "noteNumber": 38,
        "velocity": 110
    },
    {
        "deltaTime": 0,
        "channel": 9,
        "type": "noteOn",
        "noteNumber": 35,
        "velocity": 114
    },
    {
        "deltaTime": 0,
        "channel": 10,
        "type": "noteOn",
        "noteNumber": 65,
        "velocity": 113
    },
    {
        "deltaTime": 0,
        "channel": 11,
        "type": "noteOn",
        "noteNumber": 41,
        "velocity": 114
    },
    {
        "deltaTime": 0,
        "channel": 12,
        "type": "noteOn",
        "noteNumber": 65,
        "velocity": 114
    },
    {
        "deltaTime": 12,
        "channel": 9,
        "type": "noteOff",
        "noteNumber": 35,
        "velocity": 0,
        "byte9": true
    },
    {
        "deltaTime": 148,
        "channel": 5,
        "type": "noteOn",
        "noteNumber": 74,
        "velocity": 105
    },
    {
        "deltaTime": 0,
        "running": true,
        "channel": 5,
        "type": "noteOn",
        "noteNumber": 77,
        "velocity": 89
    },
    {
        "deltaTime": 0,
        "running": true,
        "channel": 5,
        "type": "noteOn",
        "noteNumber": 81,
        "velocity": 94
    },
    {
        "deltaTime": 1,
        "channel": 11,
        "type": "noteOff",
        "noteNumber": 41,
        "velocity": 0,
        "byte9": true
    },
    {
        "deltaTime": 18,
        "channel": 14,
        "type": "noteOn",
        "noteNumber": 62,
        "velocity": 105
    },
    {
        "deltaTime": 0,
        "running": true,
        "channel": 14,
        "type": "noteOn",
        "noteNumber": 65,
        "velocity": 89
    },
    {
        "deltaTime": 0,
        "running": true,
        "channel": 14,
        "type": "noteOn",
        "noteNumber": 69,
        "velocity": 94
    },
    {
        "deltaTime": 127,
        "channel": 5,
        "type": "noteOff",
        "noteNumber": 81,
        "velocity": 0,
        "byte9": true
    },
    {
        "deltaTime": 19,
        "channel": 14,
        "type": "noteOff",
        "noteNumber": 69,
        "velocity": 0,
        "byte9": true
    },
    {
        "deltaTime": 3,
        "channel": 5,
        "type": "noteOff",
        "noteNumber": 74,
        "velocity": 0,
        "byte9": true
    },
    {
        "deltaTime": 0,
        "running": true,
        "channel": 5,
        "type": "noteOff",
        "noteNumber": 77,
        "velocity": 0,
        "byte9": true
    },
    {
        "deltaTime": 20,
        "channel": 14,
        "type": "noteOff",
        "noteNumber": 62,
        "velocity": 0,
        "byte9": true
    },
    {
        "deltaTime": 0,
        "running": true,
        "channel": 14,
        "type": "noteOff",
        "noteNumber": 65,
        "velocity": 0,
        "byte9": true
    },
    {
        "deltaTime": 128,
        "channel": 1,
        "type": "noteOff",
        "noteNumber": 38,
        "velocity": 0,
        "byte9": true
    },
    {
        "deltaTime": 0,
        "channel": 8,
        "type": "noteOff",
        "noteNumber": 38,
        "velocity": 0,
        "byte9": true
    },
    {
        "deltaTime": 4,
        "channel": 1,
        "type": "noteOn",
        "noteNumber": 41,
        "velocity": 110
    },
    {
        "deltaTime": 0,
        "channel": 8,
        "type": "noteOn",
        "noteNumber": 41,
        "velocity": 110
    },
    {
        "deltaTime": 0,
        "channel": 9,
        "type": "noteOn",
        "noteNumber": 35,
        "velocity": 114
    },
    {
        "deltaTime": 0,
        "running": true,
        "channel": 9,
        "type": "noteOn",
        "noteNumber": 70,
        "velocity": 65
    },
    {
        "deltaTime": 0,
        "channel": 11,
        "type": "noteOn",
        "noteNumber": 41,
        "velocity": 114
    },
    {
        "deltaTime": 12,
        "channel": 9,
        "type": "noteOff",
        "noteNumber": 35,
        "velocity": 0,
        "byte9": true
    },
    {
        "deltaTime": 0,
        "running": true,
        "channel": 9,
        "type": "noteOff",
        "noteNumber": 70,
        "velocity": 0,
        "byte9": true
    },
    {
        "deltaTime": 148,
        "channel": 5,
        "type": "noteOn",
        "noteNumber": 74,
        "velocity": 109
    },
    {
        "deltaTime": 0,
        "running": true,
        "channel": 5,
        "type": "noteOn",
        "noteNumber": 77,
        "velocity": 97
    },
    {
        "deltaTime": 0,
        "running": true,
        "channel": 5,
        "type": "noteOn",
        "noteNumber": 81,
        "velocity": 110
    },
    {
        "deltaTime": 0,
        "channel": 9,
        "type": "noteOn",
        "noteNumber": 44,
        "velocity": 107
    },
    {
        "deltaTime": 0,
        "running": true,
        "channel": 9,
        "type": "noteOn",
        "noteNumber": 54,
        "velocity": 109
    },
    {
        "deltaTime": 0,
        "channel": 10,
        "type": "noteOn",
        "noteNumber": 62,
        "velocity": 95
    },
    {
        "deltaTime": 0,
        "channel": 12,
        "type": "noteOn",
        "noteNumber": 62,
        "velocity": 121
    },
    {
        "deltaTime": 1,
        "channel": 11,
        "type": "noteOff",
        "noteNumber": 41,
        "velocity": 0,
        "byte9": true
    },
    {
        "deltaTime": 11,
        "channel": 3,
        "type": "noteOff",
        "noteNumber": 77,
        "velocity": 0,
        "byte9": true
    },
    {
        "deltaTime": 0,
        "channel": 9,
        "type": "noteOff",
        "noteNumber": 44,
        "velocity": 0,
        "byte9": true
    },
    {
        "deltaTime": 0,
        "running": true,
        "channel": 9,
        "type": "noteOff",
        "noteNumber": 54,
        "velocity": 0,
        "byte9": true
    },
    {
        "deltaTime": 1,
        "channel": 10,
        "type": "noteOff",
        "noteNumber": 65,
        "velocity": 0,
        "byte9": true
    },
    {
        "deltaTime": 3,
        "channel": 12,
        "type": "noteOff",
        "noteNumber": 57,
        "velocity": 0,
        "byte9": true
    },
    {
        "deltaTime": 3,
        "channel": 14,
        "type": "noteOn",
        "noteNumber": 62,
        "velocity": 109
    },
    {
        "deltaTime": 0,
        "running": true,
        "channel": 14,
        "type": "noteOn",
        "noteNumber": 65,
        "velocity": 97
    },
    {
        "deltaTime": 0,
        "running": true,
        "channel": 14,
        "type": "noteOn",
        "noteNumber": 69,
        "velocity": 110
    },
    {
        "deltaTime": 0,
        "channel": 3,
        "type": "noteOn",
        "noteNumber": 76,
        "velocity": 124
    },
    {
        "deltaTime": 15,
        "channel": 12,
        "type": "noteOff",
        "noteNumber": 65,
        "velocity": 0,
        "byte9": true
    },
    {
        "deltaTime": 108,
        "channel": 5,
        "type": "noteOff",
        "noteNumber": 81,
        "velocity": 0,
        "byte9": true
    },
    {
        "deltaTime": 9,
        "running": true,
        "channel": 5,
        "type": "noteOff",
        "noteNumber": 74,
        "velocity": 0,
        "byte9": true
    },
    {
        "deltaTime": 3,
        "running": true,
        "channel": 5,
        "type": "noteOff",
        "noteNumber": 77,
        "velocity": 0,
        "byte9": true
    },
    {
        "deltaTime": 7,
        "channel": 14,
        "type": "noteOff",
        "noteNumber": 69,
        "velocity": 0,
        "byte9": true
    },
    {
        "deltaTime": 9,
        "running": true,
        "channel": 14,
        "type": "noteOff",
        "noteNumber": 62,
        "velocity": 0,
        "byte9": true
    },
    {
        "deltaTime": 3,
        "running": true,
        "channel": 14,
        "type": "noteOff",
        "noteNumber": 65,
        "velocity": 0,
        "byte9": true
    },
    {
        "deltaTime": 97,
        "channel": 3,
        "type": "noteOff",
        "noteNumber": 76,
        "velocity": 0,
        "byte9": true
    },
    {
        "deltaTime": 0,
        "channel": 3,
        "type": "noteOn",
        "noteNumber": 77,
        "velocity": 114
    },
    {
        "deltaTime": 1,
        "channel": 1,
        "type": "noteOff",
        "noteNumber": 41,
        "velocity": 0,
        "byte9": true
    },
    {
        "deltaTime": 0,
        "channel": 8,
        "type": "noteOff",
        "noteNumber": 41,
        "velocity": 0,
        "byte9": true
    },
    {
        "deltaTime": 0,
        "channel": 12,
        "type": "noteOff",
        "noteNumber": 62,
        "velocity": 0,
        "byte9": true
    },
    {
        "deltaTime": 4,
        "channel": 1,
        "type": "noteOn",
        "noteNumber": 42,
        "velocity": 110
    },
    {
        "deltaTime": 0,
        "channel": 8,
        "type": "noteOn",
        "noteNumber": 42,
        "velocity": 110
    },
    {
        "deltaTime": 120,
        "channel": 10,
        "type": "noteOff",
        "noteNumber": 62,
        "velocity": 0,
        "byte9": true
    },
    {
        "deltaTime": 36,
        "channel": 1,
        "type": "noteOff",
        "noteNumber": 42,
        "velocity": 0,
        "byte9": true
    },
    {
        "deltaTime": 0,
        "channel": 8,
        "type": "noteOff",
        "noteNumber": 42,
        "velocity": 0,
        "byte9": true
    },
    {
        "deltaTime": 4,
        "channel": 1,
        "type": "noteOn",
        "noteNumber": 43,
        "velocity": 110
    },
    {
        "deltaTime": 0,
        "channel": 5,
        "type": "noteOn",
        "noteNumber": 74,
        "velocity": 101
    },
    {
        "deltaTime": 0,
        "running": true,
        "channel": 5,
        "type": "noteOn",
        "noteNumber": 79,
        "velocity": 97
    },
    {
        "deltaTime": 0,
        "running": true,
        "channel": 5,
        "type": "noteOn",
        "noteNumber": 82,
        "velocity": 105
    },
    {
        "deltaTime": 0,
        "channel": 8,
        "type": "noteOn",
        "noteNumber": 43,
        "velocity": 110
    },
    {
        "deltaTime": 0,
        "channel": 9,
        "type": "noteOn",
        "noteNumber": 35,
        "velocity": 114
    },
    {
        "deltaTime": 0,
        "channel": 10,
        "type": "noteOn",
        "noteNumber": 58,
        "velocity": 104
    },
    {
        "deltaTime": 0,
        "channel": 11,
        "type": "noteOn",
        "noteNumber": 41,
        "velocity": 114
    },
    {
        "deltaTime": 0,
        "channel": 12,
        "type": "noteOn",
        "noteNumber": 55,
        "velocity": 114
    },
    {
        "deltaTime": 12,
        "channel": 9,
        "type": "noteOff",
        "noteNumber": 35,
        "velocity": 0,
        "byte9": true
    },
    {
        "deltaTime": 7,
        "channel": 14,
        "type": "noteOn",
        "noteNumber": 62,
        "velocity": 101
    },
    {
        "deltaTime": 0,
        "running": true,
        "channel": 14,
        "type": "noteOn",
        "noteNumber": 67,
        "velocity": 97
    },
    {
        "deltaTime": 0,
        "running": true,
        "channel": 14,
        "type": "noteOn",
        "noteNumber": 70,
        "velocity": 105
    },
    {
        "deltaTime": 54,
        "channel": 5,
        "type": "noteOff",
        "noteNumber": 82,
        "velocity": 0,
        "byte9": true
    },
    {
        "deltaTime": 20,
        "channel": 14,
        "type": "noteOff",
        "noteNumber": 70,
        "velocity": 0,
        "byte9": true
    },
    {
        "deltaTime": 28,
        "channel": 5,
        "type": "noteOff",
        "noteNumber": 79,
        "velocity": 0,
        "byte9": true
    },
    {
        "deltaTime": 2,
        "running": true,
        "channel": 5,
        "type": "noteOff",
        "noteNumber": 74,
        "velocity": 0,
        "byte9": true
    },
    {
        "deltaTime": 17,
        "channel": 14,
        "type": "noteOff",
        "noteNumber": 67,
        "velocity": 0,
        "byte9": true
    },
    {
        "deltaTime": 2,
        "running": true,
        "channel": 14,
        "type": "noteOff",
        "noteNumber": 62,
        "velocity": 0,
        "byte9": true
    },
    {
        "deltaTime": 13,
        "channel": 3,
        "type": "noteOff",
        "noteNumber": 77,
        "velocity": 0,
        "byte9": true
    },
    {
        "deltaTime": 6,
        "channel": 11,
        "type": "noteOff",
        "noteNumber": 41,
        "velocity": 0,
        "byte9": true
    },
    {
        "deltaTime": 0,
        "channel": 3,
        "type": "noteOn",
        "noteNumber": 70,
        "velocity": 127
    },
    {
        "deltaTime": 195,
        "channel": 5,
        "type": "noteOn",
        "noteNumber": 74,
        "velocity": 111
    },
    {
        "deltaTime": 0,
        "running": true,
        "channel": 5,
        "type": "noteOn",
        "noteNumber": 79,
        "velocity": 107
    },
    {
        "deltaTime": 0,
        "running": true,
        "channel": 5,
        "type": "noteOn",
        "noteNumber": 82,
        "velocity": 105
    },
    {
        "deltaTime": 0,
        "channel": 9,
        "type": "noteOn",
        "noteNumber": 44,
        "velocity": 107
    },
    {
        "deltaTime": 0,
        "running": true,
        "channel": 9,
        "type": "noteOn",
        "noteNumber": 69,
        "velocity": 109
    },
    {
        "deltaTime": 0,
        "channel": 12,
        "type": "noteOn",
        "noteNumber": 58,
        "velocity": 122
    },
    {
        "deltaTime": 12,
        "channel": 9,
        "type": "noteOff",
        "noteNumber": 44,
        "velocity": 0,
        "byte9": true
    },
    {
        "deltaTime": 0,
        "running": true,
        "channel": 9,
        "type": "noteOff",
        "noteNumber": 69,
        "velocity": 0,
        "byte9": true
    },
    {
        "deltaTime": 7,
        "channel": 14,
        "type": "noteOn",
        "noteNumber": 62,
        "velocity": 111
    },
    {
        "deltaTime": 0,
        "running": true,
        "channel": 14,
        "type": "noteOn",
        "noteNumber": 67,
        "velocity": 107
    },
    {
        "deltaTime": 0,
        "running": true,
        "channel": 14,
        "type": "noteOn",
        "noteNumber": 70,
        "velocity": 105
    },
    {
        "deltaTime": 9,
        "channel": 3,
        "type": "noteOff",
        "noteNumber": 70,
        "velocity": 0,
        "byte9": true
    },
    {
        "deltaTime": 5,
        "channel": 1,
        "type": "noteOff",
        "noteNumber": 43,
        "velocity": 0,
        "byte9": true
    },
    {
        "deltaTime": 0,
        "channel": 8,
        "type": "noteOff",
        "noteNumber": 43,
        "velocity": 0,
        "byte9": true
    },
    {
        "deltaTime": 124,
        "channel": 5,
        "type": "noteOff",
        "noteNumber": 82,
        "velocity": 0,
        "byte9": true
    },
    {
        "deltaTime": 7,
        "running": true,
        "channel": 5,
        "type": "noteOff",
        "noteNumber": 79,
        "velocity": 0,
        "byte9": true
    },
    {
        "deltaTime": 4,
        "running": true,
        "channel": 5,
        "type": "noteOff",
        "noteNumber": 74,
        "velocity": 0,
        "byte9": true
    },
    {
        "deltaTime": 9,
        "channel": 14,
        "type": "noteOff",
        "noteNumber": 70,
        "velocity": 0,
        "byte9": true
    },
    {
        "deltaTime": 7,
        "running": true,
        "channel": 14,
        "type": "noteOff",
        "noteNumber": 67,
        "velocity": 0,
        "byte9": true
    },
    {
        "deltaTime": 4,
        "running": true,
        "channel": 14,
        "type": "noteOff",
        "noteNumber": 62,
        "velocity": 0,
        "byte9": true
    },
    {
        "deltaTime": 132,
        "channel": 1,
        "type": "noteOn",
        "noteNumber": 31,
        "velocity": 110
    },
    {
        "deltaTime": 0,
        "channel": 8,
        "type": "noteOn",
        "noteNumber": 31,
        "velocity": 110
    },
    {
        "deltaTime": 0,
        "channel": 9,
        "type": "noteOn",
        "noteNumber": 35,
        "velocity": 107
    },
    {
        "deltaTime": 0,
        "channel": 11,
        "type": "noteOn",
        "noteNumber": 41,
        "velocity": 107
    },
    {
        "deltaTime": 12,
        "channel": 9,
        "type": "noteOff",
        "noteNumber": 35,
        "velocity": 0,
        "byte9": true
    },
    {
        "deltaTime": 37,
        "channel": 1,
        "type": "noteOff",
        "noteNumber": 31,
        "velocity": 0,
        "byte9": true
    },
    {
        "deltaTime": 0,
        "channel": 8,
        "type": "noteOff",
        "noteNumber": 31,
        "velocity": 0,
        "byte9": true
    },
    {
        "deltaTime": 111,
        "channel": 1,
        "type": "noteOn",
        "noteNumber": 31,
        "velocity": 110
    },
    {
        "deltaTime": 0,
        "channel": 5,
        "type": "noteOn",
        "noteNumber": 74,
        "velocity": 105
    },
    {
        "deltaTime": 0,
        "running": true,
        "channel": 5,
        "type": "noteOn",
        "noteNumber": 79,
        "velocity": 94
    },
    {
        "deltaTime": 0,
        "running": true,
        "channel": 5,
        "type": "noteOn",
        "noteNumber": 82,
        "velocity": 94
    },
    {
        "deltaTime": 0,
        "channel": 8,
        "type": "noteOn",
        "noteNumber": 31,
        "velocity": 110
    },
    {
        "deltaTime": 0,
        "channel": 9,
        "type": "noteOn",
        "noteNumber": 35,
        "velocity": 114
    },
    {
        "deltaTime": 0,
        "channel": 11,
        "type": "noteOn",
        "noteNumber": 41,
        "velocity": 114
    },
    {
        "deltaTime": 0,
        "channel": 12,
        "type": "noteOn",
        "noteNumber": 62,
        "velocity": 119
    },
    {
        "deltaTime": 1,
        "channel": 11,
        "type": "noteOff",
        "noteNumber": 41,
        "velocity": 0,
        "byte9": true
    },
    {
        "deltaTime": 11,
        "channel": 9,
        "type": "noteOff",
        "noteNumber": 35,
        "velocity": 0,
        "byte9": true
    },
    {
        "deltaTime": 0,
        "channel": 3,
        "type": "noteOn",
        "noteNumber": 76,
        "velocity": 127
    },
    {
        "deltaTime": 0,
        "channel": 14,
        "type": "noteOn",
        "noteNumber": 62,
        "velocity": 105
    },
    {
        "deltaTime": 0,
        "running": true,
        "channel": 14,
        "type": "noteOn",
        "noteNumber": 67,
        "velocity": 94
    },
    {
        "deltaTime": 0,
        "running": true,
        "channel": 14,
        "type": "noteOn",
        "noteNumber": 70,
        "velocity": 94
    },
    {
        "deltaTime": 136,
        "channel": 5,
        "type": "noteOff",
        "noteNumber": 82,
        "velocity": 0,
        "byte9": true
    },
    {
        "deltaTime": 6,
        "channel": 11,
        "type": "noteOff",
        "noteNumber": 41,
        "velocity": 0,
        "byte9": true
    },
    {
        "deltaTime": 2,
        "channel": 5,
        "type": "noteOff",
        "noteNumber": 74,
        "velocity": 0,
        "byte9": true
    },
    {
        "deltaTime": 4,
        "running": true,
        "channel": 5,
        "type": "noteOff",
        "noteNumber": 79,
        "velocity": 0,
        "byte9": true
    },
    {
        "deltaTime": 8,
        "channel": 14,
        "type": "noteOff",
        "noteNumber": 70,
        "velocity": 0,
        "byte9": true
    },
    {
        "deltaTime": 8,
        "running": true,
        "channel": 14,
        "type": "noteOff",
        "noteNumber": 62,
        "velocity": 0,
        "byte9": true
    },
    {
        "deltaTime": 4,
        "running": true,
        "channel": 14,
        "type": "noteOff",
        "noteNumber": 67,
        "velocity": 0,
        "byte9": true
    },
    {
        "deltaTime": 133,
        "channel": 9,
        "type": "noteOn",
        "noteNumber": 70,
        "velocity": 65
    },
    {
        "deltaTime": 12,
        "running": true,
        "channel": 9,
        "type": "noteOff",
        "noteNumber": 70,
        "velocity": 0,
        "byte9": true
    },
    {
        "deltaTime": 0,
        "channel": 3,
        "type": "noteOn",
        "noteNumber": 77,
        "velocity": 124
    },
    {
        "deltaTime": 12,
        "running": true,
        "channel": 3,
        "type": "noteOff",
        "noteNumber": 76,
        "velocity": 0,
        "byte9": true
    },
    {
        "deltaTime": 116,
        "channel": 5,
        "type": "noteOn",
        "noteNumber": 74,
        "velocity": 109
    },
    {
        "deltaTime": 0,
        "running": true,
        "channel": 5,
        "type": "noteOn",
        "noteNumber": 79,
        "velocity": 94
    },
    {
        "deltaTime": 0,
        "running": true,
        "channel": 5,
        "type": "noteOn",
        "noteNumber": 82,
        "velocity": 94
    },
    {
        "deltaTime": 0,
        "channel": 9,
        "type": "noteOn",
        "noteNumber": 44,
        "velocity": 107
    },
    {
        "deltaTime": 0,
        "running": true,
        "channel": 9,
        "type": "noteOn",
        "noteNumber": 54,
        "velocity": 109
    },
    {
        "deltaTime": 12,
        "running": true,
        "channel": 9,
        "type": "noteOff",
        "noteNumber": 44,
        "velocity": 0,
        "byte9": true
    },
    {
        "deltaTime": 0,
        "running": true,
        "channel": 9,
        "type": "noteOff",
        "noteNumber": 54,
        "velocity": 0,
        "byte9": true
    },
    {
        "deltaTime": 1,
        "channel": 1,
        "type": "noteOff",
        "noteNumber": 31,
        "velocity": 0,
        "byte9": true
    },
    {
        "deltaTime": 0,
        "channel": 8,
        "type": "noteOff",
        "noteNumber": 31,
        "velocity": 0,
        "byte9": true
    },
    {
        "deltaTime": 6,
        "channel": 14,
        "type": "noteOn",
        "noteNumber": 62,
        "velocity": 109
    },
    {
        "deltaTime": 0,
        "running": true,
        "channel": 14,
        "type": "noteOn",
        "noteNumber": 67,
        "velocity": 94
    },
    {
        "deltaTime": 0,
        "running": true,
        "channel": 14,
        "type": "noteOn",
        "noteNumber": 70,
        "velocity": 94
    },
    {
        "deltaTime": 122,
        "channel": 5,
        "type": "noteOff",
        "noteNumber": 82,
        "velocity": 0,
        "byte9": true
    },
    {
        "deltaTime": 13,
        "running": true,
        "channel": 5,
        "type": "noteOff",
        "noteNumber": 74,
        "velocity": 0,
        "byte9": true
    },
    {
        "deltaTime": 0,
        "running": true,
        "channel": 5,
        "type": "noteOff",
        "noteNumber": 79,
        "velocity": 0,
        "byte9": true
    },
    {
        "deltaTime": 7,
        "channel": 14,
        "type": "noteOff",
        "noteNumber": 70,
        "velocity": 0,
        "byte9": true
    },
    {
        "deltaTime": 13,
        "running": true,
        "channel": 14,
        "type": "noteOff",
        "noteNumber": 62,
        "velocity": 0,
        "byte9": true
    },
    {
        "deltaTime": 0,
        "running": true,
        "channel": 14,
        "type": "noteOff",
        "noteNumber": 67,
        "velocity": 0,
        "byte9": true
    },
    {
        "deltaTime": 98,
        "channel": 3,
        "type": "noteOff",
        "noteNumber": 77,
        "velocity": 0,
        "byte9": true
    },
    {
        "deltaTime": 0,
        "channel": 3,
        "type": "noteOn",
        "noteNumber": 76,
        "velocity": 127
    },
    {
        "deltaTime": 192,
        "channel": 1,
        "type": "noteOn",
        "noteNumber": 31,
        "velocity": 110
    },
    {
        "deltaTime": 0,
        "channel": 5,
        "type": "noteOn",
        "noteNumber": 74,
        "velocity": 109
    },
    {
        "deltaTime": 0,
        "running": true,
        "channel": 5,
        "type": "noteOn",
        "noteNumber": 79,
        "velocity": 94
    },
    {
        "deltaTime": 0,
        "running": true,
        "channel": 5,
        "type": "noteOn",
        "noteNumber": 82,
        "velocity": 101
    },
    {
        "deltaTime": 0,
        "channel": 8,
        "type": "noteOn",
        "noteNumber": 31,
        "velocity": 110
    },
    {
        "deltaTime": 0,
        "channel": 9,
        "type": "noteOn",
        "noteNumber": 35,
        "velocity": 114
    },
    {
        "deltaTime": 0,
        "channel": 11,
        "type": "noteOn",
        "noteNumber": 41,
        "velocity": 114
    },
    {
        "deltaTime": 0,
        "channel": 12,
        "type": "noteOn",
        "noteNumber": 67,
        "velocity": 119
    },
    {
        "deltaTime": 12,
        "channel": 9,
        "type": "noteOff",
        "noteNumber": 35,
        "velocity": 0,
        "byte9": true
    },
    {
        "deltaTime": 7,
        "channel": 14,
        "type": "noteOn",
        "noteNumber": 62,
        "velocity": 109
    },
    {
        "deltaTime": 0,
        "running": true,
        "channel": 14,
        "type": "noteOn",
        "noteNumber": 67,
        "velocity": 94
    },
    {
        "deltaTime": 0,
        "running": true,
        "channel": 14,
        "type": "noteOn",
        "noteNumber": 70,
        "velocity": 101
    },
    {
        "deltaTime": 136,
        "channel": 5,
        "type": "noteOff",
        "noteNumber": 82,
        "velocity": 0,
        "byte9": true
    },
    {
        "deltaTime": 6,
        "channel": 11,
        "type": "noteOff",
        "noteNumber": 41,
        "velocity": 0,
        "byte9": true
    },
    {
        "deltaTime": 10,
        "channel": 5,
        "type": "noteOff",
        "noteNumber": 74,
        "velocity": 0,
        "byte9": true
    },
    {
        "deltaTime": 0,
        "running": true,
        "channel": 5,
        "type": "noteOff",
        "noteNumber": 79,
        "velocity": 0,
        "byte9": true
    },
    {
        "deltaTime": 4,
        "channel": 14,
        "type": "noteOff",
        "noteNumber": 70,
        "velocity": 0,
        "byte9": true
    },
    {
        "deltaTime": 16,
        "running": true,
        "channel": 14,
        "type": "noteOff",
        "noteNumber": 62,
        "velocity": 0,
        "byte9": true
    },
    {
        "deltaTime": 0,
        "running": true,
        "channel": 14,
        "type": "noteOff",
        "noteNumber": 67,
        "velocity": 0,
        "byte9": true
    },
    {
        "deltaTime": 0,
        "channel": 3,
        "type": "noteOn",
        "noteNumber": 79,
        "velocity": 127
    },
    {
        "deltaTime": 28,
        "channel": 12,
        "type": "noteOff",
        "noteNumber": 62,
        "velocity": 0,
        "byte9": true
    },
    {
        "deltaTime": 12,
        "channel": 3,
        "type": "noteOff",
        "noteNumber": 76,
        "velocity": 0,
        "byte9": true
    },
    {
        "deltaTime": 148,
        "channel": 12,
        "type": "noteOff",
        "noteNumber": 67,
        "velocity": 0,
        "byte9": true
    },
    {
        "deltaTime": 4,
        "channel": 5,
        "type": "noteOn",
        "noteNumber": 74,
        "velocity": 108
    },
    {
        "deltaTime": 0,
        "running": true,
        "channel": 5,
        "type": "noteOn",
        "noteNumber": 79,
        "velocity": 97
    },
    {
        "deltaTime": 0,
        "running": true,
        "channel": 5,
        "type": "noteOn",
        "noteNumber": 82,
        "velocity": 98
    },
    {
        "deltaTime": 0,
        "channel": 9,
        "type": "noteOn",
        "noteNumber": 44,
        "velocity": 107
    },
    {
        "deltaTime": 0,
        "running": true,
        "channel": 9,
        "type": "noteOn",
        "noteNumber": 69,
        "velocity": 109
    },
    {
        "deltaTime": 0,
        "channel": 12,
        "type": "noteOn",
        "noteNumber": 62,
        "velocity": 119
    },
    {
        "deltaTime": 12,
        "channel": 9,
        "type": "noteOff",
        "noteNumber": 44,
        "velocity": 0,
        "byte9": true
    },
    {
        "deltaTime": 0,
        "running": true,
        "channel": 9,
        "type": "noteOff",
        "noteNumber": 69,
        "velocity": 0,
        "byte9": true
    },
    {
        "deltaTime": 1,
        "channel": 1,
        "type": "noteOff",
        "noteNumber": 31,
        "velocity": 0,
        "byte9": true
    },
    {
        "deltaTime": 0,
        "channel": 8,
        "type": "noteOff",
        "noteNumber": 31,
        "velocity": 0,
        "byte9": true
    },
    {
        "deltaTime": 6,
        "channel": 14,
        "type": "noteOn",
        "noteNumber": 62,
        "velocity": 108
    },
    {
        "deltaTime": 0,
        "running": true,
        "channel": 14,
        "type": "noteOn",
        "noteNumber": 67,
        "velocity": 97
    },
    {
        "deltaTime": 0,
        "running": true,
        "channel": 14,
        "type": "noteOn",
        "noteNumber": 70,
        "velocity": 98
    },
    {
        "deltaTime": 10,
        "channel": 12,
        "type": "noteOff",
        "noteNumber": 55,
        "velocity": 0,
        "byte9": true
    },
    {
        "deltaTime": 42,
        "running": true,
        "channel": 12,
        "type": "noteOff",
        "noteNumber": 58,
        "velocity": 0,
        "byte9": true
    },
    {
        "deltaTime": 75,
        "channel": 5,
        "type": "noteOff",
        "noteNumber": 82,
        "velocity": 0,
        "byte9": true
    },
    {
        "deltaTime": 12,
        "running": true,
        "channel": 5,
        "type": "noteOff",
        "noteNumber": 74,
        "velocity": 0,
        "byte9": true
    },
    {
        "deltaTime": 5,
        "running": true,
        "channel": 5,
        "type": "noteOff",
        "noteNumber": 79,
        "velocity": 0,
        "byte9": true
    },
    {
        "deltaTime": 3,
        "channel": 14,
        "type": "noteOff",
        "noteNumber": 70,
        "velocity": 0,
        "byte9": true
    },
    {
        "deltaTime": 12,
        "running": true,
        "channel": 14,
        "type": "noteOff",
        "noteNumber": 62,
        "velocity": 0,
        "byte9": true
    },
    {
        "deltaTime": 5,
        "running": true,
        "channel": 14,
        "type": "noteOff",
        "noteNumber": 67,
        "velocity": 0,
        "byte9": true
    },
    {
        "deltaTime": 43,
        "channel": 3,
        "type": "noteOff",
        "noteNumber": 79,
        "velocity": 0,
        "byte9": true
    },
    {
        "deltaTime": 0,
        "channel": 3,
        "type": "noteOn",
        "noteNumber": 77,
        "velocity": 115
    },
    {
        "deltaTime": 90,
        "channel": 1,
        "type": "noteOn",
        "noteNumber": 31,
        "velocity": 110
    },
    {
        "deltaTime": 0,
        "channel": 8,
        "type": "noteOn",
        "noteNumber": 31,
        "velocity": 110
    },
    {
        "deltaTime": 0,
        "channel": 9,
        "type": "noteOn",
        "noteNumber": 35,
        "velocity": 114
    },
    {
        "deltaTime": 0,
        "channel": 11,
        "type": "noteOn",
        "noteNumber": 41,
        "velocity": 114
    },
    {
        "deltaTime": 12,
        "channel": 9,
        "type": "noteOff",
        "noteNumber": 35,
        "velocity": 0,
        "byte9": true
    },
    {
        "deltaTime": 1,
        "channel": 3,
        "type": "noteOff",
        "noteNumber": 77,
        "velocity": 0,
        "byte9": true
    },
    {
        "deltaTime": 0,
        "channel": 3,
        "type": "noteOn",
        "noteNumber": 77,
        "velocity": 119
    },
    {
        "deltaTime": 45,
        "channel": 12,
        "type": "noteOff",
        "noteNumber": 62,
        "velocity": 0,
        "byte9": true
    },
    {
        "deltaTime": 4,
        "channel": 5,
        "type": "noteOn",
        "noteNumber": 74,
        "velocity": 105
    },
    {
        "deltaTime": 0,
        "running": true,
        "channel": 5,
        "type": "noteOn",
        "noteNumber": 79,
        "velocity": 89
    },
    {
        "deltaTime": 0,
        "running": true,
        "channel": 5,
        "type": "noteOn",
        "noteNumber": 82,
        "velocity": 94
    },
    {
        "deltaTime": 0,
        "channel": 12,
        "type": "noteOn",
        "noteNumber": 58,
        "velocity": 119
    },
    {
        "deltaTime": 1,
        "channel": 11,
        "type": "noteOff",
        "noteNumber": 41,
        "velocity": 0,
        "byte9": true
    },
    {
        "deltaTime": 18,
        "channel": 14,
        "type": "noteOn",
        "noteNumber": 62,
        "velocity": 105
    },
    {
        "deltaTime": 0,
        "running": true,
        "channel": 14,
        "type": "noteOn",
        "noteNumber": 67,
        "velocity": 89
    },
    {
        "deltaTime": 0,
        "running": true,
        "channel": 14,
        "type": "noteOn",
        "noteNumber": 70,
        "velocity": 94
    },
    {
        "deltaTime": 127,
        "channel": 5,
        "type": "noteOff",
        "noteNumber": 82,
        "velocity": 0,
        "byte9": true
    },
    {
        "deltaTime": 19,
        "channel": 14,
        "type": "noteOff",
        "noteNumber": 70,
        "velocity": 0,
        "byte9": true
    },
    {
        "deltaTime": 3,
        "channel": 5,
        "type": "noteOff",
        "noteNumber": 74,
        "velocity": 0,
        "byte9": true
    },
    {
        "deltaTime": 0,
        "running": true,
        "channel": 5,
        "type": "noteOff",
        "noteNumber": 79,
        "velocity": 0,
        "byte9": true
    },
    {
        "deltaTime": 20,
        "channel": 14,
        "type": "noteOff",
        "noteNumber": 62,
        "velocity": 0,
        "byte9": true
    },
    {
        "deltaTime": 0,
        "running": true,
        "channel": 14,
        "type": "noteOff",
        "noteNumber": 67,
        "velocity": 0,
        "byte9": true
    },
    {
        "deltaTime": 132,
        "channel": 1,
        "type": "noteOn",
        "noteNumber": 32,
        "velocity": 110
    },
    {
        "deltaTime": 0,
        "channel": 8,
        "type": "noteOn",
        "noteNumber": 32,
        "velocity": 110
    },
    {
        "deltaTime": 0,
        "channel": 9,
        "type": "noteOn",
        "noteNumber": 35,
        "velocity": 114
    },
    {
        "deltaTime": 0,
        "running": true,
        "channel": 9,
        "type": "noteOn",
        "noteNumber": 70,
        "velocity": 65
    },
    {
        "deltaTime": 0,
        "channel": 11,
        "type": "noteOn",
        "noteNumber": 41,
        "velocity": 114
    },
    {
        "deltaTime": 12,
        "channel": 9,
        "type": "noteOff",
        "noteNumber": 35,
        "velocity": 0,
        "byte9": true
    },
    {
        "deltaTime": 0,
        "running": true,
        "channel": 9,
        "type": "noteOff",
        "noteNumber": 70,
        "velocity": 0,
        "byte9": true
    },
    {
        "deltaTime": 1,
        "channel": 1,
        "type": "noteOff",
        "noteNumber": 31,
        "velocity": 0,
        "byte9": true
    },
    {
        "deltaTime": 0,
        "channel": 8,
        "type": "noteOff",
        "noteNumber": 31,
        "velocity": 0,
        "byte9": true
    },
    {
        "deltaTime": 147,
        "channel": 5,
        "type": "noteOn",
        "noteNumber": 74,
        "velocity": 109
    },
    {
        "deltaTime": 0,
        "running": true,
        "channel": 5,
        "type": "noteOn",
        "noteNumber": 79,
        "velocity": 97
    },
    {
        "deltaTime": 0,
        "running": true,
        "channel": 5,
        "type": "noteOn",
        "noteNumber": 82,
        "velocity": 110
    },
    {
        "deltaTime": 0,
        "channel": 9,
        "type": "noteOn",
        "noteNumber": 44,
        "velocity": 107
    },
    {
        "deltaTime": 0,
        "running": true,
        "channel": 9,
        "type": "noteOn",
        "noteNumber": 54,
        "velocity": 109
    },
    {
        "deltaTime": 1,
        "channel": 11,
        "type": "noteOff",
        "noteNumber": 41,
        "velocity": 0,
        "byte9": true
    },
    {
        "deltaTime": 11,
        "channel": 9,
        "type": "noteOff",
        "noteNumber": 44,
        "velocity": 0,
        "byte9": true
    },
    {
        "deltaTime": 0,
        "running": true,
        "channel": 9,
        "type": "noteOff",
        "noteNumber": 54,
        "velocity": 0,
        "byte9": true
    },
    {
        "deltaTime": 7,
        "channel": 14,
        "type": "noteOn",
        "noteNumber": 62,
        "velocity": 109
    },
    {
        "deltaTime": 0,
        "running": true,
        "channel": 14,
        "type": "noteOn",
        "noteNumber": 67,
        "velocity": 97
    },
    {
        "deltaTime": 0,
        "running": true,
        "channel": 14,
        "type": "noteOn",
        "noteNumber": 70,
        "velocity": 110
    },
    {
        "deltaTime": 71,
        "channel": 3,
        "type": "noteOff",
        "noteNumber": 77,
        "velocity": 0,
        "byte9": true
    },
    {
        "deltaTime": 59,
        "channel": 5,
        "type": "noteOff",
        "noteNumber": 82,
        "velocity": 0,
        "byte9": true
    },
    {
        "deltaTime": 9,
        "running": true,
        "channel": 5,
        "type": "noteOff",
        "noteNumber": 74,
        "velocity": 0,
        "byte9": true
    },
    {
        "deltaTime": 3,
        "running": true,
        "channel": 5,
        "type": "noteOff",
        "noteNumber": 79,
        "velocity": 0,
        "byte9": true
    },
    {
        "deltaTime": 7,
        "channel": 14,
        "type": "noteOff",
        "noteNumber": 70,
        "velocity": 0,
        "byte9": true
    },
    {
        "deltaTime": 9,
        "running": true,
        "channel": 14,
        "type": "noteOff",
        "noteNumber": 62,
        "velocity": 0,
        "byte9": true
    },
    {
        "deltaTime": 3,
        "running": true,
        "channel": 14,
        "type": "noteOff",
        "noteNumber": 67,
        "velocity": 0,
        "byte9": true
    },
    {
        "deltaTime": 136,
        "channel": 1,
        "type": "noteOff",
        "noteNumber": 32,
        "velocity": 0,
        "byte9": true
    },
    {
        "deltaTime": 0,
        "channel": 8,
        "type": "noteOff",
        "noteNumber": 32,
        "velocity": 0,
        "byte9": true
    },
    {
        "deltaTime": 0,
        "channel": 12,
        "type": "noteOff",
        "noteNumber": 58,
        "velocity": 0,
        "byte9": true
    },
    {
        "deltaTime": 4,
        "channel": 1,
        "type": "noteOn",
        "noteNumber": 33,
        "velocity": 110
    },
    {
        "deltaTime": 0,
        "channel": 8,
        "type": "noteOn",
        "noteNumber": 33,
        "velocity": 110
    },
    {
        "deltaTime": 0,
        "channel": 12,
        "type": "noteOn",
        "noteNumber": 55,
        "velocity": 119
    },
    {
        "deltaTime": 76,
        "running": true,
        "channel": 12,
        "type": "noteOff",
        "noteNumber": 55,
        "velocity": 0,
        "byte9": true
    },
    {
        "deltaTime": 4,
        "running": true,
        "channel": 12,
        "type": "noteOn",
        "noteNumber": 57,
        "velocity": 119
    },
    {
        "deltaTime": 76,
        "channel": 1,
        "type": "noteOff",
        "noteNumber": 33,
        "velocity": 0,
        "byte9": true
    },
    {
        "deltaTime": 0,
        "channel": 8,
        "type": "noteOff",
        "noteNumber": 33,
        "velocity": 0,
        "byte9": true
    },
    {
        "deltaTime": 0,
        "channel": 12,
        "type": "noteOff",
        "noteNumber": 57,
        "velocity": 0,
        "byte9": true
    },
    {
        "deltaTime": 4,
        "channel": 1,
        "type": "noteOn",
        "noteNumber": 34,
        "velocity": 110
    },
    {
        "deltaTime": 0,
        "channel": 5,
        "type": "noteOn",
        "noteNumber": 74,
        "velocity": 101
    },
    {
        "deltaTime": 0,
        "running": true,
        "channel": 5,
        "type": "noteOn",
        "noteNumber": 77,
        "velocity": 97
    },
    {
        "deltaTime": 0,
        "running": true,
        "channel": 5,
        "type": "noteOn",
        "noteNumber": 82,
        "velocity": 105
    },
    {
        "deltaTime": 0,
        "channel": 7,
        "type": "noteOn",
        "noteNumber": 82,
        "velocity": 104
    },
    {
        "deltaTime": 0,
        "channel": 8,
        "type": "noteOn",
        "noteNumber": 34,
        "velocity": 110
    },
    {
        "deltaTime": 0,
        "channel": 9,
        "type": "noteOn",
        "noteNumber": 35,
        "velocity": 114
    },
    {
        "deltaTime": 0,
        "channel": 10,
        "type": "noteOn",
        "noteNumber": 70,
        "velocity": 104
    },
    {
        "deltaTime": 0,
        "channel": 11,
        "type": "noteOn",
        "noteNumber": 41,
        "velocity": 114
    },
    {
        "deltaTime": 0,
        "channel": 12,
        "type": "noteOn",
        "noteNumber": 58,
        "velocity": 127
    },
    {
        "deltaTime": 12,
        "channel": 9,
        "type": "noteOff",
        "noteNumber": 35,
        "velocity": 0,
        "byte9": true
    },
    {
        "deltaTime": 3,
        "channel": 10,
        "type": "noteOff",
        "noteNumber": 58,
        "velocity": 0,
        "byte9": true
    },
    {
        "deltaTime": 4,
        "channel": 14,
        "type": "noteOn",
        "noteNumber": 62,
        "velocity": 101
    },
    {
        "deltaTime": 0,
        "running": true,
        "channel": 14,
        "type": "noteOn",
        "noteNumber": 65,
        "velocity": 97
    },
    {
        "deltaTime": 0,
        "running": true,
        "channel": 14,
        "type": "noteOn",
        "noteNumber": 70,
        "velocity": 105
    },
    {
        "deltaTime": 54,
        "channel": 5,
        "type": "noteOff",
        "noteNumber": 82,
        "velocity": 0,
        "byte9": true
    },
    {
        "deltaTime": 20,
        "channel": 14,
        "type": "noteOff",
        "noteNumber": 70,
        "velocity": 0,
        "byte9": true
    },
    {
        "deltaTime": 28,
        "channel": 5,
        "type": "noteOff",
        "noteNumber": 77,
        "velocity": 0,
        "byte9": true
    },
    {
        "deltaTime": 2,
        "running": true,
        "channel": 5,
        "type": "noteOff",
        "noteNumber": 74,
        "velocity": 0,
        "byte9": true
    },
    {
        "deltaTime": 17,
        "channel": 14,
        "type": "noteOff",
        "noteNumber": 65,
        "velocity": 0,
        "byte9": true
    },
    {
        "deltaTime": 2,
        "running": true,
        "channel": 14,
        "type": "noteOff",
        "noteNumber": 62,
        "velocity": 0,
        "byte9": true
    },
    {
        "deltaTime": 19,
        "channel": 11,
        "type": "noteOff",
        "noteNumber": 41,
        "velocity": 0,
        "byte9": true
    },
    {
        "deltaTime": 159,
        "channel": 12,
        "type": "noteOn",
        "noteNumber": 62,
        "velocity": 105
    },
    {
        "deltaTime": 160,
        "channel": 5,
        "type": "noteOn",
        "noteNumber": 74,
        "velocity": 111
    },
    {
        "deltaTime": 0,
        "running": true,
        "channel": 5,
        "type": "noteOn",
        "noteNumber": 77,
        "velocity": 107
    },
    {
        "deltaTime": 0,
        "running": true,
        "channel": 5,
        "type": "noteOn",
        "noteNumber": 82,
        "velocity": 105
    },
    {
        "deltaTime": 0,
        "channel": 9,
        "type": "noteOn",
        "noteNumber": 44,
        "velocity": 107
    },
    {
        "deltaTime": 0,
        "running": true,
        "channel": 9,
        "type": "noteOn",
        "noteNumber": 69,
        "velocity": 109
    },
    {
        "deltaTime": 0,
        "channel": 12,
        "type": "noteOn",
        "noteNumber": 65,
        "velocity": 89
    },
    {
        "deltaTime": 12,
        "channel": 9,
        "type": "noteOff",
        "noteNumber": 44,
        "velocity": 0,
        "byte9": true
    },
    {
        "deltaTime": 0,
        "running": true,
        "channel": 9,
        "type": "noteOff",
        "noteNumber": 69,
        "velocity": 0,
        "byte9": true
    },
    {
        "deltaTime": 1,
        "channel": 1,
        "type": "noteOff",
        "noteNumber": 34,
        "velocity": 0,
        "byte9": true
    },
    {
        "deltaTime": 0,
        "channel": 8,
        "type": "noteOff",
        "noteNumber": 34,
        "velocity": 0,
        "byte9": true
    },
    {
        "deltaTime": 6,
        "channel": 14,
        "type": "noteOn",
        "noteNumber": 62,
        "velocity": 111
    },
    {
        "deltaTime": 0,
        "running": true,
        "channel": 14,
        "type": "noteOn",
        "noteNumber": 65,
        "velocity": 107
    },
    {
        "deltaTime": 0,
        "running": true,
        "channel": 14,
        "type": "noteOn",
        "noteNumber": 70,
        "velocity": 105
    },
    {
        "deltaTime": 138,
        "channel": 5,
        "type": "noteOff",
        "noteNumber": 82,
        "velocity": 0,
        "byte9": true
    },
    {
        "deltaTime": 7,
        "running": true,
        "channel": 5,
        "type": "noteOff",
        "noteNumber": 77,
        "velocity": 0,
        "byte9": true
    },
    {
        "deltaTime": 4,
        "running": true,
        "channel": 5,
        "type": "noteOff",
        "noteNumber": 74,
        "velocity": 0,
        "byte9": true
    },
    {
        "deltaTime": 9,
        "channel": 14,
        "type": "noteOff",
        "noteNumber": 70,
        "velocity": 0,
        "byte9": true
    },
    {
        "deltaTime": 7,
        "running": true,
        "channel": 14,
        "type": "noteOff",
        "noteNumber": 65,
        "velocity": 0,
        "byte9": true
    },
    {
        "deltaTime": 4,
        "running": true,
        "channel": 14,
        "type": "noteOff",
        "noteNumber": 62,
        "velocity": 0,
        "byte9": true
    },
    {
        "deltaTime": 0,
        "channel": 3,
        "type": "noteOn",
        "noteNumber": 76,
        "velocity": 119
    },
    {
        "deltaTime": 45,
        "channel": 1,
        "type": "noteOn",
        "noteNumber": 34,
        "velocity": 110
    },
    {
        "deltaTime": 0,
        "channel": 8,
        "type": "noteOn",
        "noteNumber": 34,
        "velocity": 110
    },
    {
        "deltaTime": 0,
        "channel": 9,
        "type": "noteOn",
        "noteNumber": 35,
        "velocity": 107
    },
    {
        "deltaTime": 0,
        "channel": 11,
        "type": "noteOn",
        "noteNumber": 41,
        "velocity": 107
    },
    {
        "deltaTime": 0,
        "channel": 12,
        "type": "noteOn",
        "noteNumber": 70,
        "velocity": 115
    },
    {
        "deltaTime": 12,
        "channel": 9,
        "type": "noteOff",
        "noteNumber": 35,
        "velocity": 0,
        "byte9": true
    },
    {
        "deltaTime": 37,
        "channel": 1,
        "type": "noteOff",
        "noteNumber": 34,
        "velocity": 0,
        "byte9": true
    },
    {
        "deltaTime": 0,
        "channel": 8,
        "type": "noteOff",
        "noteNumber": 34,
        "velocity": 0,
        "byte9": true
    },
    {
        "deltaTime": 107,
        "channel": 10,
        "type": "noteOff",
        "noteNumber": 70,
        "velocity": 0,
        "byte9": true
    },
    {
        "deltaTime": 4,
        "channel": 1,
        "type": "noteOn",
        "noteNumber": 34,
        "velocity": 110
    },
    {
        "deltaTime": 0,
        "channel": 5,
        "type": "noteOn",
        "noteNumber": 74,
        "velocity": 105
    },
    {
        "deltaTime": 0,
        "running": true,
        "channel": 5,
        "type": "noteOn",
        "noteNumber": 77,
        "velocity": 94
    },
    {
        "deltaTime": 0,
        "running": true,
        "channel": 5,
        "type": "noteOn",
        "noteNumber": 82,
        "velocity": 94
    },
    {
        "deltaTime": 0,
        "channel": 7,
        "type": "noteOn",
        "noteNumber": 81,
        "velocity": 104
    },
    {
        "deltaTime": 0,
        "channel": 8,
        "type": "noteOn",
        "noteNumber": 34,
        "velocity": 110
    },
    {
        "deltaTime": 0,
        "channel": 9,
        "type": "noteOn",
        "noteNumber": 35,
        "velocity": 114
    },
    {
        "deltaTime": 0,
        "channel": 10,
        "type": "noteOn",
        "noteNumber": 69,
        "velocity": 104
    },
    {
        "deltaTime": 0,
        "channel": 11,
        "type": "noteOn",
        "noteNumber": 41,
        "velocity": 114
    },
    {
        "deltaTime": 0,
        "channel": 12,
        "type": "noteOn",
        "noteNumber": 69,
        "velocity": 124
    },
    {
        "deltaTime": 1,
        "channel": 11,
        "type": "noteOff",
        "noteNumber": 41,
        "velocity": 0,
        "byte9": true
    },
    {
        "deltaTime": 11,
        "channel": 9,
        "type": "noteOff",
        "noteNumber": 35,
        "velocity": 0,
        "byte9": true
    },
    {
        "deltaTime": 3,
        "channel": 7,
        "type": "noteOff",
        "noteNumber": 82,
        "velocity": 0,
        "byte9": true
    },
    {
        "deltaTime": 4,
        "channel": 14,
        "type": "noteOn",
        "noteNumber": 62,
        "velocity": 105
    },
    {
        "deltaTime": 0,
        "running": true,
        "channel": 14,
        "type": "noteOn",
        "noteNumber": 65,
        "velocity": 94
    },
    {
        "deltaTime": 0,
        "running": true,
        "channel": 14,
        "type": "noteOn",
        "noteNumber": 70,
        "velocity": 94
    },
    {
        "deltaTime": 41,
        "channel": 12,
        "type": "noteOff",
        "noteNumber": 70,
        "velocity": 0,
        "byte9": true
    },
    {
        "deltaTime": 95,
        "channel": 5,
        "type": "noteOff",
        "noteNumber": 82,
        "velocity": 0,
        "byte9": true
    },
    {
        "deltaTime": 6,
        "channel": 11,
        "type": "noteOff",
        "noteNumber": 41,
        "velocity": 0,
        "byte9": true
    },
    {
        "deltaTime": 2,
        "channel": 5,
        "type": "noteOff",
        "noteNumber": 74,
        "velocity": 0,
        "byte9": true
    },
    {
        "deltaTime": 4,
        "running": true,
        "channel": 5,
        "type": "noteOff",
        "noteNumber": 77,
        "velocity": 0,
        "byte9": true
    },
    {
        "deltaTime": 8,
        "channel": 14,
        "type": "noteOff",
        "noteNumber": 70,
        "velocity": 0,
        "byte9": true
    },
    {
        "deltaTime": 8,
        "running": true,
        "channel": 14,
        "type": "noteOff",
        "noteNumber": 62,
        "velocity": 0,
        "byte9": true
    },
    {
        "deltaTime": 4,
        "running": true,
        "channel": 14,
        "type": "noteOff",
        "noteNumber": 65,
        "velocity": 0,
        "byte9": true
    },
    {
        "deltaTime": 133,
        "channel": 9,
        "type": "noteOn",
        "noteNumber": 70,
        "velocity": 65
    },
    {
        "deltaTime": 12,
        "running": true,
        "channel": 9,
        "type": "noteOff",
        "noteNumber": 70,
        "velocity": 0,
        "byte9": true
    },
    {
        "deltaTime": 3,
        "channel": 3,
        "type": "noteOff",
        "noteNumber": 76,
        "velocity": 0,
        "byte9": true
    },
    {
        "deltaTime": 0,
        "channel": 3,
        "type": "noteOn",
        "noteNumber": 77,
        "velocity": 114
    },
    {
        "deltaTime": 128,
        "channel": 5,
        "type": "noteOn",
        "noteNumber": 74,
        "velocity": 109
    },
    {
        "deltaTime": 0,
        "running": true,
        "channel": 5,
        "type": "noteOn",
        "noteNumber": 77,
        "velocity": 94
    },
    {
        "deltaTime": 0,
        "running": true,
        "channel": 5,
        "type": "noteOn",
        "noteNumber": 82,
        "velocity": 94
    },
    {
        "deltaTime": 0,
        "channel": 9,
        "type": "noteOn",
        "noteNumber": 44,
        "velocity": 107
    },
    {
        "deltaTime": 0,
        "running": true,
        "channel": 9,
        "type": "noteOn",
        "noteNumber": 54,
        "velocity": 109
    },
    {
        "deltaTime": 12,
        "running": true,
        "channel": 9,
        "type": "noteOff",
        "noteNumber": 44,
        "velocity": 0,
        "byte9": true
    },
    {
        "deltaTime": 0,
        "running": true,
        "channel": 9,
        "type": "noteOff",
        "noteNumber": 54,
        "velocity": 0,
        "byte9": true
    },
    {
        "deltaTime": 1,
        "channel": 1,
        "type": "noteOff",
        "noteNumber": 34,
        "velocity": 0,
        "byte9": true
    },
    {
        "deltaTime": 0,
        "channel": 8,
        "type": "noteOff",
        "noteNumber": 34,
        "velocity": 0,
        "byte9": true
    },
    {
        "deltaTime": 6,
        "channel": 14,
        "type": "noteOn",
        "noteNumber": 62,
        "velocity": 109
    },
    {
        "deltaTime": 0,
        "running": true,
        "channel": 14,
        "type": "noteOn",
        "noteNumber": 65,
        "velocity": 94
    },
    {
        "deltaTime": 0,
        "running": true,
        "channel": 14,
        "type": "noteOn",
        "noteNumber": 70,
        "velocity": 94
    },
    {
        "deltaTime": 122,
        "channel": 5,
        "type": "noteOff",
        "noteNumber": 82,
        "velocity": 0,
        "byte9": true
    },
    {
        "deltaTime": 9,
        "channel": 12,
        "type": "noteOff",
        "noteNumber": 58,
        "velocity": 0,
        "byte9": true
    },
    {
        "deltaTime": 4,
        "channel": 5,
        "type": "noteOff",
        "noteNumber": 74,
        "velocity": 0,
        "byte9": true
    },
    {
        "deltaTime": 0,
        "running": true,
        "channel": 5,
        "type": "noteOff",
        "noteNumber": 77,
        "velocity": 0,
        "byte9": true
    },
    {
        "deltaTime": 7,
        "channel": 14,
        "type": "noteOff",
        "noteNumber": 70,
        "velocity": 0,
        "byte9": true
    },
    {
        "deltaTime": 13,
        "running": true,
        "channel": 14,
        "type": "noteOff",
        "noteNumber": 62,
        "velocity": 0,
        "byte9": true
    },
    {
        "deltaTime": 0,
        "running": true,
        "channel": 14,
        "type": "noteOff",
        "noteNumber": 65,
        "velocity": 0,
        "byte9": true
    },
    {
        "deltaTime": 4,
        "channel": 12,
        "type": "noteOff",
        "noteNumber": 65,
        "velocity": 0,
        "byte9": true
    },
    {
        "deltaTime": 4,
        "running": true,
        "channel": 12,
        "type": "noteOff",
        "noteNumber": 62,
        "velocity": 0,
        "byte9": true
    },
    {
        "deltaTime": 9,
        "running": true,
        "channel": 12,
        "type": "noteOff",
        "noteNumber": 69,
        "velocity": 0,
        "byte9": true
    },
    {
        "deltaTime": 230,
        "channel": 3,
        "type": "noteOff",
        "noteNumber": 77,
        "velocity": 0,
        "byte9": true
    },
    {
        "deltaTime": 3,
        "running": true,
        "channel": 3,
        "type": "noteOn",
        "noteNumber": 76,
        "velocity": 119
    },
    {
        "deltaTime": 52,
        "channel": 10,
        "type": "noteOff",
        "noteNumber": 69,
        "velocity": 0,
        "byte9": true
    },
    {
        "deltaTime": 4,
        "channel": 1,
        "type": "noteOn",
        "noteNumber": 34,
        "velocity": 110
    },
    {
        "deltaTime": 0,
        "channel": 5,
        "type": "noteOn",
        "noteNumber": 74,
        "velocity": 109
    },
    {
        "deltaTime": 0,
        "running": true,
        "channel": 5,
        "type": "noteOn",
        "noteNumber": 77,
        "velocity": 94
    },
    {
        "deltaTime": 0,
        "running": true,
        "channel": 5,
        "type": "noteOn",
        "noteNumber": 82,
        "velocity": 101
    },
    {
        "deltaTime": 0,
        "channel": 7,
        "type": "noteOn",
        "noteNumber": 79,
        "velocity": 104
    },
    {
        "deltaTime": 0,
        "channel": 8,
        "type": "noteOn",
        "noteNumber": 34,
        "velocity": 110
    },
    {
        "deltaTime": 0,
        "channel": 9,
        "type": "noteOn",
        "noteNumber": 35,
        "velocity": 114
    },
    {
        "deltaTime": 0,
        "channel": 10,
        "type": "noteOn",
        "noteNumber": 67,
        "velocity": 104
    },
    {
        "deltaTime": 0,
        "channel": 11,
        "type": "noteOn",
        "noteNumber": 41,
        "velocity": 114
    },
    {
        "deltaTime": 12,
        "channel": 9,
        "type": "noteOff",
        "noteNumber": 35,
        "velocity": 0,
        "byte9": true
    },
    {
        "deltaTime": 3,
        "channel": 7,
        "type": "noteOff",
        "noteNumber": 81,
        "velocity": 0,
        "byte9": true
    },
    {
        "deltaTime": 3,
        "channel": 12,
        "type": "noteOn",
        "noteNumber": 58,
        "velocity": 127
    },
    {
        "deltaTime": 1,
        "channel": 14,
        "type": "noteOn",
        "noteNumber": 62,
        "velocity": 109
    },
    {
        "deltaTime": 0,
        "running": true,
        "channel": 14,
        "type": "noteOn",
        "noteNumber": 65,
        "velocity": 94
    },
    {
        "deltaTime": 0,
        "running": true,
        "channel": 14,
        "type": "noteOn",
        "noteNumber": 70,
        "velocity": 101
    },
    {
        "deltaTime": 136,
        "channel": 5,
        "type": "noteOff",
        "noteNumber": 82,
        "velocity": 0,
        "byte9": true
    },
    {
        "deltaTime": 6,
        "channel": 11,
        "type": "noteOff",
        "noteNumber": 41,
        "velocity": 0,
        "byte9": true
    },
    {
        "deltaTime": 10,
        "channel": 5,
        "type": "noteOff",
        "noteNumber": 74,
        "velocity": 0,
        "byte9": true
    },
    {
        "deltaTime": 0,
        "running": true,
        "channel": 5,
        "type": "noteOff",
        "noteNumber": 77,
        "velocity": 0,
        "byte9": true
    },
    {
        "deltaTime": 4,
        "channel": 14,
        "type": "noteOff",
        "noteNumber": 70,
        "velocity": 0,
        "byte9": true
    },
    {
        "deltaTime": 16,
        "running": true,
        "channel": 14,
        "type": "noteOff",
        "noteNumber": 62,
        "velocity": 0,
        "byte9": true
    },
    {
        "deltaTime": 0,
        "running": true,
        "channel": 14,
        "type": "noteOff",
        "noteNumber": 65,
        "velocity": 0,
        "byte9": true
    },
    {
        "deltaTime": 97,
        "channel": 12,
        "type": "noteOn",
        "noteNumber": 62,
        "velocity": 114
    },
    {
        "deltaTime": 0,
        "channel": 3,
        "type": "noteOn",
        "noteNumber": 79,
        "velocity": 119
    },
    {
        "deltaTime": 29,
        "running": true,
        "channel": 3,
        "type": "noteOff",
        "noteNumber": 76,
        "velocity": 0,
        "byte9": true
    },
    {
        "deltaTime": 27,
        "channel": 5,
        "type": "noteOn",
        "noteNumber": 74,
        "velocity": 108
    },
    {
        "deltaTime": 0,
        "running": true,
        "channel": 5,
        "type": "noteOn",
        "noteNumber": 77,
        "velocity": 97
    },
    {
        "deltaTime": 0,
        "running": true,
        "channel": 5,
        "type": "noteOn",
        "noteNumber": 82,
        "velocity": 98
    },
    {
        "deltaTime": 0,
        "channel": 9,
        "type": "noteOn",
        "noteNumber": 44,
        "velocity": 107
    },
    {
        "deltaTime": 0,
        "running": true,
        "channel": 9,
        "type": "noteOn",
        "noteNumber": 69,
        "velocity": 109
    },
    {
        "deltaTime": 12,
        "running": true,
        "channel": 9,
        "type": "noteOff",
        "noteNumber": 44,
        "velocity": 0,
        "byte9": true
    },
    {
        "deltaTime": 0,
        "running": true,
        "channel": 9,
        "type": "noteOff",
        "noteNumber": 69,
        "velocity": 0,
        "byte9": true
    },
    {
        "deltaTime": 1,
        "channel": 1,
        "type": "noteOff",
        "noteNumber": 34,
        "velocity": 0,
        "byte9": true
    },
    {
        "deltaTime": 0,
        "channel": 8,
        "type": "noteOff",
        "noteNumber": 34,
        "velocity": 0,
        "byte9": true
    },
    {
        "deltaTime": 6,
        "channel": 14,
        "type": "noteOn",
        "noteNumber": 62,
        "velocity": 108
    },
    {
        "deltaTime": 0,
        "running": true,
        "channel": 14,
        "type": "noteOn",
        "noteNumber": 65,
        "velocity": 97
    },
    {
        "deltaTime": 0,
        "running": true,
        "channel": 14,
        "type": "noteOn",
        "noteNumber": 70,
        "velocity": 98
    },
    {
        "deltaTime": 127,
        "channel": 5,
        "type": "noteOff",
        "noteNumber": 82,
        "velocity": 0,
        "byte9": true
    },
    {
        "deltaTime": 12,
        "running": true,
        "channel": 5,
        "type": "noteOff",
        "noteNumber": 74,
        "velocity": 0,
        "byte9": true
    },
    {
        "deltaTime": 5,
        "running": true,
        "channel": 5,
        "type": "noteOff",
        "noteNumber": 77,
        "velocity": 0,
        "byte9": true
    },
    {
        "deltaTime": 3,
        "channel": 14,
        "type": "noteOff",
        "noteNumber": 70,
        "velocity": 0,
        "byte9": true
    },
    {
        "deltaTime": 12,
        "running": true,
        "channel": 14,
        "type": "noteOff",
        "noteNumber": 62,
        "velocity": 0,
        "byte9": true
    },
    {
        "deltaTime": 5,
        "running": true,
        "channel": 14,
        "type": "noteOff",
        "noteNumber": 65,
        "velocity": 0,
        "byte9": true
    },
    {
        "deltaTime": 117,
        "channel": 3,
        "type": "noteOff",
        "noteNumber": 79,
        "velocity": 0,
        "byte9": true
    },
    {
        "deltaTime": 0,
        "channel": 3,
        "type": "noteOn",
        "noteNumber": 77,
        "velocity": 127
    },
    {
        "deltaTime": 16,
        "channel": 1,
        "type": "noteOn",
        "noteNumber": 34,
        "velocity": 110
    },
    {
        "deltaTime": 0,
        "channel": 8,
        "type": "noteOn",
        "noteNumber": 34,
        "velocity": 110
    },
    {
        "deltaTime": 0,
        "channel": 9,
        "type": "noteOn",
        "noteNumber": 35,
        "velocity": 114
    },
    {
        "deltaTime": 0,
        "channel": 11,
        "type": "noteOn",
        "noteNumber": 41,
        "velocity": 114
    },
    {
        "deltaTime": 0,
        "channel": 12,
        "type": "noteOn",
        "noteNumber": 67,
        "velocity": 115
    },
    {
        "deltaTime": 12,
        "channel": 9,
        "type": "noteOff",
        "noteNumber": 35,
        "velocity": 0,
        "byte9": true
    },
    {
        "deltaTime": 139,
        "channel": 12,
        "type": "noteOff",
        "noteNumber": 67,
        "velocity": 0,
        "byte9": true
    },
    {
        "deltaTime": 4,
        "running": true,
        "channel": 12,
        "type": "noteOn",
        "noteNumber": 65,
        "velocity": 105
    },
    {
        "deltaTime": 1,
        "channel": 10,
        "type": "noteOff",
        "noteNumber": 67,
        "velocity": 0,
        "byte9": true
    },
    {
        "deltaTime": 4,
        "channel": 5,
        "type": "noteOn",
        "noteNumber": 74,
        "velocity": 105
    },
    {
        "deltaTime": 0,
        "running": true,
        "channel": 5,
        "type": "noteOn",
        "noteNumber": 77,
        "velocity": 89
    },
    {
        "deltaTime": 0,
        "running": true,
        "channel": 5,
        "type": "noteOn",
        "noteNumber": 82,
        "velocity": 94
    },
    {
        "deltaTime": 0,
        "channel": 7,
        "type": "noteOn",
        "noteNumber": 77,
        "velocity": 104
    },
    {
        "deltaTime": 0,
        "channel": 10,
        "type": "noteOn",
        "noteNumber": 65,
        "velocity": 104
    },
    {
        "deltaTime": 1,
        "channel": 11,
        "type": "noteOff",
        "noteNumber": 41,
        "velocity": 0,
        "byte9": true
    },
    {
        "deltaTime": 14,
        "channel": 7,
        "type": "noteOff",
        "noteNumber": 79,
        "velocity": 0,
        "byte9": true
    },
    {
        "deltaTime": 4,
        "channel": 14,
        "type": "noteOn",
        "noteNumber": 62,
        "velocity": 105
    },
    {
        "deltaTime": 0,
        "running": true,
        "channel": 14,
        "type": "noteOn",
        "noteNumber": 65,
        "velocity": 89
    },
    {
        "deltaTime": 0,
        "running": true,
        "channel": 14,
        "type": "noteOn",
        "noteNumber": 70,
        "velocity": 94
    },
    {
        "deltaTime": 127,
        "channel": 5,
        "type": "noteOff",
        "noteNumber": 82,
        "velocity": 0,
        "byte9": true
    },
    {
        "deltaTime": 6,
        "channel": 3,
        "type": "noteOff",
        "noteNumber": 77,
        "velocity": 0,
        "byte9": true
    },
    {
        "deltaTime": 13,
        "channel": 14,
        "type": "noteOff",
        "noteNumber": 70,
        "velocity": 0,
        "byte9": true
    },
    {
        "deltaTime": 3,
        "channel": 5,
        "type": "noteOff",
        "noteNumber": 74,
        "velocity": 0,
        "byte9": true
    },
    {
        "deltaTime": 0,
        "running": true,
        "channel": 5,
        "type": "noteOff",
        "noteNumber": 77,
        "velocity": 0,
        "byte9": true
    },
    {
        "deltaTime": 20,
        "channel": 14,
        "type": "noteOff",
        "noteNumber": 62,
        "velocity": 0,
        "byte9": true
    },
    {
        "deltaTime": 0,
        "running": true,
        "channel": 14,
        "type": "noteOff",
        "noteNumber": 65,
        "velocity": 0,
        "byte9": true
    },
    {
        "deltaTime": 0,
        "channel": 3,
        "type": "noteOn",
        "noteNumber": 77,
        "velocity": 114
    },
    {
        "deltaTime": 25,
        "channel": 1,
        "type": "noteOff",
        "noteNumber": 34,
        "velocity": 0,
        "byte9": true
    },
    {
        "deltaTime": 0,
        "channel": 8,
        "type": "noteOff",
        "noteNumber": 34,
        "velocity": 0,
        "byte9": true
    },
    {
        "deltaTime": 53,
        "channel": 1,
        "type": "noteOn",
        "noteNumber": 34,
        "velocity": 110
    },
    {
        "deltaTime": 0,
        "channel": 8,
        "type": "noteOn",
        "noteNumber": 34,
        "velocity": 110
    },
    {
        "deltaTime": 0,
        "channel": 9,
        "type": "noteOn",
        "noteNumber": 35,
        "velocity": 114
    },
    {
        "deltaTime": 0,
        "running": true,
        "channel": 9,
        "type": "noteOn",
        "noteNumber": 70,
        "velocity": 65
    },
    {
        "deltaTime": 0,
        "channel": 11,
        "type": "noteOn",
        "noteNumber": 41,
        "velocity": 114
    },
    {
        "deltaTime": 12,
        "channel": 9,
        "type": "noteOff",
        "noteNumber": 35,
        "velocity": 0,
        "byte9": true
    },
    {
        "deltaTime": 0,
        "running": true,
        "channel": 9,
        "type": "noteOff",
        "noteNumber": 70,
        "velocity": 0,
        "byte9": true
    },
    {
        "deltaTime": 148,
        "channel": 5,
        "type": "noteOn",
        "noteNumber": 74,
        "velocity": 109
    },
    {
        "deltaTime": 0,
        "running": true,
        "channel": 5,
        "type": "noteOn",
        "noteNumber": 77,
        "velocity": 97
    },
    {
        "deltaTime": 0,
        "running": true,
        "channel": 5,
        "type": "noteOn",
        "noteNumber": 82,
        "velocity": 110
    },
    {
        "deltaTime": 0,
        "channel": 9,
        "type": "noteOn",
        "noteNumber": 44,
        "velocity": 107
    },
    {
        "deltaTime": 0,
        "running": true,
        "channel": 9,
        "type": "noteOn",
        "noteNumber": 54,
        "velocity": 109
    },
    {
        "deltaTime": 1,
        "channel": 11,
        "type": "noteOff",
        "noteNumber": 41,
        "velocity": 0,
        "byte9": true
    },
    {
        "deltaTime": 11,
        "channel": 9,
        "type": "noteOff",
        "noteNumber": 44,
        "velocity": 0,
        "byte9": true
    },
    {
        "deltaTime": 0,
        "running": true,
        "channel": 9,
        "type": "noteOff",
        "noteNumber": 54,
        "velocity": 0,
        "byte9": true
    },
    {
        "deltaTime": 7,
        "channel": 14,
        "type": "noteOn",
        "noteNumber": 62,
        "velocity": 109
    },
    {
        "deltaTime": 0,
        "running": true,
        "channel": 14,
        "type": "noteOn",
        "noteNumber": 65,
        "velocity": 97
    },
    {
        "deltaTime": 0,
        "running": true,
        "channel": 14,
        "type": "noteOn",
        "noteNumber": 70,
        "velocity": 110
    },
    {
        "deltaTime": 130,
        "channel": 5,
        "type": "noteOff",
        "noteNumber": 82,
        "velocity": 0,
        "byte9": true
    },
    {
        "deltaTime": 9,
        "running": true,
        "channel": 5,
        "type": "noteOff",
        "noteNumber": 74,
        "velocity": 0,
        "byte9": true
    },
    {
        "deltaTime": 3,
        "running": true,
        "channel": 5,
        "type": "noteOff",
        "noteNumber": 77,
        "velocity": 0,
        "byte9": true
    },
    {
        "deltaTime": 7,
        "channel": 14,
        "type": "noteOff",
        "noteNumber": 70,
        "velocity": 0,
        "byte9": true
    },
    {
        "deltaTime": 9,
        "running": true,
        "channel": 14,
        "type": "noteOff",
        "noteNumber": 62,
        "velocity": 0,
        "byte9": true
    },
    {
        "deltaTime": 3,
        "running": true,
        "channel": 14,
        "type": "noteOff",
        "noteNumber": 65,
        "velocity": 0,
        "byte9": true
    },
    {
        "deltaTime": 87,
        "channel": 1,
        "type": "noteOff",
        "noteNumber": 34,
        "velocity": 0,
        "byte9": true
    },
    {
        "deltaTime": 0,
        "channel": 8,
        "type": "noteOff",
        "noteNumber": 34,
        "velocity": 0,
        "byte9": true
    },
    {
        "deltaTime": 31,
        "channel": 12,
        "type": "noteOff",
        "noteNumber": 58,
        "velocity": 0,
        "byte9": true
    },
    {
        "deltaTime": 5,
        "running": true,
        "channel": 12,
        "type": "noteOff",
        "noteNumber": 65,
        "velocity": 0,
        "byte9": true
    },
    {
        "deltaTime": 8,
        "running": true,
        "channel": 12,
        "type": "noteOff",
        "noteNumber": 62,
        "velocity": 0,
        "byte9": true
    },
    {
        "deltaTime": 9,
        "channel": 1,
        "type": "noteOn",
        "noteNumber": 34,
        "velocity": 110
    },
    {
        "deltaTime": 0,
        "channel": 8,
        "type": "noteOn",
        "noteNumber": 34,
        "velocity": 110
    },
    {
        "deltaTime": 1,
        "channel": 3,
        "type": "noteOff",
        "noteNumber": 77,
        "velocity": 0,
        "byte9": true
    },
    {
        "deltaTime": 48,
        "channel": 1,
        "type": "noteOff",
        "noteNumber": 34,
        "velocity": 0,
        "byte9": true
    },
    {
        "deltaTime": 0,
        "channel": 8,
        "type": "noteOff",
        "noteNumber": 34,
        "velocity": 0,
        "byte9": true
    },
    {
        "deltaTime": 27,
        "channel": 12,
        "type": "noteOn",
        "noteNumber": 57,
        "velocity": 105
    },
    {
        "deltaTime": 61,
        "running": true,
        "channel": 12,
        "type": "noteOn",
        "noteNumber": 61,
        "velocity": 127
    },
    {
        "deltaTime": 0,
        "channel": 1,
        "type": "noteOn",
        "noteNumber": 33,
        "velocity": 110
    },
    {
        "deltaTime": 0,
        "channel": 3,
        "type": "noteOn",
        "noteNumber": 76,
        "velocity": 114
    },
    {
        "deltaTime": 0,
        "channel": 5,
        "type": "noteOn",
        "noteNumber": 73,
        "velocity": 101
    },
    {
        "deltaTime": 0,
        "running": true,
        "channel": 5,
        "type": "noteOn",
        "noteNumber": 76,
        "velocity": 97
    },
    {
        "deltaTime": 0,
        "running": true,
        "channel": 5,
        "type": "noteOn",
        "noteNumber": 81,
        "velocity": 105
    },
    {
        "deltaTime": 0,
        "channel": 8,
        "type": "noteOn",
        "noteNumber": 33,
        "velocity": 110
    },
    {
        "deltaTime": 0,
        "channel": 9,
        "type": "noteOn",
        "noteNumber": 35,
        "velocity": 114
    },
    {
        "deltaTime": 0,
        "channel": 10,
        "type": "noteOn",
        "noteNumber": 64,
        "velocity": 104
    },
    {
        "deltaTime": 0,
        "channel": 11,
        "type": "noteOn",
        "noteNumber": 41,
        "velocity": 114
    },
    {
        "deltaTime": 12,
        "channel": 9,
        "type": "noteOff",
        "noteNumber": 35,
        "velocity": 0,
        "byte9": true
    },
    {
        "deltaTime": 3,
        "channel": 7,
        "type": "noteOff",
        "noteNumber": 77,
        "velocity": 0,
        "byte9": true
    },
    {
        "deltaTime": 0,
        "channel": 10,
        "type": "noteOff",
        "noteNumber": 65,
        "velocity": 0,
        "byte9": true
    },
    {
        "deltaTime": 4,
        "channel": 14,
        "type": "noteOn",
        "noteNumber": 61,
        "velocity": 101
    },
    {
        "deltaTime": 0,
        "running": true,
        "channel": 14,
        "type": "noteOn",
        "noteNumber": 64,
        "velocity": 97
    },
    {
        "deltaTime": 0,
        "running": true,
        "channel": 14,
        "type": "noteOn",
        "noteNumber": 69,
        "velocity": 105
    },
    {
        "deltaTime": 15,
        "channel": 12,
        "type": "noteOn",
        "noteNumber": 64,
        "velocity": 119
    },
    {
        "deltaTime": 39,
        "channel": 5,
        "type": "noteOff",
        "noteNumber": 81,
        "velocity": 0,
        "byte9": true
    },
    {
        "deltaTime": 20,
        "channel": 14,
        "type": "noteOff",
        "noteNumber": 69,
        "velocity": 0,
        "byte9": true
    },
    {
        "deltaTime": 28,
        "channel": 5,
        "type": "noteOff",
        "noteNumber": 76,
        "velocity": 0,
        "byte9": true
    },
    {
        "deltaTime": 2,
        "running": true,
        "channel": 5,
        "type": "noteOff",
        "noteNumber": 73,
        "velocity": 0,
        "byte9": true
    },
    {
        "deltaTime": 17,
        "channel": 14,
        "type": "noteOff",
        "noteNumber": 64,
        "velocity": 0,
        "byte9": true
    },
    {
        "deltaTime": 2,
        "running": true,
        "channel": 14,
        "type": "noteOff",
        "noteNumber": 61,
        "velocity": 0,
        "byte9": true
    },
    {
        "deltaTime": 19,
        "channel": 11,
        "type": "noteOff",
        "noteNumber": 41,
        "velocity": 0,
        "byte9": true
    },
    {
        "deltaTime": 319,
        "channel": 5,
        "type": "noteOn",
        "noteNumber": 73,
        "velocity": 111
    },
    {
        "deltaTime": 0,
        "running": true,
        "channel": 5,
        "type": "noteOn",
        "noteNumber": 76,
        "velocity": 107
    },
    {
        "deltaTime": 0,
        "running": true,
        "channel": 5,
        "type": "noteOn",
        "noteNumber": 81,
        "velocity": 105
    },
    {
        "deltaTime": 0,
        "channel": 9,
        "type": "noteOn",
        "noteNumber": 44,
        "velocity": 107
    },
    {
        "deltaTime": 0,
        "running": true,
        "channel": 9,
        "type": "noteOn",
        "noteNumber": 69,
        "velocity": 109
    },
    {
        "deltaTime": 12,
        "running": true,
        "channel": 9,
        "type": "noteOff",
        "noteNumber": 44,
        "velocity": 0,
        "byte9": true
    },
    {
        "deltaTime": 0,
        "running": true,
        "channel": 9,
        "type": "noteOff",
        "noteNumber": 69,
        "velocity": 0,
        "byte9": true
    },
    {
        "deltaTime": 1,
        "channel": 1,
        "type": "noteOff",
        "noteNumber": 33,
        "velocity": 0,
        "byte9": true
    },
    {
        "deltaTime": 0,
        "channel": 8,
        "type": "noteOff",
        "noteNumber": 33,
        "velocity": 0,
        "byte9": true
    },
    {
        "deltaTime": 6,
        "channel": 14,
        "type": "noteOn",
        "noteNumber": 61,
        "velocity": 111
    },
    {
        "deltaTime": 0,
        "running": true,
        "channel": 14,
        "type": "noteOn",
        "noteNumber": 64,
        "velocity": 107
    },
    {
        "deltaTime": 0,
        "running": true,
        "channel": 14,
        "type": "noteOn",
        "noteNumber": 69,
        "velocity": 105
    },
    {
        "deltaTime": 138,
        "channel": 5,
        "type": "noteOff",
        "noteNumber": 81,
        "velocity": 0,
        "byte9": true
    },
    {
        "deltaTime": 7,
        "running": true,
        "channel": 5,
        "type": "noteOff",
        "noteNumber": 76,
        "velocity": 0,
        "byte9": true
    },
    {
        "deltaTime": 4,
        "running": true,
        "channel": 5,
        "type": "noteOff",
        "noteNumber": 73,
        "velocity": 0,
        "byte9": true
    },
    {
        "deltaTime": 9,
        "channel": 14,
        "type": "noteOff",
        "noteNumber": 69,
        "velocity": 0,
        "byte9": true
    },
    {
        "deltaTime": 7,
        "running": true,
        "channel": 14,
        "type": "noteOff",
        "noteNumber": 64,
        "velocity": 0,
        "byte9": true
    },
    {
        "deltaTime": 4,
        "running": true,
        "channel": 14,
        "type": "noteOff",
        "noteNumber": 61,
        "velocity": 0,
        "byte9": true
    },
    {
        "deltaTime": 81,
        "channel": 12,
        "type": "noteOff",
        "noteNumber": 61,
        "velocity": 0,
        "byte9": true
    },
    {
        "deltaTime": 51,
        "channel": 1,
        "type": "noteOn",
        "noteNumber": 33,
        "velocity": 110
    },
    {
        "deltaTime": 0,
        "channel": 8,
        "type": "noteOn",
        "noteNumber": 33,
        "velocity": 110
    },
    {
        "deltaTime": 0,
        "channel": 9,
        "type": "noteOn",
        "noteNumber": 35,
        "velocity": 107
    },
    {
        "deltaTime": 0,
        "channel": 11,
        "type": "noteOn",
        "noteNumber": 41,
        "velocity": 107
    },
    {
        "deltaTime": 12,
        "channel": 9,
        "type": "noteOff",
        "noteNumber": 35,
        "velocity": 0,
        "byte9": true
    },
    {
        "deltaTime": 11,
        "channel": 12,
        "type": "noteOff",
        "noteNumber": 64,
        "velocity": 0,
        "byte9": true
    },
    {
        "deltaTime": 20,
        "running": true,
        "channel": 12,
        "type": "noteOff",
        "noteNumber": 57,
        "velocity": 0,
        "byte9": true
    },
    {
        "deltaTime": 6,
        "channel": 1,
        "type": "noteOff",
        "noteNumber": 33,
        "velocity": 0,
        "byte9": true
    },
    {
        "deltaTime": 0,
        "channel": 8,
        "type": "noteOff",
        "noteNumber": 33,
        "velocity": 0,
        "byte9": true
    },
    {
        "deltaTime": 27,
        "channel": 12,
        "type": "noteOn",
        "noteNumber": 57,
        "velocity": 105
    },
    {
        "deltaTime": 61,
        "running": true,
        "channel": 12,
        "type": "noteOn",
        "noteNumber": 61,
        "velocity": 127
    },
    {
        "deltaTime": 19,
        "channel": 3,
        "type": "noteOff",
        "noteNumber": 76,
        "velocity": 0,
        "byte9": true
    },
    {
        "deltaTime": 0,
        "channel": 1,
        "type": "noteOn",
        "noteNumber": 33,
        "velocity": 110
    },
    {
        "deltaTime": 0,
        "channel": 3,
        "type": "noteOn",
        "noteNumber": 74,
        "velocity": 114
    },
    {
        "deltaTime": 0,
        "channel": 5,
        "type": "noteOn",
        "noteNumber": 73,
        "velocity": 105
    },
    {
        "deltaTime": 0,
        "running": true,
        "channel": 5,
        "type": "noteOn",
        "noteNumber": 76,
        "velocity": 94
    },
    {
        "deltaTime": 0,
        "running": true,
        "channel": 5,
        "type": "noteOn",
        "noteNumber": 81,
        "velocity": 94
    },
    {
        "deltaTime": 0,
        "channel": 8,
        "type": "noteOn",
        "noteNumber": 33,
        "velocity": 110
    },
    {
        "deltaTime": 0,
        "channel": 9,
        "type": "noteOn",
        "noteNumber": 35,
        "velocity": 114
    },
    {
        "deltaTime": 0,
        "channel": 11,
        "type": "noteOn",
        "noteNumber": 41,
        "velocity": 114
    },
    {
        "deltaTime": 1,
        "running": true,
        "channel": 11,
        "type": "noteOff",
        "noteNumber": 41,
        "velocity": 0,
        "byte9": true
    },
    {
        "deltaTime": 11,
        "channel": 9,
        "type": "noteOff",
        "noteNumber": 35,
        "velocity": 0,
        "byte9": true
    },
    {
        "deltaTime": 7,
        "channel": 14,
        "type": "noteOn",
        "noteNumber": 61,
        "velocity": 105
    },
    {
        "deltaTime": 0,
        "running": true,
        "channel": 14,
        "type": "noteOn",
        "noteNumber": 64,
        "velocity": 94
    },
    {
        "deltaTime": 0,
        "running": true,
        "channel": 14,
        "type": "noteOn",
        "noteNumber": 69,
        "velocity": 94
    },
    {
        "deltaTime": 15,
        "channel": 12,
        "type": "noteOn",
        "noteNumber": 64,
        "velocity": 119
    },
    {
        "deltaTime": 121,
        "channel": 5,
        "type": "noteOff",
        "noteNumber": 81,
        "velocity": 0,
        "byte9": true
    },
    {
        "deltaTime": 6,
        "channel": 11,
        "type": "noteOff",
        "noteNumber": 41,
        "velocity": 0,
        "byte9": true
    },
    {
        "deltaTime": 2,
        "channel": 5,
        "type": "noteOff",
        "noteNumber": 73,
        "velocity": 0,
        "byte9": true
    },
    {
        "deltaTime": 4,
        "running": true,
        "channel": 5,
        "type": "noteOff",
        "noteNumber": 76,
        "velocity": 0,
        "byte9": true
    },
    {
        "deltaTime": 8,
        "channel": 14,
        "type": "noteOff",
        "noteNumber": 69,
        "velocity": 0,
        "byte9": true
    },
    {
        "deltaTime": 8,
        "running": true,
        "channel": 14,
        "type": "noteOff",
        "noteNumber": 61,
        "velocity": 0,
        "byte9": true
    },
    {
        "deltaTime": 4,
        "running": true,
        "channel": 14,
        "type": "noteOff",
        "noteNumber": 64,
        "velocity": 0,
        "byte9": true
    },
    {
        "deltaTime": 133,
        "channel": 9,
        "type": "noteOn",
        "noteNumber": 70,
        "velocity": 65
    },
    {
        "deltaTime": 12,
        "running": true,
        "channel": 9,
        "type": "noteOff",
        "noteNumber": 70,
        "velocity": 0,
        "byte9": true
    },
    {
        "deltaTime": 148,
        "channel": 5,
        "type": "noteOn",
        "noteNumber": 73,
        "velocity": 109
    },
    {
        "deltaTime": 0,
        "running": true,
        "channel": 5,
        "type": "noteOn",
        "noteNumber": 76,
        "velocity": 94
    },
    {
        "deltaTime": 0,
        "running": true,
        "channel": 5,
        "type": "noteOn",
        "noteNumber": 81,
        "velocity": 94
    },
    {
        "deltaTime": 0,
        "channel": 9,
        "type": "noteOn",
        "noteNumber": 44,
        "velocity": 107
    },
    {
        "deltaTime": 0,
        "running": true,
        "channel": 9,
        "type": "noteOn",
        "noteNumber": 54,
        "velocity": 109
    },
    {
        "deltaTime": 12,
        "running": true,
        "channel": 9,
        "type": "noteOff",
        "noteNumber": 44,
        "velocity": 0,
        "byte9": true
    },
    {
        "deltaTime": 0,
        "running": true,
        "channel": 9,
        "type": "noteOff",
        "noteNumber": 54,
        "velocity": 0,
        "byte9": true
    },
    {
        "deltaTime": 1,
        "channel": 1,
        "type": "noteOff",
        "noteNumber": 33,
        "velocity": 0,
        "byte9": true
    },
    {
        "deltaTime": 0,
        "channel": 8,
        "type": "noteOff",
        "noteNumber": 33,
        "velocity": 0,
        "byte9": true
    },
    {
        "deltaTime": 6,
        "channel": 14,
        "type": "noteOn",
        "noteNumber": 61,
        "velocity": 109
    },
    {
        "deltaTime": 0,
        "running": true,
        "channel": 14,
        "type": "noteOn",
        "noteNumber": 64,
        "velocity": 94
    },
    {
        "deltaTime": 0,
        "running": true,
        "channel": 14,
        "type": "noteOn",
        "noteNumber": 69,
        "velocity": 94
    },
    {
        "deltaTime": 122,
        "channel": 5,
        "type": "noteOff",
        "noteNumber": 81,
        "velocity": 0,
        "byte9": true
    },
    {
        "deltaTime": 13,
        "running": true,
        "channel": 5,
        "type": "noteOff",
        "noteNumber": 73,
        "velocity": 0,
        "byte9": true
    },
    {
        "deltaTime": 0,
        "running": true,
        "channel": 5,
        "type": "noteOff",
        "noteNumber": 76,
        "velocity": 0,
        "byte9": true
    },
    {
        "deltaTime": 7,
        "channel": 14,
        "type": "noteOff",
        "noteNumber": 69,
        "velocity": 0,
        "byte9": true
    },
    {
        "deltaTime": 13,
        "running": true,
        "channel": 14,
        "type": "noteOff",
        "noteNumber": 61,
        "velocity": 0,
        "byte9": true
    },
    {
        "deltaTime": 0,
        "running": true,
        "channel": 14,
        "type": "noteOff",
        "noteNumber": 64,
        "velocity": 0,
        "byte9": true
    },
    {
        "deltaTime": 95,
        "channel": 12,
        "type": "noteOff",
        "noteNumber": 61,
        "velocity": 0,
        "byte9": true
    },
    {
        "deltaTime": 74,
        "running": true,
        "channel": 12,
        "type": "noteOff",
        "noteNumber": 64,
        "velocity": 0,
        "byte9": true
    },
    {
        "deltaTime": 20,
        "running": true,
        "channel": 12,
        "type": "noteOff",
        "noteNumber": 57,
        "velocity": 0,
        "byte9": true
    },
    {
        "deltaTime": 33,
        "running": true,
        "channel": 12,
        "type": "noteOn",
        "noteNumber": 57,
        "velocity": 101
    },
    {
        "deltaTime": 28,
        "running": true,
        "channel": 12,
        "type": "noteOn",
        "noteNumber": 61,
        "velocity": 127
    },
    {
        "deltaTime": 52,
        "channel": 3,
        "type": "noteOff",
        "noteNumber": 74,
        "velocity": 0,
        "byte9": true
    },
    {
        "deltaTime": 0,
        "channel": 1,
        "type": "noteOn",
        "noteNumber": 33,
        "velocity": 110
    },
    {
        "deltaTime": 0,
        "channel": 3,
        "type": "noteOn",
        "noteNumber": 73,
        "velocity": 114
    },
    {
        "deltaTime": 0,
        "channel": 5,
        "type": "noteOn",
        "noteNumber": 73,
        "velocity": 109
    },
    {
        "deltaTime": 0,
        "running": true,
        "channel": 5,
        "type": "noteOn",
        "noteNumber": 76,
        "velocity": 94
    },
    {
        "deltaTime": 0,
        "running": true,
        "channel": 5,
        "type": "noteOn",
        "noteNumber": 81,
        "velocity": 101
    },
    {
        "deltaTime": 0,
        "channel": 8,
        "type": "noteOn",
        "noteNumber": 33,
        "velocity": 110
    },
    {
        "deltaTime": 0,
        "channel": 9,
        "type": "noteOn",
        "noteNumber": 35,
        "velocity": 114
    },
    {
        "deltaTime": 0,
        "channel": 10,
        "type": "noteOn",
        "noteNumber": 65,
        "velocity": 104
    },
    {
        "deltaTime": 0,
        "channel": 11,
        "type": "noteOn",
        "noteNumber": 41,
        "velocity": 114
    },
    {
        "deltaTime": 12,
        "channel": 9,
        "type": "noteOff",
        "noteNumber": 35,
        "velocity": 0,
        "byte9": true
    },
    {
        "deltaTime": 2,
        "channel": 12,
        "type": "noteOn",
        "noteNumber": 65,
        "velocity": 114
    },
    {
        "deltaTime": 1,
        "channel": 10,
        "type": "noteOff",
        "noteNumber": 64,
        "velocity": 0,
        "byte9": true
    },
    {
        "deltaTime": 4,
        "channel": 14,
        "type": "noteOn",
        "noteNumber": 61,
        "velocity": 109
    },
    {
        "deltaTime": 0,
        "running": true,
        "channel": 14,
        "type": "noteOn",
        "noteNumber": 64,
        "velocity": 94
    },
    {
        "deltaTime": 0,
        "running": true,
        "channel": 14,
        "type": "noteOn",
        "noteNumber": 69,
        "velocity": 101
    },
    {
        "deltaTime": 136,
        "channel": 5,
        "type": "noteOff",
        "noteNumber": 81,
        "velocity": 0,
        "byte9": true
    },
    {
        "deltaTime": 6,
        "channel": 11,
        "type": "noteOff",
        "noteNumber": 41,
        "velocity": 0,
        "byte9": true
    },
    {
        "deltaTime": 10,
        "channel": 5,
        "type": "noteOff",
        "noteNumber": 73,
        "velocity": 0,
        "byte9": true
    },
    {
        "deltaTime": 0,
        "running": true,
        "channel": 5,
        "type": "noteOff",
        "noteNumber": 76,
        "velocity": 0,
        "byte9": true
    },
    {
        "deltaTime": 4,
        "channel": 14,
        "type": "noteOff",
        "noteNumber": 69,
        "velocity": 0,
        "byte9": true
    },
    {
        "deltaTime": 16,
        "running": true,
        "channel": 14,
        "type": "noteOff",
        "noteNumber": 61,
        "velocity": 0,
        "byte9": true
    },
    {
        "deltaTime": 0,
        "running": true,
        "channel": 14,
        "type": "noteOff",
        "noteNumber": 64,
        "velocity": 0,
        "byte9": true
    },
    {
        "deltaTime": 289,
        "channel": 5,
        "type": "noteOn",
        "noteNumber": 73,
        "velocity": 108
    },
    {
        "deltaTime": 0,
        "running": true,
        "channel": 5,
        "type": "noteOn",
        "noteNumber": 76,
        "velocity": 97
    },
    {
        "deltaTime": 0,
        "running": true,
        "channel": 5,
        "type": "noteOn",
        "noteNumber": 81,
        "velocity": 98
    },
    {
        "deltaTime": 0,
        "channel": 9,
        "type": "noteOn",
        "noteNumber": 44,
        "velocity": 107
    },
    {
        "deltaTime": 0,
        "running": true,
        "channel": 9,
        "type": "noteOn",
        "noteNumber": 69,
        "velocity": 109
    },
    {
        "deltaTime": 12,
        "running": true,
        "channel": 9,
        "type": "noteOff",
        "noteNumber": 44,
        "velocity": 0,
        "byte9": true
    },
    {
        "deltaTime": 0,
        "running": true,
        "channel": 9,
        "type": "noteOff",
        "noteNumber": 69,
        "velocity": 0,
        "byte9": true
    },
    {
        "deltaTime": 1,
        "channel": 1,
        "type": "noteOff",
        "noteNumber": 33,
        "velocity": 0,
        "byte9": true
    },
    {
        "deltaTime": 0,
        "channel": 8,
        "type": "noteOff",
        "noteNumber": 33,
        "velocity": 0,
        "byte9": true
    },
    {
        "deltaTime": 6,
        "channel": 14,
        "type": "noteOn",
        "noteNumber": 61,
        "velocity": 108
    },
    {
        "deltaTime": 0,
        "running": true,
        "channel": 14,
        "type": "noteOn",
        "noteNumber": 64,
        "velocity": 97
    },
    {
        "deltaTime": 0,
        "running": true,
        "channel": 14,
        "type": "noteOn",
        "noteNumber": 69,
        "velocity": 98
    },
    {
        "deltaTime": 127,
        "channel": 5,
        "type": "noteOff",
        "noteNumber": 81,
        "velocity": 0,
        "byte9": true
    },
    {
        "deltaTime": 12,
        "running": true,
        "channel": 5,
        "type": "noteOff",
        "noteNumber": 73,
        "velocity": 0,
        "byte9": true
    },
    {
        "deltaTime": 5,
        "running": true,
        "channel": 5,
        "type": "noteOff",
        "noteNumber": 76,
        "velocity": 0,
        "byte9": true
    },
    {
        "deltaTime": 3,
        "channel": 14,
        "type": "noteOff",
        "noteNumber": 69,
        "velocity": 0,
        "byte9": true
    },
    {
        "deltaTime": 12,
        "running": true,
        "channel": 14,
        "type": "noteOff",
        "noteNumber": 61,
        "velocity": 0,
        "byte9": true
    },
    {
        "deltaTime": 5,
        "running": true,
        "channel": 14,
        "type": "noteOff",
        "noteNumber": 64,
        "velocity": 0,
        "byte9": true
    },
    {
        "deltaTime": 7,
        "channel": 12,
        "type": "noteOff",
        "noteNumber": 61,
        "velocity": 0,
        "byte9": true
    },
    {
        "deltaTime": 46,
        "running": true,
        "channel": 12,
        "type": "noteOff",
        "noteNumber": 57,
        "velocity": 0,
        "byte9": true
    },
    {
        "deltaTime": 84,
        "channel": 1,
        "type": "noteOn",
        "noteNumber": 33,
        "velocity": 110
    },
    {
        "deltaTime": 0,
        "channel": 8,
        "type": "noteOn",
        "noteNumber": 33,
        "velocity": 110
    },
    {
        "deltaTime": 0,
        "channel": 9,
        "type": "noteOn",
        "noteNumber": 35,
        "velocity": 114
    },
    {
        "deltaTime": 0,
        "channel": 11,
        "type": "noteOn",
        "noteNumber": 41,
        "velocity": 114
    },
    {
        "deltaTime": 4,
        "channel": 12,
        "type": "noteOn",
        "noteNumber": 57,
        "velocity": 101
    },
    {
        "deltaTime": 8,
        "channel": 9,
        "type": "noteOff",
        "noteNumber": 35,
        "velocity": 0,
        "byte9": true
    },
    {
        "deltaTime": 1,
        "channel": 12,
        "type": "noteOff",
        "noteNumber": 65,
        "velocity": 0,
        "byte9": true
    },
    {
        "deltaTime": 44,
        "running": true,
        "channel": 12,
        "type": "noteOn",
        "noteNumber": 61,
        "velocity": 127
    },
    {
        "deltaTime": 77,
        "running": true,
        "channel": 12,
        "type": "noteOn",
        "noteNumber": 64,
        "velocity": 114
    },
    {
        "deltaTime": 22,
        "channel": 3,
        "type": "noteOff",
        "noteNumber": 73,
        "velocity": 0,
        "byte9": true
    },
    {
        "deltaTime": 0,
        "channel": 10,
        "type": "noteOff",
        "noteNumber": 65,
        "velocity": 0,
        "byte9": true
    },
    {
        "deltaTime": 0,
        "channel": 3,
        "type": "noteOn",
        "noteNumber": 69,
        "velocity": 114
    },
    {
        "deltaTime": 0,
        "channel": 5,
        "type": "noteOn",
        "noteNumber": 73,
        "velocity": 105
    },
    {
        "deltaTime": 0,
        "running": true,
        "channel": 5,
        "type": "noteOn",
        "noteNumber": 76,
        "velocity": 89
    },
    {
        "deltaTime": 0,
        "running": true,
        "channel": 5,
        "type": "noteOn",
        "noteNumber": 81,
        "velocity": 94
    },
    {
        "deltaTime": 0,
        "channel": 10,
        "type": "noteOn",
        "noteNumber": 64,
        "velocity": 104
    },
    {
        "deltaTime": 1,
        "channel": 11,
        "type": "noteOff",
        "noteNumber": 41,
        "velocity": 0,
        "byte9": true
    },
    {
        "deltaTime": 18,
        "channel": 14,
        "type": "noteOn",
        "noteNumber": 61,
        "velocity": 105
    },
    {
        "deltaTime": 0,
        "running": true,
        "channel": 14,
        "type": "noteOn",
        "noteNumber": 64,
        "velocity": 89
    },
    {
        "deltaTime": 0,
        "running": true,
        "channel": 14,
        "type": "noteOn",
        "noteNumber": 69,
        "velocity": 94
    },
    {
        "deltaTime": 127,
        "channel": 5,
        "type": "noteOff",
        "noteNumber": 81,
        "velocity": 0,
        "byte9": true
    },
    {
        "deltaTime": 19,
        "channel": 14,
        "type": "noteOff",
        "noteNumber": 69,
        "velocity": 0,
        "byte9": true
    },
    {
        "deltaTime": 3,
        "channel": 5,
        "type": "noteOff",
        "noteNumber": 73,
        "velocity": 0,
        "byte9": true
    },
    {
        "deltaTime": 0,
        "running": true,
        "channel": 5,
        "type": "noteOff",
        "noteNumber": 76,
        "velocity": 0,
        "byte9": true
    },
    {
        "deltaTime": 20,
        "channel": 14,
        "type": "noteOff",
        "noteNumber": 61,
        "velocity": 0,
        "byte9": true
    },
    {
        "deltaTime": 0,
        "running": true,
        "channel": 14,
        "type": "noteOff",
        "noteNumber": 64,
        "velocity": 0,
        "byte9": true
    },
    {
        "deltaTime": 79,
        "channel": 1,
        "type": "noteOff",
        "noteNumber": 33,
        "velocity": 0,
        "byte9": true
    },
    {
        "deltaTime": 0,
        "channel": 8,
        "type": "noteOff",
        "noteNumber": 33,
        "velocity": 0,
        "byte9": true
    },
    {
        "deltaTime": 53,
        "channel": 1,
        "type": "noteOn",
        "noteNumber": 33,
        "velocity": 110
    },
    {
        "deltaTime": 0,
        "channel": 8,
        "type": "noteOn",
        "noteNumber": 33,
        "velocity": 110
    },
    {
        "deltaTime": 0,
        "channel": 9,
        "type": "noteOn",
        "noteNumber": 35,
        "velocity": 114
    },
    {
        "deltaTime": 0,
        "running": true,
        "channel": 9,
        "type": "noteOn",
        "noteNumber": 70,
        "velocity": 65
    },
    {
        "deltaTime": 0,
        "channel": 11,
        "type": "noteOn",
        "noteNumber": 41,
        "velocity": 114
    },
    {
        "deltaTime": 12,
        "channel": 9,
        "type": "noteOff",
        "noteNumber": 35,
        "velocity": 0,
        "byte9": true
    },
    {
        "deltaTime": 0,
        "running": true,
        "channel": 9,
        "type": "noteOff",
        "noteNumber": 70,
        "velocity": 0,
        "byte9": true
    },
    {
        "deltaTime": 148,
        "channel": 5,
        "type": "noteOn",
        "noteNumber": 73,
        "velocity": 109
    },
    {
        "deltaTime": 0,
        "running": true,
        "channel": 5,
        "type": "noteOn",
        "noteNumber": 76,
        "velocity": 97
    },
    {
        "deltaTime": 0,
        "running": true,
        "channel": 5,
        "type": "noteOn",
        "noteNumber": 81,
        "velocity": 110
    },
    {
        "deltaTime": 0,
        "channel": 9,
        "type": "noteOn",
        "noteNumber": 44,
        "velocity": 107
    },
    {
        "deltaTime": 0,
        "running": true,
        "channel": 9,
        "type": "noteOn",
        "noteNumber": 54,
        "velocity": 109
    },
    {
        "deltaTime": 1,
        "channel": 11,
        "type": "noteOff",
        "noteNumber": 41,
        "velocity": 0,
        "byte9": true
    },
    {
        "deltaTime": 11,
        "channel": 9,
        "type": "noteOff",
        "noteNumber": 44,
        "velocity": 0,
        "byte9": true
    },
    {
        "deltaTime": 0,
        "running": true,
        "channel": 9,
        "type": "noteOff",
        "noteNumber": 54,
        "velocity": 0,
        "byte9": true
    },
    {
        "deltaTime": 7,
        "channel": 14,
        "type": "noteOn",
        "noteNumber": 61,
        "velocity": 109
    },
    {
        "deltaTime": 0,
        "running": true,
        "channel": 14,
        "type": "noteOn",
        "noteNumber": 64,
        "velocity": 97
    },
    {
        "deltaTime": 0,
        "running": true,
        "channel": 14,
        "type": "noteOn",
        "noteNumber": 69,
        "velocity": 110
    },
    {
        "deltaTime": 54,
        "channel": 12,
        "type": "noteOff",
        "noteNumber": 61,
        "velocity": 0,
        "byte9": true
    },
    {
        "deltaTime": 31,
        "running": true,
        "channel": 12,
        "type": "noteOff",
        "noteNumber": 64,
        "velocity": 0,
        "byte9": true
    },
    {
        "deltaTime": 8,
        "running": true,
        "channel": 12,
        "type": "noteOff",
        "noteNumber": 57,
        "velocity": 0,
        "byte9": true
    },
    {
        "deltaTime": 37,
        "channel": 5,
        "type": "noteOff",
        "noteNumber": 81,
        "velocity": 0,
        "byte9": true
    },
    {
        "deltaTime": 9,
        "running": true,
        "channel": 5,
        "type": "noteOff",
        "noteNumber": 73,
        "velocity": 0,
        "byte9": true
    },
    {
        "deltaTime": 3,
        "running": true,
        "channel": 5,
        "type": "noteOff",
        "noteNumber": 76,
        "velocity": 0,
        "byte9": true
    },
    {
        "deltaTime": 7,
        "channel": 14,
        "type": "noteOff",
        "noteNumber": 69,
        "velocity": 0,
        "byte9": true
    },
    {
        "deltaTime": 9,
        "running": true,
        "channel": 14,
        "type": "noteOff",
        "noteNumber": 61,
        "velocity": 0,
        "byte9": true
    },
    {
        "deltaTime": 3,
        "running": true,
        "channel": 14,
        "type": "noteOff",
        "noteNumber": 64,
        "velocity": 0,
        "byte9": true
    },
    {
        "deltaTime": 87,
        "channel": 1,
        "type": "noteOff",
        "noteNumber": 33,
        "velocity": 0,
        "byte9": true
    },
    {
        "deltaTime": 0,
        "channel": 8,
        "type": "noteOff",
        "noteNumber": 33,
        "velocity": 0,
        "byte9": true
    },
    {
        "deltaTime": 53,
        "channel": 1,
        "type": "noteOn",
        "noteNumber": 33,
        "velocity": 110
    },
    {
        "deltaTime": 0,
        "channel": 8,
        "type": "noteOn",
        "noteNumber": 33,
        "velocity": 110
    },
    {
        "deltaTime": 4,
        "channel": 12,
        "type": "noteOn",
        "noteNumber": 57,
        "velocity": 101
    },
    {
        "deltaTime": 45,
        "channel": 1,
        "type": "noteOff",
        "noteNumber": 33,
        "velocity": 0,
        "byte9": true
    },
    {
        "deltaTime": 0,
        "channel": 8,
        "type": "noteOff",
        "noteNumber": 33,
        "velocity": 0,
        "byte9": true
    },
    {
        "deltaTime": 8,
        "channel": 12,
        "type": "noteOn",
        "noteNumber": 61,
        "velocity": 127
    },
    {
        "deltaTime": 77,
        "running": true,
        "channel": 12,
        "type": "noteOn",
        "noteNumber": 64,
        "velocity": 114
    },
    {
        "deltaTime": 22,
        "channel": 3,
        "type": "noteOff",
        "noteNumber": 69,
        "velocity": 0,
        "byte9": true
    },
    {
        "deltaTime": 0,
        "channel": 10,
        "type": "noteOff",
        "noteNumber": 64,
        "velocity": 0,
        "byte9": true
    },
    {
        "deltaTime": 4,
        "channel": 9,
        "type": "noteOn",
        "noteNumber": 35,
        "velocity": 114
    },
    {
        "deltaTime": 0,
        "channel": 11,
        "type": "noteOn",
        "noteNumber": 41,
        "velocity": 114
    },
    {
        "deltaTime": 12,
        "channel": 9,
        "type": "noteOff",
        "noteNumber": 35,
        "velocity": 0,
        "byte9": true
    },
    {
        "deltaTime": 149,
        "channel": 11,
        "type": "noteOff",
        "noteNumber": 41,
        "velocity": 0,
        "byte9": true
    },
    {
        "deltaTime": 0,
        "channel": 3,
        "type": "noteOn",
        "noteNumber": 76,
        "velocity": 114
    },
    {
        "deltaTime": 0,
        "channel": 9,
        "type": "noteOn",
        "noteNumber": 44,
        "velocity": 107
    },
    {
        "deltaTime": 0,
        "running": true,
        "channel": 9,
        "type": "noteOn",
        "noteNumber": 69,
        "velocity": 109
    },
    {
        "deltaTime": 12,
        "running": true,
        "channel": 9,
        "type": "noteOff",
        "noteNumber": 44,
        "velocity": 0,
        "byte9": true
    },
    {
        "deltaTime": 0,
        "running": true,
        "channel": 9,
        "type": "noteOff",
        "noteNumber": 69,
        "velocity": 0,
        "byte9": true
    },
    {
        "deltaTime": 308,
        "running": true,
        "channel": 9,
        "type": "noteOn",
        "noteNumber": 35,
        "velocity": 107
    },
    {
        "deltaTime": 0,
        "channel": 11,
        "type": "noteOn",
        "noteNumber": 41,
        "velocity": 107
    },
    {
        "deltaTime": 12,
        "channel": 9,
        "type": "noteOff",
        "noteNumber": 35,
        "velocity": 0,
        "byte9": true
    },
    {
        "deltaTime": 144,
        "channel": 3,
        "type": "noteOff",
        "noteNumber": 76,
        "velocity": 0,
        "byte9": true
    },
    {
        "deltaTime": 0,
        "channel": 3,
        "type": "noteOn",
        "noteNumber": 74,
        "velocity": 114
    },
    {
        "deltaTime": 0,
        "channel": 9,
        "type": "noteOn",
        "noteNumber": 35,
        "velocity": 114
    },
    {
        "deltaTime": 0,
        "channel": 11,
        "type": "noteOn",
        "noteNumber": 41,
        "velocity": 114
    },
    {
        "deltaTime": 1,
        "running": true,
        "channel": 11,
        "type": "noteOff",
        "noteNumber": 41,
        "velocity": 0,
        "byte9": true
    },
    {
        "deltaTime": 11,
        "channel": 9,
        "type": "noteOff",
        "noteNumber": 35,
        "velocity": 0,
        "byte9": true
    },
    {
        "deltaTime": 149,
        "channel": 11,
        "type": "noteOff",
        "noteNumber": 41,
        "velocity": 0,
        "byte9": true
    },
    {
        "deltaTime": 159,
        "channel": 9,
        "type": "noteOn",
        "noteNumber": 70,
        "velocity": 65
    },
    {
        "deltaTime": 12,
        "running": true,
        "channel": 9,
        "type": "noteOff",
        "noteNumber": 70,
        "velocity": 0,
        "byte9": true
    },
    {
        "deltaTime": 148,
        "running": true,
        "channel": 9,
        "type": "noteOn",
        "noteNumber": 44,
        "velocity": 107
    },
    {
        "deltaTime": 0,
        "running": true,
        "channel": 9,
        "type": "noteOn",
        "noteNumber": 54,
        "velocity": 109
    },
    {
        "deltaTime": 12,
        "running": true,
        "channel": 9,
        "type": "noteOff",
        "noteNumber": 44,
        "velocity": 0,
        "byte9": true
    },
    {
        "deltaTime": 0,
        "running": true,
        "channel": 9,
        "type": "noteOff",
        "noteNumber": 54,
        "velocity": 0,
        "byte9": true
    },
    {
        "deltaTime": 464,
        "channel": 3,
        "type": "noteOff",
        "noteNumber": 74,
        "velocity": 0,
        "byte9": true
    },
    {
        "deltaTime": 0,
        "channel": 3,
        "type": "noteOn",
        "noteNumber": 73,
        "velocity": 114
    },
    {
        "deltaTime": 0,
        "channel": 9,
        "type": "noteOn",
        "noteNumber": 35,
        "velocity": 114
    },
    {
        "deltaTime": 0,
        "channel": 11,
        "type": "noteOn",
        "noteNumber": 41,
        "velocity": 114
    },
    {
        "deltaTime": 12,
        "channel": 9,
        "type": "noteOff",
        "noteNumber": 35,
        "velocity": 0,
        "byte9": true
    },
    {
        "deltaTime": 61,
        "channel": 12,
        "type": "noteOff",
        "noteNumber": 61,
        "velocity": 0,
        "byte9": true
    },
    {
        "deltaTime": 31,
        "running": true,
        "channel": 12,
        "type": "noteOff",
        "noteNumber": 64,
        "velocity": 0,
        "byte9": true
    },
    {
        "deltaTime": 8,
        "running": true,
        "channel": 12,
        "type": "noteOff",
        "noteNumber": 57,
        "velocity": 0,
        "byte9": true
    },
    {
        "deltaTime": 49,
        "channel": 11,
        "type": "noteOff",
        "noteNumber": 41,
        "velocity": 0,
        "byte9": true
    },
    {
        "deltaTime": 319,
        "channel": 9,
        "type": "noteOn",
        "noteNumber": 44,
        "velocity": 107
    },
    {
        "deltaTime": 0,
        "running": true,
        "channel": 9,
        "type": "noteOn",
        "noteNumber": 69,
        "velocity": 109
    },
    {
        "deltaTime": 12,
        "running": true,
        "channel": 9,
        "type": "noteOff",
        "noteNumber": 44,
        "velocity": 0,
        "byte9": true
    },
    {
        "deltaTime": 0,
        "running": true,
        "channel": 9,
        "type": "noteOff",
        "noteNumber": 69,
        "velocity": 0,
        "byte9": true
    },
    {
        "deltaTime": 308,
        "running": true,
        "channel": 9,
        "type": "noteOn",
        "noteNumber": 35,
        "velocity": 114
    },
    {
        "deltaTime": 0,
        "channel": 11,
        "type": "noteOn",
        "noteNumber": 41,
        "velocity": 114
    },
    {
        "deltaTime": 12,
        "channel": 9,
        "type": "noteOff",
        "noteNumber": 35,
        "velocity": 0,
        "byte9": true
    },
    {
        "deltaTime": 144,
        "channel": 3,
        "type": "noteOff",
        "noteNumber": 73,
        "velocity": 0,
        "byte9": true
    },
    {
        "deltaTime": 0,
        "channel": 3,
        "type": "noteOn",
        "noteNumber": 69,
        "velocity": 114
    },
    {
        "deltaTime": 1,
        "channel": 11,
        "type": "noteOff",
        "noteNumber": 41,
        "velocity": 0,
        "byte9": true
    },
    {
        "deltaTime": 319,
        "channel": 9,
        "type": "noteOn",
        "noteNumber": 35,
        "velocity": 114
    },
    {
        "deltaTime": 0,
        "running": true,
        "channel": 9,
        "type": "noteOn",
        "noteNumber": 70,
        "velocity": 65
    },
    {
        "deltaTime": 0,
        "channel": 11,
        "type": "noteOn",
        "noteNumber": 41,
        "velocity": 114
    },
    {
        "deltaTime": 12,
        "channel": 9,
        "type": "noteOff",
        "noteNumber": 35,
        "velocity": 0,
        "byte9": true
    },
    {
        "deltaTime": 0,
        "running": true,
        "channel": 9,
        "type": "noteOff",
        "noteNumber": 70,
        "velocity": 0,
        "byte9": true
    },
    {
        "deltaTime": 148,
        "running": true,
        "channel": 9,
        "type": "noteOn",
        "noteNumber": 44,
        "velocity": 107
    },
    {
        "deltaTime": 0,
        "running": true,
        "channel": 9,
        "type": "noteOn",
        "noteNumber": 54,
        "velocity": 109
    },
    {
        "deltaTime": 1,
        "channel": 11,
        "type": "noteOff",
        "noteNumber": 41,
        "velocity": 0,
        "byte9": true
    },
    {
        "deltaTime": 11,
        "channel": 9,
        "type": "noteOff",
        "noteNumber": 44,
        "velocity": 0,
        "byte9": true
    },
    {
        "deltaTime": 0,
        "running": true,
        "channel": 9,
        "type": "noteOff",
        "noteNumber": 54,
        "velocity": 0,
        "byte9": true
    },
    {
        "deltaTime": 464,
        "channel": 3,
        "type": "noteOff",
        "noteNumber": 69,
        "velocity": 0,
        "byte9": true
    },
    {
        "deltaTime": 4,
        "channel": 1,
        "type": "noteOn",
        "noteNumber": 38,
        "velocity": 99
    },
    {
        "deltaTime": 0,
        "channel": 5,
        "type": "noteOn",
        "noteNumber": 74,
        "velocity": 101
    },
    {
        "deltaTime": 0,
        "running": true,
        "channel": 5,
        "type": "noteOn",
        "noteNumber": 77,
        "velocity": 97
    },
    {
        "deltaTime": 0,
        "running": true,
        "channel": 5,
        "type": "noteOn",
        "noteNumber": 81,
        "velocity": 105
    },
    {
        "deltaTime": 0,
        "channel": 8,
        "type": "noteOn",
        "noteNumber": 38,
        "velocity": 99
    },
    {
        "deltaTime": 0,
        "channel": 9,
        "type": "noteOn",
        "noteNumber": 35,
        "velocity": 114
    },
    {
        "deltaTime": 0,
        "channel": 11,
        "type": "noteOn",
        "noteNumber": 41,
        "velocity": 114
    },
    {
        "deltaTime": 0,
        "channel": 12,
        "type": "noteOn",
        "noteNumber": 50,
        "velocity": 101
    },
    {
        "deltaTime": 12,
        "channel": 9,
        "type": "noteOff",
        "noteNumber": 35,
        "velocity": 0,
        "byte9": true
    },
    {
        "deltaTime": 0,
        "channel": 3,
        "type": "noteOn",
        "noteNumber": 74,
        "velocity": 119
    },
    {
        "deltaTime": 10,
        "channel": 14,
        "type": "noteOn",
        "noteNumber": 62,
        "velocity": 101
    },
    {
        "deltaTime": 0,
        "running": true,
        "channel": 14,
        "type": "noteOn",
        "noteNumber": 65,
        "velocity": 97
    },
    {
        "deltaTime": 0,
        "running": true,
        "channel": 14,
        "type": "noteOn",
        "noteNumber": 69,
        "velocity": 105
    },
    {
        "deltaTime": 48,
        "channel": 5,
        "type": "noteOff",
        "noteNumber": 81,
        "velocity": 0,
        "byte9": true
    },
    {
        "deltaTime": 25,
        "channel": 14,
        "type": "noteOff",
        "noteNumber": 69,
        "velocity": 0,
        "byte9": true
    },
    {
        "deltaTime": 23,
        "channel": 5,
        "type": "noteOff",
        "noteNumber": 77,
        "velocity": 0,
        "byte9": true
    },
    {
        "deltaTime": 2,
        "running": true,
        "channel": 5,
        "type": "noteOff",
        "noteNumber": 74,
        "velocity": 0,
        "byte9": true
    },
    {
        "deltaTime": 23,
        "channel": 14,
        "type": "noteOff",
        "noteNumber": 65,
        "velocity": 0,
        "byte9": true
    },
    {
        "deltaTime": 2,
        "running": true,
        "channel": 14,
        "type": "noteOff",
        "noteNumber": 62,
        "velocity": 0,
        "byte9": true
    },
    {
        "deltaTime": 13,
        "channel": 11,
        "type": "noteOff",
        "noteNumber": 41,
        "velocity": 0,
        "byte9": true
    },
    {
        "deltaTime": 319,
        "channel": 5,
        "type": "noteOn",
        "noteNumber": 74,
        "velocity": 111
    },
    {
        "deltaTime": 0,
        "running": true,
        "channel": 5,
        "type": "noteOn",
        "noteNumber": 77,
        "velocity": 107
    },
    {
        "deltaTime": 0,
        "running": true,
        "channel": 5,
        "type": "noteOn",
        "noteNumber": 81,
        "velocity": 105
    },
    {
        "deltaTime": 0,
        "channel": 9,
        "type": "noteOn",
        "noteNumber": 44,
        "velocity": 107
    },
    {
        "deltaTime": 0,
        "running": true,
        "channel": 9,
        "type": "noteOn",
        "noteNumber": 69,
        "velocity": 109
    },
    {
        "deltaTime": 12,
        "running": true,
        "channel": 9,
        "type": "noteOff",
        "noteNumber": 44,
        "velocity": 0,
        "byte9": true
    },
    {
        "deltaTime": 0,
        "running": true,
        "channel": 9,
        "type": "noteOff",
        "noteNumber": 69,
        "velocity": 0,
        "byte9": true
    },
    {
        "deltaTime": 13,
        "channel": 14,
        "type": "noteOn",
        "noteNumber": 62,
        "velocity": 111
    },
    {
        "deltaTime": 0,
        "running": true,
        "channel": 14,
        "type": "noteOn",
        "noteNumber": 65,
        "velocity": 107
    },
    {
        "deltaTime": 0,
        "running": true,
        "channel": 14,
        "type": "noteOn",
        "noteNumber": 69,
        "velocity": 105
    },
    {
        "deltaTime": 132,
        "channel": 5,
        "type": "noteOff",
        "noteNumber": 81,
        "velocity": 0,
        "byte9": true
    },
    {
        "deltaTime": 7,
        "running": true,
        "channel": 5,
        "type": "noteOff",
        "noteNumber": 77,
        "velocity": 0,
        "byte9": true
    },
    {
        "deltaTime": 4,
        "running": true,
        "channel": 5,
        "type": "noteOff",
        "noteNumber": 74,
        "velocity": 0,
        "byte9": true
    },
    {
        "deltaTime": 14,
        "channel": 14,
        "type": "noteOff",
        "noteNumber": 69,
        "velocity": 0,
        "byte9": true
    },
    {
        "deltaTime": 7,
        "running": true,
        "channel": 14,
        "type": "noteOff",
        "noteNumber": 65,
        "velocity": 0,
        "byte9": true
    },
    {
        "deltaTime": 4,
        "running": true,
        "channel": 14,
        "type": "noteOff",
        "noteNumber": 62,
        "velocity": 0,
        "byte9": true
    },
    {
        "deltaTime": 48,
        "channel": 1,
        "type": "noteOff",
        "noteNumber": 38,
        "velocity": 0,
        "byte9": true
    },
    {
        "deltaTime": 0,
        "channel": 8,
        "type": "noteOff",
        "noteNumber": 38,
        "velocity": 0,
        "byte9": true
    },
    {
        "deltaTime": 79,
        "channel": 1,
        "type": "noteOn",
        "noteNumber": 38,
        "velocity": 99
    },
    {
        "deltaTime": 0,
        "channel": 8,
        "type": "noteOn",
        "noteNumber": 38,
        "velocity": 99
    },
    {
        "deltaTime": 0,
        "channel": 9,
        "type": "noteOn",
        "noteNumber": 35,
        "velocity": 107
    },
    {
        "deltaTime": 0,
        "channel": 11,
        "type": "noteOn",
        "noteNumber": 41,
        "velocity": 107
    },
    {
        "deltaTime": 12,
        "channel": 9,
        "type": "noteOff",
        "noteNumber": 35,
        "velocity": 0,
        "byte9": true
    },
    {
        "deltaTime": 148,
        "channel": 5,
        "type": "noteOn",
        "noteNumber": 74,
        "velocity": 105
    },
    {
        "deltaTime": 0,
        "running": true,
        "channel": 5,
        "type": "noteOn",
        "noteNumber": 77,
        "velocity": 94
    },
    {
        "deltaTime": 0,
        "running": true,
        "channel": 5,
        "type": "noteOn",
        "noteNumber": 81,
        "velocity": 94
    },
    {
        "deltaTime": 0,
        "channel": 9,
        "type": "noteOn",
        "noteNumber": 35,
        "velocity": 114
    },
    {
        "deltaTime": 0,
        "channel": 11,
        "type": "noteOn",
        "noteNumber": 41,
        "velocity": 114
    },
    {
        "deltaTime": 1,
        "running": true,
        "channel": 11,
        "type": "noteOff",
        "noteNumber": 41,
        "velocity": 0,
        "byte9": true
    },
    {
        "deltaTime": 11,
        "channel": 9,
        "type": "noteOff",
        "noteNumber": 35,
        "velocity": 0,
        "byte9": true
    },
    {
        "deltaTime": 13,
        "channel": 14,
        "type": "noteOn",
        "noteNumber": 62,
        "velocity": 105
    },
    {
        "deltaTime": 0,
        "running": true,
        "channel": 14,
        "type": "noteOn",
        "noteNumber": 65,
        "velocity": 94
    },
    {
        "deltaTime": 0,
        "running": true,
        "channel": 14,
        "type": "noteOn",
        "noteNumber": 69,
        "velocity": 94
    },
    {
        "deltaTime": 130,
        "channel": 5,
        "type": "noteOff",
        "noteNumber": 81,
        "velocity": 0,
        "byte9": true
    },
    {
        "deltaTime": 6,
        "channel": 11,
        "type": "noteOff",
        "noteNumber": 41,
        "velocity": 0,
        "byte9": true
    },
    {
        "deltaTime": 2,
        "channel": 5,
        "type": "noteOff",
        "noteNumber": 74,
        "velocity": 0,
        "byte9": true
    },
    {
        "deltaTime": 4,
        "running": true,
        "channel": 5,
        "type": "noteOff",
        "noteNumber": 77,
        "velocity": 0,
        "byte9": true
    },
    {
        "deltaTime": 13,
        "channel": 14,
        "type": "noteOff",
        "noteNumber": 69,
        "velocity": 0,
        "byte9": true
    },
    {
        "deltaTime": 8,
        "running": true,
        "channel": 14,
        "type": "noteOff",
        "noteNumber": 62,
        "velocity": 0,
        "byte9": true
    },
    {
        "deltaTime": 4,
        "running": true,
        "channel": 14,
        "type": "noteOff",
        "noteNumber": 65,
        "velocity": 0,
        "byte9": true
    },
    {
        "deltaTime": 1,
        "channel": 3,
        "type": "noteOff",
        "noteNumber": 74,
        "velocity": 0,
        "byte9": true
    },
    {
        "deltaTime": 127,
        "channel": 9,
        "type": "noteOn",
        "noteNumber": 70,
        "velocity": 65
    },
    {
        "deltaTime": 12,
        "running": true,
        "channel": 9,
        "type": "noteOff",
        "noteNumber": 70,
        "velocity": 0,
        "byte9": true
    },
    {
        "deltaTime": 144,
        "channel": 12,
        "type": "noteOff",
        "noteNumber": 50,
        "velocity": 0,
        "byte9": true
    },
    {
        "deltaTime": 4,
        "channel": 5,
        "type": "noteOn",
        "noteNumber": 74,
        "velocity": 109
    },
    {
        "deltaTime": 0,
        "running": true,
        "channel": 5,
        "type": "noteOn",
        "noteNumber": 77,
        "velocity": 94
    },
    {
        "deltaTime": 0,
        "running": true,
        "channel": 5,
        "type": "noteOn",
        "noteNumber": 81,
        "velocity": 94
    },
    {
        "deltaTime": 0,
        "channel": 9,
        "type": "noteOn",
        "noteNumber": 44,
        "velocity": 107
    },
    {
        "deltaTime": 0,
        "running": true,
        "channel": 9,
        "type": "noteOn",
        "noteNumber": 54,
        "velocity": 109
    },
    {
        "deltaTime": 0,
        "channel": 12,
        "type": "noteOn",
        "noteNumber": 52,
        "velocity": 101
    },
    {
        "deltaTime": 12,
        "channel": 9,
        "type": "noteOff",
        "noteNumber": 44,
        "velocity": 0,
        "byte9": true
    },
    {
        "deltaTime": 0,
        "running": true,
        "channel": 9,
        "type": "noteOff",
        "noteNumber": 54,
        "velocity": 0,
        "byte9": true
    },
    {
        "deltaTime": 13,
        "channel": 14,
        "type": "noteOn",
        "noteNumber": 62,
        "velocity": 109
    },
    {
        "deltaTime": 0,
        "running": true,
        "channel": 14,
        "type": "noteOn",
        "noteNumber": 65,
        "velocity": 94
    },
    {
        "deltaTime": 0,
        "running": true,
        "channel": 14,
        "type": "noteOn",
        "noteNumber": 69,
        "velocity": 94
    },
    {
        "deltaTime": 116,
        "channel": 5,
        "type": "noteOff",
        "noteNumber": 81,
        "velocity": 0,
        "byte9": true
    },
    {
        "deltaTime": 13,
        "running": true,
        "channel": 5,
        "type": "noteOff",
        "noteNumber": 74,
        "velocity": 0,
        "byte9": true
    },
    {
        "deltaTime": 0,
        "running": true,
        "channel": 5,
        "type": "noteOff",
        "noteNumber": 77,
        "velocity": 0,
        "byte9": true
    },
    {
        "deltaTime": 7,
        "channel": 1,
        "type": "noteOff",
        "noteNumber": 38,
        "velocity": 0,
        "byte9": true
    },
    {
        "deltaTime": 0,
        "channel": 8,
        "type": "noteOff",
        "noteNumber": 38,
        "velocity": 0,
        "byte9": true
    },
    {
        "deltaTime": 5,
        "channel": 14,
        "type": "noteOff",
        "noteNumber": 69,
        "velocity": 0,
        "byte9": true
    },
    {
        "deltaTime": 13,
        "running": true,
        "channel": 14,
        "type": "noteOff",
        "noteNumber": 62,
        "velocity": 0,
        "byte9": true
    },
    {
        "deltaTime": 0,
        "running": true,
        "channel": 14,
        "type": "noteOff",
        "noteNumber": 65,
        "velocity": 0,
        "byte9": true
    },
    {
        "deltaTime": 141,
        "channel": 1,
        "type": "noteOn",
        "noteNumber": 38,
        "velocity": 99
    },
    {
        "deltaTime": 0,
        "channel": 8,
        "type": "noteOn",
        "noteNumber": 38,
        "velocity": 99
    },
    {
        "deltaTime": 156,
        "channel": 12,
        "type": "noteOff",
        "noteNumber": 52,
        "velocity": 0,
        "byte9": true
    },
    {
        "deltaTime": 4,
        "channel": 5,
        "type": "noteOn",
        "noteNumber": 74,
        "velocity": 109
    },
    {
        "deltaTime": 0,
        "running": true,
        "channel": 5,
        "type": "noteOn",
        "noteNumber": 77,
        "velocity": 94
    },
    {
        "deltaTime": 0,
        "running": true,
        "channel": 5,
        "type": "noteOn",
        "noteNumber": 81,
        "velocity": 101
    },
    {
        "deltaTime": 0,
        "channel": 9,
        "type": "noteOn",
        "noteNumber": 35,
        "velocity": 114
    },
    {
        "deltaTime": 0,
        "channel": 11,
        "type": "noteOn",
        "noteNumber": 41,
        "velocity": 114
    },
    {
        "deltaTime": 0,
        "channel": 12,
        "type": "noteOn",
        "noteNumber": 53,
        "velocity": 101
    },
    {
        "deltaTime": 12,
        "channel": 9,
        "type": "noteOff",
        "noteNumber": 35,
        "velocity": 0,
        "byte9": true
    },
    {
        "deltaTime": 13,
        "channel": 14,
        "type": "noteOn",
        "noteNumber": 62,
        "velocity": 109
    },
    {
        "deltaTime": 0,
        "running": true,
        "channel": 14,
        "type": "noteOn",
        "noteNumber": 65,
        "velocity": 94
    },
    {
        "deltaTime": 0,
        "running": true,
        "channel": 14,
        "type": "noteOn",
        "noteNumber": 69,
        "velocity": 101
    },
    {
        "deltaTime": 130,
        "channel": 5,
        "type": "noteOff",
        "noteNumber": 81,
        "velocity": 0,
        "byte9": true
    },
    {
        "deltaTime": 6,
        "channel": 11,
        "type": "noteOff",
        "noteNumber": 41,
        "velocity": 0,
        "byte9": true
    },
    {
        "deltaTime": 10,
        "channel": 5,
        "type": "noteOff",
        "noteNumber": 74,
        "velocity": 0,
        "byte9": true
    },
    {
        "deltaTime": 0,
        "running": true,
        "channel": 5,
        "type": "noteOff",
        "noteNumber": 77,
        "velocity": 0,
        "byte9": true
    },
    {
        "deltaTime": 9,
        "channel": 14,
        "type": "noteOff",
        "noteNumber": 69,
        "velocity": 0,
        "byte9": true
    },
    {
        "deltaTime": 16,
        "running": true,
        "channel": 14,
        "type": "noteOff",
        "noteNumber": 62,
        "velocity": 0,
        "byte9": true
    },
    {
        "deltaTime": 0,
        "running": true,
        "channel": 14,
        "type": "noteOff",
        "noteNumber": 65,
        "velocity": 0,
        "byte9": true
    },
    {
        "deltaTime": 0,
        "channel": 3,
        "type": "noteOn",
        "noteNumber": 74,
        "velocity": 119
    },
    {
        "deltaTime": 41,
        "channel": 5,
        "type": "noteOn",
        "noteNumber": 74,
        "velocity": 108
    },
    {
        "deltaTime": 0,
        "running": true,
        "channel": 5,
        "type": "noteOn",
        "noteNumber": 77,
        "velocity": 97
    },
    {
        "deltaTime": 0,
        "running": true,
        "channel": 5,
        "type": "noteOn",
        "noteNumber": 81,
        "velocity": 98
    },
    {
        "deltaTime": 0,
        "channel": 9,
        "type": "noteOn",
        "noteNumber": 44,
        "velocity": 107
    },
    {
        "deltaTime": 0,
        "running": true,
        "channel": 9,
        "type": "noteOn",
        "noteNumber": 69,
        "velocity": 109
    },
    {
        "deltaTime": 12,
        "running": true,
        "channel": 9,
        "type": "noteOff",
        "noteNumber": 44,
        "velocity": 0,
        "byte9": true
    },
    {
        "deltaTime": 0,
        "running": true,
        "channel": 9,
        "type": "noteOff",
        "noteNumber": 69,
        "velocity": 0,
        "byte9": true
    },
    {
        "deltaTime": 13,
        "channel": 14,
        "type": "noteOn",
        "noteNumber": 62,
        "velocity": 108
    },
    {
        "deltaTime": 0,
        "running": true,
        "channel": 14,
        "type": "noteOn",
        "noteNumber": 65,
        "velocity": 97
    },
    {
        "deltaTime": 0,
        "running": true,
        "channel": 14,
        "type": "noteOn",
        "noteNumber": 69,
        "velocity": 98
    },
    {
        "deltaTime": 121,
        "channel": 5,
        "type": "noteOff",
        "noteNumber": 81,
        "velocity": 0,
        "byte9": true
    },
    {
        "deltaTime": 12,
        "running": true,
        "channel": 5,
        "type": "noteOff",
        "noteNumber": 74,
        "velocity": 0,
        "byte9": true
    },
    {
        "deltaTime": 3,
        "channel": 1,
        "type": "noteOff",
        "noteNumber": 38,
        "velocity": 0,
        "byte9": true
    },
    {
        "deltaTime": 0,
        "channel": 8,
        "type": "noteOff",
        "noteNumber": 38,
        "velocity": 0,
        "byte9": true
    },
    {
        "deltaTime": 2,
        "channel": 5,
        "type": "noteOff",
        "noteNumber": 77,
        "velocity": 0,
        "byte9": true
    },
    {
        "deltaTime": 8,
        "channel": 14,
        "type": "noteOff",
        "noteNumber": 69,
        "velocity": 0,
        "byte9": true
    },
    {
        "deltaTime": 12,
        "running": true,
        "channel": 14,
        "type": "noteOff",
        "noteNumber": 62,
        "velocity": 0,
        "byte9": true
    },
    {
        "deltaTime": 5,
        "running": true,
        "channel": 14,
        "type": "noteOff",
        "noteNumber": 65,
        "velocity": 0,
        "byte9": true
    },
    {
        "deltaTime": 132,
        "channel": 1,
        "type": "noteOn",
        "noteNumber": 38,
        "velocity": 99
    },
    {
        "deltaTime": 0,
        "channel": 8,
        "type": "noteOn",
        "noteNumber": 38,
        "velocity": 99
    },
    {
        "deltaTime": 0,
        "channel": 9,
        "type": "noteOn",
        "noteNumber": 35,
        "velocity": 114
    },
    {
        "deltaTime": 0,
        "channel": 11,
        "type": "noteOn",
        "noteNumber": 41,
        "velocity": 114
    },
    {
        "deltaTime": 12,
        "channel": 9,
        "type": "noteOff",
        "noteNumber": 35,
        "velocity": 0,
        "byte9": true
    },
    {
        "deltaTime": 5,
        "channel": 3,
        "type": "noteOff",
        "noteNumber": 74,
        "velocity": 0,
        "byte9": true
    },
    {
        "deltaTime": 139,
        "channel": 12,
        "type": "noteOff",
        "noteNumber": 53,
        "velocity": 0,
        "byte9": true
    },
    {
        "deltaTime": 4,
        "channel": 5,
        "type": "noteOn",
        "noteNumber": 74,
        "velocity": 105
    },
    {
        "deltaTime": 0,
        "running": true,
        "channel": 5,
        "type": "noteOn",
        "noteNumber": 77,
        "velocity": 89
    },
    {
        "deltaTime": 0,
        "running": true,
        "channel": 5,
        "type": "noteOn",
        "noteNumber": 81,
        "velocity": 94
    },
    {
        "deltaTime": 0,
        "channel": 12,
        "type": "noteOn",
        "noteNumber": 55,
        "velocity": 101
    },
    {
        "deltaTime": 1,
        "channel": 11,
        "type": "noteOff",
        "noteNumber": 41,
        "velocity": 0,
        "byte9": true
    },
    {
        "deltaTime": 0,
        "channel": 3,
        "type": "noteOn",
        "noteNumber": 74,
        "velocity": 124
    },
    {
        "deltaTime": 3,
        "channel": 14,
        "type": "noteOn",
        "noteNumber": 62,
        "velocity": 105
    },
    {
        "deltaTime": 0,
        "running": true,
        "channel": 14,
        "type": "noteOn",
        "noteNumber": 65,
        "velocity": 89
    },
    {
        "deltaTime": 0,
        "running": true,
        "channel": 14,
        "type": "noteOn",
        "noteNumber": 69,
        "velocity": 94
    },
    {
        "deltaTime": 121,
        "channel": 5,
        "type": "noteOff",
        "noteNumber": 81,
        "velocity": 0,
        "byte9": true
    },
    {
        "deltaTime": 22,
        "running": true,
        "channel": 5,
        "type": "noteOff",
        "noteNumber": 74,
        "velocity": 0,
        "byte9": true
    },
    {
        "deltaTime": 0,
        "running": true,
        "channel": 5,
        "type": "noteOff",
        "noteNumber": 77,
        "velocity": 0,
        "byte9": true
    },
    {
        "deltaTime": 3,
        "channel": 14,
        "type": "noteOff",
        "noteNumber": 69,
        "velocity": 0,
        "byte9": true
    },
    {
        "deltaTime": 22,
        "running": true,
        "channel": 14,
        "type": "noteOff",
        "noteNumber": 62,
        "velocity": 0,
        "byte9": true
    },
    {
        "deltaTime": 0,
        "running": true,
        "channel": 14,
        "type": "noteOff",
        "noteNumber": 65,
        "velocity": 0,
        "byte9": true
    },
    {
        "deltaTime": 123,
        "channel": 1,
        "type": "noteOff",
        "noteNumber": 38,
        "velocity": 0,
        "byte9": true
    },
    {
        "deltaTime": 0,
        "channel": 8,
        "type": "noteOff",
        "noteNumber": 38,
        "velocity": 0,
        "byte9": true
    },
    {
        "deltaTime": 0,
        "channel": 12,
        "type": "noteOff",
        "noteNumber": 55,
        "velocity": 0,
        "byte9": true
    },
    {
        "deltaTime": 4,
        "channel": 1,
        "type": "noteOn",
        "noteNumber": 36,
        "velocity": 99
    },
    {
        "deltaTime": 0,
        "channel": 8,
        "type": "noteOn",
        "noteNumber": 36,
        "velocity": 99
    },
    {
        "deltaTime": 0,
        "channel": 9,
        "type": "noteOn",
        "noteNumber": 35,
        "velocity": 114
    },
    {
        "deltaTime": 0,
        "running": true,
        "channel": 9,
        "type": "noteOn",
        "noteNumber": 70,
        "velocity": 65
    },
    {
        "deltaTime": 0,
        "channel": 11,
        "type": "noteOn",
        "noteNumber": 41,
        "velocity": 114
    },
    {
        "deltaTime": 0,
        "channel": 12,
        "type": "noteOn",
        "noteNumber": 57,
        "velocity": 101
    },
    {
        "deltaTime": 12,
        "channel": 3,
        "type": "noteOff",
        "noteNumber": 74,
        "velocity": 0,
        "byte9": true
    },
    {
        "deltaTime": 0,
        "channel": 9,
        "type": "noteOff",
        "noteNumber": 35,
        "velocity": 0,
        "byte9": true
    },
    {
        "deltaTime": 0,
        "running": true,
        "channel": 9,
        "type": "noteOff",
        "noteNumber": 70,
        "velocity": 0,
        "byte9": true
    },
    {
        "deltaTime": 0,
        "channel": 3,
        "type": "noteOn",
        "noteNumber": 74,
        "velocity": 124
    },
    {
        "deltaTime": 10,
        "channel": 5,
        "type": "noteOn",
        "noteNumber": 74,
        "velocity": 109
    },
    {
        "deltaTime": 0,
        "running": true,
        "channel": 5,
        "type": "noteOn",
        "noteNumber": 77,
        "velocity": 97
    },
    {
        "deltaTime": 0,
        "running": true,
        "channel": 5,
        "type": "noteOn",
        "noteNumber": 81,
        "velocity": 110
    },
    {
        "deltaTime": 0,
        "channel": 9,
        "type": "noteOn",
        "noteNumber": 44,
        "velocity": 107
    },
    {
        "deltaTime": 0,
        "running": true,
        "channel": 9,
        "type": "noteOn",
        "noteNumber": 54,
        "velocity": 109
    },
    {
        "deltaTime": 1,
        "channel": 11,
        "type": "noteOff",
        "noteNumber": 41,
        "velocity": 0,
        "byte9": true
    },
    {
        "deltaTime": 11,
        "channel": 9,
        "type": "noteOff",
        "noteNumber": 44,
        "velocity": 0,
        "byte9": true
    },
    {
        "deltaTime": 0,
        "running": true,
        "channel": 9,
        "type": "noteOff",
        "noteNumber": 54,
        "velocity": 0,
        "byte9": true
    },
    {
        "deltaTime": 13,
        "channel": 14,
        "type": "noteOn",
        "noteNumber": 62,
        "velocity": 109
    },
    {
        "deltaTime": 0,
        "running": true,
        "channel": 14,
        "type": "noteOn",
        "noteNumber": 65,
        "velocity": 97
    },
    {
        "deltaTime": 0,
        "running": true,
        "channel": 14,
        "type": "noteOn",
        "noteNumber": 69,
        "velocity": 110
    },
    {
        "deltaTime": 124,
        "channel": 5,
        "type": "noteOff",
        "noteNumber": 81,
        "velocity": 0,
        "byte9": true
    },
    {
        "deltaTime": 9,
        "running": true,
        "channel": 5,
        "type": "noteOff",
        "noteNumber": 74,
        "velocity": 0,
        "byte9": true
    },
    {
        "deltaTime": 3,
        "running": true,
        "channel": 5,
        "type": "noteOff",
        "noteNumber": 77,
        "velocity": 0,
        "byte9": true
    },
    {
        "deltaTime": 13,
        "channel": 14,
        "type": "noteOff",
        "noteNumber": 69,
        "velocity": 0,
        "byte9": true
    },
    {
        "deltaTime": 9,
        "running": true,
        "channel": 14,
        "type": "noteOff",
        "noteNumber": 62,
        "velocity": 0,
        "byte9": true
    },
    {
        "deltaTime": 3,
        "running": true,
        "channel": 14,
        "type": "noteOff",
        "noteNumber": 65,
        "velocity": 0,
        "byte9": true
    },
    {
        "deltaTime": 39,
        "channel": 3,
        "type": "noteOff",
        "noteNumber": 74,
        "velocity": 0,
        "byte9": true
    },
    {
        "deltaTime": 91,
        "channel": 1,
        "type": "noteOff",
        "noteNumber": 36,
        "velocity": 0,
        "byte9": true
    },
    {
        "deltaTime": 0,
        "channel": 8,
        "type": "noteOff",
        "noteNumber": 36,
        "velocity": 0,
        "byte9": true
    },
    {
        "deltaTime": 4,
        "channel": 1,
        "type": "noteOn",
        "noteNumber": 33,
        "velocity": 99
    },
    {
        "deltaTime": 0,
        "channel": 8,
        "type": "noteOn",
        "noteNumber": 33,
        "velocity": 99
    },
    {
        "deltaTime": 0,
        "channel": 3,
        "type": "noteOn",
        "noteNumber": 69,
        "velocity": 105
    },
    {
        "deltaTime": 121,
        "running": true,
        "channel": 3,
        "type": "noteOff",
        "noteNumber": 69,
        "velocity": 0,
        "byte9": true
    },
    {
        "deltaTime": 29,
        "channel": 1,
        "type": "noteOff",
        "noteNumber": 33,
        "velocity": 0,
        "byte9": true
    },
    {
        "deltaTime": 0,
        "channel": 8,
        "type": "noteOff",
        "noteNumber": 33,
        "velocity": 0,
        "byte9": true
    },
    {
        "deltaTime": 0,
        "channel": 12,
        "type": "noteOff",
        "noteNumber": 57,
        "velocity": 0,
        "byte9": true
    },
    {
        "deltaTime": 4,
        "channel": 1,
        "type": "noteOn",
        "noteNumber": 31,
        "velocity": 99
    },
    {
        "deltaTime": 0,
        "channel": 5,
        "type": "noteOn",
        "noteNumber": 74,
        "velocity": 101
    },
    {
        "deltaTime": 0,
        "running": true,
        "channel": 5,
        "type": "noteOn",
        "noteNumber": 79,
        "velocity": 97
    },
    {
        "deltaTime": 0,
        "running": true,
        "channel": 5,
        "type": "noteOn",
        "noteNumber": 82,
        "velocity": 105
    },
    {
        "deltaTime": 0,
        "channel": 8,
        "type": "noteOn",
        "noteNumber": 31,
        "velocity": 99
    },
    {
        "deltaTime": 0,
        "channel": 9,
        "type": "noteOn",
        "noteNumber": 35,
        "velocity": 114
    },
    {
        "deltaTime": 0,
        "channel": 11,
        "type": "noteOn",
        "noteNumber": 41,
        "velocity": 114
    },
    {
        "deltaTime": 0,
        "channel": 12,
        "type": "noteOn",
        "noteNumber": 55,
        "velocity": 101
    },
    {
        "deltaTime": 12,
        "channel": 9,
        "type": "noteOff",
        "noteNumber": 35,
        "velocity": 0,
        "byte9": true
    },
    {
        "deltaTime": 0,
        "channel": 3,
        "type": "noteOn",
        "noteNumber": 74,
        "velocity": 119
    },
    {
        "deltaTime": 7,
        "channel": 14,
        "type": "noteOn",
        "noteNumber": 62,
        "velocity": 101
    },
    {
        "deltaTime": 0,
        "running": true,
        "channel": 14,
        "type": "noteOn",
        "noteNumber": 67,
        "velocity": 97
    },
    {
        "deltaTime": 0,
        "running": true,
        "channel": 14,
        "type": "noteOn",
        "noteNumber": 70,
        "velocity": 105
    },
    {
        "deltaTime": 48,
        "channel": 5,
        "type": "noteOff",
        "noteNumber": 82,
        "velocity": 0,
        "byte9": true
    },
    {
        "deltaTime": 25,
        "channel": 14,
        "type": "noteOff",
        "noteNumber": 70,
        "velocity": 0,
        "byte9": true
    },
    {
        "deltaTime": 23,
        "channel": 5,
        "type": "noteOff",
        "noteNumber": 79,
        "velocity": 0,
        "byte9": true
    },
    {
        "deltaTime": 2,
        "running": true,
        "channel": 5,
        "type": "noteOff",
        "noteNumber": 74,
        "velocity": 0,
        "byte9": true
    },
    {
        "deltaTime": 23,
        "channel": 14,
        "type": "noteOff",
        "noteNumber": 67,
        "velocity": 0,
        "byte9": true
    },
    {
        "deltaTime": 2,
        "running": true,
        "channel": 14,
        "type": "noteOff",
        "noteNumber": 62,
        "velocity": 0,
        "byte9": true
    },
    {
        "deltaTime": 13,
        "channel": 11,
        "type": "noteOff",
        "noteNumber": 41,
        "velocity": 0,
        "byte9": true
    },
    {
        "deltaTime": 319,
        "channel": 5,
        "type": "noteOn",
        "noteNumber": 74,
        "velocity": 111
    },
    {
        "deltaTime": 0,
        "running": true,
        "channel": 5,
        "type": "noteOn",
        "noteNumber": 79,
        "velocity": 107
    },
    {
        "deltaTime": 0,
        "running": true,
        "channel": 5,
        "type": "noteOn",
        "noteNumber": 82,
        "velocity": 105
    },
    {
        "deltaTime": 0,
        "channel": 9,
        "type": "noteOn",
        "noteNumber": 44,
        "velocity": 107
    },
    {
        "deltaTime": 0,
        "running": true,
        "channel": 9,
        "type": "noteOn",
        "noteNumber": 69,
        "velocity": 109
    },
    {
        "deltaTime": 12,
        "running": true,
        "channel": 9,
        "type": "noteOff",
        "noteNumber": 44,
        "velocity": 0,
        "byte9": true
    },
    {
        "deltaTime": 0,
        "running": true,
        "channel": 9,
        "type": "noteOff",
        "noteNumber": 69,
        "velocity": 0,
        "byte9": true
    },
    {
        "deltaTime": 13,
        "channel": 14,
        "type": "noteOn",
        "noteNumber": 62,
        "velocity": 111
    },
    {
        "deltaTime": 0,
        "running": true,
        "channel": 14,
        "type": "noteOn",
        "noteNumber": 67,
        "velocity": 107
    },
    {
        "deltaTime": 0,
        "running": true,
        "channel": 14,
        "type": "noteOn",
        "noteNumber": 70,
        "velocity": 105
    },
    {
        "deltaTime": 132,
        "channel": 5,
        "type": "noteOff",
        "noteNumber": 82,
        "velocity": 0,
        "byte9": true
    },
    {
        "deltaTime": 4,
        "channel": 1,
        "type": "noteOff",
        "noteNumber": 31,
        "velocity": 0,
        "byte9": true
    },
    {
        "deltaTime": 0,
        "channel": 8,
        "type": "noteOff",
        "noteNumber": 31,
        "velocity": 0,
        "byte9": true
    },
    {
        "deltaTime": 3,
        "channel": 5,
        "type": "noteOff",
        "noteNumber": 79,
        "velocity": 0,
        "byte9": true
    },
    {
        "deltaTime": 4,
        "running": true,
        "channel": 5,
        "type": "noteOff",
        "noteNumber": 74,
        "velocity": 0,
        "byte9": true
    },
    {
        "deltaTime": 14,
        "channel": 14,
        "type": "noteOff",
        "noteNumber": 70,
        "velocity": 0,
        "byte9": true
    },
    {
        "deltaTime": 7,
        "running": true,
        "channel": 14,
        "type": "noteOff",
        "noteNumber": 67,
        "velocity": 0,
        "byte9": true
    },
    {
        "deltaTime": 4,
        "running": true,
        "channel": 14,
        "type": "noteOff",
        "noteNumber": 62,
        "velocity": 0,
        "byte9": true
    },
    {
        "deltaTime": 127,
        "channel": 1,
        "type": "noteOn",
        "noteNumber": 31,
        "velocity": 99
    },
    {
        "deltaTime": 0,
        "channel": 8,
        "type": "noteOn",
        "noteNumber": 31,
        "velocity": 99
    },
    {
        "deltaTime": 0,
        "channel": 9,
        "type": "noteOn",
        "noteNumber": 35,
        "velocity": 107
    },
    {
        "deltaTime": 0,
        "channel": 11,
        "type": "noteOn",
        "noteNumber": 41,
        "velocity": 107
    },
    {
        "deltaTime": 12,
        "channel": 9,
        "type": "noteOff",
        "noteNumber": 35,
        "velocity": 0,
        "byte9": true
    },
    {
        "deltaTime": 148,
        "channel": 5,
        "type": "noteOn",
        "noteNumber": 74,
        "velocity": 105
    },
    {
        "deltaTime": 0,
        "running": true,
        "channel": 5,
        "type": "noteOn",
        "noteNumber": 79,
        "velocity": 94
    },
    {
        "deltaTime": 0,
        "running": true,
        "channel": 5,
        "type": "noteOn",
        "noteNumber": 82,
        "velocity": 94
    },
    {
        "deltaTime": 0,
        "channel": 9,
        "type": "noteOn",
        "noteNumber": 35,
        "velocity": 114
    },
    {
        "deltaTime": 0,
        "channel": 11,
        "type": "noteOn",
        "noteNumber": 41,
        "velocity": 114
    },
    {
        "deltaTime": 1,
        "running": true,
        "channel": 11,
        "type": "noteOff",
        "noteNumber": 41,
        "velocity": 0,
        "byte9": true
    },
    {
        "deltaTime": 11,
        "channel": 9,
        "type": "noteOff",
        "noteNumber": 35,
        "velocity": 0,
        "byte9": true
    },
    {
        "deltaTime": 13,
        "channel": 14,
        "type": "noteOn",
        "noteNumber": 62,
        "velocity": 105
    },
    {
        "deltaTime": 0,
        "running": true,
        "channel": 14,
        "type": "noteOn",
        "noteNumber": 67,
        "velocity": 94
    },
    {
        "deltaTime": 0,
        "running": true,
        "channel": 14,
        "type": "noteOn",
        "noteNumber": 70,
        "velocity": 94
    },
    {
        "deltaTime": 130,
        "channel": 5,
        "type": "noteOff",
        "noteNumber": 82,
        "velocity": 0,
        "byte9": true
    },
    {
        "deltaTime": 6,
        "channel": 11,
        "type": "noteOff",
        "noteNumber": 41,
        "velocity": 0,
        "byte9": true
    },
    {
        "deltaTime": 2,
        "channel": 5,
        "type": "noteOff",
        "noteNumber": 74,
        "velocity": 0,
        "byte9": true
    },
    {
        "deltaTime": 4,
        "running": true,
        "channel": 5,
        "type": "noteOff",
        "noteNumber": 79,
        "velocity": 0,
        "byte9": true
    },
    {
        "deltaTime": 13,
        "channel": 14,
        "type": "noteOff",
        "noteNumber": 70,
        "velocity": 0,
        "byte9": true
    },
    {
        "deltaTime": 8,
        "running": true,
        "channel": 14,
        "type": "noteOff",
        "noteNumber": 62,
        "velocity": 0,
        "byte9": true
    },
    {
        "deltaTime": 4,
        "running": true,
        "channel": 14,
        "type": "noteOff",
        "noteNumber": 67,
        "velocity": 0,
        "byte9": true
    },
    {
        "deltaTime": 1,
        "channel": 3,
        "type": "noteOff",
        "noteNumber": 74,
        "velocity": 0,
        "byte9": true
    },
    {
        "deltaTime": 127,
        "channel": 9,
        "type": "noteOn",
        "noteNumber": 70,
        "velocity": 65
    },
    {
        "deltaTime": 12,
        "running": true,
        "channel": 9,
        "type": "noteOff",
        "noteNumber": 70,
        "velocity": 0,
        "byte9": true
    },
    {
        "deltaTime": 144,
        "channel": 12,
        "type": "noteOff",
        "noteNumber": 55,
        "velocity": 0,
        "byte9": true
    },
    {
        "deltaTime": 4,
        "channel": 5,
        "type": "noteOn",
        "noteNumber": 74,
        "velocity": 109
    },
    {
        "deltaTime": 0,
        "running": true,
        "channel": 5,
        "type": "noteOn",
        "noteNumber": 79,
        "velocity": 94
    },
    {
        "deltaTime": 0,
        "running": true,
        "channel": 5,
        "type": "noteOn",
        "noteNumber": 82,
        "velocity": 94
    },
    {
        "deltaTime": 0,
        "channel": 9,
        "type": "noteOn",
        "noteNumber": 44,
        "velocity": 107
    },
    {
        "deltaTime": 0,
        "running": true,
        "channel": 9,
        "type": "noteOn",
        "noteNumber": 54,
        "velocity": 109
    },
    {
        "deltaTime": 0,
        "channel": 12,
        "type": "noteOn",
        "noteNumber": 58,
        "velocity": 101
    },
    {
        "deltaTime": 12,
        "channel": 9,
        "type": "noteOff",
        "noteNumber": 44,
        "velocity": 0,
        "byte9": true
    },
    {
        "deltaTime": 0,
        "running": true,
        "channel": 9,
        "type": "noteOff",
        "noteNumber": 54,
        "velocity": 0,
        "byte9": true
    },
    {
        "deltaTime": 13,
        "channel": 14,
        "type": "noteOn",
        "noteNumber": 62,
        "velocity": 109
    },
    {
        "deltaTime": 0,
        "running": true,
        "channel": 14,
        "type": "noteOn",
        "noteNumber": 67,
        "velocity": 94
    },
    {
        "deltaTime": 0,
        "running": true,
        "channel": 14,
        "type": "noteOn",
        "noteNumber": 70,
        "velocity": 94
    },
    {
        "deltaTime": 116,
        "channel": 5,
        "type": "noteOff",
        "noteNumber": 82,
        "velocity": 0,
        "byte9": true
    },
    {
        "deltaTime": 13,
        "running": true,
        "channel": 5,
        "type": "noteOff",
        "noteNumber": 74,
        "velocity": 0,
        "byte9": true
    },
    {
        "deltaTime": 0,
        "running": true,
        "channel": 5,
        "type": "noteOff",
        "noteNumber": 79,
        "velocity": 0,
        "byte9": true
    },
    {
        "deltaTime": 7,
        "channel": 1,
        "type": "noteOff",
        "noteNumber": 31,
        "velocity": 0,
        "byte9": true
    },
    {
        "deltaTime": 0,
        "channel": 8,
        "type": "noteOff",
        "noteNumber": 31,
        "velocity": 0,
        "byte9": true
    },
    {
        "deltaTime": 5,
        "channel": 14,
        "type": "noteOff",
        "noteNumber": 70,
        "velocity": 0,
        "byte9": true
    },
    {
        "deltaTime": 13,
        "running": true,
        "channel": 14,
        "type": "noteOff",
        "noteNumber": 62,
        "velocity": 0,
        "byte9": true
    },
    {
        "deltaTime": 0,
        "running": true,
        "channel": 14,
        "type": "noteOff",
        "noteNumber": 67,
        "velocity": 0,
        "byte9": true
    },
    {
        "deltaTime": 141,
        "channel": 1,
        "type": "noteOn",
        "noteNumber": 31,
        "velocity": 99
    },
    {
        "deltaTime": 0,
        "channel": 8,
        "type": "noteOn",
        "noteNumber": 31,
        "velocity": 99
    },
    {
        "deltaTime": 160,
        "channel": 5,
        "type": "noteOn",
        "noteNumber": 74,
        "velocity": 109
    },
    {
        "deltaTime": 0,
        "running": true,
        "channel": 5,
        "type": "noteOn",
        "noteNumber": 79,
        "velocity": 94
    },
    {
        "deltaTime": 0,
        "running": true,
        "channel": 5,
        "type": "noteOn",
        "noteNumber": 82,
        "velocity": 101
    },
    {
        "deltaTime": 0,
        "channel": 9,
        "type": "noteOn",
        "noteNumber": 35,
        "velocity": 114
    },
    {
        "deltaTime": 0,
        "channel": 11,
        "type": "noteOn",
        "noteNumber": 41,
        "velocity": 114
    },
    {
        "deltaTime": 12,
        "channel": 9,
        "type": "noteOff",
        "noteNumber": 35,
        "velocity": 0,
        "byte9": true
    },
    {
        "deltaTime": 13,
        "channel": 14,
        "type": "noteOn",
        "noteNumber": 62,
        "velocity": 109
    },
    {
        "deltaTime": 0,
        "running": true,
        "channel": 14,
        "type": "noteOn",
        "noteNumber": 67,
        "velocity": 94
    },
    {
        "deltaTime": 0,
        "running": true,
        "channel": 14,
        "type": "noteOn",
        "noteNumber": 70,
        "velocity": 101
    },
    {
        "deltaTime": 130,
        "channel": 5,
        "type": "noteOff",
        "noteNumber": 82,
        "velocity": 0,
        "byte9": true
    },
    {
        "deltaTime": 6,
        "channel": 11,
        "type": "noteOff",
        "noteNumber": 41,
        "velocity": 0,
        "byte9": true
    },
    {
        "deltaTime": 10,
        "channel": 5,
        "type": "noteOff",
        "noteNumber": 74,
        "velocity": 0,
        "byte9": true
    },
    {
        "deltaTime": 0,
        "running": true,
        "channel": 5,
        "type": "noteOff",
        "noteNumber": 79,
        "velocity": 0,
        "byte9": true
    },
    {
        "deltaTime": 9,
        "channel": 14,
        "type": "noteOff",
        "noteNumber": 70,
        "velocity": 0,
        "byte9": true
    },
    {
        "deltaTime": 16,
        "running": true,
        "channel": 14,
        "type": "noteOff",
        "noteNumber": 62,
        "velocity": 0,
        "byte9": true
    },
    {
        "deltaTime": 0,
        "running": true,
        "channel": 14,
        "type": "noteOff",
        "noteNumber": 67,
        "velocity": 0,
        "byte9": true
    },
    {
        "deltaTime": 0,
        "channel": 3,
        "type": "noteOn",
        "noteNumber": 74,
        "velocity": 119
    },
    {
        "deltaTime": 18,
        "channel": 12,
        "type": "noteOff",
        "noteNumber": 58,
        "velocity": 0,
        "byte9": true
    },
    {
        "deltaTime": 4,
        "channel": 4,
        "type": "noteOn",
        "noteNumber": 65,
        "velocity": 93
    },
    {
        "deltaTime": 0,
        "channel": 5,
        "type": "noteOn",
        "noteNumber": 74,
        "velocity": 108
    },
    {
        "deltaTime": 0,
        "running": true,
        "channel": 5,
        "type": "noteOn",
        "noteNumber": 79,
        "velocity": 97
    },
    {
        "deltaTime": 0,
        "running": true,
        "channel": 5,
        "type": "noteOn",
        "noteNumber": 82,
        "velocity": 98
    },
    {
        "deltaTime": 0,
        "channel": 9,
        "type": "noteOn",
        "noteNumber": 44,
        "velocity": 107
    },
    {
        "deltaTime": 0,
        "running": true,
        "channel": 9,
        "type": "noteOn",
        "noteNumber": 69,
        "velocity": 109
    },
    {
        "deltaTime": 0,
        "channel": 12,
        "type": "noteOn",
        "noteNumber": 57,
        "velocity": 101
    },
    {
        "deltaTime": 12,
        "channel": 9,
        "type": "noteOff",
        "noteNumber": 44,
        "velocity": 0,
        "byte9": true
    },
    {
        "deltaTime": 0,
        "running": true,
        "channel": 9,
        "type": "noteOff",
        "noteNumber": 69,
        "velocity": 0,
        "byte9": true
    },
    {
        "deltaTime": 13,
        "channel": 14,
        "type": "noteOn",
        "noteNumber": 62,
        "velocity": 108
    },
    {
        "deltaTime": 0,
        "running": true,
        "channel": 14,
        "type": "noteOn",
        "noteNumber": 67,
        "velocity": 97
    },
    {
        "deltaTime": 0,
        "running": true,
        "channel": 14,
        "type": "noteOn",
        "noteNumber": 70,
        "velocity": 98
    },
    {
        "deltaTime": 121,
        "channel": 5,
        "type": "noteOff",
        "noteNumber": 82,
        "velocity": 0,
        "byte9": true
    },
    {
        "deltaTime": 12,
        "running": true,
        "channel": 5,
        "type": "noteOff",
        "noteNumber": 74,
        "velocity": 0,
        "byte9": true
    },
    {
        "deltaTime": 3,
        "channel": 1,
        "type": "noteOff",
        "noteNumber": 31,
        "velocity": 0,
        "byte9": true
    },
    {
        "deltaTime": 0,
        "channel": 8,
        "type": "noteOff",
        "noteNumber": 31,
        "velocity": 0,
        "byte9": true
    },
    {
        "deltaTime": 2,
        "channel": 5,
        "type": "noteOff",
        "noteNumber": 79,
        "velocity": 0,
        "byte9": true
    },
    {
        "deltaTime": 8,
        "channel": 14,
        "type": "noteOff",
        "noteNumber": 70,
        "velocity": 0,
        "byte9": true
    },
    {
        "deltaTime": 12,
        "running": true,
        "channel": 14,
        "type": "noteOff",
        "noteNumber": 62,
        "velocity": 0,
        "byte9": true
    },
    {
        "deltaTime": 5,
        "running": true,
        "channel": 14,
        "type": "noteOff",
        "noteNumber": 67,
        "velocity": 0,
        "byte9": true
    },
    {
        "deltaTime": 60,
        "channel": 3,
        "type": "noteOff",
        "noteNumber": 74,
        "velocity": 0,
        "byte9": true
    },
    {
        "deltaTime": 72,
        "channel": 1,
        "type": "noteOn",
        "noteNumber": 31,
        "velocity": 99
    },
    {
        "deltaTime": 0,
        "channel": 8,
        "type": "noteOn",
        "noteNumber": 31,
        "velocity": 99
    },
    {
        "deltaTime": 0,
        "channel": 9,
        "type": "noteOn",
        "noteNumber": 35,
        "velocity": 114
    },
    {
        "deltaTime": 0,
        "channel": 11,
        "type": "noteOn",
        "noteNumber": 41,
        "velocity": 114
    },
    {
        "deltaTime": 12,
        "channel": 9,
        "type": "noteOff",
        "noteNumber": 35,
        "velocity": 0,
        "byte9": true
    },
    {
        "deltaTime": 79,
        "channel": 4,
        "type": "noteOff",
        "noteNumber": 65,
        "velocity": 0,
        "byte9": true
    },
    {
        "deltaTime": 0,
        "channel": 3,
        "type": "noteOn",
        "noteNumber": 74,
        "velocity": 119
    },
    {
        "deltaTime": 21,
        "channel": 12,
        "type": "noteOff",
        "noteNumber": 57,
        "velocity": 0,
        "byte9": true
    },
    {
        "deltaTime": 4,
        "channel": 4,
        "type": "noteOn",
        "noteNumber": 65,
        "velocity": 93
    },
    {
        "deltaTime": 0,
        "channel": 5,
        "type": "noteOn",
        "noteNumber": 74,
        "velocity": 105
    },
    {
        "deltaTime": 0,
        "running": true,
        "channel": 5,
        "type": "noteOn",
        "noteNumber": 79,
        "velocity": 89
    },
    {
        "deltaTime": 0,
        "running": true,
        "channel": 5,
        "type": "noteOn",
        "noteNumber": 82,
        "velocity": 94
    },
    {
        "deltaTime": 0,
        "channel": 12,
        "type": "noteOn",
        "noteNumber": 55,
        "velocity": 101
    },
    {
        "deltaTime": 1,
        "channel": 11,
        "type": "noteOff",
        "noteNumber": 41,
        "velocity": 0,
        "byte9": true
    },
    {
        "deltaTime": 24,
        "channel": 14,
        "type": "noteOn",
        "noteNumber": 62,
        "velocity": 105
    },
    {
        "deltaTime": 0,
        "running": true,
        "channel": 14,
        "type": "noteOn",
        "noteNumber": 67,
        "velocity": 89
    },
    {
        "deltaTime": 0,
        "running": true,
        "channel": 14,
        "type": "noteOn",
        "noteNumber": 70,
        "velocity": 94
    },
    {
        "deltaTime": 121,
        "channel": 5,
        "type": "noteOff",
        "noteNumber": 82,
        "velocity": 0,
        "byte9": true
    },
    {
        "deltaTime": 22,
        "running": true,
        "channel": 5,
        "type": "noteOff",
        "noteNumber": 74,
        "velocity": 0,
        "byte9": true
    },
    {
        "deltaTime": 0,
        "running": true,
        "channel": 5,
        "type": "noteOff",
        "noteNumber": 79,
        "velocity": 0,
        "byte9": true
    },
    {
        "deltaTime": 3,
        "channel": 14,
        "type": "noteOff",
        "noteNumber": 70,
        "velocity": 0,
        "byte9": true
    },
    {
        "deltaTime": 22,
        "running": true,
        "channel": 14,
        "type": "noteOff",
        "noteNumber": 62,
        "velocity": 0,
        "byte9": true
    },
    {
        "deltaTime": 0,
        "running": true,
        "channel": 14,
        "type": "noteOff",
        "noteNumber": 67,
        "velocity": 0,
        "byte9": true
    },
    {
        "deltaTime": 123,
        "channel": 1,
        "type": "noteOff",
        "noteNumber": 31,
        "velocity": 0,
        "byte9": true
    },
    {
        "deltaTime": 0,
        "channel": 8,
        "type": "noteOff",
        "noteNumber": 31,
        "velocity": 0,
        "byte9": true
    },
    {
        "deltaTime": 4,
        "channel": 1,
        "type": "noteOn",
        "noteNumber": 32,
        "velocity": 99
    },
    {
        "deltaTime": 0,
        "channel": 8,
        "type": "noteOn",
        "noteNumber": 32,
        "velocity": 99
    },
    {
        "deltaTime": 0,
        "channel": 9,
        "type": "noteOn",
        "noteNumber": 35,
        "velocity": 114
    },
    {
        "deltaTime": 0,
        "running": true,
        "channel": 9,
        "type": "noteOn",
        "noteNumber": 70,
        "velocity": 65
    },
    {
        "deltaTime": 0,
        "channel": 11,
        "type": "noteOn",
        "noteNumber": 41,
        "velocity": 114
    },
    {
        "deltaTime": 12,
        "channel": 9,
        "type": "noteOff",
        "noteNumber": 35,
        "velocity": 0,
        "byte9": true
    },
    {
        "deltaTime": 0,
        "running": true,
        "channel": 9,
        "type": "noteOff",
        "noteNumber": 70,
        "velocity": 0,
        "byte9": true
    },
    {
        "deltaTime": 19,
        "channel": 3,
        "type": "noteOff",
        "noteNumber": 74,
        "velocity": 0,
        "byte9": true
    },
    {
        "deltaTime": 60,
        "channel": 4,
        "type": "noteOff",
        "noteNumber": 65,
        "velocity": 0,
        "byte9": true
    },
    {
        "deltaTime": 0,
        "channel": 3,
        "type": "noteOn",
        "noteNumber": 74,
        "velocity": 114
    },
    {
        "deltaTime": 4,
        "channel": 12,
        "type": "noteOff",
        "noteNumber": 55,
        "velocity": 0,
        "byte9": true
    },
    {
        "deltaTime": 4,
        "channel": 4,
        "type": "noteOn",
        "noteNumber": 65,
        "velocity": 93
    },
    {
        "deltaTime": 0,
        "channel": 5,
        "type": "noteOn",
        "noteNumber": 74,
        "velocity": 109
    },
    {
        "deltaTime": 0,
        "running": true,
        "channel": 5,
        "type": "noteOn",
        "noteNumber": 79,
        "velocity": 97
    },
    {
        "deltaTime": 0,
        "running": true,
        "channel": 5,
        "type": "noteOn",
        "noteNumber": 82,
        "velocity": 110
    },
    {
        "deltaTime": 0,
        "channel": 9,
        "type": "noteOn",
        "noteNumber": 44,
        "velocity": 107
    },
    {
        "deltaTime": 0,
        "running": true,
        "channel": 9,
        "type": "noteOn",
        "noteNumber": 54,
        "velocity": 109
    },
    {
        "deltaTime": 0,
        "channel": 12,
        "type": "noteOn",
        "noteNumber": 57,
        "velocity": 101
    },
    {
        "deltaTime": 1,
        "channel": 11,
        "type": "noteOff",
        "noteNumber": 41,
        "velocity": 0,
        "byte9": true
    },
    {
        "deltaTime": 11,
        "channel": 9,
        "type": "noteOff",
        "noteNumber": 44,
        "velocity": 0,
        "byte9": true
    },
    {
        "deltaTime": 0,
        "running": true,
        "channel": 9,
        "type": "noteOff",
        "noteNumber": 54,
        "velocity": 0,
        "byte9": true
    },
    {
        "deltaTime": 13,
        "channel": 14,
        "type": "noteOn",
        "noteNumber": 62,
        "velocity": 109
    },
    {
        "deltaTime": 0,
        "running": true,
        "channel": 14,
        "type": "noteOn",
        "noteNumber": 67,
        "velocity": 97
    },
    {
        "deltaTime": 0,
        "running": true,
        "channel": 14,
        "type": "noteOn",
        "noteNumber": 70,
        "velocity": 110
    },
    {
        "deltaTime": 124,
        "channel": 5,
        "type": "noteOff",
        "noteNumber": 82,
        "velocity": 0,
        "byte9": true
    },
    {
        "deltaTime": 9,
        "running": true,
        "channel": 5,
        "type": "noteOff",
        "noteNumber": 74,
        "velocity": 0,
        "byte9": true
    },
    {
        "deltaTime": 3,
        "running": true,
        "channel": 5,
        "type": "noteOff",
        "noteNumber": 79,
        "velocity": 0,
        "byte9": true
    },
    {
        "deltaTime": 13,
        "channel": 14,
        "type": "noteOff",
        "noteNumber": 70,
        "velocity": 0,
        "byte9": true
    },
    {
        "deltaTime": 9,
        "running": true,
        "channel": 14,
        "type": "noteOff",
        "noteNumber": 62,
        "velocity": 0,
        "byte9": true
    },
    {
        "deltaTime": 3,
        "running": true,
        "channel": 14,
        "type": "noteOff",
        "noteNumber": 67,
        "velocity": 0,
        "byte9": true
    },
    {
        "deltaTime": 130,
        "channel": 1,
        "type": "noteOff",
        "noteNumber": 32,
        "velocity": 0,
        "byte9": true
    },
    {
        "deltaTime": 0,
        "channel": 8,
        "type": "noteOff",
        "noteNumber": 32,
        "velocity": 0,
        "byte9": true
    },
    {
        "deltaTime": 4,
        "channel": 1,
        "type": "noteOn",
        "noteNumber": 33,
        "velocity": 99
    },
    {
        "deltaTime": 0,
        "channel": 8,
        "type": "noteOn",
        "noteNumber": 33,
        "velocity": 99
    },
    {
        "deltaTime": 83,
        "channel": 3,
        "type": "noteOff",
        "noteNumber": 74,
        "velocity": 0,
        "byte9": true
    },
    {
        "deltaTime": 8,
        "channel": 4,
        "type": "noteOff",
        "noteNumber": 65,
        "velocity": 0,
        "byte9": true
    },
    {
        "deltaTime": 65,
        "channel": 1,
        "type": "noteOff",
        "noteNumber": 33,
        "velocity": 0,
        "byte9": true
    },
    {
        "deltaTime": 0,
        "channel": 8,
        "type": "noteOff",
        "noteNumber": 33,
        "velocity": 0,
        "byte9": true
    },
    {
        "deltaTime": 0,
        "channel": 12,
        "type": "noteOff",
        "noteNumber": 57,
        "velocity": 0,
        "byte9": true
    },
    {
        "deltaTime": 0,
        "channel": 1,
        "type": "noteOn",
        "noteNumber": 34,
        "velocity": 99
    },
    {
        "deltaTime": 0,
        "channel": 3,
        "type": "noteOn",
        "noteNumber": 74,
        "velocity": 119
    },
    {
        "deltaTime": 0,
        "channel": 4,
        "type": "noteOn",
        "noteNumber": 65,
        "velocity": 93
    },
    {
        "deltaTime": 0,
        "channel": 5,
        "type": "noteOn",
        "noteNumber": 74,
        "velocity": 101
    },
    {
        "deltaTime": 0,
        "running": true,
        "channel": 5,
        "type": "noteOn",
        "noteNumber": 77,
        "velocity": 97
    },
    {
        "deltaTime": 0,
        "running": true,
        "channel": 5,
        "type": "noteOn",
        "noteNumber": 82,
        "velocity": 105
    },
    {
        "deltaTime": 0,
        "channel": 8,
        "type": "noteOn",
        "noteNumber": 34,
        "velocity": 99
    },
    {
        "deltaTime": 0,
        "channel": 9,
        "type": "noteOn",
        "noteNumber": 35,
        "velocity": 114
    },
    {
        "deltaTime": 0,
        "channel": 11,
        "type": "noteOn",
        "noteNumber": 41,
        "velocity": 114
    },
    {
        "deltaTime": 0,
        "channel": 12,
        "type": "noteOn",
        "noteNumber": 58,
        "velocity": 101
    },
    {
        "deltaTime": 12,
        "channel": 9,
        "type": "noteOff",
        "noteNumber": 35,
        "velocity": 0,
        "byte9": true
    },
    {
        "deltaTime": 13,
        "channel": 14,
        "type": "noteOn",
        "noteNumber": 62,
        "velocity": 101
    },
    {
        "deltaTime": 0,
        "running": true,
        "channel": 14,
        "type": "noteOn",
        "noteNumber": 65,
        "velocity": 97
    },
    {
        "deltaTime": 0,
        "running": true,
        "channel": 14,
        "type": "noteOn",
        "noteNumber": 70,
        "velocity": 105
    },
    {
        "deltaTime": 48,
        "channel": 5,
        "type": "noteOff",
        "noteNumber": 82,
        "velocity": 0,
        "byte9": true
    },
    {
        "deltaTime": 25,
        "channel": 14,
        "type": "noteOff",
        "noteNumber": 70,
        "velocity": 0,
        "byte9": true
    },
    {
        "deltaTime": 23,
        "channel": 5,
        "type": "noteOff",
        "noteNumber": 77,
        "velocity": 0,
        "byte9": true
    },
    {
        "deltaTime": 2,
        "running": true,
        "channel": 5,
        "type": "noteOff",
        "noteNumber": 74,
        "velocity": 0,
        "byte9": true
    },
    {
        "deltaTime": 23,
        "channel": 14,
        "type": "noteOff",
        "noteNumber": 65,
        "velocity": 0,
        "byte9": true
    },
    {
        "deltaTime": 2,
        "running": true,
        "channel": 14,
        "type": "noteOff",
        "noteNumber": 62,
        "velocity": 0,
        "byte9": true
    },
    {
        "deltaTime": 13,
        "channel": 11,
        "type": "noteOff",
        "noteNumber": 41,
        "velocity": 0,
        "byte9": true
    },
    {
        "deltaTime": 250,
        "channel": 4,
        "type": "noteOff",
        "noteNumber": 65,
        "velocity": 0,
        "byte9": true
    },
    {
        "deltaTime": 46,
        "channel": 3,
        "type": "noteOff",
        "noteNumber": 74,
        "velocity": 0,
        "byte9": true
    },
    {
        "deltaTime": 23,
        "channel": 5,
        "type": "noteOn",
        "noteNumber": 74,
        "velocity": 111
    },
    {
        "deltaTime": 0,
        "running": true,
        "channel": 5,
        "type": "noteOn",
        "noteNumber": 77,
        "velocity": 107
    },
    {
        "deltaTime": 0,
        "running": true,
        "channel": 5,
        "type": "noteOn",
        "noteNumber": 82,
        "velocity": 105
    },
    {
        "deltaTime": 0,
        "channel": 9,
        "type": "noteOn",
        "noteNumber": 44,
        "velocity": 107
    },
    {
        "deltaTime": 0,
        "running": true,
        "channel": 9,
        "type": "noteOn",
        "noteNumber": 69,
        "velocity": 109
    },
    {
        "deltaTime": 12,
        "running": true,
        "channel": 9,
        "type": "noteOff",
        "noteNumber": 44,
        "velocity": 0,
        "byte9": true
    },
    {
        "deltaTime": 0,
        "running": true,
        "channel": 9,
        "type": "noteOff",
        "noteNumber": 69,
        "velocity": 0,
        "byte9": true
    },
    {
        "deltaTime": 13,
        "channel": 14,
        "type": "noteOn",
        "noteNumber": 62,
        "velocity": 111
    },
    {
        "deltaTime": 0,
        "running": true,
        "channel": 14,
        "type": "noteOn",
        "noteNumber": 65,
        "velocity": 107
    },
    {
        "deltaTime": 0,
        "running": true,
        "channel": 14,
        "type": "noteOn",
        "noteNumber": 70,
        "velocity": 105
    },
    {
        "deltaTime": 132,
        "channel": 5,
        "type": "noteOff",
        "noteNumber": 82,
        "velocity": 0,
        "byte9": true
    },
    {
        "deltaTime": 7,
        "running": true,
        "channel": 5,
        "type": "noteOff",
        "noteNumber": 77,
        "velocity": 0,
        "byte9": true
    },
    {
        "deltaTime": 4,
        "running": true,
        "channel": 5,
        "type": "noteOff",
        "noteNumber": 74,
        "velocity": 0,
        "byte9": true
    },
    {
        "deltaTime": 14,
        "channel": 14,
        "type": "noteOff",
        "noteNumber": 70,
        "velocity": 0,
        "byte9": true
    },
    {
        "deltaTime": 7,
        "running": true,
        "channel": 14,
        "type": "noteOff",
        "noteNumber": 65,
        "velocity": 0,
        "byte9": true
    },
    {
        "deltaTime": 4,
        "running": true,
        "channel": 14,
        "type": "noteOff",
        "noteNumber": 62,
        "velocity": 0,
        "byte9": true
    },
    {
        "deltaTime": 68,
        "channel": 1,
        "type": "noteOff",
        "noteNumber": 34,
        "velocity": 0,
        "byte9": true
    },
    {
        "deltaTime": 0,
        "channel": 8,
        "type": "noteOff",
        "noteNumber": 34,
        "velocity": 0,
        "byte9": true
    },
    {
        "deltaTime": 59,
        "channel": 1,
        "type": "noteOn",
        "noteNumber": 34,
        "velocity": 99
    },
    {
        "deltaTime": 0,
        "channel": 8,
        "type": "noteOn",
        "noteNumber": 34,
        "velocity": 99
    },
    {
        "deltaTime": 0,
        "channel": 9,
        "type": "noteOn",
        "noteNumber": 35,
        "velocity": 107
    },
    {
        "deltaTime": 0,
        "channel": 11,
        "type": "noteOn",
        "noteNumber": 41,
        "velocity": 107
    },
    {
        "deltaTime": 12,
        "channel": 9,
        "type": "noteOff",
        "noteNumber": 35,
        "velocity": 0,
        "byte9": true
    },
    {
        "deltaTime": 144,
        "channel": 12,
        "type": "noteOff",
        "noteNumber": 58,
        "velocity": 0,
        "byte9": true
    },
    {
        "deltaTime": 0,
        "channel": 3,
        "type": "noteOn",
        "noteNumber": 74,
        "velocity": 124
    },
    {
        "deltaTime": 0,
        "channel": 4,
        "type": "noteOn",
        "noteNumber": 65,
        "velocity": 93
    },
    {
        "deltaTime": 0,
        "channel": 5,
        "type": "noteOn",
        "noteNumber": 74,
        "velocity": 105
    },
    {
        "deltaTime": 0,
        "running": true,
        "channel": 5,
        "type": "noteOn",
        "noteNumber": 77,
        "velocity": 94
    },
    {
        "deltaTime": 0,
        "running": true,
        "channel": 5,
        "type": "noteOn",
        "noteNumber": 82,
        "velocity": 94
    },
    {
        "deltaTime": 0,
        "channel": 9,
        "type": "noteOn",
        "noteNumber": 35,
        "velocity": 114
    },
    {
        "deltaTime": 0,
        "channel": 11,
        "type": "noteOn",
        "noteNumber": 41,
        "velocity": 114
    },
    {
        "deltaTime": 0,
        "channel": 12,
        "type": "noteOn",
        "noteNumber": 57,
        "velocity": 101
    },
    {
        "deltaTime": 1,
        "channel": 11,
        "type": "noteOff",
        "noteNumber": 41,
        "velocity": 0,
        "byte9": true
    },
    {
        "deltaTime": 11,
        "channel": 9,
        "type": "noteOff",
        "noteNumber": 35,
        "velocity": 0,
        "byte9": true
    },
    {
        "deltaTime": 13,
        "channel": 14,
        "type": "noteOn",
        "noteNumber": 62,
        "velocity": 105
    },
    {
        "deltaTime": 0,
        "running": true,
        "channel": 14,
        "type": "noteOn",
        "noteNumber": 65,
        "velocity": 94
    },
    {
        "deltaTime": 0,
        "running": true,
        "channel": 14,
        "type": "noteOn",
        "noteNumber": 70,
        "velocity": 94
    },
    {
        "deltaTime": 130,
        "channel": 5,
        "type": "noteOff",
        "noteNumber": 82,
        "velocity": 0,
        "byte9": true
    },
    {
        "deltaTime": 6,
        "channel": 11,
        "type": "noteOff",
        "noteNumber": 41,
        "velocity": 0,
        "byte9": true
    },
    {
        "deltaTime": 2,
        "channel": 5,
        "type": "noteOff",
        "noteNumber": 74,
        "velocity": 0,
        "byte9": true
    },
    {
        "deltaTime": 4,
        "running": true,
        "channel": 5,
        "type": "noteOff",
        "noteNumber": 77,
        "velocity": 0,
        "byte9": true
    },
    {
        "deltaTime": 13,
        "channel": 14,
        "type": "noteOff",
        "noteNumber": 70,
        "velocity": 0,
        "byte9": true
    },
    {
        "deltaTime": 8,
        "running": true,
        "channel": 14,
        "type": "noteOff",
        "noteNumber": 62,
        "velocity": 0,
        "byte9": true
    },
    {
        "deltaTime": 4,
        "running": true,
        "channel": 14,
        "type": "noteOff",
        "noteNumber": 65,
        "velocity": 0,
        "byte9": true
    },
    {
        "deltaTime": 128,
        "channel": 9,
        "type": "noteOn",
        "noteNumber": 70,
        "velocity": 65
    },
    {
        "deltaTime": 12,
        "running": true,
        "channel": 9,
        "type": "noteOff",
        "noteNumber": 70,
        "velocity": 0,
        "byte9": true
    },
    {
        "deltaTime": 79,
        "channel": 4,
        "type": "noteOff",
        "noteNumber": 65,
        "velocity": 0,
        "byte9": true
    },
    {
        "deltaTime": 1,
        "channel": 3,
        "type": "noteOff",
        "noteNumber": 74,
        "velocity": 0,
        "byte9": true
    },
    {
        "deltaTime": 0,
        "channel": 3,
        "type": "noteOn",
        "noteNumber": 69,
        "velocity": 94
    },
    {
        "deltaTime": 0,
        "channel": 4,
        "type": "noteOn",
        "noteNumber": 62,
        "velocity": 93
    },
    {
        "deltaTime": 0,
        "channel": 5,
        "type": "noteOn",
        "noteNumber": 74,
        "velocity": 109
    },
    {
        "deltaTime": 0,
        "running": true,
        "channel": 5,
        "type": "noteOn",
        "noteNumber": 77,
        "velocity": 94
    },
    {
        "deltaTime": 0,
        "running": true,
        "channel": 5,
        "type": "noteOn",
        "noteNumber": 82,
        "velocity": 94
    },
    {
        "deltaTime": 0,
        "channel": 9,
        "type": "noteOn",
        "noteNumber": 44,
        "velocity": 107
    },
    {
        "deltaTime": 0,
        "running": true,
        "channel": 9,
        "type": "noteOn",
        "noteNumber": 54,
        "velocity": 109
    },
    {
        "deltaTime": 12,
        "running": true,
        "channel": 9,
        "type": "noteOff",
        "noteNumber": 44,
        "velocity": 0,
        "byte9": true
    },
    {
        "deltaTime": 0,
        "running": true,
        "channel": 9,
        "type": "noteOff",
        "noteNumber": 54,
        "velocity": 0,
        "byte9": true
    },
    {
        "deltaTime": 13,
        "channel": 14,
        "type": "noteOn",
        "noteNumber": 62,
        "velocity": 109
    },
    {
        "deltaTime": 0,
        "running": true,
        "channel": 14,
        "type": "noteOn",
        "noteNumber": 65,
        "velocity": 94
    },
    {
        "deltaTime": 0,
        "running": true,
        "channel": 14,
        "type": "noteOn",
        "noteNumber": 70,
        "velocity": 94
    },
    {
        "deltaTime": 76,
        "channel": 1,
        "type": "noteOff",
        "noteNumber": 34,
        "velocity": 0,
        "byte9": true
    },
    {
        "deltaTime": 0,
        "channel": 8,
        "type": "noteOff",
        "noteNumber": 34,
        "velocity": 0,
        "byte9": true
    },
    {
        "deltaTime": 40,
        "channel": 5,
        "type": "noteOff",
        "noteNumber": 82,
        "velocity": 0,
        "byte9": true
    },
    {
        "deltaTime": 13,
        "running": true,
        "channel": 5,
        "type": "noteOff",
        "noteNumber": 74,
        "velocity": 0,
        "byte9": true
    },
    {
        "deltaTime": 0,
        "running": true,
        "channel": 5,
        "type": "noteOff",
        "noteNumber": 77,
        "velocity": 0,
        "byte9": true
    },
    {
        "deltaTime": 12,
        "channel": 14,
        "type": "noteOff",
        "noteNumber": 70,
        "velocity": 0,
        "byte9": true
    },
    {
        "deltaTime": 13,
        "running": true,
        "channel": 14,
        "type": "noteOff",
        "noteNumber": 62,
        "velocity": 0,
        "byte9": true
    },
    {
        "deltaTime": 0,
        "running": true,
        "channel": 14,
        "type": "noteOff",
        "noteNumber": 65,
        "velocity": 0,
        "byte9": true
    },
    {
        "deltaTime": 114,
        "channel": 3,
        "type": "noteOff",
        "noteNumber": 69,
        "velocity": 0,
        "byte9": true
    },
    {
        "deltaTime": 27,
        "channel": 1,
        "type": "noteOn",
        "noteNumber": 34,
        "velocity": 99
    },
    {
        "deltaTime": 0,
        "channel": 8,
        "type": "noteOn",
        "noteNumber": 34,
        "velocity": 99
    },
    {
        "deltaTime": 91,
        "channel": 4,
        "type": "noteOff",
        "noteNumber": 62,
        "velocity": 0,
        "byte9": true
    },
    {
        "deltaTime": 65,
        "channel": 12,
        "type": "noteOff",
        "noteNumber": 57,
        "velocity": 0,
        "byte9": true
    },
    {
        "deltaTime": 0,
        "channel": 3,
        "type": "noteOn",
        "noteNumber": 74,
        "velocity": 124
    },
    {
        "deltaTime": 0,
        "channel": 4,
        "type": "noteOn",
        "noteNumber": 65,
        "velocity": 93
    },
    {
        "deltaTime": 0,
        "channel": 5,
        "type": "noteOn",
        "noteNumber": 74,
        "velocity": 109
    },
    {
        "deltaTime": 0,
        "running": true,
        "channel": 5,
        "type": "noteOn",
        "noteNumber": 77,
        "velocity": 94
    },
    {
        "deltaTime": 0,
        "running": true,
        "channel": 5,
        "type": "noteOn",
        "noteNumber": 82,
        "velocity": 101
    },
    {
        "deltaTime": 0,
        "channel": 9,
        "type": "noteOn",
        "noteNumber": 35,
        "velocity": 114
    },
    {
        "deltaTime": 0,
        "channel": 11,
        "type": "noteOn",
        "noteNumber": 41,
        "velocity": 114
    },
    {
        "deltaTime": 0,
        "channel": 12,
        "type": "noteOn",
        "noteNumber": 55,
        "velocity": 101
    },
    {
        "deltaTime": 12,
        "channel": 9,
        "type": "noteOff",
        "noteNumber": 35,
        "velocity": 0,
        "byte9": true
    },
    {
        "deltaTime": 13,
        "channel": 14,
        "type": "noteOn",
        "noteNumber": 62,
        "velocity": 109
    },
    {
        "deltaTime": 0,
        "running": true,
        "channel": 14,
        "type": "noteOn",
        "noteNumber": 65,
        "velocity": 94
    },
    {
        "deltaTime": 0,
        "running": true,
        "channel": 14,
        "type": "noteOn",
        "noteNumber": 70,
        "velocity": 101
    },
    {
        "deltaTime": 130,
        "channel": 5,
        "type": "noteOff",
        "noteNumber": 82,
        "velocity": 0,
        "byte9": true
    },
    {
        "deltaTime": 6,
        "channel": 11,
        "type": "noteOff",
        "noteNumber": 41,
        "velocity": 0,
        "byte9": true
    },
    {
        "deltaTime": 10,
        "channel": 5,
        "type": "noteOff",
        "noteNumber": 74,
        "velocity": 0,
        "byte9": true
    },
    {
        "deltaTime": 0,
        "running": true,
        "channel": 5,
        "type": "noteOff",
        "noteNumber": 77,
        "velocity": 0,
        "byte9": true
    },
    {
        "deltaTime": 9,
        "channel": 14,
        "type": "noteOff",
        "noteNumber": 70,
        "velocity": 0,
        "byte9": true
    },
    {
        "deltaTime": 16,
        "running": true,
        "channel": 14,
        "type": "noteOff",
        "noteNumber": 62,
        "velocity": 0,
        "byte9": true
    },
    {
        "deltaTime": 0,
        "running": true,
        "channel": 14,
        "type": "noteOff",
        "noteNumber": 65,
        "velocity": 0,
        "byte9": true
    },
    {
        "deltaTime": 215,
        "channel": 4,
        "type": "noteOff",
        "noteNumber": 65,
        "velocity": 0,
        "byte9": true
    },
    {
        "deltaTime": 69,
        "channel": 5,
        "type": "noteOn",
        "noteNumber": 74,
        "velocity": 108
    },
    {
        "deltaTime": 0,
        "running": true,
        "channel": 5,
        "type": "noteOn",
        "noteNumber": 77,
        "velocity": 97
    },
    {
        "deltaTime": 0,
        "running": true,
        "channel": 5,
        "type": "noteOn",
        "noteNumber": 82,
        "velocity": 98
    },
    {
        "deltaTime": 0,
        "channel": 9,
        "type": "noteOn",
        "noteNumber": 44,
        "velocity": 107
    },
    {
        "deltaTime": 0,
        "running": true,
        "channel": 9,
        "type": "noteOn",
        "noteNumber": 69,
        "velocity": 109
    },
    {
        "deltaTime": 12,
        "running": true,
        "channel": 9,
        "type": "noteOff",
        "noteNumber": 44,
        "velocity": 0,
        "byte9": true
    },
    {
        "deltaTime": 0,
        "running": true,
        "channel": 9,
        "type": "noteOff",
        "noteNumber": 69,
        "velocity": 0,
        "byte9": true
    },
    {
        "deltaTime": 13,
        "channel": 14,
        "type": "noteOn",
        "noteNumber": 62,
        "velocity": 108
    },
    {
        "deltaTime": 0,
        "running": true,
        "channel": 14,
        "type": "noteOn",
        "noteNumber": 65,
        "velocity": 97
    },
    {
        "deltaTime": 0,
        "running": true,
        "channel": 14,
        "type": "noteOn",
        "noteNumber": 70,
        "velocity": 98
    },
    {
        "deltaTime": 75,
        "channel": 3,
        "type": "noteOff",
        "noteNumber": 74,
        "velocity": 0,
        "byte9": true
    },
    {
        "deltaTime": 1,
        "channel": 1,
        "type": "noteOff",
        "noteNumber": 34,
        "velocity": 0,
        "byte9": true
    },
    {
        "deltaTime": 0,
        "channel": 8,
        "type": "noteOff",
        "noteNumber": 34,
        "velocity": 0,
        "byte9": true
    },
    {
        "deltaTime": 45,
        "channel": 5,
        "type": "noteOff",
        "noteNumber": 82,
        "velocity": 0,
        "byte9": true
    },
    {
        "deltaTime": 12,
        "running": true,
        "channel": 5,
        "type": "noteOff",
        "noteNumber": 74,
        "velocity": 0,
        "byte9": true
    },
    {
        "deltaTime": 5,
        "running": true,
        "channel": 5,
        "type": "noteOff",
        "noteNumber": 77,
        "velocity": 0,
        "byte9": true
    },
    {
        "deltaTime": 8,
        "channel": 14,
        "type": "noteOff",
        "noteNumber": 70,
        "velocity": 0,
        "byte9": true
    },
    {
        "deltaTime": 12,
        "running": true,
        "channel": 14,
        "type": "noteOff",
        "noteNumber": 62,
        "velocity": 0,
        "byte9": true
    },
    {
        "deltaTime": 5,
        "running": true,
        "channel": 14,
        "type": "noteOff",
        "noteNumber": 65,
        "velocity": 0,
        "byte9": true
    },
    {
        "deltaTime": 0,
        "channel": 3,
        "type": "noteOn",
        "noteNumber": 69,
        "velocity": 101
    },
    {
        "deltaTime": 21,
        "channel": 1,
        "type": "noteOn",
        "noteNumber": 34,
        "velocity": 99
    },
    {
        "deltaTime": 0,
        "channel": 4,
        "type": "noteOn",
        "noteNumber": 62,
        "velocity": 93
    },
    {
        "deltaTime": 0,
        "channel": 8,
        "type": "noteOn",
        "noteNumber": 34,
        "velocity": 99
    },
    {
        "deltaTime": 0,
        "channel": 9,
        "type": "noteOn",
        "noteNumber": 35,
        "velocity": 114
    },
    {
        "deltaTime": 0,
        "channel": 11,
        "type": "noteOn",
        "noteNumber": 41,
        "velocity": 114
    },
    {
        "deltaTime": 12,
        "channel": 9,
        "type": "noteOff",
        "noteNumber": 35,
        "velocity": 0,
        "byte9": true
    },
    {
        "deltaTime": 62,
        "channel": 3,
        "type": "noteOff",
        "noteNumber": 69,
        "velocity": 0,
        "byte9": true
    },
    {
        "deltaTime": 0,
        "channel": 3,
        "type": "noteOn",
        "noteNumber": 74,
        "velocity": 127
    },
    {
        "deltaTime": 14,
        "channel": 4,
        "type": "noteOff",
        "noteNumber": 62,
        "velocity": 0,
        "byte9": true
    },
    {
        "deltaTime": 0,
        "channel": 12,
        "type": "noteOff",
        "noteNumber": 55,
        "velocity": 0,
        "byte9": true
    },
    {
        "deltaTime": 4,
        "channel": 4,
        "type": "noteOn",
        "noteNumber": 65,
        "velocity": 93
    },
    {
        "deltaTime": 0,
        "channel": 5,
        "type": "noteOn",
        "noteNumber": 74,
        "velocity": 105
    },
    {
        "deltaTime": 0,
        "running": true,
        "channel": 5,
        "type": "noteOn",
        "noteNumber": 77,
        "velocity": 89
    },
    {
        "deltaTime": 0,
        "running": true,
        "channel": 5,
        "type": "noteOn",
        "noteNumber": 82,
        "velocity": 94
    },
    {
        "deltaTime": 0,
        "channel": 12,
        "type": "noteOn",
        "noteNumber": 53,
        "velocity": 101
    },
    {
        "deltaTime": 1,
        "channel": 11,
        "type": "noteOff",
        "noteNumber": 41,
        "velocity": 0,
        "byte9": true
    },
    {
        "deltaTime": 24,
        "channel": 14,
        "type": "noteOn",
        "noteNumber": 62,
        "velocity": 105
    },
    {
        "deltaTime": 0,
        "running": true,
        "channel": 14,
        "type": "noteOn",
        "noteNumber": 65,
        "velocity": 89
    },
    {
        "deltaTime": 0,
        "running": true,
        "channel": 14,
        "type": "noteOn",
        "noteNumber": 70,
        "velocity": 94
    },
    {
        "deltaTime": 121,
        "channel": 5,
        "type": "noteOff",
        "noteNumber": 82,
        "velocity": 0,
        "byte9": true
    },
    {
        "deltaTime": 22,
        "running": true,
        "channel": 5,
        "type": "noteOff",
        "noteNumber": 74,
        "velocity": 0,
        "byte9": true
    },
    {
        "deltaTime": 0,
        "running": true,
        "channel": 5,
        "type": "noteOff",
        "noteNumber": 77,
        "velocity": 0,
        "byte9": true
    },
    {
        "deltaTime": 3,
        "channel": 14,
        "type": "noteOff",
        "noteNumber": 70,
        "velocity": 0,
        "byte9": true
    },
    {
        "deltaTime": 22,
        "running": true,
        "channel": 14,
        "type": "noteOff",
        "noteNumber": 62,
        "velocity": 0,
        "byte9": true
    },
    {
        "deltaTime": 0,
        "running": true,
        "channel": 14,
        "type": "noteOff",
        "noteNumber": 65,
        "velocity": 0,
        "byte9": true
    },
    {
        "deltaTime": 123,
        "channel": 1,
        "type": "noteOff",
        "noteNumber": 34,
        "velocity": 0,
        "byte9": true
    },
    {
        "deltaTime": 0,
        "channel": 8,
        "type": "noteOff",
        "noteNumber": 34,
        "velocity": 0,
        "byte9": true
    },
    {
        "deltaTime": 4,
        "channel": 1,
        "type": "noteOn",
        "noteNumber": 41,
        "velocity": 99
    },
    {
        "deltaTime": 0,
        "channel": 8,
        "type": "noteOn",
        "noteNumber": 41,
        "velocity": 99
    },
    {
        "deltaTime": 0,
        "channel": 9,
        "type": "noteOn",
        "noteNumber": 35,
        "velocity": 114
    },
    {
        "deltaTime": 0,
        "running": true,
        "channel": 9,
        "type": "noteOn",
        "noteNumber": 70,
        "velocity": 65
    },
    {
        "deltaTime": 0,
        "channel": 11,
        "type": "noteOn",
        "noteNumber": 41,
        "velocity": 114
    },
    {
        "deltaTime": 12,
        "channel": 9,
        "type": "noteOff",
        "noteNumber": 35,
        "velocity": 0,
        "byte9": true
    },
    {
        "deltaTime": 0,
        "running": true,
        "channel": 9,
        "type": "noteOff",
        "noteNumber": 70,
        "velocity": 0,
        "byte9": true
    },
    {
        "deltaTime": 79,
        "channel": 4,
        "type": "noteOff",
        "noteNumber": 65,
        "velocity": 0,
        "byte9": true
    },
    {
        "deltaTime": 2,
        "channel": 3,
        "type": "noteOff",
        "noteNumber": 74,
        "velocity": 0,
        "byte9": true
    },
    {
        "deltaTime": 30,
        "running": true,
        "channel": 3,
        "type": "noteOn",
        "noteNumber": 69,
        "velocity": 124
    },
    {
        "deltaTime": 37,
        "channel": 4,
        "type": "noteOn",
        "noteNumber": 62,
        "velocity": 93
    },
    {
        "deltaTime": 0,
        "channel": 5,
        "type": "noteOn",
        "noteNumber": 74,
        "velocity": 109
    },
    {
        "deltaTime": 0,
        "running": true,
        "channel": 5,
        "type": "noteOn",
        "noteNumber": 77,
        "velocity": 97
    },
    {
        "deltaTime": 0,
        "running": true,
        "channel": 5,
        "type": "noteOn",
        "noteNumber": 82,
        "velocity": 110
    },
    {
        "deltaTime": 0,
        "channel": 9,
        "type": "noteOn",
        "noteNumber": 44,
        "velocity": 107
    },
    {
        "deltaTime": 0,
        "running": true,
        "channel": 9,
        "type": "noteOn",
        "noteNumber": 54,
        "velocity": 109
    },
    {
        "deltaTime": 1,
        "channel": 11,
        "type": "noteOff",
        "noteNumber": 41,
        "velocity": 0,
        "byte9": true
    },
    {
        "deltaTime": 11,
        "channel": 9,
        "type": "noteOff",
        "noteNumber": 44,
        "velocity": 0,
        "byte9": true
    },
    {
        "deltaTime": 0,
        "running": true,
        "channel": 9,
        "type": "noteOff",
        "noteNumber": 54,
        "velocity": 0,
        "byte9": true
    },
    {
        "deltaTime": 13,
        "channel": 14,
        "type": "noteOn",
        "noteNumber": 62,
        "velocity": 109
    },
    {
        "deltaTime": 0,
        "running": true,
        "channel": 14,
        "type": "noteOn",
        "noteNumber": 65,
        "velocity": 97
    },
    {
        "deltaTime": 0,
        "running": true,
        "channel": 14,
        "type": "noteOn",
        "noteNumber": 70,
        "velocity": 110
    },
    {
        "deltaTime": 124,
        "channel": 5,
        "type": "noteOff",
        "noteNumber": 82,
        "velocity": 0,
        "byte9": true
    },
    {
        "deltaTime": 9,
        "running": true,
        "channel": 5,
        "type": "noteOff",
        "noteNumber": 74,
        "velocity": 0,
        "byte9": true
    },
    {
        "deltaTime": 3,
        "running": true,
        "channel": 5,
        "type": "noteOff",
        "noteNumber": 77,
        "velocity": 0,
        "byte9": true
    },
    {
        "deltaTime": 13,
        "channel": 14,
        "type": "noteOff",
        "noteNumber": 70,
        "velocity": 0,
        "byte9": true
    },
    {
        "deltaTime": 9,
        "running": true,
        "channel": 14,
        "type": "noteOff",
        "noteNumber": 62,
        "velocity": 0,
        "byte9": true
    },
    {
        "deltaTime": 3,
        "running": true,
        "channel": 14,
        "type": "noteOff",
        "noteNumber": 65,
        "velocity": 0,
        "byte9": true
    },
    {
        "deltaTime": 130,
        "channel": 1,
        "type": "noteOff",
        "noteNumber": 41,
        "velocity": 0,
        "byte9": true
    },
    {
        "deltaTime": 0,
        "channel": 8,
        "type": "noteOff",
        "noteNumber": 41,
        "velocity": 0,
        "byte9": true
    },
    {
        "deltaTime": 4,
        "channel": 1,
        "type": "noteOn",
        "noteNumber": 34,
        "velocity": 99
    },
    {
        "deltaTime": 0,
        "channel": 8,
        "type": "noteOn",
        "noteNumber": 34,
        "velocity": 99
    },
    {
        "deltaTime": 0,
        "channel": 1,
        "type": "noteOff",
        "noteNumber": 34,
        "velocity": 0,
        "byte9": true
    },
    {
        "deltaTime": 0,
        "channel": 8,
        "type": "noteOff",
        "noteNumber": 34,
        "velocity": 0,
        "byte9": true
    },
    {
        "deltaTime": 84,
        "channel": 3,
        "type": "noteOff",
        "noteNumber": 69,
        "velocity": 0,
        "byte9": true
    },
    {
        "deltaTime": 7,
        "channel": 4,
        "type": "noteOff",
        "noteNumber": 62,
        "velocity": 0,
        "byte9": true
    },
    {
        "deltaTime": 0,
        "channel": 3,
        "type": "noteOn",
        "noteNumber": 74,
        "velocity": 124
    },
    {
        "deltaTime": 44,
        "channel": 12,
        "type": "noteOff",
        "noteNumber": 53,
        "velocity": 0,
        "byte9": true
    },
    {
        "deltaTime": 4,
        "channel": 1,
        "type": "noteOn",
        "noteNumber": 33,
        "velocity": 99
    },
    {
        "deltaTime": 0,
        "channel": 4,
        "type": "noteOn",
        "noteNumber": 65,
        "velocity": 93
    },
    {
        "deltaTime": 0,
        "channel": 5,
        "type": "noteOn",
        "noteNumber": 73,
        "velocity": 101
    },
    {
        "deltaTime": 0,
        "running": true,
        "channel": 5,
        "type": "noteOn",
        "noteNumber": 76,
        "velocity": 97
    },
    {
        "deltaTime": 0,
        "running": true,
        "channel": 5,
        "type": "noteOn",
        "noteNumber": 81,
        "velocity": 105
    },
    {
        "deltaTime": 0,
        "channel": 7,
        "type": "noteOn",
        "noteNumber": 81,
        "velocity": 119
    },
    {
        "deltaTime": 0,
        "channel": 8,
        "type": "noteOn",
        "noteNumber": 33,
        "velocity": 99
    },
    {
        "deltaTime": 0,
        "channel": 9,
        "type": "noteOn",
        "noteNumber": 35,
        "velocity": 114
    },
    {
        "deltaTime": 0,
        "channel": 11,
        "type": "noteOn",
        "noteNumber": 41,
        "velocity": 114
    },
    {
        "deltaTime": 0,
        "channel": 12,
        "type": "noteOn",
        "noteNumber": 52,
        "velocity": 101
    },
    {
        "deltaTime": 12,
        "channel": 9,
        "type": "noteOff",
        "noteNumber": 35,
        "velocity": 0,
        "byte9": true
    },
    {
        "deltaTime": 13,
        "channel": 14,
        "type": "noteOn",
        "noteNumber": 61,
        "velocity": 101
    },
    {
        "deltaTime": 0,
        "running": true,
        "channel": 14,
        "type": "noteOn",
        "noteNumber": 64,
        "velocity": 97
    },
    {
        "deltaTime": 0,
        "running": true,
        "channel": 14,
        "type": "noteOn",
        "noteNumber": 69,
        "velocity": 105
    },
    {
        "deltaTime": 48,
        "channel": 5,
        "type": "noteOff",
        "noteNumber": 81,
        "velocity": 0,
        "byte9": true
    },
    {
        "deltaTime": 25,
        "channel": 14,
        "type": "noteOff",
        "noteNumber": 69,
        "velocity": 0,
        "byte9": true
    },
    {
        "deltaTime": 23,
        "channel": 5,
        "type": "noteOff",
        "noteNumber": 76,
        "velocity": 0,
        "byte9": true
    },
    {
        "deltaTime": 2,
        "running": true,
        "channel": 5,
        "type": "noteOff",
        "noteNumber": 73,
        "velocity": 0,
        "byte9": true
    },
    {
        "deltaTime": 23,
        "channel": 14,
        "type": "noteOff",
        "noteNumber": 64,
        "velocity": 0,
        "byte9": true
    },
    {
        "deltaTime": 2,
        "running": true,
        "channel": 14,
        "type": "noteOff",
        "noteNumber": 61,
        "velocity": 0,
        "byte9": true
    },
    {
        "deltaTime": 13,
        "channel": 11,
        "type": "noteOff",
        "noteNumber": 41,
        "velocity": 0,
        "byte9": true
    },
    {
        "deltaTime": 83,
        "channel": 3,
        "type": "noteOff",
        "noteNumber": 74,
        "velocity": 0,
        "byte9": true
    },
    {
        "deltaTime": 167,
        "channel": 4,
        "type": "noteOff",
        "noteNumber": 65,
        "velocity": 0,
        "byte9": true
    },
    {
        "deltaTime": 0,
        "channel": 3,
        "type": "noteOn",
        "noteNumber": 73,
        "velocity": 115
    },
    {
        "deltaTime": 21,
        "channel": 4,
        "type": "noteOn",
        "noteNumber": 64,
        "velocity": 93
    },
    {
        "deltaTime": 0,
        "channel": 5,
        "type": "noteOn",
        "noteNumber": 73,
        "velocity": 111
    },
    {
        "deltaTime": 0,
        "running": true,
        "channel": 5,
        "type": "noteOn",
        "noteNumber": 76,
        "velocity": 107
    },
    {
        "deltaTime": 0,
        "running": true,
        "channel": 5,
        "type": "noteOn",
        "noteNumber": 81,
        "velocity": 105
    },
    {
        "deltaTime": 0,
        "channel": 9,
        "type": "noteOn",
        "noteNumber": 44,
        "velocity": 107
    },
    {
        "deltaTime": 0,
        "running": true,
        "channel": 9,
        "type": "noteOn",
        "noteNumber": 69,
        "velocity": 109
    },
    {
        "deltaTime": 12,
        "running": true,
        "channel": 9,
        "type": "noteOff",
        "noteNumber": 44,
        "velocity": 0,
        "byte9": true
    },
    {
        "deltaTime": 0,
        "running": true,
        "channel": 9,
        "type": "noteOff",
        "noteNumber": 69,
        "velocity": 0,
        "byte9": true
    },
    {
        "deltaTime": 13,
        "channel": 14,
        "type": "noteOn",
        "noteNumber": 61,
        "velocity": 111
    },
    {
        "deltaTime": 0,
        "running": true,
        "channel": 14,
        "type": "noteOn",
        "noteNumber": 64,
        "velocity": 107
    },
    {
        "deltaTime": 0,
        "running": true,
        "channel": 14,
        "type": "noteOn",
        "noteNumber": 69,
        "velocity": 105
    },
    {
        "deltaTime": 132,
        "channel": 5,
        "type": "noteOff",
        "noteNumber": 81,
        "velocity": 0,
        "byte9": true
    },
    {
        "deltaTime": 4,
        "channel": 7,
        "type": "noteOff",
        "noteNumber": 81,
        "velocity": 0,
        "byte9": true
    },
    {
        "deltaTime": 3,
        "channel": 5,
        "type": "noteOff",
        "noteNumber": 76,
        "velocity": 0,
        "byte9": true
    },
    {
        "deltaTime": 4,
        "running": true,
        "channel": 5,
        "type": "noteOff",
        "noteNumber": 73,
        "velocity": 0,
        "byte9": true
    },
    {
        "deltaTime": 14,
        "channel": 14,
        "type": "noteOff",
        "noteNumber": 69,
        "velocity": 0,
        "byte9": true
    },
    {
        "deltaTime": 7,
        "running": true,
        "channel": 14,
        "type": "noteOff",
        "noteNumber": 64,
        "velocity": 0,
        "byte9": true
    },
    {
        "deltaTime": 4,
        "running": true,
        "channel": 14,
        "type": "noteOff",
        "noteNumber": 61,
        "velocity": 0,
        "byte9": true
    },
    {
        "deltaTime": 68,
        "channel": 1,
        "type": "noteOff",
        "noteNumber": 33,
        "velocity": 0,
        "byte9": true
    },
    {
        "deltaTime": 0,
        "channel": 8,
        "type": "noteOff",
        "noteNumber": 33,
        "velocity": 0,
        "byte9": true
    },
    {
        "deltaTime": 59,
        "channel": 1,
        "type": "noteOn",
        "noteNumber": 33,
        "velocity": 99
    },
    {
        "deltaTime": 0,
        "channel": 8,
        "type": "noteOn",
        "noteNumber": 33,
        "velocity": 99
    },
    {
        "deltaTime": 0,
        "channel": 9,
        "type": "noteOn",
        "noteNumber": 35,
        "velocity": 107
    },
    {
        "deltaTime": 0,
        "channel": 11,
        "type": "noteOn",
        "noteNumber": 41,
        "velocity": 107
    },
    {
        "deltaTime": 12,
        "channel": 9,
        "type": "noteOff",
        "noteNumber": 35,
        "velocity": 0,
        "byte9": true
    },
    {
        "deltaTime": 148,
        "channel": 5,
        "type": "noteOn",
        "noteNumber": 73,
        "velocity": 105
    },
    {
        "deltaTime": 0,
        "running": true,
        "channel": 5,
        "type": "noteOn",
        "noteNumber": 76,
        "velocity": 94
    },
    {
        "deltaTime": 0,
        "running": true,
        "channel": 5,
        "type": "noteOn",
        "noteNumber": 81,
        "velocity": 94
    },
    {
        "deltaTime": 0,
        "channel": 9,
        "type": "noteOn",
        "noteNumber": 35,
        "velocity": 114
    },
    {
        "deltaTime": 0,
        "channel": 11,
        "type": "noteOn",
        "noteNumber": 41,
        "velocity": 114
    },
    {
        "deltaTime": 1,
        "running": true,
        "channel": 11,
        "type": "noteOff",
        "noteNumber": 41,
        "velocity": 0,
        "byte9": true
    },
    {
        "deltaTime": 11,
        "channel": 9,
        "type": "noteOff",
        "noteNumber": 35,
        "velocity": 0,
        "byte9": true
    },
    {
        "deltaTime": 13,
        "channel": 14,
        "type": "noteOn",
        "noteNumber": 61,
        "velocity": 105
    },
    {
        "deltaTime": 0,
        "running": true,
        "channel": 14,
        "type": "noteOn",
        "noteNumber": 64,
        "velocity": 94
    },
    {
        "deltaTime": 0,
        "running": true,
        "channel": 14,
        "type": "noteOn",
        "noteNumber": 69,
        "velocity": 94
    },
    {
        "deltaTime": 130,
        "channel": 5,
        "type": "noteOff",
        "noteNumber": 81,
        "velocity": 0,
        "byte9": true
    },
    {
        "deltaTime": 6,
        "channel": 11,
        "type": "noteOff",
        "noteNumber": 41,
        "velocity": 0,
        "byte9": true
    },
    {
        "deltaTime": 2,
        "channel": 5,
        "type": "noteOff",
        "noteNumber": 73,
        "velocity": 0,
        "byte9": true
    },
    {
        "deltaTime": 4,
        "running": true,
        "channel": 5,
        "type": "noteOff",
        "noteNumber": 76,
        "velocity": 0,
        "byte9": true
    },
    {
        "deltaTime": 13,
        "channel": 14,
        "type": "noteOff",
        "noteNumber": 69,
        "velocity": 0,
        "byte9": true
    },
    {
        "deltaTime": 8,
        "running": true,
        "channel": 14,
        "type": "noteOff",
        "noteNumber": 61,
        "velocity": 0,
        "byte9": true
    },
    {
        "deltaTime": 4,
        "running": true,
        "channel": 14,
        "type": "noteOff",
        "noteNumber": 64,
        "velocity": 0,
        "byte9": true
    },
    {
        "deltaTime": 128,
        "channel": 9,
        "type": "noteOn",
        "noteNumber": 70,
        "velocity": 65
    },
    {
        "deltaTime": 12,
        "running": true,
        "channel": 9,
        "type": "noteOff",
        "noteNumber": 70,
        "velocity": 0,
        "byte9": true
    },
    {
        "deltaTime": 141,
        "channel": 3,
        "type": "noteOff",
        "noteNumber": 73,
        "velocity": 0,
        "byte9": true
    },
    {
        "deltaTime": 7,
        "channel": 5,
        "type": "noteOn",
        "noteNumber": 73,
        "velocity": 109
    },
    {
        "deltaTime": 0,
        "running": true,
        "channel": 5,
        "type": "noteOn",
        "noteNumber": 76,
        "velocity": 94
    },
    {
        "deltaTime": 0,
        "running": true,
        "channel": 5,
        "type": "noteOn",
        "noteNumber": 81,
        "velocity": 94
    },
    {
        "deltaTime": 0,
        "channel": 9,
        "type": "noteOn",
        "noteNumber": 44,
        "velocity": 107
    },
    {
        "deltaTime": 0,
        "running": true,
        "channel": 9,
        "type": "noteOn",
        "noteNumber": 54,
        "velocity": 109
    },
    {
        "deltaTime": 12,
        "running": true,
        "channel": 9,
        "type": "noteOff",
        "noteNumber": 44,
        "velocity": 0,
        "byte9": true
    },
    {
        "deltaTime": 0,
        "running": true,
        "channel": 9,
        "type": "noteOff",
        "noteNumber": 54,
        "velocity": 0,
        "byte9": true
    },
    {
        "deltaTime": 13,
        "channel": 14,
        "type": "noteOn",
        "noteNumber": 61,
        "velocity": 109
    },
    {
        "deltaTime": 0,
        "running": true,
        "channel": 14,
        "type": "noteOn",
        "noteNumber": 64,
        "velocity": 94
    },
    {
        "deltaTime": 0,
        "running": true,
        "channel": 14,
        "type": "noteOn",
        "noteNumber": 69,
        "velocity": 94
    },
    {
        "deltaTime": 76,
        "channel": 1,
        "type": "noteOff",
        "noteNumber": 33,
        "velocity": 0,
        "byte9": true
    },
    {
        "deltaTime": 0,
        "channel": 8,
        "type": "noteOff",
        "noteNumber": 33,
        "velocity": 0,
        "byte9": true
    },
    {
        "deltaTime": 40,
        "channel": 5,
        "type": "noteOff",
        "noteNumber": 81,
        "velocity": 0,
        "byte9": true
    },
    {
        "deltaTime": 13,
        "running": true,
        "channel": 5,
        "type": "noteOff",
        "noteNumber": 73,
        "velocity": 0,
        "byte9": true
    },
    {
        "deltaTime": 0,
        "running": true,
        "channel": 5,
        "type": "noteOff",
        "noteNumber": 76,
        "velocity": 0,
        "byte9": true
    },
    {
        "deltaTime": 12,
        "channel": 14,
        "type": "noteOff",
        "noteNumber": 69,
        "velocity": 0,
        "byte9": true
    },
    {
        "deltaTime": 13,
        "running": true,
        "channel": 14,
        "type": "noteOff",
        "noteNumber": 61,
        "velocity": 0,
        "byte9": true
    },
    {
        "deltaTime": 0,
        "running": true,
        "channel": 14,
        "type": "noteOff",
        "noteNumber": 64,
        "velocity": 0,
        "byte9": true
    },
    {
        "deltaTime": 72,
        "channel": 4,
        "type": "noteOff",
        "noteNumber": 64,
        "velocity": 0,
        "byte9": true
    },
    {
        "deltaTime": 69,
        "channel": 1,
        "type": "noteOn",
        "noteNumber": 33,
        "velocity": 99
    },
    {
        "deltaTime": 0,
        "channel": 8,
        "type": "noteOn",
        "noteNumber": 33,
        "velocity": 99
    },
    {
        "deltaTime": 160,
        "channel": 5,
        "type": "noteOn",
        "noteNumber": 73,
        "velocity": 109
    },
    {
        "deltaTime": 0,
        "running": true,
        "channel": 5,
        "type": "noteOn",
        "noteNumber": 76,
        "velocity": 94
    },
    {
        "deltaTime": 0,
        "running": true,
        "channel": 5,
        "type": "noteOn",
        "noteNumber": 81,
        "velocity": 101
    },
    {
        "deltaTime": 0,
        "channel": 7,
        "type": "noteOn",
        "noteNumber": 81,
        "velocity": 119
    },
    {
        "deltaTime": 0,
        "channel": 9,
        "type": "noteOn",
        "noteNumber": 35,
        "velocity": 114
    },
    {
        "deltaTime": 0,
        "channel": 11,
        "type": "noteOn",
        "noteNumber": 41,
        "velocity": 114
    },
    {
        "deltaTime": 12,
        "channel": 9,
        "type": "noteOff",
        "noteNumber": 35,
        "velocity": 0,
        "byte9": true
    },
    {
        "deltaTime": 13,
        "channel": 14,
        "type": "noteOn",
        "noteNumber": 61,
        "velocity": 109
    },
    {
        "deltaTime": 0,
        "running": true,
        "channel": 14,
        "type": "noteOn",
        "noteNumber": 64,
        "velocity": 94
    },
    {
        "deltaTime": 0,
        "running": true,
        "channel": 14,
        "type": "noteOn",
        "noteNumber": 69,
        "velocity": 101
    },
    {
        "deltaTime": 130,
        "channel": 5,
        "type": "noteOff",
        "noteNumber": 81,
        "velocity": 0,
        "byte9": true
    },
    {
        "deltaTime": 6,
        "channel": 11,
        "type": "noteOff",
        "noteNumber": 41,
        "velocity": 0,
        "byte9": true
    },
    {
        "deltaTime": 10,
        "channel": 5,
        "type": "noteOff",
        "noteNumber": 73,
        "velocity": 0,
        "byte9": true
    },
    {
        "deltaTime": 0,
        "running": true,
        "channel": 5,
        "type": "noteOff",
        "noteNumber": 76,
        "velocity": 0,
        "byte9": true
    },
    {
        "deltaTime": 9,
        "channel": 14,
        "type": "noteOff",
        "noteNumber": 69,
        "velocity": 0,
        "byte9": true
    },
    {
        "deltaTime": 16,
        "running": true,
        "channel": 14,
        "type": "noteOff",
        "noteNumber": 61,
        "velocity": 0,
        "byte9": true
    },
    {
        "deltaTime": 0,
        "running": true,
        "channel": 14,
        "type": "noteOff",
        "noteNumber": 64,
        "velocity": 0,
        "byte9": true
    },
    {
        "deltaTime": 280,
        "channel": 7,
        "type": "noteOff",
        "noteNumber": 81,
        "velocity": 0,
        "byte9": true
    },
    {
        "deltaTime": 4,
        "channel": 5,
        "type": "noteOn",
        "noteNumber": 73,
        "velocity": 108
    },
    {
        "deltaTime": 0,
        "running": true,
        "channel": 5,
        "type": "noteOn",
        "noteNumber": 76,
        "velocity": 97
    },
    {
        "deltaTime": 0,
        "running": true,
        "channel": 5,
        "type": "noteOn",
        "noteNumber": 81,
        "velocity": 98
    },
    {
        "deltaTime": 0,
        "channel": 7,
        "type": "noteOn",
        "noteNumber": 79,
        "velocity": 119
    },
    {
        "deltaTime": 0,
        "channel": 9,
        "type": "noteOn",
        "noteNumber": 44,
        "velocity": 107
    },
    {
        "deltaTime": 0,
        "running": true,
        "channel": 9,
        "type": "noteOn",
        "noteNumber": 69,
        "velocity": 109
    },
    {
        "deltaTime": 12,
        "running": true,
        "channel": 9,
        "type": "noteOff",
        "noteNumber": 44,
        "velocity": 0,
        "byte9": true
    },
    {
        "deltaTime": 0,
        "running": true,
        "channel": 9,
        "type": "noteOff",
        "noteNumber": 69,
        "velocity": 0,
        "byte9": true
    },
    {
        "deltaTime": 13,
        "channel": 14,
        "type": "noteOn",
        "noteNumber": 61,
        "velocity": 108
    },
    {
        "deltaTime": 0,
        "running": true,
        "channel": 14,
        "type": "noteOn",
        "noteNumber": 64,
        "velocity": 97
    },
    {
        "deltaTime": 0,
        "running": true,
        "channel": 14,
        "type": "noteOn",
        "noteNumber": 69,
        "velocity": 98
    },
    {
        "deltaTime": 76,
        "channel": 1,
        "type": "noteOff",
        "noteNumber": 33,
        "velocity": 0,
        "byte9": true
    },
    {
        "deltaTime": 0,
        "channel": 8,
        "type": "noteOff",
        "noteNumber": 33,
        "velocity": 0,
        "byte9": true
    },
    {
        "deltaTime": 45,
        "channel": 5,
        "type": "noteOff",
        "noteNumber": 81,
        "velocity": 0,
        "byte9": true
    },
    {
        "deltaTime": 12,
        "running": true,
        "channel": 5,
        "type": "noteOff",
        "noteNumber": 73,
        "velocity": 0,
        "byte9": true
    },
    {
        "deltaTime": 5,
        "running": true,
        "channel": 5,
        "type": "noteOff",
        "noteNumber": 76,
        "velocity": 0,
        "byte9": true
    },
    {
        "deltaTime": 8,
        "channel": 14,
        "type": "noteOff",
        "noteNumber": 69,
        "velocity": 0,
        "byte9": true
    },
    {
        "deltaTime": 12,
        "running": true,
        "channel": 14,
        "type": "noteOff",
        "noteNumber": 61,
        "velocity": 0,
        "byte9": true
    },
    {
        "deltaTime": 5,
        "running": true,
        "channel": 14,
        "type": "noteOff",
        "noteNumber": 64,
        "velocity": 0,
        "byte9": true
    },
    {
        "deltaTime": 132,
        "channel": 1,
        "type": "noteOn",
        "noteNumber": 33,
        "velocity": 99
    },
    {
        "deltaTime": 0,
        "channel": 8,
        "type": "noteOn",
        "noteNumber": 33,
        "velocity": 99
    },
    {
        "deltaTime": 0,
        "channel": 9,
        "type": "noteOn",
        "noteNumber": 35,
        "velocity": 114
    },
    {
        "deltaTime": 0,
        "channel": 11,
        "type": "noteOn",
        "noteNumber": 41,
        "velocity": 114
    },
    {
        "deltaTime": 12,
        "channel": 9,
        "type": "noteOff",
        "noteNumber": 35,
        "velocity": 0,
        "byte9": true
    },
    {
        "deltaTime": 144,
        "channel": 7,
        "type": "noteOff",
        "noteNumber": 79,
        "velocity": 0,
        "byte9": true
    },
    {
        "deltaTime": 4,
        "channel": 5,
        "type": "noteOn",
        "noteNumber": 73,
        "velocity": 105
    },
    {
        "deltaTime": 0,
        "running": true,
        "channel": 5,
        "type": "noteOn",
        "noteNumber": 76,
        "velocity": 89
    },
    {
        "deltaTime": 0,
        "running": true,
        "channel": 5,
        "type": "noteOn",
        "noteNumber": 81,
        "velocity": 94
    },
    {
        "deltaTime": 0,
        "channel": 7,
        "type": "noteOn",
        "noteNumber": 77,
        "velocity": 119
    },
    {
        "deltaTime": 1,
        "channel": 11,
        "type": "noteOff",
        "noteNumber": 41,
        "velocity": 0,
        "byte9": true
    },
    {
        "deltaTime": 24,
        "channel": 14,
        "type": "noteOn",
        "noteNumber": 61,
        "velocity": 105
    },
    {
        "deltaTime": 0,
        "running": true,
        "channel": 14,
        "type": "noteOn",
        "noteNumber": 64,
        "velocity": 89
    },
    {
        "deltaTime": 0,
        "running": true,
        "channel": 14,
        "type": "noteOn",
        "noteNumber": 69,
        "velocity": 94
    },
    {
        "deltaTime": 121,
        "channel": 5,
        "type": "noteOff",
        "noteNumber": 81,
        "velocity": 0,
        "byte9": true
    },
    {
        "deltaTime": 22,
        "running": true,
        "channel": 5,
        "type": "noteOff",
        "noteNumber": 73,
        "velocity": 0,
        "byte9": true
    },
    {
        "deltaTime": 0,
        "running": true,
        "channel": 5,
        "type": "noteOff",
        "noteNumber": 76,
        "velocity": 0,
        "byte9": true
    },
    {
        "deltaTime": 3,
        "channel": 14,
        "type": "noteOff",
        "noteNumber": 69,
        "velocity": 0,
        "byte9": true
    },
    {
        "deltaTime": 22,
        "running": true,
        "channel": 14,
        "type": "noteOff",
        "noteNumber": 61,
        "velocity": 0,
        "byte9": true
    },
    {
        "deltaTime": 0,
        "running": true,
        "channel": 14,
        "type": "noteOff",
        "noteNumber": 64,
        "velocity": 0,
        "byte9": true
    },
    {
        "deltaTime": 123,
        "channel": 1,
        "type": "noteOff",
        "noteNumber": 33,
        "velocity": 0,
        "byte9": true
    },
    {
        "deltaTime": 0,
        "channel": 8,
        "type": "noteOff",
        "noteNumber": 33,
        "velocity": 0,
        "byte9": true
    },
    {
        "deltaTime": 4,
        "channel": 1,
        "type": "noteOn",
        "noteNumber": 36,
        "velocity": 99
    },
    {
        "deltaTime": 0,
        "channel": 8,
        "type": "noteOn",
        "noteNumber": 36,
        "velocity": 99
    },
    {
        "deltaTime": 0,
        "channel": 9,
        "type": "noteOn",
        "noteNumber": 35,
        "velocity": 114
    },
    {
        "deltaTime": 0,
        "running": true,
        "channel": 9,
        "type": "noteOn",
        "noteNumber": 70,
        "velocity": 65
    },
    {
        "deltaTime": 0,
        "channel": 11,
        "type": "noteOn",
        "noteNumber": 41,
        "velocity": 114
    },
    {
        "deltaTime": 12,
        "channel": 9,
        "type": "noteOff",
        "noteNumber": 35,
        "velocity": 0,
        "byte9": true
    },
    {
        "deltaTime": 0,
        "running": true,
        "channel": 9,
        "type": "noteOff",
        "noteNumber": 70,
        "velocity": 0,
        "byte9": true
    },
    {
        "deltaTime": 144,
        "channel": 7,
        "type": "noteOff",
        "noteNumber": 77,
        "velocity": 0,
        "byte9": true
    },
    {
        "deltaTime": 0,
        "channel": 12,
        "type": "noteOff",
        "noteNumber": 52,
        "velocity": 0,
        "byte9": true
    },
    {
        "deltaTime": 4,
        "channel": 5,
        "type": "noteOn",
        "noteNumber": 73,
        "velocity": 109
    },
    {
        "deltaTime": 0,
        "running": true,
        "channel": 5,
        "type": "noteOn",
        "noteNumber": 76,
        "velocity": 97
    },
    {
        "deltaTime": 0,
        "running": true,
        "channel": 5,
        "type": "noteOn",
        "noteNumber": 81,
        "velocity": 110
    },
    {
        "deltaTime": 0,
        "channel": 7,
        "type": "noteOn",
        "noteNumber": 76,
        "velocity": 119
    },
    {
        "deltaTime": 0,
        "channel": 9,
        "type": "noteOn",
        "noteNumber": 44,
        "velocity": 107
    },
    {
        "deltaTime": 0,
        "running": true,
        "channel": 9,
        "type": "noteOn",
        "noteNumber": 54,
        "velocity": 109
    },
    {
        "deltaTime": 1,
        "channel": 11,
        "type": "noteOff",
        "noteNumber": 41,
        "velocity": 0,
        "byte9": true
    },
    {
        "deltaTime": 11,
        "channel": 9,
        "type": "noteOff",
        "noteNumber": 44,
        "velocity": 0,
        "byte9": true
    },
    {
        "deltaTime": 0,
        "running": true,
        "channel": 9,
        "type": "noteOff",
        "noteNumber": 54,
        "velocity": 0,
        "byte9": true
    },
    {
        "deltaTime": 13,
        "channel": 14,
        "type": "noteOn",
        "noteNumber": 61,
        "velocity": 109
    },
    {
        "deltaTime": 0,
        "running": true,
        "channel": 14,
        "type": "noteOn",
        "noteNumber": 64,
        "velocity": 97
    },
    {
        "deltaTime": 0,
        "running": true,
        "channel": 14,
        "type": "noteOn",
        "noteNumber": 69,
        "velocity": 110
    },
    {
        "deltaTime": 124,
        "channel": 5,
        "type": "noteOff",
        "noteNumber": 81,
        "velocity": 0,
        "byte9": true
    },
    {
        "deltaTime": 9,
        "running": true,
        "channel": 5,
        "type": "noteOff",
        "noteNumber": 73,
        "velocity": 0,
        "byte9": true
    },
    {
        "deltaTime": 3,
        "running": true,
        "channel": 5,
        "type": "noteOff",
        "noteNumber": 76,
        "velocity": 0,
        "byte9": true
    },
    {
        "deltaTime": 13,
        "channel": 14,
        "type": "noteOff",
        "noteNumber": 69,
        "velocity": 0,
        "byte9": true
    },
    {
        "deltaTime": 9,
        "running": true,
        "channel": 14,
        "type": "noteOff",
        "noteNumber": 61,
        "velocity": 0,
        "byte9": true
    },
    {
        "deltaTime": 3,
        "running": true,
        "channel": 14,
        "type": "noteOff",
        "noteNumber": 64,
        "velocity": 0,
        "byte9": true
    },
    {
        "deltaTime": 0,
        "channel": 3,
        "type": "noteOn",
        "noteNumber": 69,
        "velocity": 119
    },
    {
        "deltaTime": 61,
        "channel": 1,
        "type": "noteOff",
        "noteNumber": 36,
        "velocity": 0,
        "byte9": true
    },
    {
        "deltaTime": 0,
        "channel": 8,
        "type": "noteOff",
        "noteNumber": 36,
        "velocity": 0,
        "byte9": true
    },
    {
        "deltaTime": 4,
        "channel": 1,
        "type": "noteOn",
        "noteNumber": 37,
        "velocity": 99
    },
    {
        "deltaTime": 0,
        "channel": 8,
        "type": "noteOn",
        "noteNumber": 37,
        "velocity": 99
    },
    {
        "deltaTime": 147,
        "channel": 3,
        "type": "noteOff",
        "noteNumber": 69,
        "velocity": 0,
        "byte9": true
    },
    {
        "deltaTime": 9,
        "channel": 1,
        "type": "noteOff",
        "noteNumber": 37,
        "velocity": 0,
        "byte9": true
    },
    {
        "deltaTime": 0,
        "channel": 7,
        "type": "noteOff",
        "noteNumber": 76,
        "velocity": 0,
        "byte9": true
    },
    {
        "deltaTime": 0,
        "channel": 8,
        "type": "noteOff",
        "noteNumber": 37,
        "velocity": 0,
        "byte9": true
    },
    {
        "deltaTime": 4,
        "channel": 1,
        "type": "noteOn",
        "noteNumber": 38,
        "velocity": 99
    },
    {
        "deltaTime": 0,
        "channel": 5,
        "type": "noteOn",
        "noteNumber": 74,
        "velocity": 101
    },
    {
        "deltaTime": 0,
        "running": true,
        "channel": 5,
        "type": "noteOn",
        "noteNumber": 77,
        "velocity": 97
    },
    {
        "deltaTime": 0,
        "running": true,
        "channel": 5,
        "type": "noteOn",
        "noteNumber": 81,
        "velocity": 105
    },
    {
        "deltaTime": 0,
        "channel": 7,
        "type": "noteOn",
        "noteNumber": 74,
        "velocity": 119
    },
    {
        "deltaTime": 0,
        "channel": 8,
        "type": "noteOn",
        "noteNumber": 38,
        "velocity": 99
    },
    {
        "deltaTime": 0,
        "channel": 9,
        "type": "noteOn",
        "noteNumber": 35,
        "velocity": 114
    },
    {
        "deltaTime": 0,
        "channel": 11,
        "type": "noteOn",
        "noteNumber": 41,
        "velocity": 114
    },
    {
        "deltaTime": 0,
        "channel": 3,
        "type": "noteOn",
        "noteNumber": 74,
        "velocity": 114
    },
    {
        "deltaTime": 9,
        "channel": 9,
        "type": "noteOff",
        "noteNumber": 35,
        "velocity": 0,
        "byte9": true
    },
    {
        "deltaTime": 13,
        "channel": 14,
        "type": "noteOn",
        "noteNumber": 62,
        "velocity": 101
    },
    {
        "deltaTime": 0,
        "running": true,
        "channel": 14,
        "type": "noteOn",
        "noteNumber": 65,
        "velocity": 97
    },
    {
        "deltaTime": 0,
        "running": true,
        "channel": 14,
        "type": "noteOn",
        "noteNumber": 69,
        "velocity": 105
    },
    {
        "deltaTime": 48,
        "channel": 5,
        "type": "noteOff",
        "noteNumber": 81,
        "velocity": 0,
        "byte9": true
    },
    {
        "deltaTime": 25,
        "channel": 14,
        "type": "noteOff",
        "noteNumber": 69,
        "velocity": 0,
        "byte9": true
    },
    {
        "deltaTime": 23,
        "channel": 5,
        "type": "noteOff",
        "noteNumber": 77,
        "velocity": 0,
        "byte9": true
    },
    {
        "deltaTime": 2,
        "running": true,
        "channel": 5,
        "type": "noteOff",
        "noteNumber": 74,
        "velocity": 0,
        "byte9": true
    },
    {
        "deltaTime": 23,
        "channel": 14,
        "type": "noteOff",
        "noteNumber": 65,
        "velocity": 0,
        "byte9": true
    },
    {
        "deltaTime": 2,
        "running": true,
        "channel": 14,
        "type": "noteOff",
        "noteNumber": 62,
        "velocity": 0,
        "byte9": true
    },
    {
        "deltaTime": 13,
        "channel": 11,
        "type": "noteOff",
        "noteNumber": 41,
        "velocity": 0,
        "byte9": true
    },
    {
        "deltaTime": 315,
        "channel": 7,
        "type": "noteOff",
        "noteNumber": 74,
        "velocity": 0,
        "byte9": true
    },
    {
        "deltaTime": 4,
        "channel": 5,
        "type": "noteOn",
        "noteNumber": 74,
        "velocity": 111
    },
    {
        "deltaTime": 0,
        "running": true,
        "channel": 5,
        "type": "noteOn",
        "noteNumber": 77,
        "velocity": 107
    },
    {
        "deltaTime": 0,
        "running": true,
        "channel": 5,
        "type": "noteOn",
        "noteNumber": 81,
        "velocity": 105
    },
    {
        "deltaTime": 0,
        "channel": 9,
        "type": "noteOn",
        "noteNumber": 44,
        "velocity": 107
    },
    {
        "deltaTime": 0,
        "running": true,
        "channel": 9,
        "type": "noteOn",
        "noteNumber": 69,
        "velocity": 109
    },
    {
        "deltaTime": 12,
        "running": true,
        "channel": 9,
        "type": "noteOff",
        "noteNumber": 44,
        "velocity": 0,
        "byte9": true
    },
    {
        "deltaTime": 0,
        "running": true,
        "channel": 9,
        "type": "noteOff",
        "noteNumber": 69,
        "velocity": 0,
        "byte9": true
    },
    {
        "deltaTime": 13,
        "channel": 14,
        "type": "noteOn",
        "noteNumber": 62,
        "velocity": 111
    },
    {
        "deltaTime": 0,
        "running": true,
        "channel": 14,
        "type": "noteOn",
        "noteNumber": 65,
        "velocity": 107
    },
    {
        "deltaTime": 0,
        "running": true,
        "channel": 14,
        "type": "noteOn",
        "noteNumber": 69,
        "velocity": 105
    },
    {
        "deltaTime": 132,
        "channel": 5,
        "type": "noteOff",
        "noteNumber": 81,
        "velocity": 0,
        "byte9": true
    },
    {
        "deltaTime": 7,
        "running": true,
        "channel": 5,
        "type": "noteOff",
        "noteNumber": 77,
        "velocity": 0,
        "byte9": true
    },
    {
        "deltaTime": 4,
        "running": true,
        "channel": 5,
        "type": "noteOff",
        "noteNumber": 74,
        "velocity": 0,
        "byte9": true
    },
    {
        "deltaTime": 14,
        "channel": 14,
        "type": "noteOff",
        "noteNumber": 69,
        "velocity": 0,
        "byte9": true
    },
    {
        "deltaTime": 7,
        "running": true,
        "channel": 14,
        "type": "noteOff",
        "noteNumber": 65,
        "velocity": 0,
        "byte9": true
    },
    {
        "deltaTime": 4,
        "running": true,
        "channel": 14,
        "type": "noteOff",
        "noteNumber": 62,
        "velocity": 0,
        "byte9": true
    },
    {
        "deltaTime": 48,
        "channel": 1,
        "type": "noteOff",
        "noteNumber": 38,
        "velocity": 0,
        "byte9": true
    },
    {
        "deltaTime": 0,
        "channel": 8,
        "type": "noteOff",
        "noteNumber": 38,
        "velocity": 0,
        "byte9": true
    },
    {
        "deltaTime": 79,
        "channel": 1,
        "type": "noteOn",
        "noteNumber": 38,
        "velocity": 99
    },
    {
        "deltaTime": 0,
        "channel": 8,
        "type": "noteOn",
        "noteNumber": 38,
        "velocity": 99
    },
    {
        "deltaTime": 0,
        "channel": 9,
        "type": "noteOn",
        "noteNumber": 35,
        "velocity": 107
    },
    {
        "deltaTime": 0,
        "channel": 11,
        "type": "noteOn",
        "noteNumber": 41,
        "velocity": 107
    },
    {
        "deltaTime": 12,
        "channel": 9,
        "type": "noteOff",
        "noteNumber": 35,
        "velocity": 0,
        "byte9": true
    },
    {
        "deltaTime": 148,
        "channel": 5,
        "type": "noteOn",
        "noteNumber": 74,
        "velocity": 105
    },
    {
        "deltaTime": 0,
        "running": true,
        "channel": 5,
        "type": "noteOn",
        "noteNumber": 77,
        "velocity": 94
    },
    {
        "deltaTime": 0,
        "running": true,
        "channel": 5,
        "type": "noteOn",
        "noteNumber": 81,
        "velocity": 94
    },
    {
        "deltaTime": 0,
        "channel": 9,
        "type": "noteOn",
        "noteNumber": 35,
        "velocity": 114
    },
    {
        "deltaTime": 0,
        "channel": 11,
        "type": "noteOn",
        "noteNumber": 41,
        "velocity": 114
    },
    {
        "deltaTime": 0,
        "channel": 12,
        "type": "noteOn",
        "noteNumber": 55,
        "velocity": 97
    },
    {
        "deltaTime": 1,
        "channel": 11,
        "type": "noteOff",
        "noteNumber": 41,
        "velocity": 0,
        "byte9": true
    },
    {
        "deltaTime": 11,
        "channel": 9,
        "type": "noteOff",
        "noteNumber": 35,
        "velocity": 0,
        "byte9": true
    },
    {
        "deltaTime": 13,
        "channel": 14,
        "type": "noteOn",
        "noteNumber": 62,
        "velocity": 105
    },
    {
        "deltaTime": 0,
        "running": true,
        "channel": 14,
        "type": "noteOn",
        "noteNumber": 65,
        "velocity": 94
    },
    {
        "deltaTime": 0,
        "running": true,
        "channel": 14,
        "type": "noteOn",
        "noteNumber": 69,
        "velocity": 94
    },
    {
        "deltaTime": 130,
        "channel": 5,
        "type": "noteOff",
        "noteNumber": 81,
        "velocity": 0,
        "byte9": true
    },
    {
        "deltaTime": 6,
        "channel": 11,
        "type": "noteOff",
        "noteNumber": 41,
        "velocity": 0,
        "byte9": true
    },
    {
        "deltaTime": 2,
        "channel": 5,
        "type": "noteOff",
        "noteNumber": 74,
        "velocity": 0,
        "byte9": true
    },
    {
        "deltaTime": 4,
        "running": true,
        "channel": 5,
        "type": "noteOff",
        "noteNumber": 77,
        "velocity": 0,
        "byte9": true
    },
    {
        "deltaTime": 13,
        "channel": 14,
        "type": "noteOff",
        "noteNumber": 69,
        "velocity": 0,
        "byte9": true
    },
    {
        "deltaTime": 8,
        "running": true,
        "channel": 14,
        "type": "noteOff",
        "noteNumber": 62,
        "velocity": 0,
        "byte9": true
    },
    {
        "deltaTime": 4,
        "running": true,
        "channel": 14,
        "type": "noteOff",
        "noteNumber": 65,
        "velocity": 0,
        "byte9": true
    },
    {
        "deltaTime": 128,
        "channel": 9,
        "type": "noteOn",
        "noteNumber": 70,
        "velocity": 65
    },
    {
        "deltaTime": 12,
        "running": true,
        "channel": 9,
        "type": "noteOff",
        "noteNumber": 70,
        "velocity": 0,
        "byte9": true
    },
    {
        "deltaTime": 144,
        "channel": 12,
        "type": "noteOff",
        "noteNumber": 55,
        "velocity": 0,
        "byte9": true
    },
    {
        "deltaTime": 3,
        "channel": 3,
        "type": "noteOff",
        "noteNumber": 74,
        "velocity": 0,
        "byte9": true
    },
    {
        "deltaTime": 1,
        "channel": 5,
        "type": "noteOn",
        "noteNumber": 74,
        "velocity": 109
    },
    {
        "deltaTime": 0,
        "running": true,
        "channel": 5,
        "type": "noteOn",
        "noteNumber": 77,
        "velocity": 94
    },
    {
        "deltaTime": 0,
        "running": true,
        "channel": 5,
        "type": "noteOn",
        "noteNumber": 81,
        "velocity": 94
    },
    {
        "deltaTime": 0,
        "channel": 9,
        "type": "noteOn",
        "noteNumber": 44,
        "velocity": 107
    },
    {
        "deltaTime": 0,
        "running": true,
        "channel": 9,
        "type": "noteOn",
        "noteNumber": 54,
        "velocity": 109
    },
    {
        "deltaTime": 0,
        "channel": 12,
        "type": "noteOn",
        "noteNumber": 57,
        "velocity": 97
    },
    {
        "deltaTime": 12,
        "channel": 9,
        "type": "noteOff",
        "noteNumber": 44,
        "velocity": 0,
        "byte9": true
    },
    {
        "deltaTime": 0,
        "running": true,
        "channel": 9,
        "type": "noteOff",
        "noteNumber": 54,
        "velocity": 0,
        "byte9": true
    },
    {
        "deltaTime": 13,
        "channel": 14,
        "type": "noteOn",
        "noteNumber": 62,
        "velocity": 109
    },
    {
        "deltaTime": 0,
        "running": true,
        "channel": 14,
        "type": "noteOn",
        "noteNumber": 65,
        "velocity": 94
    },
    {
        "deltaTime": 0,
        "running": true,
        "channel": 14,
        "type": "noteOn",
        "noteNumber": 69,
        "velocity": 94
    },
    {
        "deltaTime": 116,
        "channel": 5,
        "type": "noteOff",
        "noteNumber": 81,
        "velocity": 0,
        "byte9": true
    },
    {
        "deltaTime": 13,
        "running": true,
        "channel": 5,
        "type": "noteOff",
        "noteNumber": 74,
        "velocity": 0,
        "byte9": true
    },
    {
        "deltaTime": 0,
        "running": true,
        "channel": 5,
        "type": "noteOff",
        "noteNumber": 77,
        "velocity": 0,
        "byte9": true
    },
    {
        "deltaTime": 7,
        "channel": 1,
        "type": "noteOff",
        "noteNumber": 38,
        "velocity": 0,
        "byte9": true
    },
    {
        "deltaTime": 0,
        "channel": 8,
        "type": "noteOff",
        "noteNumber": 38,
        "velocity": 0,
        "byte9": true
    },
    {
        "deltaTime": 5,
        "channel": 14,
        "type": "noteOff",
        "noteNumber": 69,
        "velocity": 0,
        "byte9": true
    },
    {
        "deltaTime": 13,
        "running": true,
        "channel": 14,
        "type": "noteOff",
        "noteNumber": 62,
        "velocity": 0,
        "byte9": true
    },
    {
        "deltaTime": 0,
        "running": true,
        "channel": 14,
        "type": "noteOff",
        "noteNumber": 65,
        "velocity": 0,
        "byte9": true
    },
    {
        "deltaTime": 137,
        "channel": 12,
        "type": "noteOff",
        "noteNumber": 57,
        "velocity": 0,
        "byte9": true
    },
    {
        "deltaTime": 4,
        "channel": 1,
        "type": "noteOn",
        "noteNumber": 38,
        "velocity": 99
    },
    {
        "deltaTime": 0,
        "channel": 8,
        "type": "noteOn",
        "noteNumber": 38,
        "velocity": 99
    },
    {
        "deltaTime": 0,
        "channel": 12,
        "type": "noteOn",
        "noteNumber": 50,
        "velocity": 97
    },
    {
        "deltaTime": 160,
        "channel": 5,
        "type": "noteOn",
        "noteNumber": 74,
        "velocity": 109
    },
    {
        "deltaTime": 0,
        "running": true,
        "channel": 5,
        "type": "noteOn",
        "noteNumber": 77,
        "velocity": 94
    },
    {
        "deltaTime": 0,
        "running": true,
        "channel": 5,
        "type": "noteOn",
        "noteNumber": 81,
        "velocity": 101
    },
    {
        "deltaTime": 0,
        "channel": 9,
        "type": "noteOn",
        "noteNumber": 35,
        "velocity": 114
    },
    {
        "deltaTime": 0,
        "channel": 11,
        "type": "noteOn",
        "noteNumber": 41,
        "velocity": 114
    },
    {
        "deltaTime": 12,
        "channel": 9,
        "type": "noteOff",
        "noteNumber": 35,
        "velocity": 0,
        "byte9": true
    },
    {
        "deltaTime": 13,
        "channel": 14,
        "type": "noteOn",
        "noteNumber": 62,
        "velocity": 109
    },
    {
        "deltaTime": 0,
        "running": true,
        "channel": 14,
        "type": "noteOn",
        "noteNumber": 65,
        "velocity": 94
    },
    {
        "deltaTime": 0,
        "running": true,
        "channel": 14,
        "type": "noteOn",
        "noteNumber": 69,
        "velocity": 101
    },
    {
        "deltaTime": 130,
        "channel": 5,
        "type": "noteOff",
        "noteNumber": 81,
        "velocity": 0,
        "byte9": true
    },
    {
        "deltaTime": 6,
        "channel": 11,
        "type": "noteOff",
        "noteNumber": 41,
        "velocity": 0,
        "byte9": true
    },
    {
        "deltaTime": 10,
        "channel": 5,
        "type": "noteOff",
        "noteNumber": 74,
        "velocity": 0,
        "byte9": true
    },
    {
        "deltaTime": 0,
        "running": true,
        "channel": 5,
        "type": "noteOff",
        "noteNumber": 77,
        "velocity": 0,
        "byte9": true
    },
    {
        "deltaTime": 9,
        "channel": 14,
        "type": "noteOff",
        "noteNumber": 69,
        "velocity": 0,
        "byte9": true
    },
    {
        "deltaTime": 16,
        "running": true,
        "channel": 14,
        "type": "noteOff",
        "noteNumber": 62,
        "velocity": 0,
        "byte9": true
    },
    {
        "deltaTime": 0,
        "running": true,
        "channel": 14,
        "type": "noteOff",
        "noteNumber": 65,
        "velocity": 0,
        "byte9": true
    },
    {
        "deltaTime": 0,
        "channel": 3,
        "type": "noteOn",
        "noteNumber": 74,
        "velocity": 119
    },
    {
        "deltaTime": 25,
        "channel": 5,
        "type": "noteOn",
        "noteNumber": 74,
        "velocity": 108
    },
    {
        "deltaTime": 0,
        "running": true,
        "channel": 5,
        "type": "noteOn",
        "noteNumber": 77,
        "velocity": 97
    },
    {
        "deltaTime": 0,
        "running": true,
        "channel": 5,
        "type": "noteOn",
        "noteNumber": 81,
        "velocity": 98
    },
    {
        "deltaTime": 0,
        "channel": 9,
        "type": "noteOn",
        "noteNumber": 44,
        "velocity": 107
    },
    {
        "deltaTime": 0,
        "running": true,
        "channel": 9,
        "type": "noteOn",
        "noteNumber": 69,
        "velocity": 109
    },
    {
        "deltaTime": 12,
        "running": true,
        "channel": 9,
        "type": "noteOff",
        "noteNumber": 44,
        "velocity": 0,
        "byte9": true
    },
    {
        "deltaTime": 0,
        "running": true,
        "channel": 9,
        "type": "noteOff",
        "noteNumber": 69,
        "velocity": 0,
        "byte9": true
    },
    {
        "deltaTime": 13,
        "channel": 14,
        "type": "noteOn",
        "noteNumber": 62,
        "velocity": 108
    },
    {
        "deltaTime": 0,
        "running": true,
        "channel": 14,
        "type": "noteOn",
        "noteNumber": 65,
        "velocity": 97
    },
    {
        "deltaTime": 0,
        "running": true,
        "channel": 14,
        "type": "noteOn",
        "noteNumber": 69,
        "velocity": 98
    },
    {
        "deltaTime": 121,
        "channel": 5,
        "type": "noteOff",
        "noteNumber": 81,
        "velocity": 0,
        "byte9": true
    },
    {
        "deltaTime": 12,
        "running": true,
        "channel": 5,
        "type": "noteOff",
        "noteNumber": 74,
        "velocity": 0,
        "byte9": true
    },
    {
        "deltaTime": 3,
        "channel": 1,
        "type": "noteOff",
        "noteNumber": 38,
        "velocity": 0,
        "byte9": true
    },
    {
        "deltaTime": 0,
        "channel": 8,
        "type": "noteOff",
        "noteNumber": 38,
        "velocity": 0,
        "byte9": true
    },
    {
        "deltaTime": 2,
        "channel": 5,
        "type": "noteOff",
        "noteNumber": 77,
        "velocity": 0,
        "byte9": true
    },
    {
        "deltaTime": 8,
        "channel": 14,
        "type": "noteOff",
        "noteNumber": 69,
        "velocity": 0,
        "byte9": true
    },
    {
        "deltaTime": 12,
        "running": true,
        "channel": 14,
        "type": "noteOff",
        "noteNumber": 62,
        "velocity": 0,
        "byte9": true
    },
    {
        "deltaTime": 5,
        "running": true,
        "channel": 14,
        "type": "noteOff",
        "noteNumber": 65,
        "velocity": 0,
        "byte9": true
    },
    {
        "deltaTime": 37,
        "channel": 3,
        "type": "noteOff",
        "noteNumber": 74,
        "velocity": 0,
        "byte9": true
    },
    {
        "deltaTime": 95,
        "channel": 1,
        "type": "noteOn",
        "noteNumber": 38,
        "velocity": 99
    },
    {
        "deltaTime": 0,
        "channel": 8,
        "type": "noteOn",
        "noteNumber": 38,
        "velocity": 99
    },
    {
        "deltaTime": 0,
        "channel": 9,
        "type": "noteOn",
        "noteNumber": 35,
        "velocity": 114
    },
    {
        "deltaTime": 0,
        "channel": 11,
        "type": "noteOn",
        "noteNumber": 41,
        "velocity": 114
    },
    {
        "deltaTime": 12,
        "channel": 9,
        "type": "noteOff",
        "noteNumber": 35,
        "velocity": 0,
        "byte9": true
    },
    {
        "deltaTime": 0,
        "channel": 3,
        "type": "noteOn",
        "noteNumber": 74,
        "velocity": 119
    },
    {
        "deltaTime": 13,
        "channel": 12,
        "type": "noteOff",
        "noteNumber": 50,
        "velocity": 0,
        "byte9": true
    },
    {
        "deltaTime": 4,
        "channel": 5,
        "type": "noteOn",
        "noteNumber": 74,
        "velocity": 105
    },
    {
        "deltaTime": 0,
        "running": true,
        "channel": 5,
        "type": "noteOn",
        "noteNumber": 77,
        "velocity": 89
    },
    {
        "deltaTime": 0,
        "running": true,
        "channel": 5,
        "type": "noteOn",
        "noteNumber": 81,
        "velocity": 94
    },
    {
        "deltaTime": 0,
        "channel": 12,
        "type": "noteOn",
        "noteNumber": 62,
        "velocity": 97
    },
    {
        "deltaTime": 1,
        "channel": 11,
        "type": "noteOff",
        "noteNumber": 41,
        "velocity": 0,
        "byte9": true
    },
    {
        "deltaTime": 24,
        "channel": 14,
        "type": "noteOn",
        "noteNumber": 62,
        "velocity": 105
    },
    {
        "deltaTime": 0,
        "running": true,
        "channel": 14,
        "type": "noteOn",
        "noteNumber": 65,
        "velocity": 89
    },
    {
        "deltaTime": 0,
        "running": true,
        "channel": 14,
        "type": "noteOn",
        "noteNumber": 69,
        "velocity": 94
    },
    {
        "deltaTime": 121,
        "channel": 5,
        "type": "noteOff",
        "noteNumber": 81,
        "velocity": 0,
        "byte9": true
    },
    {
        "deltaTime": 22,
        "running": true,
        "channel": 5,
        "type": "noteOff",
        "noteNumber": 74,
        "velocity": 0,
        "byte9": true
    },
    {
        "deltaTime": 0,
        "running": true,
        "channel": 5,
        "type": "noteOff",
        "noteNumber": 77,
        "velocity": 0,
        "byte9": true
    },
    {
        "deltaTime": 3,
        "channel": 14,
        "type": "noteOff",
        "noteNumber": 69,
        "velocity": 0,
        "byte9": true
    },
    {
        "deltaTime": 22,
        "running": true,
        "channel": 14,
        "type": "noteOff",
        "noteNumber": 62,
        "velocity": 0,
        "byte9": true
    },
    {
        "deltaTime": 0,
        "running": true,
        "channel": 14,
        "type": "noteOff",
        "noteNumber": 65,
        "velocity": 0,
        "byte9": true
    },
    {
        "deltaTime": 123,
        "channel": 1,
        "type": "noteOff",
        "noteNumber": 38,
        "velocity": 0,
        "byte9": true
    },
    {
        "deltaTime": 0,
        "channel": 8,
        "type": "noteOff",
        "noteNumber": 38,
        "velocity": 0,
        "byte9": true
    },
    {
        "deltaTime": 0,
        "channel": 12,
        "type": "noteOff",
        "noteNumber": 62,
        "velocity": 0,
        "byte9": true
    },
    {
        "deltaTime": 4,
        "channel": 1,
        "type": "noteOn",
        "noteNumber": 36,
        "velocity": 99
    },
    {
        "deltaTime": 0,
        "channel": 8,
        "type": "noteOn",
        "noteNumber": 36,
        "velocity": 99
    },
    {
        "deltaTime": 0,
        "channel": 9,
        "type": "noteOn",
        "noteNumber": 35,
        "velocity": 114
    },
    {
        "deltaTime": 0,
        "running": true,
        "channel": 9,
        "type": "noteOn",
        "noteNumber": 70,
        "velocity": 65
    },
    {
        "deltaTime": 0,
        "channel": 11,
        "type": "noteOn",
        "noteNumber": 41,
        "velocity": 114
    },
    {
        "deltaTime": 0,
        "channel": 12,
        "type": "noteOn",
        "noteNumber": 60,
        "velocity": 97
    },
    {
        "deltaTime": 12,
        "channel": 9,
        "type": "noteOff",
        "noteNumber": 35,
        "velocity": 0,
        "byte9": true
    },
    {
        "deltaTime": 0,
        "running": true,
        "channel": 9,
        "type": "noteOff",
        "noteNumber": 70,
        "velocity": 0,
        "byte9": true
    },
    {
        "deltaTime": 148,
        "channel": 5,
        "type": "noteOn",
        "noteNumber": 74,
        "velocity": 109
    },
    {
        "deltaTime": 0,
        "running": true,
        "channel": 5,
        "type": "noteOn",
        "noteNumber": 77,
        "velocity": 97
    },
    {
        "deltaTime": 0,
        "running": true,
        "channel": 5,
        "type": "noteOn",
        "noteNumber": 81,
        "velocity": 110
    },
    {
        "deltaTime": 0,
        "channel": 9,
        "type": "noteOn",
        "noteNumber": 44,
        "velocity": 107
    },
    {
        "deltaTime": 0,
        "running": true,
        "channel": 9,
        "type": "noteOn",
        "noteNumber": 54,
        "velocity": 109
    },
    {
        "deltaTime": 1,
        "channel": 11,
        "type": "noteOff",
        "noteNumber": 41,
        "velocity": 0,
        "byte9": true
    },
    {
        "deltaTime": 11,
        "channel": 9,
        "type": "noteOff",
        "noteNumber": 44,
        "velocity": 0,
        "byte9": true
    },
    {
        "deltaTime": 0,
        "running": true,
        "channel": 9,
        "type": "noteOff",
        "noteNumber": 54,
        "velocity": 0,
        "byte9": true
    },
    {
        "deltaTime": 13,
        "channel": 14,
        "type": "noteOn",
        "noteNumber": 62,
        "velocity": 109
    },
    {
        "deltaTime": 0,
        "running": true,
        "channel": 14,
        "type": "noteOn",
        "noteNumber": 65,
        "velocity": 97
    },
    {
        "deltaTime": 0,
        "running": true,
        "channel": 14,
        "type": "noteOn",
        "noteNumber": 69,
        "velocity": 110
    },
    {
        "deltaTime": 124,
        "channel": 5,
        "type": "noteOff",
        "noteNumber": 81,
        "velocity": 0,
        "byte9": true
    },
    {
        "deltaTime": 9,
        "running": true,
        "channel": 5,
        "type": "noteOff",
        "noteNumber": 74,
        "velocity": 0,
        "byte9": true
    },
    {
        "deltaTime": 3,
        "running": true,
        "channel": 5,
        "type": "noteOff",
        "noteNumber": 77,
        "velocity": 0,
        "byte9": true
    },
    {
        "deltaTime": 13,
        "channel": 14,
        "type": "noteOff",
        "noteNumber": 69,
        "velocity": 0,
        "byte9": true
    },
    {
        "deltaTime": 9,
        "running": true,
        "channel": 14,
        "type": "noteOff",
        "noteNumber": 62,
        "velocity": 0,
        "byte9": true
    },
    {
        "deltaTime": 3,
        "running": true,
        "channel": 14,
        "type": "noteOff",
        "noteNumber": 65,
        "velocity": 0,
        "byte9": true
    },
    {
        "deltaTime": 130,
        "channel": 1,
        "type": "noteOff",
        "noteNumber": 36,
        "velocity": 0,
        "byte9": true
    },
    {
        "deltaTime": 0,
        "channel": 8,
        "type": "noteOff",
        "noteNumber": 36,
        "velocity": 0,
        "byte9": true
    },
    {
        "deltaTime": 4,
        "channel": 1,
        "type": "noteOn",
        "noteNumber": 33,
        "velocity": 99
    },
    {
        "deltaTime": 0,
        "channel": 8,
        "type": "noteOn",
        "noteNumber": 33,
        "velocity": 99
    },
    {
        "deltaTime": 156,
        "channel": 1,
        "type": "noteOff",
        "noteNumber": 33,
        "velocity": 0,
        "byte9": true
    },
    {
        "deltaTime": 0,
        "channel": 8,
        "type": "noteOff",
        "noteNumber": 33,
        "velocity": 0,
        "byte9": true
    },
    {
        "deltaTime": 4,
        "channel": 1,
        "type": "noteOn",
        "noteNumber": 31,
        "velocity": 99
    },
    {
        "deltaTime": 0,
        "channel": 4,
        "type": "noteOn",
        "noteNumber": 58,
        "velocity": 69
    },
    {
        "deltaTime": 0,
        "running": true,
        "channel": 4,
        "type": "noteOn",
        "noteNumber": 62,
        "velocity": 69
    },
    {
        "deltaTime": 0,
        "running": true,
        "channel": 4,
        "type": "noteOn",
        "noteNumber": 65,
        "velocity": 69
    },
    {
        "deltaTime": 0,
        "channel": 5,
        "type": "noteOn",
        "noteNumber": 74,
        "velocity": 101
    },
    {
        "deltaTime": 0,
        "running": true,
        "channel": 5,
        "type": "noteOn",
        "noteNumber": 79,
        "velocity": 97
    },
    {
        "deltaTime": 0,
        "running": true,
        "channel": 5,
        "type": "noteOn",
        "noteNumber": 82,
        "velocity": 105
    },
    {
        "deltaTime": 0,
        "channel": 8,
        "type": "noteOn",
        "noteNumber": 31,
        "velocity": 99
    },
    {
        "deltaTime": 0,
        "channel": 9,
        "type": "noteOn",
        "noteNumber": 35,
        "velocity": 114
    },
    {
        "deltaTime": 0,
        "channel": 11,
        "type": "noteOn",
        "noteNumber": 41,
        "velocity": 114
    },
    {
        "deltaTime": 12,
        "channel": 9,
        "type": "noteOff",
        "noteNumber": 35,
        "velocity": 0,
        "byte9": true
    },
    {
        "deltaTime": 13,
        "channel": 14,
        "type": "noteOn",
        "noteNumber": 62,
        "velocity": 101
    },
    {
        "deltaTime": 0,
        "running": true,
        "channel": 14,
        "type": "noteOn",
        "noteNumber": 67,
        "velocity": 97
    },
    {
        "deltaTime": 0,
        "running": true,
        "channel": 14,
        "type": "noteOn",
        "noteNumber": 70,
        "velocity": 105
    },
    {
        "deltaTime": 22,
        "channel": 3,
        "type": "noteOff",
        "noteNumber": 74,
        "velocity": 0,
        "byte9": true
    },
    {
        "deltaTime": 26,
        "channel": 5,
        "type": "noteOff",
        "noteNumber": 82,
        "velocity": 0,
        "byte9": true
    },
    {
        "deltaTime": 25,
        "channel": 14,
        "type": "noteOff",
        "noteNumber": 70,
        "velocity": 0,
        "byte9": true
    },
    {
        "deltaTime": 23,
        "channel": 5,
        "type": "noteOff",
        "noteNumber": 79,
        "velocity": 0,
        "byte9": true
    },
    {
        "deltaTime": 2,
        "running": true,
        "channel": 5,
        "type": "noteOff",
        "noteNumber": 74,
        "velocity": 0,
        "byte9": true
    },
    {
        "deltaTime": 23,
        "channel": 14,
        "type": "noteOff",
        "noteNumber": 67,
        "velocity": 0,
        "byte9": true
    },
    {
        "deltaTime": 2,
        "running": true,
        "channel": 14,
        "type": "noteOff",
        "noteNumber": 62,
        "velocity": 0,
        "byte9": true
    },
    {
        "deltaTime": 13,
        "channel": 11,
        "type": "noteOff",
        "noteNumber": 41,
        "velocity": 0,
        "byte9": true
    },
    {
        "deltaTime": 0,
        "channel": 3,
        "type": "noteOn",
        "noteNumber": 74,
        "velocity": 127
    },
    {
        "deltaTime": 86,
        "running": true,
        "channel": 3,
        "type": "noteOff",
        "noteNumber": 74,
        "velocity": 0,
        "byte9": true
    },
    {
        "deltaTime": 0,
        "channel": 3,
        "type": "noteOn",
        "noteNumber": 74,
        "velocity": 124
    },
    {
        "deltaTime": 40,
        "channel": 12,
        "type": "noteOff",
        "noteNumber": 60,
        "velocity": 0,
        "byte9": true
    },
    {
        "deltaTime": 4,
        "channel": 5,
        "type": "noteOn",
        "noteNumber": 74,
        "velocity": 111
    },
    {
        "deltaTime": 0,
        "running": true,
        "channel": 5,
        "type": "noteOn",
        "noteNumber": 79,
        "velocity": 107
    },
    {
        "deltaTime": 0,
        "running": true,
        "channel": 5,
        "type": "noteOn",
        "noteNumber": 82,
        "velocity": 105
    },
    {
        "deltaTime": 0,
        "channel": 9,
        "type": "noteOn",
        "noteNumber": 44,
        "velocity": 107
    },
    {
        "deltaTime": 0,
        "running": true,
        "channel": 9,
        "type": "noteOn",
        "noteNumber": 69,
        "velocity": 109
    },
    {
        "deltaTime": 0,
        "channel": 12,
        "type": "noteOn",
        "noteNumber": 55,
        "velocity": 97
    },
    {
        "deltaTime": 12,
        "channel": 9,
        "type": "noteOff",
        "noteNumber": 44,
        "velocity": 0,
        "byte9": true
    },
    {
        "deltaTime": 0,
        "running": true,
        "channel": 9,
        "type": "noteOff",
        "noteNumber": 69,
        "velocity": 0,
        "byte9": true
    },
    {
        "deltaTime": 13,
        "channel": 14,
        "type": "noteOn",
        "noteNumber": 62,
        "velocity": 111
    },
    {
        "deltaTime": 0,
        "running": true,
        "channel": 14,
        "type": "noteOn",
        "noteNumber": 67,
        "velocity": 107
    },
    {
        "deltaTime": 0,
        "running": true,
        "channel": 14,
        "type": "noteOn",
        "noteNumber": 70,
        "velocity": 105
    },
    {
        "deltaTime": 132,
        "channel": 5,
        "type": "noteOff",
        "noteNumber": 82,
        "velocity": 0,
        "byte9": true
    },
    {
        "deltaTime": 4,
        "channel": 1,
        "type": "noteOff",
        "noteNumber": 31,
        "velocity": 0,
        "byte9": true
    },
    {
        "deltaTime": 0,
        "channel": 8,
        "type": "noteOff",
        "noteNumber": 31,
        "velocity": 0,
        "byte9": true
    },
    {
        "deltaTime": 3,
        "channel": 5,
        "type": "noteOff",
        "noteNumber": 79,
        "velocity": 0,
        "byte9": true
    },
    {
        "deltaTime": 4,
        "running": true,
        "channel": 5,
        "type": "noteOff",
        "noteNumber": 74,
        "velocity": 0,
        "byte9": true
    },
    {
        "deltaTime": 14,
        "channel": 14,
        "type": "noteOff",
        "noteNumber": 70,
        "velocity": 0,
        "byte9": true
    },
    {
        "deltaTime": 7,
        "running": true,
        "channel": 14,
        "type": "noteOff",
        "noteNumber": 67,
        "velocity": 0,
        "byte9": true
    },
    {
        "deltaTime": 4,
        "running": true,
        "channel": 14,
        "type": "noteOff",
        "noteNumber": 62,
        "velocity": 0,
        "byte9": true
    },
    {
        "deltaTime": 127,
        "channel": 1,
        "type": "noteOn",
        "noteNumber": 31,
        "velocity": 99
    },
    {
        "deltaTime": 0,
        "channel": 8,
        "type": "noteOn",
        "noteNumber": 31,
        "velocity": 99
    },
    {
        "deltaTime": 0,
        "channel": 9,
        "type": "noteOn",
        "noteNumber": 35,
        "velocity": 107
    },
    {
        "deltaTime": 0,
        "channel": 11,
        "type": "noteOn",
        "noteNumber": 41,
        "velocity": 107
    },
    {
        "deltaTime": 12,
        "channel": 9,
        "type": "noteOff",
        "noteNumber": 35,
        "velocity": 0,
        "byte9": true
    },
    {
        "deltaTime": 148,
        "channel": 5,
        "type": "noteOn",
        "noteNumber": 74,
        "velocity": 105
    },
    {
        "deltaTime": 0,
        "running": true,
        "channel": 5,
        "type": "noteOn",
        "noteNumber": 79,
        "velocity": 94
    },
    {
        "deltaTime": 0,
        "running": true,
        "channel": 5,
        "type": "noteOn",
        "noteNumber": 82,
        "velocity": 94
    },
    {
        "deltaTime": 0,
        "channel": 9,
        "type": "noteOn",
        "noteNumber": 35,
        "velocity": 114
    },
    {
        "deltaTime": 0,
        "channel": 11,
        "type": "noteOn",
        "noteNumber": 41,
        "velocity": 114
    },
    {
        "deltaTime": 1,
        "running": true,
        "channel": 11,
        "type": "noteOff",
        "noteNumber": 41,
        "velocity": 0,
        "byte9": true
    },
    {
        "deltaTime": 11,
        "channel": 9,
        "type": "noteOff",
        "noteNumber": 35,
        "velocity": 0,
        "byte9": true
    },
    {
        "deltaTime": 13,
        "channel": 14,
        "type": "noteOn",
        "noteNumber": 62,
        "velocity": 105
    },
    {
        "deltaTime": 0,
        "running": true,
        "channel": 14,
        "type": "noteOn",
        "noteNumber": 67,
        "velocity": 94
    },
    {
        "deltaTime": 0,
        "running": true,
        "channel": 14,
        "type": "noteOn",
        "noteNumber": 70,
        "velocity": 94
    },
    {
        "deltaTime": 130,
        "channel": 5,
        "type": "noteOff",
        "noteNumber": 82,
        "velocity": 0,
        "byte9": true
    },
    {
        "deltaTime": 6,
        "channel": 11,
        "type": "noteOff",
        "noteNumber": 41,
        "velocity": 0,
        "byte9": true
    },
    {
        "deltaTime": 2,
        "channel": 5,
        "type": "noteOff",
        "noteNumber": 74,
        "velocity": 0,
        "byte9": true
    },
    {
        "deltaTime": 4,
        "running": true,
        "channel": 5,
        "type": "noteOff",
        "noteNumber": 79,
        "velocity": 0,
        "byte9": true
    },
    {
        "deltaTime": 13,
        "channel": 14,
        "type": "noteOff",
        "noteNumber": 70,
        "velocity": 0,
        "byte9": true
    },
    {
        "deltaTime": 8,
        "running": true,
        "channel": 14,
        "type": "noteOff",
        "noteNumber": 62,
        "velocity": 0,
        "byte9": true
    },
    {
        "deltaTime": 4,
        "running": true,
        "channel": 14,
        "type": "noteOff",
        "noteNumber": 67,
        "velocity": 0,
        "byte9": true
    },
    {
        "deltaTime": 128,
        "channel": 9,
        "type": "noteOn",
        "noteNumber": 70,
        "velocity": 65
    },
    {
        "deltaTime": 12,
        "running": true,
        "channel": 9,
        "type": "noteOff",
        "noteNumber": 70,
        "velocity": 0,
        "byte9": true
    },
    {
        "deltaTime": 148,
        "channel": 5,
        "type": "noteOn",
        "noteNumber": 74,
        "velocity": 109
    },
    {
        "deltaTime": 0,
        "running": true,
        "channel": 5,
        "type": "noteOn",
        "noteNumber": 79,
        "velocity": 94
    },
    {
        "deltaTime": 0,
        "running": true,
        "channel": 5,
        "type": "noteOn",
        "noteNumber": 82,
        "velocity": 94
    },
    {
        "deltaTime": 0,
        "channel": 9,
        "type": "noteOn",
        "noteNumber": 44,
        "velocity": 107
    },
    {
        "deltaTime": 0,
        "running": true,
        "channel": 9,
        "type": "noteOn",
        "noteNumber": 54,
        "velocity": 109
    },
    {
        "deltaTime": 12,
        "running": true,
        "channel": 9,
        "type": "noteOff",
        "noteNumber": 44,
        "velocity": 0,
        "byte9": true
    },
    {
        "deltaTime": 0,
        "running": true,
        "channel": 9,
        "type": "noteOff",
        "noteNumber": 54,
        "velocity": 0,
        "byte9": true
    },
    {
        "deltaTime": 13,
        "channel": 14,
        "type": "noteOn",
        "noteNumber": 62,
        "velocity": 109
    },
    {
        "deltaTime": 0,
        "running": true,
        "channel": 14,
        "type": "noteOn",
        "noteNumber": 67,
        "velocity": 94
    },
    {
        "deltaTime": 0,
        "running": true,
        "channel": 14,
        "type": "noteOn",
        "noteNumber": 70,
        "velocity": 94
    },
    {
        "deltaTime": 90,
        "channel": 3,
        "type": "noteOff",
        "noteNumber": 74,
        "velocity": 0,
        "byte9": true
    },
    {
        "deltaTime": 26,
        "channel": 5,
        "type": "noteOff",
        "noteNumber": 82,
        "velocity": 0,
        "byte9": true
    },
    {
        "deltaTime": 13,
        "running": true,
        "channel": 5,
        "type": "noteOff",
        "noteNumber": 74,
        "velocity": 0,
        "byte9": true
    },
    {
        "deltaTime": 0,
        "running": true,
        "channel": 5,
        "type": "noteOff",
        "noteNumber": 79,
        "velocity": 0,
        "byte9": true
    },
    {
        "deltaTime": 2,
        "channel": 12,
        "type": "noteOff",
        "noteNumber": 55,
        "velocity": 0,
        "byte9": true
    },
    {
        "deltaTime": 5,
        "channel": 1,
        "type": "noteOff",
        "noteNumber": 31,
        "velocity": 0,
        "byte9": true
    },
    {
        "deltaTime": 0,
        "channel": 8,
        "type": "noteOff",
        "noteNumber": 31,
        "velocity": 0,
        "byte9": true
    },
    {
        "deltaTime": 5,
        "channel": 14,
        "type": "noteOff",
        "noteNumber": 70,
        "velocity": 0,
        "byte9": true
    },
    {
        "deltaTime": 13,
        "running": true,
        "channel": 14,
        "type": "noteOff",
        "noteNumber": 62,
        "velocity": 0,
        "byte9": true
    },
    {
        "deltaTime": 0,
        "running": true,
        "channel": 14,
        "type": "noteOff",
        "noteNumber": 67,
        "velocity": 0,
        "byte9": true
    },
    {
        "deltaTime": 0,
        "channel": 1,
        "type": "noteOn",
        "noteNumber": 31,
        "velocity": 99
    },
    {
        "deltaTime": 0,
        "channel": 3,
        "type": "noteOn",
        "noteNumber": 69,
        "velocity": 109
    },
    {
        "deltaTime": 0,
        "channel": 8,
        "type": "noteOn",
        "noteNumber": 31,
        "velocity": 99
    },
    {
        "deltaTime": 98,
        "channel": 3,
        "type": "noteOff",
        "noteNumber": 69,
        "velocity": 0,
        "byte9": true
    },
    {
        "deltaTime": 0,
        "channel": 3,
        "type": "noteOn",
        "noteNumber": 74,
        "velocity": 124
    },
    {
        "deltaTime": 0,
        "channel": 5,
        "type": "noteOn",
        "noteNumber": 74,
        "velocity": 109
    },
    {
        "deltaTime": 0,
        "running": true,
        "channel": 5,
        "type": "noteOn",
        "noteNumber": 79,
        "velocity": 94
    },
    {
        "deltaTime": 0,
        "running": true,
        "channel": 5,
        "type": "noteOn",
        "noteNumber": 82,
        "velocity": 101
    },
    {
        "deltaTime": 0,
        "channel": 9,
        "type": "noteOn",
        "noteNumber": 35,
        "velocity": 114
    },
    {
        "deltaTime": 0,
        "channel": 11,
        "type": "noteOn",
        "noteNumber": 41,
        "velocity": 114
    },
    {
        "deltaTime": 12,
        "channel": 9,
        "type": "noteOff",
        "noteNumber": 35,
        "velocity": 0,
        "byte9": true
    },
    {
        "deltaTime": 13,
        "channel": 14,
        "type": "noteOn",
        "noteNumber": 62,
        "velocity": 109
    },
    {
        "deltaTime": 0,
        "running": true,
        "channel": 14,
        "type": "noteOn",
        "noteNumber": 67,
        "velocity": 94
    },
    {
        "deltaTime": 0,
        "running": true,
        "channel": 14,
        "type": "noteOn",
        "noteNumber": 70,
        "velocity": 101
    },
    {
        "deltaTime": 130,
        "channel": 5,
        "type": "noteOff",
        "noteNumber": 82,
        "velocity": 0,
        "byte9": true
    },
    {
        "deltaTime": 6,
        "channel": 11,
        "type": "noteOff",
        "noteNumber": 41,
        "velocity": 0,
        "byte9": true
    },
    {
        "deltaTime": 10,
        "channel": 5,
        "type": "noteOff",
        "noteNumber": 74,
        "velocity": 0,
        "byte9": true
    },
    {
        "deltaTime": 0,
        "running": true,
        "channel": 5,
        "type": "noteOff",
        "noteNumber": 79,
        "velocity": 0,
        "byte9": true
    },
    {
        "deltaTime": 9,
        "channel": 14,
        "type": "noteOff",
        "noteNumber": 70,
        "velocity": 0,
        "byte9": true
    },
    {
        "deltaTime": 16,
        "running": true,
        "channel": 14,
        "type": "noteOff",
        "noteNumber": 62,
        "velocity": 0,
        "byte9": true
    },
    {
        "deltaTime": 0,
        "running": true,
        "channel": 14,
        "type": "noteOff",
        "noteNumber": 67,
        "velocity": 0,
        "byte9": true
    },
    {
        "deltaTime": 153,
        "channel": 3,
        "type": "noteOff",
        "noteNumber": 74,
        "velocity": 0,
        "byte9": true
    },
    {
        "deltaTime": 0,
        "channel": 3,
        "type": "noteOn",
        "noteNumber": 69,
        "velocity": 105
    },
    {
        "deltaTime": 0,
        "channel": 5,
        "type": "noteOn",
        "noteNumber": 74,
        "velocity": 108
    },
    {
        "deltaTime": 0,
        "running": true,
        "channel": 5,
        "type": "noteOn",
        "noteNumber": 79,
        "velocity": 97
    },
    {
        "deltaTime": 0,
        "running": true,
        "channel": 5,
        "type": "noteOn",
        "noteNumber": 82,
        "velocity": 98
    },
    {
        "deltaTime": 0,
        "channel": 9,
        "type": "noteOn",
        "noteNumber": 44,
        "velocity": 107
    },
    {
        "deltaTime": 0,
        "running": true,
        "channel": 9,
        "type": "noteOn",
        "noteNumber": 69,
        "velocity": 109
    },
    {
        "deltaTime": 0,
        "channel": 12,
        "type": "noteOn",
        "noteNumber": 58,
        "velocity": 97
    },
    {
        "deltaTime": 12,
        "channel": 9,
        "type": "noteOff",
        "noteNumber": 44,
        "velocity": 0,
        "byte9": true
    },
    {
        "deltaTime": 0,
        "running": true,
        "channel": 9,
        "type": "noteOff",
        "noteNumber": 69,
        "velocity": 0,
        "byte9": true
    },
    {
        "deltaTime": 13,
        "channel": 14,
        "type": "noteOn",
        "noteNumber": 62,
        "velocity": 108
    },
    {
        "deltaTime": 0,
        "running": true,
        "channel": 14,
        "type": "noteOn",
        "noteNumber": 67,
        "velocity": 97
    },
    {
        "deltaTime": 0,
        "running": true,
        "channel": 14,
        "type": "noteOn",
        "noteNumber": 70,
        "velocity": 98
    },
    {
        "deltaTime": 121,
        "channel": 5,
        "type": "noteOff",
        "noteNumber": 82,
        "velocity": 0,
        "byte9": true
    },
    {
        "deltaTime": 12,
        "running": true,
        "channel": 5,
        "type": "noteOff",
        "noteNumber": 74,
        "velocity": 0,
        "byte9": true
    },
    {
        "deltaTime": 3,
        "channel": 1,
        "type": "noteOff",
        "noteNumber": 31,
        "velocity": 0,
        "byte9": true
    },
    {
        "deltaTime": 0,
        "channel": 8,
        "type": "noteOff",
        "noteNumber": 31,
        "velocity": 0,
        "byte9": true
    },
    {
        "deltaTime": 2,
        "channel": 5,
        "type": "noteOff",
        "noteNumber": 79,
        "velocity": 0,
        "byte9": true
    },
    {
        "deltaTime": 8,
        "channel": 14,
        "type": "noteOff",
        "noteNumber": 70,
        "velocity": 0,
        "byte9": true
    },
    {
        "deltaTime": 12,
        "running": true,
        "channel": 14,
        "type": "noteOff",
        "noteNumber": 62,
        "velocity": 0,
        "byte9": true
    },
    {
        "deltaTime": 5,
        "running": true,
        "channel": 14,
        "type": "noteOff",
        "noteNumber": 67,
        "velocity": 0,
        "byte9": true
    },
    {
        "deltaTime": 71,
        "channel": 3,
        "type": "noteOff",
        "noteNumber": 69,
        "velocity": 0,
        "byte9": true
    },
    {
        "deltaTime": 61,
        "channel": 1,
        "type": "noteOn",
        "noteNumber": 31,
        "velocity": 99
    },
    {
        "deltaTime": 0,
        "channel": 8,
        "type": "noteOn",
        "noteNumber": 31,
        "velocity": 99
    },
    {
        "deltaTime": 0,
        "channel": 9,
        "type": "noteOn",
        "noteNumber": 35,
        "velocity": 114
    },
    {
        "deltaTime": 0,
        "channel": 11,
        "type": "noteOn",
        "noteNumber": 41,
        "velocity": 114
    },
    {
        "deltaTime": 12,
        "channel": 9,
        "type": "noteOff",
        "noteNumber": 35,
        "velocity": 0,
        "byte9": true
    },
    {
        "deltaTime": 144,
        "channel": 12,
        "type": "noteOff",
        "noteNumber": 58,
        "velocity": 0,
        "byte9": true
    },
    {
        "deltaTime": 0,
        "channel": 3,
        "type": "noteOn",
        "noteNumber": 74,
        "velocity": 119
    },
    {
        "deltaTime": 0,
        "channel": 5,
        "type": "noteOn",
        "noteNumber": 74,
        "velocity": 105
    },
    {
        "deltaTime": 0,
        "running": true,
        "channel": 5,
        "type": "noteOn",
        "noteNumber": 79,
        "velocity": 89
    },
    {
        "deltaTime": 0,
        "running": true,
        "channel": 5,
        "type": "noteOn",
        "noteNumber": 82,
        "velocity": 94
    },
    {
        "deltaTime": 0,
        "channel": 12,
        "type": "noteOn",
        "noteNumber": 57,
        "velocity": 97
    },
    {
        "deltaTime": 1,
        "channel": 11,
        "type": "noteOff",
        "noteNumber": 41,
        "velocity": 0,
        "byte9": true
    },
    {
        "deltaTime": 24,
        "channel": 14,
        "type": "noteOn",
        "noteNumber": 62,
        "velocity": 105
    },
    {
        "deltaTime": 0,
        "running": true,
        "channel": 14,
        "type": "noteOn",
        "noteNumber": 67,
        "velocity": 89
    },
    {
        "deltaTime": 0,
        "running": true,
        "channel": 14,
        "type": "noteOn",
        "noteNumber": 70,
        "velocity": 94
    },
    {
        "deltaTime": 121,
        "channel": 5,
        "type": "noteOff",
        "noteNumber": 82,
        "velocity": 0,
        "byte9": true
    },
    {
        "deltaTime": 22,
        "running": true,
        "channel": 5,
        "type": "noteOff",
        "noteNumber": 74,
        "velocity": 0,
        "byte9": true
    },
    {
        "deltaTime": 0,
        "running": true,
        "channel": 5,
        "type": "noteOff",
        "noteNumber": 79,
        "velocity": 0,
        "byte9": true
    },
    {
        "deltaTime": 3,
        "channel": 14,
        "type": "noteOff",
        "noteNumber": 70,
        "velocity": 0,
        "byte9": true
    },
    {
        "deltaTime": 22,
        "running": true,
        "channel": 14,
        "type": "noteOff",
        "noteNumber": 62,
        "velocity": 0,
        "byte9": true
    },
    {
        "deltaTime": 0,
        "running": true,
        "channel": 14,
        "type": "noteOff",
        "noteNumber": 67,
        "velocity": 0,
        "byte9": true
    },
    {
        "deltaTime": 113,
        "channel": 3,
        "type": "noteOff",
        "noteNumber": 74,
        "velocity": 0,
        "byte9": true
    },
    {
        "deltaTime": 10,
        "channel": 1,
        "type": "noteOff",
        "noteNumber": 31,
        "velocity": 0,
        "byte9": true
    },
    {
        "deltaTime": 0,
        "channel": 8,
        "type": "noteOff",
        "noteNumber": 31,
        "velocity": 0,
        "byte9": true
    },
    {
        "deltaTime": 4,
        "channel": 1,
        "type": "noteOn",
        "noteNumber": 32,
        "velocity": 99
    },
    {
        "deltaTime": 0,
        "channel": 8,
        "type": "noteOn",
        "noteNumber": 32,
        "velocity": 99
    },
    {
        "deltaTime": 0,
        "channel": 9,
        "type": "noteOn",
        "noteNumber": 35,
        "velocity": 114
    },
    {
        "deltaTime": 0,
        "running": true,
        "channel": 9,
        "type": "noteOn",
        "noteNumber": 70,
        "velocity": 65
    },
    {
        "deltaTime": 0,
        "channel": 11,
        "type": "noteOn",
        "noteNumber": 41,
        "velocity": 114
    },
    {
        "deltaTime": 12,
        "channel": 9,
        "type": "noteOff",
        "noteNumber": 35,
        "velocity": 0,
        "byte9": true
    },
    {
        "deltaTime": 0,
        "running": true,
        "channel": 9,
        "type": "noteOff",
        "noteNumber": 70,
        "velocity": 0,
        "byte9": true
    },
    {
        "deltaTime": 144,
        "channel": 12,
        "type": "noteOff",
        "noteNumber": 57,
        "velocity": 0,
        "byte9": true
    },
    {
        "deltaTime": 0,
        "channel": 3,
        "type": "noteOn",
        "noteNumber": 69,
        "velocity": 119
    },
    {
        "deltaTime": 0,
        "channel": 5,
        "type": "noteOn",
        "noteNumber": 74,
        "velocity": 109
    },
    {
        "deltaTime": 0,
        "running": true,
        "channel": 5,
        "type": "noteOn",
        "noteNumber": 79,
        "velocity": 97
    },
    {
        "deltaTime": 0,
        "running": true,
        "channel": 5,
        "type": "noteOn",
        "noteNumber": 82,
        "velocity": 110
    },
    {
        "deltaTime": 0,
        "channel": 9,
        "type": "noteOn",
        "noteNumber": 44,
        "velocity": 107
    },
    {
        "deltaTime": 0,
        "running": true,
        "channel": 9,
        "type": "noteOn",
        "noteNumber": 54,
        "velocity": 109
    },
    {
        "deltaTime": 0,
        "channel": 12,
        "type": "noteOn",
        "noteNumber": 55,
        "velocity": 97
    },
    {
        "deltaTime": 1,
        "channel": 11,
        "type": "noteOff",
        "noteNumber": 41,
        "velocity": 0,
        "byte9": true
    },
    {
        "deltaTime": 11,
        "channel": 9,
        "type": "noteOff",
        "noteNumber": 44,
        "velocity": 0,
        "byte9": true
    },
    {
        "deltaTime": 0,
        "running": true,
        "channel": 9,
        "type": "noteOff",
        "noteNumber": 54,
        "velocity": 0,
        "byte9": true
    },
    {
        "deltaTime": 13,
        "channel": 14,
        "type": "noteOn",
        "noteNumber": 62,
        "velocity": 109
    },
    {
        "deltaTime": 0,
        "running": true,
        "channel": 14,
        "type": "noteOn",
        "noteNumber": 67,
        "velocity": 97
    },
    {
        "deltaTime": 0,
        "running": true,
        "channel": 14,
        "type": "noteOn",
        "noteNumber": 70,
        "velocity": 110
    },
    {
        "deltaTime": 124,
        "channel": 5,
        "type": "noteOff",
        "noteNumber": 82,
        "velocity": 0,
        "byte9": true
    },
    {
        "deltaTime": 9,
        "running": true,
        "channel": 5,
        "type": "noteOff",
        "noteNumber": 74,
        "velocity": 0,
        "byte9": true
    },
    {
        "deltaTime": 3,
        "running": true,
        "channel": 5,
        "type": "noteOff",
        "noteNumber": 79,
        "velocity": 0,
        "byte9": true
    },
    {
        "deltaTime": 13,
        "channel": 14,
        "type": "noteOff",
        "noteNumber": 70,
        "velocity": 0,
        "byte9": true
    },
    {
        "deltaTime": 9,
        "running": true,
        "channel": 14,
        "type": "noteOff",
        "noteNumber": 62,
        "velocity": 0,
        "byte9": true
    },
    {
        "deltaTime": 3,
        "running": true,
        "channel": 14,
        "type": "noteOff",
        "noteNumber": 67,
        "velocity": 0,
        "byte9": true
    },
    {
        "deltaTime": 94,
        "channel": 3,
        "type": "noteOff",
        "noteNumber": 69,
        "velocity": 0,
        "byte9": true
    },
    {
        "deltaTime": 36,
        "channel": 1,
        "type": "noteOff",
        "noteNumber": 32,
        "velocity": 0,
        "byte9": true
    },
    {
        "deltaTime": 0,
        "channel": 8,
        "type": "noteOff",
        "noteNumber": 32,
        "velocity": 0,
        "byte9": true
    },
    {
        "deltaTime": 4,
        "channel": 1,
        "type": "noteOn",
        "noteNumber": 33,
        "velocity": 99
    },
    {
        "deltaTime": 0,
        "channel": 8,
        "type": "noteOn",
        "noteNumber": 33,
        "velocity": 99
    },
    {
        "deltaTime": 115,
        "channel": 4,
        "type": "noteOff",
        "noteNumber": 58,
        "velocity": 0,
        "byte9": true
    },
    {
        "deltaTime": 0,
        "running": true,
        "channel": 4,
        "type": "noteOff",
        "noteNumber": 62,
        "velocity": 0,
        "byte9": true
    },
    {
        "deltaTime": 0,
        "running": true,
        "channel": 4,
        "type": "noteOff",
        "noteNumber": 65,
        "velocity": 0,
        "byte9": true
    },
    {
        "deltaTime": 41,
        "channel": 1,
        "type": "noteOff",
        "noteNumber": 33,
        "velocity": 0,
        "byte9": true
    },
    {
        "deltaTime": 0,
        "channel": 8,
        "type": "noteOff",
        "noteNumber": 33,
        "velocity": 0,
        "byte9": true
    },
    {
        "deltaTime": 0,
        "channel": 12,
        "type": "noteOff",
        "noteNumber": 55,
        "velocity": 0,
        "byte9": true
    },
    {
        "deltaTime": 0,
        "channel": 1,
        "type": "noteOn",
        "noteNumber": 34,
        "velocity": 99
    },
    {
        "deltaTime": 0,
        "channel": 3,
        "type": "noteOn",
        "noteNumber": 74,
        "velocity": 124
    },
    {
        "deltaTime": 0,
        "channel": 4,
        "type": "noteOn",
        "noteNumber": 58,
        "velocity": 69
    },
    {
        "deltaTime": 0,
        "running": true,
        "channel": 4,
        "type": "noteOn",
        "noteNumber": 62,
        "velocity": 69
    },
    {
        "deltaTime": 0,
        "running": true,
        "channel": 4,
        "type": "noteOn",
        "noteNumber": 65,
        "velocity": 69
    },
    {
        "deltaTime": 0,
        "running": true,
        "channel": 4,
        "type": "noteOn",
        "noteNumber": 70,
        "velocity": 69
    },
    {
        "deltaTime": 0,
        "channel": 5,
        "type": "noteOn",
        "noteNumber": 74,
        "velocity": 101
    },
    {
        "deltaTime": 0,
        "running": true,
        "channel": 5,
        "type": "noteOn",
        "noteNumber": 77,
        "velocity": 97
    },
    {
        "deltaTime": 0,
        "running": true,
        "channel": 5,
        "type": "noteOn",
        "noteNumber": 82,
        "velocity": 105
    },
    {
        "deltaTime": 0,
        "channel": 8,
        "type": "noteOn",
        "noteNumber": 34,
        "velocity": 99
    },
    {
        "deltaTime": 0,
        "channel": 9,
        "type": "noteOn",
        "noteNumber": 35,
        "velocity": 114
    },
    {
        "deltaTime": 0,
        "channel": 11,
        "type": "noteOn",
        "noteNumber": 41,
        "velocity": 114
    },
    {
        "deltaTime": 0,
        "channel": 12,
        "type": "noteOn",
        "noteNumber": 58,
        "velocity": 97
    },
    {
        "deltaTime": 12,
        "channel": 9,
        "type": "noteOff",
        "noteNumber": 35,
        "velocity": 0,
        "byte9": true
    },
    {
        "deltaTime": 13,
        "channel": 14,
        "type": "noteOn",
        "noteNumber": 62,
        "velocity": 101
    },
    {
        "deltaTime": 0,
        "running": true,
        "channel": 14,
        "type": "noteOn",
        "noteNumber": 65,
        "velocity": 97
    },
    {
        "deltaTime": 0,
        "running": true,
        "channel": 14,
        "type": "noteOn",
        "noteNumber": 70,
        "velocity": 105
    },
    {
        "deltaTime": 48,
        "channel": 5,
        "type": "noteOff",
        "noteNumber": 82,
        "velocity": 0,
        "byte9": true
    },
    {
        "deltaTime": 25,
        "channel": 14,
        "type": "noteOff",
        "noteNumber": 70,
        "velocity": 0,
        "byte9": true
    },
    {
        "deltaTime": 23,
        "channel": 5,
        "type": "noteOff",
        "noteNumber": 77,
        "velocity": 0,
        "byte9": true
    },
    {
        "deltaTime": 2,
        "running": true,
        "channel": 5,
        "type": "noteOff",
        "noteNumber": 74,
        "velocity": 0,
        "byte9": true
    },
    {
        "deltaTime": 23,
        "channel": 14,
        "type": "noteOff",
        "noteNumber": 65,
        "velocity": 0,
        "byte9": true
    },
    {
        "deltaTime": 2,
        "running": true,
        "channel": 14,
        "type": "noteOff",
        "noteNumber": 62,
        "velocity": 0,
        "byte9": true
    },
    {
        "deltaTime": 13,
        "channel": 11,
        "type": "noteOff",
        "noteNumber": 41,
        "velocity": 0,
        "byte9": true
    },
    {
        "deltaTime": 188,
        "channel": 3,
        "type": "noteOff",
        "noteNumber": 74,
        "velocity": 0,
        "byte9": true
    },
    {
        "deltaTime": 0,
        "channel": 3,
        "type": "noteOn",
        "noteNumber": 69,
        "velocity": 105
    },
    {
        "deltaTime": 0,
        "channel": 5,
        "type": "noteOn",
        "noteNumber": 74,
        "velocity": 111
    },
    {
        "deltaTime": 0,
        "running": true,
        "channel": 5,
        "type": "noteOn",
        "noteNumber": 77,
        "velocity": 107
    },
    {
        "deltaTime": 0,
        "running": true,
        "channel": 5,
        "type": "noteOn",
        "noteNumber": 82,
        "velocity": 105
    },
    {
        "deltaTime": 0,
        "channel": 9,
        "type": "noteOn",
        "noteNumber": 44,
        "velocity": 107
    },
    {
        "deltaTime": 0,
        "running": true,
        "channel": 9,
        "type": "noteOn",
        "noteNumber": 69,
        "velocity": 109
    },
    {
        "deltaTime": 12,
        "running": true,
        "channel": 9,
        "type": "noteOff",
        "noteNumber": 44,
        "velocity": 0,
        "byte9": true
    },
    {
        "deltaTime": 0,
        "running": true,
        "channel": 9,
        "type": "noteOff",
        "noteNumber": 69,
        "velocity": 0,
        "byte9": true
    },
    {
        "deltaTime": 13,
        "channel": 14,
        "type": "noteOn",
        "noteNumber": 62,
        "velocity": 111
    },
    {
        "deltaTime": 0,
        "running": true,
        "channel": 14,
        "type": "noteOn",
        "noteNumber": 65,
        "velocity": 107
    },
    {
        "deltaTime": 0,
        "running": true,
        "channel": 14,
        "type": "noteOn",
        "noteNumber": 70,
        "velocity": 105
    },
    {
        "deltaTime": 132,
        "channel": 5,
        "type": "noteOff",
        "noteNumber": 82,
        "velocity": 0,
        "byte9": true
    },
    {
        "deltaTime": 7,
        "running": true,
        "channel": 5,
        "type": "noteOff",
        "noteNumber": 77,
        "velocity": 0,
        "byte9": true
    },
    {
        "deltaTime": 4,
        "running": true,
        "channel": 5,
        "type": "noteOff",
        "noteNumber": 74,
        "velocity": 0,
        "byte9": true
    },
    {
        "deltaTime": 14,
        "channel": 14,
        "type": "noteOff",
        "noteNumber": 70,
        "velocity": 0,
        "byte9": true
    },
    {
        "deltaTime": 7,
        "running": true,
        "channel": 14,
        "type": "noteOff",
        "noteNumber": 65,
        "velocity": 0,
        "byte9": true
    },
    {
        "deltaTime": 4,
        "running": true,
        "channel": 14,
        "type": "noteOff",
        "noteNumber": 62,
        "velocity": 0,
        "byte9": true
    },
    {
        "deltaTime": 66,
        "channel": 3,
        "type": "noteOff",
        "noteNumber": 69,
        "velocity": 0,
        "byte9": true
    },
    {
        "deltaTime": 2,
        "channel": 1,
        "type": "noteOff",
        "noteNumber": 34,
        "velocity": 0,
        "byte9": true
    },
    {
        "deltaTime": 0,
        "channel": 8,
        "type": "noteOff",
        "noteNumber": 34,
        "velocity": 0,
        "byte9": true
    },
    {
        "deltaTime": 59,
        "channel": 1,
        "type": "noteOn",
        "noteNumber": 34,
        "velocity": 99
    },
    {
        "deltaTime": 0,
        "channel": 8,
        "type": "noteOn",
        "noteNumber": 34,
        "velocity": 99
    },
    {
        "deltaTime": 0,
        "channel": 9,
        "type": "noteOn",
        "noteNumber": 35,
        "velocity": 107
    },
    {
        "deltaTime": 0,
        "channel": 11,
        "type": "noteOn",
        "noteNumber": 41,
        "velocity": 107
    },
    {
        "deltaTime": 12,
        "channel": 9,
        "type": "noteOff",
        "noteNumber": 35,
        "velocity": 0,
        "byte9": true
    },
    {
        "deltaTime": 144,
        "channel": 12,
        "type": "noteOff",
        "noteNumber": 58,
        "velocity": 0,
        "byte9": true
    },
    {
        "deltaTime": 0,
        "channel": 3,
        "type": "noteOn",
        "noteNumber": 74,
        "velocity": 119
    },
    {
        "deltaTime": 0,
        "channel": 5,
        "type": "noteOn",
        "noteNumber": 74,
        "velocity": 105
    },
    {
        "deltaTime": 0,
        "running": true,
        "channel": 5,
        "type": "noteOn",
        "noteNumber": 77,
        "velocity": 94
    },
    {
        "deltaTime": 0,
        "running": true,
        "channel": 5,
        "type": "noteOn",
        "noteNumber": 82,
        "velocity": 94
    },
    {
        "deltaTime": 0,
        "channel": 9,
        "type": "noteOn",
        "noteNumber": 35,
        "velocity": 114
    },
    {
        "deltaTime": 0,
        "channel": 11,
        "type": "noteOn",
        "noteNumber": 41,
        "velocity": 114
    },
    {
        "deltaTime": 0,
        "channel": 12,
        "type": "noteOn",
        "noteNumber": 57,
        "velocity": 97
    },
    {
        "deltaTime": 1,
        "channel": 11,
        "type": "noteOff",
        "noteNumber": 41,
        "velocity": 0,
        "byte9": true
    },
    {
        "deltaTime": 11,
        "channel": 9,
        "type": "noteOff",
        "noteNumber": 35,
        "velocity": 0,
        "byte9": true
    },
    {
        "deltaTime": 13,
        "channel": 14,
        "type": "noteOn",
        "noteNumber": 62,
        "velocity": 105
    },
    {
        "deltaTime": 0,
        "running": true,
        "channel": 14,
        "type": "noteOn",
        "noteNumber": 65,
        "velocity": 94
    },
    {
        "deltaTime": 0,
        "running": true,
        "channel": 14,
        "type": "noteOn",
        "noteNumber": 70,
        "velocity": 94
    },
    {
        "deltaTime": 130,
        "channel": 5,
        "type": "noteOff",
        "noteNumber": 82,
        "velocity": 0,
        "byte9": true
    },
    {
        "deltaTime": 6,
        "channel": 11,
        "type": "noteOff",
        "noteNumber": 41,
        "velocity": 0,
        "byte9": true
    },
    {
        "deltaTime": 2,
        "channel": 5,
        "type": "noteOff",
        "noteNumber": 74,
        "velocity": 0,
        "byte9": true
    },
    {
        "deltaTime": 4,
        "running": true,
        "channel": 5,
        "type": "noteOff",
        "noteNumber": 77,
        "velocity": 0,
        "byte9": true
    },
    {
        "deltaTime": 13,
        "channel": 14,
        "type": "noteOff",
        "noteNumber": 70,
        "velocity": 0,
        "byte9": true
    },
    {
        "deltaTime": 8,
        "running": true,
        "channel": 14,
        "type": "noteOff",
        "noteNumber": 62,
        "velocity": 0,
        "byte9": true
    },
    {
        "deltaTime": 4,
        "running": true,
        "channel": 14,
        "type": "noteOff",
        "noteNumber": 65,
        "velocity": 0,
        "byte9": true
    },
    {
        "deltaTime": 114,
        "channel": 3,
        "type": "noteOff",
        "noteNumber": 74,
        "velocity": 0,
        "byte9": true
    },
    {
        "deltaTime": 14,
        "channel": 9,
        "type": "noteOn",
        "noteNumber": 70,
        "velocity": 65
    },
    {
        "deltaTime": 12,
        "running": true,
        "channel": 9,
        "type": "noteOff",
        "noteNumber": 70,
        "velocity": 0,
        "byte9": true
    },
    {
        "deltaTime": 0,
        "channel": 3,
        "type": "noteOn",
        "noteNumber": 69,
        "velocity": 119
    },
    {
        "deltaTime": 0,
        "channel": 5,
        "type": "noteOn",
        "noteNumber": 74,
        "velocity": 109
    },
    {
        "deltaTime": 0,
        "running": true,
        "channel": 5,
        "type": "noteOn",
        "noteNumber": 77,
        "velocity": 94
    },
    {
        "deltaTime": 0,
        "running": true,
        "channel": 5,
        "type": "noteOn",
        "noteNumber": 82,
        "velocity": 94
    },
    {
        "deltaTime": 0,
        "channel": 9,
        "type": "noteOn",
        "noteNumber": 44,
        "velocity": 107
    },
    {
        "deltaTime": 0,
        "running": true,
        "channel": 9,
        "type": "noteOn",
        "noteNumber": 54,
        "velocity": 109
    },
    {
        "deltaTime": 12,
        "running": true,
        "channel": 9,
        "type": "noteOff",
        "noteNumber": 44,
        "velocity": 0,
        "byte9": true
    },
    {
        "deltaTime": 0,
        "running": true,
        "channel": 9,
        "type": "noteOff",
        "noteNumber": 54,
        "velocity": 0,
        "byte9": true
    },
    {
        "deltaTime": 13,
        "channel": 14,
        "type": "noteOn",
        "noteNumber": 62,
        "velocity": 109
    },
    {
        "deltaTime": 0,
        "running": true,
        "channel": 14,
        "type": "noteOn",
        "noteNumber": 65,
        "velocity": 94
    },
    {
        "deltaTime": 0,
        "running": true,
        "channel": 14,
        "type": "noteOn",
        "noteNumber": 70,
        "velocity": 94
    },
    {
        "deltaTime": 76,
        "channel": 1,
        "type": "noteOff",
        "noteNumber": 34,
        "velocity": 0,
        "byte9": true
    },
    {
        "deltaTime": 0,
        "channel": 8,
        "type": "noteOff",
        "noteNumber": 34,
        "velocity": 0,
        "byte9": true
    },
    {
        "deltaTime": 40,
        "channel": 5,
        "type": "noteOff",
        "noteNumber": 82,
        "velocity": 0,
        "byte9": true
    },
    {
        "deltaTime": 13,
        "running": true,
        "channel": 5,
        "type": "noteOff",
        "noteNumber": 74,
        "velocity": 0,
        "byte9": true
    },
    {
        "deltaTime": 0,
        "running": true,
        "channel": 5,
        "type": "noteOff",
        "noteNumber": 77,
        "velocity": 0,
        "byte9": true
    },
    {
        "deltaTime": 12,
        "channel": 14,
        "type": "noteOff",
        "noteNumber": 70,
        "velocity": 0,
        "byte9": true
    },
    {
        "deltaTime": 13,
        "running": true,
        "channel": 14,
        "type": "noteOff",
        "noteNumber": 62,
        "velocity": 0,
        "byte9": true
    },
    {
        "deltaTime": 0,
        "running": true,
        "channel": 14,
        "type": "noteOff",
        "noteNumber": 65,
        "velocity": 0,
        "byte9": true
    },
    {
        "deltaTime": 101,
        "channel": 3,
        "type": "noteOff",
        "noteNumber": 69,
        "velocity": 0,
        "byte9": true
    },
    {
        "deltaTime": 40,
        "channel": 1,
        "type": "noteOn",
        "noteNumber": 34,
        "velocity": 99
    },
    {
        "deltaTime": 0,
        "channel": 8,
        "type": "noteOn",
        "noteNumber": 34,
        "velocity": 99
    },
    {
        "deltaTime": 156,
        "channel": 12,
        "type": "noteOff",
        "noteNumber": 57,
        "velocity": 0,
        "byte9": true
    },
    {
        "deltaTime": 0,
        "channel": 3,
        "type": "noteOn",
        "noteNumber": 74,
        "velocity": 124
    },
    {
        "deltaTime": 0,
        "channel": 5,
        "type": "noteOn",
        "noteNumber": 74,
        "velocity": 109
    },
    {
        "deltaTime": 0,
        "running": true,
        "channel": 5,
        "type": "noteOn",
        "noteNumber": 77,
        "velocity": 94
    },
    {
        "deltaTime": 0,
        "running": true,
        "channel": 5,
        "type": "noteOn",
        "noteNumber": 82,
        "velocity": 101
    },
    {
        "deltaTime": 0,
        "channel": 9,
        "type": "noteOn",
        "noteNumber": 35,
        "velocity": 114
    },
    {
        "deltaTime": 0,
        "channel": 11,
        "type": "noteOn",
        "noteNumber": 41,
        "velocity": 114
    },
    {
        "deltaTime": 0,
        "channel": 12,
        "type": "noteOn",
        "noteNumber": 55,
        "velocity": 97
    },
    {
        "deltaTime": 12,
        "channel": 9,
        "type": "noteOff",
        "noteNumber": 35,
        "velocity": 0,
        "byte9": true
    },
    {
        "deltaTime": 13,
        "channel": 14,
        "type": "noteOn",
        "noteNumber": 62,
        "velocity": 109
    },
    {
        "deltaTime": 0,
        "running": true,
        "channel": 14,
        "type": "noteOn",
        "noteNumber": 65,
        "velocity": 94
    },
    {
        "deltaTime": 0,
        "running": true,
        "channel": 14,
        "type": "noteOn",
        "noteNumber": 70,
        "velocity": 101
    },
    {
        "deltaTime": 130,
        "channel": 5,
        "type": "noteOff",
        "noteNumber": 82,
        "velocity": 0,
        "byte9": true
    },
    {
        "deltaTime": 6,
        "channel": 11,
        "type": "noteOff",
        "noteNumber": 41,
        "velocity": 0,
        "byte9": true
    },
    {
        "deltaTime": 10,
        "channel": 5,
        "type": "noteOff",
        "noteNumber": 74,
        "velocity": 0,
        "byte9": true
    },
    {
        "deltaTime": 0,
        "running": true,
        "channel": 5,
        "type": "noteOff",
        "noteNumber": 77,
        "velocity": 0,
        "byte9": true
    },
    {
        "deltaTime": 9,
        "channel": 14,
        "type": "noteOff",
        "noteNumber": 70,
        "velocity": 0,
        "byte9": true
    },
    {
        "deltaTime": 16,
        "running": true,
        "channel": 14,
        "type": "noteOff",
        "noteNumber": 62,
        "velocity": 0,
        "byte9": true
    },
    {
        "deltaTime": 0,
        "running": true,
        "channel": 14,
        "type": "noteOff",
        "noteNumber": 65,
        "velocity": 0,
        "byte9": true
    },
    {
        "deltaTime": 153,
        "channel": 3,
        "type": "noteOff",
        "noteNumber": 74,
        "velocity": 0,
        "byte9": true
    },
    {
        "deltaTime": 0,
        "channel": 3,
        "type": "noteOn",
        "noteNumber": 69,
        "velocity": 105
    },
    {
        "deltaTime": 0,
        "channel": 5,
        "type": "noteOn",
        "noteNumber": 74,
        "velocity": 108
    },
    {
        "deltaTime": 0,
        "running": true,
        "channel": 5,
        "type": "noteOn",
        "noteNumber": 77,
        "velocity": 97
    },
    {
        "deltaTime": 0,
        "running": true,
        "channel": 5,
        "type": "noteOn",
        "noteNumber": 82,
        "velocity": 98
    },
    {
        "deltaTime": 0,
        "channel": 9,
        "type": "noteOn",
        "noteNumber": 44,
        "velocity": 107
    },
    {
        "deltaTime": 0,
        "running": true,
        "channel": 9,
        "type": "noteOn",
        "noteNumber": 69,
        "velocity": 109
    },
    {
        "deltaTime": 12,
        "running": true,
        "channel": 9,
        "type": "noteOff",
        "noteNumber": 44,
        "velocity": 0,
        "byte9": true
    },
    {
        "deltaTime": 0,
        "running": true,
        "channel": 9,
        "type": "noteOff",
        "noteNumber": 69,
        "velocity": 0,
        "byte9": true
    },
    {
        "deltaTime": 13,
        "channel": 14,
        "type": "noteOn",
        "noteNumber": 62,
        "velocity": 108
    },
    {
        "deltaTime": 0,
        "running": true,
        "channel": 14,
        "type": "noteOn",
        "noteNumber": 65,
        "velocity": 97
    },
    {
        "deltaTime": 0,
        "running": true,
        "channel": 14,
        "type": "noteOn",
        "noteNumber": 70,
        "velocity": 98
    },
    {
        "deltaTime": 76,
        "channel": 1,
        "type": "noteOff",
        "noteNumber": 34,
        "velocity": 0,
        "byte9": true
    },
    {
        "deltaTime": 0,
        "channel": 8,
        "type": "noteOff",
        "noteNumber": 34,
        "velocity": 0,
        "byte9": true
    },
    {
        "deltaTime": 45,
        "channel": 5,
        "type": "noteOff",
        "noteNumber": 82,
        "velocity": 0,
        "byte9": true
    },
    {
        "deltaTime": 12,
        "running": true,
        "channel": 5,
        "type": "noteOff",
        "noteNumber": 74,
        "velocity": 0,
        "byte9": true
    },
    {
        "deltaTime": 5,
        "running": true,
        "channel": 5,
        "type": "noteOff",
        "noteNumber": 77,
        "velocity": 0,
        "byte9": true
    },
    {
        "deltaTime": 8,
        "channel": 14,
        "type": "noteOff",
        "noteNumber": 70,
        "velocity": 0,
        "byte9": true
    },
    {
        "deltaTime": 12,
        "running": true,
        "channel": 14,
        "type": "noteOff",
        "noteNumber": 62,
        "velocity": 0,
        "byte9": true
    },
    {
        "deltaTime": 5,
        "running": true,
        "channel": 14,
        "type": "noteOff",
        "noteNumber": 65,
        "velocity": 0,
        "byte9": true
    },
    {
        "deltaTime": 71,
        "channel": 3,
        "type": "noteOff",
        "noteNumber": 69,
        "velocity": 0,
        "byte9": true
    },
    {
        "deltaTime": 0,
        "channel": 1,
        "type": "noteOn",
        "noteNumber": 34,
        "velocity": 99
    },
    {
        "deltaTime": 0,
        "channel": 3,
        "type": "noteOn",
        "noteNumber": 74,
        "velocity": 119
    },
    {
        "deltaTime": 0,
        "channel": 8,
        "type": "noteOn",
        "noteNumber": 34,
        "velocity": 99
    },
    {
        "deltaTime": 0,
        "channel": 9,
        "type": "noteOn",
        "noteNumber": 35,
        "velocity": 114
    },
    {
        "deltaTime": 0,
        "channel": 11,
        "type": "noteOn",
        "noteNumber": 41,
        "velocity": 114
    },
    {
        "deltaTime": 12,
        "channel": 9,
        "type": "noteOff",
        "noteNumber": 35,
        "velocity": 0,
        "byte9": true
    },
    {
        "deltaTime": 144,
        "channel": 12,
        "type": "noteOff",
        "noteNumber": 55,
        "velocity": 0,
        "byte9": true
    },
    {
        "deltaTime": 4,
        "channel": 5,
        "type": "noteOn",
        "noteNumber": 74,
        "velocity": 105
    },
    {
        "deltaTime": 0,
        "running": true,
        "channel": 5,
        "type": "noteOn",
        "noteNumber": 77,
        "velocity": 89
    },
    {
        "deltaTime": 0,
        "running": true,
        "channel": 5,
        "type": "noteOn",
        "noteNumber": 82,
        "velocity": 94
    },
    {
        "deltaTime": 0,
        "channel": 12,
        "type": "noteOn",
        "noteNumber": 53,
        "velocity": 97
    },
    {
        "deltaTime": 1,
        "channel": 11,
        "type": "noteOff",
        "noteNumber": 41,
        "velocity": 0,
        "byte9": true
    },
    {
        "deltaTime": 24,
        "channel": 14,
        "type": "noteOn",
        "noteNumber": 62,
        "velocity": 105
    },
    {
        "deltaTime": 0,
        "running": true,
        "channel": 14,
        "type": "noteOn",
        "noteNumber": 65,
        "velocity": 89
    },
    {
        "deltaTime": 0,
        "running": true,
        "channel": 14,
        "type": "noteOn",
        "noteNumber": 70,
        "velocity": 94
    },
    {
        "deltaTime": 121,
        "channel": 5,
        "type": "noteOff",
        "noteNumber": 82,
        "velocity": 0,
        "byte9": true
    },
    {
        "deltaTime": 22,
        "running": true,
        "channel": 5,
        "type": "noteOff",
        "noteNumber": 74,
        "velocity": 0,
        "byte9": true
    },
    {
        "deltaTime": 0,
        "running": true,
        "channel": 5,
        "type": "noteOff",
        "noteNumber": 77,
        "velocity": 0,
        "byte9": true
    },
    {
        "deltaTime": 3,
        "channel": 14,
        "type": "noteOff",
        "noteNumber": 70,
        "velocity": 0,
        "byte9": true
    },
    {
        "deltaTime": 22,
        "running": true,
        "channel": 14,
        "type": "noteOff",
        "noteNumber": 62,
        "velocity": 0,
        "byte9": true
    },
    {
        "deltaTime": 0,
        "running": true,
        "channel": 14,
        "type": "noteOff",
        "noteNumber": 65,
        "velocity": 0,
        "byte9": true
    },
    {
        "deltaTime": 123,
        "channel": 1,
        "type": "noteOff",
        "noteNumber": 34,
        "velocity": 0,
        "byte9": true
    },
    {
        "deltaTime": 0,
        "channel": 8,
        "type": "noteOff",
        "noteNumber": 34,
        "velocity": 0,
        "byte9": true
    },
    {
        "deltaTime": 4,
        "channel": 1,
        "type": "noteOn",
        "noteNumber": 41,
        "velocity": 99
    },
    {
        "deltaTime": 0,
        "channel": 8,
        "type": "noteOn",
        "noteNumber": 41,
        "velocity": 99
    },
    {
        "deltaTime": 0,
        "channel": 9,
        "type": "noteOn",
        "noteNumber": 35,
        "velocity": 114
    },
    {
        "deltaTime": 0,
        "running": true,
        "channel": 9,
        "type": "noteOn",
        "noteNumber": 70,
        "velocity": 65
    },
    {
        "deltaTime": 0,
        "channel": 11,
        "type": "noteOn",
        "noteNumber": 41,
        "velocity": 114
    },
    {
        "deltaTime": 12,
        "channel": 9,
        "type": "noteOff",
        "noteNumber": 35,
        "velocity": 0,
        "byte9": true
    },
    {
        "deltaTime": 0,
        "running": true,
        "channel": 9,
        "type": "noteOff",
        "noteNumber": 70,
        "velocity": 0,
        "byte9": true
    },
    {
        "deltaTime": 148,
        "channel": 5,
        "type": "noteOn",
        "noteNumber": 74,
        "velocity": 109
    },
    {
        "deltaTime": 0,
        "running": true,
        "channel": 5,
        "type": "noteOn",
        "noteNumber": 77,
        "velocity": 97
    },
    {
        "deltaTime": 0,
        "running": true,
        "channel": 5,
        "type": "noteOn",
        "noteNumber": 82,
        "velocity": 110
    },
    {
        "deltaTime": 0,
        "channel": 9,
        "type": "noteOn",
        "noteNumber": 44,
        "velocity": 107
    },
    {
        "deltaTime": 0,
        "running": true,
        "channel": 9,
        "type": "noteOn",
        "noteNumber": 54,
        "velocity": 109
    },
    {
        "deltaTime": 1,
        "channel": 11,
        "type": "noteOff",
        "noteNumber": 41,
        "velocity": 0,
        "byte9": true
    },
    {
        "deltaTime": 11,
        "channel": 9,
        "type": "noteOff",
        "noteNumber": 44,
        "velocity": 0,
        "byte9": true
    },
    {
        "deltaTime": 0,
        "running": true,
        "channel": 9,
        "type": "noteOff",
        "noteNumber": 54,
        "velocity": 0,
        "byte9": true
    },
    {
        "deltaTime": 13,
        "channel": 14,
        "type": "noteOn",
        "noteNumber": 62,
        "velocity": 109
    },
    {
        "deltaTime": 0,
        "running": true,
        "channel": 14,
        "type": "noteOn",
        "noteNumber": 65,
        "velocity": 97
    },
    {
        "deltaTime": 0,
        "running": true,
        "channel": 14,
        "type": "noteOn",
        "noteNumber": 70,
        "velocity": 110
    },
    {
        "deltaTime": 121,
        "channel": 3,
        "type": "noteOff",
        "noteNumber": 74,
        "velocity": 0,
        "byte9": true
    },
    {
        "deltaTime": 3,
        "channel": 5,
        "type": "noteOff",
        "noteNumber": 82,
        "velocity": 0,
        "byte9": true
    },
    {
        "deltaTime": 9,
        "running": true,
        "channel": 5,
        "type": "noteOff",
        "noteNumber": 74,
        "velocity": 0,
        "byte9": true
    },
    {
        "deltaTime": 3,
        "running": true,
        "channel": 5,
        "type": "noteOff",
        "noteNumber": 77,
        "velocity": 0,
        "byte9": true
    },
    {
        "deltaTime": 13,
        "channel": 14,
        "type": "noteOff",
        "noteNumber": 70,
        "velocity": 0,
        "byte9": true
    },
    {
        "deltaTime": 9,
        "running": true,
        "channel": 14,
        "type": "noteOff",
        "noteNumber": 62,
        "velocity": 0,
        "byte9": true
    },
    {
        "deltaTime": 3,
        "running": true,
        "channel": 14,
        "type": "noteOff",
        "noteNumber": 65,
        "velocity": 0,
        "byte9": true
    },
    {
        "deltaTime": 130,
        "channel": 1,
        "type": "noteOff",
        "noteNumber": 41,
        "velocity": 0,
        "byte9": true
    },
    {
        "deltaTime": 0,
        "channel": 8,
        "type": "noteOff",
        "noteNumber": 41,
        "velocity": 0,
        "byte9": true
    },
    {
        "deltaTime": 4,
        "channel": 1,
        "type": "noteOn",
        "noteNumber": 34,
        "velocity": 99
    },
    {
        "deltaTime": 0,
        "channel": 8,
        "type": "noteOn",
        "noteNumber": 34,
        "velocity": 99
    },
    {
        "deltaTime": 0,
        "channel": 1,
        "type": "noteOff",
        "noteNumber": 34,
        "velocity": 0,
        "byte9": true
    },
    {
        "deltaTime": 0,
        "channel": 8,
        "type": "noteOff",
        "noteNumber": 34,
        "velocity": 0,
        "byte9": true
    },
    {
        "deltaTime": 115,
        "channel": 4,
        "type": "noteOff",
        "noteNumber": 58,
        "velocity": 0,
        "byte9": true
    },
    {
        "deltaTime": 0,
        "running": true,
        "channel": 4,
        "type": "noteOff",
        "noteNumber": 62,
        "velocity": 0,
        "byte9": true
    },
    {
        "deltaTime": 0,
        "running": true,
        "channel": 4,
        "type": "noteOff",
        "noteNumber": 65,
        "velocity": 0,
        "byte9": true
    },
    {
        "deltaTime": 0,
        "running": true,
        "channel": 4,
        "type": "noteOff",
        "noteNumber": 70,
        "velocity": 0,
        "byte9": true
    },
    {
        "deltaTime": 41,
        "channel": 12,
        "type": "noteOff",
        "noteNumber": 53,
        "velocity": 0,
        "byte9": true
    },
    {
        "deltaTime": 4,
        "channel": 1,
        "type": "noteOn",
        "noteNumber": 33,
        "velocity": 99
    },
    {
        "deltaTime": 0,
        "channel": 4,
        "type": "noteOn",
        "noteNumber": 61,
        "velocity": 69
    },
    {
        "deltaTime": 0,
        "running": true,
        "channel": 4,
        "type": "noteOn",
        "noteNumber": 64,
        "velocity": 69
    },
    {
        "deltaTime": 0,
        "running": true,
        "channel": 4,
        "type": "noteOn",
        "noteNumber": 69,
        "velocity": 69
    },
    {
        "deltaTime": 0,
        "channel": 5,
        "type": "noteOn",
        "noteNumber": 73,
        "velocity": 101
    },
    {
        "deltaTime": 0,
        "running": true,
        "channel": 5,
        "type": "noteOn",
        "noteNumber": 76,
        "velocity": 97
    },
    {
        "deltaTime": 0,
        "running": true,
        "channel": 5,
        "type": "noteOn",
        "noteNumber": 81,
        "velocity": 105
    },
    {
        "deltaTime": 0,
        "channel": 7,
        "type": "noteOn",
        "noteNumber": 81,
        "velocity": 119
    },
    {
        "deltaTime": 0,
        "channel": 8,
        "type": "noteOn",
        "noteNumber": 33,
        "velocity": 99
    },
    {
        "deltaTime": 0,
        "channel": 9,
        "type": "noteOn",
        "noteNumber": 35,
        "velocity": 114
    },
    {
        "deltaTime": 0,
        "channel": 11,
        "type": "noteOn",
        "noteNumber": 41,
        "velocity": 114
    },
    {
        "deltaTime": 0,
        "channel": 12,
        "type": "noteOn",
        "noteNumber": 52,
        "velocity": 97
    },
    {
        "deltaTime": 12,
        "channel": 9,
        "type": "noteOff",
        "noteNumber": 35,
        "velocity": 0,
        "byte9": true
    },
    {
        "deltaTime": 13,
        "channel": 14,
        "type": "noteOn",
        "noteNumber": 61,
        "velocity": 101
    },
    {
        "deltaTime": 0,
        "running": true,
        "channel": 14,
        "type": "noteOn",
        "noteNumber": 64,
        "velocity": 97
    },
    {
        "deltaTime": 0,
        "running": true,
        "channel": 14,
        "type": "noteOn",
        "noteNumber": 69,
        "velocity": 105
    },
    {
        "deltaTime": 48,
        "channel": 5,
        "type": "noteOff",
        "noteNumber": 81,
        "velocity": 0,
        "byte9": true
    },
    {
        "deltaTime": 25,
        "channel": 14,
        "type": "noteOff",
        "noteNumber": 69,
        "velocity": 0,
        "byte9": true
    },
    {
        "deltaTime": 23,
        "channel": 5,
        "type": "noteOff",
        "noteNumber": 76,
        "velocity": 0,
        "byte9": true
    },
    {
        "deltaTime": 2,
        "running": true,
        "channel": 5,
        "type": "noteOff",
        "noteNumber": 73,
        "velocity": 0,
        "byte9": true
    },
    {
        "deltaTime": 23,
        "channel": 14,
        "type": "noteOff",
        "noteNumber": 64,
        "velocity": 0,
        "byte9": true
    },
    {
        "deltaTime": 2,
        "running": true,
        "channel": 14,
        "type": "noteOff",
        "noteNumber": 61,
        "velocity": 0,
        "byte9": true
    },
    {
        "deltaTime": 13,
        "channel": 11,
        "type": "noteOff",
        "noteNumber": 41,
        "velocity": 0,
        "byte9": true
    },
    {
        "deltaTime": 0,
        "channel": 3,
        "type": "noteOn",
        "noteNumber": 73,
        "velocity": 122
    },
    {
        "deltaTime": 87,
        "running": true,
        "channel": 3,
        "type": "noteOff",
        "noteNumber": 73,
        "velocity": 0,
        "byte9": true
    },
    {
        "deltaTime": 0,
        "channel": 3,
        "type": "noteOn",
        "noteNumber": 73,
        "velocity": 122
    },
    {
        "deltaTime": 53,
        "channel": 5,
        "type": "noteOn",
        "noteNumber": 73,
        "velocity": 111
    },
    {
        "deltaTime": 0,
        "running": true,
        "channel": 5,
        "type": "noteOn",
        "noteNumber": 76,
        "velocity": 107
    },
    {
        "deltaTime": 0,
        "running": true,
        "channel": 5,
        "type": "noteOn",
        "noteNumber": 81,
        "velocity": 105
    },
    {
        "deltaTime": 0,
        "channel": 9,
        "type": "noteOn",
        "noteNumber": 44,
        "velocity": 107
    },
    {
        "deltaTime": 0,
        "running": true,
        "channel": 9,
        "type": "noteOn",
        "noteNumber": 69,
        "velocity": 109
    },
    {
        "deltaTime": 12,
        "running": true,
        "channel": 9,
        "type": "noteOff",
        "noteNumber": 44,
        "velocity": 0,
        "byte9": true
    },
    {
        "deltaTime": 0,
        "running": true,
        "channel": 9,
        "type": "noteOff",
        "noteNumber": 69,
        "velocity": 0,
        "byte9": true
    },
    {
        "deltaTime": 13,
        "channel": 14,
        "type": "noteOn",
        "noteNumber": 61,
        "velocity": 111
    },
    {
        "deltaTime": 0,
        "running": true,
        "channel": 14,
        "type": "noteOn",
        "noteNumber": 64,
        "velocity": 107
    },
    {
        "deltaTime": 0,
        "running": true,
        "channel": 14,
        "type": "noteOn",
        "noteNumber": 69,
        "velocity": 105
    },
    {
        "deltaTime": 132,
        "channel": 5,
        "type": "noteOff",
        "noteNumber": 81,
        "velocity": 0,
        "byte9": true
    },
    {
        "deltaTime": 4,
        "channel": 7,
        "type": "noteOff",
        "noteNumber": 81,
        "velocity": 0,
        "byte9": true
    },
    {
        "deltaTime": 3,
        "channel": 5,
        "type": "noteOff",
        "noteNumber": 76,
        "velocity": 0,
        "byte9": true
    },
    {
        "deltaTime": 4,
        "running": true,
        "channel": 5,
        "type": "noteOff",
        "noteNumber": 73,
        "velocity": 0,
        "byte9": true
    },
    {
        "deltaTime": 14,
        "channel": 14,
        "type": "noteOff",
        "noteNumber": 69,
        "velocity": 0,
        "byte9": true
    },
    {
        "deltaTime": 7,
        "running": true,
        "channel": 14,
        "type": "noteOff",
        "noteNumber": 64,
        "velocity": 0,
        "byte9": true
    },
    {
        "deltaTime": 4,
        "running": true,
        "channel": 14,
        "type": "noteOff",
        "noteNumber": 61,
        "velocity": 0,
        "byte9": true
    },
    {
        "deltaTime": 68,
        "channel": 1,
        "type": "noteOff",
        "noteNumber": 33,
        "velocity": 0,
        "byte9": true
    },
    {
        "deltaTime": 0,
        "channel": 8,
        "type": "noteOff",
        "noteNumber": 33,
        "velocity": 0,
        "byte9": true
    },
    {
        "deltaTime": 59,
        "channel": 1,
        "type": "noteOn",
        "noteNumber": 33,
        "velocity": 99
    },
    {
        "deltaTime": 0,
        "channel": 8,
        "type": "noteOn",
        "noteNumber": 33,
        "velocity": 99
    },
    {
        "deltaTime": 0,
        "channel": 9,
        "type": "noteOn",
        "noteNumber": 35,
        "velocity": 107
    },
    {
        "deltaTime": 0,
        "channel": 11,
        "type": "noteOn",
        "noteNumber": 41,
        "velocity": 107
    },
    {
        "deltaTime": 12,
        "channel": 9,
        "type": "noteOff",
        "noteNumber": 35,
        "velocity": 0,
        "byte9": true
    },
    {
        "deltaTime": 148,
        "channel": 5,
        "type": "noteOn",
        "noteNumber": 73,
        "velocity": 105
    },
    {
        "deltaTime": 0,
        "running": true,
        "channel": 5,
        "type": "noteOn",
        "noteNumber": 76,
        "velocity": 94
    },
    {
        "deltaTime": 0,
        "running": true,
        "channel": 5,
        "type": "noteOn",
        "noteNumber": 81,
        "velocity": 94
    },
    {
        "deltaTime": 0,
        "channel": 9,
        "type": "noteOn",
        "noteNumber": 35,
        "velocity": 114
    },
    {
        "deltaTime": 0,
        "channel": 11,
        "type": "noteOn",
        "noteNumber": 41,
        "velocity": 114
    },
    {
        "deltaTime": 1,
        "running": true,
        "channel": 11,
        "type": "noteOff",
        "noteNumber": 41,
        "velocity": 0,
        "byte9": true
    },
    {
        "deltaTime": 11,
        "channel": 9,
        "type": "noteOff",
        "noteNumber": 35,
        "velocity": 0,
        "byte9": true
    },
    {
        "deltaTime": 13,
        "channel": 14,
        "type": "noteOn",
        "noteNumber": 61,
        "velocity": 105
    },
    {
        "deltaTime": 0,
        "running": true,
        "channel": 14,
        "type": "noteOn",
        "noteNumber": 64,
        "velocity": 94
    },
    {
        "deltaTime": 0,
        "running": true,
        "channel": 14,
        "type": "noteOn",
        "noteNumber": 69,
        "velocity": 94
    },
    {
        "deltaTime": 130,
        "channel": 5,
        "type": "noteOff",
        "noteNumber": 81,
        "velocity": 0,
        "byte9": true
    },
    {
        "deltaTime": 6,
        "channel": 11,
        "type": "noteOff",
        "noteNumber": 41,
        "velocity": 0,
        "byte9": true
    },
    {
        "deltaTime": 2,
        "channel": 5,
        "type": "noteOff",
        "noteNumber": 73,
        "velocity": 0,
        "byte9": true
    },
    {
        "deltaTime": 4,
        "running": true,
        "channel": 5,
        "type": "noteOff",
        "noteNumber": 76,
        "velocity": 0,
        "byte9": true
    },
    {
        "deltaTime": 13,
        "channel": 14,
        "type": "noteOff",
        "noteNumber": 69,
        "velocity": 0,
        "byte9": true
    },
    {
        "deltaTime": 8,
        "running": true,
        "channel": 14,
        "type": "noteOff",
        "noteNumber": 61,
        "velocity": 0,
        "byte9": true
    },
    {
        "deltaTime": 4,
        "running": true,
        "channel": 14,
        "type": "noteOff",
        "noteNumber": 64,
        "velocity": 0,
        "byte9": true
    },
    {
        "deltaTime": 128,
        "channel": 9,
        "type": "noteOn",
        "noteNumber": 70,
        "velocity": 65
    },
    {
        "deltaTime": 12,
        "running": true,
        "channel": 9,
        "type": "noteOff",
        "noteNumber": 70,
        "velocity": 0,
        "byte9": true
    },
    {
        "deltaTime": 148,
        "channel": 5,
        "type": "noteOn",
        "noteNumber": 73,
        "velocity": 109
    },
    {
        "deltaTime": 0,
        "running": true,
        "channel": 5,
        "type": "noteOn",
        "noteNumber": 76,
        "velocity": 94
    },
    {
        "deltaTime": 0,
        "running": true,
        "channel": 5,
        "type": "noteOn",
        "noteNumber": 81,
        "velocity": 94
    },
    {
        "deltaTime": 0,
        "channel": 9,
        "type": "noteOn",
        "noteNumber": 44,
        "velocity": 107
    },
    {
        "deltaTime": 0,
        "running": true,
        "channel": 9,
        "type": "noteOn",
        "noteNumber": 54,
        "velocity": 109
    },
    {
        "deltaTime": 12,
        "running": true,
        "channel": 9,
        "type": "noteOff",
        "noteNumber": 44,
        "velocity": 0,
        "byte9": true
    },
    {
        "deltaTime": 0,
        "running": true,
        "channel": 9,
        "type": "noteOff",
        "noteNumber": 54,
        "velocity": 0,
        "byte9": true
    },
    {
        "deltaTime": 13,
        "channel": 14,
        "type": "noteOn",
        "noteNumber": 61,
        "velocity": 109
    },
    {
        "deltaTime": 0,
        "running": true,
        "channel": 14,
        "type": "noteOn",
        "noteNumber": 64,
        "velocity": 94
    },
    {
        "deltaTime": 0,
        "running": true,
        "channel": 14,
        "type": "noteOn",
        "noteNumber": 69,
        "velocity": 94
    },
    {
        "deltaTime": 76,
        "channel": 1,
        "type": "noteOff",
        "noteNumber": 33,
        "velocity": 0,
        "byte9": true
    },
    {
        "deltaTime": 0,
        "channel": 8,
        "type": "noteOff",
        "noteNumber": 33,
        "velocity": 0,
        "byte9": true
    },
    {
        "deltaTime": 40,
        "channel": 5,
        "type": "noteOff",
        "noteNumber": 81,
        "velocity": 0,
        "byte9": true
    },
    {
        "deltaTime": 13,
        "running": true,
        "channel": 5,
        "type": "noteOff",
        "noteNumber": 73,
        "velocity": 0,
        "byte9": true
    },
    {
        "deltaTime": 0,
        "running": true,
        "channel": 5,
        "type": "noteOff",
        "noteNumber": 76,
        "velocity": 0,
        "byte9": true
    },
    {
        "deltaTime": 12,
        "channel": 14,
        "type": "noteOff",
        "noteNumber": 69,
        "velocity": 0,
        "byte9": true
    },
    {
        "deltaTime": 13,
        "running": true,
        "channel": 14,
        "type": "noteOff",
        "noteNumber": 61,
        "velocity": 0,
        "byte9": true
    },
    {
        "deltaTime": 0,
        "running": true,
        "channel": 14,
        "type": "noteOff",
        "noteNumber": 64,
        "velocity": 0,
        "byte9": true
    },
    {
        "deltaTime": 141,
        "channel": 1,
        "type": "noteOn",
        "noteNumber": 33,
        "velocity": 99
    },
    {
        "deltaTime": 0,
        "channel": 8,
        "type": "noteOn",
        "noteNumber": 33,
        "velocity": 99
    },
    {
        "deltaTime": 156,
        "channel": 12,
        "type": "noteOff",
        "noteNumber": 52,
        "velocity": 0,
        "byte9": true
    },
    {
        "deltaTime": 4,
        "channel": 5,
        "type": "noteOn",
        "noteNumber": 73,
        "velocity": 109
    },
    {
        "deltaTime": 0,
        "running": true,
        "channel": 5,
        "type": "noteOn",
        "noteNumber": 76,
        "velocity": 94
    },
    {
        "deltaTime": 0,
        "running": true,
        "channel": 5,
        "type": "noteOn",
        "noteNumber": 81,
        "velocity": 101
    },
    {
        "deltaTime": 0,
        "channel": 7,
        "type": "noteOn",
        "noteNumber": 81,
        "velocity": 119
    },
    {
        "deltaTime": 0,
        "channel": 9,
        "type": "noteOn",
        "noteNumber": 35,
        "velocity": 114
    },
    {
        "deltaTime": 0,
        "channel": 11,
        "type": "noteOn",
        "noteNumber": 41,
        "velocity": 114
    },
    {
        "deltaTime": 0,
        "channel": 12,
        "type": "noteOn",
        "noteNumber": 55,
        "velocity": 97
    },
    {
        "deltaTime": 12,
        "channel": 9,
        "type": "noteOff",
        "noteNumber": 35,
        "velocity": 0,
        "byte9": true
    },
    {
        "deltaTime": 9,
        "channel": 3,
        "type": "noteOff",
        "noteNumber": 73,
        "velocity": 0,
        "byte9": true
    },
    {
        "deltaTime": 4,
        "channel": 14,
        "type": "noteOn",
        "noteNumber": 61,
        "velocity": 109
    },
    {
        "deltaTime": 0,
        "running": true,
        "channel": 14,
        "type": "noteOn",
        "noteNumber": 64,
        "velocity": 94
    },
    {
        "deltaTime": 0,
        "running": true,
        "channel": 14,
        "type": "noteOn",
        "noteNumber": 69,
        "velocity": 101
    },
    {
        "deltaTime": 130,
        "channel": 5,
        "type": "noteOff",
        "noteNumber": 81,
        "velocity": 0,
        "byte9": true
    },
    {
        "deltaTime": 6,
        "channel": 11,
        "type": "noteOff",
        "noteNumber": 41,
        "velocity": 0,
        "byte9": true
    },
    {
        "deltaTime": 10,
        "channel": 5,
        "type": "noteOff",
        "noteNumber": 73,
        "velocity": 0,
        "byte9": true
    },
    {
        "deltaTime": 0,
        "running": true,
        "channel": 5,
        "type": "noteOff",
        "noteNumber": 76,
        "velocity": 0,
        "byte9": true
    },
    {
        "deltaTime": 9,
        "channel": 14,
        "type": "noteOff",
        "noteNumber": 69,
        "velocity": 0,
        "byte9": true
    },
    {
        "deltaTime": 16,
        "running": true,
        "channel": 14,
        "type": "noteOff",
        "noteNumber": 61,
        "velocity": 0,
        "byte9": true
    },
    {
        "deltaTime": 0,
        "running": true,
        "channel": 14,
        "type": "noteOff",
        "noteNumber": 64,
        "velocity": 0,
        "byte9": true
    },
    {
        "deltaTime": 280,
        "channel": 7,
        "type": "noteOff",
        "noteNumber": 81,
        "velocity": 0,
        "byte9": true
    },
    {
        "deltaTime": 4,
        "channel": 5,
        "type": "noteOn",
        "noteNumber": 73,
        "velocity": 108
    },
    {
        "deltaTime": 0,
        "running": true,
        "channel": 5,
        "type": "noteOn",
        "noteNumber": 76,
        "velocity": 97
    },
    {
        "deltaTime": 0,
        "running": true,
        "channel": 5,
        "type": "noteOn",
        "noteNumber": 81,
        "velocity": 98
    },
    {
        "deltaTime": 0,
        "channel": 7,
        "type": "noteOn",
        "noteNumber": 79,
        "velocity": 119
    },
    {
        "deltaTime": 0,
        "channel": 9,
        "type": "noteOn",
        "noteNumber": 44,
        "velocity": 107
    },
    {
        "deltaTime": 0,
        "running": true,
        "channel": 9,
        "type": "noteOn",
        "noteNumber": 69,
        "velocity": 109
    },
    {
        "deltaTime": 12,
        "running": true,
        "channel": 9,
        "type": "noteOff",
        "noteNumber": 44,
        "velocity": 0,
        "byte9": true
    },
    {
        "deltaTime": 0,
        "running": true,
        "channel": 9,
        "type": "noteOff",
        "noteNumber": 69,
        "velocity": 0,
        "byte9": true
    },
    {
        "deltaTime": 13,
        "channel": 14,
        "type": "noteOn",
        "noteNumber": 61,
        "velocity": 108
    },
    {
        "deltaTime": 0,
        "running": true,
        "channel": 14,
        "type": "noteOn",
        "noteNumber": 64,
        "velocity": 97
    },
    {
        "deltaTime": 0,
        "running": true,
        "channel": 14,
        "type": "noteOn",
        "noteNumber": 69,
        "velocity": 98
    },
    {
        "deltaTime": 76,
        "channel": 1,
        "type": "noteOff",
        "noteNumber": 33,
        "velocity": 0,
        "byte9": true
    },
    {
        "deltaTime": 0,
        "channel": 8,
        "type": "noteOff",
        "noteNumber": 33,
        "velocity": 0,
        "byte9": true
    },
    {
        "deltaTime": 45,
        "channel": 5,
        "type": "noteOff",
        "noteNumber": 81,
        "velocity": 0,
        "byte9": true
    },
    {
        "deltaTime": 12,
        "running": true,
        "channel": 5,
        "type": "noteOff",
        "noteNumber": 73,
        "velocity": 0,
        "byte9": true
    },
    {
        "deltaTime": 5,
        "running": true,
        "channel": 5,
        "type": "noteOff",
        "noteNumber": 76,
        "velocity": 0,
        "byte9": true
    },
    {
        "deltaTime": 8,
        "channel": 14,
        "type": "noteOff",
        "noteNumber": 69,
        "velocity": 0,
        "byte9": true
    },
    {
        "deltaTime": 12,
        "running": true,
        "channel": 14,
        "type": "noteOff",
        "noteNumber": 61,
        "velocity": 0,
        "byte9": true
    },
    {
        "deltaTime": 5,
        "running": true,
        "channel": 14,
        "type": "noteOff",
        "noteNumber": 64,
        "velocity": 0,
        "byte9": true
    },
    {
        "deltaTime": 132,
        "channel": 1,
        "type": "noteOn",
        "noteNumber": 33,
        "velocity": 99
    },
    {
        "deltaTime": 0,
        "channel": 8,
        "type": "noteOn",
        "noteNumber": 33,
        "velocity": 99
    },
    {
        "deltaTime": 0,
        "channel": 9,
        "type": "noteOn",
        "noteNumber": 35,
        "velocity": 114
    },
    {
        "deltaTime": 0,
        "channel": 11,
        "type": "noteOn",
        "noteNumber": 41,
        "velocity": 114
    },
    {
        "deltaTime": 12,
        "channel": 9,
        "type": "noteOff",
        "noteNumber": 35,
        "velocity": 0,
        "byte9": true
    },
    {
        "deltaTime": 144,
        "channel": 7,
        "type": "noteOff",
        "noteNumber": 79,
        "velocity": 0,
        "byte9": true
    },
    {
        "deltaTime": 4,
        "channel": 5,
        "type": "noteOn",
        "noteNumber": 73,
        "velocity": 105
    },
    {
        "deltaTime": 0,
        "running": true,
        "channel": 5,
        "type": "noteOn",
        "noteNumber": 76,
        "velocity": 89
    },
    {
        "deltaTime": 0,
        "running": true,
        "channel": 5,
        "type": "noteOn",
        "noteNumber": 81,
        "velocity": 94
    },
    {
        "deltaTime": 0,
        "channel": 7,
        "type": "noteOn",
        "noteNumber": 77,
        "velocity": 119
    },
    {
        "deltaTime": 0,
        "channel": 12,
        "type": "noteOn",
        "noteNumber": 55,
        "velocity": 119
    },
    {
        "deltaTime": 1,
        "channel": 11,
        "type": "noteOff",
        "noteNumber": 41,
        "velocity": 0,
        "byte9": true
    },
    {
        "deltaTime": 24,
        "channel": 14,
        "type": "noteOn",
        "noteNumber": 61,
        "velocity": 105
    },
    {
        "deltaTime": 0,
        "running": true,
        "channel": 14,
        "type": "noteOn",
        "noteNumber": 64,
        "velocity": 89
    },
    {
        "deltaTime": 0,
        "running": true,
        "channel": 14,
        "type": "noteOn",
        "noteNumber": 69,
        "velocity": 94
    },
    {
        "deltaTime": 121,
        "channel": 5,
        "type": "noteOff",
        "noteNumber": 81,
        "velocity": 0,
        "byte9": true
    },
    {
        "deltaTime": 22,
        "running": true,
        "channel": 5,
        "type": "noteOff",
        "noteNumber": 73,
        "velocity": 0,
        "byte9": true
    },
    {
        "deltaTime": 0,
        "running": true,
        "channel": 5,
        "type": "noteOff",
        "noteNumber": 76,
        "velocity": 0,
        "byte9": true
    },
    {
        "deltaTime": 3,
        "channel": 14,
        "type": "noteOff",
        "noteNumber": 69,
        "velocity": 0,
        "byte9": true
    },
    {
        "deltaTime": 22,
        "running": true,
        "channel": 14,
        "type": "noteOff",
        "noteNumber": 61,
        "velocity": 0,
        "byte9": true
    },
    {
        "deltaTime": 0,
        "running": true,
        "channel": 14,
        "type": "noteOff",
        "noteNumber": 64,
        "velocity": 0,
        "byte9": true
    },
    {
        "deltaTime": 109,
        "channel": 12,
        "type": "noteOff",
        "noteNumber": 55,
        "velocity": 0,
        "byte9": true
    },
    {
        "deltaTime": 14,
        "channel": 1,
        "type": "noteOff",
        "noteNumber": 33,
        "velocity": 0,
        "byte9": true
    },
    {
        "deltaTime": 0,
        "channel": 8,
        "type": "noteOff",
        "noteNumber": 33,
        "velocity": 0,
        "byte9": true
    },
    {
        "deltaTime": 4,
        "channel": 1,
        "type": "noteOn",
        "noteNumber": 36,
        "velocity": 99
    },
    {
        "deltaTime": 0,
        "channel": 8,
        "type": "noteOn",
        "noteNumber": 36,
        "velocity": 99
    },
    {
        "deltaTime": 0,
        "channel": 9,
        "type": "noteOn",
        "noteNumber": 35,
        "velocity": 114
    },
    {
        "deltaTime": 0,
        "running": true,
        "channel": 9,
        "type": "noteOn",
        "noteNumber": 70,
        "velocity": 65
    },
    {
        "deltaTime": 0,
        "channel": 11,
        "type": "noteOn",
        "noteNumber": 41,
        "velocity": 114
    },
    {
        "deltaTime": 0,
        "channel": 12,
        "type": "noteOn",
        "noteNumber": 57,
        "velocity": 114
    },
    {
        "deltaTime": 12,
        "channel": 9,
        "type": "noteOff",
        "noteNumber": 35,
        "velocity": 0,
        "byte9": true
    },
    {
        "deltaTime": 0,
        "running": true,
        "channel": 9,
        "type": "noteOff",
        "noteNumber": 70,
        "velocity": 0,
        "byte9": true
    },
    {
        "deltaTime": 144,
        "channel": 7,
        "type": "noteOff",
        "noteNumber": 77,
        "velocity": 0,
        "byte9": true
    },
    {
        "deltaTime": 4,
        "channel": 5,
        "type": "noteOn",
        "noteNumber": 73,
        "velocity": 109
    },
    {
        "deltaTime": 0,
        "running": true,
        "channel": 5,
        "type": "noteOn",
        "noteNumber": 76,
        "velocity": 97
    },
    {
        "deltaTime": 0,
        "running": true,
        "channel": 5,
        "type": "noteOn",
        "noteNumber": 81,
        "velocity": 110
    },
    {
        "deltaTime": 0,
        "channel": 7,
        "type": "noteOn",
        "noteNumber": 76,
        "velocity": 119
    },
    {
        "deltaTime": 0,
        "channel": 9,
        "type": "noteOn",
        "noteNumber": 44,
        "velocity": 107
    },
    {
        "deltaTime": 0,
        "running": true,
        "channel": 9,
        "type": "noteOn",
        "noteNumber": 54,
        "velocity": 109
    },
    {
        "deltaTime": 1,
        "channel": 11,
        "type": "noteOff",
        "noteNumber": 41,
        "velocity": 0,
        "byte9": true
    },
    {
        "deltaTime": 11,
        "channel": 9,
        "type": "noteOff",
        "noteNumber": 44,
        "velocity": 0,
        "byte9": true
    },
    {
        "deltaTime": 0,
        "running": true,
        "channel": 9,
        "type": "noteOff",
        "noteNumber": 54,
        "velocity": 0,
        "byte9": true
    },
    {
        "deltaTime": 13,
        "channel": 14,
        "type": "noteOn",
        "noteNumber": 61,
        "velocity": 109
    },
    {
        "deltaTime": 0,
        "running": true,
        "channel": 14,
        "type": "noteOn",
        "noteNumber": 64,
        "velocity": 97
    },
    {
        "deltaTime": 0,
        "running": true,
        "channel": 14,
        "type": "noteOn",
        "noteNumber": 69,
        "velocity": 110
    },
    {
        "deltaTime": 124,
        "channel": 5,
        "type": "noteOff",
        "noteNumber": 81,
        "velocity": 0,
        "byte9": true
    },
    {
        "deltaTime": 9,
        "running": true,
        "channel": 5,
        "type": "noteOff",
        "noteNumber": 73,
        "velocity": 0,
        "byte9": true
    },
    {
        "deltaTime": 3,
        "running": true,
        "channel": 5,
        "type": "noteOff",
        "noteNumber": 76,
        "velocity": 0,
        "byte9": true
    },
    {
        "deltaTime": 13,
        "channel": 14,
        "type": "noteOff",
        "noteNumber": 69,
        "velocity": 0,
        "byte9": true
    },
    {
        "deltaTime": 9,
        "running": true,
        "channel": 14,
        "type": "noteOff",
        "noteNumber": 61,
        "velocity": 0,
        "byte9": true
    },
    {
        "deltaTime": 3,
        "running": true,
        "channel": 14,
        "type": "noteOff",
        "noteNumber": 64,
        "velocity": 0,
        "byte9": true
    },
    {
        "deltaTime": 130,
        "channel": 1,
        "type": "noteOff",
        "noteNumber": 36,
        "velocity": 0,
        "byte9": true
    },
    {
        "deltaTime": 0,
        "channel": 8,
        "type": "noteOff",
        "noteNumber": 36,
        "velocity": 0,
        "byte9": true
    },
    {
        "deltaTime": 4,
        "channel": 1,
        "type": "noteOn",
        "noteNumber": 37,
        "velocity": 99
    },
    {
        "deltaTime": 0,
        "channel": 8,
        "type": "noteOn",
        "noteNumber": 37,
        "velocity": 99
    },
    {
        "deltaTime": 0,
        "channel": 12,
        "type": "noteOn",
        "noteNumber": 50,
        "velocity": 104
    },
    {
        "deltaTime": 115,
        "channel": 4,
        "type": "noteOff",
        "noteNumber": 61,
        "velocity": 0,
        "byte9": true
    },
    {
        "deltaTime": 0,
        "running": true,
        "channel": 4,
        "type": "noteOff",
        "noteNumber": 64,
        "velocity": 0,
        "byte9": true
    },
    {
        "deltaTime": 0,
        "running": true,
        "channel": 4,
        "type": "noteOff",
        "noteNumber": 69,
        "velocity": 0,
        "byte9": true
    },
    {
        "deltaTime": 41,
        "channel": 1,
        "type": "noteOff",
        "noteNumber": 37,
        "velocity": 0,
        "byte9": true
    },
    {
        "deltaTime": 0,
        "channel": 7,
        "type": "noteOff",
        "noteNumber": 76,
        "velocity": 0,
        "byte9": true
    },
    {
        "deltaTime": 0,
        "channel": 8,
        "type": "noteOff",
        "noteNumber": 37,
        "velocity": 0,
        "byte9": true
    },
    {
        "deltaTime": 0,
        "channel": 12,
        "type": "noteOff",
        "noteNumber": 55,
        "velocity": 0,
        "byte9": true
    },
    {
        "deltaTime": 4,
        "channel": 1,
        "type": "noteOn",
        "noteNumber": 38,
        "velocity": 110
    },
    {
        "deltaTime": 0,
        "channel": 5,
        "type": "noteOn",
        "noteNumber": 74,
        "velocity": 101
    },
    {
        "deltaTime": 0,
        "running": true,
        "channel": 5,
        "type": "noteOn",
        "noteNumber": 77,
        "velocity": 97
    },
    {
        "deltaTime": 0,
        "running": true,
        "channel": 5,
        "type": "noteOn",
        "noteNumber": 81,
        "velocity": 105
    },
    {
        "deltaTime": 0,
        "channel": 7,
        "type": "noteOn",
        "noteNumber": 74,
        "velocity": 119
    },
    {
        "deltaTime": 0,
        "channel": 8,
        "type": "noteOn",
        "noteNumber": 38,
        "velocity": 110
    },
    {
        "deltaTime": 0,
        "channel": 9,
        "type": "noteOn",
        "noteNumber": 35,
        "velocity": 114
    },
    {
        "deltaTime": 0,
        "channel": 10,
        "type": "noteOn",
        "noteNumber": 74,
        "velocity": 104
    },
    {
        "deltaTime": 0,
        "channel": 11,
        "type": "noteOn",
        "noteNumber": 41,
        "velocity": 114
    },
    {
        "deltaTime": 12,
        "channel": 9,
        "type": "noteOff",
        "noteNumber": 35,
        "velocity": 0,
        "byte9": true
    },
    {
        "deltaTime": 7,
        "channel": 14,
        "type": "noteOn",
        "noteNumber": 62,
        "velocity": 101
    },
    {
        "deltaTime": 0,
        "running": true,
        "channel": 14,
        "type": "noteOn",
        "noteNumber": 65,
        "velocity": 97
    },
    {
        "deltaTime": 0,
        "running": true,
        "channel": 14,
        "type": "noteOn",
        "noteNumber": 69,
        "velocity": 105
    },
    {
        "deltaTime": 54,
        "channel": 5,
        "type": "noteOff",
        "noteNumber": 81,
        "velocity": 0,
        "byte9": true
    },
    {
        "deltaTime": 20,
        "channel": 14,
        "type": "noteOff",
        "noteNumber": 69,
        "velocity": 0,
        "byte9": true
    },
    {
        "deltaTime": 28,
        "channel": 5,
        "type": "noteOff",
        "noteNumber": 77,
        "velocity": 0,
        "byte9": true
    },
    {
        "deltaTime": 2,
        "running": true,
        "channel": 5,
        "type": "noteOff",
        "noteNumber": 74,
        "velocity": 0,
        "byte9": true
    },
    {
        "deltaTime": 17,
        "channel": 14,
        "type": "noteOff",
        "noteNumber": 65,
        "velocity": 0,
        "byte9": true
    },
    {
        "deltaTime": 2,
        "running": true,
        "channel": 14,
        "type": "noteOff",
        "noteNumber": 62,
        "velocity": 0,
        "byte9": true
    },
    {
        "deltaTime": 19,
        "channel": 11,
        "type": "noteOff",
        "noteNumber": 41,
        "velocity": 0,
        "byte9": true
    },
    {
        "deltaTime": 315,
        "channel": 7,
        "type": "noteOff",
        "noteNumber": 74,
        "velocity": 0,
        "byte9": true
    },
    {
        "deltaTime": 4,
        "channel": 5,
        "type": "noteOn",
        "noteNumber": 74,
        "velocity": 111
    },
    {
        "deltaTime": 0,
        "running": true,
        "channel": 5,
        "type": "noteOn",
        "noteNumber": 77,
        "velocity": 107
    },
    {
        "deltaTime": 0,
        "running": true,
        "channel": 5,
        "type": "noteOn",
        "noteNumber": 81,
        "velocity": 105
    },
    {
        "deltaTime": 0,
        "channel": 9,
        "type": "noteOn",
        "noteNumber": 44,
        "velocity": 107
    },
    {
        "deltaTime": 0,
        "running": true,
        "channel": 9,
        "type": "noteOn",
        "noteNumber": 69,
        "velocity": 109
    },
    {
        "deltaTime": 0,
        "channel": 12,
        "type": "noteOn",
        "noteNumber": 62,
        "velocity": 119
    },
    {
        "deltaTime": 12,
        "channel": 9,
        "type": "noteOff",
        "noteNumber": 44,
        "velocity": 0,
        "byte9": true
    },
    {
        "deltaTime": 0,
        "running": true,
        "channel": 9,
        "type": "noteOff",
        "noteNumber": 69,
        "velocity": 0,
        "byte9": true
    },
    {
        "deltaTime": 1,
        "channel": 1,
        "type": "noteOff",
        "noteNumber": 38,
        "velocity": 0,
        "byte9": true
    },
    {
        "deltaTime": 0,
        "channel": 8,
        "type": "noteOff",
        "noteNumber": 38,
        "velocity": 0,
        "byte9": true
    },
    {
        "deltaTime": 6,
        "channel": 14,
        "type": "noteOn",
        "noteNumber": 62,
        "velocity": 111
    },
    {
        "deltaTime": 0,
        "running": true,
        "channel": 14,
        "type": "noteOn",
        "noteNumber": 65,
        "velocity": 107
    },
    {
        "deltaTime": 0,
        "running": true,
        "channel": 14,
        "type": "noteOn",
        "noteNumber": 69,
        "velocity": 105
    },
    {
        "deltaTime": 138,
        "channel": 5,
        "type": "noteOff",
        "noteNumber": 81,
        "velocity": 0,
        "byte9": true
    },
    {
        "deltaTime": 7,
        "running": true,
        "channel": 5,
        "type": "noteOff",
        "noteNumber": 77,
        "velocity": 0,
        "byte9": true
    },
    {
        "deltaTime": 4,
        "running": true,
        "channel": 5,
        "type": "noteOff",
        "noteNumber": 74,
        "velocity": 0,
        "byte9": true
    },
    {
        "deltaTime": 9,
        "channel": 14,
        "type": "noteOff",
        "noteNumber": 69,
        "velocity": 0,
        "byte9": true
    },
    {
        "deltaTime": 7,
        "running": true,
        "channel": 14,
        "type": "noteOff",
        "noteNumber": 65,
        "velocity": 0,
        "byte9": true
    },
    {
        "deltaTime": 4,
        "running": true,
        "channel": 14,
        "type": "noteOff",
        "noteNumber": 62,
        "velocity": 0,
        "byte9": true
    },
    {
        "deltaTime": 132,
        "channel": 1,
        "type": "noteOn",
        "noteNumber": 38,
        "velocity": 110
    },
    {
        "deltaTime": 0,
        "channel": 8,
        "type": "noteOn",
        "noteNumber": 38,
        "velocity": 110
    },
    {
        "deltaTime": 0,
        "channel": 9,
        "type": "noteOn",
        "noteNumber": 35,
        "velocity": 107
    },
    {
        "deltaTime": 0,
        "channel": 11,
        "type": "noteOn",
        "noteNumber": 41,
        "velocity": 107
    },
    {
        "deltaTime": 12,
        "channel": 9,
        "type": "noteOff",
        "noteNumber": 35,
        "velocity": 0,
        "byte9": true
    },
    {
        "deltaTime": 34,
        "channel": 1,
        "type": "noteOff",
        "noteNumber": 38,
        "velocity": 0,
        "byte9": true
    },
    {
        "deltaTime": 0,
        "channel": 8,
        "type": "noteOff",
        "noteNumber": 38,
        "velocity": 0,
        "byte9": true
    },
    {
        "deltaTime": 0,
        "channel": 3,
        "type": "noteOn",
        "noteNumber": 76,
        "velocity": 124
    },
    {
        "deltaTime": 22,
        "channel": 1,
        "type": "noteOn",
        "noteNumber": 38,
        "velocity": 110
    },
    {
        "deltaTime": 0,
        "channel": 5,
        "type": "noteOn",
        "noteNumber": 74,
        "velocity": 105
    },
    {
        "deltaTime": 0,
        "running": true,
        "channel": 5,
        "type": "noteOn",
        "noteNumber": 77,
        "velocity": 94
    },
    {
        "deltaTime": 0,
        "running": true,
        "channel": 5,
        "type": "noteOn",
        "noteNumber": 81,
        "velocity": 94
    },
    {
        "deltaTime": 0,
        "channel": 8,
        "type": "noteOn",
        "noteNumber": 38,
        "velocity": 110
    },
    {
        "deltaTime": 0,
        "channel": 9,
        "type": "noteOn",
        "noteNumber": 35,
        "velocity": 114
    },
    {
        "deltaTime": 0,
        "channel": 11,
        "type": "noteOn",
        "noteNumber": 41,
        "velocity": 114
    },
    {
        "deltaTime": 1,
        "running": true,
        "channel": 11,
        "type": "noteOff",
        "noteNumber": 41,
        "velocity": 0,
        "byte9": true
    },
    {
        "deltaTime": 11,
        "channel": 9,
        "type": "noteOff",
        "noteNumber": 35,
        "velocity": 0,
        "byte9": true
    },
    {
        "deltaTime": 7,
        "channel": 14,
        "type": "noteOn",
        "noteNumber": 62,
        "velocity": 105
    },
    {
        "deltaTime": 0,
        "running": true,
        "channel": 14,
        "type": "noteOn",
        "noteNumber": 65,
        "velocity": 94
    },
    {
        "deltaTime": 0,
        "running": true,
        "channel": 14,
        "type": "noteOn",
        "noteNumber": 69,
        "velocity": 94
    },
    {
        "deltaTime": 24,
        "channel": 12,
        "type": "noteOff",
        "noteNumber": 57,
        "velocity": 0,
        "byte9": true
    },
    {
        "deltaTime": 47,
        "running": true,
        "channel": 12,
        "type": "noteOff",
        "noteNumber": 50,
        "velocity": 0,
        "byte9": true
    },
    {
        "deltaTime": 65,
        "channel": 5,
        "type": "noteOff",
        "noteNumber": 81,
        "velocity": 0,
        "byte9": true
    },
    {
        "deltaTime": 6,
        "channel": 11,
        "type": "noteOff",
        "noteNumber": 41,
        "velocity": 0,
        "byte9": true
    },
    {
        "deltaTime": 2,
        "channel": 5,
        "type": "noteOff",
        "noteNumber": 74,
        "velocity": 0,
        "byte9": true
    },
    {
        "deltaTime": 4,
        "running": true,
        "channel": 5,
        "type": "noteOff",
        "noteNumber": 77,
        "velocity": 0,
        "byte9": true
    },
    {
        "deltaTime": 8,
        "channel": 14,
        "type": "noteOff",
        "noteNumber": 69,
        "velocity": 0,
        "byte9": true
    },
    {
        "deltaTime": 8,
        "running": true,
        "channel": 14,
        "type": "noteOff",
        "noteNumber": 62,
        "velocity": 0,
        "byte9": true
    },
    {
        "deltaTime": 4,
        "running": true,
        "channel": 14,
        "type": "noteOff",
        "noteNumber": 65,
        "velocity": 0,
        "byte9": true
    },
    {
        "deltaTime": 75,
        "channel": 3,
        "type": "noteOff",
        "noteNumber": 76,
        "velocity": 0,
        "byte9": true
    },
    {
        "deltaTime": 58,
        "channel": 9,
        "type": "noteOn",
        "noteNumber": 70,
        "velocity": 65
    },
    {
        "deltaTime": 12,
        "running": true,
        "channel": 9,
        "type": "noteOff",
        "noteNumber": 70,
        "velocity": 0,
        "byte9": true
    },
    {
        "deltaTime": 0,
        "channel": 3,
        "type": "noteOn",
        "noteNumber": 77,
        "velocity": 114
    },
    {
        "deltaTime": 132,
        "channel": 5,
        "type": "noteOn",
        "noteNumber": 74,
        "velocity": 109
    },
    {
        "deltaTime": 0,
        "running": true,
        "channel": 5,
        "type": "noteOn",
        "noteNumber": 77,
        "velocity": 94
    },
    {
        "deltaTime": 0,
        "running": true,
        "channel": 5,
        "type": "noteOn",
        "noteNumber": 81,
        "velocity": 94
    },
    {
        "deltaTime": 0,
        "channel": 9,
        "type": "noteOn",
        "noteNumber": 44,
        "velocity": 107
    },
    {
        "deltaTime": 0,
        "running": true,
        "channel": 9,
        "type": "noteOn",
        "noteNumber": 54,
        "velocity": 109
    },
    {
        "deltaTime": 12,
        "running": true,
        "channel": 9,
        "type": "noteOff",
        "noteNumber": 44,
        "velocity": 0,
        "byte9": true
    },
    {
        "deltaTime": 0,
        "running": true,
        "channel": 9,
        "type": "noteOff",
        "noteNumber": 54,
        "velocity": 0,
        "byte9": true
    },
    {
        "deltaTime": 1,
        "channel": 1,
        "type": "noteOff",
        "noteNumber": 38,
        "velocity": 0,
        "byte9": true
    },
    {
        "deltaTime": 0,
        "channel": 8,
        "type": "noteOff",
        "noteNumber": 38,
        "velocity": 0,
        "byte9": true
    },
    {
        "deltaTime": 6,
        "channel": 14,
        "type": "noteOn",
        "noteNumber": 62,
        "velocity": 109
    },
    {
        "deltaTime": 0,
        "running": true,
        "channel": 14,
        "type": "noteOn",
        "noteNumber": 65,
        "velocity": 94
    },
    {
        "deltaTime": 0,
        "running": true,
        "channel": 14,
        "type": "noteOn",
        "noteNumber": 69,
        "velocity": 94
    },
    {
        "deltaTime": 63,
        "channel": 3,
        "type": "noteOff",
        "noteNumber": 77,
        "velocity": 0,
        "byte9": true
    },
    {
        "deltaTime": 59,
        "channel": 5,
        "type": "noteOff",
        "noteNumber": 81,
        "velocity": 0,
        "byte9": true
    },
    {
        "deltaTime": 13,
        "running": true,
        "channel": 5,
        "type": "noteOff",
        "noteNumber": 74,
        "velocity": 0,
        "byte9": true
    },
    {
        "deltaTime": 0,
        "running": true,
        "channel": 5,
        "type": "noteOff",
        "noteNumber": 77,
        "velocity": 0,
        "byte9": true
    },
    {
        "deltaTime": 7,
        "channel": 14,
        "type": "noteOff",
        "noteNumber": 69,
        "velocity": 0,
        "byte9": true
    },
    {
        "deltaTime": 13,
        "running": true,
        "channel": 14,
        "type": "noteOff",
        "noteNumber": 62,
        "velocity": 0,
        "byte9": true
    },
    {
        "deltaTime": 0,
        "running": true,
        "channel": 14,
        "type": "noteOff",
        "noteNumber": 65,
        "velocity": 0,
        "byte9": true
    },
    {
        "deltaTime": 0,
        "channel": 3,
        "type": "noteOn",
        "noteNumber": 76,
        "velocity": 127
    },
    {
        "deltaTime": 67,
        "channel": 12,
        "type": "noteOff",
        "noteNumber": 62,
        "velocity": 0,
        "byte9": true
    },
    {
        "deltaTime": 204,
        "channel": 3,
        "type": "noteOff",
        "noteNumber": 76,
        "velocity": 0,
        "byte9": true
    },
    {
        "deltaTime": 26,
        "channel": 1,
        "type": "noteOn",
        "noteNumber": 38,
        "velocity": 110
    },
    {
        "deltaTime": 0,
        "channel": 5,
        "type": "noteOn",
        "noteNumber": 74,
        "velocity": 109
    },
    {
        "deltaTime": 0,
        "running": true,
        "channel": 5,
        "type": "noteOn",
        "noteNumber": 77,
        "velocity": 94
    },
    {
        "deltaTime": 0,
        "running": true,
        "channel": 5,
        "type": "noteOn",
        "noteNumber": 81,
        "velocity": 101
    },
    {
        "deltaTime": 0,
        "channel": 8,
        "type": "noteOn",
        "noteNumber": 38,
        "velocity": 110
    },
    {
        "deltaTime": 0,
        "channel": 9,
        "type": "noteOn",
        "noteNumber": 35,
        "velocity": 114
    },
    {
        "deltaTime": 0,
        "channel": 11,
        "type": "noteOn",
        "noteNumber": 41,
        "velocity": 114
    },
    {
        "deltaTime": 12,
        "channel": 9,
        "type": "noteOff",
        "noteNumber": 35,
        "velocity": 0,
        "byte9": true
    },
    {
        "deltaTime": 7,
        "channel": 14,
        "type": "noteOn",
        "noteNumber": 62,
        "velocity": 109
    },
    {
        "deltaTime": 0,
        "running": true,
        "channel": 14,
        "type": "noteOn",
        "noteNumber": 65,
        "velocity": 94
    },
    {
        "deltaTime": 0,
        "running": true,
        "channel": 14,
        "type": "noteOn",
        "noteNumber": 69,
        "velocity": 101
    },
    {
        "deltaTime": 0,
        "channel": 3,
        "type": "noteOn",
        "noteNumber": 79,
        "velocity": 123
    },
    {
        "deltaTime": 132,
        "channel": 5,
        "type": "noteOff",
        "noteNumber": 81,
        "velocity": 0,
        "byte9": true
    },
    {
        "deltaTime": 6,
        "channel": 11,
        "type": "noteOff",
        "noteNumber": 41,
        "velocity": 0,
        "byte9": true
    },
    {
        "deltaTime": 10,
        "channel": 5,
        "type": "noteOff",
        "noteNumber": 74,
        "velocity": 0,
        "byte9": true
    },
    {
        "deltaTime": 0,
        "running": true,
        "channel": 5,
        "type": "noteOff",
        "noteNumber": 77,
        "velocity": 0,
        "byte9": true
    },
    {
        "deltaTime": 4,
        "channel": 14,
        "type": "noteOff",
        "noteNumber": 69,
        "velocity": 0,
        "byte9": true
    },
    {
        "deltaTime": 16,
        "running": true,
        "channel": 14,
        "type": "noteOff",
        "noteNumber": 62,
        "velocity": 0,
        "byte9": true
    },
    {
        "deltaTime": 0,
        "running": true,
        "channel": 14,
        "type": "noteOff",
        "noteNumber": 65,
        "velocity": 0,
        "byte9": true
    },
    {
        "deltaTime": 103,
        "channel": 3,
        "type": "noteOff",
        "noteNumber": 79,
        "velocity": 0,
        "byte9": true
    },
    {
        "deltaTime": 0,
        "channel": 3,
        "type": "noteOn",
        "noteNumber": 77,
        "velocity": 125
    },
    {
        "deltaTime": 42,
        "channel": 5,
        "type": "noteOn",
        "noteNumber": 74,
        "velocity": 108
    },
    {
        "deltaTime": 0,
        "running": true,
        "channel": 5,
        "type": "noteOn",
        "noteNumber": 77,
        "velocity": 97
    },
    {
        "deltaTime": 0,
        "running": true,
        "channel": 5,
        "type": "noteOn",
        "noteNumber": 81,
        "velocity": 98
    },
    {
        "deltaTime": 0,
        "channel": 9,
        "type": "noteOn",
        "noteNumber": 44,
        "velocity": 107
    },
    {
        "deltaTime": 0,
        "running": true,
        "channel": 9,
        "type": "noteOn",
        "noteNumber": 69,
        "velocity": 109
    },
    {
        "deltaTime": 0,
        "channel": 12,
        "type": "noteOn",
        "noteNumber": 57,
        "velocity": 124
    },
    {
        "deltaTime": 12,
        "channel": 9,
        "type": "noteOff",
        "noteNumber": 44,
        "velocity": 0,
        "byte9": true
    },
    {
        "deltaTime": 0,
        "running": true,
        "channel": 9,
        "type": "noteOff",
        "noteNumber": 69,
        "velocity": 0,
        "byte9": true
    },
    {
        "deltaTime": 7,
        "channel": 14,
        "type": "noteOn",
        "noteNumber": 62,
        "velocity": 108
    },
    {
        "deltaTime": 0,
        "running": true,
        "channel": 14,
        "type": "noteOn",
        "noteNumber": 65,
        "velocity": 97
    },
    {
        "deltaTime": 0,
        "running": true,
        "channel": 14,
        "type": "noteOn",
        "noteNumber": 69,
        "velocity": 98
    },
    {
        "deltaTime": 14,
        "channel": 1,
        "type": "noteOff",
        "noteNumber": 38,
        "velocity": 0,
        "byte9": true
    },
    {
        "deltaTime": 0,
        "channel": 8,
        "type": "noteOff",
        "noteNumber": 38,
        "velocity": 0,
        "byte9": true
    },
    {
        "deltaTime": 113,
        "channel": 5,
        "type": "noteOff",
        "noteNumber": 81,
        "velocity": 0,
        "byte9": true
    },
    {
        "deltaTime": 12,
        "running": true,
        "channel": 5,
        "type": "noteOff",
        "noteNumber": 74,
        "velocity": 0,
        "byte9": true
    },
    {
        "deltaTime": 3,
        "channel": 3,
        "type": "noteOff",
        "noteNumber": 77,
        "velocity": 0,
        "byte9": true
    },
    {
        "deltaTime": 2,
        "channel": 5,
        "type": "noteOff",
        "noteNumber": 77,
        "velocity": 0,
        "byte9": true
    },
    {
        "deltaTime": 3,
        "channel": 14,
        "type": "noteOff",
        "noteNumber": 69,
        "velocity": 0,
        "byte9": true
    },
    {
        "deltaTime": 12,
        "running": true,
        "channel": 14,
        "type": "noteOff",
        "noteNumber": 62,
        "velocity": 0,
        "byte9": true
    },
    {
        "deltaTime": 5,
        "running": true,
        "channel": 14,
        "type": "noteOff",
        "noteNumber": 65,
        "velocity": 0,
        "byte9": true
    },
    {
        "deltaTime": 0,
        "channel": 3,
        "type": "noteOn",
        "noteNumber": 77,
        "velocity": 114
    },
    {
        "deltaTime": 40,
        "channel": 1,
        "type": "noteOn",
        "noteNumber": 38,
        "velocity": 110
    },
    {
        "deltaTime": 0,
        "channel": 8,
        "type": "noteOn",
        "noteNumber": 38,
        "velocity": 110
    },
    {
        "deltaTime": 0,
        "channel": 9,
        "type": "noteOn",
        "noteNumber": 35,
        "velocity": 114
    },
    {
        "deltaTime": 0,
        "channel": 11,
        "type": "noteOn",
        "noteNumber": 41,
        "velocity": 114
    },
    {
        "deltaTime": 0,
        "channel": 12,
        "type": "noteOn",
        "noteNumber": 65,
        "velocity": 114
    },
    {
        "deltaTime": 12,
        "channel": 9,
        "type": "noteOff",
        "noteNumber": 35,
        "velocity": 0,
        "byte9": true
    },
    {
        "deltaTime": 144,
        "channel": 10,
        "type": "noteOff",
        "noteNumber": 74,
        "velocity": 0,
        "byte9": true
    },
    {
        "deltaTime": 4,
        "channel": 5,
        "type": "noteOn",
        "noteNumber": 74,
        "velocity": 105
    },
    {
        "deltaTime": 0,
        "running": true,
        "channel": 5,
        "type": "noteOn",
        "noteNumber": 77,
        "velocity": 89
    },
    {
        "deltaTime": 0,
        "running": true,
        "channel": 5,
        "type": "noteOn",
        "noteNumber": 81,
        "velocity": 94
    },
    {
        "deltaTime": 0,
        "channel": 10,
        "type": "noteOn",
        "noteNumber": 77,
        "velocity": 105
    },
    {
        "deltaTime": 1,
        "channel": 11,
        "type": "noteOff",
        "noteNumber": 41,
        "velocity": 0,
        "byte9": true
    },
    {
        "deltaTime": 18,
        "channel": 14,
        "type": "noteOn",
        "noteNumber": 62,
        "velocity": 105
    },
    {
        "deltaTime": 0,
        "running": true,
        "channel": 14,
        "type": "noteOn",
        "noteNumber": 65,
        "velocity": 89
    },
    {
        "deltaTime": 0,
        "running": true,
        "channel": 14,
        "type": "noteOn",
        "noteNumber": 69,
        "velocity": 94
    },
    {
        "deltaTime": 127,
        "channel": 5,
        "type": "noteOff",
        "noteNumber": 81,
        "velocity": 0,
        "byte9": true
    },
    {
        "deltaTime": 19,
        "channel": 14,
        "type": "noteOff",
        "noteNumber": 69,
        "velocity": 0,
        "byte9": true
    },
    {
        "deltaTime": 3,
        "channel": 5,
        "type": "noteOff",
        "noteNumber": 74,
        "velocity": 0,
        "byte9": true
    },
    {
        "deltaTime": 0,
        "running": true,
        "channel": 5,
        "type": "noteOff",
        "noteNumber": 77,
        "velocity": 0,
        "byte9": true
    },
    {
        "deltaTime": 20,
        "channel": 14,
        "type": "noteOff",
        "noteNumber": 62,
        "velocity": 0,
        "byte9": true
    },
    {
        "deltaTime": 0,
        "running": true,
        "channel": 14,
        "type": "noteOff",
        "noteNumber": 65,
        "velocity": 0,
        "byte9": true
    },
    {
        "deltaTime": 128,
        "channel": 1,
        "type": "noteOff",
        "noteNumber": 38,
        "velocity": 0,
        "byte9": true
    },
    {
        "deltaTime": 0,
        "channel": 8,
        "type": "noteOff",
        "noteNumber": 38,
        "velocity": 0,
        "byte9": true
    },
    {
        "deltaTime": 4,
        "channel": 1,
        "type": "noteOn",
        "noteNumber": 41,
        "velocity": 110
    },
    {
        "deltaTime": 0,
        "channel": 8,
        "type": "noteOn",
        "noteNumber": 41,
        "velocity": 110
    },
    {
        "deltaTime": 0,
        "channel": 9,
        "type": "noteOn",
        "noteNumber": 35,
        "velocity": 114
    },
    {
        "deltaTime": 0,
        "running": true,
        "channel": 9,
        "type": "noteOn",
        "noteNumber": 70,
        "velocity": 65
    },
    {
        "deltaTime": 0,
        "channel": 11,
        "type": "noteOn",
        "noteNumber": 41,
        "velocity": 114
    },
    {
        "deltaTime": 12,
        "channel": 9,
        "type": "noteOff",
        "noteNumber": 35,
        "velocity": 0,
        "byte9": true
    },
    {
        "deltaTime": 0,
        "running": true,
        "channel": 9,
        "type": "noteOff",
        "noteNumber": 70,
        "velocity": 0,
        "byte9": true
    },
    {
        "deltaTime": 144,
        "channel": 10,
        "type": "noteOff",
        "noteNumber": 77,
        "velocity": 0,
        "byte9": true
    },
    {
        "deltaTime": 4,
        "channel": 5,
        "type": "noteOn",
        "noteNumber": 74,
        "velocity": 109
    },
    {
        "deltaTime": 0,
        "running": true,
        "channel": 5,
        "type": "noteOn",
        "noteNumber": 77,
        "velocity": 97
    },
    {
        "deltaTime": 0,
        "running": true,
        "channel": 5,
        "type": "noteOn",
        "noteNumber": 81,
        "velocity": 110
    },
    {
        "deltaTime": 0,
        "channel": 9,
        "type": "noteOn",
        "noteNumber": 44,
        "velocity": 107
    },
    {
        "deltaTime": 0,
        "running": true,
        "channel": 9,
        "type": "noteOn",
        "noteNumber": 54,
        "velocity": 109
    },
    {
        "deltaTime": 0,
        "channel": 10,
        "type": "noteOn",
        "noteNumber": 81,
        "velocity": 105
    },
    {
        "deltaTime": 0,
        "channel": 12,
        "type": "noteOn",
        "noteNumber": 62,
        "velocity": 121
    },
    {
        "deltaTime": 1,
        "channel": 11,
        "type": "noteOff",
        "noteNumber": 41,
        "velocity": 0,
        "byte9": true
    },
    {
        "deltaTime": 11,
        "channel": 3,
        "type": "noteOff",
        "noteNumber": 77,
        "velocity": 0,
        "byte9": true
    },
    {
        "deltaTime": 0,
        "channel": 9,
        "type": "noteOff",
        "noteNumber": 44,
        "velocity": 0,
        "byte9": true
    },
    {
        "deltaTime": 0,
        "running": true,
        "channel": 9,
        "type": "noteOff",
        "noteNumber": 54,
        "velocity": 0,
        "byte9": true
    },
    {
        "deltaTime": 4,
        "channel": 12,
        "type": "noteOff",
        "noteNumber": 57,
        "velocity": 0,
        "byte9": true
    },
    {
        "deltaTime": 3,
        "channel": 14,
        "type": "noteOn",
        "noteNumber": 62,
        "velocity": 109
    },
    {
        "deltaTime": 0,
        "running": true,
        "channel": 14,
        "type": "noteOn",
        "noteNumber": 65,
        "velocity": 97
    },
    {
        "deltaTime": 0,
        "running": true,
        "channel": 14,
        "type": "noteOn",
        "noteNumber": 69,
        "velocity": 110
    },
    {
        "deltaTime": 0,
        "channel": 3,
        "type": "noteOn",
        "noteNumber": 76,
        "velocity": 124
    },
    {
        "deltaTime": 15,
        "channel": 12,
        "type": "noteOff",
        "noteNumber": 65,
        "velocity": 0,
        "byte9": true
    },
    {
        "deltaTime": 108,
        "channel": 5,
        "type": "noteOff",
        "noteNumber": 81,
        "velocity": 0,
        "byte9": true
    },
    {
        "deltaTime": 9,
        "running": true,
        "channel": 5,
        "type": "noteOff",
        "noteNumber": 74,
        "velocity": 0,
        "byte9": true
    },
    {
        "deltaTime": 3,
        "running": true,
        "channel": 5,
        "type": "noteOff",
        "noteNumber": 77,
        "velocity": 0,
        "byte9": true
    },
    {
        "deltaTime": 7,
        "channel": 14,
        "type": "noteOff",
        "noteNumber": 69,
        "velocity": 0,
        "byte9": true
    },
    {
        "deltaTime": 9,
        "running": true,
        "channel": 14,
        "type": "noteOff",
        "noteNumber": 62,
        "velocity": 0,
        "byte9": true
    },
    {
        "deltaTime": 3,
        "running": true,
        "channel": 14,
        "type": "noteOff",
        "noteNumber": 65,
        "velocity": 0,
        "byte9": true
    },
    {
        "deltaTime": 97,
        "channel": 3,
        "type": "noteOff",
        "noteNumber": 76,
        "velocity": 0,
        "byte9": true
    },
    {
        "deltaTime": 0,
        "channel": 3,
        "type": "noteOn",
        "noteNumber": 77,
        "velocity": 114
    },
    {
        "deltaTime": 1,
        "channel": 1,
        "type": "noteOff",
        "noteNumber": 41,
        "velocity": 0,
        "byte9": true
    },
    {
        "deltaTime": 0,
        "channel": 8,
        "type": "noteOff",
        "noteNumber": 41,
        "velocity": 0,
        "byte9": true
    },
    {
        "deltaTime": 0,
        "channel": 12,
        "type": "noteOff",
        "noteNumber": 62,
        "velocity": 0,
        "byte9": true
    },
    {
        "deltaTime": 4,
        "channel": 1,
        "type": "noteOn",
        "noteNumber": 42,
        "velocity": 110
    },
    {
        "deltaTime": 0,
        "channel": 8,
        "type": "noteOn",
        "noteNumber": 42,
        "velocity": 110
    },
    {
        "deltaTime": 156,
        "channel": 1,
        "type": "noteOff",
        "noteNumber": 42,
        "velocity": 0,
        "byte9": true
    },
    {
        "deltaTime": 0,
        "channel": 8,
        "type": "noteOff",
        "noteNumber": 42,
        "velocity": 0,
        "byte9": true
    },
    {
        "deltaTime": 0,
        "channel": 10,
        "type": "noteOff",
        "noteNumber": 81,
        "velocity": 0,
        "byte9": true
    },
    {
        "deltaTime": 4,
        "channel": 1,
        "type": "noteOn",
        "noteNumber": 43,
        "velocity": 110
    },
    {
        "deltaTime": 0,
        "channel": 5,
        "type": "noteOn",
        "noteNumber": 74,
        "velocity": 101
    },
    {
        "deltaTime": 0,
        "running": true,
        "channel": 5,
        "type": "noteOn",
        "noteNumber": 79,
        "velocity": 97
    },
    {
        "deltaTime": 0,
        "running": true,
        "channel": 5,
        "type": "noteOn",
        "noteNumber": 82,
        "velocity": 105
    },
    {
        "deltaTime": 0,
        "channel": 8,
        "type": "noteOn",
        "noteNumber": 43,
        "velocity": 110
    },
    {
        "deltaTime": 0,
        "channel": 9,
        "type": "noteOn",
        "noteNumber": 35,
        "velocity": 114
    },
    {
        "deltaTime": 0,
        "channel": 10,
        "type": "noteOn",
        "noteNumber": 79,
        "velocity": 105
    },
    {
        "deltaTime": 0,
        "channel": 11,
        "type": "noteOn",
        "noteNumber": 41,
        "velocity": 114
    },
    {
        "deltaTime": 0,
        "channel": 12,
        "type": "noteOn",
        "noteNumber": 55,
        "velocity": 114
    },
    {
        "deltaTime": 12,
        "channel": 9,
        "type": "noteOff",
        "noteNumber": 35,
        "velocity": 0,
        "byte9": true
    },
    {
        "deltaTime": 7,
        "channel": 14,
        "type": "noteOn",
        "noteNumber": 62,
        "velocity": 101
    },
    {
        "deltaTime": 0,
        "running": true,
        "channel": 14,
        "type": "noteOn",
        "noteNumber": 67,
        "velocity": 97
    },
    {
        "deltaTime": 0,
        "running": true,
        "channel": 14,
        "type": "noteOn",
        "noteNumber": 70,
        "velocity": 105
    },
    {
        "deltaTime": 54,
        "channel": 5,
        "type": "noteOff",
        "noteNumber": 82,
        "velocity": 0,
        "byte9": true
    },
    {
        "deltaTime": 20,
        "channel": 14,
        "type": "noteOff",
        "noteNumber": 70,
        "velocity": 0,
        "byte9": true
    },
    {
        "deltaTime": 28,
        "channel": 5,
        "type": "noteOff",
        "noteNumber": 79,
        "velocity": 0,
        "byte9": true
    },
    {
        "deltaTime": 2,
        "running": true,
        "channel": 5,
        "type": "noteOff",
        "noteNumber": 74,
        "velocity": 0,
        "byte9": true
    },
    {
        "deltaTime": 17,
        "channel": 14,
        "type": "noteOff",
        "noteNumber": 67,
        "velocity": 0,
        "byte9": true
    },
    {
        "deltaTime": 2,
        "running": true,
        "channel": 14,
        "type": "noteOff",
        "noteNumber": 62,
        "velocity": 0,
        "byte9": true
    },
    {
        "deltaTime": 13,
        "channel": 3,
        "type": "noteOff",
        "noteNumber": 77,
        "velocity": 0,
        "byte9": true
    },
    {
        "deltaTime": 6,
        "channel": 11,
        "type": "noteOff",
        "noteNumber": 41,
        "velocity": 0,
        "byte9": true
    },
    {
        "deltaTime": 0,
        "channel": 3,
        "type": "noteOn",
        "noteNumber": 70,
        "velocity": 127
    },
    {
        "deltaTime": 195,
        "channel": 5,
        "type": "noteOn",
        "noteNumber": 74,
        "velocity": 111
    },
    {
        "deltaTime": 0,
        "running": true,
        "channel": 5,
        "type": "noteOn",
        "noteNumber": 79,
        "velocity": 107
    },
    {
        "deltaTime": 0,
        "running": true,
        "channel": 5,
        "type": "noteOn",
        "noteNumber": 82,
        "velocity": 105
    },
    {
        "deltaTime": 0,
        "channel": 9,
        "type": "noteOn",
        "noteNumber": 44,
        "velocity": 107
    },
    {
        "deltaTime": 0,
        "running": true,
        "channel": 9,
        "type": "noteOn",
        "noteNumber": 69,
        "velocity": 109
    },
    {
        "deltaTime": 0,
        "channel": 12,
        "type": "noteOn",
        "noteNumber": 58,
        "velocity": 122
    },
    {
        "deltaTime": 12,
        "channel": 9,
        "type": "noteOff",
        "noteNumber": 44,
        "velocity": 0,
        "byte9": true
    },
    {
        "deltaTime": 0,
        "running": true,
        "channel": 9,
        "type": "noteOff",
        "noteNumber": 69,
        "velocity": 0,
        "byte9": true
    },
    {
        "deltaTime": 7,
        "channel": 14,
        "type": "noteOn",
        "noteNumber": 62,
        "velocity": 111
    },
    {
        "deltaTime": 0,
        "running": true,
        "channel": 14,
        "type": "noteOn",
        "noteNumber": 67,
        "velocity": 107
    },
    {
        "deltaTime": 0,
        "running": true,
        "channel": 14,
        "type": "noteOn",
        "noteNumber": 70,
        "velocity": 105
    },
    {
        "deltaTime": 9,
        "channel": 3,
        "type": "noteOff",
        "noteNumber": 70,
        "velocity": 0,
        "byte9": true
    },
    {
        "deltaTime": 5,
        "channel": 1,
        "type": "noteOff",
        "noteNumber": 43,
        "velocity": 0,
        "byte9": true
    },
    {
        "deltaTime": 0,
        "channel": 8,
        "type": "noteOff",
        "noteNumber": 43,
        "velocity": 0,
        "byte9": true
    },
    {
        "deltaTime": 124,
        "channel": 5,
        "type": "noteOff",
        "noteNumber": 82,
        "velocity": 0,
        "byte9": true
    },
    {
        "deltaTime": 7,
        "running": true,
        "channel": 5,
        "type": "noteOff",
        "noteNumber": 79,
        "velocity": 0,
        "byte9": true
    },
    {
        "deltaTime": 4,
        "running": true,
        "channel": 5,
        "type": "noteOff",
        "noteNumber": 74,
        "velocity": 0,
        "byte9": true
    },
    {
        "deltaTime": 9,
        "channel": 14,
        "type": "noteOff",
        "noteNumber": 70,
        "velocity": 0,
        "byte9": true
    },
    {
        "deltaTime": 7,
        "running": true,
        "channel": 14,
        "type": "noteOff",
        "noteNumber": 67,
        "velocity": 0,
        "byte9": true
    },
    {
        "deltaTime": 4,
        "running": true,
        "channel": 14,
        "type": "noteOff",
        "noteNumber": 62,
        "velocity": 0,
        "byte9": true
    },
    {
        "deltaTime": 132,
        "channel": 1,
        "type": "noteOn",
        "noteNumber": 31,
        "velocity": 110
    },
    {
        "deltaTime": 0,
        "channel": 8,
        "type": "noteOn",
        "noteNumber": 31,
        "velocity": 110
    },
    {
        "deltaTime": 0,
        "channel": 9,
        "type": "noteOn",
        "noteNumber": 35,
        "velocity": 107
    },
    {
        "deltaTime": 0,
        "channel": 11,
        "type": "noteOn",
        "noteNumber": 41,
        "velocity": 107
    },
    {
        "deltaTime": 12,
        "channel": 9,
        "type": "noteOff",
        "noteNumber": 35,
        "velocity": 0,
        "byte9": true
    },
    {
        "deltaTime": 37,
        "channel": 1,
        "type": "noteOff",
        "noteNumber": 31,
        "velocity": 0,
        "byte9": true
    },
    {
        "deltaTime": 0,
        "channel": 8,
        "type": "noteOff",
        "noteNumber": 31,
        "velocity": 0,
        "byte9": true
    },
    {
        "deltaTime": 111,
        "channel": 1,
        "type": "noteOn",
        "noteNumber": 31,
        "velocity": 110
    },
    {
        "deltaTime": 0,
        "channel": 5,
        "type": "noteOn",
        "noteNumber": 74,
        "velocity": 105
    },
    {
        "deltaTime": 0,
        "running": true,
        "channel": 5,
        "type": "noteOn",
        "noteNumber": 79,
        "velocity": 94
    },
    {
        "deltaTime": 0,
        "running": true,
        "channel": 5,
        "type": "noteOn",
        "noteNumber": 82,
        "velocity": 94
    },
    {
        "deltaTime": 0,
        "channel": 8,
        "type": "noteOn",
        "noteNumber": 31,
        "velocity": 110
    },
    {
        "deltaTime": 0,
        "channel": 9,
        "type": "noteOn",
        "noteNumber": 35,
        "velocity": 114
    },
    {
        "deltaTime": 0,
        "channel": 11,
        "type": "noteOn",
        "noteNumber": 41,
        "velocity": 114
    },
    {
        "deltaTime": 0,
        "channel": 12,
        "type": "noteOn",
        "noteNumber": 62,
        "velocity": 119
    },
    {
        "deltaTime": 1,
        "channel": 11,
        "type": "noteOff",
        "noteNumber": 41,
        "velocity": 0,
        "byte9": true
    },
    {
        "deltaTime": 11,
        "channel": 9,
        "type": "noteOff",
        "noteNumber": 35,
        "velocity": 0,
        "byte9": true
    },
    {
        "deltaTime": 0,
        "channel": 3,
        "type": "noteOn",
        "noteNumber": 76,
        "velocity": 127
    },
    {
        "deltaTime": 0,
        "channel": 14,
        "type": "noteOn",
        "noteNumber": 62,
        "velocity": 105
    },
    {
        "deltaTime": 0,
        "running": true,
        "channel": 14,
        "type": "noteOn",
        "noteNumber": 67,
        "velocity": 94
    },
    {
        "deltaTime": 0,
        "running": true,
        "channel": 14,
        "type": "noteOn",
        "noteNumber": 70,
        "velocity": 94
    },
    {
        "deltaTime": 136,
        "channel": 5,
        "type": "noteOff",
        "noteNumber": 82,
        "velocity": 0,
        "byte9": true
    },
    {
        "deltaTime": 6,
        "channel": 11,
        "type": "noteOff",
        "noteNumber": 41,
        "velocity": 0,
        "byte9": true
    },
    {
        "deltaTime": 2,
        "channel": 5,
        "type": "noteOff",
        "noteNumber": 74,
        "velocity": 0,
        "byte9": true
    },
    {
        "deltaTime": 4,
        "running": true,
        "channel": 5,
        "type": "noteOff",
        "noteNumber": 79,
        "velocity": 0,
        "byte9": true
    },
    {
        "deltaTime": 8,
        "channel": 14,
        "type": "noteOff",
        "noteNumber": 70,
        "velocity": 0,
        "byte9": true
    },
    {
        "deltaTime": 8,
        "running": true,
        "channel": 14,
        "type": "noteOff",
        "noteNumber": 62,
        "velocity": 0,
        "byte9": true
    },
    {
        "deltaTime": 4,
        "running": true,
        "channel": 14,
        "type": "noteOff",
        "noteNumber": 67,
        "velocity": 0,
        "byte9": true
    },
    {
        "deltaTime": 133,
        "channel": 9,
        "type": "noteOn",
        "noteNumber": 70,
        "velocity": 65
    },
    {
        "deltaTime": 12,
        "running": true,
        "channel": 9,
        "type": "noteOff",
        "noteNumber": 70,
        "velocity": 0,
        "byte9": true
    },
    {
        "deltaTime": 0,
        "channel": 3,
        "type": "noteOn",
        "noteNumber": 77,
        "velocity": 124
    },
    {
        "deltaTime": 12,
        "running": true,
        "channel": 3,
        "type": "noteOff",
        "noteNumber": 76,
        "velocity": 0,
        "byte9": true
    },
    {
        "deltaTime": 116,
        "channel": 5,
        "type": "noteOn",
        "noteNumber": 74,
        "velocity": 109
    },
    {
        "deltaTime": 0,
        "running": true,
        "channel": 5,
        "type": "noteOn",
        "noteNumber": 79,
        "velocity": 94
    },
    {
        "deltaTime": 0,
        "running": true,
        "channel": 5,
        "type": "noteOn",
        "noteNumber": 82,
        "velocity": 94
    },
    {
        "deltaTime": 0,
        "channel": 9,
        "type": "noteOn",
        "noteNumber": 44,
        "velocity": 107
    },
    {
        "deltaTime": 0,
        "running": true,
        "channel": 9,
        "type": "noteOn",
        "noteNumber": 54,
        "velocity": 109
    },
    {
        "deltaTime": 12,
        "running": true,
        "channel": 9,
        "type": "noteOff",
        "noteNumber": 44,
        "velocity": 0,
        "byte9": true
    },
    {
        "deltaTime": 0,
        "running": true,
        "channel": 9,
        "type": "noteOff",
        "noteNumber": 54,
        "velocity": 0,
        "byte9": true
    },
    {
        "deltaTime": 1,
        "channel": 1,
        "type": "noteOff",
        "noteNumber": 31,
        "velocity": 0,
        "byte9": true
    },
    {
        "deltaTime": 0,
        "channel": 8,
        "type": "noteOff",
        "noteNumber": 31,
        "velocity": 0,
        "byte9": true
    },
    {
        "deltaTime": 6,
        "channel": 14,
        "type": "noteOn",
        "noteNumber": 62,
        "velocity": 109
    },
    {
        "deltaTime": 0,
        "running": true,
        "channel": 14,
        "type": "noteOn",
        "noteNumber": 67,
        "velocity": 94
    },
    {
        "deltaTime": 0,
        "running": true,
        "channel": 14,
        "type": "noteOn",
        "noteNumber": 70,
        "velocity": 94
    },
    {
        "deltaTime": 122,
        "channel": 5,
        "type": "noteOff",
        "noteNumber": 82,
        "velocity": 0,
        "byte9": true
    },
    {
        "deltaTime": 13,
        "running": true,
        "channel": 5,
        "type": "noteOff",
        "noteNumber": 74,
        "velocity": 0,
        "byte9": true
    },
    {
        "deltaTime": 0,
        "running": true,
        "channel": 5,
        "type": "noteOff",
        "noteNumber": 79,
        "velocity": 0,
        "byte9": true
    },
    {
        "deltaTime": 7,
        "channel": 14,
        "type": "noteOff",
        "noteNumber": 70,
        "velocity": 0,
        "byte9": true
    },
    {
        "deltaTime": 13,
        "running": true,
        "channel": 14,
        "type": "noteOff",
        "noteNumber": 62,
        "velocity": 0,
        "byte9": true
    },
    {
        "deltaTime": 0,
        "running": true,
        "channel": 14,
        "type": "noteOff",
        "noteNumber": 67,
        "velocity": 0,
        "byte9": true
    },
    {
        "deltaTime": 98,
        "channel": 3,
        "type": "noteOff",
        "noteNumber": 77,
        "velocity": 0,
        "byte9": true
    },
    {
        "deltaTime": 0,
        "channel": 3,
        "type": "noteOn",
        "noteNumber": 76,
        "velocity": 127
    },
    {
        "deltaTime": 192,
        "channel": 1,
        "type": "noteOn",
        "noteNumber": 31,
        "velocity": 110
    },
    {
        "deltaTime": 0,
        "channel": 5,
        "type": "noteOn",
        "noteNumber": 74,
        "velocity": 109
    },
    {
        "deltaTime": 0,
        "running": true,
        "channel": 5,
        "type": "noteOn",
        "noteNumber": 79,
        "velocity": 94
    },
    {
        "deltaTime": 0,
        "running": true,
        "channel": 5,
        "type": "noteOn",
        "noteNumber": 82,
        "velocity": 101
    },
    {
        "deltaTime": 0,
        "channel": 8,
        "type": "noteOn",
        "noteNumber": 31,
        "velocity": 110
    },
    {
        "deltaTime": 0,
        "channel": 9,
        "type": "noteOn",
        "noteNumber": 35,
        "velocity": 114
    },
    {
        "deltaTime": 0,
        "channel": 11,
        "type": "noteOn",
        "noteNumber": 41,
        "velocity": 114
    },
    {
        "deltaTime": 0,
        "channel": 12,
        "type": "noteOn",
        "noteNumber": 67,
        "velocity": 119
    },
    {
        "deltaTime": 12,
        "channel": 9,
        "type": "noteOff",
        "noteNumber": 35,
        "velocity": 0,
        "byte9": true
    },
    {
        "deltaTime": 7,
        "channel": 14,
        "type": "noteOn",
        "noteNumber": 62,
        "velocity": 109
    },
    {
        "deltaTime": 0,
        "running": true,
        "channel": 14,
        "type": "noteOn",
        "noteNumber": 67,
        "velocity": 94
    },
    {
        "deltaTime": 0,
        "running": true,
        "channel": 14,
        "type": "noteOn",
        "noteNumber": 70,
        "velocity": 101
    },
    {
        "deltaTime": 136,
        "channel": 5,
        "type": "noteOff",
        "noteNumber": 82,
        "velocity": 0,
        "byte9": true
    },
    {
        "deltaTime": 6,
        "channel": 11,
        "type": "noteOff",
        "noteNumber": 41,
        "velocity": 0,
        "byte9": true
    },
    {
        "deltaTime": 10,
        "channel": 5,
        "type": "noteOff",
        "noteNumber": 74,
        "velocity": 0,
        "byte9": true
    },
    {
        "deltaTime": 0,
        "running": true,
        "channel": 5,
        "type": "noteOff",
        "noteNumber": 79,
        "velocity": 0,
        "byte9": true
    },
    {
        "deltaTime": 4,
        "channel": 14,
        "type": "noteOff",
        "noteNumber": 70,
        "velocity": 0,
        "byte9": true
    },
    {
        "deltaTime": 16,
        "running": true,
        "channel": 14,
        "type": "noteOff",
        "noteNumber": 62,
        "velocity": 0,
        "byte9": true
    },
    {
        "deltaTime": 0,
        "running": true,
        "channel": 14,
        "type": "noteOff",
        "noteNumber": 67,
        "velocity": 0,
        "byte9": true
    },
    {
        "deltaTime": 0,
        "channel": 3,
        "type": "noteOn",
        "noteNumber": 79,
        "velocity": 127
    },
    {
        "deltaTime": 28,
        "channel": 12,
        "type": "noteOff",
        "noteNumber": 62,
        "velocity": 0,
        "byte9": true
    },
    {
        "deltaTime": 12,
        "channel": 3,
        "type": "noteOff",
        "noteNumber": 76,
        "velocity": 0,
        "byte9": true
    },
    {
        "deltaTime": 148,
        "channel": 12,
        "type": "noteOff",
        "noteNumber": 67,
        "velocity": 0,
        "byte9": true
    },
    {
        "deltaTime": 4,
        "channel": 5,
        "type": "noteOn",
        "noteNumber": 74,
        "velocity": 108
    },
    {
        "deltaTime": 0,
        "running": true,
        "channel": 5,
        "type": "noteOn",
        "noteNumber": 79,
        "velocity": 97
    },
    {
        "deltaTime": 0,
        "running": true,
        "channel": 5,
        "type": "noteOn",
        "noteNumber": 82,
        "velocity": 98
    },
    {
        "deltaTime": 0,
        "channel": 9,
        "type": "noteOn",
        "noteNumber": 44,
        "velocity": 107
    },
    {
        "deltaTime": 0,
        "running": true,
        "channel": 9,
        "type": "noteOn",
        "noteNumber": 69,
        "velocity": 109
    },
    {
        "deltaTime": 0,
        "channel": 12,
        "type": "noteOn",
        "noteNumber": 62,
        "velocity": 119
    },
    {
        "deltaTime": 12,
        "channel": 9,
        "type": "noteOff",
        "noteNumber": 44,
        "velocity": 0,
        "byte9": true
    },
    {
        "deltaTime": 0,
        "running": true,
        "channel": 9,
        "type": "noteOff",
        "noteNumber": 69,
        "velocity": 0,
        "byte9": true
    },
    {
        "deltaTime": 1,
        "channel": 1,
        "type": "noteOff",
        "noteNumber": 31,
        "velocity": 0,
        "byte9": true
    },
    {
        "deltaTime": 0,
        "channel": 8,
        "type": "noteOff",
        "noteNumber": 31,
        "velocity": 0,
        "byte9": true
    },
    {
        "deltaTime": 6,
        "channel": 14,
        "type": "noteOn",
        "noteNumber": 62,
        "velocity": 108
    },
    {
        "deltaTime": 0,
        "running": true,
        "channel": 14,
        "type": "noteOn",
        "noteNumber": 67,
        "velocity": 97
    },
    {
        "deltaTime": 0,
        "running": true,
        "channel": 14,
        "type": "noteOn",
        "noteNumber": 70,
        "velocity": 98
    },
    {
        "deltaTime": 10,
        "channel": 12,
        "type": "noteOff",
        "noteNumber": 55,
        "velocity": 0,
        "byte9": true
    },
    {
        "deltaTime": 42,
        "running": true,
        "channel": 12,
        "type": "noteOff",
        "noteNumber": 58,
        "velocity": 0,
        "byte9": true
    },
    {
        "deltaTime": 75,
        "channel": 5,
        "type": "noteOff",
        "noteNumber": 82,
        "velocity": 0,
        "byte9": true
    },
    {
        "deltaTime": 12,
        "running": true,
        "channel": 5,
        "type": "noteOff",
        "noteNumber": 74,
        "velocity": 0,
        "byte9": true
    },
    {
        "deltaTime": 5,
        "running": true,
        "channel": 5,
        "type": "noteOff",
        "noteNumber": 79,
        "velocity": 0,
        "byte9": true
    },
    {
        "deltaTime": 3,
        "channel": 14,
        "type": "noteOff",
        "noteNumber": 70,
        "velocity": 0,
        "byte9": true
    },
    {
        "deltaTime": 12,
        "running": true,
        "channel": 14,
        "type": "noteOff",
        "noteNumber": 62,
        "velocity": 0,
        "byte9": true
    },
    {
        "deltaTime": 5,
        "running": true,
        "channel": 14,
        "type": "noteOff",
        "noteNumber": 67,
        "velocity": 0,
        "byte9": true
    },
    {
        "deltaTime": 43,
        "channel": 3,
        "type": "noteOff",
        "noteNumber": 79,
        "velocity": 0,
        "byte9": true
    },
    {
        "deltaTime": 0,
        "channel": 3,
        "type": "noteOn",
        "noteNumber": 77,
        "velocity": 115
    },
    {
        "deltaTime": 90,
        "channel": 1,
        "type": "noteOn",
        "noteNumber": 31,
        "velocity": 110
    },
    {
        "deltaTime": 0,
        "channel": 8,
        "type": "noteOn",
        "noteNumber": 31,
        "velocity": 110
    },
    {
        "deltaTime": 0,
        "channel": 9,
        "type": "noteOn",
        "noteNumber": 35,
        "velocity": 114
    },
    {
        "deltaTime": 0,
        "channel": 11,
        "type": "noteOn",
        "noteNumber": 41,
        "velocity": 114
    },
    {
        "deltaTime": 12,
        "channel": 9,
        "type": "noteOff",
        "noteNumber": 35,
        "velocity": 0,
        "byte9": true
    },
    {
        "deltaTime": 1,
        "channel": 3,
        "type": "noteOff",
        "noteNumber": 77,
        "velocity": 0,
        "byte9": true
    },
    {
        "deltaTime": 0,
        "channel": 3,
        "type": "noteOn",
        "noteNumber": 77,
        "velocity": 119
    },
    {
        "deltaTime": 45,
        "channel": 12,
        "type": "noteOff",
        "noteNumber": 62,
        "velocity": 0,
        "byte9": true
    },
    {
        "deltaTime": 4,
        "channel": 5,
        "type": "noteOn",
        "noteNumber": 74,
        "velocity": 105
    },
    {
        "deltaTime": 0,
        "running": true,
        "channel": 5,
        "type": "noteOn",
        "noteNumber": 79,
        "velocity": 89
    },
    {
        "deltaTime": 0,
        "running": true,
        "channel": 5,
        "type": "noteOn",
        "noteNumber": 82,
        "velocity": 94
    },
    {
        "deltaTime": 0,
        "channel": 12,
        "type": "noteOn",
        "noteNumber": 58,
        "velocity": 119
    },
    {
        "deltaTime": 1,
        "channel": 11,
        "type": "noteOff",
        "noteNumber": 41,
        "velocity": 0,
        "byte9": true
    },
    {
        "deltaTime": 18,
        "channel": 14,
        "type": "noteOn",
        "noteNumber": 62,
        "velocity": 105
    },
    {
        "deltaTime": 0,
        "running": true,
        "channel": 14,
        "type": "noteOn",
        "noteNumber": 67,
        "velocity": 89
    },
    {
        "deltaTime": 0,
        "running": true,
        "channel": 14,
        "type": "noteOn",
        "noteNumber": 70,
        "velocity": 94
    },
    {
        "deltaTime": 127,
        "channel": 5,
        "type": "noteOff",
        "noteNumber": 82,
        "velocity": 0,
        "byte9": true
    },
    {
        "deltaTime": 19,
        "channel": 14,
        "type": "noteOff",
        "noteNumber": 70,
        "velocity": 0,
        "byte9": true
    },
    {
        "deltaTime": 3,
        "channel": 5,
        "type": "noteOff",
        "noteNumber": 74,
        "velocity": 0,
        "byte9": true
    },
    {
        "deltaTime": 0,
        "running": true,
        "channel": 5,
        "type": "noteOff",
        "noteNumber": 79,
        "velocity": 0,
        "byte9": true
    },
    {
        "deltaTime": 20,
        "channel": 14,
        "type": "noteOff",
        "noteNumber": 62,
        "velocity": 0,
        "byte9": true
    },
    {
        "deltaTime": 0,
        "running": true,
        "channel": 14,
        "type": "noteOff",
        "noteNumber": 67,
        "velocity": 0,
        "byte9": true
    },
    {
        "deltaTime": 132,
        "channel": 1,
        "type": "noteOn",
        "noteNumber": 32,
        "velocity": 110
    },
    {
        "deltaTime": 0,
        "channel": 8,
        "type": "noteOn",
        "noteNumber": 32,
        "velocity": 110
    },
    {
        "deltaTime": 0,
        "channel": 9,
        "type": "noteOn",
        "noteNumber": 35,
        "velocity": 114
    },
    {
        "deltaTime": 0,
        "running": true,
        "channel": 9,
        "type": "noteOn",
        "noteNumber": 70,
        "velocity": 65
    },
    {
        "deltaTime": 0,
        "channel": 11,
        "type": "noteOn",
        "noteNumber": 41,
        "velocity": 114
    },
    {
        "deltaTime": 12,
        "channel": 9,
        "type": "noteOff",
        "noteNumber": 35,
        "velocity": 0,
        "byte9": true
    },
    {
        "deltaTime": 0,
        "running": true,
        "channel": 9,
        "type": "noteOff",
        "noteNumber": 70,
        "velocity": 0,
        "byte9": true
    },
    {
        "deltaTime": 1,
        "channel": 1,
        "type": "noteOff",
        "noteNumber": 31,
        "velocity": 0,
        "byte9": true
    },
    {
        "deltaTime": 0,
        "channel": 8,
        "type": "noteOff",
        "noteNumber": 31,
        "velocity": 0,
        "byte9": true
    },
    {
        "deltaTime": 147,
        "channel": 5,
        "type": "noteOn",
        "noteNumber": 74,
        "velocity": 109
    },
    {
        "deltaTime": 0,
        "running": true,
        "channel": 5,
        "type": "noteOn",
        "noteNumber": 79,
        "velocity": 97
    },
    {
        "deltaTime": 0,
        "running": true,
        "channel": 5,
        "type": "noteOn",
        "noteNumber": 82,
        "velocity": 110
    },
    {
        "deltaTime": 0,
        "channel": 9,
        "type": "noteOn",
        "noteNumber": 44,
        "velocity": 107
    },
    {
        "deltaTime": 0,
        "running": true,
        "channel": 9,
        "type": "noteOn",
        "noteNumber": 54,
        "velocity": 109
    },
    {
        "deltaTime": 1,
        "channel": 11,
        "type": "noteOff",
        "noteNumber": 41,
        "velocity": 0,
        "byte9": true
    },
    {
        "deltaTime": 11,
        "channel": 9,
        "type": "noteOff",
        "noteNumber": 44,
        "velocity": 0,
        "byte9": true
    },
    {
        "deltaTime": 0,
        "running": true,
        "channel": 9,
        "type": "noteOff",
        "noteNumber": 54,
        "velocity": 0,
        "byte9": true
    },
    {
        "deltaTime": 7,
        "channel": 14,
        "type": "noteOn",
        "noteNumber": 62,
        "velocity": 109
    },
    {
        "deltaTime": 0,
        "running": true,
        "channel": 14,
        "type": "noteOn",
        "noteNumber": 67,
        "velocity": 97
    },
    {
        "deltaTime": 0,
        "running": true,
        "channel": 14,
        "type": "noteOn",
        "noteNumber": 70,
        "velocity": 110
    },
    {
        "deltaTime": 71,
        "channel": 3,
        "type": "noteOff",
        "noteNumber": 77,
        "velocity": 0,
        "byte9": true
    },
    {
        "deltaTime": 59,
        "channel": 5,
        "type": "noteOff",
        "noteNumber": 82,
        "velocity": 0,
        "byte9": true
    },
    {
        "deltaTime": 9,
        "running": true,
        "channel": 5,
        "type": "noteOff",
        "noteNumber": 74,
        "velocity": 0,
        "byte9": true
    },
    {
        "deltaTime": 3,
        "running": true,
        "channel": 5,
        "type": "noteOff",
        "noteNumber": 79,
        "velocity": 0,
        "byte9": true
    },
    {
        "deltaTime": 7,
        "channel": 14,
        "type": "noteOff",
        "noteNumber": 70,
        "velocity": 0,
        "byte9": true
    },
    {
        "deltaTime": 9,
        "running": true,
        "channel": 14,
        "type": "noteOff",
        "noteNumber": 62,
        "velocity": 0,
        "byte9": true
    },
    {
        "deltaTime": 3,
        "running": true,
        "channel": 14,
        "type": "noteOff",
        "noteNumber": 67,
        "velocity": 0,
        "byte9": true
    },
    {
        "deltaTime": 136,
        "channel": 1,
        "type": "noteOff",
        "noteNumber": 32,
        "velocity": 0,
        "byte9": true
    },
    {
        "deltaTime": 0,
        "channel": 8,
        "type": "noteOff",
        "noteNumber": 32,
        "velocity": 0,
        "byte9": true
    },
    {
        "deltaTime": 0,
        "channel": 12,
        "type": "noteOff",
        "noteNumber": 58,
        "velocity": 0,
        "byte9": true
    },
    {
        "deltaTime": 4,
        "channel": 1,
        "type": "noteOn",
        "noteNumber": 33,
        "velocity": 110
    },
    {
        "deltaTime": 0,
        "channel": 8,
        "type": "noteOn",
        "noteNumber": 33,
        "velocity": 110
    },
    {
        "deltaTime": 0,
        "channel": 12,
        "type": "noteOn",
        "noteNumber": 55,
        "velocity": 119
    },
    {
        "deltaTime": 76,
        "running": true,
        "channel": 12,
        "type": "noteOff",
        "noteNumber": 55,
        "velocity": 0,
        "byte9": true
    },
    {
        "deltaTime": 4,
        "running": true,
        "channel": 12,
        "type": "noteOn",
        "noteNumber": 57,
        "velocity": 119
    },
    {
        "deltaTime": 76,
        "channel": 1,
        "type": "noteOff",
        "noteNumber": 33,
        "velocity": 0,
        "byte9": true
    },
    {
        "deltaTime": 0,
        "channel": 8,
        "type": "noteOff",
        "noteNumber": 33,
        "velocity": 0,
        "byte9": true
    },
    {
        "deltaTime": 0,
        "channel": 10,
        "type": "noteOff",
        "noteNumber": 79,
        "velocity": 0,
        "byte9": true
    },
    {
        "deltaTime": 0,
        "channel": 12,
        "type": "noteOff",
        "noteNumber": 57,
        "velocity": 0,
        "byte9": true
    },
    {
        "deltaTime": 4,
        "channel": 1,
        "type": "noteOn",
        "noteNumber": 34,
        "velocity": 110
    },
    {
        "deltaTime": 0,
        "channel": 5,
        "type": "noteOn",
        "noteNumber": 74,
        "velocity": 101
    },
    {
        "deltaTime": 0,
        "running": true,
        "channel": 5,
        "type": "noteOn",
        "noteNumber": 77,
        "velocity": 97
    },
    {
        "deltaTime": 0,
        "running": true,
        "channel": 5,
        "type": "noteOn",
        "noteNumber": 82,
        "velocity": 105
    },
    {
        "deltaTime": 0,
        "channel": 7,
        "type": "noteOn",
        "noteNumber": 82,
        "velocity": 104
    },
    {
        "deltaTime": 0,
        "channel": 8,
        "type": "noteOn",
        "noteNumber": 34,
        "velocity": 110
    },
    {
        "deltaTime": 0,
        "channel": 9,
        "type": "noteOn",
        "noteNumber": 35,
        "velocity": 114
    },
    {
        "deltaTime": 0,
        "channel": 10,
        "type": "noteOn",
        "noteNumber": 70,
        "velocity": 104
    },
    {
        "deltaTime": 0,
        "running": true,
        "channel": 10,
        "type": "noteOn",
        "noteNumber": 82,
        "velocity": 104
    },
    {
        "deltaTime": 0,
        "channel": 11,
        "type": "noteOn",
        "noteNumber": 41,
        "velocity": 114
    },
    {
        "deltaTime": 0,
        "channel": 12,
        "type": "noteOn",
        "noteNumber": 58,
        "velocity": 127
    },
    {
        "deltaTime": 12,
        "channel": 9,
        "type": "noteOff",
        "noteNumber": 35,
        "velocity": 0,
        "byte9": true
    },
    {
        "deltaTime": 7,
        "channel": 14,
        "type": "noteOn",
        "noteNumber": 62,
        "velocity": 101
    },
    {
        "deltaTime": 0,
        "running": true,
        "channel": 14,
        "type": "noteOn",
        "noteNumber": 65,
        "velocity": 97
    },
    {
        "deltaTime": 0,
        "running": true,
        "channel": 14,
        "type": "noteOn",
        "noteNumber": 70,
        "velocity": 105
    },
    {
        "deltaTime": 54,
        "channel": 5,
        "type": "noteOff",
        "noteNumber": 82,
        "velocity": 0,
        "byte9": true
    },
    {
        "deltaTime": 20,
        "channel": 14,
        "type": "noteOff",
        "noteNumber": 70,
        "velocity": 0,
        "byte9": true
    },
    {
        "deltaTime": 28,
        "channel": 5,
        "type": "noteOff",
        "noteNumber": 77,
        "velocity": 0,
        "byte9": true
    },
    {
        "deltaTime": 2,
        "running": true,
        "channel": 5,
        "type": "noteOff",
        "noteNumber": 74,
        "velocity": 0,
        "byte9": true
    },
    {
        "deltaTime": 17,
        "channel": 14,
        "type": "noteOff",
        "noteNumber": 65,
        "velocity": 0,
        "byte9": true
    },
    {
        "deltaTime": 2,
        "running": true,
        "channel": 14,
        "type": "noteOff",
        "noteNumber": 62,
        "velocity": 0,
        "byte9": true
    },
    {
        "deltaTime": 19,
        "channel": 11,
        "type": "noteOff",
        "noteNumber": 41,
        "velocity": 0,
        "byte9": true
    },
    {
        "deltaTime": 159,
        "channel": 12,
        "type": "noteOn",
        "noteNumber": 62,
        "velocity": 105
    },
    {
        "deltaTime": 160,
        "channel": 5,
        "type": "noteOn",
        "noteNumber": 74,
        "velocity": 111
    },
    {
        "deltaTime": 0,
        "running": true,
        "channel": 5,
        "type": "noteOn",
        "noteNumber": 77,
        "velocity": 107
    },
    {
        "deltaTime": 0,
        "running": true,
        "channel": 5,
        "type": "noteOn",
        "noteNumber": 82,
        "velocity": 105
    },
    {
        "deltaTime": 0,
        "channel": 9,
        "type": "noteOn",
        "noteNumber": 44,
        "velocity": 107
    },
    {
        "deltaTime": 0,
        "running": true,
        "channel": 9,
        "type": "noteOn",
        "noteNumber": 69,
        "velocity": 109
    },
    {
        "deltaTime": 0,
        "channel": 12,
        "type": "noteOn",
        "noteNumber": 65,
        "velocity": 89
    },
    {
        "deltaTime": 12,
        "channel": 9,
        "type": "noteOff",
        "noteNumber": 44,
        "velocity": 0,
        "byte9": true
    },
    {
        "deltaTime": 0,
        "running": true,
        "channel": 9,
        "type": "noteOff",
        "noteNumber": 69,
        "velocity": 0,
        "byte9": true
    },
    {
        "deltaTime": 1,
        "channel": 1,
        "type": "noteOff",
        "noteNumber": 34,
        "velocity": 0,
        "byte9": true
    },
    {
        "deltaTime": 0,
        "channel": 8,
        "type": "noteOff",
        "noteNumber": 34,
        "velocity": 0,
        "byte9": true
    },
    {
        "deltaTime": 6,
        "channel": 14,
        "type": "noteOn",
        "noteNumber": 62,
        "velocity": 111
    },
    {
        "deltaTime": 0,
        "running": true,
        "channel": 14,
        "type": "noteOn",
        "noteNumber": 65,
        "velocity": 107
    },
    {
        "deltaTime": 0,
        "running": true,
        "channel": 14,
        "type": "noteOn",
        "noteNumber": 70,
        "velocity": 105
    },
    {
        "deltaTime": 138,
        "channel": 5,
        "type": "noteOff",
        "noteNumber": 82,
        "velocity": 0,
        "byte9": true
    },
    {
        "deltaTime": 7,
        "running": true,
        "channel": 5,
        "type": "noteOff",
        "noteNumber": 77,
        "velocity": 0,
        "byte9": true
    },
    {
        "deltaTime": 4,
        "running": true,
        "channel": 5,
        "type": "noteOff",
        "noteNumber": 74,
        "velocity": 0,
        "byte9": true
    },
    {
        "deltaTime": 9,
        "channel": 14,
        "type": "noteOff",
        "noteNumber": 70,
        "velocity": 0,
        "byte9": true
    },
    {
        "deltaTime": 7,
        "running": true,
        "channel": 14,
        "type": "noteOff",
        "noteNumber": 65,
        "velocity": 0,
        "byte9": true
    },
    {
        "deltaTime": 4,
        "running": true,
        "channel": 14,
        "type": "noteOff",
        "noteNumber": 62,
        "velocity": 0,
        "byte9": true
    },
    {
        "deltaTime": 0,
        "channel": 3,
        "type": "noteOn",
        "noteNumber": 76,
        "velocity": 119
    },
    {
        "deltaTime": 45,
        "channel": 1,
        "type": "noteOn",
        "noteNumber": 34,
        "velocity": 110
    },
    {
        "deltaTime": 0,
        "channel": 8,
        "type": "noteOn",
        "noteNumber": 34,
        "velocity": 110
    },
    {
        "deltaTime": 0,
        "channel": 9,
        "type": "noteOn",
        "noteNumber": 35,
        "velocity": 107
    },
    {
        "deltaTime": 0,
        "channel": 11,
        "type": "noteOn",
        "noteNumber": 41,
        "velocity": 107
    },
    {
        "deltaTime": 0,
        "channel": 12,
        "type": "noteOn",
        "noteNumber": 70,
        "velocity": 115
    },
    {
        "deltaTime": 12,
        "channel": 9,
        "type": "noteOff",
        "noteNumber": 35,
        "velocity": 0,
        "byte9": true
    },
    {
        "deltaTime": 37,
        "channel": 1,
        "type": "noteOff",
        "noteNumber": 34,
        "velocity": 0,
        "byte9": true
    },
    {
        "deltaTime": 0,
        "channel": 8,
        "type": "noteOff",
        "noteNumber": 34,
        "velocity": 0,
        "byte9": true
    },
    {
        "deltaTime": 107,
        "channel": 10,
        "type": "noteOff",
        "noteNumber": 70,
        "velocity": 0,
        "byte9": true
    },
    {
        "deltaTime": 0,
        "running": true,
        "channel": 10,
        "type": "noteOff",
        "noteNumber": 82,
        "velocity": 0,
        "byte9": true
    },
    {
        "deltaTime": 4,
        "channel": 1,
        "type": "noteOn",
        "noteNumber": 34,
        "velocity": 110
    },
    {
        "deltaTime": 0,
        "channel": 5,
        "type": "noteOn",
        "noteNumber": 74,
        "velocity": 105
    },
    {
        "deltaTime": 0,
        "running": true,
        "channel": 5,
        "type": "noteOn",
        "noteNumber": 77,
        "velocity": 94
    },
    {
        "deltaTime": 0,
        "running": true,
        "channel": 5,
        "type": "noteOn",
        "noteNumber": 82,
        "velocity": 94
    },
    {
        "deltaTime": 0,
        "channel": 7,
        "type": "noteOn",
        "noteNumber": 81,
        "velocity": 104
    },
    {
        "deltaTime": 0,
        "channel": 8,
        "type": "noteOn",
        "noteNumber": 34,
        "velocity": 110
    },
    {
        "deltaTime": 0,
        "channel": 9,
        "type": "noteOn",
        "noteNumber": 35,
        "velocity": 114
    },
    {
        "deltaTime": 0,
        "channel": 10,
        "type": "noteOn",
        "noteNumber": 69,
        "velocity": 104
    },
    {
        "deltaTime": 0,
        "running": true,
        "channel": 10,
        "type": "noteOn",
        "noteNumber": 81,
        "velocity": 104
    },
    {
        "deltaTime": 0,
        "channel": 11,
        "type": "noteOn",
        "noteNumber": 41,
        "velocity": 114
    },
    {
        "deltaTime": 0,
        "channel": 12,
        "type": "noteOn",
        "noteNumber": 69,
        "velocity": 124
    },
    {
        "deltaTime": 1,
        "channel": 11,
        "type": "noteOff",
        "noteNumber": 41,
        "velocity": 0,
        "byte9": true
    },
    {
        "deltaTime": 11,
        "channel": 9,
        "type": "noteOff",
        "noteNumber": 35,
        "velocity": 0,
        "byte9": true
    },
    {
        "deltaTime": 3,
        "channel": 7,
        "type": "noteOff",
        "noteNumber": 82,
        "velocity": 0,
        "byte9": true
    },
    {
        "deltaTime": 4,
        "channel": 14,
        "type": "noteOn",
        "noteNumber": 62,
        "velocity": 105
    },
    {
        "deltaTime": 0,
        "running": true,
        "channel": 14,
        "type": "noteOn",
        "noteNumber": 65,
        "velocity": 94
    },
    {
        "deltaTime": 0,
        "running": true,
        "channel": 14,
        "type": "noteOn",
        "noteNumber": 70,
        "velocity": 94
    },
    {
        "deltaTime": 41,
        "channel": 12,
        "type": "noteOff",
        "noteNumber": 70,
        "velocity": 0,
        "byte9": true
    },
    {
        "deltaTime": 95,
        "channel": 5,
        "type": "noteOff",
        "noteNumber": 82,
        "velocity": 0,
        "byte9": true
    },
    {
        "deltaTime": 6,
        "channel": 11,
        "type": "noteOff",
        "noteNumber": 41,
        "velocity": 0,
        "byte9": true
    },
    {
        "deltaTime": 2,
        "channel": 5,
        "type": "noteOff",
        "noteNumber": 74,
        "velocity": 0,
        "byte9": true
    },
    {
        "deltaTime": 4,
        "running": true,
        "channel": 5,
        "type": "noteOff",
        "noteNumber": 77,
        "velocity": 0,
        "byte9": true
    },
    {
        "deltaTime": 8,
        "channel": 14,
        "type": "noteOff",
        "noteNumber": 70,
        "velocity": 0,
        "byte9": true
    },
    {
        "deltaTime": 8,
        "running": true,
        "channel": 14,
        "type": "noteOff",
        "noteNumber": 62,
        "velocity": 0,
        "byte9": true
    },
    {
        "deltaTime": 4,
        "running": true,
        "channel": 14,
        "type": "noteOff",
        "noteNumber": 65,
        "velocity": 0,
        "byte9": true
    },
    {
        "deltaTime": 133,
        "channel": 9,
        "type": "noteOn",
        "noteNumber": 70,
        "velocity": 65
    },
    {
        "deltaTime": 12,
        "running": true,
        "channel": 9,
        "type": "noteOff",
        "noteNumber": 70,
        "velocity": 0,
        "byte9": true
    },
    {
        "deltaTime": 3,
        "channel": 3,
        "type": "noteOff",
        "noteNumber": 76,
        "velocity": 0,
        "byte9": true
    },
    {
        "deltaTime": 0,
        "channel": 3,
        "type": "noteOn",
        "noteNumber": 77,
        "velocity": 114
    },
    {
        "deltaTime": 128,
        "channel": 5,
        "type": "noteOn",
        "noteNumber": 74,
        "velocity": 109
    },
    {
        "deltaTime": 0,
        "running": true,
        "channel": 5,
        "type": "noteOn",
        "noteNumber": 77,
        "velocity": 94
    },
    {
        "deltaTime": 0,
        "running": true,
        "channel": 5,
        "type": "noteOn",
        "noteNumber": 82,
        "velocity": 94
    },
    {
        "deltaTime": 0,
        "channel": 9,
        "type": "noteOn",
        "noteNumber": 44,
        "velocity": 107
    },
    {
        "deltaTime": 0,
        "running": true,
        "channel": 9,
        "type": "noteOn",
        "noteNumber": 54,
        "velocity": 109
    },
    {
        "deltaTime": 12,
        "running": true,
        "channel": 9,
        "type": "noteOff",
        "noteNumber": 44,
        "velocity": 0,
        "byte9": true
    },
    {
        "deltaTime": 0,
        "running": true,
        "channel": 9,
        "type": "noteOff",
        "noteNumber": 54,
        "velocity": 0,
        "byte9": true
    },
    {
        "deltaTime": 1,
        "channel": 1,
        "type": "noteOff",
        "noteNumber": 34,
        "velocity": 0,
        "byte9": true
    },
    {
        "deltaTime": 0,
        "channel": 8,
        "type": "noteOff",
        "noteNumber": 34,
        "velocity": 0,
        "byte9": true
    },
    {
        "deltaTime": 6,
        "channel": 14,
        "type": "noteOn",
        "noteNumber": 62,
        "velocity": 109
    },
    {
        "deltaTime": 0,
        "running": true,
        "channel": 14,
        "type": "noteOn",
        "noteNumber": 65,
        "velocity": 94
    },
    {
        "deltaTime": 0,
        "running": true,
        "channel": 14,
        "type": "noteOn",
        "noteNumber": 70,
        "velocity": 94
    },
    {
        "deltaTime": 122,
        "channel": 5,
        "type": "noteOff",
        "noteNumber": 82,
        "velocity": 0,
        "byte9": true
    },
    {
        "deltaTime": 9,
        "channel": 12,
        "type": "noteOff",
        "noteNumber": 58,
        "velocity": 0,
        "byte9": true
    },
    {
        "deltaTime": 4,
        "channel": 5,
        "type": "noteOff",
        "noteNumber": 74,
        "velocity": 0,
        "byte9": true
    },
    {
        "deltaTime": 0,
        "running": true,
        "channel": 5,
        "type": "noteOff",
        "noteNumber": 77,
        "velocity": 0,
        "byte9": true
    },
    {
        "deltaTime": 7,
        "channel": 14,
        "type": "noteOff",
        "noteNumber": 70,
        "velocity": 0,
        "byte9": true
    },
    {
        "deltaTime": 13,
        "running": true,
        "channel": 14,
        "type": "noteOff",
        "noteNumber": 62,
        "velocity": 0,
        "byte9": true
    },
    {
        "deltaTime": 0,
        "running": true,
        "channel": 14,
        "type": "noteOff",
        "noteNumber": 65,
        "velocity": 0,
        "byte9": true
    },
    {
        "deltaTime": 4,
        "channel": 12,
        "type": "noteOff",
        "noteNumber": 65,
        "velocity": 0,
        "byte9": true
    },
    {
        "deltaTime": 4,
        "running": true,
        "channel": 12,
        "type": "noteOff",
        "noteNumber": 62,
        "velocity": 0,
        "byte9": true
    },
    {
        "deltaTime": 9,
        "running": true,
        "channel": 12,
        "type": "noteOff",
        "noteNumber": 69,
        "velocity": 0,
        "byte9": true
    },
    {
        "deltaTime": 230,
        "channel": 3,
        "type": "noteOff",
        "noteNumber": 77,
        "velocity": 0,
        "byte9": true
    },
    {
        "deltaTime": 3,
        "running": true,
        "channel": 3,
        "type": "noteOn",
        "noteNumber": 76,
        "velocity": 119
    },
    {
        "deltaTime": 52,
        "channel": 10,
        "type": "noteOff",
        "noteNumber": 69,
        "velocity": 0,
        "byte9": true
    },
    {
        "deltaTime": 0,
        "running": true,
        "channel": 10,
        "type": "noteOff",
        "noteNumber": 81,
        "velocity": 0,
        "byte9": true
    },
    {
        "deltaTime": 4,
        "channel": 1,
        "type": "noteOn",
        "noteNumber": 34,
        "velocity": 110
    },
    {
        "deltaTime": 0,
        "channel": 5,
        "type": "noteOn",
        "noteNumber": 74,
        "velocity": 109
    },
    {
        "deltaTime": 0,
        "running": true,
        "channel": 5,
        "type": "noteOn",
        "noteNumber": 77,
        "velocity": 94
    },
    {
        "deltaTime": 0,
        "running": true,
        "channel": 5,
        "type": "noteOn",
        "noteNumber": 82,
        "velocity": 101
    },
    {
        "deltaTime": 0,
        "channel": 7,
        "type": "noteOn",
        "noteNumber": 79,
        "velocity": 104
    },
    {
        "deltaTime": 0,
        "channel": 8,
        "type": "noteOn",
        "noteNumber": 34,
        "velocity": 110
    },
    {
        "deltaTime": 0,
        "channel": 9,
        "type": "noteOn",
        "noteNumber": 35,
        "velocity": 114
    },
    {
        "deltaTime": 0,
        "channel": 10,
        "type": "noteOn",
        "noteNumber": 67,
        "velocity": 104
    },
    {
        "deltaTime": 0,
        "running": true,
        "channel": 10,
        "type": "noteOn",
        "noteNumber": 79,
        "velocity": 104
    },
    {
        "deltaTime": 0,
        "channel": 11,
        "type": "noteOn",
        "noteNumber": 41,
        "velocity": 114
    },
    {
        "deltaTime": 12,
        "channel": 9,
        "type": "noteOff",
        "noteNumber": 35,
        "velocity": 0,
        "byte9": true
    },
    {
        "deltaTime": 3,
        "channel": 7,
        "type": "noteOff",
        "noteNumber": 81,
        "velocity": 0,
        "byte9": true
    },
    {
        "deltaTime": 3,
        "channel": 12,
        "type": "noteOn",
        "noteNumber": 58,
        "velocity": 127
    },
    {
        "deltaTime": 1,
        "channel": 14,
        "type": "noteOn",
        "noteNumber": 62,
        "velocity": 109
    },
    {
        "deltaTime": 0,
        "running": true,
        "channel": 14,
        "type": "noteOn",
        "noteNumber": 65,
        "velocity": 94
    },
    {
        "deltaTime": 0,
        "running": true,
        "channel": 14,
        "type": "noteOn",
        "noteNumber": 70,
        "velocity": 101
    },
    {
        "deltaTime": 136,
        "channel": 5,
        "type": "noteOff",
        "noteNumber": 82,
        "velocity": 0,
        "byte9": true
    },
    {
        "deltaTime": 6,
        "channel": 11,
        "type": "noteOff",
        "noteNumber": 41,
        "velocity": 0,
        "byte9": true
    },
    {
        "deltaTime": 10,
        "channel": 5,
        "type": "noteOff",
        "noteNumber": 74,
        "velocity": 0,
        "byte9": true
    },
    {
        "deltaTime": 0,
        "running": true,
        "channel": 5,
        "type": "noteOff",
        "noteNumber": 77,
        "velocity": 0,
        "byte9": true
    },
    {
        "deltaTime": 4,
        "channel": 14,
        "type": "noteOff",
        "noteNumber": 70,
        "velocity": 0,
        "byte9": true
    },
    {
        "deltaTime": 16,
        "running": true,
        "channel": 14,
        "type": "noteOff",
        "noteNumber": 62,
        "velocity": 0,
        "byte9": true
    },
    {
        "deltaTime": 0,
        "running": true,
        "channel": 14,
        "type": "noteOff",
        "noteNumber": 65,
        "velocity": 0,
        "byte9": true
    },
    {
        "deltaTime": 97,
        "channel": 12,
        "type": "noteOn",
        "noteNumber": 62,
        "velocity": 114
    },
    {
        "deltaTime": 0,
        "channel": 3,
        "type": "noteOn",
        "noteNumber": 79,
        "velocity": 119
    },
    {
        "deltaTime": 29,
        "running": true,
        "channel": 3,
        "type": "noteOff",
        "noteNumber": 76,
        "velocity": 0,
        "byte9": true
    },
    {
        "deltaTime": 27,
        "channel": 5,
        "type": "noteOn",
        "noteNumber": 74,
        "velocity": 108
    },
    {
        "deltaTime": 0,
        "running": true,
        "channel": 5,
        "type": "noteOn",
        "noteNumber": 77,
        "velocity": 97
    },
    {
        "deltaTime": 0,
        "running": true,
        "channel": 5,
        "type": "noteOn",
        "noteNumber": 82,
        "velocity": 98
    },
    {
        "deltaTime": 0,
        "channel": 9,
        "type": "noteOn",
        "noteNumber": 44,
        "velocity": 107
    },
    {
        "deltaTime": 0,
        "running": true,
        "channel": 9,
        "type": "noteOn",
        "noteNumber": 69,
        "velocity": 109
    },
    {
        "deltaTime": 12,
        "running": true,
        "channel": 9,
        "type": "noteOff",
        "noteNumber": 44,
        "velocity": 0,
        "byte9": true
    },
    {
        "deltaTime": 0,
        "running": true,
        "channel": 9,
        "type": "noteOff",
        "noteNumber": 69,
        "velocity": 0,
        "byte9": true
    },
    {
        "deltaTime": 1,
        "channel": 1,
        "type": "noteOff",
        "noteNumber": 34,
        "velocity": 0,
        "byte9": true
    },
    {
        "deltaTime": 0,
        "channel": 8,
        "type": "noteOff",
        "noteNumber": 34,
        "velocity": 0,
        "byte9": true
    },
    {
        "deltaTime": 6,
        "channel": 14,
        "type": "noteOn",
        "noteNumber": 62,
        "velocity": 108
    },
    {
        "deltaTime": 0,
        "running": true,
        "channel": 14,
        "type": "noteOn",
        "noteNumber": 65,
        "velocity": 97
    },
    {
        "deltaTime": 0,
        "running": true,
        "channel": 14,
        "type": "noteOn",
        "noteNumber": 70,
        "velocity": 98
    },
    {
        "deltaTime": 127,
        "channel": 5,
        "type": "noteOff",
        "noteNumber": 82,
        "velocity": 0,
        "byte9": true
    },
    {
        "deltaTime": 12,
        "running": true,
        "channel": 5,
        "type": "noteOff",
        "noteNumber": 74,
        "velocity": 0,
        "byte9": true
    },
    {
        "deltaTime": 5,
        "running": true,
        "channel": 5,
        "type": "noteOff",
        "noteNumber": 77,
        "velocity": 0,
        "byte9": true
    },
    {
        "deltaTime": 3,
        "channel": 14,
        "type": "noteOff",
        "noteNumber": 70,
        "velocity": 0,
        "byte9": true
    },
    {
        "deltaTime": 12,
        "running": true,
        "channel": 14,
        "type": "noteOff",
        "noteNumber": 62,
        "velocity": 0,
        "byte9": true
    },
    {
        "deltaTime": 5,
        "running": true,
        "channel": 14,
        "type": "noteOff",
        "noteNumber": 65,
        "velocity": 0,
        "byte9": true
    },
    {
        "deltaTime": 117,
        "channel": 3,
        "type": "noteOff",
        "noteNumber": 79,
        "velocity": 0,
        "byte9": true
    },
    {
        "deltaTime": 0,
        "channel": 3,
        "type": "noteOn",
        "noteNumber": 77,
        "velocity": 127
    },
    {
        "deltaTime": 16,
        "channel": 1,
        "type": "noteOn",
        "noteNumber": 34,
        "velocity": 110
    },
    {
        "deltaTime": 0,
        "channel": 8,
        "type": "noteOn",
        "noteNumber": 34,
        "velocity": 110
    },
    {
        "deltaTime": 0,
        "channel": 9,
        "type": "noteOn",
        "noteNumber": 35,
        "velocity": 114
    },
    {
        "deltaTime": 0,
        "channel": 11,
        "type": "noteOn",
        "noteNumber": 41,
        "velocity": 114
    },
    {
        "deltaTime": 0,
        "channel": 12,
        "type": "noteOn",
        "noteNumber": 67,
        "velocity": 115
    },
    {
        "deltaTime": 12,
        "channel": 9,
        "type": "noteOff",
        "noteNumber": 35,
        "velocity": 0,
        "byte9": true
    },
    {
        "deltaTime": 139,
        "channel": 12,
        "type": "noteOff",
        "noteNumber": 67,
        "velocity": 0,
        "byte9": true
    },
    {
        "deltaTime": 4,
        "running": true,
        "channel": 12,
        "type": "noteOn",
        "noteNumber": 65,
        "velocity": 105
    },
    {
        "deltaTime": 1,
        "channel": 10,
        "type": "noteOff",
        "noteNumber": 67,
        "velocity": 0,
        "byte9": true
    },
    {
        "deltaTime": 0,
        "running": true,
        "channel": 10,
        "type": "noteOff",
        "noteNumber": 79,
        "velocity": 0,
        "byte9": true
    },
    {
        "deltaTime": 4,
        "channel": 5,
        "type": "noteOn",
        "noteNumber": 74,
        "velocity": 105
    },
    {
        "deltaTime": 0,
        "running": true,
        "channel": 5,
        "type": "noteOn",
        "noteNumber": 77,
        "velocity": 89
    },
    {
        "deltaTime": 0,
        "running": true,
        "channel": 5,
        "type": "noteOn",
        "noteNumber": 82,
        "velocity": 94
    },
    {
        "deltaTime": 0,
        "channel": 7,
        "type": "noteOn",
        "noteNumber": 77,
        "velocity": 104
    },
    {
        "deltaTime": 0,
        "channel": 10,
        "type": "noteOn",
        "noteNumber": 65,
        "velocity": 104
    },
    {
        "deltaTime": 0,
        "running": true,
        "channel": 10,
        "type": "noteOn",
        "noteNumber": 77,
        "velocity": 104
    },
    {
        "deltaTime": 1,
        "channel": 11,
        "type": "noteOff",
        "noteNumber": 41,
        "velocity": 0,
        "byte9": true
    },
    {
        "deltaTime": 14,
        "channel": 7,
        "type": "noteOff",
        "noteNumber": 79,
        "velocity": 0,
        "byte9": true
    },
    {
        "deltaTime": 4,
        "channel": 14,
        "type": "noteOn",
        "noteNumber": 62,
        "velocity": 105
    },
    {
        "deltaTime": 0,
        "running": true,
        "channel": 14,
        "type": "noteOn",
        "noteNumber": 65,
        "velocity": 89
    },
    {
        "deltaTime": 0,
        "running": true,
        "channel": 14,
        "type": "noteOn",
        "noteNumber": 70,
        "velocity": 94
    },
    {
        "deltaTime": 127,
        "channel": 5,
        "type": "noteOff",
        "noteNumber": 82,
        "velocity": 0,
        "byte9": true
    },
    {
        "deltaTime": 6,
        "channel": 3,
        "type": "noteOff",
        "noteNumber": 77,
        "velocity": 0,
        "byte9": true
    },
    {
        "deltaTime": 13,
        "channel": 14,
        "type": "noteOff",
        "noteNumber": 70,
        "velocity": 0,
        "byte9": true
    },
    {
        "deltaTime": 3,
        "channel": 5,
        "type": "noteOff",
        "noteNumber": 74,
        "velocity": 0,
        "byte9": true
    },
    {
        "deltaTime": 0,
        "running": true,
        "channel": 5,
        "type": "noteOff",
        "noteNumber": 77,
        "velocity": 0,
        "byte9": true
    },
    {
        "deltaTime": 20,
        "channel": 14,
        "type": "noteOff",
        "noteNumber": 62,
        "velocity": 0,
        "byte9": true
    },
    {
        "deltaTime": 0,
        "running": true,
        "channel": 14,
        "type": "noteOff",
        "noteNumber": 65,
        "velocity": 0,
        "byte9": true
    },
    {
        "deltaTime": 0,
        "channel": 3,
        "type": "noteOn",
        "noteNumber": 77,
        "velocity": 114
    },
    {
        "deltaTime": 25,
        "channel": 1,
        "type": "noteOff",
        "noteNumber": 34,
        "velocity": 0,
        "byte9": true
    },
    {
        "deltaTime": 0,
        "channel": 8,
        "type": "noteOff",
        "noteNumber": 34,
        "velocity": 0,
        "byte9": true
    },
    {
        "deltaTime": 53,
        "channel": 1,
        "type": "noteOn",
        "noteNumber": 34,
        "velocity": 110
    },
    {
        "deltaTime": 0,
        "channel": 8,
        "type": "noteOn",
        "noteNumber": 34,
        "velocity": 110
    },
    {
        "deltaTime": 0,
        "channel": 9,
        "type": "noteOn",
        "noteNumber": 35,
        "velocity": 114
    },
    {
        "deltaTime": 0,
        "running": true,
        "channel": 9,
        "type": "noteOn",
        "noteNumber": 70,
        "velocity": 65
    },
    {
        "deltaTime": 0,
        "channel": 11,
        "type": "noteOn",
        "noteNumber": 41,
        "velocity": 114
    },
    {
        "deltaTime": 12,
        "channel": 9,
        "type": "noteOff",
        "noteNumber": 35,
        "velocity": 0,
        "byte9": true
    },
    {
        "deltaTime": 0,
        "running": true,
        "channel": 9,
        "type": "noteOff",
        "noteNumber": 70,
        "velocity": 0,
        "byte9": true
    },
    {
        "deltaTime": 148,
        "channel": 5,
        "type": "noteOn",
        "noteNumber": 74,
        "velocity": 109
    },
    {
        "deltaTime": 0,
        "running": true,
        "channel": 5,
        "type": "noteOn",
        "noteNumber": 77,
        "velocity": 97
    },
    {
        "deltaTime": 0,
        "running": true,
        "channel": 5,
        "type": "noteOn",
        "noteNumber": 82,
        "velocity": 110
    },
    {
        "deltaTime": 0,
        "channel": 9,
        "type": "noteOn",
        "noteNumber": 44,
        "velocity": 107
    },
    {
        "deltaTime": 0,
        "running": true,
        "channel": 9,
        "type": "noteOn",
        "noteNumber": 54,
        "velocity": 109
    },
    {
        "deltaTime": 1,
        "channel": 11,
        "type": "noteOff",
        "noteNumber": 41,
        "velocity": 0,
        "byte9": true
    },
    {
        "deltaTime": 11,
        "channel": 9,
        "type": "noteOff",
        "noteNumber": 44,
        "velocity": 0,
        "byte9": true
    },
    {
        "deltaTime": 0,
        "running": true,
        "channel": 9,
        "type": "noteOff",
        "noteNumber": 54,
        "velocity": 0,
        "byte9": true
    },
    {
        "deltaTime": 7,
        "channel": 14,
        "type": "noteOn",
        "noteNumber": 62,
        "velocity": 109
    },
    {
        "deltaTime": 0,
        "running": true,
        "channel": 14,
        "type": "noteOn",
        "noteNumber": 65,
        "velocity": 97
    },
    {
        "deltaTime": 0,
        "running": true,
        "channel": 14,
        "type": "noteOn",
        "noteNumber": 70,
        "velocity": 110
    },
    {
        "deltaTime": 130,
        "channel": 5,
        "type": "noteOff",
        "noteNumber": 82,
        "velocity": 0,
        "byte9": true
    },
    {
        "deltaTime": 9,
        "running": true,
        "channel": 5,
        "type": "noteOff",
        "noteNumber": 74,
        "velocity": 0,
        "byte9": true
    },
    {
        "deltaTime": 3,
        "running": true,
        "channel": 5,
        "type": "noteOff",
        "noteNumber": 77,
        "velocity": 0,
        "byte9": true
    },
    {
        "deltaTime": 7,
        "channel": 14,
        "type": "noteOff",
        "noteNumber": 70,
        "velocity": 0,
        "byte9": true
    },
    {
        "deltaTime": 9,
        "running": true,
        "channel": 14,
        "type": "noteOff",
        "noteNumber": 62,
        "velocity": 0,
        "byte9": true
    },
    {
        "deltaTime": 3,
        "running": true,
        "channel": 14,
        "type": "noteOff",
        "noteNumber": 65,
        "velocity": 0,
        "byte9": true
    },
    {
        "deltaTime": 87,
        "channel": 1,
        "type": "noteOff",
        "noteNumber": 34,
        "velocity": 0,
        "byte9": true
    },
    {
        "deltaTime": 0,
        "channel": 8,
        "type": "noteOff",
        "noteNumber": 34,
        "velocity": 0,
        "byte9": true
    },
    {
        "deltaTime": 31,
        "channel": 12,
        "type": "noteOff",
        "noteNumber": 58,
        "velocity": 0,
        "byte9": true
    },
    {
        "deltaTime": 5,
        "running": true,
        "channel": 12,
        "type": "noteOff",
        "noteNumber": 65,
        "velocity": 0,
        "byte9": true
    },
    {
        "deltaTime": 8,
        "running": true,
        "channel": 12,
        "type": "noteOff",
        "noteNumber": 62,
        "velocity": 0,
        "byte9": true
    },
    {
        "deltaTime": 5,
        "channel": 3,
        "type": "noteOff",
        "noteNumber": 77,
        "velocity": 0,
        "byte9": true
    },
    {
        "deltaTime": 0,
        "channel": 1,
        "type": "noteOn",
        "noteNumber": 34,
        "velocity": 110
    },
    {
        "deltaTime": 0,
        "channel": 3,
        "type": "noteOn",
        "noteNumber": 76,
        "velocity": 119
    },
    {
        "deltaTime": 0,
        "channel": 8,
        "type": "noteOn",
        "noteNumber": 34,
        "velocity": 110
    },
    {
        "deltaTime": 49,
        "channel": 1,
        "type": "noteOff",
        "noteNumber": 34,
        "velocity": 0,
        "byte9": true
    },
    {
        "deltaTime": 0,
        "channel": 8,
        "type": "noteOff",
        "noteNumber": 34,
        "velocity": 0,
        "byte9": true
    },
    {
        "deltaTime": 27,
        "channel": 12,
        "type": "noteOn",
        "noteNumber": 57,
        "velocity": 105
    },
    {
        "deltaTime": 61,
        "running": true,
        "channel": 12,
        "type": "noteOn",
        "noteNumber": 61,
        "velocity": 127
    },
    {
        "deltaTime": 19,
        "channel": 3,
        "type": "noteOff",
        "noteNumber": 76,
        "velocity": 0,
        "byte9": true
    },
    {
        "deltaTime": 0,
        "channel": 1,
        "type": "noteOn",
        "noteNumber": 33,
        "velocity": 110
    },
    {
        "deltaTime": 0,
        "channel": 3,
        "type": "noteOn",
        "noteNumber": 76,
        "velocity": 114
    },
    {
        "deltaTime": 0,
        "channel": 5,
        "type": "noteOn",
        "noteNumber": 73,
        "velocity": 101
    },
    {
        "deltaTime": 0,
        "running": true,
        "channel": 5,
        "type": "noteOn",
        "noteNumber": 76,
        "velocity": 97
    },
    {
        "deltaTime": 0,
        "running": true,
        "channel": 5,
        "type": "noteOn",
        "noteNumber": 81,
        "velocity": 105
    },
    {
        "deltaTime": 0,
        "channel": 8,
        "type": "noteOn",
        "noteNumber": 33,
        "velocity": 110
    },
    {
        "deltaTime": 0,
        "channel": 9,
        "type": "noteOn",
        "noteNumber": 35,
        "velocity": 114
    },
    {
        "deltaTime": 0,
        "channel": 10,
        "type": "noteOn",
        "noteNumber": 64,
        "velocity": 104
    },
    {
        "deltaTime": 0,
        "running": true,
        "channel": 10,
        "type": "noteOn",
        "noteNumber": 76,
        "velocity": 104
    },
    {
        "deltaTime": 0,
        "channel": 11,
        "type": "noteOn",
        "noteNumber": 41,
        "velocity": 114
    },
    {
        "deltaTime": 12,
        "channel": 9,
        "type": "noteOff",
        "noteNumber": 35,
        "velocity": 0,
        "byte9": true
    },
    {
        "deltaTime": 3,
        "channel": 7,
        "type": "noteOff",
        "noteNumber": 77,
        "velocity": 0,
        "byte9": true
    },
    {
        "deltaTime": 0,
        "channel": 10,
        "type": "noteOff",
        "noteNumber": 65,
        "velocity": 0,
        "byte9": true
    },
    {
        "deltaTime": 0,
        "running": true,
        "channel": 10,
        "type": "noteOff",
        "noteNumber": 77,
        "velocity": 0,
        "byte9": true
    },
    {
        "deltaTime": 4,
        "channel": 14,
        "type": "noteOn",
        "noteNumber": 61,
        "velocity": 101
    },
    {
        "deltaTime": 0,
        "running": true,
        "channel": 14,
        "type": "noteOn",
        "noteNumber": 64,
        "velocity": 97
    },
    {
        "deltaTime": 0,
        "running": true,
        "channel": 14,
        "type": "noteOn",
        "noteNumber": 69,
        "velocity": 105
    },
    {
        "deltaTime": 15,
        "channel": 12,
        "type": "noteOn",
        "noteNumber": 64,
        "velocity": 119
    },
    {
        "deltaTime": 39,
        "channel": 5,
        "type": "noteOff",
        "noteNumber": 81,
        "velocity": 0,
        "byte9": true
    },
    {
        "deltaTime": 20,
        "channel": 14,
        "type": "noteOff",
        "noteNumber": 69,
        "velocity": 0,
        "byte9": true
    },
    {
        "deltaTime": 28,
        "channel": 5,
        "type": "noteOff",
        "noteNumber": 76,
        "velocity": 0,
        "byte9": true
    },
    {
        "deltaTime": 2,
        "running": true,
        "channel": 5,
        "type": "noteOff",
        "noteNumber": 73,
        "velocity": 0,
        "byte9": true
    },
    {
        "deltaTime": 17,
        "channel": 14,
        "type": "noteOff",
        "noteNumber": 64,
        "velocity": 0,
        "byte9": true
    },
    {
        "deltaTime": 2,
        "running": true,
        "channel": 14,
        "type": "noteOff",
        "noteNumber": 61,
        "velocity": 0,
        "byte9": true
    },
    {
        "deltaTime": 19,
        "channel": 11,
        "type": "noteOff",
        "noteNumber": 41,
        "velocity": 0,
        "byte9": true
    },
    {
        "deltaTime": 319,
        "channel": 5,
        "type": "noteOn",
        "noteNumber": 73,
        "velocity": 111
    },
    {
        "deltaTime": 0,
        "running": true,
        "channel": 5,
        "type": "noteOn",
        "noteNumber": 76,
        "velocity": 107
    },
    {
        "deltaTime": 0,
        "running": true,
        "channel": 5,
        "type": "noteOn",
        "noteNumber": 81,
        "velocity": 105
    },
    {
        "deltaTime": 0,
        "channel": 9,
        "type": "noteOn",
        "noteNumber": 44,
        "velocity": 107
    },
    {
        "deltaTime": 0,
        "running": true,
        "channel": 9,
        "type": "noteOn",
        "noteNumber": 69,
        "velocity": 109
    },
    {
        "deltaTime": 12,
        "running": true,
        "channel": 9,
        "type": "noteOff",
        "noteNumber": 44,
        "velocity": 0,
        "byte9": true
    },
    {
        "deltaTime": 0,
        "running": true,
        "channel": 9,
        "type": "noteOff",
        "noteNumber": 69,
        "velocity": 0,
        "byte9": true
    },
    {
        "deltaTime": 1,
        "channel": 1,
        "type": "noteOff",
        "noteNumber": 33,
        "velocity": 0,
        "byte9": true
    },
    {
        "deltaTime": 0,
        "channel": 8,
        "type": "noteOff",
        "noteNumber": 33,
        "velocity": 0,
        "byte9": true
    },
    {
        "deltaTime": 6,
        "channel": 14,
        "type": "noteOn",
        "noteNumber": 61,
        "velocity": 111
    },
    {
        "deltaTime": 0,
        "running": true,
        "channel": 14,
        "type": "noteOn",
        "noteNumber": 64,
        "velocity": 107
    },
    {
        "deltaTime": 0,
        "running": true,
        "channel": 14,
        "type": "noteOn",
        "noteNumber": 69,
        "velocity": 105
    },
    {
        "deltaTime": 138,
        "channel": 5,
        "type": "noteOff",
        "noteNumber": 81,
        "velocity": 0,
        "byte9": true
    },
    {
        "deltaTime": 7,
        "running": true,
        "channel": 5,
        "type": "noteOff",
        "noteNumber": 76,
        "velocity": 0,
        "byte9": true
    },
    {
        "deltaTime": 4,
        "running": true,
        "channel": 5,
        "type": "noteOff",
        "noteNumber": 73,
        "velocity": 0,
        "byte9": true
    },
    {
        "deltaTime": 9,
        "channel": 14,
        "type": "noteOff",
        "noteNumber": 69,
        "velocity": 0,
        "byte9": true
    },
    {
        "deltaTime": 7,
        "running": true,
        "channel": 14,
        "type": "noteOff",
        "noteNumber": 64,
        "velocity": 0,
        "byte9": true
    },
    {
        "deltaTime": 4,
        "running": true,
        "channel": 14,
        "type": "noteOff",
        "noteNumber": 61,
        "velocity": 0,
        "byte9": true
    },
    {
        "deltaTime": 81,
        "channel": 12,
        "type": "noteOff",
        "noteNumber": 61,
        "velocity": 0,
        "byte9": true
    },
    {
        "deltaTime": 51,
        "channel": 1,
        "type": "noteOn",
        "noteNumber": 33,
        "velocity": 110
    },
    {
        "deltaTime": 0,
        "channel": 8,
        "type": "noteOn",
        "noteNumber": 33,
        "velocity": 110
    },
    {
        "deltaTime": 0,
        "channel": 9,
        "type": "noteOn",
        "noteNumber": 35,
        "velocity": 107
    },
    {
        "deltaTime": 0,
        "channel": 11,
        "type": "noteOn",
        "noteNumber": 41,
        "velocity": 107
    },
    {
        "deltaTime": 12,
        "channel": 9,
        "type": "noteOff",
        "noteNumber": 35,
        "velocity": 0,
        "byte9": true
    },
    {
        "deltaTime": 11,
        "channel": 12,
        "type": "noteOff",
        "noteNumber": 64,
        "velocity": 0,
        "byte9": true
    },
    {
        "deltaTime": 20,
        "running": true,
        "channel": 12,
        "type": "noteOff",
        "noteNumber": 57,
        "velocity": 0,
        "byte9": true
    },
    {
        "deltaTime": 6,
        "channel": 1,
        "type": "noteOff",
        "noteNumber": 33,
        "velocity": 0,
        "byte9": true
    },
    {
        "deltaTime": 0,
        "channel": 8,
        "type": "noteOff",
        "noteNumber": 33,
        "velocity": 0,
        "byte9": true
    },
    {
        "deltaTime": 27,
        "channel": 12,
        "type": "noteOn",
        "noteNumber": 57,
        "velocity": 105
    },
    {
        "deltaTime": 61,
        "running": true,
        "channel": 12,
        "type": "noteOn",
        "noteNumber": 61,
        "velocity": 127
    },
    {
        "deltaTime": 19,
        "channel": 3,
        "type": "noteOff",
        "noteNumber": 76,
        "velocity": 0,
        "byte9": true
    },
    {
        "deltaTime": 0,
        "channel": 1,
        "type": "noteOn",
        "noteNumber": 33,
        "velocity": 110
    },
    {
        "deltaTime": 0,
        "channel": 3,
        "type": "noteOn",
        "noteNumber": 74,
        "velocity": 114
    },
    {
        "deltaTime": 0,
        "channel": 5,
        "type": "noteOn",
        "noteNumber": 73,
        "velocity": 105
    },
    {
        "deltaTime": 0,
        "running": true,
        "channel": 5,
        "type": "noteOn",
        "noteNumber": 76,
        "velocity": 94
    },
    {
        "deltaTime": 0,
        "running": true,
        "channel": 5,
        "type": "noteOn",
        "noteNumber": 81,
        "velocity": 94
    },
    {
        "deltaTime": 0,
        "channel": 8,
        "type": "noteOn",
        "noteNumber": 33,
        "velocity": 110
    },
    {
        "deltaTime": 0,
        "channel": 9,
        "type": "noteOn",
        "noteNumber": 35,
        "velocity": 114
    },
    {
        "deltaTime": 0,
        "channel": 11,
        "type": "noteOn",
        "noteNumber": 41,
        "velocity": 114
    },
    {
        "deltaTime": 1,
        "running": true,
        "channel": 11,
        "type": "noteOff",
        "noteNumber": 41,
        "velocity": 0,
        "byte9": true
    },
    {
        "deltaTime": 11,
        "channel": 9,
        "type": "noteOff",
        "noteNumber": 35,
        "velocity": 0,
        "byte9": true
    },
    {
        "deltaTime": 7,
        "channel": 14,
        "type": "noteOn",
        "noteNumber": 61,
        "velocity": 105
    },
    {
        "deltaTime": 0,
        "running": true,
        "channel": 14,
        "type": "noteOn",
        "noteNumber": 64,
        "velocity": 94
    },
    {
        "deltaTime": 0,
        "running": true,
        "channel": 14,
        "type": "noteOn",
        "noteNumber": 69,
        "velocity": 94
    },
    {
        "deltaTime": 15,
        "channel": 12,
        "type": "noteOn",
        "noteNumber": 64,
        "velocity": 119
    },
    {
        "deltaTime": 121,
        "channel": 5,
        "type": "noteOff",
        "noteNumber": 81,
        "velocity": 0,
        "byte9": true
    },
    {
        "deltaTime": 6,
        "channel": 11,
        "type": "noteOff",
        "noteNumber": 41,
        "velocity": 0,
        "byte9": true
    },
    {
        "deltaTime": 2,
        "channel": 5,
        "type": "noteOff",
        "noteNumber": 73,
        "velocity": 0,
        "byte9": true
    },
    {
        "deltaTime": 4,
        "running": true,
        "channel": 5,
        "type": "noteOff",
        "noteNumber": 76,
        "velocity": 0,
        "byte9": true
    },
    {
        "deltaTime": 8,
        "channel": 14,
        "type": "noteOff",
        "noteNumber": 69,
        "velocity": 0,
        "byte9": true
    },
    {
        "deltaTime": 8,
        "running": true,
        "channel": 14,
        "type": "noteOff",
        "noteNumber": 61,
        "velocity": 0,
        "byte9": true
    },
    {
        "deltaTime": 4,
        "running": true,
        "channel": 14,
        "type": "noteOff",
        "noteNumber": 64,
        "velocity": 0,
        "byte9": true
    },
    {
        "deltaTime": 133,
        "channel": 9,
        "type": "noteOn",
        "noteNumber": 70,
        "velocity": 65
    },
    {
        "deltaTime": 12,
        "running": true,
        "channel": 9,
        "type": "noteOff",
        "noteNumber": 70,
        "velocity": 0,
        "byte9": true
    },
    {
        "deltaTime": 148,
        "channel": 5,
        "type": "noteOn",
        "noteNumber": 73,
        "velocity": 109
    },
    {
        "deltaTime": 0,
        "running": true,
        "channel": 5,
        "type": "noteOn",
        "noteNumber": 76,
        "velocity": 94
    },
    {
        "deltaTime": 0,
        "running": true,
        "channel": 5,
        "type": "noteOn",
        "noteNumber": 81,
        "velocity": 94
    },
    {
        "deltaTime": 0,
        "channel": 9,
        "type": "noteOn",
        "noteNumber": 44,
        "velocity": 107
    },
    {
        "deltaTime": 0,
        "running": true,
        "channel": 9,
        "type": "noteOn",
        "noteNumber": 54,
        "velocity": 109
    },
    {
        "deltaTime": 12,
        "running": true,
        "channel": 9,
        "type": "noteOff",
        "noteNumber": 44,
        "velocity": 0,
        "byte9": true
    },
    {
        "deltaTime": 0,
        "running": true,
        "channel": 9,
        "type": "noteOff",
        "noteNumber": 54,
        "velocity": 0,
        "byte9": true
    },
    {
        "deltaTime": 1,
        "channel": 1,
        "type": "noteOff",
        "noteNumber": 33,
        "velocity": 0,
        "byte9": true
    },
    {
        "deltaTime": 0,
        "channel": 8,
        "type": "noteOff",
        "noteNumber": 33,
        "velocity": 0,
        "byte9": true
    },
    {
        "deltaTime": 6,
        "channel": 14,
        "type": "noteOn",
        "noteNumber": 61,
        "velocity": 109
    },
    {
        "deltaTime": 0,
        "running": true,
        "channel": 14,
        "type": "noteOn",
        "noteNumber": 64,
        "velocity": 94
    },
    {
        "deltaTime": 0,
        "running": true,
        "channel": 14,
        "type": "noteOn",
        "noteNumber": 69,
        "velocity": 94
    },
    {
        "deltaTime": 122,
        "channel": 5,
        "type": "noteOff",
        "noteNumber": 81,
        "velocity": 0,
        "byte9": true
    },
    {
        "deltaTime": 13,
        "running": true,
        "channel": 5,
        "type": "noteOff",
        "noteNumber": 73,
        "velocity": 0,
        "byte9": true
    },
    {
        "deltaTime": 0,
        "running": true,
        "channel": 5,
        "type": "noteOff",
        "noteNumber": 76,
        "velocity": 0,
        "byte9": true
    },
    {
        "deltaTime": 7,
        "channel": 14,
        "type": "noteOff",
        "noteNumber": 69,
        "velocity": 0,
        "byte9": true
    },
    {
        "deltaTime": 13,
        "running": true,
        "channel": 14,
        "type": "noteOff",
        "noteNumber": 61,
        "velocity": 0,
        "byte9": true
    },
    {
        "deltaTime": 0,
        "running": true,
        "channel": 14,
        "type": "noteOff",
        "noteNumber": 64,
        "velocity": 0,
        "byte9": true
    },
    {
        "deltaTime": 95,
        "channel": 12,
        "type": "noteOff",
        "noteNumber": 61,
        "velocity": 0,
        "byte9": true
    },
    {
        "deltaTime": 74,
        "running": true,
        "channel": 12,
        "type": "noteOff",
        "noteNumber": 64,
        "velocity": 0,
        "byte9": true
    },
    {
        "deltaTime": 20,
        "running": true,
        "channel": 12,
        "type": "noteOff",
        "noteNumber": 57,
        "velocity": 0,
        "byte9": true
    },
    {
        "deltaTime": 33,
        "running": true,
        "channel": 12,
        "type": "noteOn",
        "noteNumber": 57,
        "velocity": 101
    },
    {
        "deltaTime": 28,
        "running": true,
        "channel": 12,
        "type": "noteOn",
        "noteNumber": 61,
        "velocity": 127
    },
    {
        "deltaTime": 52,
        "channel": 3,
        "type": "noteOff",
        "noteNumber": 74,
        "velocity": 0,
        "byte9": true
    },
    {
        "deltaTime": 0,
        "channel": 1,
        "type": "noteOn",
        "noteNumber": 33,
        "velocity": 110
    },
    {
        "deltaTime": 0,
        "channel": 3,
        "type": "noteOn",
        "noteNumber": 73,
        "velocity": 114
    },
    {
        "deltaTime": 0,
        "channel": 5,
        "type": "noteOn",
        "noteNumber": 73,
        "velocity": 109
    },
    {
        "deltaTime": 0,
        "running": true,
        "channel": 5,
        "type": "noteOn",
        "noteNumber": 76,
        "velocity": 94
    },
    {
        "deltaTime": 0,
        "running": true,
        "channel": 5,
        "type": "noteOn",
        "noteNumber": 81,
        "velocity": 101
    },
    {
        "deltaTime": 0,
        "channel": 8,
        "type": "noteOn",
        "noteNumber": 33,
        "velocity": 110
    },
    {
        "deltaTime": 0,
        "channel": 9,
        "type": "noteOn",
        "noteNumber": 35,
        "velocity": 114
    },
    {
        "deltaTime": 0,
        "channel": 10,
        "type": "noteOn",
        "noteNumber": 65,
        "velocity": 104
    },
    {
        "deltaTime": 0,
        "running": true,
        "channel": 10,
        "type": "noteOn",
        "noteNumber": 77,
        "velocity": 104
    },
    {
        "deltaTime": 0,
        "channel": 11,
        "type": "noteOn",
        "noteNumber": 41,
        "velocity": 114
    },
    {
        "deltaTime": 12,
        "channel": 9,
        "type": "noteOff",
        "noteNumber": 35,
        "velocity": 0,
        "byte9": true
    },
    {
        "deltaTime": 2,
        "channel": 12,
        "type": "noteOn",
        "noteNumber": 65,
        "velocity": 114
    },
    {
        "deltaTime": 1,
        "channel": 10,
        "type": "noteOff",
        "noteNumber": 64,
        "velocity": 0,
        "byte9": true
    },
    {
        "deltaTime": 0,
        "running": true,
        "channel": 10,
        "type": "noteOff",
        "noteNumber": 76,
        "velocity": 0,
        "byte9": true
    },
    {
        "deltaTime": 4,
        "channel": 14,
        "type": "noteOn",
        "noteNumber": 61,
        "velocity": 109
    },
    {
        "deltaTime": 0,
        "running": true,
        "channel": 14,
        "type": "noteOn",
        "noteNumber": 64,
        "velocity": 94
    },
    {
        "deltaTime": 0,
        "running": true,
        "channel": 14,
        "type": "noteOn",
        "noteNumber": 69,
        "velocity": 101
    },
    {
        "deltaTime": 136,
        "channel": 5,
        "type": "noteOff",
        "noteNumber": 81,
        "velocity": 0,
        "byte9": true
    },
    {
        "deltaTime": 6,
        "channel": 11,
        "type": "noteOff",
        "noteNumber": 41,
        "velocity": 0,
        "byte9": true
    },
    {
        "deltaTime": 10,
        "channel": 5,
        "type": "noteOff",
        "noteNumber": 73,
        "velocity": 0,
        "byte9": true
    },
    {
        "deltaTime": 0,
        "running": true,
        "channel": 5,
        "type": "noteOff",
        "noteNumber": 76,
        "velocity": 0,
        "byte9": true
    },
    {
        "deltaTime": 4,
        "channel": 14,
        "type": "noteOff",
        "noteNumber": 69,
        "velocity": 0,
        "byte9": true
    },
    {
        "deltaTime": 16,
        "running": true,
        "channel": 14,
        "type": "noteOff",
        "noteNumber": 61,
        "velocity": 0,
        "byte9": true
    },
    {
        "deltaTime": 0,
        "running": true,
        "channel": 14,
        "type": "noteOff",
        "noteNumber": 64,
        "velocity": 0,
        "byte9": true
    },
    {
        "deltaTime": 289,
        "channel": 5,
        "type": "noteOn",
        "noteNumber": 73,
        "velocity": 108
    },
    {
        "deltaTime": 0,
        "running": true,
        "channel": 5,
        "type": "noteOn",
        "noteNumber": 76,
        "velocity": 97
    },
    {
        "deltaTime": 0,
        "running": true,
        "channel": 5,
        "type": "noteOn",
        "noteNumber": 81,
        "velocity": 98
    },
    {
        "deltaTime": 0,
        "channel": 9,
        "type": "noteOn",
        "noteNumber": 44,
        "velocity": 107
    },
    {
        "deltaTime": 0,
        "running": true,
        "channel": 9,
        "type": "noteOn",
        "noteNumber": 69,
        "velocity": 109
    },
    {
        "deltaTime": 12,
        "running": true,
        "channel": 9,
        "type": "noteOff",
        "noteNumber": 44,
        "velocity": 0,
        "byte9": true
    },
    {
        "deltaTime": 0,
        "running": true,
        "channel": 9,
        "type": "noteOff",
        "noteNumber": 69,
        "velocity": 0,
        "byte9": true
    },
    {
        "deltaTime": 1,
        "channel": 1,
        "type": "noteOff",
        "noteNumber": 33,
        "velocity": 0,
        "byte9": true
    },
    {
        "deltaTime": 0,
        "channel": 8,
        "type": "noteOff",
        "noteNumber": 33,
        "velocity": 0,
        "byte9": true
    },
    {
        "deltaTime": 6,
        "channel": 14,
        "type": "noteOn",
        "noteNumber": 61,
        "velocity": 108
    },
    {
        "deltaTime": 0,
        "running": true,
        "channel": 14,
        "type": "noteOn",
        "noteNumber": 64,
        "velocity": 97
    },
    {
        "deltaTime": 0,
        "running": true,
        "channel": 14,
        "type": "noteOn",
        "noteNumber": 69,
        "velocity": 98
    },
    {
        "deltaTime": 127,
        "channel": 5,
        "type": "noteOff",
        "noteNumber": 81,
        "velocity": 0,
        "byte9": true
    },
    {
        "deltaTime": 12,
        "running": true,
        "channel": 5,
        "type": "noteOff",
        "noteNumber": 73,
        "velocity": 0,
        "byte9": true
    },
    {
        "deltaTime": 5,
        "running": true,
        "channel": 5,
        "type": "noteOff",
        "noteNumber": 76,
        "velocity": 0,
        "byte9": true
    },
    {
        "deltaTime": 3,
        "channel": 14,
        "type": "noteOff",
        "noteNumber": 69,
        "velocity": 0,
        "byte9": true
    },
    {
        "deltaTime": 12,
        "running": true,
        "channel": 14,
        "type": "noteOff",
        "noteNumber": 61,
        "velocity": 0,
        "byte9": true
    },
    {
        "deltaTime": 5,
        "running": true,
        "channel": 14,
        "type": "noteOff",
        "noteNumber": 64,
        "velocity": 0,
        "byte9": true
    },
    {
        "deltaTime": 7,
        "channel": 12,
        "type": "noteOff",
        "noteNumber": 61,
        "velocity": 0,
        "byte9": true
    },
    {
        "deltaTime": 46,
        "running": true,
        "channel": 12,
        "type": "noteOff",
        "noteNumber": 57,
        "velocity": 0,
        "byte9": true
    },
    {
        "deltaTime": 84,
        "channel": 1,
        "type": "noteOn",
        "noteNumber": 33,
        "velocity": 110
    },
    {
        "deltaTime": 0,
        "channel": 8,
        "type": "noteOn",
        "noteNumber": 33,
        "velocity": 110
    },
    {
        "deltaTime": 0,
        "channel": 9,
        "type": "noteOn",
        "noteNumber": 35,
        "velocity": 114
    },
    {
        "deltaTime": 0,
        "channel": 11,
        "type": "noteOn",
        "noteNumber": 41,
        "velocity": 114
    },
    {
        "deltaTime": 4,
        "channel": 12,
        "type": "noteOn",
        "noteNumber": 57,
        "velocity": 101
    },
    {
        "deltaTime": 8,
        "channel": 9,
        "type": "noteOff",
        "noteNumber": 35,
        "velocity": 0,
        "byte9": true
    },
    {
        "deltaTime": 1,
        "channel": 12,
        "type": "noteOff",
        "noteNumber": 65,
        "velocity": 0,
        "byte9": true
    },
    {
        "deltaTime": 44,
        "running": true,
        "channel": 12,
        "type": "noteOn",
        "noteNumber": 61,
        "velocity": 127
    },
    {
        "deltaTime": 77,
        "running": true,
        "channel": 12,
        "type": "noteOn",
        "noteNumber": 64,
        "velocity": 114
    },
    {
        "deltaTime": 22,
        "channel": 3,
        "type": "noteOff",
        "noteNumber": 73,
        "velocity": 0,
        "byte9": true
    },
    {
        "deltaTime": 0,
        "channel": 10,
        "type": "noteOff",
        "noteNumber": 65,
        "velocity": 0,
        "byte9": true
    },
    {
        "deltaTime": 0,
        "running": true,
        "channel": 10,
        "type": "noteOff",
        "noteNumber": 77,
        "velocity": 0,
        "byte9": true
    },
    {
        "deltaTime": 0,
        "channel": 3,
        "type": "noteOn",
        "noteNumber": 69,
        "velocity": 114
    },
    {
        "deltaTime": 0,
        "channel": 5,
        "type": "noteOn",
        "noteNumber": 73,
        "velocity": 105
    },
    {
        "deltaTime": 0,
        "running": true,
        "channel": 5,
        "type": "noteOn",
        "noteNumber": 76,
        "velocity": 89
    },
    {
        "deltaTime": 0,
        "running": true,
        "channel": 5,
        "type": "noteOn",
        "noteNumber": 81,
        "velocity": 94
    },
    {
        "deltaTime": 0,
        "channel": 10,
        "type": "noteOn",
        "noteNumber": 64,
        "velocity": 104
    },
    {
        "deltaTime": 0,
        "channel": 12,
        "type": "noteOn",
        "noteNumber": 55,
        "velocity": 119
    },
    {
        "deltaTime": 1,
        "channel": 11,
        "type": "noteOff",
        "noteNumber": 41,
        "velocity": 0,
        "byte9": true
    },
    {
        "deltaTime": 18,
        "channel": 14,
        "type": "noteOn",
        "noteNumber": 61,
        "velocity": 105
    },
    {
        "deltaTime": 0,
        "running": true,
        "channel": 14,
        "type": "noteOn",
        "noteNumber": 64,
        "velocity": 89
    },
    {
        "deltaTime": 0,
        "running": true,
        "channel": 14,
        "type": "noteOn",
        "noteNumber": 69,
        "velocity": 94
    },
    {
        "deltaTime": 127,
        "channel": 5,
        "type": "noteOff",
        "noteNumber": 81,
        "velocity": 0,
        "byte9": true
    },
    {
        "deltaTime": 19,
        "channel": 14,
        "type": "noteOff",
        "noteNumber": 69,
        "velocity": 0,
        "byte9": true
    },
    {
        "deltaTime": 3,
        "channel": 5,
        "type": "noteOff",
        "noteNumber": 73,
        "velocity": 0,
        "byte9": true
    },
    {
        "deltaTime": 0,
        "running": true,
        "channel": 5,
        "type": "noteOff",
        "noteNumber": 76,
        "velocity": 0,
        "byte9": true
    },
    {
        "deltaTime": 20,
        "channel": 14,
        "type": "noteOff",
        "noteNumber": 61,
        "velocity": 0,
        "byte9": true
    },
    {
        "deltaTime": 0,
        "running": true,
        "channel": 14,
        "type": "noteOff",
        "noteNumber": 64,
        "velocity": 0,
        "byte9": true
    },
    {
        "deltaTime": 79,
        "channel": 1,
        "type": "noteOff",
        "noteNumber": 33,
        "velocity": 0,
        "byte9": true
    },
    {
        "deltaTime": 0,
        "channel": 8,
        "type": "noteOff",
        "noteNumber": 33,
        "velocity": 0,
        "byte9": true
    },
    {
        "deltaTime": 35,
        "channel": 12,
        "type": "noteOff",
        "noteNumber": 55,
        "velocity": 0,
        "byte9": true
    },
    {
        "deltaTime": 18,
        "channel": 1,
        "type": "noteOn",
        "noteNumber": 33,
        "velocity": 110
    },
    {
        "deltaTime": 0,
        "channel": 8,
        "type": "noteOn",
        "noteNumber": 33,
        "velocity": 110
    },
    {
        "deltaTime": 0,
        "channel": 9,
        "type": "noteOn",
        "noteNumber": 35,
        "velocity": 114
    },
    {
        "deltaTime": 0,
        "running": true,
        "channel": 9,
        "type": "noteOn",
        "noteNumber": 70,
        "velocity": 65
    },
    {
        "deltaTime": 0,
        "channel": 11,
        "type": "noteOn",
        "noteNumber": 41,
        "velocity": 114
    },
    {
        "deltaTime": 0,
        "channel": 12,
        "type": "noteOn",
        "noteNumber": 57,
        "velocity": 114
    },
    {
        "deltaTime": 12,
        "channel": 9,
        "type": "noteOff",
        "noteNumber": 35,
        "velocity": 0,
        "byte9": true
    },
    {
        "deltaTime": 0,
        "running": true,
        "channel": 9,
        "type": "noteOff",
        "noteNumber": 70,
        "velocity": 0,
        "byte9": true
    },
    {
        "deltaTime": 148,
        "channel": 5,
        "type": "noteOn",
        "noteNumber": 73,
        "velocity": 109
    },
    {
        "deltaTime": 0,
        "running": true,
        "channel": 5,
        "type": "noteOn",
        "noteNumber": 76,
        "velocity": 97
    },
    {
        "deltaTime": 0,
        "running": true,
        "channel": 5,
        "type": "noteOn",
        "noteNumber": 81,
        "velocity": 110
    },
    {
        "deltaTime": 0,
        "channel": 9,
        "type": "noteOn",
        "noteNumber": 44,
        "velocity": 107
    },
    {
        "deltaTime": 0,
        "running": true,
        "channel": 9,
        "type": "noteOn",
        "noteNumber": 54,
        "velocity": 109
    },
    {
        "deltaTime": 1,
        "channel": 11,
        "type": "noteOff",
        "noteNumber": 41,
        "velocity": 0,
        "byte9": true
    },
    {
        "deltaTime": 11,
        "channel": 9,
        "type": "noteOff",
        "noteNumber": 44,
        "velocity": 0,
        "byte9": true
    },
    {
        "deltaTime": 0,
        "running": true,
        "channel": 9,
        "type": "noteOff",
        "noteNumber": 54,
        "velocity": 0,
        "byte9": true
    },
    {
        "deltaTime": 7,
        "channel": 14,
        "type": "noteOn",
        "noteNumber": 61,
        "velocity": 109
    },
    {
        "deltaTime": 0,
        "running": true,
        "channel": 14,
        "type": "noteOn",
        "noteNumber": 64,
        "velocity": 97
    },
    {
        "deltaTime": 0,
        "running": true,
        "channel": 14,
        "type": "noteOn",
        "noteNumber": 69,
        "velocity": 110
    },
    {
        "deltaTime": 54,
        "channel": 12,
        "type": "noteOff",
        "noteNumber": 61,
        "velocity": 0,
        "byte9": true
    },
    {
        "deltaTime": 31,
        "running": true,
        "channel": 12,
        "type": "noteOff",
        "noteNumber": 64,
        "velocity": 0,
        "byte9": true
    },
    {
        "deltaTime": 8,
        "running": true,
        "channel": 12,
        "type": "noteOff",
        "noteNumber": 57,
        "velocity": 0,
        "byte9": true
    },
    {
        "deltaTime": 37,
        "channel": 5,
        "type": "noteOff",
        "noteNumber": 81,
        "velocity": 0,
        "byte9": true
    },
    {
        "deltaTime": 9,
        "running": true,
        "channel": 5,
        "type": "noteOff",
        "noteNumber": 73,
        "velocity": 0,
        "byte9": true
    },
    {
        "deltaTime": 3,
        "running": true,
        "channel": 5,
        "type": "noteOff",
        "noteNumber": 76,
        "velocity": 0,
        "byte9": true
    },
    {
        "deltaTime": 7,
        "channel": 14,
        "type": "noteOff",
        "noteNumber": 69,
        "velocity": 0,
        "byte9": true
    },
    {
        "deltaTime": 9,
        "running": true,
        "channel": 14,
        "type": "noteOff",
        "noteNumber": 61,
        "velocity": 0,
        "byte9": true
    },
    {
        "deltaTime": 3,
        "running": true,
        "channel": 14,
        "type": "noteOff",
        "noteNumber": 64,
        "velocity": 0,
        "byte9": true
    },
    {
        "deltaTime": 87,
        "channel": 1,
        "type": "noteOff",
        "noteNumber": 33,
        "velocity": 0,
        "byte9": true
    },
    {
        "deltaTime": 0,
        "channel": 8,
        "type": "noteOff",
        "noteNumber": 33,
        "velocity": 0,
        "byte9": true
    },
    {
        "deltaTime": 53,
        "channel": 1,
        "type": "noteOn",
        "noteNumber": 33,
        "velocity": 110
    },
    {
        "deltaTime": 0,
        "channel": 8,
        "type": "noteOn",
        "noteNumber": 33,
        "velocity": 110
    },
    {
        "deltaTime": 0,
        "channel": 12,
        "type": "noteOn",
        "noteNumber": 50,
        "velocity": 104
    },
    {
        "deltaTime": 4,
        "running": true,
        "channel": 12,
        "type": "noteOn",
        "noteNumber": 57,
        "velocity": 101
    },
    {
        "deltaTime": 45,
        "channel": 1,
        "type": "noteOff",
        "noteNumber": 33,
        "velocity": 0,
        "byte9": true
    },
    {
        "deltaTime": 0,
        "channel": 8,
        "type": "noteOff",
        "noteNumber": 33,
        "velocity": 0,
        "byte9": true
    },
    {
        "deltaTime": 8,
        "channel": 12,
        "type": "noteOn",
        "noteNumber": 61,
        "velocity": 127
    },
    {
        "deltaTime": 77,
        "running": true,
        "channel": 12,
        "type": "noteOn",
        "noteNumber": 64,
        "velocity": 114
    },
    {
        "deltaTime": 22,
        "channel": 3,
        "type": "noteOff",
        "noteNumber": 69,
        "velocity": 0,
        "byte9": true
    },
    {
        "deltaTime": 0,
        "channel": 10,
        "type": "noteOff",
        "noteNumber": 64,
        "velocity": 0,
        "byte9": true
    },
    {
        "deltaTime": 4,
        "channel": 1,
        "type": "noteOn",
        "noteNumber": 38,
        "velocity": 110
    },
    {
        "deltaTime": 0,
        "channel": 5,
        "type": "noteOn",
        "noteNumber": 74,
        "velocity": 101
    },
    {
        "deltaTime": 0,
        "running": true,
        "channel": 5,
        "type": "noteOn",
        "noteNumber": 77,
        "velocity": 97
    },
    {
        "deltaTime": 0,
        "running": true,
        "channel": 5,
        "type": "noteOn",
        "noteNumber": 81,
        "velocity": 105
    },
    {
        "deltaTime": 0,
        "channel": 8,
        "type": "noteOn",
        "noteNumber": 38,
        "velocity": 110
    },
    {
        "deltaTime": 0,
        "channel": 9,
        "type": "noteOn",
        "noteNumber": 35,
        "velocity": 114
    },
    {
        "deltaTime": 0,
        "channel": 10,
        "type": "noteOn",
        "noteNumber": 74,
        "velocity": 104
    },
    {
        "deltaTime": 0,
        "channel": 11,
        "type": "noteOn",
        "noteNumber": 41,
        "velocity": 114
    },
    {
        "deltaTime": 12,
        "channel": 9,
        "type": "noteOff",
        "noteNumber": 35,
        "velocity": 0,
        "byte9": true
    },
    {
        "deltaTime": 7,
        "channel": 14,
        "type": "noteOn",
        "noteNumber": 62,
        "velocity": 101
    },
    {
        "deltaTime": 0,
        "running": true,
        "channel": 14,
        "type": "noteOn",
        "noteNumber": 65,
        "velocity": 97
    },
    {
        "deltaTime": 0,
        "running": true,
        "channel": 14,
        "type": "noteOn",
        "noteNumber": 69,
        "velocity": 105
    },
    {
        "deltaTime": 54,
        "channel": 5,
        "type": "noteOff",
        "noteNumber": 81,
        "velocity": 0,
        "byte9": true
    },
    {
        "deltaTime": 20,
        "channel": 14,
        "type": "noteOff",
        "noteNumber": 69,
        "velocity": 0,
        "byte9": true
    },
    {
        "deltaTime": 28,
        "channel": 5,
        "type": "noteOff",
        "noteNumber": 77,
        "velocity": 0,
        "byte9": true
    },
    {
        "deltaTime": 2,
        "running": true,
        "channel": 5,
        "type": "noteOff",
        "noteNumber": 74,
        "velocity": 0,
        "byte9": true
    },
    {
        "deltaTime": 17,
        "channel": 14,
        "type": "noteOff",
        "noteNumber": 65,
        "velocity": 0,
        "byte9": true
    },
    {
        "deltaTime": 2,
        "running": true,
        "channel": 14,
        "type": "noteOff",
        "noteNumber": 62,
        "velocity": 0,
        "byte9": true
    },
    {
        "deltaTime": 19,
        "channel": 11,
        "type": "noteOff",
        "noteNumber": 41,
        "velocity": 0,
        "byte9": true
    },
    {
        "deltaTime": 319,
        "channel": 5,
        "type": "noteOn",
        "noteNumber": 74,
        "velocity": 111
    },
    {
        "deltaTime": 0,
        "running": true,
        "channel": 5,
        "type": "noteOn",
        "noteNumber": 77,
        "velocity": 107
    },
    {
        "deltaTime": 0,
        "running": true,
        "channel": 5,
        "type": "noteOn",
        "noteNumber": 81,
        "velocity": 105
    },
    {
        "deltaTime": 0,
        "channel": 9,
        "type": "noteOn",
        "noteNumber": 44,
        "velocity": 107
    },
    {
        "deltaTime": 0,
        "running": true,
        "channel": 9,
        "type": "noteOn",
        "noteNumber": 69,
        "velocity": 109
    },
    {
        "deltaTime": 0,
        "channel": 12,
        "type": "noteOn",
        "noteNumber": 62,
        "velocity": 119
    },
    {
        "deltaTime": 12,
        "channel": 9,
        "type": "noteOff",
        "noteNumber": 44,
        "velocity": 0,
        "byte9": true
    },
    {
        "deltaTime": 0,
        "running": true,
        "channel": 9,
        "type": "noteOff",
        "noteNumber": 69,
        "velocity": 0,
        "byte9": true
    },
    {
        "deltaTime": 1,
        "channel": 1,
        "type": "noteOff",
        "noteNumber": 38,
        "velocity": 0,
        "byte9": true
    },
    {
        "deltaTime": 0,
        "channel": 8,
        "type": "noteOff",
        "noteNumber": 38,
        "velocity": 0,
        "byte9": true
    },
    {
        "deltaTime": 6,
        "channel": 14,
        "type": "noteOn",
        "noteNumber": 62,
        "velocity": 111
    },
    {
        "deltaTime": 0,
        "running": true,
        "channel": 14,
        "type": "noteOn",
        "noteNumber": 65,
        "velocity": 107
    },
    {
        "deltaTime": 0,
        "running": true,
        "channel": 14,
        "type": "noteOn",
        "noteNumber": 69,
        "velocity": 105
    },
    {
        "deltaTime": 138,
        "channel": 5,
        "type": "noteOff",
        "noteNumber": 81,
        "velocity": 0,
        "byte9": true
    },
    {
        "deltaTime": 7,
        "running": true,
        "channel": 5,
        "type": "noteOff",
        "noteNumber": 77,
        "velocity": 0,
        "byte9": true
    },
    {
        "deltaTime": 4,
        "running": true,
        "channel": 5,
        "type": "noteOff",
        "noteNumber": 74,
        "velocity": 0,
        "byte9": true
    },
    {
        "deltaTime": 9,
        "channel": 14,
        "type": "noteOff",
        "noteNumber": 69,
        "velocity": 0,
        "byte9": true
    },
    {
        "deltaTime": 7,
        "running": true,
        "channel": 14,
        "type": "noteOff",
        "noteNumber": 65,
        "velocity": 0,
        "byte9": true
    },
    {
        "deltaTime": 4,
        "running": true,
        "channel": 14,
        "type": "noteOff",
        "noteNumber": 62,
        "velocity": 0,
        "byte9": true
    },
    {
        "deltaTime": 132,
        "channel": 1,
        "type": "noteOn",
        "noteNumber": 38,
        "velocity": 110
    },
    {
        "deltaTime": 0,
        "channel": 8,
        "type": "noteOn",
        "noteNumber": 38,
        "velocity": 110
    },
    {
        "deltaTime": 0,
        "channel": 9,
        "type": "noteOn",
        "noteNumber": 35,
        "velocity": 107
    },
    {
        "deltaTime": 0,
        "channel": 11,
        "type": "noteOn",
        "noteNumber": 41,
        "velocity": 107
    },
    {
        "deltaTime": 12,
        "channel": 9,
        "type": "noteOff",
        "noteNumber": 35,
        "velocity": 0,
        "byte9": true
    },
    {
        "deltaTime": 34,
        "channel": 1,
        "type": "noteOff",
        "noteNumber": 38,
        "velocity": 0,
        "byte9": true
    },
    {
        "deltaTime": 0,
        "channel": 8,
        "type": "noteOff",
        "noteNumber": 38,
        "velocity": 0,
        "byte9": true
    },
    {
        "deltaTime": 0,
        "channel": 3,
        "type": "noteOn",
        "noteNumber": 76,
        "velocity": 124
    },
    {
        "deltaTime": 22,
        "channel": 1,
        "type": "noteOn",
        "noteNumber": 38,
        "velocity": 110
    },
    {
        "deltaTime": 0,
        "channel": 5,
        "type": "noteOn",
        "noteNumber": 74,
        "velocity": 105
    },
    {
        "deltaTime": 0,
        "running": true,
        "channel": 5,
        "type": "noteOn",
        "noteNumber": 77,
        "velocity": 94
    },
    {
        "deltaTime": 0,
        "running": true,
        "channel": 5,
        "type": "noteOn",
        "noteNumber": 81,
        "velocity": 94
    },
    {
        "deltaTime": 0,
        "channel": 8,
        "type": "noteOn",
        "noteNumber": 38,
        "velocity": 110
    },
    {
        "deltaTime": 0,
        "channel": 9,
        "type": "noteOn",
        "noteNumber": 35,
        "velocity": 114
    },
    {
        "deltaTime": 0,
        "channel": 11,
        "type": "noteOn",
        "noteNumber": 41,
        "velocity": 114
    },
    {
        "deltaTime": 1,
        "running": true,
        "channel": 11,
        "type": "noteOff",
        "noteNumber": 41,
        "velocity": 0,
        "byte9": true
    },
    {
        "deltaTime": 11,
        "channel": 9,
        "type": "noteOff",
        "noteNumber": 35,
        "velocity": 0,
        "byte9": true
    },
    {
        "deltaTime": 7,
        "channel": 14,
        "type": "noteOn",
        "noteNumber": 62,
        "velocity": 105
    },
    {
        "deltaTime": 0,
        "running": true,
        "channel": 14,
        "type": "noteOn",
        "noteNumber": 65,
        "velocity": 94
    },
    {
        "deltaTime": 0,
        "running": true,
        "channel": 14,
        "type": "noteOn",
        "noteNumber": 69,
        "velocity": 94
    },
    {
        "deltaTime": 24,
        "channel": 12,
        "type": "noteOff",
        "noteNumber": 57,
        "velocity": 0,
        "byte9": true
    },
    {
        "deltaTime": 47,
        "running": true,
        "channel": 12,
        "type": "noteOff",
        "noteNumber": 50,
        "velocity": 0,
        "byte9": true
    },
    {
        "deltaTime": 65,
        "channel": 5,
        "type": "noteOff",
        "noteNumber": 81,
        "velocity": 0,
        "byte9": true
    },
    {
        "deltaTime": 6,
        "channel": 11,
        "type": "noteOff",
        "noteNumber": 41,
        "velocity": 0,
        "byte9": true
    },
    {
        "deltaTime": 2,
        "channel": 5,
        "type": "noteOff",
        "noteNumber": 74,
        "velocity": 0,
        "byte9": true
    },
    {
        "deltaTime": 4,
        "running": true,
        "channel": 5,
        "type": "noteOff",
        "noteNumber": 77,
        "velocity": 0,
        "byte9": true
    },
    {
        "deltaTime": 8,
        "channel": 14,
        "type": "noteOff",
        "noteNumber": 69,
        "velocity": 0,
        "byte9": true
    },
    {
        "deltaTime": 8,
        "running": true,
        "channel": 14,
        "type": "noteOff",
        "noteNumber": 62,
        "velocity": 0,
        "byte9": true
    },
    {
        "deltaTime": 4,
        "running": true,
        "channel": 14,
        "type": "noteOff",
        "noteNumber": 65,
        "velocity": 0,
        "byte9": true
    },
    {
        "deltaTime": 75,
        "channel": 3,
        "type": "noteOff",
        "noteNumber": 76,
        "velocity": 0,
        "byte9": true
    },
    {
        "deltaTime": 58,
        "channel": 9,
        "type": "noteOn",
        "noteNumber": 70,
        "velocity": 65
    },
    {
        "deltaTime": 12,
        "running": true,
        "channel": 9,
        "type": "noteOff",
        "noteNumber": 70,
        "velocity": 0,
        "byte9": true
    },
    {
        "deltaTime": 0,
        "channel": 3,
        "type": "noteOn",
        "noteNumber": 77,
        "velocity": 114
    },
    {
        "deltaTime": 132,
        "channel": 5,
        "type": "noteOn",
        "noteNumber": 74,
        "velocity": 109
    },
    {
        "deltaTime": 0,
        "running": true,
        "channel": 5,
        "type": "noteOn",
        "noteNumber": 77,
        "velocity": 94
    },
    {
        "deltaTime": 0,
        "running": true,
        "channel": 5,
        "type": "noteOn",
        "noteNumber": 81,
        "velocity": 94
    },
    {
        "deltaTime": 0,
        "channel": 9,
        "type": "noteOn",
        "noteNumber": 44,
        "velocity": 107
    },
    {
        "deltaTime": 0,
        "running": true,
        "channel": 9,
        "type": "noteOn",
        "noteNumber": 54,
        "velocity": 109
    },
    {
        "deltaTime": 12,
        "running": true,
        "channel": 9,
        "type": "noteOff",
        "noteNumber": 44,
        "velocity": 0,
        "byte9": true
    },
    {
        "deltaTime": 0,
        "running": true,
        "channel": 9,
        "type": "noteOff",
        "noteNumber": 54,
        "velocity": 0,
        "byte9": true
    },
    {
        "deltaTime": 1,
        "channel": 1,
        "type": "noteOff",
        "noteNumber": 38,
        "velocity": 0,
        "byte9": true
    },
    {
        "deltaTime": 0,
        "channel": 8,
        "type": "noteOff",
        "noteNumber": 38,
        "velocity": 0,
        "byte9": true
    },
    {
        "deltaTime": 6,
        "channel": 14,
        "type": "noteOn",
        "noteNumber": 62,
        "velocity": 109
    },
    {
        "deltaTime": 0,
        "running": true,
        "channel": 14,
        "type": "noteOn",
        "noteNumber": 65,
        "velocity": 94
    },
    {
        "deltaTime": 0,
        "running": true,
        "channel": 14,
        "type": "noteOn",
        "noteNumber": 69,
        "velocity": 94
    },
    {
        "deltaTime": 63,
        "channel": 3,
        "type": "noteOff",
        "noteNumber": 77,
        "velocity": 0,
        "byte9": true
    },
    {
        "deltaTime": 59,
        "channel": 5,
        "type": "noteOff",
        "noteNumber": 81,
        "velocity": 0,
        "byte9": true
    },
    {
        "deltaTime": 13,
        "running": true,
        "channel": 5,
        "type": "noteOff",
        "noteNumber": 74,
        "velocity": 0,
        "byte9": true
    },
    {
        "deltaTime": 0,
        "running": true,
        "channel": 5,
        "type": "noteOff",
        "noteNumber": 77,
        "velocity": 0,
        "byte9": true
    },
    {
        "deltaTime": 7,
        "channel": 14,
        "type": "noteOff",
        "noteNumber": 69,
        "velocity": 0,
        "byte9": true
    },
    {
        "deltaTime": 13,
        "running": true,
        "channel": 14,
        "type": "noteOff",
        "noteNumber": 62,
        "velocity": 0,
        "byte9": true
    },
    {
        "deltaTime": 0,
        "running": true,
        "channel": 14,
        "type": "noteOff",
        "noteNumber": 65,
        "velocity": 0,
        "byte9": true
    },
    {
        "deltaTime": 0,
        "channel": 3,
        "type": "noteOn",
        "noteNumber": 76,
        "velocity": 127
    },
    {
        "deltaTime": 67,
        "channel": 12,
        "type": "noteOff",
        "noteNumber": 62,
        "velocity": 0,
        "byte9": true
    },
    {
        "deltaTime": 204,
        "channel": 3,
        "type": "noteOff",
        "noteNumber": 76,
        "velocity": 0,
        "byte9": true
    },
    {
        "deltaTime": 26,
        "channel": 1,
        "type": "noteOn",
        "noteNumber": 38,
        "velocity": 110
    },
    {
        "deltaTime": 0,
        "channel": 5,
        "type": "noteOn",
        "noteNumber": 74,
        "velocity": 109
    },
    {
        "deltaTime": 0,
        "running": true,
        "channel": 5,
        "type": "noteOn",
        "noteNumber": 77,
        "velocity": 94
    },
    {
        "deltaTime": 0,
        "running": true,
        "channel": 5,
        "type": "noteOn",
        "noteNumber": 81,
        "velocity": 101
    },
    {
        "deltaTime": 0,
        "channel": 8,
        "type": "noteOn",
        "noteNumber": 38,
        "velocity": 110
    },
    {
        "deltaTime": 0,
        "channel": 9,
        "type": "noteOn",
        "noteNumber": 35,
        "velocity": 114
    },
    {
        "deltaTime": 0,
        "channel": 11,
        "type": "noteOn",
        "noteNumber": 41,
        "velocity": 114
    },
    {
        "deltaTime": 12,
        "channel": 9,
        "type": "noteOff",
        "noteNumber": 35,
        "velocity": 0,
        "byte9": true
    },
    {
        "deltaTime": 7,
        "channel": 14,
        "type": "noteOn",
        "noteNumber": 62,
        "velocity": 109
    },
    {
        "deltaTime": 0,
        "running": true,
        "channel": 14,
        "type": "noteOn",
        "noteNumber": 65,
        "velocity": 94
    },
    {
        "deltaTime": 0,
        "running": true,
        "channel": 14,
        "type": "noteOn",
        "noteNumber": 69,
        "velocity": 101
    },
    {
        "deltaTime": 0,
        "channel": 3,
        "type": "noteOn",
        "noteNumber": 79,
        "velocity": 123
    },
    {
        "deltaTime": 50,
        "channel": 12,
        "type": "noteOff",
        "noteNumber": 61,
        "velocity": 0,
        "byte9": true
    },
    {
        "deltaTime": 31,
        "running": true,
        "channel": 12,
        "type": "noteOff",
        "noteNumber": 64,
        "velocity": 0,
        "byte9": true
    },
    {
        "deltaTime": 8,
        "running": true,
        "channel": 12,
        "type": "noteOff",
        "noteNumber": 57,
        "velocity": 0,
        "byte9": true
    },
    {
        "deltaTime": 43,
        "channel": 5,
        "type": "noteOff",
        "noteNumber": 81,
        "velocity": 0,
        "byte9": true
    },
    {
        "deltaTime": 6,
        "channel": 11,
        "type": "noteOff",
        "noteNumber": 41,
        "velocity": 0,
        "byte9": true
    },
    {
        "deltaTime": 10,
        "channel": 5,
        "type": "noteOff",
        "noteNumber": 74,
        "velocity": 0,
        "byte9": true
    },
    {
        "deltaTime": 0,
        "running": true,
        "channel": 5,
        "type": "noteOff",
        "noteNumber": 77,
        "velocity": 0,
        "byte9": true
    },
    {
        "deltaTime": 4,
        "channel": 14,
        "type": "noteOff",
        "noteNumber": 69,
        "velocity": 0,
        "byte9": true
    },
    {
        "deltaTime": 16,
        "running": true,
        "channel": 14,
        "type": "noteOff",
        "noteNumber": 62,
        "velocity": 0,
        "byte9": true
    },
    {
        "deltaTime": 0,
        "running": true,
        "channel": 14,
        "type": "noteOff",
        "noteNumber": 65,
        "velocity": 0,
        "byte9": true
    },
    {
        "deltaTime": 103,
        "channel": 3,
        "type": "noteOff",
        "noteNumber": 79,
        "velocity": 0,
        "byte9": true
    },
    {
        "deltaTime": 0,
        "channel": 3,
        "type": "noteOn",
        "noteNumber": 77,
        "velocity": 125
    },
    {
        "deltaTime": 42,
        "channel": 5,
        "type": "noteOn",
        "noteNumber": 74,
        "velocity": 108
    },
    {
        "deltaTime": 0,
        "running": true,
        "channel": 5,
        "type": "noteOn",
        "noteNumber": 77,
        "velocity": 97
    },
    {
        "deltaTime": 0,
        "running": true,
        "channel": 5,
        "type": "noteOn",
        "noteNumber": 81,
        "velocity": 98
    },
    {
        "deltaTime": 0,
        "channel": 9,
        "type": "noteOn",
        "noteNumber": 44,
        "velocity": 107
    },
    {
        "deltaTime": 0,
        "running": true,
        "channel": 9,
        "type": "noteOn",
        "noteNumber": 69,
        "velocity": 109
    },
    {
        "deltaTime": 0,
        "channel": 12,
        "type": "noteOn",
        "noteNumber": 57,
        "velocity": 124
    },
    {
        "deltaTime": 12,
        "channel": 9,
        "type": "noteOff",
        "noteNumber": 44,
        "velocity": 0,
        "byte9": true
    },
    {
        "deltaTime": 0,
        "running": true,
        "channel": 9,
        "type": "noteOff",
        "noteNumber": 69,
        "velocity": 0,
        "byte9": true
    },
    {
        "deltaTime": 7,
        "channel": 14,
        "type": "noteOn",
        "noteNumber": 62,
        "velocity": 108
    },
    {
        "deltaTime": 0,
        "running": true,
        "channel": 14,
        "type": "noteOn",
        "noteNumber": 65,
        "velocity": 97
    },
    {
        "deltaTime": 0,
        "running": true,
        "channel": 14,
        "type": "noteOn",
        "noteNumber": 69,
        "velocity": 98
    },
    {
        "deltaTime": 14,
        "channel": 1,
        "type": "noteOff",
        "noteNumber": 38,
        "velocity": 0,
        "byte9": true
    },
    {
        "deltaTime": 0,
        "channel": 8,
        "type": "noteOff",
        "noteNumber": 38,
        "velocity": 0,
        "byte9": true
    },
    {
        "deltaTime": 113,
        "channel": 5,
        "type": "noteOff",
        "noteNumber": 81,
        "velocity": 0,
        "byte9": true
    },
    {
        "deltaTime": 12,
        "running": true,
        "channel": 5,
        "type": "noteOff",
        "noteNumber": 74,
        "velocity": 0,
        "byte9": true
    },
    {
        "deltaTime": 3,
        "channel": 3,
        "type": "noteOff",
        "noteNumber": 77,
        "velocity": 0,
        "byte9": true
    },
    {
        "deltaTime": 2,
        "channel": 5,
        "type": "noteOff",
        "noteNumber": 77,
        "velocity": 0,
        "byte9": true
    },
    {
        "deltaTime": 3,
        "channel": 14,
        "type": "noteOff",
        "noteNumber": 69,
        "velocity": 0,
        "byte9": true
    },
    {
        "deltaTime": 12,
        "running": true,
        "channel": 14,
        "type": "noteOff",
        "noteNumber": 62,
        "velocity": 0,
        "byte9": true
    },
    {
        "deltaTime": 5,
        "running": true,
        "channel": 14,
        "type": "noteOff",
        "noteNumber": 65,
        "velocity": 0,
        "byte9": true
    },
    {
        "deltaTime": 0,
        "channel": 3,
        "type": "noteOn",
        "noteNumber": 77,
        "velocity": 114
    },
    {
        "deltaTime": 40,
        "channel": 1,
        "type": "noteOn",
        "noteNumber": 38,
        "velocity": 110
    },
    {
        "deltaTime": 0,
        "channel": 8,
        "type": "noteOn",
        "noteNumber": 38,
        "velocity": 110
    },
    {
        "deltaTime": 0,
        "channel": 9,
        "type": "noteOn",
        "noteNumber": 35,
        "velocity": 114
    },
    {
        "deltaTime": 0,
        "channel": 11,
        "type": "noteOn",
        "noteNumber": 41,
        "velocity": 114
    },
    {
        "deltaTime": 0,
        "channel": 12,
        "type": "noteOn",
        "noteNumber": 65,
        "velocity": 114
    },
    {
        "deltaTime": 12,
        "channel": 9,
        "type": "noteOff",
        "noteNumber": 35,
        "velocity": 0,
        "byte9": true
    },
    {
        "deltaTime": 144,
        "channel": 10,
        "type": "noteOff",
        "noteNumber": 74,
        "velocity": 0,
        "byte9": true
    },
    {
        "deltaTime": 4,
        "channel": 5,
        "type": "noteOn",
        "noteNumber": 74,
        "velocity": 105
    },
    {
        "deltaTime": 0,
        "running": true,
        "channel": 5,
        "type": "noteOn",
        "noteNumber": 77,
        "velocity": 89
    },
    {
        "deltaTime": 0,
        "running": true,
        "channel": 5,
        "type": "noteOn",
        "noteNumber": 81,
        "velocity": 94
    },
    {
        "deltaTime": 0,
        "channel": 10,
        "type": "noteOn",
        "noteNumber": 77,
        "velocity": 105
    },
    {
        "deltaTime": 1,
        "channel": 11,
        "type": "noteOff",
        "noteNumber": 41,
        "velocity": 0,
        "byte9": true
    },
    {
        "deltaTime": 18,
        "channel": 14,
        "type": "noteOn",
        "noteNumber": 62,
        "velocity": 105
    },
    {
        "deltaTime": 0,
        "running": true,
        "channel": 14,
        "type": "noteOn",
        "noteNumber": 65,
        "velocity": 89
    },
    {
        "deltaTime": 0,
        "running": true,
        "channel": 14,
        "type": "noteOn",
        "noteNumber": 69,
        "velocity": 94
    },
    {
        "deltaTime": 127,
        "channel": 5,
        "type": "noteOff",
        "noteNumber": 81,
        "velocity": 0,
        "byte9": true
    },
    {
        "deltaTime": 19,
        "channel": 14,
        "type": "noteOff",
        "noteNumber": 69,
        "velocity": 0,
        "byte9": true
    },
    {
        "deltaTime": 3,
        "channel": 5,
        "type": "noteOff",
        "noteNumber": 74,
        "velocity": 0,
        "byte9": true
    },
    {
        "deltaTime": 0,
        "running": true,
        "channel": 5,
        "type": "noteOff",
        "noteNumber": 77,
        "velocity": 0,
        "byte9": true
    },
    {
        "deltaTime": 20,
        "channel": 14,
        "type": "noteOff",
        "noteNumber": 62,
        "velocity": 0,
        "byte9": true
    },
    {
        "deltaTime": 0,
        "running": true,
        "channel": 14,
        "type": "noteOff",
        "noteNumber": 65,
        "velocity": 0,
        "byte9": true
    },
    {
        "deltaTime": 128,
        "channel": 1,
        "type": "noteOff",
        "noteNumber": 38,
        "velocity": 0,
        "byte9": true
    },
    {
        "deltaTime": 0,
        "channel": 8,
        "type": "noteOff",
        "noteNumber": 38,
        "velocity": 0,
        "byte9": true
    },
    {
        "deltaTime": 4,
        "channel": 1,
        "type": "noteOn",
        "noteNumber": 41,
        "velocity": 110
    },
    {
        "deltaTime": 0,
        "channel": 8,
        "type": "noteOn",
        "noteNumber": 41,
        "velocity": 110
    },
    {
        "deltaTime": 0,
        "channel": 9,
        "type": "noteOn",
        "noteNumber": 35,
        "velocity": 114
    },
    {
        "deltaTime": 0,
        "running": true,
        "channel": 9,
        "type": "noteOn",
        "noteNumber": 70,
        "velocity": 65
    },
    {
        "deltaTime": 0,
        "channel": 11,
        "type": "noteOn",
        "noteNumber": 41,
        "velocity": 114
    },
    {
        "deltaTime": 12,
        "channel": 9,
        "type": "noteOff",
        "noteNumber": 35,
        "velocity": 0,
        "byte9": true
    },
    {
        "deltaTime": 0,
        "running": true,
        "channel": 9,
        "type": "noteOff",
        "noteNumber": 70,
        "velocity": 0,
        "byte9": true
    },
    {
        "deltaTime": 144,
        "channel": 10,
        "type": "noteOff",
        "noteNumber": 77,
        "velocity": 0,
        "byte9": true
    },
    {
        "deltaTime": 4,
        "channel": 5,
        "type": "noteOn",
        "noteNumber": 74,
        "velocity": 109
    },
    {
        "deltaTime": 0,
        "running": true,
        "channel": 5,
        "type": "noteOn",
        "noteNumber": 77,
        "velocity": 97
    },
    {
        "deltaTime": 0,
        "running": true,
        "channel": 5,
        "type": "noteOn",
        "noteNumber": 81,
        "velocity": 110
    },
    {
        "deltaTime": 0,
        "channel": 9,
        "type": "noteOn",
        "noteNumber": 44,
        "velocity": 107
    },
    {
        "deltaTime": 0,
        "running": true,
        "channel": 9,
        "type": "noteOn",
        "noteNumber": 54,
        "velocity": 109
    },
    {
        "deltaTime": 0,
        "channel": 10,
        "type": "noteOn",
        "noteNumber": 81,
        "velocity": 105
    },
    {
        "deltaTime": 0,
        "channel": 12,
        "type": "noteOn",
        "noteNumber": 62,
        "velocity": 121
    },
    {
        "deltaTime": 1,
        "channel": 11,
        "type": "noteOff",
        "noteNumber": 41,
        "velocity": 0,
        "byte9": true
    },
    {
        "deltaTime": 11,
        "channel": 3,
        "type": "noteOff",
        "noteNumber": 77,
        "velocity": 0,
        "byte9": true
    },
    {
        "deltaTime": 0,
        "channel": 9,
        "type": "noteOff",
        "noteNumber": 44,
        "velocity": 0,
        "byte9": true
    },
    {
        "deltaTime": 0,
        "running": true,
        "channel": 9,
        "type": "noteOff",
        "noteNumber": 54,
        "velocity": 0,
        "byte9": true
    },
    {
        "deltaTime": 4,
        "channel": 12,
        "type": "noteOff",
        "noteNumber": 57,
        "velocity": 0,
        "byte9": true
    },
    {
        "deltaTime": 3,
        "channel": 14,
        "type": "noteOn",
        "noteNumber": 62,
        "velocity": 109
    },
    {
        "deltaTime": 0,
        "running": true,
        "channel": 14,
        "type": "noteOn",
        "noteNumber": 65,
        "velocity": 97
    },
    {
        "deltaTime": 0,
        "running": true,
        "channel": 14,
        "type": "noteOn",
        "noteNumber": 69,
        "velocity": 110
    },
    {
        "deltaTime": 0,
        "channel": 3,
        "type": "noteOn",
        "noteNumber": 76,
        "velocity": 124
    },
    {
        "deltaTime": 15,
        "channel": 12,
        "type": "noteOff",
        "noteNumber": 65,
        "velocity": 0,
        "byte9": true
    },
    {
        "deltaTime": 108,
        "channel": 5,
        "type": "noteOff",
        "noteNumber": 81,
        "velocity": 0,
        "byte9": true
    },
    {
        "deltaTime": 9,
        "running": true,
        "channel": 5,
        "type": "noteOff",
        "noteNumber": 74,
        "velocity": 0,
        "byte9": true
    },
    {
        "deltaTime": 3,
        "running": true,
        "channel": 5,
        "type": "noteOff",
        "noteNumber": 77,
        "velocity": 0,
        "byte9": true
    },
    {
        "deltaTime": 7,
        "channel": 14,
        "type": "noteOff",
        "noteNumber": 69,
        "velocity": 0,
        "byte9": true
    },
    {
        "deltaTime": 9,
        "running": true,
        "channel": 14,
        "type": "noteOff",
        "noteNumber": 62,
        "velocity": 0,
        "byte9": true
    },
    {
        "deltaTime": 3,
        "running": true,
        "channel": 14,
        "type": "noteOff",
        "noteNumber": 65,
        "velocity": 0,
        "byte9": true
    },
    {
        "deltaTime": 97,
        "channel": 3,
        "type": "noteOff",
        "noteNumber": 76,
        "velocity": 0,
        "byte9": true
    },
    {
        "deltaTime": 0,
        "channel": 3,
        "type": "noteOn",
        "noteNumber": 77,
        "velocity": 114
    },
    {
        "deltaTime": 1,
        "channel": 1,
        "type": "noteOff",
        "noteNumber": 41,
        "velocity": 0,
        "byte9": true
    },
    {
        "deltaTime": 0,
        "channel": 8,
        "type": "noteOff",
        "noteNumber": 41,
        "velocity": 0,
        "byte9": true
    },
    {
        "deltaTime": 0,
        "channel": 12,
        "type": "noteOff",
        "noteNumber": 62,
        "velocity": 0,
        "byte9": true
    },
    {
        "deltaTime": 4,
        "channel": 1,
        "type": "noteOn",
        "noteNumber": 42,
        "velocity": 110
    },
    {
        "deltaTime": 0,
        "channel": 8,
        "type": "noteOn",
        "noteNumber": 42,
        "velocity": 110
    },
    {
        "deltaTime": 156,
        "channel": 1,
        "type": "noteOff",
        "noteNumber": 42,
        "velocity": 0,
        "byte9": true
    },
    {
        "deltaTime": 0,
        "channel": 8,
        "type": "noteOff",
        "noteNumber": 42,
        "velocity": 0,
        "byte9": true
    },
    {
        "deltaTime": 0,
        "channel": 10,
        "type": "noteOff",
        "noteNumber": 81,
        "velocity": 0,
        "byte9": true
    },
    {
        "deltaTime": 4,
        "channel": 1,
        "type": "noteOn",
        "noteNumber": 43,
        "velocity": 110
    },
    {
        "deltaTime": 0,
        "channel": 5,
        "type": "noteOn",
        "noteNumber": 74,
        "velocity": 101
    },
    {
        "deltaTime": 0,
        "running": true,
        "channel": 5,
        "type": "noteOn",
        "noteNumber": 79,
        "velocity": 97
    },
    {
        "deltaTime": 0,
        "running": true,
        "channel": 5,
        "type": "noteOn",
        "noteNumber": 82,
        "velocity": 105
    },
    {
        "deltaTime": 0,
        "channel": 8,
        "type": "noteOn",
        "noteNumber": 43,
        "velocity": 110
    },
    {
        "deltaTime": 0,
        "channel": 9,
        "type": "noteOn",
        "noteNumber": 35,
        "velocity": 114
    },
    {
        "deltaTime": 0,
        "channel": 10,
        "type": "noteOn",
        "noteNumber": 79,
        "velocity": 105
    },
    {
        "deltaTime": 0,
        "channel": 11,
        "type": "noteOn",
        "noteNumber": 41,
        "velocity": 114
    },
    {
        "deltaTime": 0,
        "channel": 12,
        "type": "noteOn",
        "noteNumber": 55,
        "velocity": 114
    },
    {
        "deltaTime": 12,
        "channel": 9,
        "type": "noteOff",
        "noteNumber": 35,
        "velocity": 0,
        "byte9": true
    },
    {
        "deltaTime": 7,
        "channel": 14,
        "type": "noteOn",
        "noteNumber": 62,
        "velocity": 101
    },
    {
        "deltaTime": 0,
        "running": true,
        "channel": 14,
        "type": "noteOn",
        "noteNumber": 67,
        "velocity": 97
    },
    {
        "deltaTime": 0,
        "running": true,
        "channel": 14,
        "type": "noteOn",
        "noteNumber": 70,
        "velocity": 105
    },
    {
        "deltaTime": 54,
        "channel": 5,
        "type": "noteOff",
        "noteNumber": 82,
        "velocity": 0,
        "byte9": true
    },
    {
        "deltaTime": 20,
        "channel": 14,
        "type": "noteOff",
        "noteNumber": 70,
        "velocity": 0,
        "byte9": true
    },
    {
        "deltaTime": 28,
        "channel": 5,
        "type": "noteOff",
        "noteNumber": 79,
        "velocity": 0,
        "byte9": true
    },
    {
        "deltaTime": 2,
        "running": true,
        "channel": 5,
        "type": "noteOff",
        "noteNumber": 74,
        "velocity": 0,
        "byte9": true
    },
    {
        "deltaTime": 17,
        "channel": 14,
        "type": "noteOff",
        "noteNumber": 67,
        "velocity": 0,
        "byte9": true
    },
    {
        "deltaTime": 2,
        "running": true,
        "channel": 14,
        "type": "noteOff",
        "noteNumber": 62,
        "velocity": 0,
        "byte9": true
    },
    {
        "deltaTime": 13,
        "channel": 3,
        "type": "noteOff",
        "noteNumber": 77,
        "velocity": 0,
        "byte9": true
    },
    {
        "deltaTime": 6,
        "channel": 11,
        "type": "noteOff",
        "noteNumber": 41,
        "velocity": 0,
        "byte9": true
    },
    {
        "deltaTime": 0,
        "channel": 3,
        "type": "noteOn",
        "noteNumber": 70,
        "velocity": 127
    },
    {
        "deltaTime": 195,
        "channel": 5,
        "type": "noteOn",
        "noteNumber": 74,
        "velocity": 111
    },
    {
        "deltaTime": 0,
        "running": true,
        "channel": 5,
        "type": "noteOn",
        "noteNumber": 79,
        "velocity": 107
    },
    {
        "deltaTime": 0,
        "running": true,
        "channel": 5,
        "type": "noteOn",
        "noteNumber": 82,
        "velocity": 105
    },
    {
        "deltaTime": 0,
        "channel": 9,
        "type": "noteOn",
        "noteNumber": 44,
        "velocity": 107
    },
    {
        "deltaTime": 0,
        "running": true,
        "channel": 9,
        "type": "noteOn",
        "noteNumber": 69,
        "velocity": 109
    },
    {
        "deltaTime": 0,
        "channel": 12,
        "type": "noteOn",
        "noteNumber": 58,
        "velocity": 122
    },
    {
        "deltaTime": 12,
        "channel": 9,
        "type": "noteOff",
        "noteNumber": 44,
        "velocity": 0,
        "byte9": true
    },
    {
        "deltaTime": 0,
        "running": true,
        "channel": 9,
        "type": "noteOff",
        "noteNumber": 69,
        "velocity": 0,
        "byte9": true
    },
    {
        "deltaTime": 7,
        "channel": 14,
        "type": "noteOn",
        "noteNumber": 62,
        "velocity": 111
    },
    {
        "deltaTime": 0,
        "running": true,
        "channel": 14,
        "type": "noteOn",
        "noteNumber": 67,
        "velocity": 107
    },
    {
        "deltaTime": 0,
        "running": true,
        "channel": 14,
        "type": "noteOn",
        "noteNumber": 70,
        "velocity": 105
    },
    {
        "deltaTime": 9,
        "channel": 3,
        "type": "noteOff",
        "noteNumber": 70,
        "velocity": 0,
        "byte9": true
    },
    {
        "deltaTime": 5,
        "channel": 1,
        "type": "noteOff",
        "noteNumber": 43,
        "velocity": 0,
        "byte9": true
    },
    {
        "deltaTime": 0,
        "channel": 8,
        "type": "noteOff",
        "noteNumber": 43,
        "velocity": 0,
        "byte9": true
    },
    {
        "deltaTime": 124,
        "channel": 5,
        "type": "noteOff",
        "noteNumber": 82,
        "velocity": 0,
        "byte9": true
    },
    {
        "deltaTime": 7,
        "running": true,
        "channel": 5,
        "type": "noteOff",
        "noteNumber": 79,
        "velocity": 0,
        "byte9": true
    },
    {
        "deltaTime": 4,
        "running": true,
        "channel": 5,
        "type": "noteOff",
        "noteNumber": 74,
        "velocity": 0,
        "byte9": true
    },
    {
        "deltaTime": 9,
        "channel": 14,
        "type": "noteOff",
        "noteNumber": 70,
        "velocity": 0,
        "byte9": true
    },
    {
        "deltaTime": 7,
        "running": true,
        "channel": 14,
        "type": "noteOff",
        "noteNumber": 67,
        "velocity": 0,
        "byte9": true
    },
    {
        "deltaTime": 4,
        "running": true,
        "channel": 14,
        "type": "noteOff",
        "noteNumber": 62,
        "velocity": 0,
        "byte9": true
    },
    {
        "deltaTime": 132,
        "channel": 1,
        "type": "noteOn",
        "noteNumber": 31,
        "velocity": 110
    },
    {
        "deltaTime": 0,
        "channel": 8,
        "type": "noteOn",
        "noteNumber": 31,
        "velocity": 110
    },
    {
        "deltaTime": 0,
        "channel": 9,
        "type": "noteOn",
        "noteNumber": 35,
        "velocity": 107
    },
    {
        "deltaTime": 0,
        "channel": 11,
        "type": "noteOn",
        "noteNumber": 41,
        "velocity": 107
    },
    {
        "deltaTime": 12,
        "channel": 9,
        "type": "noteOff",
        "noteNumber": 35,
        "velocity": 0,
        "byte9": true
    },
    {
        "deltaTime": 37,
        "channel": 1,
        "type": "noteOff",
        "noteNumber": 31,
        "velocity": 0,
        "byte9": true
    },
    {
        "deltaTime": 0,
        "channel": 8,
        "type": "noteOff",
        "noteNumber": 31,
        "velocity": 0,
        "byte9": true
    },
    {
        "deltaTime": 111,
        "channel": 1,
        "type": "noteOn",
        "noteNumber": 31,
        "velocity": 110
    },
    {
        "deltaTime": 0,
        "channel": 5,
        "type": "noteOn",
        "noteNumber": 74,
        "velocity": 105
    },
    {
        "deltaTime": 0,
        "running": true,
        "channel": 5,
        "type": "noteOn",
        "noteNumber": 79,
        "velocity": 94
    },
    {
        "deltaTime": 0,
        "running": true,
        "channel": 5,
        "type": "noteOn",
        "noteNumber": 82,
        "velocity": 94
    },
    {
        "deltaTime": 0,
        "channel": 8,
        "type": "noteOn",
        "noteNumber": 31,
        "velocity": 110
    },
    {
        "deltaTime": 0,
        "channel": 9,
        "type": "noteOn",
        "noteNumber": 35,
        "velocity": 114
    },
    {
        "deltaTime": 0,
        "channel": 11,
        "type": "noteOn",
        "noteNumber": 41,
        "velocity": 114
    },
    {
        "deltaTime": 0,
        "channel": 12,
        "type": "noteOn",
        "noteNumber": 62,
        "velocity": 119
    },
    {
        "deltaTime": 1,
        "channel": 11,
        "type": "noteOff",
        "noteNumber": 41,
        "velocity": 0,
        "byte9": true
    },
    {
        "deltaTime": 11,
        "channel": 9,
        "type": "noteOff",
        "noteNumber": 35,
        "velocity": 0,
        "byte9": true
    },
    {
        "deltaTime": 0,
        "channel": 3,
        "type": "noteOn",
        "noteNumber": 76,
        "velocity": 127
    },
    {
        "deltaTime": 0,
        "channel": 14,
        "type": "noteOn",
        "noteNumber": 62,
        "velocity": 105
    },
    {
        "deltaTime": 0,
        "running": true,
        "channel": 14,
        "type": "noteOn",
        "noteNumber": 67,
        "velocity": 94
    },
    {
        "deltaTime": 0,
        "running": true,
        "channel": 14,
        "type": "noteOn",
        "noteNumber": 70,
        "velocity": 94
    },
    {
        "deltaTime": 136,
        "channel": 5,
        "type": "noteOff",
        "noteNumber": 82,
        "velocity": 0,
        "byte9": true
    },
    {
        "deltaTime": 6,
        "channel": 11,
        "type": "noteOff",
        "noteNumber": 41,
        "velocity": 0,
        "byte9": true
    },
    {
        "deltaTime": 2,
        "channel": 5,
        "type": "noteOff",
        "noteNumber": 74,
        "velocity": 0,
        "byte9": true
    },
    {
        "deltaTime": 4,
        "running": true,
        "channel": 5,
        "type": "noteOff",
        "noteNumber": 79,
        "velocity": 0,
        "byte9": true
    },
    {
        "deltaTime": 8,
        "channel": 14,
        "type": "noteOff",
        "noteNumber": 70,
        "velocity": 0,
        "byte9": true
    },
    {
        "deltaTime": 8,
        "running": true,
        "channel": 14,
        "type": "noteOff",
        "noteNumber": 62,
        "velocity": 0,
        "byte9": true
    },
    {
        "deltaTime": 4,
        "running": true,
        "channel": 14,
        "type": "noteOff",
        "noteNumber": 67,
        "velocity": 0,
        "byte9": true
    },
    {
        "deltaTime": 133,
        "channel": 9,
        "type": "noteOn",
        "noteNumber": 70,
        "velocity": 65
    },
    {
        "deltaTime": 12,
        "running": true,
        "channel": 9,
        "type": "noteOff",
        "noteNumber": 70,
        "velocity": 0,
        "byte9": true
    },
    {
        "deltaTime": 0,
        "channel": 3,
        "type": "noteOn",
        "noteNumber": 77,
        "velocity": 124
    },
    {
        "deltaTime": 12,
        "running": true,
        "channel": 3,
        "type": "noteOff",
        "noteNumber": 76,
        "velocity": 0,
        "byte9": true
    },
    {
        "deltaTime": 116,
        "channel": 5,
        "type": "noteOn",
        "noteNumber": 74,
        "velocity": 109
    },
    {
        "deltaTime": 0,
        "running": true,
        "channel": 5,
        "type": "noteOn",
        "noteNumber": 79,
        "velocity": 94
    },
    {
        "deltaTime": 0,
        "running": true,
        "channel": 5,
        "type": "noteOn",
        "noteNumber": 82,
        "velocity": 94
    },
    {
        "deltaTime": 0,
        "channel": 9,
        "type": "noteOn",
        "noteNumber": 44,
        "velocity": 107
    },
    {
        "deltaTime": 0,
        "running": true,
        "channel": 9,
        "type": "noteOn",
        "noteNumber": 54,
        "velocity": 109
    },
    {
        "deltaTime": 12,
        "running": true,
        "channel": 9,
        "type": "noteOff",
        "noteNumber": 44,
        "velocity": 0,
        "byte9": true
    },
    {
        "deltaTime": 0,
        "running": true,
        "channel": 9,
        "type": "noteOff",
        "noteNumber": 54,
        "velocity": 0,
        "byte9": true
    },
    {
        "deltaTime": 1,
        "channel": 1,
        "type": "noteOff",
        "noteNumber": 31,
        "velocity": 0,
        "byte9": true
    },
    {
        "deltaTime": 0,
        "channel": 8,
        "type": "noteOff",
        "noteNumber": 31,
        "velocity": 0,
        "byte9": true
    },
    {
        "deltaTime": 6,
        "channel": 14,
        "type": "noteOn",
        "noteNumber": 62,
        "velocity": 109
    },
    {
        "deltaTime": 0,
        "running": true,
        "channel": 14,
        "type": "noteOn",
        "noteNumber": 67,
        "velocity": 94
    },
    {
        "deltaTime": 0,
        "running": true,
        "channel": 14,
        "type": "noteOn",
        "noteNumber": 70,
        "velocity": 94
    },
    {
        "deltaTime": 122,
        "channel": 5,
        "type": "noteOff",
        "noteNumber": 82,
        "velocity": 0,
        "byte9": true
    },
    {
        "deltaTime": 13,
        "running": true,
        "channel": 5,
        "type": "noteOff",
        "noteNumber": 74,
        "velocity": 0,
        "byte9": true
    },
    {
        "deltaTime": 0,
        "running": true,
        "channel": 5,
        "type": "noteOff",
        "noteNumber": 79,
        "velocity": 0,
        "byte9": true
    },
    {
        "deltaTime": 7,
        "channel": 14,
        "type": "noteOff",
        "noteNumber": 70,
        "velocity": 0,
        "byte9": true
    },
    {
        "deltaTime": 13,
        "running": true,
        "channel": 14,
        "type": "noteOff",
        "noteNumber": 62,
        "velocity": 0,
        "byte9": true
    },
    {
        "deltaTime": 0,
        "running": true,
        "channel": 14,
        "type": "noteOff",
        "noteNumber": 67,
        "velocity": 0,
        "byte9": true
    },
    {
        "deltaTime": 98,
        "channel": 3,
        "type": "noteOff",
        "noteNumber": 77,
        "velocity": 0,
        "byte9": true
    },
    {
        "deltaTime": 0,
        "channel": 3,
        "type": "noteOn",
        "noteNumber": 76,
        "velocity": 127
    },
    {
        "deltaTime": 192,
        "channel": 1,
        "type": "noteOn",
        "noteNumber": 31,
        "velocity": 110
    },
    {
        "deltaTime": 0,
        "channel": 5,
        "type": "noteOn",
        "noteNumber": 74,
        "velocity": 109
    },
    {
        "deltaTime": 0,
        "running": true,
        "channel": 5,
        "type": "noteOn",
        "noteNumber": 79,
        "velocity": 94
    },
    {
        "deltaTime": 0,
        "running": true,
        "channel": 5,
        "type": "noteOn",
        "noteNumber": 82,
        "velocity": 101
    },
    {
        "deltaTime": 0,
        "channel": 8,
        "type": "noteOn",
        "noteNumber": 31,
        "velocity": 110
    },
    {
        "deltaTime": 0,
        "channel": 9,
        "type": "noteOn",
        "noteNumber": 35,
        "velocity": 114
    },
    {
        "deltaTime": 0,
        "channel": 11,
        "type": "noteOn",
        "noteNumber": 41,
        "velocity": 114
    },
    {
        "deltaTime": 0,
        "channel": 12,
        "type": "noteOn",
        "noteNumber": 67,
        "velocity": 119
    },
    {
        "deltaTime": 12,
        "channel": 9,
        "type": "noteOff",
        "noteNumber": 35,
        "velocity": 0,
        "byte9": true
    },
    {
        "deltaTime": 7,
        "channel": 14,
        "type": "noteOn",
        "noteNumber": 62,
        "velocity": 109
    },
    {
        "deltaTime": 0,
        "running": true,
        "channel": 14,
        "type": "noteOn",
        "noteNumber": 67,
        "velocity": 94
    },
    {
        "deltaTime": 0,
        "running": true,
        "channel": 14,
        "type": "noteOn",
        "noteNumber": 70,
        "velocity": 101
    },
    {
        "deltaTime": 136,
        "channel": 5,
        "type": "noteOff",
        "noteNumber": 82,
        "velocity": 0,
        "byte9": true
    },
    {
        "deltaTime": 6,
        "channel": 11,
        "type": "noteOff",
        "noteNumber": 41,
        "velocity": 0,
        "byte9": true
    },
    {
        "deltaTime": 10,
        "channel": 5,
        "type": "noteOff",
        "noteNumber": 74,
        "velocity": 0,
        "byte9": true
    },
    {
        "deltaTime": 0,
        "running": true,
        "channel": 5,
        "type": "noteOff",
        "noteNumber": 79,
        "velocity": 0,
        "byte9": true
    },
    {
        "deltaTime": 4,
        "channel": 14,
        "type": "noteOff",
        "noteNumber": 70,
        "velocity": 0,
        "byte9": true
    },
    {
        "deltaTime": 16,
        "running": true,
        "channel": 14,
        "type": "noteOff",
        "noteNumber": 62,
        "velocity": 0,
        "byte9": true
    },
    {
        "deltaTime": 0,
        "running": true,
        "channel": 14,
        "type": "noteOff",
        "noteNumber": 67,
        "velocity": 0,
        "byte9": true
    },
    {
        "deltaTime": 0,
        "channel": 3,
        "type": "noteOn",
        "noteNumber": 79,
        "velocity": 127
    },
    {
        "deltaTime": 28,
        "channel": 12,
        "type": "noteOff",
        "noteNumber": 62,
        "velocity": 0,
        "byte9": true
    },
    {
        "deltaTime": 12,
        "channel": 3,
        "type": "noteOff",
        "noteNumber": 76,
        "velocity": 0,
        "byte9": true
    },
    {
        "deltaTime": 148,
        "channel": 12,
        "type": "noteOff",
        "noteNumber": 67,
        "velocity": 0,
        "byte9": true
    },
    {
        "deltaTime": 4,
        "channel": 5,
        "type": "noteOn",
        "noteNumber": 74,
        "velocity": 108
    },
    {
        "deltaTime": 0,
        "running": true,
        "channel": 5,
        "type": "noteOn",
        "noteNumber": 79,
        "velocity": 97
    },
    {
        "deltaTime": 0,
        "running": true,
        "channel": 5,
        "type": "noteOn",
        "noteNumber": 82,
        "velocity": 98
    },
    {
        "deltaTime": 0,
        "channel": 9,
        "type": "noteOn",
        "noteNumber": 44,
        "velocity": 107
    },
    {
        "deltaTime": 0,
        "running": true,
        "channel": 9,
        "type": "noteOn",
        "noteNumber": 69,
        "velocity": 109
    },
    {
        "deltaTime": 0,
        "channel": 12,
        "type": "noteOn",
        "noteNumber": 62,
        "velocity": 119
    },
    {
        "deltaTime": 12,
        "channel": 9,
        "type": "noteOff",
        "noteNumber": 44,
        "velocity": 0,
        "byte9": true
    },
    {
        "deltaTime": 0,
        "running": true,
        "channel": 9,
        "type": "noteOff",
        "noteNumber": 69,
        "velocity": 0,
        "byte9": true
    },
    {
        "deltaTime": 1,
        "channel": 1,
        "type": "noteOff",
        "noteNumber": 31,
        "velocity": 0,
        "byte9": true
    },
    {
        "deltaTime": 0,
        "channel": 8,
        "type": "noteOff",
        "noteNumber": 31,
        "velocity": 0,
        "byte9": true
    },
    {
        "deltaTime": 6,
        "channel": 14,
        "type": "noteOn",
        "noteNumber": 62,
        "velocity": 108
    },
    {
        "deltaTime": 0,
        "running": true,
        "channel": 14,
        "type": "noteOn",
        "noteNumber": 67,
        "velocity": 97
    },
    {
        "deltaTime": 0,
        "running": true,
        "channel": 14,
        "type": "noteOn",
        "noteNumber": 70,
        "velocity": 98
    },
    {
        "deltaTime": 10,
        "channel": 12,
        "type": "noteOff",
        "noteNumber": 55,
        "velocity": 0,
        "byte9": true
    },
    {
        "deltaTime": 42,
        "running": true,
        "channel": 12,
        "type": "noteOff",
        "noteNumber": 58,
        "velocity": 0,
        "byte9": true
    },
    {
        "deltaTime": 75,
        "channel": 5,
        "type": "noteOff",
        "noteNumber": 82,
        "velocity": 0,
        "byte9": true
    },
    {
        "deltaTime": 12,
        "running": true,
        "channel": 5,
        "type": "noteOff",
        "noteNumber": 74,
        "velocity": 0,
        "byte9": true
    },
    {
        "deltaTime": 5,
        "running": true,
        "channel": 5,
        "type": "noteOff",
        "noteNumber": 79,
        "velocity": 0,
        "byte9": true
    },
    {
        "deltaTime": 3,
        "channel": 14,
        "type": "noteOff",
        "noteNumber": 70,
        "velocity": 0,
        "byte9": true
    },
    {
        "deltaTime": 12,
        "running": true,
        "channel": 14,
        "type": "noteOff",
        "noteNumber": 62,
        "velocity": 0,
        "byte9": true
    },
    {
        "deltaTime": 5,
        "running": true,
        "channel": 14,
        "type": "noteOff",
        "noteNumber": 67,
        "velocity": 0,
        "byte9": true
    },
    {
        "deltaTime": 43,
        "channel": 3,
        "type": "noteOff",
        "noteNumber": 79,
        "velocity": 0,
        "byte9": true
    },
    {
        "deltaTime": 0,
        "channel": 3,
        "type": "noteOn",
        "noteNumber": 77,
        "velocity": 115
    },
    {
        "deltaTime": 90,
        "channel": 1,
        "type": "noteOn",
        "noteNumber": 31,
        "velocity": 110
    },
    {
        "deltaTime": 0,
        "channel": 8,
        "type": "noteOn",
        "noteNumber": 31,
        "velocity": 110
    },
    {
        "deltaTime": 0,
        "channel": 9,
        "type": "noteOn",
        "noteNumber": 35,
        "velocity": 114
    },
    {
        "deltaTime": 0,
        "channel": 11,
        "type": "noteOn",
        "noteNumber": 41,
        "velocity": 114
    },
    {
        "deltaTime": 12,
        "channel": 9,
        "type": "noteOff",
        "noteNumber": 35,
        "velocity": 0,
        "byte9": true
    },
    {
        "deltaTime": 1,
        "channel": 3,
        "type": "noteOff",
        "noteNumber": 77,
        "velocity": 0,
        "byte9": true
    },
    {
        "deltaTime": 0,
        "channel": 3,
        "type": "noteOn",
        "noteNumber": 77,
        "velocity": 119
    },
    {
        "deltaTime": 45,
        "channel": 12,
        "type": "noteOff",
        "noteNumber": 62,
        "velocity": 0,
        "byte9": true
    },
    {
        "deltaTime": 4,
        "channel": 5,
        "type": "noteOn",
        "noteNumber": 74,
        "velocity": 105
    },
    {
        "deltaTime": 0,
        "running": true,
        "channel": 5,
        "type": "noteOn",
        "noteNumber": 79,
        "velocity": 89
    },
    {
        "deltaTime": 0,
        "running": true,
        "channel": 5,
        "type": "noteOn",
        "noteNumber": 82,
        "velocity": 94
    },
    {
        "deltaTime": 0,
        "channel": 12,
        "type": "noteOn",
        "noteNumber": 58,
        "velocity": 119
    },
    {
        "deltaTime": 1,
        "channel": 11,
        "type": "noteOff",
        "noteNumber": 41,
        "velocity": 0,
        "byte9": true
    },
    {
        "deltaTime": 18,
        "channel": 14,
        "type": "noteOn",
        "noteNumber": 62,
        "velocity": 105
    },
    {
        "deltaTime": 0,
        "running": true,
        "channel": 14,
        "type": "noteOn",
        "noteNumber": 67,
        "velocity": 89
    },
    {
        "deltaTime": 0,
        "running": true,
        "channel": 14,
        "type": "noteOn",
        "noteNumber": 70,
        "velocity": 94
    },
    {
        "deltaTime": 127,
        "channel": 5,
        "type": "noteOff",
        "noteNumber": 82,
        "velocity": 0,
        "byte9": true
    },
    {
        "deltaTime": 19,
        "channel": 14,
        "type": "noteOff",
        "noteNumber": 70,
        "velocity": 0,
        "byte9": true
    },
    {
        "deltaTime": 3,
        "channel": 5,
        "type": "noteOff",
        "noteNumber": 74,
        "velocity": 0,
        "byte9": true
    },
    {
        "deltaTime": 0,
        "running": true,
        "channel": 5,
        "type": "noteOff",
        "noteNumber": 79,
        "velocity": 0,
        "byte9": true
    },
    {
        "deltaTime": 20,
        "channel": 14,
        "type": "noteOff",
        "noteNumber": 62,
        "velocity": 0,
        "byte9": true
    },
    {
        "deltaTime": 0,
        "running": true,
        "channel": 14,
        "type": "noteOff",
        "noteNumber": 67,
        "velocity": 0,
        "byte9": true
    },
    {
        "deltaTime": 132,
        "channel": 1,
        "type": "noteOn",
        "noteNumber": 32,
        "velocity": 110
    },
    {
        "deltaTime": 0,
        "channel": 8,
        "type": "noteOn",
        "noteNumber": 32,
        "velocity": 110
    },
    {
        "deltaTime": 0,
        "channel": 9,
        "type": "noteOn",
        "noteNumber": 35,
        "velocity": 114
    },
    {
        "deltaTime": 0,
        "running": true,
        "channel": 9,
        "type": "noteOn",
        "noteNumber": 70,
        "velocity": 65
    },
    {
        "deltaTime": 0,
        "channel": 11,
        "type": "noteOn",
        "noteNumber": 41,
        "velocity": 114
    },
    {
        "deltaTime": 12,
        "channel": 9,
        "type": "noteOff",
        "noteNumber": 35,
        "velocity": 0,
        "byte9": true
    },
    {
        "deltaTime": 0,
        "running": true,
        "channel": 9,
        "type": "noteOff",
        "noteNumber": 70,
        "velocity": 0,
        "byte9": true
    },
    {
        "deltaTime": 1,
        "channel": 1,
        "type": "noteOff",
        "noteNumber": 31,
        "velocity": 0,
        "byte9": true
    },
    {
        "deltaTime": 0,
        "channel": 8,
        "type": "noteOff",
        "noteNumber": 31,
        "velocity": 0,
        "byte9": true
    },
    {
        "deltaTime": 147,
        "channel": 5,
        "type": "noteOn",
        "noteNumber": 74,
        "velocity": 109
    },
    {
        "deltaTime": 0,
        "running": true,
        "channel": 5,
        "type": "noteOn",
        "noteNumber": 79,
        "velocity": 97
    },
    {
        "deltaTime": 0,
        "running": true,
        "channel": 5,
        "type": "noteOn",
        "noteNumber": 82,
        "velocity": 110
    },
    {
        "deltaTime": 0,
        "channel": 9,
        "type": "noteOn",
        "noteNumber": 44,
        "velocity": 107
    },
    {
        "deltaTime": 0,
        "running": true,
        "channel": 9,
        "type": "noteOn",
        "noteNumber": 54,
        "velocity": 109
    },
    {
        "deltaTime": 1,
        "channel": 11,
        "type": "noteOff",
        "noteNumber": 41,
        "velocity": 0,
        "byte9": true
    },
    {
        "deltaTime": 11,
        "channel": 9,
        "type": "noteOff",
        "noteNumber": 44,
        "velocity": 0,
        "byte9": true
    },
    {
        "deltaTime": 0,
        "running": true,
        "channel": 9,
        "type": "noteOff",
        "noteNumber": 54,
        "velocity": 0,
        "byte9": true
    },
    {
        "deltaTime": 7,
        "channel": 14,
        "type": "noteOn",
        "noteNumber": 62,
        "velocity": 109
    },
    {
        "deltaTime": 0,
        "running": true,
        "channel": 14,
        "type": "noteOn",
        "noteNumber": 67,
        "velocity": 97
    },
    {
        "deltaTime": 0,
        "running": true,
        "channel": 14,
        "type": "noteOn",
        "noteNumber": 70,
        "velocity": 110
    },
    {
        "deltaTime": 71,
        "channel": 3,
        "type": "noteOff",
        "noteNumber": 77,
        "velocity": 0,
        "byte9": true
    },
    {
        "deltaTime": 59,
        "channel": 5,
        "type": "noteOff",
        "noteNumber": 82,
        "velocity": 0,
        "byte9": true
    },
    {
        "deltaTime": 9,
        "running": true,
        "channel": 5,
        "type": "noteOff",
        "noteNumber": 74,
        "velocity": 0,
        "byte9": true
    },
    {
        "deltaTime": 3,
        "running": true,
        "channel": 5,
        "type": "noteOff",
        "noteNumber": 79,
        "velocity": 0,
        "byte9": true
    },
    {
        "deltaTime": 7,
        "channel": 14,
        "type": "noteOff",
        "noteNumber": 70,
        "velocity": 0,
        "byte9": true
    },
    {
        "deltaTime": 9,
        "running": true,
        "channel": 14,
        "type": "noteOff",
        "noteNumber": 62,
        "velocity": 0,
        "byte9": true
    },
    {
        "deltaTime": 3,
        "running": true,
        "channel": 14,
        "type": "noteOff",
        "noteNumber": 67,
        "velocity": 0,
        "byte9": true
    },
    {
        "deltaTime": 136,
        "channel": 1,
        "type": "noteOff",
        "noteNumber": 32,
        "velocity": 0,
        "byte9": true
    },
    {
        "deltaTime": 0,
        "channel": 8,
        "type": "noteOff",
        "noteNumber": 32,
        "velocity": 0,
        "byte9": true
    },
    {
        "deltaTime": 0,
        "channel": 12,
        "type": "noteOff",
        "noteNumber": 58,
        "velocity": 0,
        "byte9": true
    },
    {
        "deltaTime": 4,
        "channel": 1,
        "type": "noteOn",
        "noteNumber": 33,
        "velocity": 110
    },
    {
        "deltaTime": 0,
        "channel": 8,
        "type": "noteOn",
        "noteNumber": 33,
        "velocity": 110
    },
    {
        "deltaTime": 0,
        "channel": 12,
        "type": "noteOn",
        "noteNumber": 55,
        "velocity": 119
    },
    {
        "deltaTime": 76,
        "running": true,
        "channel": 12,
        "type": "noteOff",
        "noteNumber": 55,
        "velocity": 0,
        "byte9": true
    },
    {
        "deltaTime": 4,
        "running": true,
        "channel": 12,
        "type": "noteOn",
        "noteNumber": 57,
        "velocity": 119
    },
    {
        "deltaTime": 76,
        "channel": 1,
        "type": "noteOff",
        "noteNumber": 33,
        "velocity": 0,
        "byte9": true
    },
    {
        "deltaTime": 0,
        "channel": 8,
        "type": "noteOff",
        "noteNumber": 33,
        "velocity": 0,
        "byte9": true
    },
    {
        "deltaTime": 0,
        "channel": 10,
        "type": "noteOff",
        "noteNumber": 79,
        "velocity": 0,
        "byte9": true
    },
    {
        "deltaTime": 0,
        "channel": 12,
        "type": "noteOff",
        "noteNumber": 57,
        "velocity": 0,
        "byte9": true
    },
    {
        "deltaTime": 4,
        "channel": 1,
        "type": "noteOn",
        "noteNumber": 34,
        "velocity": 110
    },
    {
        "deltaTime": 0,
        "channel": 5,
        "type": "noteOn",
        "noteNumber": 74,
        "velocity": 101
    },
    {
        "deltaTime": 0,
        "running": true,
        "channel": 5,
        "type": "noteOn",
        "noteNumber": 77,
        "velocity": 97
    },
    {
        "deltaTime": 0,
        "running": true,
        "channel": 5,
        "type": "noteOn",
        "noteNumber": 82,
        "velocity": 105
    },
    {
        "deltaTime": 0,
        "channel": 7,
        "type": "noteOn",
        "noteNumber": 82,
        "velocity": 104
    },
    {
        "deltaTime": 0,
        "channel": 8,
        "type": "noteOn",
        "noteNumber": 34,
        "velocity": 110
    },
    {
        "deltaTime": 0,
        "channel": 9,
        "type": "noteOn",
        "noteNumber": 35,
        "velocity": 114
    },
    {
        "deltaTime": 0,
        "channel": 10,
        "type": "noteOn",
        "noteNumber": 70,
        "velocity": 104
    },
    {
        "deltaTime": 0,
        "running": true,
        "channel": 10,
        "type": "noteOn",
        "noteNumber": 82,
        "velocity": 104
    },
    {
        "deltaTime": 0,
        "channel": 11,
        "type": "noteOn",
        "noteNumber": 41,
        "velocity": 114
    },
    {
        "deltaTime": 0,
        "channel": 12,
        "type": "noteOn",
        "noteNumber": 58,
        "velocity": 127
    },
    {
        "deltaTime": 12,
        "channel": 9,
        "type": "noteOff",
        "noteNumber": 35,
        "velocity": 0,
        "byte9": true
    },
    {
        "deltaTime": 7,
        "channel": 14,
        "type": "noteOn",
        "noteNumber": 62,
        "velocity": 101
    },
    {
        "deltaTime": 0,
        "running": true,
        "channel": 14,
        "type": "noteOn",
        "noteNumber": 65,
        "velocity": 97
    },
    {
        "deltaTime": 0,
        "running": true,
        "channel": 14,
        "type": "noteOn",
        "noteNumber": 70,
        "velocity": 105
    },
    {
        "deltaTime": 54,
        "channel": 5,
        "type": "noteOff",
        "noteNumber": 82,
        "velocity": 0,
        "byte9": true
    },
    {
        "deltaTime": 20,
        "channel": 14,
        "type": "noteOff",
        "noteNumber": 70,
        "velocity": 0,
        "byte9": true
    },
    {
        "deltaTime": 28,
        "channel": 5,
        "type": "noteOff",
        "noteNumber": 77,
        "velocity": 0,
        "byte9": true
    },
    {
        "deltaTime": 2,
        "running": true,
        "channel": 5,
        "type": "noteOff",
        "noteNumber": 74,
        "velocity": 0,
        "byte9": true
    },
    {
        "deltaTime": 17,
        "channel": 14,
        "type": "noteOff",
        "noteNumber": 65,
        "velocity": 0,
        "byte9": true
    },
    {
        "deltaTime": 2,
        "running": true,
        "channel": 14,
        "type": "noteOff",
        "noteNumber": 62,
        "velocity": 0,
        "byte9": true
    },
    {
        "deltaTime": 19,
        "channel": 11,
        "type": "noteOff",
        "noteNumber": 41,
        "velocity": 0,
        "byte9": true
    },
    {
        "deltaTime": 159,
        "channel": 12,
        "type": "noteOn",
        "noteNumber": 62,
        "velocity": 105
    },
    {
        "deltaTime": 160,
        "channel": 5,
        "type": "noteOn",
        "noteNumber": 74,
        "velocity": 111
    },
    {
        "deltaTime": 0,
        "running": true,
        "channel": 5,
        "type": "noteOn",
        "noteNumber": 77,
        "velocity": 107
    },
    {
        "deltaTime": 0,
        "running": true,
        "channel": 5,
        "type": "noteOn",
        "noteNumber": 82,
        "velocity": 105
    },
    {
        "deltaTime": 0,
        "channel": 9,
        "type": "noteOn",
        "noteNumber": 44,
        "velocity": 107
    },
    {
        "deltaTime": 0,
        "running": true,
        "channel": 9,
        "type": "noteOn",
        "noteNumber": 69,
        "velocity": 109
    },
    {
        "deltaTime": 0,
        "channel": 12,
        "type": "noteOn",
        "noteNumber": 65,
        "velocity": 89
    },
    {
        "deltaTime": 12,
        "channel": 9,
        "type": "noteOff",
        "noteNumber": 44,
        "velocity": 0,
        "byte9": true
    },
    {
        "deltaTime": 0,
        "running": true,
        "channel": 9,
        "type": "noteOff",
        "noteNumber": 69,
        "velocity": 0,
        "byte9": true
    },
    {
        "deltaTime": 1,
        "channel": 1,
        "type": "noteOff",
        "noteNumber": 34,
        "velocity": 0,
        "byte9": true
    },
    {
        "deltaTime": 0,
        "channel": 8,
        "type": "noteOff",
        "noteNumber": 34,
        "velocity": 0,
        "byte9": true
    },
    {
        "deltaTime": 6,
        "channel": 14,
        "type": "noteOn",
        "noteNumber": 62,
        "velocity": 111
    },
    {
        "deltaTime": 0,
        "running": true,
        "channel": 14,
        "type": "noteOn",
        "noteNumber": 65,
        "velocity": 107
    },
    {
        "deltaTime": 0,
        "running": true,
        "channel": 14,
        "type": "noteOn",
        "noteNumber": 70,
        "velocity": 105
    },
    {
        "deltaTime": 138,
        "channel": 5,
        "type": "noteOff",
        "noteNumber": 82,
        "velocity": 0,
        "byte9": true
    },
    {
        "deltaTime": 7,
        "running": true,
        "channel": 5,
        "type": "noteOff",
        "noteNumber": 77,
        "velocity": 0,
        "byte9": true
    },
    {
        "deltaTime": 4,
        "running": true,
        "channel": 5,
        "type": "noteOff",
        "noteNumber": 74,
        "velocity": 0,
        "byte9": true
    },
    {
        "deltaTime": 9,
        "channel": 14,
        "type": "noteOff",
        "noteNumber": 70,
        "velocity": 0,
        "byte9": true
    },
    {
        "deltaTime": 7,
        "running": true,
        "channel": 14,
        "type": "noteOff",
        "noteNumber": 65,
        "velocity": 0,
        "byte9": true
    },
    {
        "deltaTime": 4,
        "running": true,
        "channel": 14,
        "type": "noteOff",
        "noteNumber": 62,
        "velocity": 0,
        "byte9": true
    },
    {
        "deltaTime": 0,
        "channel": 3,
        "type": "noteOn",
        "noteNumber": 76,
        "velocity": 119
    },
    {
        "deltaTime": 45,
        "channel": 1,
        "type": "noteOn",
        "noteNumber": 34,
        "velocity": 110
    },
    {
        "deltaTime": 0,
        "channel": 8,
        "type": "noteOn",
        "noteNumber": 34,
        "velocity": 110
    },
    {
        "deltaTime": 0,
        "channel": 9,
        "type": "noteOn",
        "noteNumber": 35,
        "velocity": 107
    },
    {
        "deltaTime": 0,
        "channel": 11,
        "type": "noteOn",
        "noteNumber": 41,
        "velocity": 107
    },
    {
        "deltaTime": 0,
        "channel": 12,
        "type": "noteOn",
        "noteNumber": 70,
        "velocity": 115
    },
    {
        "deltaTime": 12,
        "channel": 9,
        "type": "noteOff",
        "noteNumber": 35,
        "velocity": 0,
        "byte9": true
    },
    {
        "deltaTime": 37,
        "channel": 1,
        "type": "noteOff",
        "noteNumber": 34,
        "velocity": 0,
        "byte9": true
    },
    {
        "deltaTime": 0,
        "channel": 8,
        "type": "noteOff",
        "noteNumber": 34,
        "velocity": 0,
        "byte9": true
    },
    {
        "deltaTime": 107,
        "channel": 10,
        "type": "noteOff",
        "noteNumber": 70,
        "velocity": 0,
        "byte9": true
    },
    {
        "deltaTime": 0,
        "running": true,
        "channel": 10,
        "type": "noteOff",
        "noteNumber": 82,
        "velocity": 0,
        "byte9": true
    },
    {
        "deltaTime": 4,
        "channel": 1,
        "type": "noteOn",
        "noteNumber": 34,
        "velocity": 110
    },
    {
        "deltaTime": 0,
        "channel": 5,
        "type": "noteOn",
        "noteNumber": 74,
        "velocity": 105
    },
    {
        "deltaTime": 0,
        "running": true,
        "channel": 5,
        "type": "noteOn",
        "noteNumber": 77,
        "velocity": 94
    },
    {
        "deltaTime": 0,
        "running": true,
        "channel": 5,
        "type": "noteOn",
        "noteNumber": 82,
        "velocity": 94
    },
    {
        "deltaTime": 0,
        "channel": 7,
        "type": "noteOn",
        "noteNumber": 81,
        "velocity": 104
    },
    {
        "deltaTime": 0,
        "channel": 8,
        "type": "noteOn",
        "noteNumber": 34,
        "velocity": 110
    },
    {
        "deltaTime": 0,
        "channel": 9,
        "type": "noteOn",
        "noteNumber": 35,
        "velocity": 114
    },
    {
        "deltaTime": 0,
        "channel": 10,
        "type": "noteOn",
        "noteNumber": 69,
        "velocity": 104
    },
    {
        "deltaTime": 0,
        "running": true,
        "channel": 10,
        "type": "noteOn",
        "noteNumber": 81,
        "velocity": 104
    },
    {
        "deltaTime": 0,
        "channel": 11,
        "type": "noteOn",
        "noteNumber": 41,
        "velocity": 114
    },
    {
        "deltaTime": 0,
        "channel": 12,
        "type": "noteOn",
        "noteNumber": 69,
        "velocity": 124
    },
    {
        "deltaTime": 1,
        "channel": 11,
        "type": "noteOff",
        "noteNumber": 41,
        "velocity": 0,
        "byte9": true
    },
    {
        "deltaTime": 11,
        "channel": 9,
        "type": "noteOff",
        "noteNumber": 35,
        "velocity": 0,
        "byte9": true
    },
    {
        "deltaTime": 3,
        "channel": 7,
        "type": "noteOff",
        "noteNumber": 82,
        "velocity": 0,
        "byte9": true
    },
    {
        "deltaTime": 4,
        "channel": 14,
        "type": "noteOn",
        "noteNumber": 62,
        "velocity": 105
    },
    {
        "deltaTime": 0,
        "running": true,
        "channel": 14,
        "type": "noteOn",
        "noteNumber": 65,
        "velocity": 94
    },
    {
        "deltaTime": 0,
        "running": true,
        "channel": 14,
        "type": "noteOn",
        "noteNumber": 70,
        "velocity": 94
    },
    {
        "deltaTime": 41,
        "channel": 12,
        "type": "noteOff",
        "noteNumber": 70,
        "velocity": 0,
        "byte9": true
    },
    {
        "deltaTime": 95,
        "channel": 5,
        "type": "noteOff",
        "noteNumber": 82,
        "velocity": 0,
        "byte9": true
    },
    {
        "deltaTime": 6,
        "channel": 11,
        "type": "noteOff",
        "noteNumber": 41,
        "velocity": 0,
        "byte9": true
    },
    {
        "deltaTime": 2,
        "channel": 5,
        "type": "noteOff",
        "noteNumber": 74,
        "velocity": 0,
        "byte9": true
    },
    {
        "deltaTime": 4,
        "running": true,
        "channel": 5,
        "type": "noteOff",
        "noteNumber": 77,
        "velocity": 0,
        "byte9": true
    },
    {
        "deltaTime": 8,
        "channel": 14,
        "type": "noteOff",
        "noteNumber": 70,
        "velocity": 0,
        "byte9": true
    },
    {
        "deltaTime": 8,
        "running": true,
        "channel": 14,
        "type": "noteOff",
        "noteNumber": 62,
        "velocity": 0,
        "byte9": true
    },
    {
        "deltaTime": 4,
        "running": true,
        "channel": 14,
        "type": "noteOff",
        "noteNumber": 65,
        "velocity": 0,
        "byte9": true
    },
    {
        "deltaTime": 133,
        "channel": 9,
        "type": "noteOn",
        "noteNumber": 70,
        "velocity": 65
    },
    {
        "deltaTime": 12,
        "running": true,
        "channel": 9,
        "type": "noteOff",
        "noteNumber": 70,
        "velocity": 0,
        "byte9": true
    },
    {
        "deltaTime": 3,
        "channel": 3,
        "type": "noteOff",
        "noteNumber": 76,
        "velocity": 0,
        "byte9": true
    },
    {
        "deltaTime": 0,
        "channel": 3,
        "type": "noteOn",
        "noteNumber": 77,
        "velocity": 114
    },
    {
        "deltaTime": 128,
        "channel": 5,
        "type": "noteOn",
        "noteNumber": 74,
        "velocity": 109
    },
    {
        "deltaTime": 0,
        "running": true,
        "channel": 5,
        "type": "noteOn",
        "noteNumber": 77,
        "velocity": 94
    },
    {
        "deltaTime": 0,
        "running": true,
        "channel": 5,
        "type": "noteOn",
        "noteNumber": 82,
        "velocity": 94
    },
    {
        "deltaTime": 0,
        "channel": 9,
        "type": "noteOn",
        "noteNumber": 44,
        "velocity": 107
    },
    {
        "deltaTime": 0,
        "running": true,
        "channel": 9,
        "type": "noteOn",
        "noteNumber": 54,
        "velocity": 109
    },
    {
        "deltaTime": 12,
        "running": true,
        "channel": 9,
        "type": "noteOff",
        "noteNumber": 44,
        "velocity": 0,
        "byte9": true
    },
    {
        "deltaTime": 0,
        "running": true,
        "channel": 9,
        "type": "noteOff",
        "noteNumber": 54,
        "velocity": 0,
        "byte9": true
    },
    {
        "deltaTime": 1,
        "channel": 1,
        "type": "noteOff",
        "noteNumber": 34,
        "velocity": 0,
        "byte9": true
    },
    {
        "deltaTime": 0,
        "channel": 8,
        "type": "noteOff",
        "noteNumber": 34,
        "velocity": 0,
        "byte9": true
    },
    {
        "deltaTime": 6,
        "channel": 14,
        "type": "noteOn",
        "noteNumber": 62,
        "velocity": 109
    },
    {
        "deltaTime": 0,
        "running": true,
        "channel": 14,
        "type": "noteOn",
        "noteNumber": 65,
        "velocity": 94
    },
    {
        "deltaTime": 0,
        "running": true,
        "channel": 14,
        "type": "noteOn",
        "noteNumber": 70,
        "velocity": 94
    },
    {
        "deltaTime": 122,
        "channel": 5,
        "type": "noteOff",
        "noteNumber": 82,
        "velocity": 0,
        "byte9": true
    },
    {
        "deltaTime": 9,
        "channel": 12,
        "type": "noteOff",
        "noteNumber": 58,
        "velocity": 0,
        "byte9": true
    },
    {
        "deltaTime": 4,
        "channel": 5,
        "type": "noteOff",
        "noteNumber": 74,
        "velocity": 0,
        "byte9": true
    },
    {
        "deltaTime": 0,
        "running": true,
        "channel": 5,
        "type": "noteOff",
        "noteNumber": 77,
        "velocity": 0,
        "byte9": true
    },
    {
        "deltaTime": 7,
        "channel": 14,
        "type": "noteOff",
        "noteNumber": 70,
        "velocity": 0,
        "byte9": true
    },
    {
        "deltaTime": 13,
        "running": true,
        "channel": 14,
        "type": "noteOff",
        "noteNumber": 62,
        "velocity": 0,
        "byte9": true
    },
    {
        "deltaTime": 0,
        "running": true,
        "channel": 14,
        "type": "noteOff",
        "noteNumber": 65,
        "velocity": 0,
        "byte9": true
    },
    {
        "deltaTime": 4,
        "channel": 12,
        "type": "noteOff",
        "noteNumber": 65,
        "velocity": 0,
        "byte9": true
    },
    {
        "deltaTime": 4,
        "running": true,
        "channel": 12,
        "type": "noteOff",
        "noteNumber": 62,
        "velocity": 0,
        "byte9": true
    },
    {
        "deltaTime": 9,
        "running": true,
        "channel": 12,
        "type": "noteOff",
        "noteNumber": 69,
        "velocity": 0,
        "byte9": true
    },
    {
        "deltaTime": 230,
        "channel": 3,
        "type": "noteOff",
        "noteNumber": 77,
        "velocity": 0,
        "byte9": true
    },
    {
        "deltaTime": 3,
        "running": true,
        "channel": 3,
        "type": "noteOn",
        "noteNumber": 76,
        "velocity": 119
    },
    {
        "deltaTime": 52,
        "channel": 10,
        "type": "noteOff",
        "noteNumber": 69,
        "velocity": 0,
        "byte9": true
    },
    {
        "deltaTime": 0,
        "running": true,
        "channel": 10,
        "type": "noteOff",
        "noteNumber": 81,
        "velocity": 0,
        "byte9": true
    },
    {
        "deltaTime": 4,
        "channel": 1,
        "type": "noteOn",
        "noteNumber": 34,
        "velocity": 110
    },
    {
        "deltaTime": 0,
        "channel": 5,
        "type": "noteOn",
        "noteNumber": 74,
        "velocity": 109
    },
    {
        "deltaTime": 0,
        "running": true,
        "channel": 5,
        "type": "noteOn",
        "noteNumber": 77,
        "velocity": 94
    },
    {
        "deltaTime": 0,
        "running": true,
        "channel": 5,
        "type": "noteOn",
        "noteNumber": 82,
        "velocity": 101
    },
    {
        "deltaTime": 0,
        "channel": 7,
        "type": "noteOn",
        "noteNumber": 79,
        "velocity": 104
    },
    {
        "deltaTime": 0,
        "channel": 8,
        "type": "noteOn",
        "noteNumber": 34,
        "velocity": 110
    },
    {
        "deltaTime": 0,
        "channel": 9,
        "type": "noteOn",
        "noteNumber": 35,
        "velocity": 114
    },
    {
        "deltaTime": 0,
        "channel": 10,
        "type": "noteOn",
        "noteNumber": 67,
        "velocity": 104
    },
    {
        "deltaTime": 0,
        "running": true,
        "channel": 10,
        "type": "noteOn",
        "noteNumber": 79,
        "velocity": 104
    },
    {
        "deltaTime": 0,
        "channel": 11,
        "type": "noteOn",
        "noteNumber": 41,
        "velocity": 114
    },
    {
        "deltaTime": 12,
        "channel": 9,
        "type": "noteOff",
        "noteNumber": 35,
        "velocity": 0,
        "byte9": true
    },
    {
        "deltaTime": 3,
        "channel": 7,
        "type": "noteOff",
        "noteNumber": 81,
        "velocity": 0,
        "byte9": true
    },
    {
        "deltaTime": 3,
        "channel": 12,
        "type": "noteOn",
        "noteNumber": 58,
        "velocity": 127
    },
    {
        "deltaTime": 1,
        "channel": 14,
        "type": "noteOn",
        "noteNumber": 62,
        "velocity": 109
    },
    {
        "deltaTime": 0,
        "running": true,
        "channel": 14,
        "type": "noteOn",
        "noteNumber": 65,
        "velocity": 94
    },
    {
        "deltaTime": 0,
        "running": true,
        "channel": 14,
        "type": "noteOn",
        "noteNumber": 70,
        "velocity": 101
    },
    {
        "deltaTime": 136,
        "channel": 5,
        "type": "noteOff",
        "noteNumber": 82,
        "velocity": 0,
        "byte9": true
    },
    {
        "deltaTime": 6,
        "channel": 11,
        "type": "noteOff",
        "noteNumber": 41,
        "velocity": 0,
        "byte9": true
    },
    {
        "deltaTime": 10,
        "channel": 5,
        "type": "noteOff",
        "noteNumber": 74,
        "velocity": 0,
        "byte9": true
    },
    {
        "deltaTime": 0,
        "running": true,
        "channel": 5,
        "type": "noteOff",
        "noteNumber": 77,
        "velocity": 0,
        "byte9": true
    },
    {
        "deltaTime": 4,
        "channel": 14,
        "type": "noteOff",
        "noteNumber": 70,
        "velocity": 0,
        "byte9": true
    },
    {
        "deltaTime": 16,
        "running": true,
        "channel": 14,
        "type": "noteOff",
        "noteNumber": 62,
        "velocity": 0,
        "byte9": true
    },
    {
        "deltaTime": 0,
        "running": true,
        "channel": 14,
        "type": "noteOff",
        "noteNumber": 65,
        "velocity": 0,
        "byte9": true
    },
    {
        "deltaTime": 97,
        "channel": 12,
        "type": "noteOn",
        "noteNumber": 62,
        "velocity": 114
    },
    {
        "deltaTime": 0,
        "channel": 3,
        "type": "noteOn",
        "noteNumber": 79,
        "velocity": 119
    },
    {
        "deltaTime": 29,
        "running": true,
        "channel": 3,
        "type": "noteOff",
        "noteNumber": 76,
        "velocity": 0,
        "byte9": true
    },
    {
        "deltaTime": 27,
        "channel": 5,
        "type": "noteOn",
        "noteNumber": 74,
        "velocity": 108
    },
    {
        "deltaTime": 0,
        "running": true,
        "channel": 5,
        "type": "noteOn",
        "noteNumber": 77,
        "velocity": 97
    },
    {
        "deltaTime": 0,
        "running": true,
        "channel": 5,
        "type": "noteOn",
        "noteNumber": 82,
        "velocity": 98
    },
    {
        "deltaTime": 0,
        "channel": 9,
        "type": "noteOn",
        "noteNumber": 44,
        "velocity": 107
    },
    {
        "deltaTime": 0,
        "running": true,
        "channel": 9,
        "type": "noteOn",
        "noteNumber": 69,
        "velocity": 109
    },
    {
        "deltaTime": 12,
        "running": true,
        "channel": 9,
        "type": "noteOff",
        "noteNumber": 44,
        "velocity": 0,
        "byte9": true
    },
    {
        "deltaTime": 0,
        "running": true,
        "channel": 9,
        "type": "noteOff",
        "noteNumber": 69,
        "velocity": 0,
        "byte9": true
    },
    {
        "deltaTime": 1,
        "channel": 1,
        "type": "noteOff",
        "noteNumber": 34,
        "velocity": 0,
        "byte9": true
    },
    {
        "deltaTime": 0,
        "channel": 8,
        "type": "noteOff",
        "noteNumber": 34,
        "velocity": 0,
        "byte9": true
    },
    {
        "deltaTime": 6,
        "channel": 14,
        "type": "noteOn",
        "noteNumber": 62,
        "velocity": 108
    },
    {
        "deltaTime": 0,
        "running": true,
        "channel": 14,
        "type": "noteOn",
        "noteNumber": 65,
        "velocity": 97
    },
    {
        "deltaTime": 0,
        "running": true,
        "channel": 14,
        "type": "noteOn",
        "noteNumber": 70,
        "velocity": 98
    },
    {
        "deltaTime": 127,
        "channel": 5,
        "type": "noteOff",
        "noteNumber": 82,
        "velocity": 0,
        "byte9": true
    },
    {
        "deltaTime": 12,
        "running": true,
        "channel": 5,
        "type": "noteOff",
        "noteNumber": 74,
        "velocity": 0,
        "byte9": true
    },
    {
        "deltaTime": 5,
        "running": true,
        "channel": 5,
        "type": "noteOff",
        "noteNumber": 77,
        "velocity": 0,
        "byte9": true
    },
    {
        "deltaTime": 3,
        "channel": 14,
        "type": "noteOff",
        "noteNumber": 70,
        "velocity": 0,
        "byte9": true
    },
    {
        "deltaTime": 12,
        "running": true,
        "channel": 14,
        "type": "noteOff",
        "noteNumber": 62,
        "velocity": 0,
        "byte9": true
    },
    {
        "deltaTime": 5,
        "running": true,
        "channel": 14,
        "type": "noteOff",
        "noteNumber": 65,
        "velocity": 0,
        "byte9": true
    },
    {
        "deltaTime": 117,
        "channel": 3,
        "type": "noteOff",
        "noteNumber": 79,
        "velocity": 0,
        "byte9": true
    },
    {
        "deltaTime": 0,
        "channel": 3,
        "type": "noteOn",
        "noteNumber": 77,
        "velocity": 127
    },
    {
        "deltaTime": 16,
        "channel": 1,
        "type": "noteOn",
        "noteNumber": 34,
        "velocity": 110
    },
    {
        "deltaTime": 0,
        "channel": 8,
        "type": "noteOn",
        "noteNumber": 34,
        "velocity": 110
    },
    {
        "deltaTime": 0,
        "channel": 9,
        "type": "noteOn",
        "noteNumber": 35,
        "velocity": 114
    },
    {
        "deltaTime": 0,
        "channel": 11,
        "type": "noteOn",
        "noteNumber": 41,
        "velocity": 114
    },
    {
        "deltaTime": 0,
        "channel": 12,
        "type": "noteOn",
        "noteNumber": 67,
        "velocity": 115
    },
    {
        "deltaTime": 12,
        "channel": 9,
        "type": "noteOff",
        "noteNumber": 35,
        "velocity": 0,
        "byte9": true
    },
    {
        "deltaTime": 139,
        "channel": 12,
        "type": "noteOff",
        "noteNumber": 67,
        "velocity": 0,
        "byte9": true
    },
    {
        "deltaTime": 4,
        "running": true,
        "channel": 12,
        "type": "noteOn",
        "noteNumber": 65,
        "velocity": 105
    },
    {
        "deltaTime": 1,
        "channel": 10,
        "type": "noteOff",
        "noteNumber": 67,
        "velocity": 0,
        "byte9": true
    },
    {
        "deltaTime": 0,
        "running": true,
        "channel": 10,
        "type": "noteOff",
        "noteNumber": 79,
        "velocity": 0,
        "byte9": true
    },
    {
        "deltaTime": 4,
        "channel": 5,
        "type": "noteOn",
        "noteNumber": 74,
        "velocity": 105
    },
    {
        "deltaTime": 0,
        "running": true,
        "channel": 5,
        "type": "noteOn",
        "noteNumber": 77,
        "velocity": 89
    },
    {
        "deltaTime": 0,
        "running": true,
        "channel": 5,
        "type": "noteOn",
        "noteNumber": 82,
        "velocity": 94
    },
    {
        "deltaTime": 0,
        "channel": 7,
        "type": "noteOn",
        "noteNumber": 77,
        "velocity": 104
    },
    {
        "deltaTime": 0,
        "channel": 10,
        "type": "noteOn",
        "noteNumber": 65,
        "velocity": 104
    },
    {
        "deltaTime": 0,
        "running": true,
        "channel": 10,
        "type": "noteOn",
        "noteNumber": 77,
        "velocity": 104
    },
    {
        "deltaTime": 1,
        "channel": 11,
        "type": "noteOff",
        "noteNumber": 41,
        "velocity": 0,
        "byte9": true
    },
    {
        "deltaTime": 14,
        "channel": 7,
        "type": "noteOff",
        "noteNumber": 79,
        "velocity": 0,
        "byte9": true
    },
    {
        "deltaTime": 4,
        "channel": 14,
        "type": "noteOn",
        "noteNumber": 62,
        "velocity": 105
    },
    {
        "deltaTime": 0,
        "running": true,
        "channel": 14,
        "type": "noteOn",
        "noteNumber": 65,
        "velocity": 89
    },
    {
        "deltaTime": 0,
        "running": true,
        "channel": 14,
        "type": "noteOn",
        "noteNumber": 70,
        "velocity": 94
    },
    {
        "deltaTime": 127,
        "channel": 5,
        "type": "noteOff",
        "noteNumber": 82,
        "velocity": 0,
        "byte9": true
    },
    {
        "deltaTime": 6,
        "channel": 3,
        "type": "noteOff",
        "noteNumber": 77,
        "velocity": 0,
        "byte9": true
    },
    {
        "deltaTime": 13,
        "channel": 14,
        "type": "noteOff",
        "noteNumber": 70,
        "velocity": 0,
        "byte9": true
    },
    {
        "deltaTime": 3,
        "channel": 5,
        "type": "noteOff",
        "noteNumber": 74,
        "velocity": 0,
        "byte9": true
    },
    {
        "deltaTime": 0,
        "running": true,
        "channel": 5,
        "type": "noteOff",
        "noteNumber": 77,
        "velocity": 0,
        "byte9": true
    },
    {
        "deltaTime": 20,
        "channel": 14,
        "type": "noteOff",
        "noteNumber": 62,
        "velocity": 0,
        "byte9": true
    },
    {
        "deltaTime": 0,
        "running": true,
        "channel": 14,
        "type": "noteOff",
        "noteNumber": 65,
        "velocity": 0,
        "byte9": true
    },
    {
        "deltaTime": 0,
        "channel": 3,
        "type": "noteOn",
        "noteNumber": 77,
        "velocity": 114
    },
    {
        "deltaTime": 25,
        "channel": 1,
        "type": "noteOff",
        "noteNumber": 34,
        "velocity": 0,
        "byte9": true
    },
    {
        "deltaTime": 0,
        "channel": 8,
        "type": "noteOff",
        "noteNumber": 34,
        "velocity": 0,
        "byte9": true
    },
    {
        "deltaTime": 53,
        "channel": 1,
        "type": "noteOn",
        "noteNumber": 34,
        "velocity": 110
    },
    {
        "deltaTime": 0,
        "channel": 8,
        "type": "noteOn",
        "noteNumber": 34,
        "velocity": 110
    },
    {
        "deltaTime": 0,
        "channel": 9,
        "type": "noteOn",
        "noteNumber": 35,
        "velocity": 114
    },
    {
        "deltaTime": 0,
        "running": true,
        "channel": 9,
        "type": "noteOn",
        "noteNumber": 70,
        "velocity": 65
    },
    {
        "deltaTime": 0,
        "channel": 11,
        "type": "noteOn",
        "noteNumber": 41,
        "velocity": 114
    },
    {
        "deltaTime": 12,
        "channel": 9,
        "type": "noteOff",
        "noteNumber": 35,
        "velocity": 0,
        "byte9": true
    },
    {
        "deltaTime": 0,
        "running": true,
        "channel": 9,
        "type": "noteOff",
        "noteNumber": 70,
        "velocity": 0,
        "byte9": true
    },
    {
        "deltaTime": 148,
        "channel": 5,
        "type": "noteOn",
        "noteNumber": 74,
        "velocity": 109
    },
    {
        "deltaTime": 0,
        "running": true,
        "channel": 5,
        "type": "noteOn",
        "noteNumber": 77,
        "velocity": 97
    },
    {
        "deltaTime": 0,
        "running": true,
        "channel": 5,
        "type": "noteOn",
        "noteNumber": 82,
        "velocity": 110
    },
    {
        "deltaTime": 0,
        "channel": 9,
        "type": "noteOn",
        "noteNumber": 44,
        "velocity": 107
    },
    {
        "deltaTime": 0,
        "running": true,
        "channel": 9,
        "type": "noteOn",
        "noteNumber": 54,
        "velocity": 109
    },
    {
        "deltaTime": 1,
        "channel": 11,
        "type": "noteOff",
        "noteNumber": 41,
        "velocity": 0,
        "byte9": true
    },
    {
        "deltaTime": 11,
        "channel": 9,
        "type": "noteOff",
        "noteNumber": 44,
        "velocity": 0,
        "byte9": true
    },
    {
        "deltaTime": 0,
        "running": true,
        "channel": 9,
        "type": "noteOff",
        "noteNumber": 54,
        "velocity": 0,
        "byte9": true
    },
    {
        "deltaTime": 7,
        "channel": 14,
        "type": "noteOn",
        "noteNumber": 62,
        "velocity": 109
    },
    {
        "deltaTime": 0,
        "running": true,
        "channel": 14,
        "type": "noteOn",
        "noteNumber": 65,
        "velocity": 97
    },
    {
        "deltaTime": 0,
        "running": true,
        "channel": 14,
        "type": "noteOn",
        "noteNumber": 70,
        "velocity": 110
    },
    {
        "deltaTime": 130,
        "channel": 5,
        "type": "noteOff",
        "noteNumber": 82,
        "velocity": 0,
        "byte9": true
    },
    {
        "deltaTime": 9,
        "running": true,
        "channel": 5,
        "type": "noteOff",
        "noteNumber": 74,
        "velocity": 0,
        "byte9": true
    },
    {
        "deltaTime": 3,
        "running": true,
        "channel": 5,
        "type": "noteOff",
        "noteNumber": 77,
        "velocity": 0,
        "byte9": true
    },
    {
        "deltaTime": 7,
        "channel": 14,
        "type": "noteOff",
        "noteNumber": 70,
        "velocity": 0,
        "byte9": true
    },
    {
        "deltaTime": 9,
        "running": true,
        "channel": 14,
        "type": "noteOff",
        "noteNumber": 62,
        "velocity": 0,
        "byte9": true
    },
    {
        "deltaTime": 3,
        "running": true,
        "channel": 14,
        "type": "noteOff",
        "noteNumber": 65,
        "velocity": 0,
        "byte9": true
    },
    {
        "deltaTime": 87,
        "channel": 1,
        "type": "noteOff",
        "noteNumber": 34,
        "velocity": 0,
        "byte9": true
    },
    {
        "deltaTime": 0,
        "channel": 8,
        "type": "noteOff",
        "noteNumber": 34,
        "velocity": 0,
        "byte9": true
    },
    {
        "deltaTime": 31,
        "channel": 12,
        "type": "noteOff",
        "noteNumber": 58,
        "velocity": 0,
        "byte9": true
    },
    {
        "deltaTime": 5,
        "running": true,
        "channel": 12,
        "type": "noteOff",
        "noteNumber": 65,
        "velocity": 0,
        "byte9": true
    },
    {
        "deltaTime": 8,
        "running": true,
        "channel": 12,
        "type": "noteOff",
        "noteNumber": 62,
        "velocity": 0,
        "byte9": true
    },
    {
        "deltaTime": 5,
        "channel": 3,
        "type": "noteOff",
        "noteNumber": 77,
        "velocity": 0,
        "byte9": true
    },
    {
        "deltaTime": 0,
        "channel": 1,
        "type": "noteOn",
        "noteNumber": 34,
        "velocity": 110
    },
    {
        "deltaTime": 0,
        "channel": 3,
        "type": "noteOn",
        "noteNumber": 76,
        "velocity": 119
    },
    {
        "deltaTime": 0,
        "channel": 8,
        "type": "noteOn",
        "noteNumber": 34,
        "velocity": 110
    },
    {
        "deltaTime": 49,
        "channel": 1,
        "type": "noteOff",
        "noteNumber": 34,
        "velocity": 0,
        "byte9": true
    },
    {
        "deltaTime": 0,
        "channel": 8,
        "type": "noteOff",
        "noteNumber": 34,
        "velocity": 0,
        "byte9": true
    },
    {
        "deltaTime": 27,
        "channel": 12,
        "type": "noteOn",
        "noteNumber": 57,
        "velocity": 105
    },
    {
        "deltaTime": 61,
        "running": true,
        "channel": 12,
        "type": "noteOn",
        "noteNumber": 61,
        "velocity": 127
    },
    {
        "deltaTime": 19,
        "channel": 3,
        "type": "noteOff",
        "noteNumber": 76,
        "velocity": 0,
        "byte9": true
    },
    {
        "deltaTime": 0,
        "channel": 1,
        "type": "noteOn",
        "noteNumber": 33,
        "velocity": 110
    },
    {
        "deltaTime": 0,
        "channel": 3,
        "type": "noteOn",
        "noteNumber": 76,
        "velocity": 114
    },
    {
        "deltaTime": 0,
        "channel": 5,
        "type": "noteOn",
        "noteNumber": 73,
        "velocity": 101
    },
    {
        "deltaTime": 0,
        "running": true,
        "channel": 5,
        "type": "noteOn",
        "noteNumber": 76,
        "velocity": 97
    },
    {
        "deltaTime": 0,
        "running": true,
        "channel": 5,
        "type": "noteOn",
        "noteNumber": 81,
        "velocity": 105
    },
    {
        "deltaTime": 0,
        "channel": 8,
        "type": "noteOn",
        "noteNumber": 33,
        "velocity": 110
    },
    {
        "deltaTime": 0,
        "channel": 9,
        "type": "noteOn",
        "noteNumber": 35,
        "velocity": 114
    },
    {
        "deltaTime": 0,
        "channel": 10,
        "type": "noteOn",
        "noteNumber": 64,
        "velocity": 104
    },
    {
        "deltaTime": 0,
        "running": true,
        "channel": 10,
        "type": "noteOn",
        "noteNumber": 76,
        "velocity": 104
    },
    {
        "deltaTime": 0,
        "channel": 11,
        "type": "noteOn",
        "noteNumber": 41,
        "velocity": 114
    },
    {
        "deltaTime": 12,
        "channel": 9,
        "type": "noteOff",
        "noteNumber": 35,
        "velocity": 0,
        "byte9": true
    },
    {
        "deltaTime": 3,
        "channel": 7,
        "type": "noteOff",
        "noteNumber": 77,
        "velocity": 0,
        "byte9": true
    },
    {
        "deltaTime": 0,
        "channel": 10,
        "type": "noteOff",
        "noteNumber": 65,
        "velocity": 0,
        "byte9": true
    },
    {
        "deltaTime": 0,
        "running": true,
        "channel": 10,
        "type": "noteOff",
        "noteNumber": 77,
        "velocity": 0,
        "byte9": true
    },
    {
        "deltaTime": 4,
        "channel": 14,
        "type": "noteOn",
        "noteNumber": 61,
        "velocity": 101
    },
    {
        "deltaTime": 0,
        "running": true,
        "channel": 14,
        "type": "noteOn",
        "noteNumber": 64,
        "velocity": 97
    },
    {
        "deltaTime": 0,
        "running": true,
        "channel": 14,
        "type": "noteOn",
        "noteNumber": 69,
        "velocity": 105
    },
    {
        "deltaTime": 15,
        "channel": 12,
        "type": "noteOn",
        "noteNumber": 64,
        "velocity": 119
    },
    {
        "deltaTime": 39,
        "channel": 5,
        "type": "noteOff",
        "noteNumber": 81,
        "velocity": 0,
        "byte9": true
    },
    {
        "deltaTime": 20,
        "channel": 14,
        "type": "noteOff",
        "noteNumber": 69,
        "velocity": 0,
        "byte9": true
    },
    {
        "deltaTime": 28,
        "channel": 5,
        "type": "noteOff",
        "noteNumber": 76,
        "velocity": 0,
        "byte9": true
    },
    {
        "deltaTime": 2,
        "running": true,
        "channel": 5,
        "type": "noteOff",
        "noteNumber": 73,
        "velocity": 0,
        "byte9": true
    },
    {
        "deltaTime": 17,
        "channel": 14,
        "type": "noteOff",
        "noteNumber": 64,
        "velocity": 0,
        "byte9": true
    },
    {
        "deltaTime": 2,
        "running": true,
        "channel": 14,
        "type": "noteOff",
        "noteNumber": 61,
        "velocity": 0,
        "byte9": true
    },
    {
        "deltaTime": 19,
        "channel": 11,
        "type": "noteOff",
        "noteNumber": 41,
        "velocity": 0,
        "byte9": true
    },
    {
        "deltaTime": 319,
        "channel": 5,
        "type": "noteOn",
        "noteNumber": 73,
        "velocity": 111
    },
    {
        "deltaTime": 0,
        "running": true,
        "channel": 5,
        "type": "noteOn",
        "noteNumber": 76,
        "velocity": 107
    },
    {
        "deltaTime": 0,
        "running": true,
        "channel": 5,
        "type": "noteOn",
        "noteNumber": 81,
        "velocity": 105
    },
    {
        "deltaTime": 0,
        "channel": 9,
        "type": "noteOn",
        "noteNumber": 44,
        "velocity": 107
    },
    {
        "deltaTime": 0,
        "running": true,
        "channel": 9,
        "type": "noteOn",
        "noteNumber": 69,
        "velocity": 109
    },
    {
        "deltaTime": 12,
        "running": true,
        "channel": 9,
        "type": "noteOff",
        "noteNumber": 44,
        "velocity": 0,
        "byte9": true
    },
    {
        "deltaTime": 0,
        "running": true,
        "channel": 9,
        "type": "noteOff",
        "noteNumber": 69,
        "velocity": 0,
        "byte9": true
    },
    {
        "deltaTime": 1,
        "channel": 1,
        "type": "noteOff",
        "noteNumber": 33,
        "velocity": 0,
        "byte9": true
    },
    {
        "deltaTime": 0,
        "channel": 8,
        "type": "noteOff",
        "noteNumber": 33,
        "velocity": 0,
        "byte9": true
    },
    {
        "deltaTime": 6,
        "channel": 14,
        "type": "noteOn",
        "noteNumber": 61,
        "velocity": 111
    },
    {
        "deltaTime": 0,
        "running": true,
        "channel": 14,
        "type": "noteOn",
        "noteNumber": 64,
        "velocity": 107
    },
    {
        "deltaTime": 0,
        "running": true,
        "channel": 14,
        "type": "noteOn",
        "noteNumber": 69,
        "velocity": 105
    },
    {
        "deltaTime": 138,
        "channel": 5,
        "type": "noteOff",
        "noteNumber": 81,
        "velocity": 0,
        "byte9": true
    },
    {
        "deltaTime": 7,
        "running": true,
        "channel": 5,
        "type": "noteOff",
        "noteNumber": 76,
        "velocity": 0,
        "byte9": true
    },
    {
        "deltaTime": 4,
        "running": true,
        "channel": 5,
        "type": "noteOff",
        "noteNumber": 73,
        "velocity": 0,
        "byte9": true
    },
    {
        "deltaTime": 9,
        "channel": 14,
        "type": "noteOff",
        "noteNumber": 69,
        "velocity": 0,
        "byte9": true
    },
    {
        "deltaTime": 7,
        "running": true,
        "channel": 14,
        "type": "noteOff",
        "noteNumber": 64,
        "velocity": 0,
        "byte9": true
    },
    {
        "deltaTime": 4,
        "running": true,
        "channel": 14,
        "type": "noteOff",
        "noteNumber": 61,
        "velocity": 0,
        "byte9": true
    },
    {
        "deltaTime": 81,
        "channel": 12,
        "type": "noteOff",
        "noteNumber": 61,
        "velocity": 0,
        "byte9": true
    },
    {
        "deltaTime": 51,
        "channel": 1,
        "type": "noteOn",
        "noteNumber": 33,
        "velocity": 110
    },
    {
        "deltaTime": 0,
        "channel": 8,
        "type": "noteOn",
        "noteNumber": 33,
        "velocity": 110
    },
    {
        "deltaTime": 0,
        "channel": 9,
        "type": "noteOn",
        "noteNumber": 35,
        "velocity": 107
    },
    {
        "deltaTime": 0,
        "channel": 11,
        "type": "noteOn",
        "noteNumber": 41,
        "velocity": 107
    },
    {
        "deltaTime": 12,
        "channel": 9,
        "type": "noteOff",
        "noteNumber": 35,
        "velocity": 0,
        "byte9": true
    },
    {
        "deltaTime": 11,
        "channel": 12,
        "type": "noteOff",
        "noteNumber": 64,
        "velocity": 0,
        "byte9": true
    },
    {
        "deltaTime": 20,
        "running": true,
        "channel": 12,
        "type": "noteOff",
        "noteNumber": 57,
        "velocity": 0,
        "byte9": true
    },
    {
        "deltaTime": 6,
        "channel": 1,
        "type": "noteOff",
        "noteNumber": 33,
        "velocity": 0,
        "byte9": true
    },
    {
        "deltaTime": 0,
        "channel": 8,
        "type": "noteOff",
        "noteNumber": 33,
        "velocity": 0,
        "byte9": true
    },
    {
        "deltaTime": 27,
        "channel": 12,
        "type": "noteOn",
        "noteNumber": 57,
        "velocity": 105
    },
    {
        "deltaTime": 61,
        "running": true,
        "channel": 12,
        "type": "noteOn",
        "noteNumber": 61,
        "velocity": 127
    },
    {
        "deltaTime": 19,
        "channel": 3,
        "type": "noteOff",
        "noteNumber": 76,
        "velocity": 0,
        "byte9": true
    },
    {
        "deltaTime": 0,
        "channel": 1,
        "type": "noteOn",
        "noteNumber": 33,
        "velocity": 110
    },
    {
        "deltaTime": 0,
        "channel": 3,
        "type": "noteOn",
        "noteNumber": 74,
        "velocity": 114
    },
    {
        "deltaTime": 0,
        "channel": 5,
        "type": "noteOn",
        "noteNumber": 73,
        "velocity": 105
    },
    {
        "deltaTime": 0,
        "running": true,
        "channel": 5,
        "type": "noteOn",
        "noteNumber": 76,
        "velocity": 94
    },
    {
        "deltaTime": 0,
        "running": true,
        "channel": 5,
        "type": "noteOn",
        "noteNumber": 81,
        "velocity": 94
    },
    {
        "deltaTime": 0,
        "channel": 8,
        "type": "noteOn",
        "noteNumber": 33,
        "velocity": 110
    },
    {
        "deltaTime": 0,
        "channel": 9,
        "type": "noteOn",
        "noteNumber": 35,
        "velocity": 114
    },
    {
        "deltaTime": 0,
        "channel": 11,
        "type": "noteOn",
        "noteNumber": 41,
        "velocity": 114
    },
    {
        "deltaTime": 1,
        "running": true,
        "channel": 11,
        "type": "noteOff",
        "noteNumber": 41,
        "velocity": 0,
        "byte9": true
    },
    {
        "deltaTime": 11,
        "channel": 9,
        "type": "noteOff",
        "noteNumber": 35,
        "velocity": 0,
        "byte9": true
    },
    {
        "deltaTime": 7,
        "channel": 14,
        "type": "noteOn",
        "noteNumber": 61,
        "velocity": 105
    },
    {
        "deltaTime": 0,
        "running": true,
        "channel": 14,
        "type": "noteOn",
        "noteNumber": 64,
        "velocity": 94
    },
    {
        "deltaTime": 0,
        "running": true,
        "channel": 14,
        "type": "noteOn",
        "noteNumber": 69,
        "velocity": 94
    },
    {
        "deltaTime": 15,
        "channel": 12,
        "type": "noteOn",
        "noteNumber": 64,
        "velocity": 119
    },
    {
        "deltaTime": 121,
        "channel": 5,
        "type": "noteOff",
        "noteNumber": 81,
        "velocity": 0,
        "byte9": true
    },
    {
        "deltaTime": 6,
        "channel": 11,
        "type": "noteOff",
        "noteNumber": 41,
        "velocity": 0,
        "byte9": true
    },
    {
        "deltaTime": 2,
        "channel": 5,
        "type": "noteOff",
        "noteNumber": 73,
        "velocity": 0,
        "byte9": true
    },
    {
        "deltaTime": 4,
        "running": true,
        "channel": 5,
        "type": "noteOff",
        "noteNumber": 76,
        "velocity": 0,
        "byte9": true
    },
    {
        "deltaTime": 8,
        "channel": 14,
        "type": "noteOff",
        "noteNumber": 69,
        "velocity": 0,
        "byte9": true
    },
    {
        "deltaTime": 8,
        "running": true,
        "channel": 14,
        "type": "noteOff",
        "noteNumber": 61,
        "velocity": 0,
        "byte9": true
    },
    {
        "deltaTime": 4,
        "running": true,
        "channel": 14,
        "type": "noteOff",
        "noteNumber": 64,
        "velocity": 0,
        "byte9": true
    },
    {
        "deltaTime": 133,
        "channel": 9,
        "type": "noteOn",
        "noteNumber": 70,
        "velocity": 65
    },
    {
        "deltaTime": 12,
        "running": true,
        "channel": 9,
        "type": "noteOff",
        "noteNumber": 70,
        "velocity": 0,
        "byte9": true
    },
    {
        "deltaTime": 148,
        "channel": 5,
        "type": "noteOn",
        "noteNumber": 73,
        "velocity": 109
    },
    {
        "deltaTime": 0,
        "running": true,
        "channel": 5,
        "type": "noteOn",
        "noteNumber": 76,
        "velocity": 94
    },
    {
        "deltaTime": 0,
        "running": true,
        "channel": 5,
        "type": "noteOn",
        "noteNumber": 81,
        "velocity": 94
    },
    {
        "deltaTime": 0,
        "channel": 9,
        "type": "noteOn",
        "noteNumber": 44,
        "velocity": 107
    },
    {
        "deltaTime": 0,
        "running": true,
        "channel": 9,
        "type": "noteOn",
        "noteNumber": 54,
        "velocity": 109
    },
    {
        "deltaTime": 12,
        "running": true,
        "channel": 9,
        "type": "noteOff",
        "noteNumber": 44,
        "velocity": 0,
        "byte9": true
    },
    {
        "deltaTime": 0,
        "running": true,
        "channel": 9,
        "type": "noteOff",
        "noteNumber": 54,
        "velocity": 0,
        "byte9": true
    },
    {
        "deltaTime": 1,
        "channel": 1,
        "type": "noteOff",
        "noteNumber": 33,
        "velocity": 0,
        "byte9": true
    },
    {
        "deltaTime": 0,
        "channel": 8,
        "type": "noteOff",
        "noteNumber": 33,
        "velocity": 0,
        "byte9": true
    },
    {
        "deltaTime": 6,
        "channel": 14,
        "type": "noteOn",
        "noteNumber": 61,
        "velocity": 109
    },
    {
        "deltaTime": 0,
        "running": true,
        "channel": 14,
        "type": "noteOn",
        "noteNumber": 64,
        "velocity": 94
    },
    {
        "deltaTime": 0,
        "running": true,
        "channel": 14,
        "type": "noteOn",
        "noteNumber": 69,
        "velocity": 94
    },
    {
        "deltaTime": 122,
        "channel": 5,
        "type": "noteOff",
        "noteNumber": 81,
        "velocity": 0,
        "byte9": true
    },
    {
        "deltaTime": 13,
        "running": true,
        "channel": 5,
        "type": "noteOff",
        "noteNumber": 73,
        "velocity": 0,
        "byte9": true
    },
    {
        "deltaTime": 0,
        "running": true,
        "channel": 5,
        "type": "noteOff",
        "noteNumber": 76,
        "velocity": 0,
        "byte9": true
    },
    {
        "deltaTime": 7,
        "channel": 14,
        "type": "noteOff",
        "noteNumber": 69,
        "velocity": 0,
        "byte9": true
    },
    {
        "deltaTime": 13,
        "running": true,
        "channel": 14,
        "type": "noteOff",
        "noteNumber": 61,
        "velocity": 0,
        "byte9": true
    },
    {
        "deltaTime": 0,
        "running": true,
        "channel": 14,
        "type": "noteOff",
        "noteNumber": 64,
        "velocity": 0,
        "byte9": true
    },
    {
        "deltaTime": 95,
        "channel": 12,
        "type": "noteOff",
        "noteNumber": 61,
        "velocity": 0,
        "byte9": true
    },
    {
        "deltaTime": 74,
        "running": true,
        "channel": 12,
        "type": "noteOff",
        "noteNumber": 64,
        "velocity": 0,
        "byte9": true
    },
    {
        "deltaTime": 20,
        "running": true,
        "channel": 12,
        "type": "noteOff",
        "noteNumber": 57,
        "velocity": 0,
        "byte9": true
    },
    {
        "deltaTime": 33,
        "running": true,
        "channel": 12,
        "type": "noteOn",
        "noteNumber": 57,
        "velocity": 101
    },
    {
        "deltaTime": 28,
        "running": true,
        "channel": 12,
        "type": "noteOn",
        "noteNumber": 61,
        "velocity": 127
    },
    {
        "deltaTime": 52,
        "channel": 3,
        "type": "noteOff",
        "noteNumber": 74,
        "velocity": 0,
        "byte9": true
    },
    {
        "deltaTime": 0,
        "channel": 1,
        "type": "noteOn",
        "noteNumber": 33,
        "velocity": 110
    },
    {
        "deltaTime": 0,
        "channel": 3,
        "type": "noteOn",
        "noteNumber": 73,
        "velocity": 114
    },
    {
        "deltaTime": 0,
        "channel": 5,
        "type": "noteOn",
        "noteNumber": 73,
        "velocity": 109
    },
    {
        "deltaTime": 0,
        "running": true,
        "channel": 5,
        "type": "noteOn",
        "noteNumber": 76,
        "velocity": 94
    },
    {
        "deltaTime": 0,
        "running": true,
        "channel": 5,
        "type": "noteOn",
        "noteNumber": 81,
        "velocity": 101
    },
    {
        "deltaTime": 0,
        "channel": 8,
        "type": "noteOn",
        "noteNumber": 33,
        "velocity": 110
    },
    {
        "deltaTime": 0,
        "channel": 9,
        "type": "noteOn",
        "noteNumber": 35,
        "velocity": 114
    },
    {
        "deltaTime": 0,
        "channel": 10,
        "type": "noteOn",
        "noteNumber": 65,
        "velocity": 104
    },
    {
        "deltaTime": 0,
        "running": true,
        "channel": 10,
        "type": "noteOn",
        "noteNumber": 77,
        "velocity": 104
    },
    {
        "deltaTime": 0,
        "channel": 11,
        "type": "noteOn",
        "noteNumber": 41,
        "velocity": 114
    },
    {
        "deltaTime": 12,
        "channel": 9,
        "type": "noteOff",
        "noteNumber": 35,
        "velocity": 0,
        "byte9": true
    },
    {
        "deltaTime": 2,
        "channel": 12,
        "type": "noteOn",
        "noteNumber": 65,
        "velocity": 114
    },
    {
        "deltaTime": 1,
        "channel": 10,
        "type": "noteOff",
        "noteNumber": 64,
        "velocity": 0,
        "byte9": true
    },
    {
        "deltaTime": 0,
        "running": true,
        "channel": 10,
        "type": "noteOff",
        "noteNumber": 76,
        "velocity": 0,
        "byte9": true
    },
    {
        "deltaTime": 4,
        "channel": 14,
        "type": "noteOn",
        "noteNumber": 61,
        "velocity": 109
    },
    {
        "deltaTime": 0,
        "running": true,
        "channel": 14,
        "type": "noteOn",
        "noteNumber": 64,
        "velocity": 94
    },
    {
        "deltaTime": 0,
        "running": true,
        "channel": 14,
        "type": "noteOn",
        "noteNumber": 69,
        "velocity": 101
    },
    {
        "deltaTime": 136,
        "channel": 5,
        "type": "noteOff",
        "noteNumber": 81,
        "velocity": 0,
        "byte9": true
    },
    {
        "deltaTime": 6,
        "channel": 11,
        "type": "noteOff",
        "noteNumber": 41,
        "velocity": 0,
        "byte9": true
    },
    {
        "deltaTime": 10,
        "channel": 5,
        "type": "noteOff",
        "noteNumber": 73,
        "velocity": 0,
        "byte9": true
    },
    {
        "deltaTime": 0,
        "running": true,
        "channel": 5,
        "type": "noteOff",
        "noteNumber": 76,
        "velocity": 0,
        "byte9": true
    },
    {
        "deltaTime": 4,
        "channel": 14,
        "type": "noteOff",
        "noteNumber": 69,
        "velocity": 0,
        "byte9": true
    },
    {
        "deltaTime": 16,
        "running": true,
        "channel": 14,
        "type": "noteOff",
        "noteNumber": 61,
        "velocity": 0,
        "byte9": true
    },
    {
        "deltaTime": 0,
        "running": true,
        "channel": 14,
        "type": "noteOff",
        "noteNumber": 64,
        "velocity": 0,
        "byte9": true
    },
    {
        "deltaTime": 289,
        "channel": 5,
        "type": "noteOn",
        "noteNumber": 73,
        "velocity": 108
    },
    {
        "deltaTime": 0,
        "running": true,
        "channel": 5,
        "type": "noteOn",
        "noteNumber": 76,
        "velocity": 97
    },
    {
        "deltaTime": 0,
        "running": true,
        "channel": 5,
        "type": "noteOn",
        "noteNumber": 81,
        "velocity": 98
    },
    {
        "deltaTime": 0,
        "channel": 9,
        "type": "noteOn",
        "noteNumber": 44,
        "velocity": 107
    },
    {
        "deltaTime": 0,
        "running": true,
        "channel": 9,
        "type": "noteOn",
        "noteNumber": 69,
        "velocity": 109
    },
    {
        "deltaTime": 12,
        "running": true,
        "channel": 9,
        "type": "noteOff",
        "noteNumber": 44,
        "velocity": 0,
        "byte9": true
    },
    {
        "deltaTime": 0,
        "running": true,
        "channel": 9,
        "type": "noteOff",
        "noteNumber": 69,
        "velocity": 0,
        "byte9": true
    },
    {
        "deltaTime": 1,
        "channel": 1,
        "type": "noteOff",
        "noteNumber": 33,
        "velocity": 0,
        "byte9": true
    },
    {
        "deltaTime": 0,
        "channel": 8,
        "type": "noteOff",
        "noteNumber": 33,
        "velocity": 0,
        "byte9": true
    },
    {
        "deltaTime": 6,
        "channel": 14,
        "type": "noteOn",
        "noteNumber": 61,
        "velocity": 108
    },
    {
        "deltaTime": 0,
        "running": true,
        "channel": 14,
        "type": "noteOn",
        "noteNumber": 64,
        "velocity": 97
    },
    {
        "deltaTime": 0,
        "running": true,
        "channel": 14,
        "type": "noteOn",
        "noteNumber": 69,
        "velocity": 98
    },
    {
        "deltaTime": 127,
        "channel": 5,
        "type": "noteOff",
        "noteNumber": 81,
        "velocity": 0,
        "byte9": true
    },
    {
        "deltaTime": 12,
        "running": true,
        "channel": 5,
        "type": "noteOff",
        "noteNumber": 73,
        "velocity": 0,
        "byte9": true
    },
    {
        "deltaTime": 5,
        "running": true,
        "channel": 5,
        "type": "noteOff",
        "noteNumber": 76,
        "velocity": 0,
        "byte9": true
    },
    {
        "deltaTime": 3,
        "channel": 14,
        "type": "noteOff",
        "noteNumber": 69,
        "velocity": 0,
        "byte9": true
    },
    {
        "deltaTime": 12,
        "running": true,
        "channel": 14,
        "type": "noteOff",
        "noteNumber": 61,
        "velocity": 0,
        "byte9": true
    },
    {
        "deltaTime": 5,
        "running": true,
        "channel": 14,
        "type": "noteOff",
        "noteNumber": 64,
        "velocity": 0,
        "byte9": true
    },
    {
        "deltaTime": 7,
        "channel": 12,
        "type": "noteOff",
        "noteNumber": 61,
        "velocity": 0,
        "byte9": true
    },
    {
        "deltaTime": 46,
        "running": true,
        "channel": 12,
        "type": "noteOff",
        "noteNumber": 57,
        "velocity": 0,
        "byte9": true
    },
    {
        "deltaTime": 84,
        "channel": 1,
        "type": "noteOn",
        "noteNumber": 33,
        "velocity": 110
    },
    {
        "deltaTime": 0,
        "channel": 8,
        "type": "noteOn",
        "noteNumber": 33,
        "velocity": 110
    },
    {
        "deltaTime": 0,
        "channel": 9,
        "type": "noteOn",
        "noteNumber": 35,
        "velocity": 114
    },
    {
        "deltaTime": 0,
        "channel": 11,
        "type": "noteOn",
        "noteNumber": 41,
        "velocity": 114
    },
    {
        "deltaTime": 4,
        "channel": 12,
        "type": "noteOn",
        "noteNumber": 57,
        "velocity": 101
    },
    {
        "deltaTime": 8,
        "channel": 9,
        "type": "noteOff",
        "noteNumber": 35,
        "velocity": 0,
        "byte9": true
    },
    {
        "deltaTime": 1,
        "channel": 12,
        "type": "noteOff",
        "noteNumber": 65,
        "velocity": 0,
        "byte9": true
    },
    {
        "deltaTime": 44,
        "running": true,
        "channel": 12,
        "type": "noteOn",
        "noteNumber": 61,
        "velocity": 127
    },
    {
        "deltaTime": 77,
        "running": true,
        "channel": 12,
        "type": "noteOn",
        "noteNumber": 64,
        "velocity": 114
    },
    {
        "deltaTime": 22,
        "channel": 3,
        "type": "noteOff",
        "noteNumber": 73,
        "velocity": 0,
        "byte9": true
    },
    {
        "deltaTime": 0,
        "channel": 10,
        "type": "noteOff",
        "noteNumber": 65,
        "velocity": 0,
        "byte9": true
    },
    {
        "deltaTime": 0,
        "running": true,
        "channel": 10,
        "type": "noteOff",
        "noteNumber": 77,
        "velocity": 0,
        "byte9": true
    },
    {
        "deltaTime": 0,
        "channel": 3,
        "type": "noteOn",
        "noteNumber": 69,
        "velocity": 114
    },
    {
        "deltaTime": 0,
        "channel": 5,
        "type": "noteOn",
        "noteNumber": 73,
        "velocity": 105
    },
    {
        "deltaTime": 0,
        "running": true,
        "channel": 5,
        "type": "noteOn",
        "noteNumber": 76,
        "velocity": 89
    },
    {
        "deltaTime": 0,
        "running": true,
        "channel": 5,
        "type": "noteOn",
        "noteNumber": 81,
        "velocity": 94
    },
    {
        "deltaTime": 0,
        "channel": 10,
        "type": "noteOn",
        "noteNumber": 64,
        "velocity": 104
    },
    {
        "deltaTime": 1,
        "channel": 11,
        "type": "noteOff",
        "noteNumber": 41,
        "velocity": 0,
        "byte9": true
    },
    {
        "deltaTime": 18,
        "channel": 14,
        "type": "noteOn",
        "noteNumber": 61,
        "velocity": 105
    },
    {
        "deltaTime": 0,
        "running": true,
        "channel": 14,
        "type": "noteOn",
        "noteNumber": 64,
        "velocity": 89
    },
    {
        "deltaTime": 0,
        "running": true,
        "channel": 14,
        "type": "noteOn",
        "noteNumber": 69,
        "velocity": 94
    },
    {
        "deltaTime": 127,
        "channel": 5,
        "type": "noteOff",
        "noteNumber": 81,
        "velocity": 0,
        "byte9": true
    },
    {
        "deltaTime": 19,
        "channel": 14,
        "type": "noteOff",
        "noteNumber": 69,
        "velocity": 0,
        "byte9": true
    },
    {
        "deltaTime": 3,
        "channel": 5,
        "type": "noteOff",
        "noteNumber": 73,
        "velocity": 0,
        "byte9": true
    },
    {
        "deltaTime": 0,
        "running": true,
        "channel": 5,
        "type": "noteOff",
        "noteNumber": 76,
        "velocity": 0,
        "byte9": true
    },
    {
        "deltaTime": 20,
        "channel": 14,
        "type": "noteOff",
        "noteNumber": 61,
        "velocity": 0,
        "byte9": true
    },
    {
        "deltaTime": 0,
        "running": true,
        "channel": 14,
        "type": "noteOff",
        "noteNumber": 64,
        "velocity": 0,
        "byte9": true
    },
    {
        "deltaTime": 79,
        "channel": 1,
        "type": "noteOff",
        "noteNumber": 33,
        "velocity": 0,
        "byte9": true
    },
    {
        "deltaTime": 0,
        "channel": 8,
        "type": "noteOff",
        "noteNumber": 33,
        "velocity": 0,
        "byte9": true
    },
    {
        "deltaTime": 53,
        "channel": 1,
        "type": "noteOn",
        "noteNumber": 33,
        "velocity": 110
    },
    {
        "deltaTime": 0,
        "channel": 8,
        "type": "noteOn",
        "noteNumber": 33,
        "velocity": 110
    },
    {
        "deltaTime": 0,
        "channel": 9,
        "type": "noteOn",
        "noteNumber": 35,
        "velocity": 114
    },
    {
        "deltaTime": 0,
        "running": true,
        "channel": 9,
        "type": "noteOn",
        "noteNumber": 70,
        "velocity": 65
    },
    {
        "deltaTime": 0,
        "channel": 11,
        "type": "noteOn",
        "noteNumber": 41,
        "velocity": 114
    },
    {
        "deltaTime": 12,
        "channel": 9,
        "type": "noteOff",
        "noteNumber": 35,
        "velocity": 0,
        "byte9": true
    },
    {
        "deltaTime": 0,
        "running": true,
        "channel": 9,
        "type": "noteOff",
        "noteNumber": 70,
        "velocity": 0,
        "byte9": true
    },
    {
        "deltaTime": 148,
        "channel": 5,
        "type": "noteOn",
        "noteNumber": 73,
        "velocity": 109
    },
    {
        "deltaTime": 0,
        "running": true,
        "channel": 5,
        "type": "noteOn",
        "noteNumber": 76,
        "velocity": 97
    },
    {
        "deltaTime": 0,
        "running": true,
        "channel": 5,
        "type": "noteOn",
        "noteNumber": 81,
        "velocity": 110
    },
    {
        "deltaTime": 0,
        "channel": 9,
        "type": "noteOn",
        "noteNumber": 44,
        "velocity": 107
    },
    {
        "deltaTime": 0,
        "running": true,
        "channel": 9,
        "type": "noteOn",
        "noteNumber": 54,
        "velocity": 109
    },
    {
        "deltaTime": 1,
        "channel": 11,
        "type": "noteOff",
        "noteNumber": 41,
        "velocity": 0,
        "byte9": true
    },
    {
        "deltaTime": 11,
        "channel": 9,
        "type": "noteOff",
        "noteNumber": 44,
        "velocity": 0,
        "byte9": true
    },
    {
        "deltaTime": 0,
        "running": true,
        "channel": 9,
        "type": "noteOff",
        "noteNumber": 54,
        "velocity": 0,
        "byte9": true
    },
    {
        "deltaTime": 7,
        "channel": 14,
        "type": "noteOn",
        "noteNumber": 61,
        "velocity": 109
    },
    {
        "deltaTime": 0,
        "running": true,
        "channel": 14,
        "type": "noteOn",
        "noteNumber": 64,
        "velocity": 97
    },
    {
        "deltaTime": 0,
        "running": true,
        "channel": 14,
        "type": "noteOn",
        "noteNumber": 69,
        "velocity": 110
    },
    {
        "deltaTime": 54,
        "channel": 12,
        "type": "noteOff",
        "noteNumber": 61,
        "velocity": 0,
        "byte9": true
    },
    {
        "deltaTime": 31,
        "running": true,
        "channel": 12,
        "type": "noteOff",
        "noteNumber": 64,
        "velocity": 0,
        "byte9": true
    },
    {
        "deltaTime": 8,
        "running": true,
        "channel": 12,
        "type": "noteOff",
        "noteNumber": 57,
        "velocity": 0,
        "byte9": true
    },
    {
        "deltaTime": 37,
        "channel": 5,
        "type": "noteOff",
        "noteNumber": 81,
        "velocity": 0,
        "byte9": true
    },
    {
        "deltaTime": 9,
        "running": true,
        "channel": 5,
        "type": "noteOff",
        "noteNumber": 73,
        "velocity": 0,
        "byte9": true
    },
    {
        "deltaTime": 3,
        "running": true,
        "channel": 5,
        "type": "noteOff",
        "noteNumber": 76,
        "velocity": 0,
        "byte9": true
    },
    {
        "deltaTime": 7,
        "channel": 14,
        "type": "noteOff",
        "noteNumber": 69,
        "velocity": 0,
        "byte9": true
    },
    {
        "deltaTime": 9,
        "running": true,
        "channel": 14,
        "type": "noteOff",
        "noteNumber": 61,
        "velocity": 0,
        "byte9": true
    },
    {
        "deltaTime": 3,
        "running": true,
        "channel": 14,
        "type": "noteOff",
        "noteNumber": 64,
        "velocity": 0,
        "byte9": true
    },
    {
        "deltaTime": 87,
        "channel": 1,
        "type": "noteOff",
        "noteNumber": 33,
        "velocity": 0,
        "byte9": true
    },
    {
        "deltaTime": 0,
        "channel": 8,
        "type": "noteOff",
        "noteNumber": 33,
        "velocity": 0,
        "byte9": true
    },
    {
        "deltaTime": 53,
        "channel": 1,
        "type": "noteOn",
        "noteNumber": 33,
        "velocity": 110
    },
    {
        "deltaTime": 0,
        "channel": 8,
        "type": "noteOn",
        "noteNumber": 33,
        "velocity": 110
    },
    {
        "deltaTime": 4,
        "channel": 12,
        "type": "noteOn",
        "noteNumber": 57,
        "velocity": 101
    },
    {
        "deltaTime": 45,
        "channel": 1,
        "type": "noteOff",
        "noteNumber": 33,
        "velocity": 0,
        "byte9": true
    },
    {
        "deltaTime": 0,
        "channel": 8,
        "type": "noteOff",
        "noteNumber": 33,
        "velocity": 0,
        "byte9": true
    },
    {
        "deltaTime": 8,
        "channel": 12,
        "type": "noteOn",
        "noteNumber": 61,
        "velocity": 127
    },
    {
        "deltaTime": 77,
        "running": true,
        "channel": 12,
        "type": "noteOn",
        "noteNumber": 64,
        "velocity": 114
    },
    {
        "deltaTime": 22,
        "channel": 3,
        "type": "noteOff",
        "noteNumber": 69,
        "velocity": 0,
        "byte9": true
    },
    {
        "deltaTime": 0,
        "channel": 10,
        "type": "noteOff",
        "noteNumber": 64,
        "velocity": 0,
        "byte9": true
    },
    {
        "deltaTime": 0,
        "channel": 7,
        "type": "noteOn",
        "noteNumber": 69,
        "velocity": 105
    },
    {
        "deltaTime": 0,
        "channel": 9,
        "type": "noteOn",
        "noteNumber": 35,
        "velocity": 105
    },
    {
        "deltaTime": 12,
        "running": true,
        "channel": 9,
        "type": "noteOff",
        "noteNumber": 35,
        "velocity": 0,
        "byte9": true
    },
    {
        "deltaTime": 708,
        "channel": 7,
        "type": "noteOff",
        "noteNumber": 69,
        "velocity": 0,
        "byte9": true
    },
    {
        "deltaTime": 0,
        "channel": 9,
        "type": "noteOn",
        "noteNumber": 35,
        "velocity": 105
    },
    {
        "deltaTime": 12,
        "running": true,
        "channel": 9,
        "type": "noteOff",
        "noteNumber": 35,
        "velocity": 0,
        "byte9": true
    },
    {
        "deltaTime": 228,
        "running": true,
        "channel": 9,
        "type": "noteOn",
        "noteNumber": 35,
        "velocity": 105
    },
    {
        "deltaTime": 12,
        "running": true,
        "channel": 9,
        "type": "noteOff",
        "noteNumber": 35,
        "velocity": 0,
        "byte9": true
    },
    {
        "deltaTime": 348,
        "running": true,
        "channel": 9,
        "type": "noteOn",
        "noteNumber": 69,
        "velocity": 105
    },
    {
        "deltaTime": 12,
        "running": true,
        "channel": 9,
        "type": "noteOff",
        "noteNumber": 69,
        "velocity": 0,
        "byte9": true
    },
    {
        "deltaTime": 108,
        "running": true,
        "channel": 9,
        "type": "noteOn",
        "noteNumber": 54,
        "velocity": 105
    },
    {
        "deltaTime": 12,
        "running": true,
        "channel": 9,
        "type": "noteOff",
        "noteNumber": 54,
        "velocity": 0,
        "byte9": true
    },
    {
        "deltaTime": 468,
        "running": true,
        "channel": 9,
        "type": "noteOn",
        "noteNumber": 35,
        "velocity": 105
    },
    {
        "deltaTime": 12,
        "running": true,
        "channel": 9,
        "type": "noteOff",
        "noteNumber": 35,
        "velocity": 0,
        "byte9": true
    },
    {
        "deltaTime": 61,
        "channel": 12,
        "type": "noteOff",
        "noteNumber": 61,
        "velocity": 0,
        "byte9": true
    },
    {
        "deltaTime": 31,
        "running": true,
        "channel": 12,
        "type": "noteOff",
        "noteNumber": 64,
        "velocity": 0,
        "byte9": true
    },
    {
        "deltaTime": 8,
        "running": true,
        "channel": 12,
        "type": "noteOff",
        "noteNumber": 57,
        "velocity": 0,
        "byte9": true
    },
    {
        "deltaTime": 608,
        "channel": 9,
        "type": "noteOn",
        "noteNumber": 35,
        "velocity": 105
    },
    {
        "deltaTime": 12,
        "running": true,
        "channel": 9,
        "type": "noteOff",
        "noteNumber": 35,
        "velocity": 0,
        "byte9": true
    },
    {
        "deltaTime": 228,
        "running": true,
        "channel": 9,
        "type": "noteOn",
        "noteNumber": 35,
        "velocity": 105
    },
    {
        "deltaTime": 12,
        "running": true,
        "channel": 9,
        "type": "noteOff",
        "noteNumber": 35,
        "velocity": 0,
        "byte9": true
    },
    {
        "deltaTime": 348,
        "running": true,
        "channel": 9,
        "type": "noteOn",
        "noteNumber": 69,
        "velocity": 105
    },
    {
        "deltaTime": 12,
        "running": true,
        "channel": 9,
        "type": "noteOff",
        "noteNumber": 69,
        "velocity": 0,
        "byte9": true
    },
    {
        "deltaTime": 108,
        "running": true,
        "channel": 9,
        "type": "noteOn",
        "noteNumber": 54,
        "velocity": 105
    },
    {
        "deltaTime": 12,
        "running": true,
        "channel": 9,
        "type": "noteOff",
        "noteNumber": 54,
        "velocity": 0,
        "byte9": true
    },
    {
        "deltaTime": 468,
        "channel": 1,
        "type": "noteOn",
        "noteNumber": 38,
        "velocity": 106
    },
    {
        "deltaTime": 0,
        "channel": 2,
        "type": "noteOn",
        "noteNumber": 65,
        "velocity": 78
    },
    {
        "deltaTime": 0,
        "running": true,
        "channel": 2,
        "type": "noteOn",
        "noteNumber": 69,
        "velocity": 78
    },
    {
        "deltaTime": 0,
        "running": true,
        "channel": 2,
        "type": "noteOn",
        "noteNumber": 74,
        "velocity": 97
    },
    {
        "deltaTime": 0,
        "channel": 6,
        "type": "noteOn",
        "noteNumber": 53,
        "velocity": 80
    },
    {
        "deltaTime": 0,
        "running": true,
        "channel": 6,
        "type": "noteOn",
        "noteNumber": 57,
        "velocity": 80
    },
    {
        "deltaTime": 0,
        "running": true,
        "channel": 6,
        "type": "noteOn",
        "noteNumber": 62,
        "velocity": 80
    },
    {
        "deltaTime": 0,
        "channel": 7,
        "type": "noteOn",
        "noteNumber": 74,
        "velocity": 119
    },
    {
        "deltaTime": 0,
        "channel": 9,
        "type": "noteOn",
        "noteNumber": 35,
        "velocity": 105
    },
    {
        "deltaTime": 11,
        "channel": 4,
        "type": "noteOn",
        "noteNumber": 65,
        "velocity": 78
    },
    {
        "deltaTime": 0,
        "running": true,
        "channel": 4,
        "type": "noteOn",
        "noteNumber": 69,
        "velocity": 78
    },
    {
        "deltaTime": 1,
        "channel": 9,
        "type": "noteOff",
        "noteNumber": 35,
        "velocity": 0,
        "byte9": true
    },
    {
        "deltaTime": 468,
        "channel": 1,
        "type": "noteOff",
        "noteNumber": 38,
        "velocity": 0,
        "byte9": true
    },
    {
        "deltaTime": 0,
        "channel": 1,
        "type": "noteOn",
        "noteNumber": 38,
        "velocity": 106
    },
    {
        "deltaTime": 0,
        "channel": 3,
        "type": "noteOn",
        "noteNumber": 69,
        "velocity": 119
    },
    {
        "deltaTime": 0,
        "channel": 9,
        "type": "noteOn",
        "noteNumber": 35,
        "velocity": 105
    },
    {
        "deltaTime": 12,
        "running": true,
        "channel": 9,
        "type": "noteOff",
        "noteNumber": 35,
        "velocity": 0,
        "byte9": true
    },
    {
        "deltaTime": 161,
        "channel": 1,
        "type": "noteOff",
        "noteNumber": 38,
        "velocity": 0,
        "byte9": true
    },
    {
        "deltaTime": 67,
        "running": true,
        "channel": 1,
        "type": "noteOn",
        "noteNumber": 38,
        "velocity": 106
    },
    {
        "deltaTime": 0,
        "channel": 9,
        "type": "noteOn",
        "noteNumber": 35,
        "velocity": 105
    },
    {
        "deltaTime": 12,
        "running": true,
        "channel": 9,
        "type": "noteOff",
        "noteNumber": 35,
        "velocity": 0,
        "byte9": true
    },
    {
        "deltaTime": 336,
        "channel": 3,
        "type": "noteOff",
        "noteNumber": 69,
        "velocity": 0,
        "byte9": true
    },
    {
        "deltaTime": 12,
        "running": true,
        "channel": 3,
        "type": "noteOn",
        "noteNumber": 67,
        "velocity": 105
    },
    {
        "deltaTime": 0,
        "channel": 9,
        "type": "noteOn",
        "noteNumber": 69,
        "velocity": 105
    },
    {
        "deltaTime": 12,
        "running": true,
        "channel": 9,
        "type": "noteOff",
        "noteNumber": 69,
        "velocity": 0,
        "byte9": true
    },
    {
        "deltaTime": 72,
        "channel": 3,
        "type": "noteOff",
        "noteNumber": 67,
        "velocity": 0,
        "byte9": true
    },
    {
        "deltaTime": 0,
        "channel": 3,
        "type": "noteOn",
        "noteNumber": 69,
        "velocity": 101
    },
    {
        "deltaTime": 0,
        "channel": 9,
        "type": "noteOn",
        "noteNumber": 54,
        "velocity": 105
    },
    {
        "deltaTime": 12,
        "running": true,
        "channel": 9,
        "type": "noteOff",
        "noteNumber": 54,
        "velocity": 0,
        "byte9": true
    },
    {
        "deltaTime": 161,
        "channel": 7,
        "type": "noteOff",
        "noteNumber": 74,
        "velocity": 0,
        "byte9": true
    },
    {
        "deltaTime": 187,
        "channel": 1,
        "type": "noteOff",
        "noteNumber": 38,
        "velocity": 0,
        "byte9": true
    },
    {
        "deltaTime": 120,
        "running": true,
        "channel": 1,
        "type": "noteOn",
        "noteNumber": 38,
        "velocity": 106
    },
    {
        "deltaTime": 0,
        "channel": 9,
        "type": "noteOn",
        "noteNumber": 35,
        "velocity": 105
    },
    {
        "deltaTime": 12,
        "running": true,
        "channel": 9,
        "type": "noteOff",
        "noteNumber": 35,
        "velocity": 0,
        "byte9": true
    },
    {
        "deltaTime": 468,
        "channel": 1,
        "type": "noteOff",
        "noteNumber": 38,
        "velocity": 0,
        "byte9": true
    },
    {
        "deltaTime": 240,
        "running": true,
        "channel": 1,
        "type": "noteOn",
        "noteNumber": 38,
        "velocity": 106
    },
    {
        "deltaTime": 0,
        "channel": 9,
        "type": "noteOn",
        "noteNumber": 35,
        "velocity": 105
    },
    {
        "deltaTime": 12,
        "running": true,
        "channel": 9,
        "type": "noteOff",
        "noteNumber": 35,
        "velocity": 0,
        "byte9": true
    },
    {
        "deltaTime": 150,
        "channel": 3,
        "type": "noteOff",
        "noteNumber": 69,
        "velocity": 0,
        "byte9": true
    },
    {
        "deltaTime": 11,
        "channel": 1,
        "type": "noteOff",
        "noteNumber": 38,
        "velocity": 0,
        "byte9": true
    },
    {
        "deltaTime": 67,
        "running": true,
        "channel": 1,
        "type": "noteOn",
        "noteNumber": 38,
        "velocity": 106
    },
    {
        "deltaTime": 0,
        "channel": 9,
        "type": "noteOn",
        "noteNumber": 35,
        "velocity": 105
    },
    {
        "deltaTime": 12,
        "running": true,
        "channel": 9,
        "type": "noteOff",
        "noteNumber": 35,
        "velocity": 0,
        "byte9": true
    },
    {
        "deltaTime": 348,
        "running": true,
        "channel": 9,
        "type": "noteOn",
        "noteNumber": 69,
        "velocity": 105
    },
    {
        "deltaTime": 12,
        "running": true,
        "channel": 9,
        "type": "noteOff",
        "noteNumber": 69,
        "velocity": 0,
        "byte9": true
    },
    {
        "deltaTime": 108,
        "running": true,
        "channel": 9,
        "type": "noteOn",
        "noteNumber": 54,
        "velocity": 105
    },
    {
        "deltaTime": 12,
        "running": true,
        "channel": 9,
        "type": "noteOff",
        "noteNumber": 54,
        "velocity": 0,
        "byte9": true
    },
    {
        "deltaTime": 348,
        "channel": 1,
        "type": "noteOff",
        "noteNumber": 38,
        "velocity": 0,
        "byte9": true
    },
    {
        "deltaTime": 0,
        "channel": 1,
        "type": "noteOn",
        "noteNumber": 34,
        "velocity": 106
    },
    {
        "deltaTime": 0,
        "channel": 7,
        "type": "noteOn",
        "noteNumber": 70,
        "velocity": 117
    },
    {
        "deltaTime": 0,
        "channel": 9,
        "type": "noteOn",
        "noteNumber": 35,
        "velocity": 105
    },
    {
        "deltaTime": 12,
        "running": true,
        "channel": 9,
        "type": "noteOff",
        "noteNumber": 35,
        "velocity": 0,
        "byte9": true
    },
    {
        "deltaTime": 468,
        "channel": 1,
        "type": "noteOff",
        "noteNumber": 34,
        "velocity": 0,
        "byte9": true
    },
    {
        "deltaTime": 0,
        "channel": 1,
        "type": "noteOn",
        "noteNumber": 34,
        "velocity": 106
    },
    {
        "deltaTime": 0,
        "channel": 3,
        "type": "noteOn",
        "noteNumber": 69,
        "velocity": 127
    },
    {
        "deltaTime": 0,
        "channel": 9,
        "type": "noteOn",
        "noteNumber": 35,
        "velocity": 105
    },
    {
        "deltaTime": 12,
        "running": true,
        "channel": 9,
        "type": "noteOff",
        "noteNumber": 35,
        "velocity": 0,
        "byte9": true
    },
    {
        "deltaTime": 161,
        "channel": 1,
        "type": "noteOff",
        "noteNumber": 34,
        "velocity": 0,
        "byte9": true
    },
    {
        "deltaTime": 67,
        "running": true,
        "channel": 1,
        "type": "noteOn",
        "noteNumber": 34,
        "velocity": 106
    },
    {
        "deltaTime": 0,
        "channel": 9,
        "type": "noteOn",
        "noteNumber": 35,
        "velocity": 105
    },
    {
        "deltaTime": 12,
        "running": true,
        "channel": 9,
        "type": "noteOff",
        "noteNumber": 35,
        "velocity": 0,
        "byte9": true
    },
    {
        "deltaTime": 348,
        "running": true,
        "channel": 9,
        "type": "noteOn",
        "noteNumber": 69,
        "velocity": 105
    },
    {
        "deltaTime": 12,
        "running": true,
        "channel": 9,
        "type": "noteOff",
        "noteNumber": 69,
        "velocity": 0,
        "byte9": true
    },
    {
        "deltaTime": 23,
        "channel": 3,
        "type": "noteOff",
        "noteNumber": 69,
        "velocity": 0,
        "byte9": true
    },
    {
        "deltaTime": 85,
        "running": true,
        "channel": 3,
        "type": "noteOn",
        "noteNumber": 67,
        "velocity": 114
    },
    {
        "deltaTime": 0,
        "channel": 9,
        "type": "noteOn",
        "noteNumber": 54,
        "velocity": 105
    },
    {
        "deltaTime": 12,
        "running": true,
        "channel": 9,
        "type": "noteOff",
        "noteNumber": 54,
        "velocity": 0,
        "byte9": true
    },
    {
        "deltaTime": 98,
        "channel": 3,
        "type": "noteOff",
        "noteNumber": 67,
        "velocity": 0,
        "byte9": true
    },
    {
        "deltaTime": 0,
        "channel": 3,
        "type": "noteOn",
        "noteNumber": 69,
        "velocity": 101
    },
    {
        "deltaTime": 53,
        "channel": 7,
        "type": "noteOff",
        "noteNumber": 70,
        "velocity": 0,
        "byte9": true
    },
    {
        "deltaTime": 187,
        "channel": 1,
        "type": "noteOff",
        "noteNumber": 34,
        "velocity": 0,
        "byte9": true
    },
    {
        "deltaTime": 120,
        "running": true,
        "channel": 1,
        "type": "noteOn",
        "noteNumber": 34,
        "velocity": 106
    },
    {
        "deltaTime": 0,
        "channel": 9,
        "type": "noteOn",
        "noteNumber": 35,
        "velocity": 105
    },
    {
        "deltaTime": 12,
        "running": true,
        "channel": 9,
        "type": "noteOff",
        "noteNumber": 35,
        "velocity": 0,
        "byte9": true
    },
    {
        "deltaTime": 468,
        "channel": 1,
        "type": "noteOff",
        "noteNumber": 34,
        "velocity": 0,
        "byte9": true
    },
    {
        "deltaTime": 240,
        "running": true,
        "channel": 1,
        "type": "noteOn",
        "noteNumber": 34,
        "velocity": 106
    },
    {
        "deltaTime": 0,
        "channel": 9,
        "type": "noteOn",
        "noteNumber": 35,
        "velocity": 105
    },
    {
        "deltaTime": 12,
        "running": true,
        "channel": 9,
        "type": "noteOff",
        "noteNumber": 35,
        "velocity": 0,
        "byte9": true
    },
    {
        "deltaTime": 98,
        "channel": 3,
        "type": "noteOff",
        "noteNumber": 69,
        "velocity": 0,
        "byte9": true
    },
    {
        "deltaTime": 63,
        "channel": 1,
        "type": "noteOff",
        "noteNumber": 34,
        "velocity": 0,
        "byte9": true
    },
    {
        "deltaTime": 67,
        "running": true,
        "channel": 1,
        "type": "noteOn",
        "noteNumber": 34,
        "velocity": 106
    },
    {
        "deltaTime": 0,
        "channel": 9,
        "type": "noteOn",
        "noteNumber": 35,
        "velocity": 105
    },
    {
        "deltaTime": 12,
        "running": true,
        "channel": 9,
        "type": "noteOff",
        "noteNumber": 35,
        "velocity": 0,
        "byte9": true
    },
    {
        "deltaTime": 348,
        "running": true,
        "channel": 9,
        "type": "noteOn",
        "noteNumber": 69,
        "velocity": 105
    },
    {
        "deltaTime": 12,
        "running": true,
        "channel": 9,
        "type": "noteOff",
        "noteNumber": 69,
        "velocity": 0,
        "byte9": true
    },
    {
        "deltaTime": 108,
        "running": true,
        "channel": 9,
        "type": "noteOn",
        "noteNumber": 54,
        "velocity": 105
    },
    {
        "deltaTime": 12,
        "running": true,
        "channel": 9,
        "type": "noteOff",
        "noteNumber": 54,
        "velocity": 0,
        "byte9": true
    },
    {
        "deltaTime": 348,
        "channel": 1,
        "type": "noteOff",
        "noteNumber": 34,
        "velocity": 0,
        "byte9": true
    },
    {
        "deltaTime": 120,
        "running": true,
        "channel": 1,
        "type": "noteOn",
        "noteNumber": 29,
        "velocity": 106
    },
    {
        "deltaTime": 0,
        "channel": 2,
        "type": "noteOff",
        "noteNumber": 65,
        "velocity": 0,
        "byte9": true
    },
    {
        "deltaTime": 0,
        "running": true,
        "channel": 2,
        "type": "noteOn",
        "noteNumber": 65,
        "velocity": 78
    },
    {
        "deltaTime": 0,
        "running": true,
        "channel": 2,
        "type": "noteOff",
        "noteNumber": 69,
        "velocity": 0,
        "byte9": true
    },
    {
        "deltaTime": 0,
        "running": true,
        "channel": 2,
        "type": "noteOn",
        "noteNumber": 69,
        "velocity": 78
    },
    {
        "deltaTime": 0,
        "running": true,
        "channel": 2,
        "type": "noteOn",
        "noteNumber": 72,
        "velocity": 97
    },
    {
        "deltaTime": 0,
        "running": true,
        "channel": 2,
        "type": "noteOff",
        "noteNumber": 74,
        "velocity": 0,
        "byte9": true
    },
    {
        "deltaTime": 0,
        "channel": 6,
        "type": "noteOff",
        "noteNumber": 53,
        "velocity": 0,
        "byte9": true
    },
    {
        "deltaTime": 0,
        "running": true,
        "channel": 6,
        "type": "noteOn",
        "noteNumber": 53,
        "velocity": 80
    },
    {
        "deltaTime": 0,
        "running": true,
        "channel": 6,
        "type": "noteOff",
        "noteNumber": 57,
        "velocity": 0,
        "byte9": true
    },
    {
        "deltaTime": 0,
        "running": true,
        "channel": 6,
        "type": "noteOn",
        "noteNumber": 57,
        "velocity": 80
    },
    {
        "deltaTime": 0,
        "running": true,
        "channel": 6,
        "type": "noteOn",
        "noteNumber": 60,
        "velocity": 80
    },
    {
        "deltaTime": 0,
        "running": true,
        "channel": 6,
        "type": "noteOff",
        "noteNumber": 62,
        "velocity": 0,
        "byte9": true
    },
    {
        "deltaTime": 0,
        "channel": 7,
        "type": "noteOn",
        "noteNumber": 72,
        "velocity": 117
    },
    {
        "deltaTime": 0,
        "channel": 9,
        "type": "noteOn",
        "noteNumber": 35,
        "velocity": 105
    },
    {
        "deltaTime": 11,
        "channel": 4,
        "type": "noteOn",
        "noteNumber": 65,
        "velocity": 78
    },
    {
        "deltaTime": 0,
        "running": true,
        "channel": 4,
        "type": "noteOn",
        "noteNumber": 69,
        "velocity": 78
    },
    {
        "deltaTime": 1,
        "running": true,
        "channel": 4,
        "type": "noteOff",
        "noteNumber": 65,
        "velocity": 0,
        "byte9": true
    },
    {
        "deltaTime": 0,
        "running": true,
        "channel": 4,
        "type": "noteOff",
        "noteNumber": 69,
        "velocity": 0,
        "byte9": true
    },
    {
        "deltaTime": 0,
        "channel": 9,
        "type": "noteOff",
        "noteNumber": 35,
        "velocity": 0,
        "byte9": true
    },
    {
        "deltaTime": 468,
        "channel": 1,
        "type": "noteOff",
        "noteNumber": 29,
        "velocity": 0,
        "byte9": true
    },
    {
        "deltaTime": 0,
        "channel": 1,
        "type": "noteOn",
        "noteNumber": 29,
        "velocity": 106
    },
    {
        "deltaTime": 0,
        "channel": 3,
        "type": "noteOn",
        "noteNumber": 69,
        "velocity": 119
    },
    {
        "deltaTime": 0,
        "channel": 9,
        "type": "noteOn",
        "noteNumber": 35,
        "velocity": 105
    },
    {
        "deltaTime": 12,
        "running": true,
        "channel": 9,
        "type": "noteOff",
        "noteNumber": 35,
        "velocity": 0,
        "byte9": true
    },
    {
        "deltaTime": 161,
        "channel": 1,
        "type": "noteOff",
        "noteNumber": 29,
        "velocity": 0,
        "byte9": true
    },
    {
        "deltaTime": 67,
        "running": true,
        "channel": 1,
        "type": "noteOn",
        "noteNumber": 29,
        "velocity": 106
    },
    {
        "deltaTime": 0,
        "channel": 9,
        "type": "noteOn",
        "noteNumber": 35,
        "velocity": 105
    },
    {
        "deltaTime": 12,
        "running": true,
        "channel": 9,
        "type": "noteOff",
        "noteNumber": 35,
        "velocity": 0,
        "byte9": true
    },
    {
        "deltaTime": 348,
        "channel": 3,
        "type": "noteOn",
        "noteNumber": 67,
        "velocity": 105
    },
    {
        "deltaTime": 0,
        "channel": 9,
        "type": "noteOn",
        "noteNumber": 69,
        "velocity": 105
    },
    {
        "deltaTime": 10,
        "channel": 3,
        "type": "noteOff",
        "noteNumber": 69,
        "velocity": 0,
        "byte9": true
    },
    {
        "deltaTime": 2,
        "channel": 9,
        "type": "noteOff",
        "noteNumber": 69,
        "velocity": 0,
        "byte9": true
    },
    {
        "deltaTime": 78,
        "channel": 3,
        "type": "noteOff",
        "noteNumber": 67,
        "velocity": 0,
        "byte9": true
    },
    {
        "deltaTime": 0,
        "channel": 3,
        "type": "noteOn",
        "noteNumber": 69,
        "velocity": 105
    },
    {
        "deltaTime": 0,
        "channel": 9,
        "type": "noteOn",
        "noteNumber": 54,
        "velocity": 105
    },
    {
        "deltaTime": 12,
        "running": true,
        "channel": 9,
        "type": "noteOff",
        "noteNumber": 54,
        "velocity": 0,
        "byte9": true
    },
    {
        "deltaTime": 161,
        "channel": 7,
        "type": "noteOff",
        "noteNumber": 72,
        "velocity": 0,
        "byte9": true
    },
    {
        "deltaTime": 187,
        "channel": 1,
        "type": "noteOff",
        "noteNumber": 29,
        "velocity": 0,
        "byte9": true
    },
    {
        "deltaTime": 120,
        "running": true,
        "channel": 1,
        "type": "noteOn",
        "noteNumber": 29,
        "velocity": 106
    },
    {
        "deltaTime": 0,
        "channel": 9,
        "type": "noteOn",
        "noteNumber": 35,
        "velocity": 105
    },
    {
        "deltaTime": 12,
        "running": true,
        "channel": 9,
        "type": "noteOff",
        "noteNumber": 35,
        "velocity": 0,
        "byte9": true
    },
    {
        "deltaTime": 468,
        "channel": 1,
        "type": "noteOff",
        "noteNumber": 29,
        "velocity": 0,
        "byte9": true
    },
    {
        "deltaTime": 240,
        "running": true,
        "channel": 1,
        "type": "noteOn",
        "noteNumber": 29,
        "velocity": 106
    },
    {
        "deltaTime": 0,
        "channel": 9,
        "type": "noteOn",
        "noteNumber": 35,
        "velocity": 105
    },
    {
        "deltaTime": 12,
        "running": true,
        "channel": 9,
        "type": "noteOff",
        "noteNumber": 35,
        "velocity": 0,
        "byte9": true
    },
    {
        "deltaTime": 161,
        "channel": 1,
        "type": "noteOff",
        "noteNumber": 29,
        "velocity": 0,
        "byte9": true
    },
    {
        "deltaTime": 67,
        "running": true,
        "channel": 1,
        "type": "noteOn",
        "noteNumber": 29,
        "velocity": 106
    },
    {
        "deltaTime": 0,
        "channel": 9,
        "type": "noteOn",
        "noteNumber": 35,
        "velocity": 105
    },
    {
        "deltaTime": 12,
        "running": true,
        "channel": 9,
        "type": "noteOff",
        "noteNumber": 35,
        "velocity": 0,
        "byte9": true
    },
    {
        "deltaTime": 348,
        "running": true,
        "channel": 9,
        "type": "noteOn",
        "noteNumber": 69,
        "velocity": 105
    },
    {
        "deltaTime": 12,
        "running": true,
        "channel": 9,
        "type": "noteOff",
        "noteNumber": 69,
        "velocity": 0,
        "byte9": true
    },
    {
        "deltaTime": 108,
        "running": true,
        "channel": 9,
        "type": "noteOn",
        "noteNumber": 54,
        "velocity": 105
    },
    {
        "deltaTime": 12,
        "running": true,
        "channel": 9,
        "type": "noteOff",
        "noteNumber": 54,
        "velocity": 0,
        "byte9": true
    },
    {
        "deltaTime": 14,
        "channel": 3,
        "type": "noteOff",
        "noteNumber": 69,
        "velocity": 0,
        "byte9": true
    },
    {
        "deltaTime": 334,
        "channel": 1,
        "type": "noteOff",
        "noteNumber": 29,
        "velocity": 0,
        "byte9": true
    },
    {
        "deltaTime": 0,
        "channel": 1,
        "type": "noteOn",
        "noteNumber": 33,
        "velocity": 106
    },
    {
        "deltaTime": 0,
        "channel": 2,
        "type": "noteOn",
        "noteNumber": 64,
        "velocity": 78
    },
    {
        "deltaTime": 0,
        "running": true,
        "channel": 2,
        "type": "noteOff",
        "noteNumber": 65,
        "velocity": 0,
        "byte9": true
    },
    {
        "deltaTime": 0,
        "running": true,
        "channel": 2,
        "type": "noteOff",
        "noteNumber": 69,
        "velocity": 0,
        "byte9": true
    },
    {
        "deltaTime": 0,
        "running": true,
        "channel": 2,
        "type": "noteOn",
        "noteNumber": 69,
        "velocity": 78
    },
    {
        "deltaTime": 0,
        "running": true,
        "channel": 2,
        "type": "noteOff",
        "noteNumber": 72,
        "velocity": 0,
        "byte9": true
    },
    {
        "deltaTime": 0,
        "running": true,
        "channel": 2,
        "type": "noteOn",
        "noteNumber": 73,
        "velocity": 97
    },
    {
        "deltaTime": 0,
        "channel": 6,
        "type": "noteOn",
        "noteNumber": 52,
        "velocity": 80
    },
    {
        "deltaTime": 0,
        "running": true,
        "channel": 6,
        "type": "noteOff",
        "noteNumber": 53,
        "velocity": 0,
        "byte9": true
    },
    {
        "deltaTime": 0,
        "running": true,
        "channel": 6,
        "type": "noteOff",
        "noteNumber": 57,
        "velocity": 0,
        "byte9": true
    },
    {
        "deltaTime": 0,
        "running": true,
        "channel": 6,
        "type": "noteOn",
        "noteNumber": 57,
        "velocity": 80
    },
    {
        "deltaTime": 0,
        "running": true,
        "channel": 6,
        "type": "noteOff",
        "noteNumber": 60,
        "velocity": 0,
        "byte9": true
    },
    {
        "deltaTime": 0,
        "running": true,
        "channel": 6,
        "type": "noteOn",
        "noteNumber": 61,
        "velocity": 80
    },
    {
        "deltaTime": 0,
        "channel": 7,
        "type": "noteOn",
        "noteNumber": 73,
        "velocity": 117
    },
    {
        "deltaTime": 0,
        "channel": 9,
        "type": "noteOn",
        "noteNumber": 35,
        "velocity": 105
    },
    {
        "deltaTime": 11,
        "channel": 4,
        "type": "noteOn",
        "noteNumber": 64,
        "velocity": 78
    },
    {
        "deltaTime": 0,
        "running": true,
        "channel": 4,
        "type": "noteOn",
        "noteNumber": 69,
        "velocity": 78
    },
    {
        "deltaTime": 1,
        "running": true,
        "channel": 4,
        "type": "noteOff",
        "noteNumber": 65,
        "velocity": 0,
        "byte9": true
    },
    {
        "deltaTime": 0,
        "running": true,
        "channel": 4,
        "type": "noteOff",
        "noteNumber": 69,
        "velocity": 0,
        "byte9": true
    },
    {
        "deltaTime": 0,
        "channel": 9,
        "type": "noteOff",
        "noteNumber": 35,
        "velocity": 0,
        "byte9": true
    },
    {
        "deltaTime": 468,
        "channel": 1,
        "type": "noteOff",
        "noteNumber": 33,
        "velocity": 0,
        "byte9": true
    },
    {
        "deltaTime": 0,
        "channel": 1,
        "type": "noteOn",
        "noteNumber": 33,
        "velocity": 106
    },
    {
        "deltaTime": 0,
        "channel": 3,
        "type": "noteOn",
        "noteNumber": 69,
        "velocity": 119
    },
    {
        "deltaTime": 0,
        "channel": 9,
        "type": "noteOn",
        "noteNumber": 35,
        "velocity": 105
    },
    {
        "deltaTime": 12,
        "running": true,
        "channel": 9,
        "type": "noteOff",
        "noteNumber": 35,
        "velocity": 0,
        "byte9": true
    },
    {
        "deltaTime": 161,
        "channel": 1,
        "type": "noteOff",
        "noteNumber": 33,
        "velocity": 0,
        "byte9": true
    },
    {
        "deltaTime": 67,
        "running": true,
        "channel": 1,
        "type": "noteOn",
        "noteNumber": 33,
        "velocity": 106
    },
    {
        "deltaTime": 0,
        "channel": 9,
        "type": "noteOn",
        "noteNumber": 35,
        "velocity": 105
    },
    {
        "deltaTime": 12,
        "running": true,
        "channel": 9,
        "type": "noteOff",
        "noteNumber": 35,
        "velocity": 0,
        "byte9": true
    },
    {
        "deltaTime": 348,
        "channel": 3,
        "type": "noteOn",
        "noteNumber": 67,
        "velocity": 105
    },
    {
        "deltaTime": 0,
        "channel": 9,
        "type": "noteOn",
        "noteNumber": 69,
        "velocity": 105
    },
    {
        "deltaTime": 10,
        "channel": 3,
        "type": "noteOff",
        "noteNumber": 69,
        "velocity": 0,
        "byte9": true
    },
    {
        "deltaTime": 2,
        "channel": 9,
        "type": "noteOff",
        "noteNumber": 69,
        "velocity": 0,
        "byte9": true
    },
    {
        "deltaTime": 78,
        "channel": 3,
        "type": "noteOff",
        "noteNumber": 67,
        "velocity": 0,
        "byte9": true
    },
    {
        "deltaTime": 0,
        "channel": 3,
        "type": "noteOn",
        "noteNumber": 69,
        "velocity": 105
    },
    {
        "deltaTime": 0,
        "channel": 9,
        "type": "noteOn",
        "noteNumber": 54,
        "velocity": 105
    },
    {
        "deltaTime": 12,
        "running": true,
        "channel": 9,
        "type": "noteOff",
        "noteNumber": 54,
        "velocity": 0,
        "byte9": true
    },
    {
        "deltaTime": 161,
        "channel": 7,
        "type": "noteOff",
        "noteNumber": 73,
        "velocity": 0,
        "byte9": true
    },
    {
        "deltaTime": 187,
        "channel": 1,
        "type": "noteOff",
        "noteNumber": 33,
        "velocity": 0,
        "byte9": true
    },
    {
        "deltaTime": 120,
        "running": true,
        "channel": 1,
        "type": "noteOn",
        "noteNumber": 33,
        "velocity": 106
    },
    {
        "deltaTime": 0,
        "channel": 9,
        "type": "noteOn",
        "noteNumber": 35,
        "velocity": 105
    },
    {
        "deltaTime": 12,
        "running": true,
        "channel": 9,
        "type": "noteOff",
        "noteNumber": 35,
        "velocity": 0,
        "byte9": true
    },
    {
        "deltaTime": 468,
        "channel": 1,
        "type": "noteOff",
        "noteNumber": 33,
        "velocity": 0,
        "byte9": true
    },
    {
        "deltaTime": 240,
        "running": true,
        "channel": 1,
        "type": "noteOn",
        "noteNumber": 33,
        "velocity": 106
    },
    {
        "deltaTime": 0,
        "channel": 9,
        "type": "noteOn",
        "noteNumber": 35,
        "velocity": 105
    },
    {
        "deltaTime": 12,
        "running": true,
        "channel": 9,
        "type": "noteOff",
        "noteNumber": 35,
        "velocity": 0,
        "byte9": true
    },
    {
        "deltaTime": 161,
        "channel": 1,
        "type": "noteOff",
        "noteNumber": 33,
        "velocity": 0,
        "byte9": true
    },
    {
        "deltaTime": 67,
        "running": true,
        "channel": 1,
        "type": "noteOn",
        "noteNumber": 33,
        "velocity": 106
    },
    {
        "deltaTime": 0,
        "channel": 5,
        "type": "noteOn",
        "noteNumber": 61,
        "velocity": 100
    },
    {
        "deltaTime": 0,
        "channel": 9,
        "type": "noteOn",
        "noteNumber": 35,
        "velocity": 105
    },
    {
        "deltaTime": 12,
        "running": true,
        "channel": 9,
        "type": "noteOff",
        "noteNumber": 35,
        "velocity": 0,
        "byte9": true
    },
    {
        "deltaTime": 208,
        "channel": 5,
        "type": "noteOff",
        "noteNumber": 61,
        "velocity": 0,
        "byte9": true
    },
    {
        "deltaTime": 20,
        "running": true,
        "channel": 5,
        "type": "noteOn",
        "noteNumber": 64,
        "velocity": 109
    },
    {
        "deltaTime": 120,
        "channel": 9,
        "type": "noteOn",
        "noteNumber": 69,
        "velocity": 105
    },
    {
        "deltaTime": 12,
        "running": true,
        "channel": 9,
        "type": "noteOff",
        "noteNumber": 69,
        "velocity": 0,
        "byte9": true
    },
    {
        "deltaTime": 67,
        "channel": 5,
        "type": "noteOff",
        "noteNumber": 64,
        "velocity": 0,
        "byte9": true
    },
    {
        "deltaTime": 41,
        "running": true,
        "channel": 5,
        "type": "noteOn",
        "noteNumber": 69,
        "velocity": 124
    },
    {
        "deltaTime": 0,
        "channel": 9,
        "type": "noteOn",
        "noteNumber": 54,
        "velocity": 105
    },
    {
        "deltaTime": 12,
        "running": true,
        "channel": 9,
        "type": "noteOff",
        "noteNumber": 54,
        "velocity": 0,
        "byte9": true
    },
    {
        "deltaTime": 14,
        "channel": 3,
        "type": "noteOff",
        "noteNumber": 69,
        "velocity": 0,
        "byte9": true
    },
    {
        "deltaTime": 177,
        "channel": 5,
        "type": "noteOff",
        "noteNumber": 69,
        "velocity": 0,
        "byte9": true
    },
    {
        "deltaTime": 37,
        "running": true,
        "channel": 5,
        "type": "noteOn",
        "noteNumber": 67,
        "velocity": 127
    },
    {
        "deltaTime": 120,
        "channel": 1,
        "type": "noteOff",
        "noteNumber": 33,
        "velocity": 0,
        "byte9": true
    },
    {
        "deltaTime": 89,
        "channel": 5,
        "type": "noteOff",
        "noteNumber": 67,
        "velocity": 0,
        "byte9": true
    },
    {
        "deltaTime": 0,
        "channel": 1,
        "type": "noteOn",
        "noteNumber": 38,
        "velocity": 106
    },
    {
        "deltaTime": 0,
        "channel": 2,
        "type": "noteOff",
        "noteNumber": 64,
        "velocity": 0,
        "byte9": true
    },
    {
        "deltaTime": 0,
        "running": true,
        "channel": 2,
        "type": "noteOn",
        "noteNumber": 65,
        "velocity": 78
    },
    {
        "deltaTime": 0,
        "running": true,
        "channel": 2,
        "type": "noteOff",
        "noteNumber": 69,
        "velocity": 0,
        "byte9": true
    },
    {
        "deltaTime": 0,
        "running": true,
        "channel": 2,
        "type": "noteOn",
        "noteNumber": 69,
        "velocity": 78
    },
    {
        "deltaTime": 0,
        "running": true,
        "channel": 2,
        "type": "noteOff",
        "noteNumber": 73,
        "velocity": 0,
        "byte9": true
    },
    {
        "deltaTime": 0,
        "channel": 5,
        "type": "noteOn",
        "noteNumber": 65,
        "velocity": 127
    },
    {
        "deltaTime": 0,
        "channel": 6,
        "type": "noteOff",
        "noteNumber": 52,
        "velocity": 0,
        "byte9": true
    },
    {
        "deltaTime": 0,
        "running": true,
        "channel": 6,
        "type": "noteOn",
        "noteNumber": 53,
        "velocity": 80
    },
    {
        "deltaTime": 0,
        "running": true,
        "channel": 6,
        "type": "noteOff",
        "noteNumber": 57,
        "velocity": 0,
        "byte9": true
    },
    {
        "deltaTime": 0,
        "running": true,
        "channel": 6,
        "type": "noteOn",
        "noteNumber": 57,
        "velocity": 80
    },
    {
        "deltaTime": 0,
        "running": true,
        "channel": 6,
        "type": "noteOff",
        "noteNumber": 61,
        "velocity": 0,
        "byte9": true
    },
    {
        "deltaTime": 0,
        "running": true,
        "channel": 6,
        "type": "noteOn",
        "noteNumber": 62,
        "velocity": 80
    },
    {
        "deltaTime": 0,
        "channel": 7,
        "type": "noteOn",
        "noteNumber": 74,
        "velocity": 119
    },
    {
        "deltaTime": 0,
        "channel": 9,
        "type": "noteOn",
        "noteNumber": 35,
        "velocity": 105
    },
    {
        "deltaTime": 11,
        "channel": 4,
        "type": "noteOn",
        "noteNumber": 65,
        "velocity": 78
    },
    {
        "deltaTime": 0,
        "running": true,
        "channel": 4,
        "type": "noteOn",
        "noteNumber": 69,
        "velocity": 78
    },
    {
        "deltaTime": 1,
        "running": true,
        "channel": 4,
        "type": "noteOff",
        "noteNumber": 64,
        "velocity": 0,
        "byte9": true
    },
    {
        "deltaTime": 0,
        "running": true,
        "channel": 4,
        "type": "noteOff",
        "noteNumber": 69,
        "velocity": 0,
        "byte9": true
    },
    {
        "deltaTime": 0,
        "channel": 9,
        "type": "noteOff",
        "noteNumber": 35,
        "velocity": 0,
        "byte9": true
    },
    {
        "deltaTime": 52,
        "channel": 1,
        "type": "noteOff",
        "noteNumber": 38,
        "velocity": 0,
        "byte9": true
    },
    {
        "deltaTime": 0,
        "channel": 10,
        "type": "noteOn",
        "noteNumber": 74,
        "velocity": 121
    },
    {
        "deltaTime": 0,
        "channel": 1,
        "type": "noteOn",
        "noteNumber": 38,
        "velocity": 106
    },
    {
        "deltaTime": 0,
        "channel": 3,
        "type": "noteOn",
        "noteNumber": 69,
        "velocity": 119
    },
    {
        "deltaTime": 0,
        "channel": 9,
        "type": "noteOn",
        "noteNumber": 35,
        "velocity": 105
    },
    {
        "deltaTime": 12,
        "running": true,
        "channel": 9,
        "type": "noteOff",
        "noteNumber": 35,
        "velocity": 0,
        "byte9": true
    },
    {
        "deltaTime": 5,
        "channel": 1,
        "type": "noteOff",
        "noteNumber": 38,
        "velocity": 0,
        "byte9": true
    },
    {
        "deltaTime": 67,
        "running": true,
        "channel": 1,
        "type": "noteOn",
        "noteNumber": 38,
        "velocity": 106
    },
    {
        "deltaTime": 0,
        "channel": 9,
        "type": "noteOn",
        "noteNumber": 35,
        "velocity": 105
    },
    {
        "deltaTime": 12,
        "running": true,
        "channel": 9,
        "type": "noteOff",
        "noteNumber": 35,
        "velocity": 0,
        "byte9": true
    },
    {
        "deltaTime": 69,
        "channel": 5,
        "type": "noteOff",
        "noteNumber": 65,
        "velocity": 0,
        "byte9": true
    },
    {
        "deltaTime": 52,
        "channel": 3,
        "type": "noteOff",
        "noteNumber": 69,
        "velocity": 0,
        "byte9": true
    },
    {
        "deltaTime": 12,
        "running": true,
        "channel": 3,
        "type": "noteOn",
        "noteNumber": 67,
        "velocity": 105
    },
    {
        "deltaTime": 0,
        "channel": 9,
        "type": "noteOn",
        "noteNumber": 69,
        "velocity": 105
    },
    {
        "deltaTime": 12,
        "running": true,
        "channel": 9,
        "type": "noteOff",
        "noteNumber": 69,
        "velocity": 0,
        "byte9": true
    },
    {
        "deltaTime": 56,
        "channel": 3,
        "type": "noteOff",
        "noteNumber": 67,
        "velocity": 0,
        "byte9": true
    },
    {
        "deltaTime": 0,
        "channel": 3,
        "type": "noteOn",
        "noteNumber": 69,
        "velocity": 101
    },
    {
        "deltaTime": 0,
        "channel": 9,
        "type": "noteOn",
        "noteNumber": 54,
        "velocity": 105
    },
    {
        "deltaTime": 12,
        "channel": 9,
        "type": "noteOff",
        "noteNumber": 54,
        "velocity": 0,
        "byte9": true
    },
    {
        "deltaTime": 81,
        "channel": 7,
        "type": "noteOff",
        "noteNumber": 74,
        "velocity": 0,
        "byte9": true
    },
    {
        "deltaTime": 84,
        "channel": 1,
        "type": "noteOff",
        "noteNumber": 38,
        "velocity": 0,
        "byte9": true
    },
    {
        "deltaTime": 20,
        "channel": 1,
        "type": "noteOn",
        "noteNumber": 38,
        "velocity": 106
    },
    {
        "deltaTime": 0,
        "channel": 5,
        "type": "noteOn",
        "noteNumber": 62,
        "velocity": 102
    },
    {
        "deltaTime": 0,
        "channel": 9,
        "type": "noteOn",
        "noteNumber": 35,
        "velocity": 105
    },
    {
        "deltaTime": 12,
        "running": true,
        "channel": 9,
        "type": "noteOff",
        "noteNumber": 35,
        "velocity": 0,
        "byte9": true
    },
    {
        "deltaTime": 40,
        "channel": 1,
        "type": "noteOff",
        "noteNumber": 38,
        "velocity": 0,
        "byte9": true
    },
    {
        "deltaTime": 55,
        "channel": 5,
        "type": "noteOff",
        "noteNumber": 62,
        "velocity": 0,
        "byte9": true
    },
    {
        "deltaTime": 4,
        "channel": 1,
        "type": "noteOn",
        "noteNumber": 38,
        "velocity": 106
    },
    {
        "deltaTime": 0,
        "channel": 5,
        "type": "noteOn",
        "noteNumber": 65,
        "velocity": 106
    },
    {
        "deltaTime": 0,
        "channel": 9,
        "type": "noteOn",
        "noteNumber": 35,
        "velocity": 105
    },
    {
        "deltaTime": 12,
        "running": true,
        "channel": 9,
        "type": "noteOff",
        "noteNumber": 35,
        "velocity": 0,
        "byte9": true
    },
    {
        "deltaTime": 74,
        "channel": 3,
        "type": "noteOff",
        "noteNumber": 69,
        "velocity": 0,
        "byte9": true
    },
    {
        "deltaTime": 11,
        "channel": 1,
        "type": "noteOff",
        "noteNumber": 38,
        "velocity": 0,
        "byte9": true
    },
    {
        "deltaTime": 56,
        "channel": 5,
        "type": "noteOff",
        "noteNumber": 65,
        "velocity": 0,
        "byte9": true
    },
    {
        "deltaTime": 4,
        "channel": 1,
        "type": "noteOn",
        "noteNumber": 38,
        "velocity": 106
    },
    {
        "deltaTime": 0,
        "channel": 5,
        "type": "noteOn",
        "noteNumber": 69,
        "velocity": 105
    },
    {
        "deltaTime": 0,
        "channel": 9,
        "type": "noteOn",
        "noteNumber": 35,
        "velocity": 105
    },
    {
        "deltaTime": 12,
        "running": true,
        "channel": 9,
        "type": "noteOff",
        "noteNumber": 35,
        "velocity": 0,
        "byte9": true
    },
    {
        "deltaTime": 52,
        "channel": 9,
        "type": "noteOn",
        "noteNumber": 69,
        "velocity": 105
    },
    {
        "deltaTime": 12,
        "running": true,
        "channel": 9,
        "type": "noteOff",
        "noteNumber": 69,
        "velocity": 0,
        "byte9": true
    },
    {
        "deltaTime": 80,
        "channel": 5,
        "type": "noteOn",
        "noteNumber": 74,
        "velocity": 124
    },
    {
        "deltaTime": 0,
        "channel": 9,
        "type": "noteOn",
        "noteNumber": 54,
        "velocity": 105
    },
    {
        "deltaTime": 12,
        "running": true,
        "channel": 9,
        "type": "noteOff",
        "noteNumber": 54,
        "velocity": 0,
        "byte9": true
    },
    {
        "deltaTime": 5,
        "channel": 5,
        "type": "noteOff",
        "noteNumber": 69,
        "velocity": 0,
        "byte9": true
    },
    {
        "deltaTime": 72,
        "channel": 1,
        "type": "noteOff",
        "noteNumber": 38,
        "velocity": 0,
        "byte9": true
    },
    {
        "deltaTime": 0,
        "channel": 1,
        "type": "noteOn",
        "noteNumber": 34,
        "velocity": 106
    },
    {
        "deltaTime": 0,
        "channel": 7,
        "type": "noteOn",
        "noteNumber": 70,
        "velocity": 117
    },
    {
        "deltaTime": 0,
        "channel": 9,
        "type": "noteOn",
        "noteNumber": 35,
        "velocity": 105
    },
    {
        "deltaTime": 12,
        "running": true,
        "channel": 9,
        "type": "noteOff",
        "noteNumber": 35,
        "velocity": 0,
        "byte9": true
    },
    {
        "deltaTime": 28,
        "channel": 1,
        "type": "noteOff",
        "noteNumber": 34,
        "velocity": 0,
        "byte9": true
    },
    {
        "deltaTime": 0,
        "channel": 1,
        "type": "noteOn",
        "noteNumber": 34,
        "velocity": 106
    },
    {
        "deltaTime": 0,
        "channel": 3,
        "type": "noteOn",
        "noteNumber": 69,
        "velocity": 127
    },
    {
        "deltaTime": 0,
        "channel": 9,
        "type": "noteOn",
        "noteNumber": 35,
        "velocity": 105
    },
    {
        "deltaTime": 4,
        "channel": 9,
        "type": "noteOff",
        "noteNumber": 35,
        "velocity": 0,
        "byte9": true
    },
    {
        "deltaTime": 73,
        "channel": 1,
        "type": "noteOff",
        "noteNumber": 34,
        "velocity": 0,
        "byte9": true
    },
    {
        "deltaTime": 48,
        "channel": 1,
        "type": "noteOn",
        "noteNumber": 34,
        "velocity": 106
    },
    {
        "deltaTime": 0,
        "channel": 9,
        "type": "noteOn",
        "noteNumber": 35,
        "velocity": 105
    },
    {
        "deltaTime": 12,
        "running": true,
        "channel": 9,
        "type": "noteOff",
        "noteNumber": 35,
        "velocity": 0,
        "byte9": true
    },
    {
        "deltaTime": 16,
        "channel": 5,
        "type": "noteOff",
        "noteNumber": 74,
        "velocity": 0,
        "byte9": true
    },
    {
        "deltaTime": 30,
        "channel": 9,
        "type": "noteOn",
        "noteNumber": 69,
        "velocity": 105
    },
    {
        "deltaTime": 12,
        "running": true,
        "channel": 9,
        "type": "noteOff",
        "noteNumber": 69,
        "velocity": 0,
        "byte9": true
    },
    {
        "deltaTime": 23,
        "channel": 3,
        "type": "noteOff",
        "noteNumber": 69,
        "velocity": 0,
        "byte9": true
    },
    {
        "deltaTime": 85,
        "running": true,
        "channel": 3,
        "type": "noteOn",
        "noteNumber": 67,
        "velocity": 114
    },
    {
        "deltaTime": 0,
        "channel": 9,
        "type": "noteOn",
        "noteNumber": 54,
        "velocity": 105
    },
    {
        "deltaTime": 12,
        "running": true,
        "channel": 9,
        "type": "noteOff",
        "noteNumber": 54,
        "velocity": 0,
        "byte9": true
    },
    {
        "deltaTime": 98,
        "channel": 3,
        "type": "noteOff",
        "noteNumber": 67,
        "velocity": 0,
        "byte9": true
    },
    {
        "deltaTime": 0,
        "channel": 3,
        "type": "noteOn",
        "noteNumber": 69,
        "velocity": 101
    },
    {
        "deltaTime": 53,
        "channel": 7,
        "type": "noteOff",
        "noteNumber": 70,
        "velocity": 0,
        "byte9": true
    },
    {
        "deltaTime": 187,
        "channel": 1,
        "type": "noteOff",
        "noteNumber": 34,
        "velocity": 0,
        "byte9": true
    },
    {
        "deltaTime": 120,
        "running": true,
        "channel": 1,
        "type": "noteOn",
        "noteNumber": 34,
        "velocity": 106
    },
    {
        "deltaTime": 0,
        "channel": 9,
        "type": "noteOn",
        "noteNumber": 35,
        "velocity": 105
    },
    {
        "deltaTime": 12,
        "running": true,
        "channel": 9,
        "type": "noteOff",
        "noteNumber": 35,
        "velocity": 0,
        "byte9": true
    },
    {
        "deltaTime": 468,
        "channel": 1,
        "type": "noteOff",
        "noteNumber": 34,
        "velocity": 0,
        "byte9": true
    },
    {
        "deltaTime": 2,
        "channel": 5,
        "type": "noteOn",
        "noteNumber": 65,
        "velocity": 120
    },
    {
        "deltaTime": 238,
        "channel": 1,
        "type": "noteOn",
        "noteNumber": 34,
        "velocity": 106
    },
    {
        "deltaTime": 0,
        "channel": 9,
        "type": "noteOn",
        "noteNumber": 35,
        "velocity": 105
    },
    {
        "deltaTime": 12,
        "running": true,
        "channel": 9,
        "type": "noteOff",
        "noteNumber": 35,
        "velocity": 0,
        "byte9": true
    },
    {
        "deltaTime": 8,
        "channel": 5,
        "type": "noteOn",
        "noteNumber": 70,
        "velocity": 125
    },
    {
        "deltaTime": 90,
        "channel": 3,
        "type": "noteOff",
        "noteNumber": 69,
        "velocity": 0,
        "byte9": true
    },
    {
        "deltaTime": 26,
        "channel": 5,
        "type": "noteOff",
        "noteNumber": 70,
        "velocity": 0,
        "byte9": true
    },
    {
        "deltaTime": 37,
        "channel": 1,
        "type": "noteOff",
        "noteNumber": 34,
        "velocity": 0,
        "byte9": true
    },
    {
        "deltaTime": 67,
        "running": true,
        "channel": 1,
        "type": "noteOn",
        "noteNumber": 34,
        "velocity": 106
    },
    {
        "deltaTime": 0,
        "channel": 9,
        "type": "noteOn",
        "noteNumber": 35,
        "velocity": 105
    },
    {
        "deltaTime": 12,
        "running": true,
        "channel": 9,
        "type": "noteOff",
        "noteNumber": 35,
        "velocity": 0,
        "byte9": true
    },
    {
        "deltaTime": 19,
        "channel": 5,
        "type": "noteOn",
        "noteNumber": 70,
        "velocity": 127
    },
    {
        "deltaTime": 329,
        "channel": 9,
        "type": "noteOn",
        "noteNumber": 69,
        "velocity": 105
    },
    {
        "deltaTime": 12,
        "running": true,
        "channel": 9,
        "type": "noteOff",
        "noteNumber": 69,
        "velocity": 0,
        "byte9": true
    },
    {
        "deltaTime": 104,
        "channel": 10,
        "type": "noteOff",
        "noteNumber": 74,
        "velocity": 0,
        "byte9": true
    },
    {
        "deltaTime": 4,
        "channel": 9,
        "type": "noteOn",
        "noteNumber": 54,
        "velocity": 105
    },
    {
        "deltaTime": 0,
        "channel": 10,
        "type": "noteOn",
        "noteNumber": 65,
        "velocity": 121
    },
    {
        "deltaTime": 12,
        "channel": 9,
        "type": "noteOff",
        "noteNumber": 54,
        "velocity": 0,
        "byte9": true
    },
    {
        "deltaTime": 2,
        "channel": 5,
        "type": "noteOn",
        "noteNumber": 74,
        "velocity": 124
    },
    {
        "deltaTime": 222,
        "channel": 10,
        "type": "noteOff",
        "noteNumber": 65,
        "velocity": 0,
        "byte9": true
    },
    {
        "deltaTime": 4,
        "running": true,
        "channel": 10,
        "type": "noteOn",
        "noteNumber": 74,
        "velocity": 121
    },
    {
        "deltaTime": 120,
        "channel": 1,
        "type": "noteOff",
        "noteNumber": 34,
        "velocity": 0,
        "byte9": true
    },
    {
        "deltaTime": 67,
        "channel": 5,
        "type": "noteOff",
        "noteNumber": 65,
        "velocity": 0,
        "byte9": true
    },
    {
        "deltaTime": 4,
        "running": true,
        "channel": 5,
        "type": "noteOff",
        "noteNumber": 70,
        "velocity": 0,
        "byte9": true
    },
    {
        "deltaTime": 19,
        "running": true,
        "channel": 5,
        "type": "noteOff",
        "noteNumber": 74,
        "velocity": 0,
        "byte9": true
    },
    {
        "deltaTime": 26,
        "channel": 10,
        "type": "noteOff",
        "noteNumber": 74,
        "velocity": 0,
        "byte9": true
    },
    {
        "deltaTime": 4,
        "channel": 1,
        "type": "noteOn",
        "noteNumber": 29,
        "velocity": 106
    },
    {
        "deltaTime": 0,
        "channel": 2,
        "type": "noteOff",
        "noteNumber": 65,
        "velocity": 0,
        "byte9": true
    },
    {
        "deltaTime": 0,
        "running": true,
        "channel": 2,
        "type": "noteOn",
        "noteNumber": 65,
        "velocity": 78
    },
    {
        "deltaTime": 0,
        "running": true,
        "channel": 2,
        "type": "noteOff",
        "noteNumber": 69,
        "velocity": 0,
        "byte9": true
    },
    {
        "deltaTime": 0,
        "running": true,
        "channel": 2,
        "type": "noteOn",
        "noteNumber": 69,
        "velocity": 78
    },
    {
        "deltaTime": 0,
        "channel": 6,
        "type": "noteOff",
        "noteNumber": 53,
        "velocity": 0,
        "byte9": true
    },
    {
        "deltaTime": 0,
        "running": true,
        "channel": 6,
        "type": "noteOn",
        "noteNumber": 53,
        "velocity": 80
    },
    {
        "deltaTime": 0,
        "running": true,
        "channel": 6,
        "type": "noteOff",
        "noteNumber": 57,
        "velocity": 0,
        "byte9": true
    },
    {
        "deltaTime": 0,
        "running": true,
        "channel": 6,
        "type": "noteOn",
        "noteNumber": 57,
        "velocity": 80
    },
    {
        "deltaTime": 0,
        "running": true,
        "channel": 6,
        "type": "noteOn",
        "noteNumber": 60,
        "velocity": 80
    },
    {
        "deltaTime": 0,
        "running": true,
        "channel": 6,
        "type": "noteOff",
        "noteNumber": 62,
        "velocity": 0,
        "byte9": true
    },
    {
        "deltaTime": 0,
        "channel": 7,
        "type": "noteOn",
        "noteNumber": 72,
        "velocity": 117
    },
    {
        "deltaTime": 0,
        "channel": 9,
        "type": "noteOn",
        "noteNumber": 35,
        "velocity": 105
    },
    {
        "deltaTime": 0,
        "channel": 10,
        "type": "noteOn",
        "noteNumber": 72,
        "velocity": 121
    },
    {
        "deltaTime": 11,
        "channel": 4,
        "type": "noteOn",
        "noteNumber": 65,
        "velocity": 78
    },
    {
        "deltaTime": 0,
        "running": true,
        "channel": 4,
        "type": "noteOn",
        "noteNumber": 69,
        "velocity": 78
    },
    {
        "deltaTime": 1,
        "running": true,
        "channel": 4,
        "type": "noteOff",
        "noteNumber": 65,
        "velocity": 0,
        "byte9": true
    },
    {
        "deltaTime": 0,
        "running": true,
        "channel": 4,
        "type": "noteOff",
        "noteNumber": 69,
        "velocity": 0,
        "byte9": true
    },
    {
        "deltaTime": 0,
        "channel": 9,
        "type": "noteOff",
        "noteNumber": 35,
        "velocity": 0,
        "byte9": true
    },
    {
        "deltaTime": 13,
        "channel": 5,
        "type": "noteOn",
        "noteNumber": 72,
        "velocity": 127
    },
    {
        "deltaTime": 455,
        "channel": 1,
        "type": "noteOff",
        "noteNumber": 29,
        "velocity": 0,
        "byte9": true
    },
    {
        "deltaTime": 0,
        "channel": 1,
        "type": "noteOn",
        "noteNumber": 29,
        "velocity": 106
    },
    {
        "deltaTime": 0,
        "channel": 3,
        "type": "noteOn",
        "noteNumber": 69,
        "velocity": 119
    },
    {
        "deltaTime": 0,
        "channel": 9,
        "type": "noteOn",
        "noteNumber": 35,
        "velocity": 105
    },
    {
        "deltaTime": 12,
        "running": true,
        "channel": 9,
        "type": "noteOff",
        "noteNumber": 35,
        "velocity": 0,
        "byte9": true
    },
    {
        "deltaTime": 161,
        "channel": 1,
        "type": "noteOff",
        "noteNumber": 29,
        "velocity": 0,
        "byte9": true
    },
    {
        "deltaTime": 67,
        "running": true,
        "channel": 1,
        "type": "noteOn",
        "noteNumber": 29,
        "velocity": 106
    },
    {
        "deltaTime": 0,
        "channel": 9,
        "type": "noteOn",
        "noteNumber": 35,
        "velocity": 105
    },
    {
        "deltaTime": 12,
        "running": true,
        "channel": 9,
        "type": "noteOff",
        "noteNumber": 35,
        "velocity": 0,
        "byte9": true
    },
    {
        "deltaTime": 65,
        "channel": 5,
        "type": "noteOff",
        "noteNumber": 72,
        "velocity": 0,
        "byte9": true
    },
    {
        "deltaTime": 283,
        "channel": 3,
        "type": "noteOn",
        "noteNumber": 67,
        "velocity": 105
    },
    {
        "deltaTime": 0,
        "channel": 9,
        "type": "noteOn",
        "noteNumber": 69,
        "velocity": 105
    },
    {
        "deltaTime": 10,
        "channel": 3,
        "type": "noteOff",
        "noteNumber": 69,
        "velocity": 0,
        "byte9": true
    },
    {
        "deltaTime": 2,
        "channel": 9,
        "type": "noteOff",
        "noteNumber": 69,
        "velocity": 0,
        "byte9": true
    },
    {
        "deltaTime": 78,
        "channel": 3,
        "type": "noteOff",
        "noteNumber": 67,
        "velocity": 0,
        "byte9": true
    },
    {
        "deltaTime": 26,
        "channel": 5,
        "type": "noteOn",
        "noteNumber": 67,
        "velocity": 119
    },
    {
        "deltaTime": 0,
        "channel": 3,
        "type": "noteOn",
        "noteNumber": 69,
        "velocity": 105
    },
    {
        "deltaTime": 0,
        "channel": 9,
        "type": "noteOn",
        "noteNumber": 54,
        "velocity": 105
    },
    {
        "deltaTime": 12,
        "running": true,
        "channel": 9,
        "type": "noteOff",
        "noteNumber": 54,
        "velocity": 0,
        "byte9": true
    },
    {
        "deltaTime": 161,
        "channel": 7,
        "type": "noteOff",
        "noteNumber": 72,
        "velocity": 0,
        "byte9": true
    },
    {
        "deltaTime": 69,
        "channel": 5,
        "type": "noteOn",
        "noteNumber": 65,
        "velocity": 127
    },
    {
        "deltaTime": 24,
        "running": true,
        "channel": 5,
        "type": "noteOff",
        "noteNumber": 67,
        "velocity": 0,
        "byte9": true
    },
    {
        "deltaTime": 94,
        "channel": 1,
        "type": "noteOff",
        "noteNumber": 29,
        "velocity": 0,
        "byte9": true
    },
    {
        "deltaTime": 120,
        "running": true,
        "channel": 1,
        "type": "noteOn",
        "noteNumber": 29,
        "velocity": 106
    },
    {
        "deltaTime": 0,
        "channel": 9,
        "type": "noteOn",
        "noteNumber": 35,
        "velocity": 105
    },
    {
        "deltaTime": 12,
        "running": true,
        "channel": 9,
        "type": "noteOff",
        "noteNumber": 35,
        "velocity": 0,
        "byte9": true
    },
    {
        "deltaTime": 13,
        "channel": 5,
        "type": "noteOn",
        "noteNumber": 72,
        "velocity": 125
    },
    {
        "deltaTime": 1,
        "running": true,
        "channel": 5,
        "type": "noteOff",
        "noteNumber": 65,
        "velocity": 0,
        "byte9": true
    },
    {
        "deltaTime": 454,
        "channel": 1,
        "type": "noteOff",
        "noteNumber": 29,
        "velocity": 0,
        "byte9": true
    },
    {
        "deltaTime": 201,
        "channel": 5,
        "type": "noteOff",
        "noteNumber": 72,
        "velocity": 0,
        "byte9": true
    },
    {
        "deltaTime": 39,
        "channel": 1,
        "type": "noteOn",
        "noteNumber": 29,
        "velocity": 106
    },
    {
        "deltaTime": 0,
        "channel": 9,
        "type": "noteOn",
        "noteNumber": 35,
        "velocity": 105
    },
    {
        "deltaTime": 12,
        "running": true,
        "channel": 9,
        "type": "noteOff",
        "noteNumber": 35,
        "velocity": 0,
        "byte9": true
    },
    {
        "deltaTime": 161,
        "channel": 1,
        "type": "noteOff",
        "noteNumber": 29,
        "velocity": 0,
        "byte9": true
    },
    {
        "deltaTime": 63,
        "channel": 10,
        "type": "noteOff",
        "noteNumber": 72,
        "velocity": 0,
        "byte9": true
    },
    {
        "deltaTime": 4,
        "channel": 1,
        "type": "noteOn",
        "noteNumber": 29,
        "velocity": 106
    },
    {
        "deltaTime": 0,
        "channel": 9,
        "type": "noteOn",
        "noteNumber": 35,
        "velocity": 105
    },
    {
        "deltaTime": 0,
        "channel": 10,
        "type": "noteOn",
        "noteNumber": 69,
        "velocity": 121
    },
    {
        "deltaTime": 12,
        "channel": 5,
        "type": "noteOn",
        "noteNumber": 69,
        "velocity": 114
    },
    {
        "deltaTime": 0,
        "channel": 9,
        "type": "noteOff",
        "noteNumber": 35,
        "velocity": 0,
        "byte9": true
    },
    {
        "deltaTime": 224,
        "channel": 10,
        "type": "noteOff",
        "noteNumber": 69,
        "velocity": 0,
        "byte9": true
    },
    {
        "deltaTime": 4,
        "running": true,
        "channel": 10,
        "type": "noteOn",
        "noteNumber": 67,
        "velocity": 121
    },
    {
        "deltaTime": 100,
        "channel": 5,
        "type": "noteOff",
        "noteNumber": 69,
        "velocity": 0,
        "byte9": true
    },
    {
        "deltaTime": 19,
        "running": true,
        "channel": 5,
        "type": "noteOn",
        "noteNumber": 67,
        "velocity": 114
    },
    {
        "deltaTime": 1,
        "channel": 9,
        "type": "noteOn",
        "noteNumber": 69,
        "velocity": 105
    },
    {
        "deltaTime": 12,
        "running": true,
        "channel": 9,
        "type": "noteOff",
        "noteNumber": 69,
        "velocity": 0,
        "byte9": true
    },
    {
        "deltaTime": 108,
        "running": true,
        "channel": 9,
        "type": "noteOn",
        "noteNumber": 54,
        "velocity": 105
    },
    {
        "deltaTime": 12,
        "running": true,
        "channel": 9,
        "type": "noteOff",
        "noteNumber": 54,
        "velocity": 0,
        "byte9": true
    },
    {
        "deltaTime": 14,
        "channel": 3,
        "type": "noteOff",
        "noteNumber": 69,
        "velocity": 0,
        "byte9": true
    },
    {
        "deltaTime": 90,
        "channel": 10,
        "type": "noteOff",
        "noteNumber": 67,
        "velocity": 0,
        "byte9": true
    },
    {
        "deltaTime": 4,
        "running": true,
        "channel": 10,
        "type": "noteOn",
        "noteNumber": 65,
        "velocity": 121
    },
    {
        "deltaTime": 72,
        "channel": 5,
        "type": "noteOff",
        "noteNumber": 67,
        "velocity": 0,
        "byte9": true
    },
    {
        "deltaTime": 47,
        "running": true,
        "channel": 5,
        "type": "noteOn",
        "noteNumber": 65,
        "velocity": 114
    },
    {
        "deltaTime": 121,
        "channel": 1,
        "type": "noteOff",
        "noteNumber": 29,
        "velocity": 0,
        "byte9": true
    },
    {
        "deltaTime": 116,
        "channel": 10,
        "type": "noteOff",
        "noteNumber": 65,
        "velocity": 0,
        "byte9": true
    },
    {
        "deltaTime": 4,
        "channel": 1,
        "type": "noteOn",
        "noteNumber": 33,
        "velocity": 106
    },
    {
        "deltaTime": 0,
        "channel": 2,
        "type": "noteOn",
        "noteNumber": 64,
        "velocity": 78
    },
    {
        "deltaTime": 0,
        "running": true,
        "channel": 2,
        "type": "noteOff",
        "noteNumber": 65,
        "velocity": 0,
        "byte9": true
    },
    {
        "deltaTime": 0,
        "running": true,
        "channel": 2,
        "type": "noteOff",
        "noteNumber": 69,
        "velocity": 0,
        "byte9": true
    },
    {
        "deltaTime": 0,
        "running": true,
        "channel": 2,
        "type": "noteOn",
        "noteNumber": 69,
        "velocity": 78
    },
    {
        "deltaTime": 0,
        "channel": 5,
        "type": "noteOn",
        "noteNumber": 61,
        "velocity": 104
    },
    {
        "deltaTime": 0,
        "running": true,
        "channel": 5,
        "type": "noteOn",
        "noteNumber": 69,
        "velocity": 104
    },
    {
        "deltaTime": 0,
        "channel": 6,
        "type": "noteOn",
        "noteNumber": 52,
        "velocity": 80
    },
    {
        "deltaTime": 0,
        "running": true,
        "channel": 6,
        "type": "noteOff",
        "noteNumber": 53,
        "velocity": 0,
        "byte9": true
    },
    {
        "deltaTime": 0,
        "running": true,
        "channel": 6,
        "type": "noteOff",
        "noteNumber": 57,
        "velocity": 0,
        "byte9": true
    },
    {
        "deltaTime": 0,
        "running": true,
        "channel": 6,
        "type": "noteOn",
        "noteNumber": 57,
        "velocity": 80
    },
    {
        "deltaTime": 0,
        "running": true,
        "channel": 6,
        "type": "noteOff",
        "noteNumber": 60,
        "velocity": 0,
        "byte9": true
    },
    {
        "deltaTime": 0,
        "running": true,
        "channel": 6,
        "type": "noteOn",
        "noteNumber": 61,
        "velocity": 80
    },
    {
        "deltaTime": 0,
        "channel": 7,
        "type": "noteOn",
        "noteNumber": 73,
        "velocity": 117
    },
    {
        "deltaTime": 0,
        "channel": 9,
        "type": "noteOn",
        "noteNumber": 35,
        "velocity": 105
    },
    {
        "deltaTime": 0,
        "channel": 10,
        "type": "noteOn",
        "noteNumber": 69,
        "velocity": 121
    },
    {
        "deltaTime": 11,
        "channel": 4,
        "type": "noteOn",
        "noteNumber": 64,
        "velocity": 78
    },
    {
        "deltaTime": 0,
        "running": true,
        "channel": 4,
        "type": "noteOn",
        "noteNumber": 69,
        "velocity": 78
    },
    {
        "deltaTime": 1,
        "running": true,
        "channel": 4,
        "type": "noteOff",
        "noteNumber": 65,
        "velocity": 0,
        "byte9": true
    },
    {
        "deltaTime": 0,
        "running": true,
        "channel": 4,
        "type": "noteOff",
        "noteNumber": 69,
        "velocity": 0,
        "byte9": true
    },
    {
        "deltaTime": 0,
        "channel": 5,
        "type": "noteOff",
        "noteNumber": 65,
        "velocity": 0,
        "byte9": true
    },
    {
        "deltaTime": 0,
        "channel": 9,
        "type": "noteOff",
        "noteNumber": 35,
        "velocity": 0,
        "byte9": true
    },
    {
        "deltaTime": 4,
        "channel": 5,
        "type": "noteOn",
        "noteNumber": 64,
        "velocity": 104
    },
    {
        "deltaTime": 0,
        "channel": 1,
        "type": "noteOff",
        "noteNumber": 33,
        "velocity": 0,
        "byte9": true
    },
    {
        "deltaTime": 0,
        "channel": 3,
        "type": "noteOn",
        "noteNumber": 77,
        "velocity": 105
    },
    {
        "deltaTime": 240,
        "channel": 1,
        "type": "noteOn",
        "noteNumber": 33,
        "velocity": 106
    },
    {
        "deltaTime": 0,
        "channel": 9,
        "type": "noteOn",
        "noteNumber": 35,
        "velocity": 105
    },
    {
        "deltaTime": 12,
        "running": true,
        "channel": 9,
        "type": "noteOff",
        "noteNumber": 35,
        "velocity": 0,
        "byte9": true
    },
    {
        "deltaTime": 161,
        "channel": 1,
        "type": "noteOff",
        "noteNumber": 33,
        "velocity": 0,
        "byte9": true
    },
    {
        "deltaTime": 63,
        "channel": 3,
        "type": "noteOff",
        "noteNumber": 77,
        "velocity": 0,
        "byte9": true
    },
    {
        "deltaTime": 0,
        "channel": 1,
        "type": "noteOn",
        "noteNumber": 33,
        "velocity": 106
    },
    {
        "deltaTime": 0,
        "channel": 3,
        "type": "noteOn",
        "noteNumber": 76,
        "velocity": 105
    },
    {
        "deltaTime": 0,
        "channel": 9,
        "type": "noteOn",
        "noteNumber": 35,
        "velocity": 105
    },
    {
        "deltaTime": 12,
        "running": true,
        "channel": 9,
        "type": "noteOff",
        "noteNumber": 35,
        "velocity": 0,
        "byte9": true
    },
    {
        "deltaTime": 348,
        "running": true,
        "channel": 9,
        "type": "noteOn",
        "noteNumber": 69,
        "velocity": 105
    },
    {
        "deltaTime": 12,
        "running": true,
        "channel": 9,
        "type": "noteOff",
        "noteNumber": 69,
        "velocity": 0,
        "byte9": true
    },
    {
        "deltaTime": 108,
        "running": true,
        "channel": 9,
        "type": "noteOn",
        "noteNumber": 54,
        "velocity": 105
    },
    {
        "deltaTime": 12,
        "running": true,
        "channel": 9,
        "type": "noteOff",
        "noteNumber": 54,
        "velocity": 0,
        "byte9": true
    },
    {
        "deltaTime": 161,
        "channel": 7,
        "type": "noteOff",
        "noteNumber": 73,
        "velocity": 0,
        "byte9": true
    },
    {
        "deltaTime": 187,
        "channel": 1,
        "type": "noteOff",
        "noteNumber": 33,
        "velocity": 0,
        "byte9": true
    },
    {
        "deltaTime": 69,
        "channel": 5,
        "type": "noteOff",
        "noteNumber": 61,
        "velocity": 0,
        "byte9": true
    },
    {
        "deltaTime": 0,
        "running": true,
        "channel": 5,
        "type": "noteOff",
        "noteNumber": 69,
        "velocity": 0,
        "byte9": true
    },
    {
        "deltaTime": 16,
        "running": true,
        "channel": 5,
        "type": "noteOff",
        "noteNumber": 64,
        "velocity": 0,
        "byte9": true
    },
    {
        "deltaTime": 4,
        "channel": 10,
        "type": "noteOff",
        "noteNumber": 69,
        "velocity": 0,
        "byte9": true
    },
    {
        "deltaTime": 27,
        "channel": 3,
        "type": "noteOff",
        "noteNumber": 76,
        "velocity": 0,
        "byte9": true
    },
    {
        "deltaTime": 0,
        "channel": 1,
        "type": "noteOn",
        "noteNumber": 33,
        "velocity": 106
    },
    {
        "deltaTime": 0,
        "channel": 2,
        "type": "noteOn",
        "noteNumber": 67,
        "velocity": 96
    },
    {
        "deltaTime": 0,
        "running": true,
        "channel": 2,
        "type": "noteOff",
        "noteNumber": 69,
        "velocity": 0,
        "byte9": true
    },
    {
        "deltaTime": 0,
        "channel": 3,
        "type": "noteOn",
        "noteNumber": 74,
        "velocity": 105
    },
    {
        "deltaTime": 0,
        "channel": 5,
        "type": "noteOn",
        "noteNumber": 58,
        "velocity": 127
    },
    {
        "deltaTime": 0,
        "running": true,
        "channel": 5,
        "type": "noteOn",
        "noteNumber": 62,
        "velocity": 97
    },
    {
        "deltaTime": 0,
        "running": true,
        "channel": 5,
        "type": "noteOn",
        "noteNumber": 67,
        "velocity": 114
    },
    {
        "deltaTime": 0,
        "channel": 6,
        "type": "noteOff",
        "noteNumber": 57,
        "velocity": 0,
        "byte9": true
    },
    {
        "deltaTime": 0,
        "running": true,
        "channel": 6,
        "type": "noteOn",
        "noteNumber": 58,
        "velocity": 107
    },
    {
        "deltaTime": 0,
        "channel": 9,
        "type": "noteOn",
        "noteNumber": 35,
        "velocity": 105
    },
    {
        "deltaTime": 0,
        "channel": 10,
        "type": "noteOn",
        "noteNumber": 67,
        "velocity": 121
    },
    {
        "deltaTime": 12,
        "channel": 9,
        "type": "noteOff",
        "noteNumber": 35,
        "velocity": 0,
        "byte9": true
    },
    {
        "deltaTime": 468,
        "channel": 1,
        "type": "noteOff",
        "noteNumber": 33,
        "velocity": 0,
        "byte9": true
    },
    {
        "deltaTime": 240,
        "running": true,
        "channel": 1,
        "type": "noteOn",
        "noteNumber": 33,
        "velocity": 106
    },
    {
        "deltaTime": 0,
        "channel": 9,
        "type": "noteOn",
        "noteNumber": 35,
        "velocity": 105
    },
    {
        "deltaTime": 12,
        "running": true,
        "channel": 9,
        "type": "noteOff",
        "noteNumber": 35,
        "velocity": 0,
        "byte9": true
    },
    {
        "deltaTime": 161,
        "channel": 1,
        "type": "noteOff",
        "noteNumber": 33,
        "velocity": 0,
        "byte9": true
    },
    {
        "deltaTime": 63,
        "channel": 3,
        "type": "noteOff",
        "noteNumber": 74,
        "velocity": 0,
        "byte9": true
    },
    {
        "deltaTime": 0,
        "channel": 5,
        "type": "noteOff",
        "noteNumber": 58,
        "velocity": 0,
        "byte9": true
    },
    {
        "deltaTime": 0,
        "channel": 6,
        "type": "noteOff",
        "noteNumber": 58,
        "velocity": 0,
        "byte9": true
    },
    {
        "deltaTime": 0,
        "channel": 1,
        "type": "noteOn",
        "noteNumber": 33,
        "velocity": 106
    },
    {
        "deltaTime": 0,
        "channel": 3,
        "type": "noteOn",
        "noteNumber": 73,
        "velocity": 105
    },
    {
        "deltaTime": 0,
        "channel": 5,
        "type": "noteOn",
        "noteNumber": 57,
        "velocity": 127
    },
    {
        "deltaTime": 0,
        "channel": 6,
        "type": "noteOn",
        "noteNumber": 57,
        "velocity": 107
    },
    {
        "deltaTime": 0,
        "channel": 9,
        "type": "noteOn",
        "noteNumber": 35,
        "velocity": 105
    },
    {
        "deltaTime": 12,
        "running": true,
        "channel": 9,
        "type": "noteOff",
        "noteNumber": 35,
        "velocity": 0,
        "byte9": true
    },
    {
        "deltaTime": 348,
        "running": true,
        "channel": 9,
        "type": "noteOn",
        "noteNumber": 69,
        "velocity": 105
    },
    {
        "deltaTime": 12,
        "running": true,
        "channel": 9,
        "type": "noteOff",
        "noteNumber": 69,
        "velocity": 0,
        "byte9": true
    },
    {
        "deltaTime": 108,
        "running": true,
        "channel": 9,
        "type": "noteOn",
        "noteNumber": 54,
        "velocity": 105
    },
    {
        "deltaTime": 12,
        "running": true,
        "channel": 9,
        "type": "noteOff",
        "noteNumber": 54,
        "velocity": 0,
        "byte9": true
    },
    {
        "deltaTime": 348,
        "channel": 1,
        "type": "noteOff",
        "noteNumber": 33,
        "velocity": 0,
        "byte9": true
    },
    {
        "deltaTime": 41,
        "channel": 5,
        "type": "noteOff",
        "noteNumber": 62,
        "velocity": 0,
        "byte9": true
    },
    {
        "deltaTime": 3,
        "running": true,
        "channel": 5,
        "type": "noteOff",
        "noteNumber": 67,
        "velocity": 0,
        "byte9": true
    },
    {
        "deltaTime": 45,
        "channel": 10,
        "type": "noteOff",
        "noteNumber": 67,
        "velocity": 0,
        "byte9": true
    },
    {
        "deltaTime": 27,
        "channel": 5,
        "type": "noteOff",
        "noteNumber": 57,
        "velocity": 0,
        "byte9": true
    },
    {
        "deltaTime": 4,
        "channel": 1,
        "type": "noteOn",
        "noteNumber": 33,
        "velocity": 106
    },
    {
        "deltaTime": 0,
        "channel": 2,
        "type": "noteOff",
        "noteNumber": 64,
        "velocity": 0,
        "byte9": true
    },
    {
        "deltaTime": 0,
        "running": true,
        "channel": 2,
        "type": "noteOff",
        "noteNumber": 67,
        "velocity": 0,
        "byte9": true
    },
    {
        "deltaTime": 0,
        "channel": 5,
        "type": "noteOn",
        "noteNumber": 57,
        "velocity": 114
    },
    {
        "deltaTime": 0,
        "running": true,
        "channel": 5,
        "type": "noteOn",
        "noteNumber": 65,
        "velocity": 97
    },
    {
        "deltaTime": 0,
        "running": true,
        "channel": 5,
        "type": "noteOn",
        "noteNumber": 67,
        "velocity": 107
    },
    {
        "deltaTime": 0,
        "running": true,
        "channel": 5,
        "type": "noteOn",
        "noteNumber": 70,
        "velocity": 122
    },
    {
        "deltaTime": 0,
        "channel": 6,
        "type": "noteOff",
        "noteNumber": 52,
        "velocity": 0,
        "byte9": true
    },
    {
        "deltaTime": 0,
        "running": true,
        "channel": 6,
        "type": "noteOn",
        "noteNumber": 53,
        "velocity": 80
    },
    {
        "deltaTime": 0,
        "channel": 9,
        "type": "noteOn",
        "noteNumber": 35,
        "velocity": 105
    },
    {
        "deltaTime": 0,
        "channel": 10,
        "type": "noteOn",
        "noteNumber": 65,
        "velocity": 121
    },
    {
        "deltaTime": 7,
        "channel": 4,
        "type": "noteOff",
        "noteNumber": 64,
        "velocity": 0,
        "byte9": true
    },
    {
        "deltaTime": 4,
        "running": true,
        "channel": 4,
        "type": "noteOn",
        "noteNumber": 65,
        "velocity": 78
    },
    {
        "deltaTime": 1,
        "channel": 9,
        "type": "noteOff",
        "noteNumber": 35,
        "velocity": 0,
        "byte9": true
    },
    {
        "deltaTime": 14,
        "channel": 3,
        "type": "noteOff",
        "noteNumber": 73,
        "velocity": 0,
        "byte9": true
    },
    {
        "deltaTime": 0,
        "channel": 1,
        "type": "noteOff",
        "noteNumber": 33,
        "velocity": 0,
        "byte9": true
    },
    {
        "deltaTime": 0,
        "channel": 3,
        "type": "noteOn",
        "noteNumber": 77,
        "velocity": 105
    },
    {
        "deltaTime": 240,
        "channel": 1,
        "type": "noteOn",
        "noteNumber": 33,
        "velocity": 106
    },
    {
        "deltaTime": 0,
        "channel": 9,
        "type": "noteOn",
        "noteNumber": 35,
        "velocity": 105
    },
    {
        "deltaTime": 12,
        "running": true,
        "channel": 9,
        "type": "noteOff",
        "noteNumber": 35,
        "velocity": 0,
        "byte9": true
    },
    {
        "deltaTime": 161,
        "channel": 1,
        "type": "noteOff",
        "noteNumber": 33,
        "velocity": 0,
        "byte9": true
    },
    {
        "deltaTime": 63,
        "channel": 3,
        "type": "noteOff",
        "noteNumber": 77,
        "velocity": 0,
        "byte9": true
    },
    {
        "deltaTime": 0,
        "channel": 1,
        "type": "noteOn",
        "noteNumber": 33,
        "velocity": 106
    },
    {
        "deltaTime": 0,
        "channel": 3,
        "type": "noteOn",
        "noteNumber": 76,
        "velocity": 105
    },
    {
        "deltaTime": 0,
        "channel": 9,
        "type": "noteOn",
        "noteNumber": 35,
        "velocity": 105
    },
    {
        "deltaTime": 12,
        "running": true,
        "channel": 9,
        "type": "noteOff",
        "noteNumber": 35,
        "velocity": 0,
        "byte9": true
    },
    {
        "deltaTime": 348,
        "running": true,
        "channel": 9,
        "type": "noteOn",
        "noteNumber": 69,
        "velocity": 105
    },
    {
        "deltaTime": 12,
        "running": true,
        "channel": 9,
        "type": "noteOff",
        "noteNumber": 69,
        "velocity": 0,
        "byte9": true
    },
    {
        "deltaTime": 108,
        "running": true,
        "channel": 9,
        "type": "noteOn",
        "noteNumber": 54,
        "velocity": 105
    },
    {
        "deltaTime": 12,
        "running": true,
        "channel": 9,
        "type": "noteOff",
        "noteNumber": 54,
        "velocity": 0,
        "byte9": true
    },
    {
        "deltaTime": 348,
        "channel": 1,
        "type": "noteOff",
        "noteNumber": 33,
        "velocity": 0,
        "byte9": true
    },
    {
        "deltaTime": 83,
        "channel": 5,
        "type": "noteOff",
        "noteNumber": 67,
        "velocity": 0,
        "byte9": true
    },
    {
        "deltaTime": 5,
        "running": true,
        "channel": 5,
        "type": "noteOff",
        "noteNumber": 65,
        "velocity": 0,
        "byte9": true
    },
    {
        "deltaTime": 1,
        "channel": 10,
        "type": "noteOff",
        "noteNumber": 65,
        "velocity": 0,
        "byte9": true
    },
    {
        "deltaTime": 2,
        "channel": 5,
        "type": "noteOff",
        "noteNumber": 70,
        "velocity": 0,
        "byte9": true
    },
    {
        "deltaTime": 17,
        "running": true,
        "channel": 5,
        "type": "noteOff",
        "noteNumber": 57,
        "velocity": 0,
        "byte9": true
    },
    {
        "deltaTime": 8,
        "channel": 3,
        "type": "noteOff",
        "noteNumber": 76,
        "velocity": 0,
        "byte9": true
    },
    {
        "deltaTime": 0,
        "channel": 6,
        "type": "noteOff",
        "noteNumber": 53,
        "velocity": 0,
        "byte9": true
    },
    {
        "deltaTime": 0,
        "channel": 1,
        "type": "noteOn",
        "noteNumber": 33,
        "velocity": 106
    },
    {
        "deltaTime": 0,
        "channel": 3,
        "type": "noteOn",
        "noteNumber": 74,
        "velocity": 105
    },
    {
        "deltaTime": 0,
        "channel": 5,
        "type": "noteOn",
        "noteNumber": 61,
        "velocity": 104
    },
    {
        "deltaTime": 0,
        "running": true,
        "channel": 5,
        "type": "noteOn",
        "noteNumber": 64,
        "velocity": 97
    },
    {
        "deltaTime": 0,
        "running": true,
        "channel": 5,
        "type": "noteOn",
        "noteNumber": 67,
        "velocity": 109
    },
    {
        "deltaTime": 0,
        "running": true,
        "channel": 5,
        "type": "noteOn",
        "noteNumber": 69,
        "velocity": 97
    },
    {
        "deltaTime": 0,
        "channel": 6,
        "type": "noteOn",
        "noteNumber": 52,
        "velocity": 80
    },
    {
        "deltaTime": 0,
        "channel": 9,
        "type": "noteOn",
        "noteNumber": 35,
        "velocity": 105
    },
    {
        "deltaTime": 0,
        "channel": 10,
        "type": "noteOn",
        "noteNumber": 64,
        "velocity": 121
    },
    {
        "deltaTime": 7,
        "channel": 4,
        "type": "noteOff",
        "noteNumber": 65,
        "velocity": 0,
        "byte9": true
    },
    {
        "deltaTime": 4,
        "running": true,
        "channel": 4,
        "type": "noteOn",
        "noteNumber": 64,
        "velocity": 78
    },
    {
        "deltaTime": 1,
        "channel": 9,
        "type": "noteOff",
        "noteNumber": 35,
        "velocity": 0,
        "byte9": true
    },
    {
        "deltaTime": 468,
        "channel": 1,
        "type": "noteOff",
        "noteNumber": 33,
        "velocity": 0,
        "byte9": true
    },
    {
        "deltaTime": 240,
        "running": true,
        "channel": 1,
        "type": "noteOn",
        "noteNumber": 33,
        "velocity": 106
    },
    {
        "deltaTime": 0,
        "channel": 9,
        "type": "noteOn",
        "noteNumber": 35,
        "velocity": 105
    },
    {
        "deltaTime": 12,
        "running": true,
        "channel": 9,
        "type": "noteOff",
        "noteNumber": 35,
        "velocity": 0,
        "byte9": true
    },
    {
        "deltaTime": 161,
        "channel": 1,
        "type": "noteOff",
        "noteNumber": 33,
        "velocity": 0,
        "byte9": true
    },
    {
        "deltaTime": 63,
        "channel": 3,
        "type": "noteOff",
        "noteNumber": 74,
        "velocity": 0,
        "byte9": true
    },
    {
        "deltaTime": 0,
        "channel": 1,
        "type": "noteOn",
        "noteNumber": 33,
        "velocity": 106
    },
    {
        "deltaTime": 0,
        "channel": 3,
        "type": "noteOn",
        "noteNumber": 73,
        "velocity": 105
    },
    {
        "deltaTime": 0,
        "channel": 9,
        "type": "noteOn",
        "noteNumber": 35,
        "velocity": 105
    },
    {
        "deltaTime": 12,
        "running": true,
        "channel": 9,
        "type": "noteOff",
        "noteNumber": 35,
        "velocity": 0,
        "byte9": true
    },
    {
        "deltaTime": 348,
        "running": true,
        "channel": 9,
        "type": "noteOn",
        "noteNumber": 69,
        "velocity": 105
    },
    {
        "deltaTime": 12,
        "running": true,
        "channel": 9,
        "type": "noteOff",
        "noteNumber": 69,
        "velocity": 0,
        "byte9": true
    },
    {
        "deltaTime": 108,
        "running": true,
        "channel": 9,
        "type": "noteOn",
        "noteNumber": 54,
        "velocity": 105
    },
    {
        "deltaTime": 12,
        "running": true,
        "channel": 9,
        "type": "noteOff",
        "noteNumber": 54,
        "velocity": 0,
        "byte9": true
    },
    {
        "deltaTime": 131,
        "channel": 5,
        "type": "noteOff",
        "noteNumber": 64,
        "velocity": 0,
        "byte9": true
    },
    {
        "deltaTime": 5,
        "running": true,
        "channel": 5,
        "type": "noteOff",
        "noteNumber": 69,
        "velocity": 0,
        "byte9": true
    },
    {
        "deltaTime": 4,
        "running": true,
        "channel": 5,
        "type": "noteOff",
        "noteNumber": 67,
        "velocity": 0,
        "byte9": true
    },
    {
        "deltaTime": 1,
        "running": true,
        "channel": 5,
        "type": "noteOff",
        "noteNumber": 61,
        "velocity": 0,
        "byte9": true
    },
    {
        "deltaTime": 207,
        "channel": 1,
        "type": "noteOff",
        "noteNumber": 33,
        "velocity": 0,
        "byte9": true
    },
    {
        "deltaTime": 89,
        "channel": 10,
        "type": "noteOff",
        "noteNumber": 64,
        "velocity": 0,
        "byte9": true
    },
    {
        "deltaTime": 27,
        "channel": 6,
        "type": "noteOff",
        "noteNumber": 52,
        "velocity": 0,
        "byte9": true
    },
    {
        "deltaTime": 0,
        "running": true,
        "channel": 6,
        "type": "noteOff",
        "noteNumber": 57,
        "velocity": 0,
        "byte9": true
    },
    {
        "deltaTime": 0,
        "channel": 1,
        "type": "noteOn",
        "noteNumber": 38,
        "velocity": 110
    },
    {
        "deltaTime": 0,
        "channel": 5,
        "type": "noteOn",
        "noteNumber": 74,
        "velocity": 101
    },
    {
        "deltaTime": 0,
        "running": true,
        "channel": 5,
        "type": "noteOn",
        "noteNumber": 77,
        "velocity": 97
    },
    {
        "deltaTime": 0,
        "running": true,
        "channel": 5,
        "type": "noteOn",
        "noteNumber": 81,
        "velocity": 105
    },
    {
        "deltaTime": 0,
        "channel": 6,
        "type": "noteOff",
        "noteNumber": 61,
        "velocity": 0,
        "byte9": true
    },
    {
        "deltaTime": 0,
        "channel": 8,
        "type": "noteOn",
        "noteNumber": 38,
        "velocity": 110
    },
    {
        "deltaTime": 0,
        "channel": 9,
        "type": "noteOn",
        "noteNumber": 35,
        "velocity": 114
    },
    {
        "deltaTime": 0,
        "channel": 10,
        "type": "noteOn",
        "noteNumber": 74,
        "velocity": 104
    },
    {
        "deltaTime": 0,
        "channel": 11,
        "type": "noteOn",
        "noteNumber": 41,
        "velocity": 114
    },
    {
        "deltaTime": 12,
        "channel": 4,
        "type": "noteOff",
        "noteNumber": 69,
        "velocity": 0,
        "byte9": true
    },
    {
        "deltaTime": 0,
        "channel": 9,
        "type": "noteOff",
        "noteNumber": 35,
        "velocity": 0,
        "byte9": true
    },
    {
        "deltaTime": 7,
        "channel": 14,
        "type": "noteOn",
        "noteNumber": 62,
        "velocity": 101
    },
    {
        "deltaTime": 0,
        "running": true,
        "channel": 14,
        "type": "noteOn",
        "noteNumber": 65,
        "velocity": 97
    },
    {
        "deltaTime": 0,
        "running": true,
        "channel": 14,
        "type": "noteOn",
        "noteNumber": 69,
        "velocity": 105
    },
    {
        "deltaTime": 7,
        "channel": 3,
        "type": "noteOff",
        "noteNumber": 73,
        "velocity": 0,
        "byte9": true
    },
    {
        "deltaTime": 47,
        "channel": 5,
        "type": "noteOff",
        "noteNumber": 81,
        "velocity": 0,
        "byte9": true
    },
    {
        "deltaTime": 20,
        "channel": 14,
        "type": "noteOff",
        "noteNumber": 69,
        "velocity": 0,
        "byte9": true
    },
    {
        "deltaTime": 28,
        "channel": 5,
        "type": "noteOff",
        "noteNumber": 77,
        "velocity": 0,
        "byte9": true
    },
    {
        "deltaTime": 2,
        "running": true,
        "channel": 5,
        "type": "noteOff",
        "noteNumber": 74,
        "velocity": 0,
        "byte9": true
    },
    {
        "deltaTime": 17,
        "channel": 14,
        "type": "noteOff",
        "noteNumber": 65,
        "velocity": 0,
        "byte9": true
    },
    {
        "deltaTime": 2,
        "running": true,
        "channel": 14,
        "type": "noteOff",
        "noteNumber": 62,
        "velocity": 0,
        "byte9": true
    },
    {
        "deltaTime": 19,
        "channel": 11,
        "type": "noteOff",
        "noteNumber": 41,
        "velocity": 0,
        "byte9": true
    },
    {
        "deltaTime": 319,
        "channel": 5,
        "type": "noteOn",
        "noteNumber": 74,
        "velocity": 111
    },
    {
        "deltaTime": 0,
        "running": true,
        "channel": 5,
        "type": "noteOn",
        "noteNumber": 77,
        "velocity": 107
    },
    {
        "deltaTime": 0,
        "running": true,
        "channel": 5,
        "type": "noteOn",
        "noteNumber": 81,
        "velocity": 105
    },
    {
        "deltaTime": 0,
        "channel": 9,
        "type": "noteOn",
        "noteNumber": 44,
        "velocity": 107
    },
    {
        "deltaTime": 0,
        "running": true,
        "channel": 9,
        "type": "noteOn",
        "noteNumber": 69,
        "velocity": 109
    },
    {
        "deltaTime": 0,
        "channel": 12,
        "type": "noteOn",
        "noteNumber": 57,
        "velocity": 110
    },
    {
        "deltaTime": 12,
        "channel": 9,
        "type": "noteOff",
        "noteNumber": 44,
        "velocity": 0,
        "byte9": true
    },
    {
        "deltaTime": 0,
        "running": true,
        "channel": 9,
        "type": "noteOff",
        "noteNumber": 69,
        "velocity": 0,
        "byte9": true
    },
    {
        "deltaTime": 1,
        "channel": 1,
        "type": "noteOff",
        "noteNumber": 38,
        "velocity": 0,
        "byte9": true
    },
    {
        "deltaTime": 0,
        "channel": 8,
        "type": "noteOff",
        "noteNumber": 38,
        "velocity": 0,
        "byte9": true
    },
    {
        "deltaTime": 6,
        "channel": 14,
        "type": "noteOn",
        "noteNumber": 62,
        "velocity": 111
    },
    {
        "deltaTime": 0,
        "running": true,
        "channel": 14,
        "type": "noteOn",
        "noteNumber": 65,
        "velocity": 107
    },
    {
        "deltaTime": 0,
        "running": true,
        "channel": 14,
        "type": "noteOn",
        "noteNumber": 69,
        "velocity": 105
    },
    {
        "deltaTime": 138,
        "channel": 5,
        "type": "noteOff",
        "noteNumber": 81,
        "velocity": 0,
        "byte9": true
    },
    {
        "deltaTime": 7,
        "running": true,
        "channel": 5,
        "type": "noteOff",
        "noteNumber": 77,
        "velocity": 0,
        "byte9": true
    },
    {
        "deltaTime": 4,
        "running": true,
        "channel": 5,
        "type": "noteOff",
        "noteNumber": 74,
        "velocity": 0,
        "byte9": true
    },
    {
        "deltaTime": 9,
        "channel": 14,
        "type": "noteOff",
        "noteNumber": 69,
        "velocity": 0,
        "byte9": true
    },
    {
        "deltaTime": 7,
        "running": true,
        "channel": 14,
        "type": "noteOff",
        "noteNumber": 65,
        "velocity": 0,
        "byte9": true
    },
    {
        "deltaTime": 4,
        "running": true,
        "channel": 14,
        "type": "noteOff",
        "noteNumber": 62,
        "velocity": 0,
        "byte9": true
    },
    {
        "deltaTime": 132,
        "channel": 1,
        "type": "noteOn",
        "noteNumber": 38,
        "velocity": 110
    },
    {
        "deltaTime": 0,
        "channel": 8,
        "type": "noteOn",
        "noteNumber": 38,
        "velocity": 110
    },
    {
        "deltaTime": 0,
        "channel": 9,
        "type": "noteOn",
        "noteNumber": 35,
        "velocity": 107
    },
    {
        "deltaTime": 0,
        "channel": 11,
        "type": "noteOn",
        "noteNumber": 41,
        "velocity": 107
    },
    {
        "deltaTime": 12,
        "channel": 9,
        "type": "noteOff",
        "noteNumber": 35,
        "velocity": 0,
        "byte9": true
    },
    {
        "deltaTime": 34,
        "channel": 1,
        "type": "noteOff",
        "noteNumber": 38,
        "velocity": 0,
        "byte9": true
    },
    {
        "deltaTime": 0,
        "channel": 8,
        "type": "noteOff",
        "noteNumber": 38,
        "velocity": 0,
        "byte9": true
    },
    {
        "deltaTime": 0,
        "channel": 3,
        "type": "noteOn",
        "noteNumber": 76,
        "velocity": 124
    },
    {
        "deltaTime": 22,
        "channel": 1,
        "type": "noteOn",
        "noteNumber": 38,
        "velocity": 110
    },
    {
        "deltaTime": 0,
        "channel": 5,
        "type": "noteOn",
        "noteNumber": 74,
        "velocity": 105
    },
    {
        "deltaTime": 0,
        "running": true,
        "channel": 5,
        "type": "noteOn",
        "noteNumber": 77,
        "velocity": 94
    },
    {
        "deltaTime": 0,
        "running": true,
        "channel": 5,
        "type": "noteOn",
        "noteNumber": 81,
        "velocity": 94
    },
    {
        "deltaTime": 0,
        "channel": 8,
        "type": "noteOn",
        "noteNumber": 38,
        "velocity": 110
    },
    {
        "deltaTime": 0,
        "channel": 9,
        "type": "noteOn",
        "noteNumber": 35,
        "velocity": 114
    },
    {
        "deltaTime": 0,
        "channel": 11,
        "type": "noteOn",
        "noteNumber": 41,
        "velocity": 114
    },
    {
        "deltaTime": 0,
        "channel": 12,
        "type": "noteOn",
        "noteNumber": 62,
        "velocity": 110
    },
    {
        "deltaTime": 1,
        "channel": 11,
        "type": "noteOff",
        "noteNumber": 41,
        "velocity": 0,
        "byte9": true
    },
    {
        "deltaTime": 11,
        "channel": 9,
        "type": "noteOff",
        "noteNumber": 35,
        "velocity": 0,
        "byte9": true
    },
    {
        "deltaTime": 7,
        "channel": 14,
        "type": "noteOn",
        "noteNumber": 62,
        "velocity": 105
    },
    {
        "deltaTime": 0,
        "running": true,
        "channel": 14,
        "type": "noteOn",
        "noteNumber": 65,
        "velocity": 94
    },
    {
        "deltaTime": 0,
        "running": true,
        "channel": 14,
        "type": "noteOn",
        "noteNumber": 69,
        "velocity": 94
    },
    {
        "deltaTime": 136,
        "channel": 5,
        "type": "noteOff",
        "noteNumber": 81,
        "velocity": 0,
        "byte9": true
    },
    {
        "deltaTime": 6,
        "channel": 11,
        "type": "noteOff",
        "noteNumber": 41,
        "velocity": 0,
        "byte9": true
    },
    {
        "deltaTime": 2,
        "channel": 5,
        "type": "noteOff",
        "noteNumber": 74,
        "velocity": 0,
        "byte9": true
    },
    {
        "deltaTime": 4,
        "running": true,
        "channel": 5,
        "type": "noteOff",
        "noteNumber": 77,
        "velocity": 0,
        "byte9": true
    },
    {
        "deltaTime": 8,
        "channel": 14,
        "type": "noteOff",
        "noteNumber": 69,
        "velocity": 0,
        "byte9": true
    },
    {
        "deltaTime": 8,
        "running": true,
        "channel": 14,
        "type": "noteOff",
        "noteNumber": 62,
        "velocity": 0,
        "byte9": true
    },
    {
        "deltaTime": 4,
        "running": true,
        "channel": 14,
        "type": "noteOff",
        "noteNumber": 65,
        "velocity": 0,
        "byte9": true
    },
    {
        "deltaTime": 75,
        "channel": 3,
        "type": "noteOff",
        "noteNumber": 76,
        "velocity": 0,
        "byte9": true
    },
    {
        "deltaTime": 58,
        "channel": 9,
        "type": "noteOn",
        "noteNumber": 70,
        "velocity": 65
    },
    {
        "deltaTime": 12,
        "running": true,
        "channel": 9,
        "type": "noteOff",
        "noteNumber": 70,
        "velocity": 0,
        "byte9": true
    },
    {
        "deltaTime": 0,
        "channel": 3,
        "type": "noteOn",
        "noteNumber": 77,
        "velocity": 114
    },
    {
        "deltaTime": 132,
        "channel": 5,
        "type": "noteOn",
        "noteNumber": 74,
        "velocity": 109
    },
    {
        "deltaTime": 0,
        "running": true,
        "channel": 5,
        "type": "noteOn",
        "noteNumber": 77,
        "velocity": 94
    },
    {
        "deltaTime": 0,
        "running": true,
        "channel": 5,
        "type": "noteOn",
        "noteNumber": 81,
        "velocity": 94
    },
    {
        "deltaTime": 0,
        "channel": 9,
        "type": "noteOn",
        "noteNumber": 44,
        "velocity": 107
    },
    {
        "deltaTime": 0,
        "running": true,
        "channel": 9,
        "type": "noteOn",
        "noteNumber": 54,
        "velocity": 109
    },
    {
        "deltaTime": 0,
        "channel": 12,
        "type": "noteOn",
        "noteNumber": 65,
        "velocity": 102
    },
    {
        "deltaTime": 12,
        "channel": 9,
        "type": "noteOff",
        "noteNumber": 44,
        "velocity": 0,
        "byte9": true
    },
    {
        "deltaTime": 0,
        "running": true,
        "channel": 9,
        "type": "noteOff",
        "noteNumber": 54,
        "velocity": 0,
        "byte9": true
    },
    {
        "deltaTime": 1,
        "channel": 1,
        "type": "noteOff",
        "noteNumber": 38,
        "velocity": 0,
        "byte9": true
    },
    {
        "deltaTime": 0,
        "channel": 8,
        "type": "noteOff",
        "noteNumber": 38,
        "velocity": 0,
        "byte9": true
    },
    {
        "deltaTime": 6,
        "channel": 14,
        "type": "noteOn",
        "noteNumber": 62,
        "velocity": 109
    },
    {
        "deltaTime": 0,
        "running": true,
        "channel": 14,
        "type": "noteOn",
        "noteNumber": 65,
        "velocity": 94
    },
    {
        "deltaTime": 0,
        "running": true,
        "channel": 14,
        "type": "noteOn",
        "noteNumber": 69,
        "velocity": 94
    },
    {
        "deltaTime": 63,
        "channel": 3,
        "type": "noteOff",
        "noteNumber": 77,
        "velocity": 0,
        "byte9": true
    },
    {
        "deltaTime": 59,
        "channel": 5,
        "type": "noteOff",
        "noteNumber": 81,
        "velocity": 0,
        "byte9": true
    },
    {
        "deltaTime": 13,
        "running": true,
        "channel": 5,
        "type": "noteOff",
        "noteNumber": 74,
        "velocity": 0,
        "byte9": true
    },
    {
        "deltaTime": 0,
        "running": true,
        "channel": 5,
        "type": "noteOff",
        "noteNumber": 77,
        "velocity": 0,
        "byte9": true
    },
    {
        "deltaTime": 7,
        "channel": 14,
        "type": "noteOff",
        "noteNumber": 69,
        "velocity": 0,
        "byte9": true
    },
    {
        "deltaTime": 13,
        "running": true,
        "channel": 14,
        "type": "noteOff",
        "noteNumber": 62,
        "velocity": 0,
        "byte9": true
    },
    {
        "deltaTime": 0,
        "running": true,
        "channel": 14,
        "type": "noteOff",
        "noteNumber": 65,
        "velocity": 0,
        "byte9": true
    },
    {
        "deltaTime": 0,
        "channel": 3,
        "type": "noteOn",
        "noteNumber": 76,
        "velocity": 127
    },
    {
        "deltaTime": 271,
        "running": true,
        "channel": 3,
        "type": "noteOff",
        "noteNumber": 76,
        "velocity": 0,
        "byte9": true
    },
    {
        "deltaTime": 0,
        "channel": 1,
        "type": "noteOn",
        "noteNumber": 38,
        "velocity": 110
    },
    {
        "deltaTime": 0,
        "channel": 5,
        "type": "noteOn",
        "noteNumber": 74,
        "velocity": 109
    },
    {
        "deltaTime": 0,
        "running": true,
        "channel": 5,
        "type": "noteOn",
        "noteNumber": 77,
        "velocity": 94
    },
    {
        "deltaTime": 0,
        "running": true,
        "channel": 5,
        "type": "noteOn",
        "noteNumber": 81,
        "velocity": 101
    },
    {
        "deltaTime": 0,
        "channel": 8,
        "type": "noteOn",
        "noteNumber": 38,
        "velocity": 110
    },
    {
        "deltaTime": 0,
        "channel": 9,
        "type": "noteOn",
        "noteNumber": 35,
        "velocity": 114
    },
    {
        "deltaTime": 0,
        "channel": 11,
        "type": "noteOn",
        "noteNumber": 41,
        "velocity": 114
    },
    {
        "deltaTime": 7,
        "channel": 4,
        "type": "noteOff",
        "noteNumber": 64,
        "velocity": 0,
        "byte9": true
    },
    {
        "deltaTime": 5,
        "channel": 9,
        "type": "noteOff",
        "noteNumber": 35,
        "velocity": 0,
        "byte9": true
    },
    {
        "deltaTime": 7,
        "channel": 14,
        "type": "noteOn",
        "noteNumber": 62,
        "velocity": 109
    },
    {
        "deltaTime": 0,
        "running": true,
        "channel": 14,
        "type": "noteOn",
        "noteNumber": 65,
        "velocity": 94
    },
    {
        "deltaTime": 0,
        "running": true,
        "channel": 14,
        "type": "noteOn",
        "noteNumber": 69,
        "velocity": 101
    },
    {
        "deltaTime": 0,
        "channel": 3,
        "type": "noteOn",
        "noteNumber": 79,
        "velocity": 123
    },
    {
        "deltaTime": 132,
        "channel": 5,
        "type": "noteOff",
        "noteNumber": 81,
        "velocity": 0,
        "byte9": true
    },
    {
        "deltaTime": 6,
        "channel": 11,
        "type": "noteOff",
        "noteNumber": 41,
        "velocity": 0,
        "byte9": true
    },
    {
        "deltaTime": 10,
        "channel": 5,
        "type": "noteOff",
        "noteNumber": 74,
        "velocity": 0,
        "byte9": true
    },
    {
        "deltaTime": 0,
        "running": true,
        "channel": 5,
        "type": "noteOff",
        "noteNumber": 77,
        "velocity": 0,
        "byte9": true
    },
    {
        "deltaTime": 4,
        "channel": 14,
        "type": "noteOff",
        "noteNumber": 69,
        "velocity": 0,
        "byte9": true
    },
    {
        "deltaTime": 16,
        "running": true,
        "channel": 14,
        "type": "noteOff",
        "noteNumber": 62,
        "velocity": 0,
        "byte9": true
    },
    {
        "deltaTime": 0,
        "running": true,
        "channel": 14,
        "type": "noteOff",
        "noteNumber": 65,
        "velocity": 0,
        "byte9": true
    },
    {
        "deltaTime": 103,
        "channel": 3,
        "type": "noteOff",
        "noteNumber": 79,
        "velocity": 0,
        "byte9": true
    },
    {
        "deltaTime": 0,
        "channel": 3,
        "type": "noteOn",
        "noteNumber": 77,
        "velocity": 125
    },
    {
        "deltaTime": 42,
        "channel": 5,
        "type": "noteOn",
        "noteNumber": 74,
        "velocity": 108
    },
    {
        "deltaTime": 0,
        "running": true,
        "channel": 5,
        "type": "noteOn",
        "noteNumber": 77,
        "velocity": 97
    },
    {
        "deltaTime": 0,
        "running": true,
        "channel": 5,
        "type": "noteOn",
        "noteNumber": 81,
        "velocity": 98
    },
    {
        "deltaTime": 0,
        "channel": 9,
        "type": "noteOn",
        "noteNumber": 44,
        "velocity": 107
    },
    {
        "deltaTime": 0,
        "running": true,
        "channel": 9,
        "type": "noteOn",
        "noteNumber": 69,
        "velocity": 109
    },
    {
        "deltaTime": 12,
        "running": true,
        "channel": 9,
        "type": "noteOff",
        "noteNumber": 44,
        "velocity": 0,
        "byte9": true
    },
    {
        "deltaTime": 0,
        "running": true,
        "channel": 9,
        "type": "noteOff",
        "noteNumber": 69,
        "velocity": 0,
        "byte9": true
    },
    {
        "deltaTime": 7,
        "channel": 14,
        "type": "noteOn",
        "noteNumber": 62,
        "velocity": 108
    },
    {
        "deltaTime": 0,
        "running": true,
        "channel": 14,
        "type": "noteOn",
        "noteNumber": 65,
        "velocity": 97
    },
    {
        "deltaTime": 0,
        "running": true,
        "channel": 14,
        "type": "noteOn",
        "noteNumber": 69,
        "velocity": 98
    },
    {
        "deltaTime": 14,
        "channel": 1,
        "type": "noteOff",
        "noteNumber": 38,
        "velocity": 0,
        "byte9": true
    },
    {
        "deltaTime": 0,
        "channel": 8,
        "type": "noteOff",
        "noteNumber": 38,
        "velocity": 0,
        "byte9": true
    },
    {
        "deltaTime": 113,
        "channel": 5,
        "type": "noteOff",
        "noteNumber": 81,
        "velocity": 0,
        "byte9": true
    },
    {
        "deltaTime": 12,
        "running": true,
        "channel": 5,
        "type": "noteOff",
        "noteNumber": 74,
        "velocity": 0,
        "byte9": true
    },
    {
        "deltaTime": 3,
        "channel": 3,
        "type": "noteOff",
        "noteNumber": 77,
        "velocity": 0,
        "byte9": true
    },
    {
        "deltaTime": 2,
        "channel": 5,
        "type": "noteOff",
        "noteNumber": 77,
        "velocity": 0,
        "byte9": true
    },
    {
        "deltaTime": 3,
        "channel": 14,
        "type": "noteOff",
        "noteNumber": 69,
        "velocity": 0,
        "byte9": true
    },
    {
        "deltaTime": 12,
        "running": true,
        "channel": 14,
        "type": "noteOff",
        "noteNumber": 62,
        "velocity": 0,
        "byte9": true
    },
    {
        "deltaTime": 5,
        "running": true,
        "channel": 14,
        "type": "noteOff",
        "noteNumber": 65,
        "velocity": 0,
        "byte9": true
    },
    {
        "deltaTime": 54,
        "channel": 12,
        "type": "noteOff",
        "noteNumber": 62,
        "velocity": 0,
        "byte9": true
    },
    {
        "deltaTime": 33,
        "running": true,
        "channel": 12,
        "type": "noteOff",
        "noteNumber": 65,
        "velocity": 0,
        "byte9": true
    },
    {
        "deltaTime": 1,
        "running": true,
        "channel": 12,
        "type": "noteOff",
        "noteNumber": 57,
        "velocity": 0,
        "byte9": true
    },
    {
        "deltaTime": 0,
        "channel": 3,
        "type": "noteOn",
        "noteNumber": 77,
        "velocity": 114
    },
    {
        "deltaTime": 40,
        "channel": 1,
        "type": "noteOn",
        "noteNumber": 38,
        "velocity": 110
    },
    {
        "deltaTime": 0,
        "channel": 8,
        "type": "noteOn",
        "noteNumber": 38,
        "velocity": 110
    },
    {
        "deltaTime": 0,
        "channel": 9,
        "type": "noteOn",
        "noteNumber": 35,
        "velocity": 114
    },
    {
        "deltaTime": 0,
        "channel": 11,
        "type": "noteOn",
        "noteNumber": 41,
        "velocity": 114
    },
    {
        "deltaTime": 0,
        "channel": 12,
        "type": "noteOn",
        "noteNumber": 50,
        "velocity": 101
    },
    {
        "deltaTime": 12,
        "channel": 9,
        "type": "noteOff",
        "noteNumber": 35,
        "velocity": 0,
        "byte9": true
    },
    {
        "deltaTime": 144,
        "channel": 10,
        "type": "noteOff",
        "noteNumber": 74,
        "velocity": 0,
        "byte9": true
    },
    {
        "deltaTime": 4,
        "channel": 5,
        "type": "noteOn",
        "noteNumber": 74,
        "velocity": 105
    },
    {
        "deltaTime": 0,
        "running": true,
        "channel": 5,
        "type": "noteOn",
        "noteNumber": 77,
        "velocity": 89
    },
    {
        "deltaTime": 0,
        "running": true,
        "channel": 5,
        "type": "noteOn",
        "noteNumber": 81,
        "velocity": 94
    },
    {
        "deltaTime": 0,
        "channel": 10,
        "type": "noteOn",
        "noteNumber": 77,
        "velocity": 105
    },
    {
        "deltaTime": 1,
        "channel": 11,
        "type": "noteOff",
        "noteNumber": 41,
        "velocity": 0,
        "byte9": true
    },
    {
        "deltaTime": 18,
        "channel": 14,
        "type": "noteOn",
        "noteNumber": 62,
        "velocity": 105
    },
    {
        "deltaTime": 0,
        "running": true,
        "channel": 14,
        "type": "noteOn",
        "noteNumber": 65,
        "velocity": 89
    },
    {
        "deltaTime": 0,
        "running": true,
        "channel": 14,
        "type": "noteOn",
        "noteNumber": 69,
        "velocity": 94
    },
    {
        "deltaTime": 127,
        "channel": 5,
        "type": "noteOff",
        "noteNumber": 81,
        "velocity": 0,
        "byte9": true
    },
    {
        "deltaTime": 19,
        "channel": 14,
        "type": "noteOff",
        "noteNumber": 69,
        "velocity": 0,
        "byte9": true
    },
    {
        "deltaTime": 3,
        "channel": 5,
        "type": "noteOff",
        "noteNumber": 74,
        "velocity": 0,
        "byte9": true
    },
    {
        "deltaTime": 0,
        "running": true,
        "channel": 5,
        "type": "noteOff",
        "noteNumber": 77,
        "velocity": 0,
        "byte9": true
    },
    {
        "deltaTime": 20,
        "channel": 14,
        "type": "noteOff",
        "noteNumber": 62,
        "velocity": 0,
        "byte9": true
    },
    {
        "deltaTime": 0,
        "running": true,
        "channel": 14,
        "type": "noteOff",
        "noteNumber": 65,
        "velocity": 0,
        "byte9": true
    },
    {
        "deltaTime": 55,
        "channel": 12,
        "type": "noteOff",
        "noteNumber": 50,
        "velocity": 0,
        "byte9": true
    },
    {
        "deltaTime": 73,
        "channel": 1,
        "type": "noteOff",
        "noteNumber": 38,
        "velocity": 0,
        "byte9": true
    },
    {
        "deltaTime": 0,
        "channel": 8,
        "type": "noteOff",
        "noteNumber": 38,
        "velocity": 0,
        "byte9": true
    },
    {
        "deltaTime": 4,
        "channel": 1,
        "type": "noteOn",
        "noteNumber": 41,
        "velocity": 110
    },
    {
        "deltaTime": 0,
        "channel": 8,
        "type": "noteOn",
        "noteNumber": 41,
        "velocity": 110
    },
    {
        "deltaTime": 0,
        "channel": 9,
        "type": "noteOn",
        "noteNumber": 35,
        "velocity": 114
    },
    {
        "deltaTime": 0,
        "running": true,
        "channel": 9,
        "type": "noteOn",
        "noteNumber": 70,
        "velocity": 65
    },
    {
        "deltaTime": 0,
        "channel": 11,
        "type": "noteOn",
        "noteNumber": 41,
        "velocity": 114
    },
    {
        "deltaTime": 0,
        "channel": 12,
        "type": "noteOn",
        "noteNumber": 48,
        "velocity": 86
    },
    {
        "deltaTime": 12,
        "channel": 9,
        "type": "noteOff",
        "noteNumber": 35,
        "velocity": 0,
        "byte9": true
    },
    {
        "deltaTime": 0,
        "running": true,
        "channel": 9,
        "type": "noteOff",
        "noteNumber": 70,
        "velocity": 0,
        "byte9": true
    },
    {
        "deltaTime": 132,
        "channel": 12,
        "type": "noteOff",
        "noteNumber": 48,
        "velocity": 0,
        "byte9": true
    },
    {
        "deltaTime": 12,
        "channel": 10,
        "type": "noteOff",
        "noteNumber": 77,
        "velocity": 0,
        "byte9": true
    },
    {
        "deltaTime": 4,
        "channel": 5,
        "type": "noteOn",
        "noteNumber": 74,
        "velocity": 109
    },
    {
        "deltaTime": 0,
        "running": true,
        "channel": 5,
        "type": "noteOn",
        "noteNumber": 77,
        "velocity": 97
    },
    {
        "deltaTime": 0,
        "running": true,
        "channel": 5,
        "type": "noteOn",
        "noteNumber": 81,
        "velocity": 110
    },
    {
        "deltaTime": 0,
        "channel": 9,
        "type": "noteOn",
        "noteNumber": 44,
        "velocity": 107
    },
    {
        "deltaTime": 0,
        "running": true,
        "channel": 9,
        "type": "noteOn",
        "noteNumber": 54,
        "velocity": 109
    },
    {
        "deltaTime": 0,
        "channel": 10,
        "type": "noteOn",
        "noteNumber": 81,
        "velocity": 105
    },
    {
        "deltaTime": 0,
        "channel": 12,
        "type": "noteOn",
        "noteNumber": 45,
        "velocity": 119
    },
    {
        "deltaTime": 1,
        "channel": 11,
        "type": "noteOff",
        "noteNumber": 41,
        "velocity": 0,
        "byte9": true
    },
    {
        "deltaTime": 11,
        "channel": 3,
        "type": "noteOff",
        "noteNumber": 77,
        "velocity": 0,
        "byte9": true
    },
    {
        "deltaTime": 0,
        "channel": 9,
        "type": "noteOff",
        "noteNumber": 44,
        "velocity": 0,
        "byte9": true
    },
    {
        "deltaTime": 0,
        "running": true,
        "channel": 9,
        "type": "noteOff",
        "noteNumber": 54,
        "velocity": 0,
        "byte9": true
    },
    {
        "deltaTime": 7,
        "channel": 14,
        "type": "noteOn",
        "noteNumber": 62,
        "velocity": 109
    },
    {
        "deltaTime": 0,
        "running": true,
        "channel": 14,
        "type": "noteOn",
        "noteNumber": 65,
        "velocity": 97
    },
    {
        "deltaTime": 0,
        "running": true,
        "channel": 14,
        "type": "noteOn",
        "noteNumber": 69,
        "velocity": 110
    },
    {
        "deltaTime": 0,
        "channel": 3,
        "type": "noteOn",
        "noteNumber": 76,
        "velocity": 124
    },
    {
        "deltaTime": 123,
        "channel": 5,
        "type": "noteOff",
        "noteNumber": 81,
        "velocity": 0,
        "byte9": true
    },
    {
        "deltaTime": 9,
        "running": true,
        "channel": 5,
        "type": "noteOff",
        "noteNumber": 74,
        "velocity": 0,
        "byte9": true
    },
    {
        "deltaTime": 3,
        "running": true,
        "channel": 5,
        "type": "noteOff",
        "noteNumber": 77,
        "velocity": 0,
        "byte9": true
    },
    {
        "deltaTime": 7,
        "channel": 14,
        "type": "noteOff",
        "noteNumber": 69,
        "velocity": 0,
        "byte9": true
    },
    {
        "deltaTime": 9,
        "running": true,
        "channel": 14,
        "type": "noteOff",
        "noteNumber": 62,
        "velocity": 0,
        "byte9": true
    },
    {
        "deltaTime": 3,
        "running": true,
        "channel": 14,
        "type": "noteOff",
        "noteNumber": 65,
        "velocity": 0,
        "byte9": true
    },
    {
        "deltaTime": 97,
        "channel": 3,
        "type": "noteOff",
        "noteNumber": 76,
        "velocity": 0,
        "byte9": true
    },
    {
        "deltaTime": 0,
        "channel": 3,
        "type": "noteOn",
        "noteNumber": 77,
        "velocity": 114
    },
    {
        "deltaTime": 1,
        "channel": 1,
        "type": "noteOff",
        "noteNumber": 41,
        "velocity": 0,
        "byte9": true
    },
    {
        "deltaTime": 0,
        "channel": 8,
        "type": "noteOff",
        "noteNumber": 41,
        "velocity": 0,
        "byte9": true
    },
    {
        "deltaTime": 4,
        "channel": 1,
        "type": "noteOn",
        "noteNumber": 42,
        "velocity": 110
    },
    {
        "deltaTime": 0,
        "channel": 8,
        "type": "noteOn",
        "noteNumber": 42,
        "velocity": 110
    },
    {
        "deltaTime": 134,
        "channel": 12,
        "type": "noteOff",
        "noteNumber": 45,
        "velocity": 0,
        "byte9": true
    },
    {
        "deltaTime": 22,
        "channel": 1,
        "type": "noteOff",
        "noteNumber": 42,
        "velocity": 0,
        "byte9": true
    },
    {
        "deltaTime": 0,
        "channel": 8,
        "type": "noteOff",
        "noteNumber": 42,
        "velocity": 0,
        "byte9": true
    },
    {
        "deltaTime": 0,
        "channel": 10,
        "type": "noteOff",
        "noteNumber": 81,
        "velocity": 0,
        "byte9": true
    },
    {
        "deltaTime": 4,
        "channel": 1,
        "type": "noteOn",
        "noteNumber": 43,
        "velocity": 110
    },
    {
        "deltaTime": 0,
        "channel": 5,
        "type": "noteOn",
        "noteNumber": 74,
        "velocity": 101
    },
    {
        "deltaTime": 0,
        "running": true,
        "channel": 5,
        "type": "noteOn",
        "noteNumber": 79,
        "velocity": 97
    },
    {
        "deltaTime": 0,
        "running": true,
        "channel": 5,
        "type": "noteOn",
        "noteNumber": 82,
        "velocity": 105
    },
    {
        "deltaTime": 0,
        "channel": 8,
        "type": "noteOn",
        "noteNumber": 43,
        "velocity": 110
    },
    {
        "deltaTime": 0,
        "channel": 9,
        "type": "noteOn",
        "noteNumber": 35,
        "velocity": 114
    },
    {
        "deltaTime": 0,
        "channel": 10,
        "type": "noteOn",
        "noteNumber": 79,
        "velocity": 105
    },
    {
        "deltaTime": 0,
        "channel": 11,
        "type": "noteOn",
        "noteNumber": 41,
        "velocity": 114
    },
    {
        "deltaTime": 0,
        "channel": 12,
        "type": "noteOn",
        "noteNumber": 43,
        "velocity": 86
    },
    {
        "deltaTime": 0,
        "running": true,
        "channel": 12,
        "type": "noteOn",
        "noteNumber": 55,
        "velocity": 114
    },
    {
        "deltaTime": 12,
        "channel": 9,
        "type": "noteOff",
        "noteNumber": 35,
        "velocity": 0,
        "byte9": true
    },
    {
        "deltaTime": 7,
        "channel": 14,
        "type": "noteOn",
        "noteNumber": 62,
        "velocity": 101
    },
    {
        "deltaTime": 0,
        "running": true,
        "channel": 14,
        "type": "noteOn",
        "noteNumber": 67,
        "velocity": 97
    },
    {
        "deltaTime": 0,
        "running": true,
        "channel": 14,
        "type": "noteOn",
        "noteNumber": 70,
        "velocity": 105
    },
    {
        "deltaTime": 54,
        "channel": 5,
        "type": "noteOff",
        "noteNumber": 82,
        "velocity": 0,
        "byte9": true
    },
    {
        "deltaTime": 20,
        "channel": 14,
        "type": "noteOff",
        "noteNumber": 70,
        "velocity": 0,
        "byte9": true
    },
    {
        "deltaTime": 28,
        "channel": 5,
        "type": "noteOff",
        "noteNumber": 79,
        "velocity": 0,
        "byte9": true
    },
    {
        "deltaTime": 2,
        "running": true,
        "channel": 5,
        "type": "noteOff",
        "noteNumber": 74,
        "velocity": 0,
        "byte9": true
    },
    {
        "deltaTime": 17,
        "channel": 14,
        "type": "noteOff",
        "noteNumber": 67,
        "velocity": 0,
        "byte9": true
    },
    {
        "deltaTime": 2,
        "running": true,
        "channel": 14,
        "type": "noteOff",
        "noteNumber": 62,
        "velocity": 0,
        "byte9": true
    },
    {
        "deltaTime": 13,
        "channel": 3,
        "type": "noteOff",
        "noteNumber": 77,
        "velocity": 0,
        "byte9": true
    },
    {
        "deltaTime": 6,
        "channel": 11,
        "type": "noteOff",
        "noteNumber": 41,
        "velocity": 0,
        "byte9": true
    },
    {
        "deltaTime": 0,
        "channel": 3,
        "type": "noteOn",
        "noteNumber": 70,
        "velocity": 127
    },
    {
        "deltaTime": 180,
        "channel": 12,
        "type": "noteOff",
        "noteNumber": 43,
        "velocity": 0,
        "byte9": true
    },
    {
        "deltaTime": 15,
        "channel": 5,
        "type": "noteOn",
        "noteNumber": 74,
        "velocity": 111
    },
    {
        "deltaTime": 0,
        "running": true,
        "channel": 5,
        "type": "noteOn",
        "noteNumber": 79,
        "velocity": 107
    },
    {
        "deltaTime": 0,
        "running": true,
        "channel": 5,
        "type": "noteOn",
        "noteNumber": 82,
        "velocity": 105
    },
    {
        "deltaTime": 0,
        "channel": 9,
        "type": "noteOn",
        "noteNumber": 44,
        "velocity": 107
    },
    {
        "deltaTime": 0,
        "running": true,
        "channel": 9,
        "type": "noteOn",
        "noteNumber": 69,
        "velocity": 109
    },
    {
        "deltaTime": 0,
        "channel": 12,
        "type": "noteOn",
        "noteNumber": 58,
        "velocity": 122
    },
    {
        "deltaTime": 12,
        "channel": 9,
        "type": "noteOff",
        "noteNumber": 44,
        "velocity": 0,
        "byte9": true
    },
    {
        "deltaTime": 0,
        "running": true,
        "channel": 9,
        "type": "noteOff",
        "noteNumber": 69,
        "velocity": 0,
        "byte9": true
    },
    {
        "deltaTime": 7,
        "channel": 14,
        "type": "noteOn",
        "noteNumber": 62,
        "velocity": 111
    },
    {
        "deltaTime": 0,
        "running": true,
        "channel": 14,
        "type": "noteOn",
        "noteNumber": 67,
        "velocity": 107
    },
    {
        "deltaTime": 0,
        "running": true,
        "channel": 14,
        "type": "noteOn",
        "noteNumber": 70,
        "velocity": 105
    },
    {
        "deltaTime": 9,
        "channel": 3,
        "type": "noteOff",
        "noteNumber": 70,
        "velocity": 0,
        "byte9": true
    },
    {
        "deltaTime": 5,
        "channel": 1,
        "type": "noteOff",
        "noteNumber": 43,
        "velocity": 0,
        "byte9": true
    },
    {
        "deltaTime": 0,
        "channel": 8,
        "type": "noteOff",
        "noteNumber": 43,
        "velocity": 0,
        "byte9": true
    },
    {
        "deltaTime": 124,
        "channel": 5,
        "type": "noteOff",
        "noteNumber": 82,
        "velocity": 0,
        "byte9": true
    },
    {
        "deltaTime": 7,
        "running": true,
        "channel": 5,
        "type": "noteOff",
        "noteNumber": 79,
        "velocity": 0,
        "byte9": true
    },
    {
        "deltaTime": 4,
        "running": true,
        "channel": 5,
        "type": "noteOff",
        "noteNumber": 74,
        "velocity": 0,
        "byte9": true
    },
    {
        "deltaTime": 9,
        "channel": 14,
        "type": "noteOff",
        "noteNumber": 70,
        "velocity": 0,
        "byte9": true
    },
    {
        "deltaTime": 7,
        "running": true,
        "channel": 14,
        "type": "noteOff",
        "noteNumber": 67,
        "velocity": 0,
        "byte9": true
    },
    {
        "deltaTime": 4,
        "running": true,
        "channel": 14,
        "type": "noteOff",
        "noteNumber": 62,
        "velocity": 0,
        "byte9": true
    },
    {
        "deltaTime": 132,
        "channel": 1,
        "type": "noteOn",
        "noteNumber": 31,
        "velocity": 110
    },
    {
        "deltaTime": 0,
        "channel": 8,
        "type": "noteOn",
        "noteNumber": 31,
        "velocity": 110
    },
    {
        "deltaTime": 0,
        "channel": 9,
        "type": "noteOn",
        "noteNumber": 35,
        "velocity": 107
    },
    {
        "deltaTime": 0,
        "channel": 11,
        "type": "noteOn",
        "noteNumber": 41,
        "velocity": 107
    },
    {
        "deltaTime": 12,
        "channel": 9,
        "type": "noteOff",
        "noteNumber": 35,
        "velocity": 0,
        "byte9": true
    },
    {
        "deltaTime": 37,
        "channel": 1,
        "type": "noteOff",
        "noteNumber": 31,
        "velocity": 0,
        "byte9": true
    },
    {
        "deltaTime": 0,
        "channel": 8,
        "type": "noteOff",
        "noteNumber": 31,
        "velocity": 0,
        "byte9": true
    },
    {
        "deltaTime": 111,
        "channel": 1,
        "type": "noteOn",
        "noteNumber": 31,
        "velocity": 110
    },
    {
        "deltaTime": 0,
        "channel": 5,
        "type": "noteOn",
        "noteNumber": 74,
        "velocity": 105
    },
    {
        "deltaTime": 0,
        "running": true,
        "channel": 5,
        "type": "noteOn",
        "noteNumber": 79,
        "velocity": 94
    },
    {
        "deltaTime": 0,
        "running": true,
        "channel": 5,
        "type": "noteOn",
        "noteNumber": 82,
        "velocity": 94
    },
    {
        "deltaTime": 0,
        "channel": 8,
        "type": "noteOn",
        "noteNumber": 31,
        "velocity": 110
    },
    {
        "deltaTime": 0,
        "channel": 9,
        "type": "noteOn",
        "noteNumber": 35,
        "velocity": 114
    },
    {
        "deltaTime": 0,
        "channel": 11,
        "type": "noteOn",
        "noteNumber": 41,
        "velocity": 114
    },
    {
        "deltaTime": 0,
        "channel": 12,
        "type": "noteOn",
        "noteNumber": 62,
        "velocity": 119
    },
    {
        "deltaTime": 1,
        "channel": 11,
        "type": "noteOff",
        "noteNumber": 41,
        "velocity": 0,
        "byte9": true
    },
    {
        "deltaTime": 11,
        "channel": 9,
        "type": "noteOff",
        "noteNumber": 35,
        "velocity": 0,
        "byte9": true
    },
    {
        "deltaTime": 0,
        "channel": 3,
        "type": "noteOn",
        "noteNumber": 76,
        "velocity": 127
    },
    {
        "deltaTime": 0,
        "channel": 14,
        "type": "noteOn",
        "noteNumber": 62,
        "velocity": 105
    },
    {
        "deltaTime": 0,
        "running": true,
        "channel": 14,
        "type": "noteOn",
        "noteNumber": 67,
        "velocity": 94
    },
    {
        "deltaTime": 0,
        "running": true,
        "channel": 14,
        "type": "noteOn",
        "noteNumber": 70,
        "velocity": 94
    },
    {
        "deltaTime": 136,
        "channel": 5,
        "type": "noteOff",
        "noteNumber": 82,
        "velocity": 0,
        "byte9": true
    },
    {
        "deltaTime": 6,
        "channel": 11,
        "type": "noteOff",
        "noteNumber": 41,
        "velocity": 0,
        "byte9": true
    },
    {
        "deltaTime": 2,
        "channel": 5,
        "type": "noteOff",
        "noteNumber": 74,
        "velocity": 0,
        "byte9": true
    },
    {
        "deltaTime": 4,
        "running": true,
        "channel": 5,
        "type": "noteOff",
        "noteNumber": 79,
        "velocity": 0,
        "byte9": true
    },
    {
        "deltaTime": 8,
        "channel": 14,
        "type": "noteOff",
        "noteNumber": 70,
        "velocity": 0,
        "byte9": true
    },
    {
        "deltaTime": 8,
        "running": true,
        "channel": 14,
        "type": "noteOff",
        "noteNumber": 62,
        "velocity": 0,
        "byte9": true
    },
    {
        "deltaTime": 4,
        "running": true,
        "channel": 14,
        "type": "noteOff",
        "noteNumber": 67,
        "velocity": 0,
        "byte9": true
    },
    {
        "deltaTime": 133,
        "channel": 9,
        "type": "noteOn",
        "noteNumber": 70,
        "velocity": 65
    },
    {
        "deltaTime": 12,
        "running": true,
        "channel": 9,
        "type": "noteOff",
        "noteNumber": 70,
        "velocity": 0,
        "byte9": true
    },
    {
        "deltaTime": 0,
        "channel": 3,
        "type": "noteOn",
        "noteNumber": 77,
        "velocity": 124
    },
    {
        "deltaTime": 12,
        "running": true,
        "channel": 3,
        "type": "noteOff",
        "noteNumber": 76,
        "velocity": 0,
        "byte9": true
    },
    {
        "deltaTime": 116,
        "channel": 5,
        "type": "noteOn",
        "noteNumber": 74,
        "velocity": 109
    },
    {
        "deltaTime": 0,
        "running": true,
        "channel": 5,
        "type": "noteOn",
        "noteNumber": 79,
        "velocity": 94
    },
    {
        "deltaTime": 0,
        "running": true,
        "channel": 5,
        "type": "noteOn",
        "noteNumber": 82,
        "velocity": 94
    },
    {
        "deltaTime": 0,
        "channel": 9,
        "type": "noteOn",
        "noteNumber": 44,
        "velocity": 107
    },
    {
        "deltaTime": 0,
        "running": true,
        "channel": 9,
        "type": "noteOn",
        "noteNumber": 54,
        "velocity": 109
    },
    {
        "deltaTime": 12,
        "running": true,
        "channel": 9,
        "type": "noteOff",
        "noteNumber": 44,
        "velocity": 0,
        "byte9": true
    },
    {
        "deltaTime": 0,
        "running": true,
        "channel": 9,
        "type": "noteOff",
        "noteNumber": 54,
        "velocity": 0,
        "byte9": true
    },
    {
        "deltaTime": 1,
        "channel": 1,
        "type": "noteOff",
        "noteNumber": 31,
        "velocity": 0,
        "byte9": true
    },
    {
        "deltaTime": 0,
        "channel": 8,
        "type": "noteOff",
        "noteNumber": 31,
        "velocity": 0,
        "byte9": true
    },
    {
        "deltaTime": 6,
        "channel": 14,
        "type": "noteOn",
        "noteNumber": 62,
        "velocity": 109
    },
    {
        "deltaTime": 0,
        "running": true,
        "channel": 14,
        "type": "noteOn",
        "noteNumber": 67,
        "velocity": 94
    },
    {
        "deltaTime": 0,
        "running": true,
        "channel": 14,
        "type": "noteOn",
        "noteNumber": 70,
        "velocity": 94
    },
    {
        "deltaTime": 122,
        "channel": 5,
        "type": "noteOff",
        "noteNumber": 82,
        "velocity": 0,
        "byte9": true
    },
    {
        "deltaTime": 13,
        "running": true,
        "channel": 5,
        "type": "noteOff",
        "noteNumber": 74,
        "velocity": 0,
        "byte9": true
    },
    {
        "deltaTime": 0,
        "running": true,
        "channel": 5,
        "type": "noteOff",
        "noteNumber": 79,
        "velocity": 0,
        "byte9": true
    },
    {
        "deltaTime": 7,
        "channel": 14,
        "type": "noteOff",
        "noteNumber": 70,
        "velocity": 0,
        "byte9": true
    },
    {
        "deltaTime": 13,
        "running": true,
        "channel": 14,
        "type": "noteOff",
        "noteNumber": 62,
        "velocity": 0,
        "byte9": true
    },
    {
        "deltaTime": 0,
        "running": true,
        "channel": 14,
        "type": "noteOff",
        "noteNumber": 67,
        "velocity": 0,
        "byte9": true
    },
    {
        "deltaTime": 98,
        "channel": 3,
        "type": "noteOff",
        "noteNumber": 77,
        "velocity": 0,
        "byte9": true
    },
    {
        "deltaTime": 0,
        "channel": 3,
        "type": "noteOn",
        "noteNumber": 76,
        "velocity": 127
    },
    {
        "deltaTime": 192,
        "channel": 1,
        "type": "noteOn",
        "noteNumber": 31,
        "velocity": 110
    },
    {
        "deltaTime": 0,
        "channel": 5,
        "type": "noteOn",
        "noteNumber": 74,
        "velocity": 109
    },
    {
        "deltaTime": 0,
        "running": true,
        "channel": 5,
        "type": "noteOn",
        "noteNumber": 79,
        "velocity": 94
    },
    {
        "deltaTime": 0,
        "running": true,
        "channel": 5,
        "type": "noteOn",
        "noteNumber": 82,
        "velocity": 101
    },
    {
        "deltaTime": 0,
        "channel": 8,
        "type": "noteOn",
        "noteNumber": 31,
        "velocity": 110
    },
    {
        "deltaTime": 0,
        "channel": 9,
        "type": "noteOn",
        "noteNumber": 35,
        "velocity": 114
    },
    {
        "deltaTime": 0,
        "channel": 11,
        "type": "noteOn",
        "noteNumber": 41,
        "velocity": 114
    },
    {
        "deltaTime": 0,
        "channel": 12,
        "type": "noteOn",
        "noteNumber": 67,
        "velocity": 119
    },
    {
        "deltaTime": 12,
        "channel": 9,
        "type": "noteOff",
        "noteNumber": 35,
        "velocity": 0,
        "byte9": true
    },
    {
        "deltaTime": 7,
        "channel": 14,
        "type": "noteOn",
        "noteNumber": 62,
        "velocity": 109
    },
    {
        "deltaTime": 0,
        "running": true,
        "channel": 14,
        "type": "noteOn",
        "noteNumber": 67,
        "velocity": 94
    },
    {
        "deltaTime": 0,
        "running": true,
        "channel": 14,
        "type": "noteOn",
        "noteNumber": 70,
        "velocity": 101
    },
    {
        "deltaTime": 136,
        "channel": 5,
        "type": "noteOff",
        "noteNumber": 82,
        "velocity": 0,
        "byte9": true
    },
    {
        "deltaTime": 6,
        "channel": 11,
        "type": "noteOff",
        "noteNumber": 41,
        "velocity": 0,
        "byte9": true
    },
    {
        "deltaTime": 10,
        "channel": 5,
        "type": "noteOff",
        "noteNumber": 74,
        "velocity": 0,
        "byte9": true
    },
    {
        "deltaTime": 0,
        "running": true,
        "channel": 5,
        "type": "noteOff",
        "noteNumber": 79,
        "velocity": 0,
        "byte9": true
    },
    {
        "deltaTime": 4,
        "channel": 14,
        "type": "noteOff",
        "noteNumber": 70,
        "velocity": 0,
        "byte9": true
    },
    {
        "deltaTime": 16,
        "running": true,
        "channel": 14,
        "type": "noteOff",
        "noteNumber": 62,
        "velocity": 0,
        "byte9": true
    },
    {
        "deltaTime": 0,
        "running": true,
        "channel": 14,
        "type": "noteOff",
        "noteNumber": 67,
        "velocity": 0,
        "byte9": true
    },
    {
        "deltaTime": 0,
        "channel": 3,
        "type": "noteOn",
        "noteNumber": 79,
        "velocity": 127
    },
    {
        "deltaTime": 28,
        "channel": 12,
        "type": "noteOff",
        "noteNumber": 62,
        "velocity": 0,
        "byte9": true
    },
    {
        "deltaTime": 12,
        "channel": 3,
        "type": "noteOff",
        "noteNumber": 76,
        "velocity": 0,
        "byte9": true
    },
    {
        "deltaTime": 148,
        "channel": 12,
        "type": "noteOff",
        "noteNumber": 67,
        "velocity": 0,
        "byte9": true
    },
    {
        "deltaTime": 4,
        "channel": 5,
        "type": "noteOn",
        "noteNumber": 74,
        "velocity": 108
    },
    {
        "deltaTime": 0,
        "running": true,
        "channel": 5,
        "type": "noteOn",
        "noteNumber": 79,
        "velocity": 97
    },
    {
        "deltaTime": 0,
        "running": true,
        "channel": 5,
        "type": "noteOn",
        "noteNumber": 82,
        "velocity": 98
    },
    {
        "deltaTime": 0,
        "channel": 9,
        "type": "noteOn",
        "noteNumber": 44,
        "velocity": 107
    },
    {
        "deltaTime": 0,
        "running": true,
        "channel": 9,
        "type": "noteOn",
        "noteNumber": 69,
        "velocity": 109
    },
    {
        "deltaTime": 0,
        "channel": 12,
        "type": "noteOn",
        "noteNumber": 62,
        "velocity": 119
    },
    {
        "deltaTime": 12,
        "channel": 9,
        "type": "noteOff",
        "noteNumber": 44,
        "velocity": 0,
        "byte9": true
    },
    {
        "deltaTime": 0,
        "running": true,
        "channel": 9,
        "type": "noteOff",
        "noteNumber": 69,
        "velocity": 0,
        "byte9": true
    },
    {
        "deltaTime": 1,
        "channel": 1,
        "type": "noteOff",
        "noteNumber": 31,
        "velocity": 0,
        "byte9": true
    },
    {
        "deltaTime": 0,
        "channel": 8,
        "type": "noteOff",
        "noteNumber": 31,
        "velocity": 0,
        "byte9": true
    },
    {
        "deltaTime": 6,
        "channel": 14,
        "type": "noteOn",
        "noteNumber": 62,
        "velocity": 108
    },
    {
        "deltaTime": 0,
        "running": true,
        "channel": 14,
        "type": "noteOn",
        "noteNumber": 67,
        "velocity": 97
    },
    {
        "deltaTime": 0,
        "running": true,
        "channel": 14,
        "type": "noteOn",
        "noteNumber": 70,
        "velocity": 98
    },
    {
        "deltaTime": 10,
        "channel": 12,
        "type": "noteOff",
        "noteNumber": 55,
        "velocity": 0,
        "byte9": true
    },
    {
        "deltaTime": 42,
        "running": true,
        "channel": 12,
        "type": "noteOff",
        "noteNumber": 58,
        "velocity": 0,
        "byte9": true
    },
    {
        "deltaTime": 75,
        "channel": 5,
        "type": "noteOff",
        "noteNumber": 82,
        "velocity": 0,
        "byte9": true
    },
    {
        "deltaTime": 12,
        "running": true,
        "channel": 5,
        "type": "noteOff",
        "noteNumber": 74,
        "velocity": 0,
        "byte9": true
    },
    {
        "deltaTime": 5,
        "running": true,
        "channel": 5,
        "type": "noteOff",
        "noteNumber": 79,
        "velocity": 0,
        "byte9": true
    },
    {
        "deltaTime": 3,
        "channel": 14,
        "type": "noteOff",
        "noteNumber": 70,
        "velocity": 0,
        "byte9": true
    },
    {
        "deltaTime": 12,
        "running": true,
        "channel": 14,
        "type": "noteOff",
        "noteNumber": 62,
        "velocity": 0,
        "byte9": true
    },
    {
        "deltaTime": 5,
        "running": true,
        "channel": 14,
        "type": "noteOff",
        "noteNumber": 67,
        "velocity": 0,
        "byte9": true
    },
    {
        "deltaTime": 43,
        "channel": 3,
        "type": "noteOff",
        "noteNumber": 79,
        "velocity": 0,
        "byte9": true
    },
    {
        "deltaTime": 0,
        "channel": 3,
        "type": "noteOn",
        "noteNumber": 77,
        "velocity": 115
    },
    {
        "deltaTime": 90,
        "channel": 1,
        "type": "noteOn",
        "noteNumber": 31,
        "velocity": 110
    },
    {
        "deltaTime": 0,
        "channel": 8,
        "type": "noteOn",
        "noteNumber": 31,
        "velocity": 110
    },
    {
        "deltaTime": 0,
        "channel": 9,
        "type": "noteOn",
        "noteNumber": 35,
        "velocity": 114
    },
    {
        "deltaTime": 0,
        "channel": 11,
        "type": "noteOn",
        "noteNumber": 41,
        "velocity": 114
    },
    {
        "deltaTime": 12,
        "channel": 9,
        "type": "noteOff",
        "noteNumber": 35,
        "velocity": 0,
        "byte9": true
    },
    {
        "deltaTime": 1,
        "channel": 3,
        "type": "noteOff",
        "noteNumber": 77,
        "velocity": 0,
        "byte9": true
    },
    {
        "deltaTime": 0,
        "channel": 3,
        "type": "noteOn",
        "noteNumber": 77,
        "velocity": 119
    },
    {
        "deltaTime": 45,
        "channel": 12,
        "type": "noteOff",
        "noteNumber": 62,
        "velocity": 0,
        "byte9": true
    },
    {
        "deltaTime": 4,
        "channel": 5,
        "type": "noteOn",
        "noteNumber": 74,
        "velocity": 105
    },
    {
        "deltaTime": 0,
        "running": true,
        "channel": 5,
        "type": "noteOn",
        "noteNumber": 79,
        "velocity": 89
    },
    {
        "deltaTime": 0,
        "running": true,
        "channel": 5,
        "type": "noteOn",
        "noteNumber": 82,
        "velocity": 94
    },
    {
        "deltaTime": 0,
        "channel": 12,
        "type": "noteOn",
        "noteNumber": 58,
        "velocity": 119
    },
    {
        "deltaTime": 1,
        "channel": 11,
        "type": "noteOff",
        "noteNumber": 41,
        "velocity": 0,
        "byte9": true
    },
    {
        "deltaTime": 18,
        "channel": 14,
        "type": "noteOn",
        "noteNumber": 62,
        "velocity": 105
    },
    {
        "deltaTime": 0,
        "running": true,
        "channel": 14,
        "type": "noteOn",
        "noteNumber": 67,
        "velocity": 89
    },
    {
        "deltaTime": 0,
        "running": true,
        "channel": 14,
        "type": "noteOn",
        "noteNumber": 70,
        "velocity": 94
    },
    {
        "deltaTime": 127,
        "channel": 5,
        "type": "noteOff",
        "noteNumber": 82,
        "velocity": 0,
        "byte9": true
    },
    {
        "deltaTime": 19,
        "channel": 14,
        "type": "noteOff",
        "noteNumber": 70,
        "velocity": 0,
        "byte9": true
    },
    {
        "deltaTime": 3,
        "channel": 5,
        "type": "noteOff",
        "noteNumber": 74,
        "velocity": 0,
        "byte9": true
    },
    {
        "deltaTime": 0,
        "running": true,
        "channel": 5,
        "type": "noteOff",
        "noteNumber": 79,
        "velocity": 0,
        "byte9": true
    },
    {
        "deltaTime": 20,
        "channel": 14,
        "type": "noteOff",
        "noteNumber": 62,
        "velocity": 0,
        "byte9": true
    },
    {
        "deltaTime": 0,
        "running": true,
        "channel": 14,
        "type": "noteOff",
        "noteNumber": 67,
        "velocity": 0,
        "byte9": true
    },
    {
        "deltaTime": 132,
        "channel": 1,
        "type": "noteOn",
        "noteNumber": 32,
        "velocity": 110
    },
    {
        "deltaTime": 0,
        "channel": 8,
        "type": "noteOn",
        "noteNumber": 32,
        "velocity": 110
    },
    {
        "deltaTime": 0,
        "channel": 9,
        "type": "noteOn",
        "noteNumber": 35,
        "velocity": 114
    },
    {
        "deltaTime": 0,
        "running": true,
        "channel": 9,
        "type": "noteOn",
        "noteNumber": 70,
        "velocity": 65
    },
    {
        "deltaTime": 0,
        "channel": 11,
        "type": "noteOn",
        "noteNumber": 41,
        "velocity": 114
    },
    {
        "deltaTime": 12,
        "channel": 9,
        "type": "noteOff",
        "noteNumber": 35,
        "velocity": 0,
        "byte9": true
    },
    {
        "deltaTime": 0,
        "running": true,
        "channel": 9,
        "type": "noteOff",
        "noteNumber": 70,
        "velocity": 0,
        "byte9": true
    },
    {
        "deltaTime": 1,
        "channel": 1,
        "type": "noteOff",
        "noteNumber": 31,
        "velocity": 0,
        "byte9": true
    },
    {
        "deltaTime": 0,
        "channel": 8,
        "type": "noteOff",
        "noteNumber": 31,
        "velocity": 0,
        "byte9": true
    },
    {
        "deltaTime": 147,
        "channel": 5,
        "type": "noteOn",
        "noteNumber": 74,
        "velocity": 109
    },
    {
        "deltaTime": 0,
        "running": true,
        "channel": 5,
        "type": "noteOn",
        "noteNumber": 79,
        "velocity": 97
    },
    {
        "deltaTime": 0,
        "running": true,
        "channel": 5,
        "type": "noteOn",
        "noteNumber": 82,
        "velocity": 110
    },
    {
        "deltaTime": 0,
        "channel": 9,
        "type": "noteOn",
        "noteNumber": 44,
        "velocity": 107
    },
    {
        "deltaTime": 0,
        "running": true,
        "channel": 9,
        "type": "noteOn",
        "noteNumber": 54,
        "velocity": 109
    },
    {
        "deltaTime": 1,
        "channel": 11,
        "type": "noteOff",
        "noteNumber": 41,
        "velocity": 0,
        "byte9": true
    },
    {
        "deltaTime": 11,
        "channel": 9,
        "type": "noteOff",
        "noteNumber": 44,
        "velocity": 0,
        "byte9": true
    },
    {
        "deltaTime": 0,
        "running": true,
        "channel": 9,
        "type": "noteOff",
        "noteNumber": 54,
        "velocity": 0,
        "byte9": true
    },
    {
        "deltaTime": 7,
        "channel": 14,
        "type": "noteOn",
        "noteNumber": 62,
        "velocity": 109
    },
    {
        "deltaTime": 0,
        "running": true,
        "channel": 14,
        "type": "noteOn",
        "noteNumber": 67,
        "velocity": 97
    },
    {
        "deltaTime": 0,
        "running": true,
        "channel": 14,
        "type": "noteOn",
        "noteNumber": 70,
        "velocity": 110
    },
    {
        "deltaTime": 71,
        "channel": 3,
        "type": "noteOff",
        "noteNumber": 77,
        "velocity": 0,
        "byte9": true
    },
    {
        "deltaTime": 59,
        "channel": 5,
        "type": "noteOff",
        "noteNumber": 82,
        "velocity": 0,
        "byte9": true
    },
    {
        "deltaTime": 9,
        "running": true,
        "channel": 5,
        "type": "noteOff",
        "noteNumber": 74,
        "velocity": 0,
        "byte9": true
    },
    {
        "deltaTime": 3,
        "running": true,
        "channel": 5,
        "type": "noteOff",
        "noteNumber": 79,
        "velocity": 0,
        "byte9": true
    },
    {
        "deltaTime": 7,
        "channel": 14,
        "type": "noteOff",
        "noteNumber": 70,
        "velocity": 0,
        "byte9": true
    },
    {
        "deltaTime": 9,
        "running": true,
        "channel": 14,
        "type": "noteOff",
        "noteNumber": 62,
        "velocity": 0,
        "byte9": true
    },
    {
        "deltaTime": 3,
        "running": true,
        "channel": 14,
        "type": "noteOff",
        "noteNumber": 67,
        "velocity": 0,
        "byte9": true
    },
    {
        "deltaTime": 136,
        "channel": 1,
        "type": "noteOff",
        "noteNumber": 32,
        "velocity": 0,
        "byte9": true
    },
    {
        "deltaTime": 0,
        "channel": 8,
        "type": "noteOff",
        "noteNumber": 32,
        "velocity": 0,
        "byte9": true
    },
    {
        "deltaTime": 0,
        "channel": 12,
        "type": "noteOff",
        "noteNumber": 58,
        "velocity": 0,
        "byte9": true
    },
    {
        "deltaTime": 4,
        "channel": 1,
        "type": "noteOn",
        "noteNumber": 33,
        "velocity": 110
    },
    {
        "deltaTime": 0,
        "channel": 8,
        "type": "noteOn",
        "noteNumber": 33,
        "velocity": 110
    },
    {
        "deltaTime": 0,
        "channel": 12,
        "type": "noteOn",
        "noteNumber": 55,
        "velocity": 119
    },
    {
        "deltaTime": 76,
        "running": true,
        "channel": 12,
        "type": "noteOff",
        "noteNumber": 55,
        "velocity": 0,
        "byte9": true
    },
    {
        "deltaTime": 4,
        "running": true,
        "channel": 12,
        "type": "noteOn",
        "noteNumber": 57,
        "velocity": 119
    },
    {
        "deltaTime": 76,
        "channel": 1,
        "type": "noteOff",
        "noteNumber": 33,
        "velocity": 0,
        "byte9": true
    },
    {
        "deltaTime": 0,
        "channel": 8,
        "type": "noteOff",
        "noteNumber": 33,
        "velocity": 0,
        "byte9": true
    },
    {
        "deltaTime": 0,
        "channel": 10,
        "type": "noteOff",
        "noteNumber": 79,
        "velocity": 0,
        "byte9": true
    },
    {
        "deltaTime": 0,
        "channel": 12,
        "type": "noteOff",
        "noteNumber": 57,
        "velocity": 0,
        "byte9": true
    },
    {
        "deltaTime": 4,
        "channel": 1,
        "type": "noteOn",
        "noteNumber": 34,
        "velocity": 110
    },
    {
        "deltaTime": 0,
        "channel": 5,
        "type": "noteOn",
        "noteNumber": 74,
        "velocity": 101
    },
    {
        "deltaTime": 0,
        "running": true,
        "channel": 5,
        "type": "noteOn",
        "noteNumber": 77,
        "velocity": 97
    },
    {
        "deltaTime": 0,
        "running": true,
        "channel": 5,
        "type": "noteOn",
        "noteNumber": 82,
        "velocity": 105
    },
    {
        "deltaTime": 0,
        "channel": 7,
        "type": "noteOn",
        "noteNumber": 82,
        "velocity": 104
    },
    {
        "deltaTime": 0,
        "channel": 8,
        "type": "noteOn",
        "noteNumber": 34,
        "velocity": 110
    },
    {
        "deltaTime": 0,
        "channel": 9,
        "type": "noteOn",
        "noteNumber": 35,
        "velocity": 114
    },
    {
        "deltaTime": 0,
        "channel": 10,
        "type": "noteOn",
        "noteNumber": 70,
        "velocity": 104
    },
    {
        "deltaTime": 0,
        "running": true,
        "channel": 10,
        "type": "noteOn",
        "noteNumber": 82,
        "velocity": 104
    },
    {
        "deltaTime": 0,
        "channel": 11,
        "type": "noteOn",
        "noteNumber": 41,
        "velocity": 114
    },
    {
        "deltaTime": 0,
        "channel": 12,
        "type": "noteOn",
        "noteNumber": 58,
        "velocity": 127
    },
    {
        "deltaTime": 12,
        "channel": 9,
        "type": "noteOff",
        "noteNumber": 35,
        "velocity": 0,
        "byte9": true
    },
    {
        "deltaTime": 7,
        "channel": 14,
        "type": "noteOn",
        "noteNumber": 62,
        "velocity": 101
    },
    {
        "deltaTime": 0,
        "running": true,
        "channel": 14,
        "type": "noteOn",
        "noteNumber": 65,
        "velocity": 97
    },
    {
        "deltaTime": 0,
        "running": true,
        "channel": 14,
        "type": "noteOn",
        "noteNumber": 70,
        "velocity": 105
    },
    {
        "deltaTime": 54,
        "channel": 5,
        "type": "noteOff",
        "noteNumber": 82,
        "velocity": 0,
        "byte9": true
    },
    {
        "deltaTime": 20,
        "channel": 14,
        "type": "noteOff",
        "noteNumber": 70,
        "velocity": 0,
        "byte9": true
    },
    {
        "deltaTime": 28,
        "channel": 5,
        "type": "noteOff",
        "noteNumber": 77,
        "velocity": 0,
        "byte9": true
    },
    {
        "deltaTime": 2,
        "running": true,
        "channel": 5,
        "type": "noteOff",
        "noteNumber": 74,
        "velocity": 0,
        "byte9": true
    },
    {
        "deltaTime": 17,
        "channel": 14,
        "type": "noteOff",
        "noteNumber": 65,
        "velocity": 0,
        "byte9": true
    },
    {
        "deltaTime": 2,
        "running": true,
        "channel": 14,
        "type": "noteOff",
        "noteNumber": 62,
        "velocity": 0,
        "byte9": true
    },
    {
        "deltaTime": 19,
        "channel": 11,
        "type": "noteOff",
        "noteNumber": 41,
        "velocity": 0,
        "byte9": true
    },
    {
        "deltaTime": 159,
        "channel": 12,
        "type": "noteOn",
        "noteNumber": 62,
        "velocity": 105
    },
    {
        "deltaTime": 160,
        "channel": 5,
        "type": "noteOn",
        "noteNumber": 74,
        "velocity": 111
    },
    {
        "deltaTime": 0,
        "running": true,
        "channel": 5,
        "type": "noteOn",
        "noteNumber": 77,
        "velocity": 107
    },
    {
        "deltaTime": 0,
        "running": true,
        "channel": 5,
        "type": "noteOn",
        "noteNumber": 82,
        "velocity": 105
    },
    {
        "deltaTime": 0,
        "channel": 9,
        "type": "noteOn",
        "noteNumber": 44,
        "velocity": 107
    },
    {
        "deltaTime": 0,
        "running": true,
        "channel": 9,
        "type": "noteOn",
        "noteNumber": 69,
        "velocity": 109
    },
    {
        "deltaTime": 0,
        "channel": 12,
        "type": "noteOn",
        "noteNumber": 65,
        "velocity": 89
    },
    {
        "deltaTime": 12,
        "channel": 9,
        "type": "noteOff",
        "noteNumber": 44,
        "velocity": 0,
        "byte9": true
    },
    {
        "deltaTime": 0,
        "running": true,
        "channel": 9,
        "type": "noteOff",
        "noteNumber": 69,
        "velocity": 0,
        "byte9": true
    },
    {
        "deltaTime": 1,
        "channel": 1,
        "type": "noteOff",
        "noteNumber": 34,
        "velocity": 0,
        "byte9": true
    },
    {
        "deltaTime": 0,
        "channel": 8,
        "type": "noteOff",
        "noteNumber": 34,
        "velocity": 0,
        "byte9": true
    },
    {
        "deltaTime": 6,
        "channel": 14,
        "type": "noteOn",
        "noteNumber": 62,
        "velocity": 111
    },
    {
        "deltaTime": 0,
        "running": true,
        "channel": 14,
        "type": "noteOn",
        "noteNumber": 65,
        "velocity": 107
    },
    {
        "deltaTime": 0,
        "running": true,
        "channel": 14,
        "type": "noteOn",
        "noteNumber": 70,
        "velocity": 105
    },
    {
        "deltaTime": 138,
        "channel": 5,
        "type": "noteOff",
        "noteNumber": 82,
        "velocity": 0,
        "byte9": true
    },
    {
        "deltaTime": 7,
        "running": true,
        "channel": 5,
        "type": "noteOff",
        "noteNumber": 77,
        "velocity": 0,
        "byte9": true
    },
    {
        "deltaTime": 4,
        "running": true,
        "channel": 5,
        "type": "noteOff",
        "noteNumber": 74,
        "velocity": 0,
        "byte9": true
    },
    {
        "deltaTime": 9,
        "channel": 14,
        "type": "noteOff",
        "noteNumber": 70,
        "velocity": 0,
        "byte9": true
    },
    {
        "deltaTime": 7,
        "running": true,
        "channel": 14,
        "type": "noteOff",
        "noteNumber": 65,
        "velocity": 0,
        "byte9": true
    },
    {
        "deltaTime": 4,
        "running": true,
        "channel": 14,
        "type": "noteOff",
        "noteNumber": 62,
        "velocity": 0,
        "byte9": true
    },
    {
        "deltaTime": 0,
        "channel": 3,
        "type": "noteOn",
        "noteNumber": 76,
        "velocity": 119
    },
    {
        "deltaTime": 45,
        "channel": 1,
        "type": "noteOn",
        "noteNumber": 34,
        "velocity": 110
    },
    {
        "deltaTime": 0,
        "channel": 8,
        "type": "noteOn",
        "noteNumber": 34,
        "velocity": 110
    },
    {
        "deltaTime": 0,
        "channel": 9,
        "type": "noteOn",
        "noteNumber": 35,
        "velocity": 107
    },
    {
        "deltaTime": 0,
        "channel": 11,
        "type": "noteOn",
        "noteNumber": 41,
        "velocity": 107
    },
    {
        "deltaTime": 0,
        "channel": 12,
        "type": "noteOn",
        "noteNumber": 70,
        "velocity": 115
    },
    {
        "deltaTime": 12,
        "channel": 9,
        "type": "noteOff",
        "noteNumber": 35,
        "velocity": 0,
        "byte9": true
    },
    {
        "deltaTime": 37,
        "channel": 1,
        "type": "noteOff",
        "noteNumber": 34,
        "velocity": 0,
        "byte9": true
    },
    {
        "deltaTime": 0,
        "channel": 8,
        "type": "noteOff",
        "noteNumber": 34,
        "velocity": 0,
        "byte9": true
    },
    {
        "deltaTime": 107,
        "channel": 10,
        "type": "noteOff",
        "noteNumber": 70,
        "velocity": 0,
        "byte9": true
    },
    {
        "deltaTime": 0,
        "running": true,
        "channel": 10,
        "type": "noteOff",
        "noteNumber": 82,
        "velocity": 0,
        "byte9": true
    },
    {
        "deltaTime": 4,
        "channel": 1,
        "type": "noteOn",
        "noteNumber": 34,
        "velocity": 110
    },
    {
        "deltaTime": 0,
        "channel": 5,
        "type": "noteOn",
        "noteNumber": 74,
        "velocity": 105
    },
    {
        "deltaTime": 0,
        "running": true,
        "channel": 5,
        "type": "noteOn",
        "noteNumber": 77,
        "velocity": 94
    },
    {
        "deltaTime": 0,
        "running": true,
        "channel": 5,
        "type": "noteOn",
        "noteNumber": 82,
        "velocity": 94
    },
    {
        "deltaTime": 0,
        "channel": 7,
        "type": "noteOn",
        "noteNumber": 81,
        "velocity": 104
    },
    {
        "deltaTime": 0,
        "channel": 8,
        "type": "noteOn",
        "noteNumber": 34,
        "velocity": 110
    },
    {
        "deltaTime": 0,
        "channel": 9,
        "type": "noteOn",
        "noteNumber": 35,
        "velocity": 114
    },
    {
        "deltaTime": 0,
        "channel": 10,
        "type": "noteOn",
        "noteNumber": 69,
        "velocity": 104
    },
    {
        "deltaTime": 0,
        "running": true,
        "channel": 10,
        "type": "noteOn",
        "noteNumber": 81,
        "velocity": 104
    },
    {
        "deltaTime": 0,
        "channel": 11,
        "type": "noteOn",
        "noteNumber": 41,
        "velocity": 114
    },
    {
        "deltaTime": 0,
        "channel": 12,
        "type": "noteOn",
        "noteNumber": 69,
        "velocity": 124
    },
    {
        "deltaTime": 1,
        "channel": 11,
        "type": "noteOff",
        "noteNumber": 41,
        "velocity": 0,
        "byte9": true
    },
    {
        "deltaTime": 11,
        "channel": 9,
        "type": "noteOff",
        "noteNumber": 35,
        "velocity": 0,
        "byte9": true
    },
    {
        "deltaTime": 3,
        "channel": 7,
        "type": "noteOff",
        "noteNumber": 82,
        "velocity": 0,
        "byte9": true
    },
    {
        "deltaTime": 4,
        "channel": 14,
        "type": "noteOn",
        "noteNumber": 62,
        "velocity": 105
    },
    {
        "deltaTime": 0,
        "running": true,
        "channel": 14,
        "type": "noteOn",
        "noteNumber": 65,
        "velocity": 94
    },
    {
        "deltaTime": 0,
        "running": true,
        "channel": 14,
        "type": "noteOn",
        "noteNumber": 70,
        "velocity": 94
    },
    {
        "deltaTime": 41,
        "channel": 12,
        "type": "noteOff",
        "noteNumber": 70,
        "velocity": 0,
        "byte9": true
    },
    {
        "deltaTime": 95,
        "channel": 5,
        "type": "noteOff",
        "noteNumber": 82,
        "velocity": 0,
        "byte9": true
    },
    {
        "deltaTime": 6,
        "channel": 11,
        "type": "noteOff",
        "noteNumber": 41,
        "velocity": 0,
        "byte9": true
    },
    {
        "deltaTime": 2,
        "channel": 5,
        "type": "noteOff",
        "noteNumber": 74,
        "velocity": 0,
        "byte9": true
    },
    {
        "deltaTime": 4,
        "running": true,
        "channel": 5,
        "type": "noteOff",
        "noteNumber": 77,
        "velocity": 0,
        "byte9": true
    },
    {
        "deltaTime": 8,
        "channel": 14,
        "type": "noteOff",
        "noteNumber": 70,
        "velocity": 0,
        "byte9": true
    },
    {
        "deltaTime": 8,
        "running": true,
        "channel": 14,
        "type": "noteOff",
        "noteNumber": 62,
        "velocity": 0,
        "byte9": true
    },
    {
        "deltaTime": 4,
        "running": true,
        "channel": 14,
        "type": "noteOff",
        "noteNumber": 65,
        "velocity": 0,
        "byte9": true
    },
    {
        "deltaTime": 133,
        "channel": 9,
        "type": "noteOn",
        "noteNumber": 70,
        "velocity": 65
    },
    {
        "deltaTime": 12,
        "running": true,
        "channel": 9,
        "type": "noteOff",
        "noteNumber": 70,
        "velocity": 0,
        "byte9": true
    },
    {
        "deltaTime": 3,
        "channel": 3,
        "type": "noteOff",
        "noteNumber": 76,
        "velocity": 0,
        "byte9": true
    },
    {
        "deltaTime": 0,
        "channel": 3,
        "type": "noteOn",
        "noteNumber": 77,
        "velocity": 114
    },
    {
        "deltaTime": 128,
        "channel": 5,
        "type": "noteOn",
        "noteNumber": 74,
        "velocity": 109
    },
    {
        "deltaTime": 0,
        "running": true,
        "channel": 5,
        "type": "noteOn",
        "noteNumber": 77,
        "velocity": 94
    },
    {
        "deltaTime": 0,
        "running": true,
        "channel": 5,
        "type": "noteOn",
        "noteNumber": 82,
        "velocity": 94
    },
    {
        "deltaTime": 0,
        "channel": 9,
        "type": "noteOn",
        "noteNumber": 44,
        "velocity": 107
    },
    {
        "deltaTime": 0,
        "running": true,
        "channel": 9,
        "type": "noteOn",
        "noteNumber": 54,
        "velocity": 109
    },
    {
        "deltaTime": 12,
        "running": true,
        "channel": 9,
        "type": "noteOff",
        "noteNumber": 44,
        "velocity": 0,
        "byte9": true
    },
    {
        "deltaTime": 0,
        "running": true,
        "channel": 9,
        "type": "noteOff",
        "noteNumber": 54,
        "velocity": 0,
        "byte9": true
    },
    {
        "deltaTime": 1,
        "channel": 1,
        "type": "noteOff",
        "noteNumber": 34,
        "velocity": 0,
        "byte9": true
    },
    {
        "deltaTime": 0,
        "channel": 8,
        "type": "noteOff",
        "noteNumber": 34,
        "velocity": 0,
        "byte9": true
    },
    {
        "deltaTime": 6,
        "channel": 14,
        "type": "noteOn",
        "noteNumber": 62,
        "velocity": 109
    },
    {
        "deltaTime": 0,
        "running": true,
        "channel": 14,
        "type": "noteOn",
        "noteNumber": 65,
        "velocity": 94
    },
    {
        "deltaTime": 0,
        "running": true,
        "channel": 14,
        "type": "noteOn",
        "noteNumber": 70,
        "velocity": 94
    },
    {
        "deltaTime": 122,
        "channel": 5,
        "type": "noteOff",
        "noteNumber": 82,
        "velocity": 0,
        "byte9": true
    },
    {
        "deltaTime": 9,
        "channel": 12,
        "type": "noteOff",
        "noteNumber": 58,
        "velocity": 0,
        "byte9": true
    },
    {
        "deltaTime": 4,
        "channel": 5,
        "type": "noteOff",
        "noteNumber": 74,
        "velocity": 0,
        "byte9": true
    },
    {
        "deltaTime": 0,
        "running": true,
        "channel": 5,
        "type": "noteOff",
        "noteNumber": 77,
        "velocity": 0,
        "byte9": true
    },
    {
        "deltaTime": 7,
        "channel": 14,
        "type": "noteOff",
        "noteNumber": 70,
        "velocity": 0,
        "byte9": true
    },
    {
        "deltaTime": 13,
        "running": true,
        "channel": 14,
        "type": "noteOff",
        "noteNumber": 62,
        "velocity": 0,
        "byte9": true
    },
    {
        "deltaTime": 0,
        "running": true,
        "channel": 14,
        "type": "noteOff",
        "noteNumber": 65,
        "velocity": 0,
        "byte9": true
    },
    {
        "deltaTime": 4,
        "channel": 12,
        "type": "noteOff",
        "noteNumber": 65,
        "velocity": 0,
        "byte9": true
    },
    {
        "deltaTime": 4,
        "running": true,
        "channel": 12,
        "type": "noteOff",
        "noteNumber": 62,
        "velocity": 0,
        "byte9": true
    },
    {
        "deltaTime": 9,
        "running": true,
        "channel": 12,
        "type": "noteOff",
        "noteNumber": 69,
        "velocity": 0,
        "byte9": true
    },
    {
        "deltaTime": 230,
        "channel": 3,
        "type": "noteOff",
        "noteNumber": 77,
        "velocity": 0,
        "byte9": true
    },
    {
        "deltaTime": 3,
        "running": true,
        "channel": 3,
        "type": "noteOn",
        "noteNumber": 76,
        "velocity": 119
    },
    {
        "deltaTime": 52,
        "channel": 10,
        "type": "noteOff",
        "noteNumber": 69,
        "velocity": 0,
        "byte9": true
    },
    {
        "deltaTime": 0,
        "running": true,
        "channel": 10,
        "type": "noteOff",
        "noteNumber": 81,
        "velocity": 0,
        "byte9": true
    },
    {
        "deltaTime": 4,
        "channel": 1,
        "type": "noteOn",
        "noteNumber": 34,
        "velocity": 110
    },
    {
        "deltaTime": 0,
        "channel": 5,
        "type": "noteOn",
        "noteNumber": 74,
        "velocity": 109
    },
    {
        "deltaTime": 0,
        "running": true,
        "channel": 5,
        "type": "noteOn",
        "noteNumber": 77,
        "velocity": 94
    },
    {
        "deltaTime": 0,
        "running": true,
        "channel": 5,
        "type": "noteOn",
        "noteNumber": 82,
        "velocity": 101
    },
    {
        "deltaTime": 0,
        "channel": 7,
        "type": "noteOn",
        "noteNumber": 79,
        "velocity": 104
    },
    {
        "deltaTime": 0,
        "channel": 8,
        "type": "noteOn",
        "noteNumber": 34,
        "velocity": 110
    },
    {
        "deltaTime": 0,
        "channel": 9,
        "type": "noteOn",
        "noteNumber": 35,
        "velocity": 114
    },
    {
        "deltaTime": 0,
        "channel": 10,
        "type": "noteOn",
        "noteNumber": 67,
        "velocity": 104
    },
    {
        "deltaTime": 0,
        "running": true,
        "channel": 10,
        "type": "noteOn",
        "noteNumber": 79,
        "velocity": 104
    },
    {
        "deltaTime": 0,
        "channel": 11,
        "type": "noteOn",
        "noteNumber": 41,
        "velocity": 114
    },
    {
        "deltaTime": 12,
        "channel": 9,
        "type": "noteOff",
        "noteNumber": 35,
        "velocity": 0,
        "byte9": true
    },
    {
        "deltaTime": 3,
        "channel": 7,
        "type": "noteOff",
        "noteNumber": 81,
        "velocity": 0,
        "byte9": true
    },
    {
        "deltaTime": 3,
        "channel": 12,
        "type": "noteOn",
        "noteNumber": 58,
        "velocity": 127
    },
    {
        "deltaTime": 1,
        "channel": 14,
        "type": "noteOn",
        "noteNumber": 62,
        "velocity": 109
    },
    {
        "deltaTime": 0,
        "running": true,
        "channel": 14,
        "type": "noteOn",
        "noteNumber": 65,
        "velocity": 94
    },
    {
        "deltaTime": 0,
        "running": true,
        "channel": 14,
        "type": "noteOn",
        "noteNumber": 70,
        "velocity": 101
    },
    {
        "deltaTime": 136,
        "channel": 5,
        "type": "noteOff",
        "noteNumber": 82,
        "velocity": 0,
        "byte9": true
    },
    {
        "deltaTime": 6,
        "channel": 11,
        "type": "noteOff",
        "noteNumber": 41,
        "velocity": 0,
        "byte9": true
    },
    {
        "deltaTime": 10,
        "channel": 5,
        "type": "noteOff",
        "noteNumber": 74,
        "velocity": 0,
        "byte9": true
    },
    {
        "deltaTime": 0,
        "running": true,
        "channel": 5,
        "type": "noteOff",
        "noteNumber": 77,
        "velocity": 0,
        "byte9": true
    },
    {
        "deltaTime": 4,
        "channel": 14,
        "type": "noteOff",
        "noteNumber": 70,
        "velocity": 0,
        "byte9": true
    },
    {
        "deltaTime": 16,
        "running": true,
        "channel": 14,
        "type": "noteOff",
        "noteNumber": 62,
        "velocity": 0,
        "byte9": true
    },
    {
        "deltaTime": 0,
        "running": true,
        "channel": 14,
        "type": "noteOff",
        "noteNumber": 65,
        "velocity": 0,
        "byte9": true
    },
    {
        "deltaTime": 97,
        "channel": 12,
        "type": "noteOn",
        "noteNumber": 62,
        "velocity": 114
    },
    {
        "deltaTime": 0,
        "channel": 3,
        "type": "noteOn",
        "noteNumber": 79,
        "velocity": 119
    },
    {
        "deltaTime": 29,
        "running": true,
        "channel": 3,
        "type": "noteOff",
        "noteNumber": 76,
        "velocity": 0,
        "byte9": true
    },
    {
        "deltaTime": 27,
        "channel": 5,
        "type": "noteOn",
        "noteNumber": 74,
        "velocity": 108
    },
    {
        "deltaTime": 0,
        "running": true,
        "channel": 5,
        "type": "noteOn",
        "noteNumber": 77,
        "velocity": 97
    },
    {
        "deltaTime": 0,
        "running": true,
        "channel": 5,
        "type": "noteOn",
        "noteNumber": 82,
        "velocity": 98
    },
    {
        "deltaTime": 0,
        "channel": 9,
        "type": "noteOn",
        "noteNumber": 44,
        "velocity": 107
    },
    {
        "deltaTime": 0,
        "running": true,
        "channel": 9,
        "type": "noteOn",
        "noteNumber": 69,
        "velocity": 109
    },
    {
        "deltaTime": 12,
        "running": true,
        "channel": 9,
        "type": "noteOff",
        "noteNumber": 44,
        "velocity": 0,
        "byte9": true
    },
    {
        "deltaTime": 0,
        "running": true,
        "channel": 9,
        "type": "noteOff",
        "noteNumber": 69,
        "velocity": 0,
        "byte9": true
    },
    {
        "deltaTime": 1,
        "channel": 1,
        "type": "noteOff",
        "noteNumber": 34,
        "velocity": 0,
        "byte9": true
    },
    {
        "deltaTime": 0,
        "channel": 8,
        "type": "noteOff",
        "noteNumber": 34,
        "velocity": 0,
        "byte9": true
    },
    {
        "deltaTime": 6,
        "channel": 14,
        "type": "noteOn",
        "noteNumber": 62,
        "velocity": 108
    },
    {
        "deltaTime": 0,
        "running": true,
        "channel": 14,
        "type": "noteOn",
        "noteNumber": 65,
        "velocity": 97
    },
    {
        "deltaTime": 0,
        "running": true,
        "channel": 14,
        "type": "noteOn",
        "noteNumber": 70,
        "velocity": 98
    },
    {
        "deltaTime": 127,
        "channel": 5,
        "type": "noteOff",
        "noteNumber": 82,
        "velocity": 0,
        "byte9": true
    },
    {
        "deltaTime": 12,
        "running": true,
        "channel": 5,
        "type": "noteOff",
        "noteNumber": 74,
        "velocity": 0,
        "byte9": true
    },
    {
        "deltaTime": 5,
        "running": true,
        "channel": 5,
        "type": "noteOff",
        "noteNumber": 77,
        "velocity": 0,
        "byte9": true
    },
    {
        "deltaTime": 3,
        "channel": 14,
        "type": "noteOff",
        "noteNumber": 70,
        "velocity": 0,
        "byte9": true
    },
    {
        "deltaTime": 12,
        "running": true,
        "channel": 14,
        "type": "noteOff",
        "noteNumber": 62,
        "velocity": 0,
        "byte9": true
    },
    {
        "deltaTime": 5,
        "running": true,
        "channel": 14,
        "type": "noteOff",
        "noteNumber": 65,
        "velocity": 0,
        "byte9": true
    },
    {
        "deltaTime": 117,
        "channel": 3,
        "type": "noteOff",
        "noteNumber": 79,
        "velocity": 0,
        "byte9": true
    },
    {
        "deltaTime": 0,
        "channel": 3,
        "type": "noteOn",
        "noteNumber": 77,
        "velocity": 127
    },
    {
        "deltaTime": 16,
        "channel": 1,
        "type": "noteOn",
        "noteNumber": 34,
        "velocity": 110
    },
    {
        "deltaTime": 0,
        "channel": 8,
        "type": "noteOn",
        "noteNumber": 34,
        "velocity": 110
    },
    {
        "deltaTime": 0,
        "channel": 9,
        "type": "noteOn",
        "noteNumber": 35,
        "velocity": 114
    },
    {
        "deltaTime": 0,
        "channel": 11,
        "type": "noteOn",
        "noteNumber": 41,
        "velocity": 114
    },
    {
        "deltaTime": 0,
        "channel": 12,
        "type": "noteOn",
        "noteNumber": 67,
        "velocity": 115
    },
    {
        "deltaTime": 12,
        "channel": 9,
        "type": "noteOff",
        "noteNumber": 35,
        "velocity": 0,
        "byte9": true
    },
    {
        "deltaTime": 139,
        "channel": 12,
        "type": "noteOff",
        "noteNumber": 67,
        "velocity": 0,
        "byte9": true
    },
    {
        "deltaTime": 4,
        "running": true,
        "channel": 12,
        "type": "noteOn",
        "noteNumber": 65,
        "velocity": 105
    },
    {
        "deltaTime": 1,
        "channel": 10,
        "type": "noteOff",
        "noteNumber": 67,
        "velocity": 0,
        "byte9": true
    },
    {
        "deltaTime": 0,
        "running": true,
        "channel": 10,
        "type": "noteOff",
        "noteNumber": 79,
        "velocity": 0,
        "byte9": true
    },
    {
        "deltaTime": 4,
        "channel": 5,
        "type": "noteOn",
        "noteNumber": 74,
        "velocity": 105
    },
    {
        "deltaTime": 0,
        "running": true,
        "channel": 5,
        "type": "noteOn",
        "noteNumber": 77,
        "velocity": 89
    },
    {
        "deltaTime": 0,
        "running": true,
        "channel": 5,
        "type": "noteOn",
        "noteNumber": 82,
        "velocity": 94
    },
    {
        "deltaTime": 0,
        "channel": 7,
        "type": "noteOn",
        "noteNumber": 77,
        "velocity": 104
    },
    {
        "deltaTime": 0,
        "channel": 10,
        "type": "noteOn",
        "noteNumber": 65,
        "velocity": 104
    },
    {
        "deltaTime": 0,
        "running": true,
        "channel": 10,
        "type": "noteOn",
        "noteNumber": 77,
        "velocity": 104
    },
    {
        "deltaTime": 1,
        "channel": 11,
        "type": "noteOff",
        "noteNumber": 41,
        "velocity": 0,
        "byte9": true
    },
    {
        "deltaTime": 14,
        "channel": 7,
        "type": "noteOff",
        "noteNumber": 79,
        "velocity": 0,
        "byte9": true
    },
    {
        "deltaTime": 4,
        "channel": 14,
        "type": "noteOn",
        "noteNumber": 62,
        "velocity": 105
    },
    {
        "deltaTime": 0,
        "running": true,
        "channel": 14,
        "type": "noteOn",
        "noteNumber": 65,
        "velocity": 89
    },
    {
        "deltaTime": 0,
        "running": true,
        "channel": 14,
        "type": "noteOn",
        "noteNumber": 70,
        "velocity": 94
    },
    {
        "deltaTime": 127,
        "channel": 5,
        "type": "noteOff",
        "noteNumber": 82,
        "velocity": 0,
        "byte9": true
    },
    {
        "deltaTime": 6,
        "channel": 3,
        "type": "noteOff",
        "noteNumber": 77,
        "velocity": 0,
        "byte9": true
    },
    {
        "deltaTime": 13,
        "channel": 14,
        "type": "noteOff",
        "noteNumber": 70,
        "velocity": 0,
        "byte9": true
    },
    {
        "deltaTime": 3,
        "channel": 5,
        "type": "noteOff",
        "noteNumber": 74,
        "velocity": 0,
        "byte9": true
    },
    {
        "deltaTime": 0,
        "running": true,
        "channel": 5,
        "type": "noteOff",
        "noteNumber": 77,
        "velocity": 0,
        "byte9": true
    },
    {
        "deltaTime": 20,
        "channel": 14,
        "type": "noteOff",
        "noteNumber": 62,
        "velocity": 0,
        "byte9": true
    },
    {
        "deltaTime": 0,
        "running": true,
        "channel": 14,
        "type": "noteOff",
        "noteNumber": 65,
        "velocity": 0,
        "byte9": true
    },
    {
        "deltaTime": 0,
        "channel": 3,
        "type": "noteOn",
        "noteNumber": 77,
        "velocity": 114
    },
    {
        "deltaTime": 25,
        "channel": 1,
        "type": "noteOff",
        "noteNumber": 34,
        "velocity": 0,
        "byte9": true
    },
    {
        "deltaTime": 0,
        "channel": 8,
        "type": "noteOff",
        "noteNumber": 34,
        "velocity": 0,
        "byte9": true
    },
    {
        "deltaTime": 53,
        "channel": 1,
        "type": "noteOn",
        "noteNumber": 34,
        "velocity": 110
    },
    {
        "deltaTime": 0,
        "channel": 8,
        "type": "noteOn",
        "noteNumber": 34,
        "velocity": 110
    },
    {
        "deltaTime": 0,
        "channel": 9,
        "type": "noteOn",
        "noteNumber": 35,
        "velocity": 114
    },
    {
        "deltaTime": 0,
        "running": true,
        "channel": 9,
        "type": "noteOn",
        "noteNumber": 70,
        "velocity": 65
    },
    {
        "deltaTime": 0,
        "channel": 11,
        "type": "noteOn",
        "noteNumber": 41,
        "velocity": 114
    },
    {
        "deltaTime": 12,
        "channel": 9,
        "type": "noteOff",
        "noteNumber": 35,
        "velocity": 0,
        "byte9": true
    },
    {
        "deltaTime": 0,
        "running": true,
        "channel": 9,
        "type": "noteOff",
        "noteNumber": 70,
        "velocity": 0,
        "byte9": true
    },
    {
        "deltaTime": 148,
        "channel": 5,
        "type": "noteOn",
        "noteNumber": 74,
        "velocity": 109
    },
    {
        "deltaTime": 0,
        "running": true,
        "channel": 5,
        "type": "noteOn",
        "noteNumber": 77,
        "velocity": 97
    },
    {
        "deltaTime": 0,
        "running": true,
        "channel": 5,
        "type": "noteOn",
        "noteNumber": 82,
        "velocity": 110
    },
    {
        "deltaTime": 0,
        "channel": 9,
        "type": "noteOn",
        "noteNumber": 44,
        "velocity": 107
    },
    {
        "deltaTime": 0,
        "running": true,
        "channel": 9,
        "type": "noteOn",
        "noteNumber": 54,
        "velocity": 109
    },
    {
        "deltaTime": 1,
        "channel": 11,
        "type": "noteOff",
        "noteNumber": 41,
        "velocity": 0,
        "byte9": true
    },
    {
        "deltaTime": 11,
        "channel": 9,
        "type": "noteOff",
        "noteNumber": 44,
        "velocity": 0,
        "byte9": true
    },
    {
        "deltaTime": 0,
        "running": true,
        "channel": 9,
        "type": "noteOff",
        "noteNumber": 54,
        "velocity": 0,
        "byte9": true
    },
    {
        "deltaTime": 7,
        "channel": 14,
        "type": "noteOn",
        "noteNumber": 62,
        "velocity": 109
    },
    {
        "deltaTime": 0,
        "running": true,
        "channel": 14,
        "type": "noteOn",
        "noteNumber": 65,
        "velocity": 97
    },
    {
        "deltaTime": 0,
        "running": true,
        "channel": 14,
        "type": "noteOn",
        "noteNumber": 70,
        "velocity": 110
    },
    {
        "deltaTime": 130,
        "channel": 5,
        "type": "noteOff",
        "noteNumber": 82,
        "velocity": 0,
        "byte9": true
    },
    {
        "deltaTime": 9,
        "running": true,
        "channel": 5,
        "type": "noteOff",
        "noteNumber": 74,
        "velocity": 0,
        "byte9": true
    },
    {
        "deltaTime": 3,
        "running": true,
        "channel": 5,
        "type": "noteOff",
        "noteNumber": 77,
        "velocity": 0,
        "byte9": true
    },
    {
        "deltaTime": 7,
        "channel": 14,
        "type": "noteOff",
        "noteNumber": 70,
        "velocity": 0,
        "byte9": true
    },
    {
        "deltaTime": 9,
        "running": true,
        "channel": 14,
        "type": "noteOff",
        "noteNumber": 62,
        "velocity": 0,
        "byte9": true
    },
    {
        "deltaTime": 3,
        "running": true,
        "channel": 14,
        "type": "noteOff",
        "noteNumber": 65,
        "velocity": 0,
        "byte9": true
    },
    {
        "deltaTime": 87,
        "channel": 1,
        "type": "noteOff",
        "noteNumber": 34,
        "velocity": 0,
        "byte9": true
    },
    {
        "deltaTime": 0,
        "channel": 8,
        "type": "noteOff",
        "noteNumber": 34,
        "velocity": 0,
        "byte9": true
    },
    {
        "deltaTime": 31,
        "channel": 12,
        "type": "noteOff",
        "noteNumber": 58,
        "velocity": 0,
        "byte9": true
    },
    {
        "deltaTime": 5,
        "running": true,
        "channel": 12,
        "type": "noteOff",
        "noteNumber": 65,
        "velocity": 0,
        "byte9": true
    },
    {
        "deltaTime": 8,
        "running": true,
        "channel": 12,
        "type": "noteOff",
        "noteNumber": 62,
        "velocity": 0,
        "byte9": true
    },
    {
        "deltaTime": 5,
        "channel": 3,
        "type": "noteOff",
        "noteNumber": 77,
        "velocity": 0,
        "byte9": true
    },
    {
        "deltaTime": 0,
        "channel": 1,
        "type": "noteOn",
        "noteNumber": 34,
        "velocity": 110
    },
    {
        "deltaTime": 0,
        "channel": 3,
        "type": "noteOn",
        "noteNumber": 76,
        "velocity": 119
    },
    {
        "deltaTime": 0,
        "channel": 8,
        "type": "noteOn",
        "noteNumber": 34,
        "velocity": 110
    },
    {
        "deltaTime": 49,
        "channel": 1,
        "type": "noteOff",
        "noteNumber": 34,
        "velocity": 0,
        "byte9": true
    },
    {
        "deltaTime": 0,
        "channel": 8,
        "type": "noteOff",
        "noteNumber": 34,
        "velocity": 0,
        "byte9": true
    },
    {
        "deltaTime": 27,
        "channel": 12,
        "type": "noteOn",
        "noteNumber": 57,
        "velocity": 105
    },
    {
        "deltaTime": 61,
        "running": true,
        "channel": 12,
        "type": "noteOn",
        "noteNumber": 61,
        "velocity": 127
    },
    {
        "deltaTime": 19,
        "channel": 3,
        "type": "noteOff",
        "noteNumber": 76,
        "velocity": 0,
        "byte9": true
    },
    {
        "deltaTime": 0,
        "channel": 1,
        "type": "noteOn",
        "noteNumber": 33,
        "velocity": 110
    },
    {
        "deltaTime": 0,
        "channel": 3,
        "type": "noteOn",
        "noteNumber": 76,
        "velocity": 114
    },
    {
        "deltaTime": 0,
        "channel": 5,
        "type": "noteOn",
        "noteNumber": 73,
        "velocity": 101
    },
    {
        "deltaTime": 0,
        "running": true,
        "channel": 5,
        "type": "noteOn",
        "noteNumber": 76,
        "velocity": 97
    },
    {
        "deltaTime": 0,
        "running": true,
        "channel": 5,
        "type": "noteOn",
        "noteNumber": 81,
        "velocity": 105
    },
    {
        "deltaTime": 0,
        "channel": 8,
        "type": "noteOn",
        "noteNumber": 33,
        "velocity": 110
    },
    {
        "deltaTime": 0,
        "channel": 9,
        "type": "noteOn",
        "noteNumber": 35,
        "velocity": 114
    },
    {
        "deltaTime": 0,
        "channel": 10,
        "type": "noteOn",
        "noteNumber": 64,
        "velocity": 104
    },
    {
        "deltaTime": 0,
        "running": true,
        "channel": 10,
        "type": "noteOn",
        "noteNumber": 76,
        "velocity": 104
    },
    {
        "deltaTime": 0,
        "channel": 11,
        "type": "noteOn",
        "noteNumber": 41,
        "velocity": 114
    },
    {
        "deltaTime": 12,
        "channel": 9,
        "type": "noteOff",
        "noteNumber": 35,
        "velocity": 0,
        "byte9": true
    },
    {
        "deltaTime": 3,
        "channel": 7,
        "type": "noteOff",
        "noteNumber": 77,
        "velocity": 0,
        "byte9": true
    },
    {
        "deltaTime": 0,
        "channel": 10,
        "type": "noteOff",
        "noteNumber": 65,
        "velocity": 0,
        "byte9": true
    },
    {
        "deltaTime": 0,
        "running": true,
        "channel": 10,
        "type": "noteOff",
        "noteNumber": 77,
        "velocity": 0,
        "byte9": true
    },
    {
        "deltaTime": 4,
        "channel": 14,
        "type": "noteOn",
        "noteNumber": 61,
        "velocity": 101
    },
    {
        "deltaTime": 0,
        "running": true,
        "channel": 14,
        "type": "noteOn",
        "noteNumber": 64,
        "velocity": 97
    },
    {
        "deltaTime": 0,
        "running": true,
        "channel": 14,
        "type": "noteOn",
        "noteNumber": 69,
        "velocity": 105
    },
    {
        "deltaTime": 15,
        "channel": 12,
        "type": "noteOn",
        "noteNumber": 64,
        "velocity": 119
    },
    {
        "deltaTime": 39,
        "channel": 5,
        "type": "noteOff",
        "noteNumber": 81,
        "velocity": 0,
        "byte9": true
    },
    {
        "deltaTime": 20,
        "channel": 14,
        "type": "noteOff",
        "noteNumber": 69,
        "velocity": 0,
        "byte9": true
    },
    {
        "deltaTime": 28,
        "channel": 5,
        "type": "noteOff",
        "noteNumber": 76,
        "velocity": 0,
        "byte9": true
    },
    {
        "deltaTime": 2,
        "running": true,
        "channel": 5,
        "type": "noteOff",
        "noteNumber": 73,
        "velocity": 0,
        "byte9": true
    },
    {
        "deltaTime": 17,
        "channel": 14,
        "type": "noteOff",
        "noteNumber": 64,
        "velocity": 0,
        "byte9": true
    },
    {
        "deltaTime": 2,
        "running": true,
        "channel": 14,
        "type": "noteOff",
        "noteNumber": 61,
        "velocity": 0,
        "byte9": true
    },
    {
        "deltaTime": 19,
        "channel": 11,
        "type": "noteOff",
        "noteNumber": 41,
        "velocity": 0,
        "byte9": true
    },
    {
        "deltaTime": 319,
        "channel": 5,
        "type": "noteOn",
        "noteNumber": 73,
        "velocity": 111
    },
    {
        "deltaTime": 0,
        "running": true,
        "channel": 5,
        "type": "noteOn",
        "noteNumber": 76,
        "velocity": 107
    },
    {
        "deltaTime": 0,
        "running": true,
        "channel": 5,
        "type": "noteOn",
        "noteNumber": 81,
        "velocity": 105
    },
    {
        "deltaTime": 0,
        "channel": 9,
        "type": "noteOn",
        "noteNumber": 44,
        "velocity": 107
    },
    {
        "deltaTime": 0,
        "running": true,
        "channel": 9,
        "type": "noteOn",
        "noteNumber": 69,
        "velocity": 109
    },
    {
        "deltaTime": 12,
        "running": true,
        "channel": 9,
        "type": "noteOff",
        "noteNumber": 44,
        "velocity": 0,
        "byte9": true
    },
    {
        "deltaTime": 0,
        "running": true,
        "channel": 9,
        "type": "noteOff",
        "noteNumber": 69,
        "velocity": 0,
        "byte9": true
    },
    {
        "deltaTime": 1,
        "channel": 1,
        "type": "noteOff",
        "noteNumber": 33,
        "velocity": 0,
        "byte9": true
    },
    {
        "deltaTime": 0,
        "channel": 8,
        "type": "noteOff",
        "noteNumber": 33,
        "velocity": 0,
        "byte9": true
    },
    {
        "deltaTime": 6,
        "channel": 14,
        "type": "noteOn",
        "noteNumber": 61,
        "velocity": 111
    },
    {
        "deltaTime": 0,
        "running": true,
        "channel": 14,
        "type": "noteOn",
        "noteNumber": 64,
        "velocity": 107
    },
    {
        "deltaTime": 0,
        "running": true,
        "channel": 14,
        "type": "noteOn",
        "noteNumber": 69,
        "velocity": 105
    },
    {
        "deltaTime": 138,
        "channel": 5,
        "type": "noteOff",
        "noteNumber": 81,
        "velocity": 0,
        "byte9": true
    },
    {
        "deltaTime": 7,
        "running": true,
        "channel": 5,
        "type": "noteOff",
        "noteNumber": 76,
        "velocity": 0,
        "byte9": true
    },
    {
        "deltaTime": 4,
        "running": true,
        "channel": 5,
        "type": "noteOff",
        "noteNumber": 73,
        "velocity": 0,
        "byte9": true
    },
    {
        "deltaTime": 9,
        "channel": 14,
        "type": "noteOff",
        "noteNumber": 69,
        "velocity": 0,
        "byte9": true
    },
    {
        "deltaTime": 7,
        "running": true,
        "channel": 14,
        "type": "noteOff",
        "noteNumber": 64,
        "velocity": 0,
        "byte9": true
    },
    {
        "deltaTime": 4,
        "running": true,
        "channel": 14,
        "type": "noteOff",
        "noteNumber": 61,
        "velocity": 0,
        "byte9": true
    },
    {
        "deltaTime": 81,
        "channel": 12,
        "type": "noteOff",
        "noteNumber": 61,
        "velocity": 0,
        "byte9": true
    },
    {
        "deltaTime": 51,
        "channel": 1,
        "type": "noteOn",
        "noteNumber": 33,
        "velocity": 110
    },
    {
        "deltaTime": 0,
        "channel": 8,
        "type": "noteOn",
        "noteNumber": 33,
        "velocity": 110
    },
    {
        "deltaTime": 0,
        "channel": 9,
        "type": "noteOn",
        "noteNumber": 35,
        "velocity": 107
    },
    {
        "deltaTime": 0,
        "channel": 11,
        "type": "noteOn",
        "noteNumber": 41,
        "velocity": 107
    },
    {
        "deltaTime": 12,
        "channel": 9,
        "type": "noteOff",
        "noteNumber": 35,
        "velocity": 0,
        "byte9": true
    },
    {
        "deltaTime": 11,
        "channel": 12,
        "type": "noteOff",
        "noteNumber": 64,
        "velocity": 0,
        "byte9": true
    },
    {
        "deltaTime": 20,
        "running": true,
        "channel": 12,
        "type": "noteOff",
        "noteNumber": 57,
        "velocity": 0,
        "byte9": true
    },
    {
        "deltaTime": 6,
        "channel": 1,
        "type": "noteOff",
        "noteNumber": 33,
        "velocity": 0,
        "byte9": true
    },
    {
        "deltaTime": 0,
        "channel": 8,
        "type": "noteOff",
        "noteNumber": 33,
        "velocity": 0,
        "byte9": true
    },
    {
        "deltaTime": 27,
        "channel": 12,
        "type": "noteOn",
        "noteNumber": 57,
        "velocity": 105
    },
    {
        "deltaTime": 61,
        "running": true,
        "channel": 12,
        "type": "noteOn",
        "noteNumber": 61,
        "velocity": 127
    },
    {
        "deltaTime": 19,
        "channel": 3,
        "type": "noteOff",
        "noteNumber": 76,
        "velocity": 0,
        "byte9": true
    },
    {
        "deltaTime": 0,
        "channel": 1,
        "type": "noteOn",
        "noteNumber": 33,
        "velocity": 110
    },
    {
        "deltaTime": 0,
        "channel": 3,
        "type": "noteOn",
        "noteNumber": 74,
        "velocity": 114
    },
    {
        "deltaTime": 0,
        "channel": 5,
        "type": "noteOn",
        "noteNumber": 73,
        "velocity": 105
    },
    {
        "deltaTime": 0,
        "running": true,
        "channel": 5,
        "type": "noteOn",
        "noteNumber": 76,
        "velocity": 94
    },
    {
        "deltaTime": 0,
        "running": true,
        "channel": 5,
        "type": "noteOn",
        "noteNumber": 81,
        "velocity": 94
    },
    {
        "deltaTime": 0,
        "channel": 8,
        "type": "noteOn",
        "noteNumber": 33,
        "velocity": 110
    },
    {
        "deltaTime": 0,
        "channel": 9,
        "type": "noteOn",
        "noteNumber": 35,
        "velocity": 114
    },
    {
        "deltaTime": 0,
        "channel": 11,
        "type": "noteOn",
        "noteNumber": 41,
        "velocity": 114
    },
    {
        "deltaTime": 1,
        "running": true,
        "channel": 11,
        "type": "noteOff",
        "noteNumber": 41,
        "velocity": 0,
        "byte9": true
    },
    {
        "deltaTime": 11,
        "channel": 9,
        "type": "noteOff",
        "noteNumber": 35,
        "velocity": 0,
        "byte9": true
    },
    {
        "deltaTime": 7,
        "channel": 14,
        "type": "noteOn",
        "noteNumber": 61,
        "velocity": 105
    },
    {
        "deltaTime": 0,
        "running": true,
        "channel": 14,
        "type": "noteOn",
        "noteNumber": 64,
        "velocity": 94
    },
    {
        "deltaTime": 0,
        "running": true,
        "channel": 14,
        "type": "noteOn",
        "noteNumber": 69,
        "velocity": 94
    },
    {
        "deltaTime": 15,
        "channel": 12,
        "type": "noteOn",
        "noteNumber": 64,
        "velocity": 119
    },
    {
        "deltaTime": 121,
        "channel": 5,
        "type": "noteOff",
        "noteNumber": 81,
        "velocity": 0,
        "byte9": true
    },
    {
        "deltaTime": 6,
        "channel": 11,
        "type": "noteOff",
        "noteNumber": 41,
        "velocity": 0,
        "byte9": true
    },
    {
        "deltaTime": 2,
        "channel": 5,
        "type": "noteOff",
        "noteNumber": 73,
        "velocity": 0,
        "byte9": true
    },
    {
        "deltaTime": 4,
        "running": true,
        "channel": 5,
        "type": "noteOff",
        "noteNumber": 76,
        "velocity": 0,
        "byte9": true
    },
    {
        "deltaTime": 8,
        "channel": 14,
        "type": "noteOff",
        "noteNumber": 69,
        "velocity": 0,
        "byte9": true
    },
    {
        "deltaTime": 8,
        "running": true,
        "channel": 14,
        "type": "noteOff",
        "noteNumber": 61,
        "velocity": 0,
        "byte9": true
    },
    {
        "deltaTime": 4,
        "running": true,
        "channel": 14,
        "type": "noteOff",
        "noteNumber": 64,
        "velocity": 0,
        "byte9": true
    },
    {
        "deltaTime": 133,
        "channel": 9,
        "type": "noteOn",
        "noteNumber": 70,
        "velocity": 65
    },
    {
        "deltaTime": 12,
        "running": true,
        "channel": 9,
        "type": "noteOff",
        "noteNumber": 70,
        "velocity": 0,
        "byte9": true
    },
    {
        "deltaTime": 148,
        "channel": 5,
        "type": "noteOn",
        "noteNumber": 73,
        "velocity": 109
    },
    {
        "deltaTime": 0,
        "running": true,
        "channel": 5,
        "type": "noteOn",
        "noteNumber": 76,
        "velocity": 94
    },
    {
        "deltaTime": 0,
        "running": true,
        "channel": 5,
        "type": "noteOn",
        "noteNumber": 81,
        "velocity": 94
    },
    {
        "deltaTime": 0,
        "channel": 9,
        "type": "noteOn",
        "noteNumber": 44,
        "velocity": 107
    },
    {
        "deltaTime": 0,
        "running": true,
        "channel": 9,
        "type": "noteOn",
        "noteNumber": 54,
        "velocity": 109
    },
    {
        "deltaTime": 12,
        "running": true,
        "channel": 9,
        "type": "noteOff",
        "noteNumber": 44,
        "velocity": 0,
        "byte9": true
    },
    {
        "deltaTime": 0,
        "running": true,
        "channel": 9,
        "type": "noteOff",
        "noteNumber": 54,
        "velocity": 0,
        "byte9": true
    },
    {
        "deltaTime": 1,
        "channel": 1,
        "type": "noteOff",
        "noteNumber": 33,
        "velocity": 0,
        "byte9": true
    },
    {
        "deltaTime": 0,
        "channel": 8,
        "type": "noteOff",
        "noteNumber": 33,
        "velocity": 0,
        "byte9": true
    },
    {
        "deltaTime": 6,
        "channel": 14,
        "type": "noteOn",
        "noteNumber": 61,
        "velocity": 109
    },
    {
        "deltaTime": 0,
        "running": true,
        "channel": 14,
        "type": "noteOn",
        "noteNumber": 64,
        "velocity": 94
    },
    {
        "deltaTime": 0,
        "running": true,
        "channel": 14,
        "type": "noteOn",
        "noteNumber": 69,
        "velocity": 94
    },
    {
        "deltaTime": 122,
        "channel": 5,
        "type": "noteOff",
        "noteNumber": 81,
        "velocity": 0,
        "byte9": true
    },
    {
        "deltaTime": 13,
        "running": true,
        "channel": 5,
        "type": "noteOff",
        "noteNumber": 73,
        "velocity": 0,
        "byte9": true
    },
    {
        "deltaTime": 0,
        "running": true,
        "channel": 5,
        "type": "noteOff",
        "noteNumber": 76,
        "velocity": 0,
        "byte9": true
    },
    {
        "deltaTime": 7,
        "channel": 14,
        "type": "noteOff",
        "noteNumber": 69,
        "velocity": 0,
        "byte9": true
    },
    {
        "deltaTime": 13,
        "running": true,
        "channel": 14,
        "type": "noteOff",
        "noteNumber": 61,
        "velocity": 0,
        "byte9": true
    },
    {
        "deltaTime": 0,
        "running": true,
        "channel": 14,
        "type": "noteOff",
        "noteNumber": 64,
        "velocity": 0,
        "byte9": true
    },
    {
        "deltaTime": 95,
        "channel": 12,
        "type": "noteOff",
        "noteNumber": 61,
        "velocity": 0,
        "byte9": true
    },
    {
        "deltaTime": 74,
        "running": true,
        "channel": 12,
        "type": "noteOff",
        "noteNumber": 64,
        "velocity": 0,
        "byte9": true
    },
    {
        "deltaTime": 20,
        "running": true,
        "channel": 12,
        "type": "noteOff",
        "noteNumber": 57,
        "velocity": 0,
        "byte9": true
    },
    {
        "deltaTime": 33,
        "running": true,
        "channel": 12,
        "type": "noteOn",
        "noteNumber": 57,
        "velocity": 101
    },
    {
        "deltaTime": 28,
        "running": true,
        "channel": 12,
        "type": "noteOn",
        "noteNumber": 61,
        "velocity": 127
    },
    {
        "deltaTime": 52,
        "channel": 3,
        "type": "noteOff",
        "noteNumber": 74,
        "velocity": 0,
        "byte9": true
    },
    {
        "deltaTime": 0,
        "channel": 1,
        "type": "noteOn",
        "noteNumber": 33,
        "velocity": 110
    },
    {
        "deltaTime": 0,
        "channel": 3,
        "type": "noteOn",
        "noteNumber": 73,
        "velocity": 114
    },
    {
        "deltaTime": 0,
        "channel": 5,
        "type": "noteOn",
        "noteNumber": 73,
        "velocity": 109
    },
    {
        "deltaTime": 0,
        "running": true,
        "channel": 5,
        "type": "noteOn",
        "noteNumber": 76,
        "velocity": 94
    },
    {
        "deltaTime": 0,
        "running": true,
        "channel": 5,
        "type": "noteOn",
        "noteNumber": 81,
        "velocity": 101
    },
    {
        "deltaTime": 0,
        "channel": 8,
        "type": "noteOn",
        "noteNumber": 33,
        "velocity": 110
    },
    {
        "deltaTime": 0,
        "channel": 9,
        "type": "noteOn",
        "noteNumber": 35,
        "velocity": 114
    },
    {
        "deltaTime": 0,
        "channel": 10,
        "type": "noteOn",
        "noteNumber": 65,
        "velocity": 104
    },
    {
        "deltaTime": 0,
        "running": true,
        "channel": 10,
        "type": "noteOn",
        "noteNumber": 77,
        "velocity": 104
    },
    {
        "deltaTime": 0,
        "channel": 11,
        "type": "noteOn",
        "noteNumber": 41,
        "velocity": 114
    },
    {
        "deltaTime": 12,
        "channel": 9,
        "type": "noteOff",
        "noteNumber": 35,
        "velocity": 0,
        "byte9": true
    },
    {
        "deltaTime": 2,
        "channel": 12,
        "type": "noteOn",
        "noteNumber": 65,
        "velocity": 114
    },
    {
        "deltaTime": 1,
        "channel": 10,
        "type": "noteOff",
        "noteNumber": 64,
        "velocity": 0,
        "byte9": true
    },
    {
        "deltaTime": 0,
        "running": true,
        "channel": 10,
        "type": "noteOff",
        "noteNumber": 76,
        "velocity": 0,
        "byte9": true
    },
    {
        "deltaTime": 4,
        "channel": 14,
        "type": "noteOn",
        "noteNumber": 61,
        "velocity": 109
    },
    {
        "deltaTime": 0,
        "running": true,
        "channel": 14,
        "type": "noteOn",
        "noteNumber": 64,
        "velocity": 94
    },
    {
        "deltaTime": 0,
        "running": true,
        "channel": 14,
        "type": "noteOn",
        "noteNumber": 69,
        "velocity": 101
    },
    {
        "deltaTime": 136,
        "channel": 5,
        "type": "noteOff",
        "noteNumber": 81,
        "velocity": 0,
        "byte9": true
    },
    {
        "deltaTime": 6,
        "channel": 11,
        "type": "noteOff",
        "noteNumber": 41,
        "velocity": 0,
        "byte9": true
    },
    {
        "deltaTime": 10,
        "channel": 5,
        "type": "noteOff",
        "noteNumber": 73,
        "velocity": 0,
        "byte9": true
    },
    {
        "deltaTime": 0,
        "running": true,
        "channel": 5,
        "type": "noteOff",
        "noteNumber": 76,
        "velocity": 0,
        "byte9": true
    },
    {
        "deltaTime": 4,
        "channel": 14,
        "type": "noteOff",
        "noteNumber": 69,
        "velocity": 0,
        "byte9": true
    },
    {
        "deltaTime": 16,
        "running": true,
        "channel": 14,
        "type": "noteOff",
        "noteNumber": 61,
        "velocity": 0,
        "byte9": true
    },
    {
        "deltaTime": 0,
        "running": true,
        "channel": 14,
        "type": "noteOff",
        "noteNumber": 64,
        "velocity": 0,
        "byte9": true
    },
    {
        "deltaTime": 289,
        "channel": 5,
        "type": "noteOn",
        "noteNumber": 73,
        "velocity": 108
    },
    {
        "deltaTime": 0,
        "running": true,
        "channel": 5,
        "type": "noteOn",
        "noteNumber": 76,
        "velocity": 97
    },
    {
        "deltaTime": 0,
        "running": true,
        "channel": 5,
        "type": "noteOn",
        "noteNumber": 81,
        "velocity": 98
    },
    {
        "deltaTime": 0,
        "channel": 9,
        "type": "noteOn",
        "noteNumber": 44,
        "velocity": 107
    },
    {
        "deltaTime": 0,
        "running": true,
        "channel": 9,
        "type": "noteOn",
        "noteNumber": 69,
        "velocity": 109
    },
    {
        "deltaTime": 12,
        "running": true,
        "channel": 9,
        "type": "noteOff",
        "noteNumber": 44,
        "velocity": 0,
        "byte9": true
    },
    {
        "deltaTime": 0,
        "running": true,
        "channel": 9,
        "type": "noteOff",
        "noteNumber": 69,
        "velocity": 0,
        "byte9": true
    },
    {
        "deltaTime": 1,
        "channel": 1,
        "type": "noteOff",
        "noteNumber": 33,
        "velocity": 0,
        "byte9": true
    },
    {
        "deltaTime": 0,
        "channel": 8,
        "type": "noteOff",
        "noteNumber": 33,
        "velocity": 0,
        "byte9": true
    },
    {
        "deltaTime": 6,
        "channel": 14,
        "type": "noteOn",
        "noteNumber": 61,
        "velocity": 108
    },
    {
        "deltaTime": 0,
        "running": true,
        "channel": 14,
        "type": "noteOn",
        "noteNumber": 64,
        "velocity": 97
    },
    {
        "deltaTime": 0,
        "running": true,
        "channel": 14,
        "type": "noteOn",
        "noteNumber": 69,
        "velocity": 98
    },
    {
        "deltaTime": 127,
        "channel": 5,
        "type": "noteOff",
        "noteNumber": 81,
        "velocity": 0,
        "byte9": true
    },
    {
        "deltaTime": 12,
        "running": true,
        "channel": 5,
        "type": "noteOff",
        "noteNumber": 73,
        "velocity": 0,
        "byte9": true
    },
    {
        "deltaTime": 5,
        "running": true,
        "channel": 5,
        "type": "noteOff",
        "noteNumber": 76,
        "velocity": 0,
        "byte9": true
    },
    {
        "deltaTime": 3,
        "channel": 14,
        "type": "noteOff",
        "noteNumber": 69,
        "velocity": 0,
        "byte9": true
    },
    {
        "deltaTime": 12,
        "running": true,
        "channel": 14,
        "type": "noteOff",
        "noteNumber": 61,
        "velocity": 0,
        "byte9": true
    },
    {
        "deltaTime": 5,
        "running": true,
        "channel": 14,
        "type": "noteOff",
        "noteNumber": 64,
        "velocity": 0,
        "byte9": true
    },
    {
        "deltaTime": 7,
        "channel": 12,
        "type": "noteOff",
        "noteNumber": 61,
        "velocity": 0,
        "byte9": true
    },
    {
        "deltaTime": 46,
        "running": true,
        "channel": 12,
        "type": "noteOff",
        "noteNumber": 57,
        "velocity": 0,
        "byte9": true
    },
    {
        "deltaTime": 84,
        "channel": 1,
        "type": "noteOn",
        "noteNumber": 33,
        "velocity": 110
    },
    {
        "deltaTime": 0,
        "channel": 8,
        "type": "noteOn",
        "noteNumber": 33,
        "velocity": 110
    },
    {
        "deltaTime": 0,
        "channel": 9,
        "type": "noteOn",
        "noteNumber": 35,
        "velocity": 114
    },
    {
        "deltaTime": 0,
        "channel": 11,
        "type": "noteOn",
        "noteNumber": 41,
        "velocity": 114
    },
    {
        "deltaTime": 4,
        "channel": 12,
        "type": "noteOn",
        "noteNumber": 57,
        "velocity": 101
    },
    {
        "deltaTime": 8,
        "channel": 9,
        "type": "noteOff",
        "noteNumber": 35,
        "velocity": 0,
        "byte9": true
    },
    {
        "deltaTime": 1,
        "channel": 12,
        "type": "noteOff",
        "noteNumber": 65,
        "velocity": 0,
        "byte9": true
    },
    {
        "deltaTime": 44,
        "running": true,
        "channel": 12,
        "type": "noteOn",
        "noteNumber": 61,
        "velocity": 127
    },
    {
        "deltaTime": 77,
        "running": true,
        "channel": 12,
        "type": "noteOn",
        "noteNumber": 64,
        "velocity": 114
    },
    {
        "deltaTime": 22,
        "channel": 3,
        "type": "noteOff",
        "noteNumber": 73,
        "velocity": 0,
        "byte9": true
    },
    {
        "deltaTime": 0,
        "channel": 10,
        "type": "noteOff",
        "noteNumber": 65,
        "velocity": 0,
        "byte9": true
    },
    {
        "deltaTime": 0,
        "running": true,
        "channel": 10,
        "type": "noteOff",
        "noteNumber": 77,
        "velocity": 0,
        "byte9": true
    },
    {
        "deltaTime": 0,
        "channel": 3,
        "type": "noteOn",
        "noteNumber": 69,
        "velocity": 114
    },
    {
        "deltaTime": 0,
        "channel": 5,
        "type": "noteOn",
        "noteNumber": 73,
        "velocity": 105
    },
    {
        "deltaTime": 0,
        "running": true,
        "channel": 5,
        "type": "noteOn",
        "noteNumber": 76,
        "velocity": 89
    },
    {
        "deltaTime": 0,
        "running": true,
        "channel": 5,
        "type": "noteOn",
        "noteNumber": 81,
        "velocity": 94
    },
    {
        "deltaTime": 0,
        "channel": 10,
        "type": "noteOn",
        "noteNumber": 64,
        "velocity": 104
    },
    {
        "deltaTime": 1,
        "channel": 11,
        "type": "noteOff",
        "noteNumber": 41,
        "velocity": 0,
        "byte9": true
    },
    {
        "deltaTime": 18,
        "channel": 14,
        "type": "noteOn",
        "noteNumber": 61,
        "velocity": 105
    },
    {
        "deltaTime": 0,
        "running": true,
        "channel": 14,
        "type": "noteOn",
        "noteNumber": 64,
        "velocity": 89
    },
    {
        "deltaTime": 0,
        "running": true,
        "channel": 14,
        "type": "noteOn",
        "noteNumber": 69,
        "velocity": 94
    },
    {
        "deltaTime": 127,
        "channel": 5,
        "type": "noteOff",
        "noteNumber": 81,
        "velocity": 0,
        "byte9": true
    },
    {
        "deltaTime": 19,
        "channel": 14,
        "type": "noteOff",
        "noteNumber": 69,
        "velocity": 0,
        "byte9": true
    },
    {
        "deltaTime": 3,
        "channel": 5,
        "type": "noteOff",
        "noteNumber": 73,
        "velocity": 0,
        "byte9": true
    },
    {
        "deltaTime": 0,
        "running": true,
        "channel": 5,
        "type": "noteOff",
        "noteNumber": 76,
        "velocity": 0,
        "byte9": true
    },
    {
        "deltaTime": 20,
        "channel": 14,
        "type": "noteOff",
        "noteNumber": 61,
        "velocity": 0,
        "byte9": true
    },
    {
        "deltaTime": 0,
        "running": true,
        "channel": 14,
        "type": "noteOff",
        "noteNumber": 64,
        "velocity": 0,
        "byte9": true
    },
    {
        "deltaTime": 79,
        "channel": 1,
        "type": "noteOff",
        "noteNumber": 33,
        "velocity": 0,
        "byte9": true
    },
    {
        "deltaTime": 0,
        "channel": 8,
        "type": "noteOff",
        "noteNumber": 33,
        "velocity": 0,
        "byte9": true
    },
    {
        "deltaTime": 53,
        "channel": 1,
        "type": "noteOn",
        "noteNumber": 33,
        "velocity": 110
    },
    {
        "deltaTime": 0,
        "channel": 8,
        "type": "noteOn",
        "noteNumber": 33,
        "velocity": 110
    },
    {
        "deltaTime": 0,
        "channel": 9,
        "type": "noteOn",
        "noteNumber": 35,
        "velocity": 114
    },
    {
        "deltaTime": 0,
        "running": true,
        "channel": 9,
        "type": "noteOn",
        "noteNumber": 70,
        "velocity": 65
    },
    {
        "deltaTime": 0,
        "channel": 11,
        "type": "noteOn",
        "noteNumber": 41,
        "velocity": 114
    },
    {
        "deltaTime": 12,
        "channel": 9,
        "type": "noteOff",
        "noteNumber": 35,
        "velocity": 0,
        "byte9": true
    },
    {
        "deltaTime": 0,
        "running": true,
        "channel": 9,
        "type": "noteOff",
        "noteNumber": 70,
        "velocity": 0,
        "byte9": true
    },
    {
        "deltaTime": 148,
        "channel": 5,
        "type": "noteOn",
        "noteNumber": 73,
        "velocity": 109
    },
    {
        "deltaTime": 0,
        "running": true,
        "channel": 5,
        "type": "noteOn",
        "noteNumber": 76,
        "velocity": 97
    },
    {
        "deltaTime": 0,
        "running": true,
        "channel": 5,
        "type": "noteOn",
        "noteNumber": 81,
        "velocity": 110
    },
    {
        "deltaTime": 0,
        "channel": 9,
        "type": "noteOn",
        "noteNumber": 44,
        "velocity": 107
    },
    {
        "deltaTime": 0,
        "running": true,
        "channel": 9,
        "type": "noteOn",
        "noteNumber": 54,
        "velocity": 109
    },
    {
        "deltaTime": 1,
        "channel": 11,
        "type": "noteOff",
        "noteNumber": 41,
        "velocity": 0,
        "byte9": true
    },
    {
        "deltaTime": 11,
        "channel": 9,
        "type": "noteOff",
        "noteNumber": 44,
        "velocity": 0,
        "byte9": true
    },
    {
        "deltaTime": 0,
        "running": true,
        "channel": 9,
        "type": "noteOff",
        "noteNumber": 54,
        "velocity": 0,
        "byte9": true
    },
    {
        "deltaTime": 7,
        "channel": 14,
        "type": "noteOn",
        "noteNumber": 61,
        "velocity": 109
    },
    {
        "deltaTime": 0,
        "running": true,
        "channel": 14,
        "type": "noteOn",
        "noteNumber": 64,
        "velocity": 97
    },
    {
        "deltaTime": 0,
        "running": true,
        "channel": 14,
        "type": "noteOn",
        "noteNumber": 69,
        "velocity": 110
    },
    {
        "deltaTime": 54,
        "channel": 12,
        "type": "noteOff",
        "noteNumber": 61,
        "velocity": 0,
        "byte9": true
    },
    {
        "deltaTime": 31,
        "running": true,
        "channel": 12,
        "type": "noteOff",
        "noteNumber": 64,
        "velocity": 0,
        "byte9": true
    },
    {
        "deltaTime": 8,
        "running": true,
        "channel": 12,
        "type": "noteOff",
        "noteNumber": 57,
        "velocity": 0,
        "byte9": true
    },
    {
        "deltaTime": 37,
        "channel": 5,
        "type": "noteOff",
        "noteNumber": 81,
        "velocity": 0,
        "byte9": true
    },
    {
        "deltaTime": 9,
        "running": true,
        "channel": 5,
        "type": "noteOff",
        "noteNumber": 73,
        "velocity": 0,
        "byte9": true
    },
    {
        "deltaTime": 3,
        "running": true,
        "channel": 5,
        "type": "noteOff",
        "noteNumber": 76,
        "velocity": 0,
        "byte9": true
    },
    {
        "deltaTime": 7,
        "channel": 14,
        "type": "noteOff",
        "noteNumber": 69,
        "velocity": 0,
        "byte9": true
    },
    {
        "deltaTime": 9,
        "running": true,
        "channel": 14,
        "type": "noteOff",
        "noteNumber": 61,
        "velocity": 0,
        "byte9": true
    },
    {
        "deltaTime": 3,
        "running": true,
        "channel": 14,
        "type": "noteOff",
        "noteNumber": 64,
        "velocity": 0,
        "byte9": true
    },
    {
        "deltaTime": 87,
        "channel": 1,
        "type": "noteOff",
        "noteNumber": 33,
        "velocity": 0,
        "byte9": true
    },
    {
        "deltaTime": 0,
        "channel": 8,
        "type": "noteOff",
        "noteNumber": 33,
        "velocity": 0,
        "byte9": true
    },
    {
        "deltaTime": 53,
        "channel": 1,
        "type": "noteOn",
        "noteNumber": 33,
        "velocity": 110
    },
    {
        "deltaTime": 0,
        "channel": 8,
        "type": "noteOn",
        "noteNumber": 33,
        "velocity": 110
    },
    {
        "deltaTime": 49,
        "channel": 1,
        "type": "noteOff",
        "noteNumber": 33,
        "velocity": 0,
        "byte9": true
    },
    {
        "deltaTime": 0,
        "channel": 8,
        "type": "noteOff",
        "noteNumber": 33,
        "velocity": 0,
        "byte9": true
    },
    {
        "deltaTime": 107,
        "channel": 3,
        "type": "noteOff",
        "noteNumber": 69,
        "velocity": 0,
        "byte9": true
    },
    {
        "deltaTime": 0,
        "channel": 10,
        "type": "noteOff",
        "noteNumber": 64,
        "velocity": 0,
        "byte9": true
    },
    {
        "deltaTime": 4,
        "channel": 1,
        "type": "noteOn",
        "noteNumber": 38,
        "velocity": 110
    },
    {
        "deltaTime": 0,
        "channel": 5,
        "type": "noteOn",
        "noteNumber": 74,
        "velocity": 101
    },
    {
        "deltaTime": 0,
        "running": true,
        "channel": 5,
        "type": "noteOn",
        "noteNumber": 77,
        "velocity": 97
    },
    {
        "deltaTime": 0,
        "running": true,
        "channel": 5,
        "type": "noteOn",
        "noteNumber": 81,
        "velocity": 105
    },
    {
        "deltaTime": 0,
        "channel": 8,
        "type": "noteOn",
        "noteNumber": 38,
        "velocity": 110
    },
    {
        "deltaTime": 0,
        "channel": 9,
        "type": "noteOn",
        "noteNumber": 35,
        "velocity": 114
    },
    {
        "deltaTime": 0,
        "channel": 10,
        "type": "noteOn",
        "noteNumber": 74,
        "velocity": 104
    },
    {
        "deltaTime": 0,
        "channel": 11,
        "type": "noteOn",
        "noteNumber": 41,
        "velocity": 114
    },
    {
        "deltaTime": 12,
        "channel": 9,
        "type": "noteOff",
        "noteNumber": 35,
        "velocity": 0,
        "byte9": true
    },
    {
        "deltaTime": 7,
        "channel": 14,
        "type": "noteOn",
        "noteNumber": 62,
        "velocity": 101
    },
    {
        "deltaTime": 0,
        "running": true,
        "channel": 14,
        "type": "noteOn",
        "noteNumber": 65,
        "velocity": 97
    },
    {
        "deltaTime": 0,
        "running": true,
        "channel": 14,
        "type": "noteOn",
        "noteNumber": 69,
        "velocity": 105
    },
    {
        "deltaTime": 54,
        "channel": 5,
        "type": "noteOff",
        "noteNumber": 81,
        "velocity": 0,
        "byte9": true
    },
    {
        "deltaTime": 20,
        "channel": 14,
        "type": "noteOff",
        "noteNumber": 69,
        "velocity": 0,
        "byte9": true
    },
    {
        "deltaTime": 28,
        "channel": 5,
        "type": "noteOff",
        "noteNumber": 77,
        "velocity": 0,
        "byte9": true
    },
    {
        "deltaTime": 2,
        "running": true,
        "channel": 5,
        "type": "noteOff",
        "noteNumber": 74,
        "velocity": 0,
        "byte9": true
    },
    {
        "deltaTime": 17,
        "channel": 14,
        "type": "noteOff",
        "noteNumber": 65,
        "velocity": 0,
        "byte9": true
    },
    {
        "deltaTime": 2,
        "running": true,
        "channel": 14,
        "type": "noteOff",
        "noteNumber": 62,
        "velocity": 0,
        "byte9": true
    },
    {
        "deltaTime": 19,
        "channel": 11,
        "type": "noteOff",
        "noteNumber": 41,
        "velocity": 0,
        "byte9": true
    },
    {
        "deltaTime": 319,
        "channel": 5,
        "type": "noteOn",
        "noteNumber": 74,
        "velocity": 111
    },
    {
        "deltaTime": 0,
        "running": true,
        "channel": 5,
        "type": "noteOn",
        "noteNumber": 77,
        "velocity": 107
    },
    {
        "deltaTime": 0,
        "running": true,
        "channel": 5,
        "type": "noteOn",
        "noteNumber": 81,
        "velocity": 105
    },
    {
        "deltaTime": 0,
        "channel": 9,
        "type": "noteOn",
        "noteNumber": 44,
        "velocity": 107
    },
    {
        "deltaTime": 0,
        "running": true,
        "channel": 9,
        "type": "noteOn",
        "noteNumber": 69,
        "velocity": 109
    },
    {
        "deltaTime": 0,
        "channel": 12,
        "type": "noteOn",
        "noteNumber": 57,
        "velocity": 110
    },
    {
        "deltaTime": 12,
        "channel": 9,
        "type": "noteOff",
        "noteNumber": 44,
        "velocity": 0,
        "byte9": true
    },
    {
        "deltaTime": 0,
        "running": true,
        "channel": 9,
        "type": "noteOff",
        "noteNumber": 69,
        "velocity": 0,
        "byte9": true
    },
    {
        "deltaTime": 1,
        "channel": 1,
        "type": "noteOff",
        "noteNumber": 38,
        "velocity": 0,
        "byte9": true
    },
    {
        "deltaTime": 0,
        "channel": 8,
        "type": "noteOff",
        "noteNumber": 38,
        "velocity": 0,
        "byte9": true
    },
    {
        "deltaTime": 6,
        "channel": 14,
        "type": "noteOn",
        "noteNumber": 62,
        "velocity": 111
    },
    {
        "deltaTime": 0,
        "running": true,
        "channel": 14,
        "type": "noteOn",
        "noteNumber": 65,
        "velocity": 107
    },
    {
        "deltaTime": 0,
        "running": true,
        "channel": 14,
        "type": "noteOn",
        "noteNumber": 69,
        "velocity": 105
    },
    {
        "deltaTime": 138,
        "channel": 5,
        "type": "noteOff",
        "noteNumber": 81,
        "velocity": 0,
        "byte9": true
    },
    {
        "deltaTime": 7,
        "running": true,
        "channel": 5,
        "type": "noteOff",
        "noteNumber": 77,
        "velocity": 0,
        "byte9": true
    },
    {
        "deltaTime": 4,
        "running": true,
        "channel": 5,
        "type": "noteOff",
        "noteNumber": 74,
        "velocity": 0,
        "byte9": true
    },
    {
        "deltaTime": 9,
        "channel": 14,
        "type": "noteOff",
        "noteNumber": 69,
        "velocity": 0,
        "byte9": true
    },
    {
        "deltaTime": 7,
        "running": true,
        "channel": 14,
        "type": "noteOff",
        "noteNumber": 65,
        "velocity": 0,
        "byte9": true
    },
    {
        "deltaTime": 4,
        "running": true,
        "channel": 14,
        "type": "noteOff",
        "noteNumber": 62,
        "velocity": 0,
        "byte9": true
    },
    {
        "deltaTime": 132,
        "channel": 1,
        "type": "noteOn",
        "noteNumber": 38,
        "velocity": 110
    },
    {
        "deltaTime": 0,
        "channel": 8,
        "type": "noteOn",
        "noteNumber": 38,
        "velocity": 110
    },
    {
        "deltaTime": 0,
        "channel": 9,
        "type": "noteOn",
        "noteNumber": 35,
        "velocity": 107
    },
    {
        "deltaTime": 0,
        "channel": 11,
        "type": "noteOn",
        "noteNumber": 41,
        "velocity": 107
    },
    {
        "deltaTime": 12,
        "channel": 9,
        "type": "noteOff",
        "noteNumber": 35,
        "velocity": 0,
        "byte9": true
    },
    {
        "deltaTime": 34,
        "channel": 1,
        "type": "noteOff",
        "noteNumber": 38,
        "velocity": 0,
        "byte9": true
    },
    {
        "deltaTime": 0,
        "channel": 8,
        "type": "noteOff",
        "noteNumber": 38,
        "velocity": 0,
        "byte9": true
    },
    {
        "deltaTime": 0,
        "channel": 3,
        "type": "noteOn",
        "noteNumber": 76,
        "velocity": 124
    },
    {
        "deltaTime": 22,
        "channel": 1,
        "type": "noteOn",
        "noteNumber": 38,
        "velocity": 110
    },
    {
        "deltaTime": 0,
        "channel": 5,
        "type": "noteOn",
        "noteNumber": 74,
        "velocity": 105
    },
    {
        "deltaTime": 0,
        "running": true,
        "channel": 5,
        "type": "noteOn",
        "noteNumber": 77,
        "velocity": 94
    },
    {
        "deltaTime": 0,
        "running": true,
        "channel": 5,
        "type": "noteOn",
        "noteNumber": 81,
        "velocity": 94
    },
    {
        "deltaTime": 0,
        "channel": 8,
        "type": "noteOn",
        "noteNumber": 38,
        "velocity": 110
    },
    {
        "deltaTime": 0,
        "channel": 9,
        "type": "noteOn",
        "noteNumber": 35,
        "velocity": 114
    },
    {
        "deltaTime": 0,
        "channel": 11,
        "type": "noteOn",
        "noteNumber": 41,
        "velocity": 114
    },
    {
        "deltaTime": 0,
        "channel": 12,
        "type": "noteOn",
        "noteNumber": 62,
        "velocity": 110
    },
    {
        "deltaTime": 1,
        "channel": 11,
        "type": "noteOff",
        "noteNumber": 41,
        "velocity": 0,
        "byte9": true
    },
    {
        "deltaTime": 11,
        "channel": 9,
        "type": "noteOff",
        "noteNumber": 35,
        "velocity": 0,
        "byte9": true
    },
    {
        "deltaTime": 7,
        "channel": 14,
        "type": "noteOn",
        "noteNumber": 62,
        "velocity": 105
    },
    {
        "deltaTime": 0,
        "running": true,
        "channel": 14,
        "type": "noteOn",
        "noteNumber": 65,
        "velocity": 94
    },
    {
        "deltaTime": 0,
        "running": true,
        "channel": 14,
        "type": "noteOn",
        "noteNumber": 69,
        "velocity": 94
    },
    {
        "deltaTime": 136,
        "channel": 5,
        "type": "noteOff",
        "noteNumber": 81,
        "velocity": 0,
        "byte9": true
    },
    {
        "deltaTime": 6,
        "channel": 11,
        "type": "noteOff",
        "noteNumber": 41,
        "velocity": 0,
        "byte9": true
    },
    {
        "deltaTime": 2,
        "channel": 5,
        "type": "noteOff",
        "noteNumber": 74,
        "velocity": 0,
        "byte9": true
    },
    {
        "deltaTime": 4,
        "running": true,
        "channel": 5,
        "type": "noteOff",
        "noteNumber": 77,
        "velocity": 0,
        "byte9": true
    },
    {
        "deltaTime": 8,
        "channel": 14,
        "type": "noteOff",
        "noteNumber": 69,
        "velocity": 0,
        "byte9": true
    },
    {
        "deltaTime": 8,
        "running": true,
        "channel": 14,
        "type": "noteOff",
        "noteNumber": 62,
        "velocity": 0,
        "byte9": true
    },
    {
        "deltaTime": 4,
        "running": true,
        "channel": 14,
        "type": "noteOff",
        "noteNumber": 65,
        "velocity": 0,
        "byte9": true
    },
    {
        "deltaTime": 75,
        "channel": 3,
        "type": "noteOff",
        "noteNumber": 76,
        "velocity": 0,
        "byte9": true
    },
    {
        "deltaTime": 58,
        "channel": 9,
        "type": "noteOn",
        "noteNumber": 70,
        "velocity": 65
    },
    {
        "deltaTime": 12,
        "running": true,
        "channel": 9,
        "type": "noteOff",
        "noteNumber": 70,
        "velocity": 0,
        "byte9": true
    },
    {
        "deltaTime": 0,
        "channel": 3,
        "type": "noteOn",
        "noteNumber": 77,
        "velocity": 114
    },
    {
        "deltaTime": 132,
        "channel": 5,
        "type": "noteOn",
        "noteNumber": 74,
        "velocity": 109
    },
    {
        "deltaTime": 0,
        "running": true,
        "channel": 5,
        "type": "noteOn",
        "noteNumber": 77,
        "velocity": 94
    },
    {
        "deltaTime": 0,
        "running": true,
        "channel": 5,
        "type": "noteOn",
        "noteNumber": 81,
        "velocity": 94
    },
    {
        "deltaTime": 0,
        "channel": 9,
        "type": "noteOn",
        "noteNumber": 44,
        "velocity": 107
    },
    {
        "deltaTime": 0,
        "running": true,
        "channel": 9,
        "type": "noteOn",
        "noteNumber": 54,
        "velocity": 109
    },
    {
        "deltaTime": 0,
        "channel": 12,
        "type": "noteOn",
        "noteNumber": 65,
        "velocity": 102
    },
    {
        "deltaTime": 12,
        "channel": 9,
        "type": "noteOff",
        "noteNumber": 44,
        "velocity": 0,
        "byte9": true
    },
    {
        "deltaTime": 0,
        "running": true,
        "channel": 9,
        "type": "noteOff",
        "noteNumber": 54,
        "velocity": 0,
        "byte9": true
    },
    {
        "deltaTime": 1,
        "channel": 1,
        "type": "noteOff",
        "noteNumber": 38,
        "velocity": 0,
        "byte9": true
    },
    {
        "deltaTime": 0,
        "channel": 8,
        "type": "noteOff",
        "noteNumber": 38,
        "velocity": 0,
        "byte9": true
    },
    {
        "deltaTime": 6,
        "channel": 14,
        "type": "noteOn",
        "noteNumber": 62,
        "velocity": 109
    },
    {
        "deltaTime": 0,
        "running": true,
        "channel": 14,
        "type": "noteOn",
        "noteNumber": 65,
        "velocity": 94
    },
    {
        "deltaTime": 0,
        "running": true,
        "channel": 14,
        "type": "noteOn",
        "noteNumber": 69,
        "velocity": 94
    },
    {
        "deltaTime": 63,
        "channel": 3,
        "type": "noteOff",
        "noteNumber": 77,
        "velocity": 0,
        "byte9": true
    },
    {
        "deltaTime": 59,
        "channel": 5,
        "type": "noteOff",
        "noteNumber": 81,
        "velocity": 0,
        "byte9": true
    },
    {
        "deltaTime": 13,
        "running": true,
        "channel": 5,
        "type": "noteOff",
        "noteNumber": 74,
        "velocity": 0,
        "byte9": true
    },
    {
        "deltaTime": 0,
        "running": true,
        "channel": 5,
        "type": "noteOff",
        "noteNumber": 77,
        "velocity": 0,
        "byte9": true
    },
    {
        "deltaTime": 7,
        "channel": 14,
        "type": "noteOff",
        "noteNumber": 69,
        "velocity": 0,
        "byte9": true
    },
    {
        "deltaTime": 13,
        "running": true,
        "channel": 14,
        "type": "noteOff",
        "noteNumber": 62,
        "velocity": 0,
        "byte9": true
    },
    {
        "deltaTime": 0,
        "running": true,
        "channel": 14,
        "type": "noteOff",
        "noteNumber": 65,
        "velocity": 0,
        "byte9": true
    },
    {
        "deltaTime": 0,
        "channel": 3,
        "type": "noteOn",
        "noteNumber": 76,
        "velocity": 127
    },
    {
        "deltaTime": 271,
        "running": true,
        "channel": 3,
        "type": "noteOff",
        "noteNumber": 76,
        "velocity": 0,
        "byte9": true
    },
    {
        "deltaTime": 26,
        "channel": 1,
        "type": "noteOn",
        "noteNumber": 38,
        "velocity": 110
    },
    {
        "deltaTime": 0,
        "channel": 5,
        "type": "noteOn",
        "noteNumber": 74,
        "velocity": 109
    },
    {
        "deltaTime": 0,
        "running": true,
        "channel": 5,
        "type": "noteOn",
        "noteNumber": 77,
        "velocity": 94
    },
    {
        "deltaTime": 0,
        "running": true,
        "channel": 5,
        "type": "noteOn",
        "noteNumber": 81,
        "velocity": 101
    },
    {
        "deltaTime": 0,
        "channel": 8,
        "type": "noteOn",
        "noteNumber": 38,
        "velocity": 110
    },
    {
        "deltaTime": 0,
        "channel": 9,
        "type": "noteOn",
        "noteNumber": 35,
        "velocity": 114
    },
    {
        "deltaTime": 0,
        "channel": 11,
        "type": "noteOn",
        "noteNumber": 41,
        "velocity": 114
    },
    {
        "deltaTime": 12,
        "channel": 9,
        "type": "noteOff",
        "noteNumber": 35,
        "velocity": 0,
        "byte9": true
    },
    {
        "deltaTime": 7,
        "channel": 14,
        "type": "noteOn",
        "noteNumber": 62,
        "velocity": 109
    },
    {
        "deltaTime": 0,
        "running": true,
        "channel": 14,
        "type": "noteOn",
        "noteNumber": 65,
        "velocity": 94
    },
    {
        "deltaTime": 0,
        "running": true,
        "channel": 14,
        "type": "noteOn",
        "noteNumber": 69,
        "velocity": 101
    },
    {
        "deltaTime": 0,
        "channel": 3,
        "type": "noteOn",
        "noteNumber": 79,
        "velocity": 123
    },
    {
        "deltaTime": 132,
        "channel": 5,
        "type": "noteOff",
        "noteNumber": 81,
        "velocity": 0,
        "byte9": true
    },
    {
        "deltaTime": 6,
        "channel": 11,
        "type": "noteOff",
        "noteNumber": 41,
        "velocity": 0,
        "byte9": true
    },
    {
        "deltaTime": 10,
        "channel": 5,
        "type": "noteOff",
        "noteNumber": 74,
        "velocity": 0,
        "byte9": true
    },
    {
        "deltaTime": 0,
        "running": true,
        "channel": 5,
        "type": "noteOff",
        "noteNumber": 77,
        "velocity": 0,
        "byte9": true
    },
    {
        "deltaTime": 4,
        "channel": 14,
        "type": "noteOff",
        "noteNumber": 69,
        "velocity": 0,
        "byte9": true
    },
    {
        "deltaTime": 16,
        "running": true,
        "channel": 14,
        "type": "noteOff",
        "noteNumber": 62,
        "velocity": 0,
        "byte9": true
    },
    {
        "deltaTime": 0,
        "running": true,
        "channel": 14,
        "type": "noteOff",
        "noteNumber": 65,
        "velocity": 0,
        "byte9": true
    },
    {
        "deltaTime": 103,
        "channel": 3,
        "type": "noteOff",
        "noteNumber": 79,
        "velocity": 0,
        "byte9": true
    },
    {
        "deltaTime": 0,
        "channel": 3,
        "type": "noteOn",
        "noteNumber": 77,
        "velocity": 125
    },
    {
        "deltaTime": 42,
        "channel": 5,
        "type": "noteOn",
        "noteNumber": 74,
        "velocity": 108
    },
    {
        "deltaTime": 0,
        "running": true,
        "channel": 5,
        "type": "noteOn",
        "noteNumber": 77,
        "velocity": 97
    },
    {
        "deltaTime": 0,
        "running": true,
        "channel": 5,
        "type": "noteOn",
        "noteNumber": 81,
        "velocity": 98
    },
    {
        "deltaTime": 0,
        "channel": 9,
        "type": "noteOn",
        "noteNumber": 44,
        "velocity": 107
    },
    {
        "deltaTime": 0,
        "running": true,
        "channel": 9,
        "type": "noteOn",
        "noteNumber": 69,
        "velocity": 109
    },
    {
        "deltaTime": 12,
        "running": true,
        "channel": 9,
        "type": "noteOff",
        "noteNumber": 44,
        "velocity": 0,
        "byte9": true
    },
    {
        "deltaTime": 0,
        "running": true,
        "channel": 9,
        "type": "noteOff",
        "noteNumber": 69,
        "velocity": 0,
        "byte9": true
    },
    {
        "deltaTime": 7,
        "channel": 14,
        "type": "noteOn",
        "noteNumber": 62,
        "velocity": 108
    },
    {
        "deltaTime": 0,
        "running": true,
        "channel": 14,
        "type": "noteOn",
        "noteNumber": 65,
        "velocity": 97
    },
    {
        "deltaTime": 0,
        "running": true,
        "channel": 14,
        "type": "noteOn",
        "noteNumber": 69,
        "velocity": 98
    },
    {
        "deltaTime": 14,
        "channel": 1,
        "type": "noteOff",
        "noteNumber": 38,
        "velocity": 0,
        "byte9": true
    },
    {
        "deltaTime": 0,
        "channel": 8,
        "type": "noteOff",
        "noteNumber": 38,
        "velocity": 0,
        "byte9": true
    },
    {
        "deltaTime": 113,
        "channel": 5,
        "type": "noteOff",
        "noteNumber": 81,
        "velocity": 0,
        "byte9": true
    },
    {
        "deltaTime": 12,
        "running": true,
        "channel": 5,
        "type": "noteOff",
        "noteNumber": 74,
        "velocity": 0,
        "byte9": true
    },
    {
        "deltaTime": 3,
        "channel": 3,
        "type": "noteOff",
        "noteNumber": 77,
        "velocity": 0,
        "byte9": true
    },
    {
        "deltaTime": 2,
        "channel": 5,
        "type": "noteOff",
        "noteNumber": 77,
        "velocity": 0,
        "byte9": true
    },
    {
        "deltaTime": 3,
        "channel": 14,
        "type": "noteOff",
        "noteNumber": 69,
        "velocity": 0,
        "byte9": true
    },
    {
        "deltaTime": 12,
        "running": true,
        "channel": 14,
        "type": "noteOff",
        "noteNumber": 62,
        "velocity": 0,
        "byte9": true
    },
    {
        "deltaTime": 5,
        "running": true,
        "channel": 14,
        "type": "noteOff",
        "noteNumber": 65,
        "velocity": 0,
        "byte9": true
    },
    {
        "deltaTime": 54,
        "channel": 12,
        "type": "noteOff",
        "noteNumber": 62,
        "velocity": 0,
        "byte9": true
    },
    {
        "deltaTime": 33,
        "running": true,
        "channel": 12,
        "type": "noteOff",
        "noteNumber": 65,
        "velocity": 0,
        "byte9": true
    },
    {
        "deltaTime": 1,
        "running": true,
        "channel": 12,
        "type": "noteOff",
        "noteNumber": 57,
        "velocity": 0,
        "byte9": true
    },
    {
        "deltaTime": 0,
        "channel": 3,
        "type": "noteOn",
        "noteNumber": 77,
        "velocity": 114
    },
    {
        "deltaTime": 40,
        "channel": 1,
        "type": "noteOn",
        "noteNumber": 38,
        "velocity": 110
    },
    {
        "deltaTime": 0,
        "channel": 8,
        "type": "noteOn",
        "noteNumber": 38,
        "velocity": 110
    },
    {
        "deltaTime": 0,
        "channel": 9,
        "type": "noteOn",
        "noteNumber": 35,
        "velocity": 114
    },
    {
        "deltaTime": 0,
        "channel": 11,
        "type": "noteOn",
        "noteNumber": 41,
        "velocity": 114
    },
    {
        "deltaTime": 0,
        "channel": 12,
        "type": "noteOn",
        "noteNumber": 50,
        "velocity": 101
    },
    {
        "deltaTime": 12,
        "channel": 9,
        "type": "noteOff",
        "noteNumber": 35,
        "velocity": 0,
        "byte9": true
    },
    {
        "deltaTime": 144,
        "channel": 10,
        "type": "noteOff",
        "noteNumber": 74,
        "velocity": 0,
        "byte9": true
    },
    {
        "deltaTime": 4,
        "channel": 5,
        "type": "noteOn",
        "noteNumber": 74,
        "velocity": 105
    },
    {
        "deltaTime": 0,
        "running": true,
        "channel": 5,
        "type": "noteOn",
        "noteNumber": 77,
        "velocity": 89
    },
    {
        "deltaTime": 0,
        "running": true,
        "channel": 5,
        "type": "noteOn",
        "noteNumber": 81,
        "velocity": 94
    },
    {
        "deltaTime": 0,
        "channel": 10,
        "type": "noteOn",
        "noteNumber": 77,
        "velocity": 105
    },
    {
        "deltaTime": 1,
        "channel": 11,
        "type": "noteOff",
        "noteNumber": 41,
        "velocity": 0,
        "byte9": true
    },
    {
        "deltaTime": 18,
        "channel": 14,
        "type": "noteOn",
        "noteNumber": 62,
        "velocity": 105
    },
    {
        "deltaTime": 0,
        "running": true,
        "channel": 14,
        "type": "noteOn",
        "noteNumber": 65,
        "velocity": 89
    },
    {
        "deltaTime": 0,
        "running": true,
        "channel": 14,
        "type": "noteOn",
        "noteNumber": 69,
        "velocity": 94
    },
    {
        "deltaTime": 127,
        "channel": 5,
        "type": "noteOff",
        "noteNumber": 81,
        "velocity": 0,
        "byte9": true
    },
    {
        "deltaTime": 19,
        "channel": 14,
        "type": "noteOff",
        "noteNumber": 69,
        "velocity": 0,
        "byte9": true
    },
    {
        "deltaTime": 3,
        "channel": 5,
        "type": "noteOff",
        "noteNumber": 74,
        "velocity": 0,
        "byte9": true
    },
    {
        "deltaTime": 0,
        "running": true,
        "channel": 5,
        "type": "noteOff",
        "noteNumber": 77,
        "velocity": 0,
        "byte9": true
    },
    {
        "deltaTime": 20,
        "channel": 14,
        "type": "noteOff",
        "noteNumber": 62,
        "velocity": 0,
        "byte9": true
    },
    {
        "deltaTime": 0,
        "running": true,
        "channel": 14,
        "type": "noteOff",
        "noteNumber": 65,
        "velocity": 0,
        "byte9": true
    },
    {
        "deltaTime": 55,
        "channel": 12,
        "type": "noteOff",
        "noteNumber": 50,
        "velocity": 0,
        "byte9": true
    },
    {
        "deltaTime": 73,
        "channel": 1,
        "type": "noteOff",
        "noteNumber": 38,
        "velocity": 0,
        "byte9": true
    },
    {
        "deltaTime": 0,
        "channel": 8,
        "type": "noteOff",
        "noteNumber": 38,
        "velocity": 0,
        "byte9": true
    },
    {
        "deltaTime": 4,
        "channel": 1,
        "type": "noteOn",
        "noteNumber": 41,
        "velocity": 110
    },
    {
        "deltaTime": 0,
        "channel": 8,
        "type": "noteOn",
        "noteNumber": 41,
        "velocity": 110
    },
    {
        "deltaTime": 0,
        "channel": 9,
        "type": "noteOn",
        "noteNumber": 35,
        "velocity": 114
    },
    {
        "deltaTime": 0,
        "running": true,
        "channel": 9,
        "type": "noteOn",
        "noteNumber": 70,
        "velocity": 65
    },
    {
        "deltaTime": 0,
        "channel": 11,
        "type": "noteOn",
        "noteNumber": 41,
        "velocity": 114
    },
    {
        "deltaTime": 0,
        "channel": 12,
        "type": "noteOn",
        "noteNumber": 48,
        "velocity": 86
    },
    {
        "deltaTime": 12,
        "channel": 9,
        "type": "noteOff",
        "noteNumber": 35,
        "velocity": 0,
        "byte9": true
    },
    {
        "deltaTime": 0,
        "running": true,
        "channel": 9,
        "type": "noteOff",
        "noteNumber": 70,
        "velocity": 0,
        "byte9": true
    },
    {
        "deltaTime": 132,
        "channel": 12,
        "type": "noteOff",
        "noteNumber": 48,
        "velocity": 0,
        "byte9": true
    },
    {
        "deltaTime": 12,
        "channel": 10,
        "type": "noteOff",
        "noteNumber": 77,
        "velocity": 0,
        "byte9": true
    },
    {
        "deltaTime": 4,
        "channel": 5,
        "type": "noteOn",
        "noteNumber": 74,
        "velocity": 109
    },
    {
        "deltaTime": 0,
        "running": true,
        "channel": 5,
        "type": "noteOn",
        "noteNumber": 77,
        "velocity": 97
    },
    {
        "deltaTime": 0,
        "running": true,
        "channel": 5,
        "type": "noteOn",
        "noteNumber": 81,
        "velocity": 110
    },
    {
        "deltaTime": 0,
        "channel": 9,
        "type": "noteOn",
        "noteNumber": 44,
        "velocity": 107
    },
    {
        "deltaTime": 0,
        "running": true,
        "channel": 9,
        "type": "noteOn",
        "noteNumber": 54,
        "velocity": 109
    },
    {
        "deltaTime": 0,
        "channel": 10,
        "type": "noteOn",
        "noteNumber": 81,
        "velocity": 105
    },
    {
        "deltaTime": 0,
        "channel": 12,
        "type": "noteOn",
        "noteNumber": 45,
        "velocity": 119
    },
    {
        "deltaTime": 1,
        "channel": 11,
        "type": "noteOff",
        "noteNumber": 41,
        "velocity": 0,
        "byte9": true
    },
    {
        "deltaTime": 11,
        "channel": 3,
        "type": "noteOff",
        "noteNumber": 77,
        "velocity": 0,
        "byte9": true
    },
    {
        "deltaTime": 0,
        "channel": 9,
        "type": "noteOff",
        "noteNumber": 44,
        "velocity": 0,
        "byte9": true
    },
    {
        "deltaTime": 0,
        "running": true,
        "channel": 9,
        "type": "noteOff",
        "noteNumber": 54,
        "velocity": 0,
        "byte9": true
    },
    {
        "deltaTime": 7,
        "channel": 14,
        "type": "noteOn",
        "noteNumber": 62,
        "velocity": 109
    },
    {
        "deltaTime": 0,
        "running": true,
        "channel": 14,
        "type": "noteOn",
        "noteNumber": 65,
        "velocity": 97
    },
    {
        "deltaTime": 0,
        "running": true,
        "channel": 14,
        "type": "noteOn",
        "noteNumber": 69,
        "velocity": 110
    },
    {
        "deltaTime": 0,
        "channel": 3,
        "type": "noteOn",
        "noteNumber": 76,
        "velocity": 124
    },
    {
        "deltaTime": 123,
        "channel": 5,
        "type": "noteOff",
        "noteNumber": 81,
        "velocity": 0,
        "byte9": true
    },
    {
        "deltaTime": 9,
        "running": true,
        "channel": 5,
        "type": "noteOff",
        "noteNumber": 74,
        "velocity": 0,
        "byte9": true
    },
    {
        "deltaTime": 3,
        "running": true,
        "channel": 5,
        "type": "noteOff",
        "noteNumber": 77,
        "velocity": 0,
        "byte9": true
    },
    {
        "deltaTime": 7,
        "channel": 14,
        "type": "noteOff",
        "noteNumber": 69,
        "velocity": 0,
        "byte9": true
    },
    {
        "deltaTime": 9,
        "running": true,
        "channel": 14,
        "type": "noteOff",
        "noteNumber": 62,
        "velocity": 0,
        "byte9": true
    },
    {
        "deltaTime": 3,
        "running": true,
        "channel": 14,
        "type": "noteOff",
        "noteNumber": 65,
        "velocity": 0,
        "byte9": true
    },
    {
        "deltaTime": 97,
        "channel": 3,
        "type": "noteOff",
        "noteNumber": 76,
        "velocity": 0,
        "byte9": true
    },
    {
        "deltaTime": 0,
        "channel": 3,
        "type": "noteOn",
        "noteNumber": 77,
        "velocity": 114
    },
    {
        "deltaTime": 1,
        "channel": 1,
        "type": "noteOff",
        "noteNumber": 41,
        "velocity": 0,
        "byte9": true
    },
    {
        "deltaTime": 0,
        "channel": 8,
        "type": "noteOff",
        "noteNumber": 41,
        "velocity": 0,
        "byte9": true
    },
    {
        "deltaTime": 4,
        "channel": 1,
        "type": "noteOn",
        "noteNumber": 42,
        "velocity": 110
    },
    {
        "deltaTime": 0,
        "channel": 8,
        "type": "noteOn",
        "noteNumber": 42,
        "velocity": 110
    },
    {
        "deltaTime": 134,
        "channel": 12,
        "type": "noteOff",
        "noteNumber": 45,
        "velocity": 0,
        "byte9": true
    },
    {
        "deltaTime": 22,
        "channel": 1,
        "type": "noteOff",
        "noteNumber": 42,
        "velocity": 0,
        "byte9": true
    },
    {
        "deltaTime": 0,
        "channel": 8,
        "type": "noteOff",
        "noteNumber": 42,
        "velocity": 0,
        "byte9": true
    },
    {
        "deltaTime": 0,
        "channel": 10,
        "type": "noteOff",
        "noteNumber": 81,
        "velocity": 0,
        "byte9": true
    },
    {
        "deltaTime": 4,
        "channel": 1,
        "type": "noteOn",
        "noteNumber": 43,
        "velocity": 110
    },
    {
        "deltaTime": 0,
        "channel": 5,
        "type": "noteOn",
        "noteNumber": 74,
        "velocity": 101
    },
    {
        "deltaTime": 0,
        "running": true,
        "channel": 5,
        "type": "noteOn",
        "noteNumber": 79,
        "velocity": 97
    },
    {
        "deltaTime": 0,
        "running": true,
        "channel": 5,
        "type": "noteOn",
        "noteNumber": 82,
        "velocity": 105
    },
    {
        "deltaTime": 0,
        "channel": 8,
        "type": "noteOn",
        "noteNumber": 43,
        "velocity": 110
    },
    {
        "deltaTime": 0,
        "channel": 9,
        "type": "noteOn",
        "noteNumber": 35,
        "velocity": 114
    },
    {
        "deltaTime": 0,
        "channel": 10,
        "type": "noteOn",
        "noteNumber": 79,
        "velocity": 105
    },
    {
        "deltaTime": 0,
        "channel": 11,
        "type": "noteOn",
        "noteNumber": 41,
        "velocity": 114
    },
    {
        "deltaTime": 0,
        "channel": 12,
        "type": "noteOn",
        "noteNumber": 43,
        "velocity": 86
    },
    {
        "deltaTime": 0,
        "running": true,
        "channel": 12,
        "type": "noteOn",
        "noteNumber": 55,
        "velocity": 114
    },
    {
        "deltaTime": 12,
        "channel": 9,
        "type": "noteOff",
        "noteNumber": 35,
        "velocity": 0,
        "byte9": true
    },
    {
        "deltaTime": 7,
        "channel": 14,
        "type": "noteOn",
        "noteNumber": 62,
        "velocity": 101
    },
    {
        "deltaTime": 0,
        "running": true,
        "channel": 14,
        "type": "noteOn",
        "noteNumber": 67,
        "velocity": 97
    },
    {
        "deltaTime": 0,
        "running": true,
        "channel": 14,
        "type": "noteOn",
        "noteNumber": 70,
        "velocity": 105
    },
    {
        "deltaTime": 54,
        "channel": 5,
        "type": "noteOff",
        "noteNumber": 82,
        "velocity": 0,
        "byte9": true
    },
    {
        "deltaTime": 20,
        "channel": 14,
        "type": "noteOff",
        "noteNumber": 70,
        "velocity": 0,
        "byte9": true
    },
    {
        "deltaTime": 28,
        "channel": 5,
        "type": "noteOff",
        "noteNumber": 79,
        "velocity": 0,
        "byte9": true
    },
    {
        "deltaTime": 2,
        "running": true,
        "channel": 5,
        "type": "noteOff",
        "noteNumber": 74,
        "velocity": 0,
        "byte9": true
    },
    {
        "deltaTime": 17,
        "channel": 14,
        "type": "noteOff",
        "noteNumber": 67,
        "velocity": 0,
        "byte9": true
    },
    {
        "deltaTime": 2,
        "running": true,
        "channel": 14,
        "type": "noteOff",
        "noteNumber": 62,
        "velocity": 0,
        "byte9": true
    },
    {
        "deltaTime": 13,
        "channel": 3,
        "type": "noteOff",
        "noteNumber": 77,
        "velocity": 0,
        "byte9": true
    },
    {
        "deltaTime": 6,
        "channel": 11,
        "type": "noteOff",
        "noteNumber": 41,
        "velocity": 0,
        "byte9": true
    },
    {
        "deltaTime": 0,
        "channel": 3,
        "type": "noteOn",
        "noteNumber": 70,
        "velocity": 127
    },
    {
        "deltaTime": 180,
        "channel": 12,
        "type": "noteOff",
        "noteNumber": 43,
        "velocity": 0,
        "byte9": true
    },
    {
        "deltaTime": 15,
        "channel": 5,
        "type": "noteOn",
        "noteNumber": 74,
        "velocity": 111
    },
    {
        "deltaTime": 0,
        "running": true,
        "channel": 5,
        "type": "noteOn",
        "noteNumber": 79,
        "velocity": 107
    },
    {
        "deltaTime": 0,
        "running": true,
        "channel": 5,
        "type": "noteOn",
        "noteNumber": 82,
        "velocity": 105
    },
    {
        "deltaTime": 0,
        "channel": 9,
        "type": "noteOn",
        "noteNumber": 44,
        "velocity": 107
    },
    {
        "deltaTime": 0,
        "running": true,
        "channel": 9,
        "type": "noteOn",
        "noteNumber": 69,
        "velocity": 109
    },
    {
        "deltaTime": 0,
        "channel": 12,
        "type": "noteOn",
        "noteNumber": 58,
        "velocity": 122
    },
    {
        "deltaTime": 12,
        "channel": 9,
        "type": "noteOff",
        "noteNumber": 44,
        "velocity": 0,
        "byte9": true
    },
    {
        "deltaTime": 0,
        "running": true,
        "channel": 9,
        "type": "noteOff",
        "noteNumber": 69,
        "velocity": 0,
        "byte9": true
    },
    {
        "deltaTime": 7,
        "channel": 14,
        "type": "noteOn",
        "noteNumber": 62,
        "velocity": 111
    },
    {
        "deltaTime": 0,
        "running": true,
        "channel": 14,
        "type": "noteOn",
        "noteNumber": 67,
        "velocity": 107
    },
    {
        "deltaTime": 0,
        "running": true,
        "channel": 14,
        "type": "noteOn",
        "noteNumber": 70,
        "velocity": 105
    },
    {
        "deltaTime": 9,
        "channel": 3,
        "type": "noteOff",
        "noteNumber": 70,
        "velocity": 0,
        "byte9": true
    },
    {
        "deltaTime": 5,
        "channel": 1,
        "type": "noteOff",
        "noteNumber": 43,
        "velocity": 0,
        "byte9": true
    },
    {
        "deltaTime": 0,
        "channel": 8,
        "type": "noteOff",
        "noteNumber": 43,
        "velocity": 0,
        "byte9": true
    },
    {
        "deltaTime": 124,
        "channel": 5,
        "type": "noteOff",
        "noteNumber": 82,
        "velocity": 0,
        "byte9": true
    },
    {
        "deltaTime": 7,
        "running": true,
        "channel": 5,
        "type": "noteOff",
        "noteNumber": 79,
        "velocity": 0,
        "byte9": true
    },
    {
        "deltaTime": 4,
        "running": true,
        "channel": 5,
        "type": "noteOff",
        "noteNumber": 74,
        "velocity": 0,
        "byte9": true
    },
    {
        "deltaTime": 9,
        "channel": 14,
        "type": "noteOff",
        "noteNumber": 70,
        "velocity": 0,
        "byte9": true
    },
    {
        "deltaTime": 7,
        "running": true,
        "channel": 14,
        "type": "noteOff",
        "noteNumber": 67,
        "velocity": 0,
        "byte9": true
    },
    {
        "deltaTime": 4,
        "running": true,
        "channel": 14,
        "type": "noteOff",
        "noteNumber": 62,
        "velocity": 0,
        "byte9": true
    },
    {
        "deltaTime": 132,
        "channel": 1,
        "type": "noteOn",
        "noteNumber": 31,
        "velocity": 110
    },
    {
        "deltaTime": 0,
        "channel": 8,
        "type": "noteOn",
        "noteNumber": 31,
        "velocity": 110
    },
    {
        "deltaTime": 0,
        "channel": 9,
        "type": "noteOn",
        "noteNumber": 35,
        "velocity": 107
    },
    {
        "deltaTime": 0,
        "channel": 11,
        "type": "noteOn",
        "noteNumber": 41,
        "velocity": 107
    },
    {
        "deltaTime": 12,
        "channel": 9,
        "type": "noteOff",
        "noteNumber": 35,
        "velocity": 0,
        "byte9": true
    },
    {
        "deltaTime": 37,
        "channel": 1,
        "type": "noteOff",
        "noteNumber": 31,
        "velocity": 0,
        "byte9": true
    },
    {
        "deltaTime": 0,
        "channel": 8,
        "type": "noteOff",
        "noteNumber": 31,
        "velocity": 0,
        "byte9": true
    },
    {
        "deltaTime": 111,
        "channel": 1,
        "type": "noteOn",
        "noteNumber": 31,
        "velocity": 110
    },
    {
        "deltaTime": 0,
        "channel": 5,
        "type": "noteOn",
        "noteNumber": 74,
        "velocity": 105
    },
    {
        "deltaTime": 0,
        "running": true,
        "channel": 5,
        "type": "noteOn",
        "noteNumber": 79,
        "velocity": 94
    },
    {
        "deltaTime": 0,
        "running": true,
        "channel": 5,
        "type": "noteOn",
        "noteNumber": 82,
        "velocity": 94
    },
    {
        "deltaTime": 0,
        "channel": 8,
        "type": "noteOn",
        "noteNumber": 31,
        "velocity": 110
    },
    {
        "deltaTime": 0,
        "channel": 9,
        "type": "noteOn",
        "noteNumber": 35,
        "velocity": 114
    },
    {
        "deltaTime": 0,
        "channel": 11,
        "type": "noteOn",
        "noteNumber": 41,
        "velocity": 114
    },
    {
        "deltaTime": 0,
        "channel": 12,
        "type": "noteOn",
        "noteNumber": 62,
        "velocity": 119
    },
    {
        "deltaTime": 1,
        "channel": 11,
        "type": "noteOff",
        "noteNumber": 41,
        "velocity": 0,
        "byte9": true
    },
    {
        "deltaTime": 11,
        "channel": 9,
        "type": "noteOff",
        "noteNumber": 35,
        "velocity": 0,
        "byte9": true
    },
    {
        "deltaTime": 0,
        "channel": 3,
        "type": "noteOn",
        "noteNumber": 76,
        "velocity": 127
    },
    {
        "deltaTime": 0,
        "channel": 14,
        "type": "noteOn",
        "noteNumber": 62,
        "velocity": 105
    },
    {
        "deltaTime": 0,
        "running": true,
        "channel": 14,
        "type": "noteOn",
        "noteNumber": 67,
        "velocity": 94
    },
    {
        "deltaTime": 0,
        "running": true,
        "channel": 14,
        "type": "noteOn",
        "noteNumber": 70,
        "velocity": 94
    },
    {
        "deltaTime": 136,
        "channel": 5,
        "type": "noteOff",
        "noteNumber": 82,
        "velocity": 0,
        "byte9": true
    },
    {
        "deltaTime": 6,
        "channel": 11,
        "type": "noteOff",
        "noteNumber": 41,
        "velocity": 0,
        "byte9": true
    },
    {
        "deltaTime": 2,
        "channel": 5,
        "type": "noteOff",
        "noteNumber": 74,
        "velocity": 0,
        "byte9": true
    },
    {
        "deltaTime": 4,
        "running": true,
        "channel": 5,
        "type": "noteOff",
        "noteNumber": 79,
        "velocity": 0,
        "byte9": true
    },
    {
        "deltaTime": 8,
        "channel": 14,
        "type": "noteOff",
        "noteNumber": 70,
        "velocity": 0,
        "byte9": true
    },
    {
        "deltaTime": 8,
        "running": true,
        "channel": 14,
        "type": "noteOff",
        "noteNumber": 62,
        "velocity": 0,
        "byte9": true
    },
    {
        "deltaTime": 4,
        "running": true,
        "channel": 14,
        "type": "noteOff",
        "noteNumber": 67,
        "velocity": 0,
        "byte9": true
    },
    {
        "deltaTime": 133,
        "channel": 9,
        "type": "noteOn",
        "noteNumber": 70,
        "velocity": 65
    },
    {
        "deltaTime": 12,
        "running": true,
        "channel": 9,
        "type": "noteOff",
        "noteNumber": 70,
        "velocity": 0,
        "byte9": true
    },
    {
        "deltaTime": 0,
        "channel": 3,
        "type": "noteOn",
        "noteNumber": 77,
        "velocity": 124
    },
    {
        "deltaTime": 12,
        "running": true,
        "channel": 3,
        "type": "noteOff",
        "noteNumber": 76,
        "velocity": 0,
        "byte9": true
    },
    {
        "deltaTime": 116,
        "channel": 5,
        "type": "noteOn",
        "noteNumber": 74,
        "velocity": 109
    },
    {
        "deltaTime": 0,
        "running": true,
        "channel": 5,
        "type": "noteOn",
        "noteNumber": 79,
        "velocity": 94
    },
    {
        "deltaTime": 0,
        "running": true,
        "channel": 5,
        "type": "noteOn",
        "noteNumber": 82,
        "velocity": 94
    },
    {
        "deltaTime": 0,
        "channel": 9,
        "type": "noteOn",
        "noteNumber": 44,
        "velocity": 107
    },
    {
        "deltaTime": 0,
        "running": true,
        "channel": 9,
        "type": "noteOn",
        "noteNumber": 54,
        "velocity": 109
    },
    {
        "deltaTime": 12,
        "running": true,
        "channel": 9,
        "type": "noteOff",
        "noteNumber": 44,
        "velocity": 0,
        "byte9": true
    },
    {
        "deltaTime": 0,
        "running": true,
        "channel": 9,
        "type": "noteOff",
        "noteNumber": 54,
        "velocity": 0,
        "byte9": true
    },
    {
        "deltaTime": 1,
        "channel": 1,
        "type": "noteOff",
        "noteNumber": 31,
        "velocity": 0,
        "byte9": true
    },
    {
        "deltaTime": 0,
        "channel": 8,
        "type": "noteOff",
        "noteNumber": 31,
        "velocity": 0,
        "byte9": true
    },
    {
        "deltaTime": 6,
        "channel": 14,
        "type": "noteOn",
        "noteNumber": 62,
        "velocity": 109
    },
    {
        "deltaTime": 0,
        "running": true,
        "channel": 14,
        "type": "noteOn",
        "noteNumber": 67,
        "velocity": 94
    },
    {
        "deltaTime": 0,
        "running": true,
        "channel": 14,
        "type": "noteOn",
        "noteNumber": 70,
        "velocity": 94
    },
    {
        "deltaTime": 122,
        "channel": 5,
        "type": "noteOff",
        "noteNumber": 82,
        "velocity": 0,
        "byte9": true
    },
    {
        "deltaTime": 13,
        "running": true,
        "channel": 5,
        "type": "noteOff",
        "noteNumber": 74,
        "velocity": 0,
        "byte9": true
    },
    {
        "deltaTime": 0,
        "running": true,
        "channel": 5,
        "type": "noteOff",
        "noteNumber": 79,
        "velocity": 0,
        "byte9": true
    },
    {
        "deltaTime": 7,
        "channel": 14,
        "type": "noteOff",
        "noteNumber": 70,
        "velocity": 0,
        "byte9": true
    },
    {
        "deltaTime": 13,
        "running": true,
        "channel": 14,
        "type": "noteOff",
        "noteNumber": 62,
        "velocity": 0,
        "byte9": true
    },
    {
        "deltaTime": 0,
        "running": true,
        "channel": 14,
        "type": "noteOff",
        "noteNumber": 67,
        "velocity": 0,
        "byte9": true
    },
    {
        "deltaTime": 98,
        "channel": 3,
        "type": "noteOff",
        "noteNumber": 77,
        "velocity": 0,
        "byte9": true
    },
    {
        "deltaTime": 0,
        "channel": 3,
        "type": "noteOn",
        "noteNumber": 76,
        "velocity": 127
    },
    {
        "deltaTime": 192,
        "channel": 1,
        "type": "noteOn",
        "noteNumber": 31,
        "velocity": 110
    },
    {
        "deltaTime": 0,
        "channel": 5,
        "type": "noteOn",
        "noteNumber": 74,
        "velocity": 109
    },
    {
        "deltaTime": 0,
        "running": true,
        "channel": 5,
        "type": "noteOn",
        "noteNumber": 79,
        "velocity": 94
    },
    {
        "deltaTime": 0,
        "running": true,
        "channel": 5,
        "type": "noteOn",
        "noteNumber": 82,
        "velocity": 101
    },
    {
        "deltaTime": 0,
        "channel": 8,
        "type": "noteOn",
        "noteNumber": 31,
        "velocity": 110
    },
    {
        "deltaTime": 0,
        "channel": 9,
        "type": "noteOn",
        "noteNumber": 35,
        "velocity": 114
    },
    {
        "deltaTime": 0,
        "channel": 11,
        "type": "noteOn",
        "noteNumber": 41,
        "velocity": 114
    },
    {
        "deltaTime": 0,
        "channel": 12,
        "type": "noteOn",
        "noteNumber": 67,
        "velocity": 119
    },
    {
        "deltaTime": 12,
        "channel": 9,
        "type": "noteOff",
        "noteNumber": 35,
        "velocity": 0,
        "byte9": true
    },
    {
        "deltaTime": 7,
        "channel": 14,
        "type": "noteOn",
        "noteNumber": 62,
        "velocity": 109
    },
    {
        "deltaTime": 0,
        "running": true,
        "channel": 14,
        "type": "noteOn",
        "noteNumber": 67,
        "velocity": 94
    },
    {
        "deltaTime": 0,
        "running": true,
        "channel": 14,
        "type": "noteOn",
        "noteNumber": 70,
        "velocity": 101
    },
    {
        "deltaTime": 136,
        "channel": 5,
        "type": "noteOff",
        "noteNumber": 82,
        "velocity": 0,
        "byte9": true
    },
    {
        "deltaTime": 6,
        "channel": 11,
        "type": "noteOff",
        "noteNumber": 41,
        "velocity": 0,
        "byte9": true
    },
    {
        "deltaTime": 10,
        "channel": 5,
        "type": "noteOff",
        "noteNumber": 74,
        "velocity": 0,
        "byte9": true
    },
    {
        "deltaTime": 0,
        "running": true,
        "channel": 5,
        "type": "noteOff",
        "noteNumber": 79,
        "velocity": 0,
        "byte9": true
    },
    {
        "deltaTime": 4,
        "channel": 14,
        "type": "noteOff",
        "noteNumber": 70,
        "velocity": 0,
        "byte9": true
    },
    {
        "deltaTime": 16,
        "running": true,
        "channel": 14,
        "type": "noteOff",
        "noteNumber": 62,
        "velocity": 0,
        "byte9": true
    },
    {
        "deltaTime": 0,
        "running": true,
        "channel": 14,
        "type": "noteOff",
        "noteNumber": 67,
        "velocity": 0,
        "byte9": true
    },
    {
        "deltaTime": 0,
        "channel": 3,
        "type": "noteOn",
        "noteNumber": 79,
        "velocity": 127
    },
    {
        "deltaTime": 28,
        "channel": 12,
        "type": "noteOff",
        "noteNumber": 62,
        "velocity": 0,
        "byte9": true
    },
    {
        "deltaTime": 12,
        "channel": 3,
        "type": "noteOff",
        "noteNumber": 76,
        "velocity": 0,
        "byte9": true
    },
    {
        "deltaTime": 148,
        "channel": 12,
        "type": "noteOff",
        "noteNumber": 67,
        "velocity": 0,
        "byte9": true
    },
    {
        "deltaTime": 4,
        "channel": 5,
        "type": "noteOn",
        "noteNumber": 74,
        "velocity": 108
    },
    {
        "deltaTime": 0,
        "running": true,
        "channel": 5,
        "type": "noteOn",
        "noteNumber": 79,
        "velocity": 97
    },
    {
        "deltaTime": 0,
        "running": true,
        "channel": 5,
        "type": "noteOn",
        "noteNumber": 82,
        "velocity": 98
    },
    {
        "deltaTime": 0,
        "channel": 9,
        "type": "noteOn",
        "noteNumber": 44,
        "velocity": 107
    },
    {
        "deltaTime": 0,
        "running": true,
        "channel": 9,
        "type": "noteOn",
        "noteNumber": 69,
        "velocity": 109
    },
    {
        "deltaTime": 0,
        "channel": 12,
        "type": "noteOn",
        "noteNumber": 62,
        "velocity": 119
    },
    {
        "deltaTime": 12,
        "channel": 9,
        "type": "noteOff",
        "noteNumber": 44,
        "velocity": 0,
        "byte9": true
    },
    {
        "deltaTime": 0,
        "running": true,
        "channel": 9,
        "type": "noteOff",
        "noteNumber": 69,
        "velocity": 0,
        "byte9": true
    },
    {
        "deltaTime": 1,
        "channel": 1,
        "type": "noteOff",
        "noteNumber": 31,
        "velocity": 0,
        "byte9": true
    },
    {
        "deltaTime": 0,
        "channel": 8,
        "type": "noteOff",
        "noteNumber": 31,
        "velocity": 0,
        "byte9": true
    },
    {
        "deltaTime": 6,
        "channel": 14,
        "type": "noteOn",
        "noteNumber": 62,
        "velocity": 108
    },
    {
        "deltaTime": 0,
        "running": true,
        "channel": 14,
        "type": "noteOn",
        "noteNumber": 67,
        "velocity": 97
    },
    {
        "deltaTime": 0,
        "running": true,
        "channel": 14,
        "type": "noteOn",
        "noteNumber": 70,
        "velocity": 98
    },
    {
        "deltaTime": 10,
        "channel": 12,
        "type": "noteOff",
        "noteNumber": 55,
        "velocity": 0,
        "byte9": true
    },
    {
        "deltaTime": 42,
        "running": true,
        "channel": 12,
        "type": "noteOff",
        "noteNumber": 58,
        "velocity": 0,
        "byte9": true
    },
    {
        "deltaTime": 75,
        "channel": 5,
        "type": "noteOff",
        "noteNumber": 82,
        "velocity": 0,
        "byte9": true
    },
    {
        "deltaTime": 12,
        "running": true,
        "channel": 5,
        "type": "noteOff",
        "noteNumber": 74,
        "velocity": 0,
        "byte9": true
    },
    {
        "deltaTime": 5,
        "running": true,
        "channel": 5,
        "type": "noteOff",
        "noteNumber": 79,
        "velocity": 0,
        "byte9": true
    },
    {
        "deltaTime": 3,
        "channel": 14,
        "type": "noteOff",
        "noteNumber": 70,
        "velocity": 0,
        "byte9": true
    },
    {
        "deltaTime": 12,
        "running": true,
        "channel": 14,
        "type": "noteOff",
        "noteNumber": 62,
        "velocity": 0,
        "byte9": true
    },
    {
        "deltaTime": 5,
        "running": true,
        "channel": 14,
        "type": "noteOff",
        "noteNumber": 67,
        "velocity": 0,
        "byte9": true
    },
    {
        "deltaTime": 43,
        "channel": 3,
        "type": "noteOff",
        "noteNumber": 79,
        "velocity": 0,
        "byte9": true
    },
    {
        "deltaTime": 0,
        "channel": 3,
        "type": "noteOn",
        "noteNumber": 77,
        "velocity": 115
    },
    {
        "deltaTime": 90,
        "channel": 1,
        "type": "noteOn",
        "noteNumber": 31,
        "velocity": 110
    },
    {
        "deltaTime": 0,
        "channel": 8,
        "type": "noteOn",
        "noteNumber": 31,
        "velocity": 110
    },
    {
        "deltaTime": 0,
        "channel": 9,
        "type": "noteOn",
        "noteNumber": 35,
        "velocity": 114
    },
    {
        "deltaTime": 0,
        "channel": 11,
        "type": "noteOn",
        "noteNumber": 41,
        "velocity": 114
    },
    {
        "deltaTime": 12,
        "channel": 9,
        "type": "noteOff",
        "noteNumber": 35,
        "velocity": 0,
        "byte9": true
    },
    {
        "deltaTime": 1,
        "channel": 3,
        "type": "noteOff",
        "noteNumber": 77,
        "velocity": 0,
        "byte9": true
    },
    {
        "deltaTime": 0,
        "channel": 3,
        "type": "noteOn",
        "noteNumber": 77,
        "velocity": 119
    },
    {
        "deltaTime": 45,
        "channel": 12,
        "type": "noteOff",
        "noteNumber": 62,
        "velocity": 0,
        "byte9": true
    },
    {
        "deltaTime": 4,
        "channel": 5,
        "type": "noteOn",
        "noteNumber": 74,
        "velocity": 105
    },
    {
        "deltaTime": 0,
        "running": true,
        "channel": 5,
        "type": "noteOn",
        "noteNumber": 79,
        "velocity": 89
    },
    {
        "deltaTime": 0,
        "running": true,
        "channel": 5,
        "type": "noteOn",
        "noteNumber": 82,
        "velocity": 94
    },
    {
        "deltaTime": 0,
        "channel": 12,
        "type": "noteOn",
        "noteNumber": 58,
        "velocity": 119
    },
    {
        "deltaTime": 1,
        "channel": 11,
        "type": "noteOff",
        "noteNumber": 41,
        "velocity": 0,
        "byte9": true
    },
    {
        "deltaTime": 18,
        "channel": 14,
        "type": "noteOn",
        "noteNumber": 62,
        "velocity": 105
    },
    {
        "deltaTime": 0,
        "running": true,
        "channel": 14,
        "type": "noteOn",
        "noteNumber": 67,
        "velocity": 89
    },
    {
        "deltaTime": 0,
        "running": true,
        "channel": 14,
        "type": "noteOn",
        "noteNumber": 70,
        "velocity": 94
    },
    {
        "deltaTime": 127,
        "channel": 5,
        "type": "noteOff",
        "noteNumber": 82,
        "velocity": 0,
        "byte9": true
    },
    {
        "deltaTime": 19,
        "channel": 14,
        "type": "noteOff",
        "noteNumber": 70,
        "velocity": 0,
        "byte9": true
    },
    {
        "deltaTime": 3,
        "channel": 5,
        "type": "noteOff",
        "noteNumber": 74,
        "velocity": 0,
        "byte9": true
    },
    {
        "deltaTime": 0,
        "running": true,
        "channel": 5,
        "type": "noteOff",
        "noteNumber": 79,
        "velocity": 0,
        "byte9": true
    },
    {
        "deltaTime": 20,
        "channel": 14,
        "type": "noteOff",
        "noteNumber": 62,
        "velocity": 0,
        "byte9": true
    },
    {
        "deltaTime": 0,
        "running": true,
        "channel": 14,
        "type": "noteOff",
        "noteNumber": 67,
        "velocity": 0,
        "byte9": true
    },
    {
        "deltaTime": 132,
        "channel": 1,
        "type": "noteOn",
        "noteNumber": 32,
        "velocity": 110
    },
    {
        "deltaTime": 0,
        "channel": 8,
        "type": "noteOn",
        "noteNumber": 32,
        "velocity": 110
    },
    {
        "deltaTime": 0,
        "channel": 9,
        "type": "noteOn",
        "noteNumber": 35,
        "velocity": 114
    },
    {
        "deltaTime": 0,
        "running": true,
        "channel": 9,
        "type": "noteOn",
        "noteNumber": 70,
        "velocity": 65
    },
    {
        "deltaTime": 0,
        "channel": 11,
        "type": "noteOn",
        "noteNumber": 41,
        "velocity": 114
    },
    {
        "deltaTime": 12,
        "channel": 9,
        "type": "noteOff",
        "noteNumber": 35,
        "velocity": 0,
        "byte9": true
    },
    {
        "deltaTime": 0,
        "running": true,
        "channel": 9,
        "type": "noteOff",
        "noteNumber": 70,
        "velocity": 0,
        "byte9": true
    },
    {
        "deltaTime": 1,
        "channel": 1,
        "type": "noteOff",
        "noteNumber": 31,
        "velocity": 0,
        "byte9": true
    },
    {
        "deltaTime": 0,
        "channel": 8,
        "type": "noteOff",
        "noteNumber": 31,
        "velocity": 0,
        "byte9": true
    },
    {
        "deltaTime": 147,
        "channel": 5,
        "type": "noteOn",
        "noteNumber": 74,
        "velocity": 109
    },
    {
        "deltaTime": 0,
        "running": true,
        "channel": 5,
        "type": "noteOn",
        "noteNumber": 79,
        "velocity": 97
    },
    {
        "deltaTime": 0,
        "running": true,
        "channel": 5,
        "type": "noteOn",
        "noteNumber": 82,
        "velocity": 110
    },
    {
        "deltaTime": 0,
        "channel": 9,
        "type": "noteOn",
        "noteNumber": 44,
        "velocity": 107
    },
    {
        "deltaTime": 0,
        "running": true,
        "channel": 9,
        "type": "noteOn",
        "noteNumber": 54,
        "velocity": 109
    },
    {
        "deltaTime": 1,
        "channel": 11,
        "type": "noteOff",
        "noteNumber": 41,
        "velocity": 0,
        "byte9": true
    },
    {
        "deltaTime": 11,
        "channel": 9,
        "type": "noteOff",
        "noteNumber": 44,
        "velocity": 0,
        "byte9": true
    },
    {
        "deltaTime": 0,
        "running": true,
        "channel": 9,
        "type": "noteOff",
        "noteNumber": 54,
        "velocity": 0,
        "byte9": true
    },
    {
        "deltaTime": 7,
        "channel": 14,
        "type": "noteOn",
        "noteNumber": 62,
        "velocity": 109
    },
    {
        "deltaTime": 0,
        "running": true,
        "channel": 14,
        "type": "noteOn",
        "noteNumber": 67,
        "velocity": 97
    },
    {
        "deltaTime": 0,
        "running": true,
        "channel": 14,
        "type": "noteOn",
        "noteNumber": 70,
        "velocity": 110
    },
    {
        "deltaTime": 71,
        "channel": 3,
        "type": "noteOff",
        "noteNumber": 77,
        "velocity": 0,
        "byte9": true
    },
    {
        "deltaTime": 59,
        "channel": 5,
        "type": "noteOff",
        "noteNumber": 82,
        "velocity": 0,
        "byte9": true
    },
    {
        "deltaTime": 9,
        "running": true,
        "channel": 5,
        "type": "noteOff",
        "noteNumber": 74,
        "velocity": 0,
        "byte9": true
    },
    {
        "deltaTime": 3,
        "running": true,
        "channel": 5,
        "type": "noteOff",
        "noteNumber": 79,
        "velocity": 0,
        "byte9": true
    },
    {
        "deltaTime": 7,
        "channel": 14,
        "type": "noteOff",
        "noteNumber": 70,
        "velocity": 0,
        "byte9": true
    },
    {
        "deltaTime": 9,
        "running": true,
        "channel": 14,
        "type": "noteOff",
        "noteNumber": 62,
        "velocity": 0,
        "byte9": true
    },
    {
        "deltaTime": 3,
        "running": true,
        "channel": 14,
        "type": "noteOff",
        "noteNumber": 67,
        "velocity": 0,
        "byte9": true
    },
    {
        "deltaTime": 136,
        "channel": 1,
        "type": "noteOff",
        "noteNumber": 32,
        "velocity": 0,
        "byte9": true
    },
    {
        "deltaTime": 0,
        "channel": 8,
        "type": "noteOff",
        "noteNumber": 32,
        "velocity": 0,
        "byte9": true
    },
    {
        "deltaTime": 0,
        "channel": 12,
        "type": "noteOff",
        "noteNumber": 58,
        "velocity": 0,
        "byte9": true
    },
    {
        "deltaTime": 4,
        "channel": 1,
        "type": "noteOn",
        "noteNumber": 33,
        "velocity": 110
    },
    {
        "deltaTime": 0,
        "channel": 8,
        "type": "noteOn",
        "noteNumber": 33,
        "velocity": 110
    },
    {
        "deltaTime": 0,
        "channel": 12,
        "type": "noteOn",
        "noteNumber": 55,
        "velocity": 119
    },
    {
        "deltaTime": 76,
        "running": true,
        "channel": 12,
        "type": "noteOff",
        "noteNumber": 55,
        "velocity": 0,
        "byte9": true
    },
    {
        "deltaTime": 4,
        "running": true,
        "channel": 12,
        "type": "noteOn",
        "noteNumber": 57,
        "velocity": 119
    },
    {
        "deltaTime": 76,
        "channel": 1,
        "type": "noteOff",
        "noteNumber": 33,
        "velocity": 0,
        "byte9": true
    },
    {
        "deltaTime": 0,
        "channel": 8,
        "type": "noteOff",
        "noteNumber": 33,
        "velocity": 0,
        "byte9": true
    },
    {
        "deltaTime": 0,
        "channel": 10,
        "type": "noteOff",
        "noteNumber": 79,
        "velocity": 0,
        "byte9": true
    },
    {
        "deltaTime": 0,
        "channel": 12,
        "type": "noteOff",
        "noteNumber": 57,
        "velocity": 0,
        "byte9": true
    },
    {
        "deltaTime": 4,
        "channel": 1,
        "type": "noteOn",
        "noteNumber": 34,
        "velocity": 110
    },
    {
        "deltaTime": 0,
        "channel": 5,
        "type": "noteOn",
        "noteNumber": 74,
        "velocity": 101
    },
    {
        "deltaTime": 0,
        "running": true,
        "channel": 5,
        "type": "noteOn",
        "noteNumber": 77,
        "velocity": 97
    },
    {
        "deltaTime": 0,
        "running": true,
        "channel": 5,
        "type": "noteOn",
        "noteNumber": 82,
        "velocity": 105
    },
    {
        "deltaTime": 0,
        "channel": 7,
        "type": "noteOn",
        "noteNumber": 82,
        "velocity": 104
    },
    {
        "deltaTime": 0,
        "channel": 8,
        "type": "noteOn",
        "noteNumber": 34,
        "velocity": 110
    },
    {
        "deltaTime": 0,
        "channel": 9,
        "type": "noteOn",
        "noteNumber": 35,
        "velocity": 114
    },
    {
        "deltaTime": 0,
        "channel": 10,
        "type": "noteOn",
        "noteNumber": 70,
        "velocity": 104
    },
    {
        "deltaTime": 0,
        "running": true,
        "channel": 10,
        "type": "noteOn",
        "noteNumber": 82,
        "velocity": 104
    },
    {
        "deltaTime": 0,
        "channel": 11,
        "type": "noteOn",
        "noteNumber": 41,
        "velocity": 114
    },
    {
        "deltaTime": 0,
        "channel": 12,
        "type": "noteOn",
        "noteNumber": 58,
        "velocity": 127
    },
    {
        "deltaTime": 12,
        "channel": 9,
        "type": "noteOff",
        "noteNumber": 35,
        "velocity": 0,
        "byte9": true
    },
    {
        "deltaTime": 7,
        "channel": 14,
        "type": "noteOn",
        "noteNumber": 62,
        "velocity": 101
    },
    {
        "deltaTime": 0,
        "running": true,
        "channel": 14,
        "type": "noteOn",
        "noteNumber": 65,
        "velocity": 97
    },
    {
        "deltaTime": 0,
        "running": true,
        "channel": 14,
        "type": "noteOn",
        "noteNumber": 70,
        "velocity": 105
    },
    {
        "deltaTime": 54,
        "channel": 5,
        "type": "noteOff",
        "noteNumber": 82,
        "velocity": 0,
        "byte9": true
    },
    {
        "deltaTime": 20,
        "channel": 14,
        "type": "noteOff",
        "noteNumber": 70,
        "velocity": 0,
        "byte9": true
    },
    {
        "deltaTime": 28,
        "channel": 5,
        "type": "noteOff",
        "noteNumber": 77,
        "velocity": 0,
        "byte9": true
    },
    {
        "deltaTime": 2,
        "running": true,
        "channel": 5,
        "type": "noteOff",
        "noteNumber": 74,
        "velocity": 0,
        "byte9": true
    },
    {
        "deltaTime": 17,
        "channel": 14,
        "type": "noteOff",
        "noteNumber": 65,
        "velocity": 0,
        "byte9": true
    },
    {
        "deltaTime": 2,
        "running": true,
        "channel": 14,
        "type": "noteOff",
        "noteNumber": 62,
        "velocity": 0,
        "byte9": true
    },
    {
        "deltaTime": 19,
        "channel": 11,
        "type": "noteOff",
        "noteNumber": 41,
        "velocity": 0,
        "byte9": true
    },
    {
        "deltaTime": 159,
        "channel": 12,
        "type": "noteOn",
        "noteNumber": 62,
        "velocity": 105
    },
    {
        "deltaTime": 160,
        "channel": 5,
        "type": "noteOn",
        "noteNumber": 74,
        "velocity": 111
    },
    {
        "deltaTime": 0,
        "running": true,
        "channel": 5,
        "type": "noteOn",
        "noteNumber": 77,
        "velocity": 107
    },
    {
        "deltaTime": 0,
        "running": true,
        "channel": 5,
        "type": "noteOn",
        "noteNumber": 82,
        "velocity": 105
    },
    {
        "deltaTime": 0,
        "channel": 9,
        "type": "noteOn",
        "noteNumber": 44,
        "velocity": 107
    },
    {
        "deltaTime": 0,
        "running": true,
        "channel": 9,
        "type": "noteOn",
        "noteNumber": 69,
        "velocity": 109
    },
    {
        "deltaTime": 0,
        "channel": 12,
        "type": "noteOn",
        "noteNumber": 65,
        "velocity": 89
    },
    {
        "deltaTime": 12,
        "channel": 9,
        "type": "noteOff",
        "noteNumber": 44,
        "velocity": 0,
        "byte9": true
    },
    {
        "deltaTime": 0,
        "running": true,
        "channel": 9,
        "type": "noteOff",
        "noteNumber": 69,
        "velocity": 0,
        "byte9": true
    },
    {
        "deltaTime": 1,
        "channel": 1,
        "type": "noteOff",
        "noteNumber": 34,
        "velocity": 0,
        "byte9": true
    },
    {
        "deltaTime": 0,
        "channel": 8,
        "type": "noteOff",
        "noteNumber": 34,
        "velocity": 0,
        "byte9": true
    },
    {
        "deltaTime": 6,
        "channel": 14,
        "type": "noteOn",
        "noteNumber": 62,
        "velocity": 111
    },
    {
        "deltaTime": 0,
        "running": true,
        "channel": 14,
        "type": "noteOn",
        "noteNumber": 65,
        "velocity": 107
    },
    {
        "deltaTime": 0,
        "running": true,
        "channel": 14,
        "type": "noteOn",
        "noteNumber": 70,
        "velocity": 105
    },
    {
        "deltaTime": 138,
        "channel": 5,
        "type": "noteOff",
        "noteNumber": 82,
        "velocity": 0,
        "byte9": true
    },
    {
        "deltaTime": 7,
        "running": true,
        "channel": 5,
        "type": "noteOff",
        "noteNumber": 77,
        "velocity": 0,
        "byte9": true
    },
    {
        "deltaTime": 4,
        "running": true,
        "channel": 5,
        "type": "noteOff",
        "noteNumber": 74,
        "velocity": 0,
        "byte9": true
    },
    {
        "deltaTime": 9,
        "channel": 14,
        "type": "noteOff",
        "noteNumber": 70,
        "velocity": 0,
        "byte9": true
    },
    {
        "deltaTime": 7,
        "running": true,
        "channel": 14,
        "type": "noteOff",
        "noteNumber": 65,
        "velocity": 0,
        "byte9": true
    },
    {
        "deltaTime": 4,
        "running": true,
        "channel": 14,
        "type": "noteOff",
        "noteNumber": 62,
        "velocity": 0,
        "byte9": true
    },
    {
        "deltaTime": 0,
        "channel": 3,
        "type": "noteOn",
        "noteNumber": 76,
        "velocity": 119
    },
    {
        "deltaTime": 45,
        "channel": 1,
        "type": "noteOn",
        "noteNumber": 34,
        "velocity": 110
    },
    {
        "deltaTime": 0,
        "channel": 8,
        "type": "noteOn",
        "noteNumber": 34,
        "velocity": 110
    },
    {
        "deltaTime": 0,
        "channel": 9,
        "type": "noteOn",
        "noteNumber": 35,
        "velocity": 107
    },
    {
        "deltaTime": 0,
        "channel": 11,
        "type": "noteOn",
        "noteNumber": 41,
        "velocity": 107
    },
    {
        "deltaTime": 0,
        "channel": 12,
        "type": "noteOn",
        "noteNumber": 70,
        "velocity": 115
    },
    {
        "deltaTime": 12,
        "channel": 9,
        "type": "noteOff",
        "noteNumber": 35,
        "velocity": 0,
        "byte9": true
    },
    {
        "deltaTime": 37,
        "channel": 1,
        "type": "noteOff",
        "noteNumber": 34,
        "velocity": 0,
        "byte9": true
    },
    {
        "deltaTime": 0,
        "channel": 8,
        "type": "noteOff",
        "noteNumber": 34,
        "velocity": 0,
        "byte9": true
    },
    {
        "deltaTime": 107,
        "channel": 10,
        "type": "noteOff",
        "noteNumber": 70,
        "velocity": 0,
        "byte9": true
    },
    {
        "deltaTime": 0,
        "running": true,
        "channel": 10,
        "type": "noteOff",
        "noteNumber": 82,
        "velocity": 0,
        "byte9": true
    },
    {
        "deltaTime": 4,
        "channel": 1,
        "type": "noteOn",
        "noteNumber": 34,
        "velocity": 110
    },
    {
        "deltaTime": 0,
        "channel": 5,
        "type": "noteOn",
        "noteNumber": 74,
        "velocity": 105
    },
    {
        "deltaTime": 0,
        "running": true,
        "channel": 5,
        "type": "noteOn",
        "noteNumber": 77,
        "velocity": 94
    },
    {
        "deltaTime": 0,
        "running": true,
        "channel": 5,
        "type": "noteOn",
        "noteNumber": 82,
        "velocity": 94
    },
    {
        "deltaTime": 0,
        "channel": 7,
        "type": "noteOn",
        "noteNumber": 81,
        "velocity": 104
    },
    {
        "deltaTime": 0,
        "channel": 8,
        "type": "noteOn",
        "noteNumber": 34,
        "velocity": 110
    },
    {
        "deltaTime": 0,
        "channel": 9,
        "type": "noteOn",
        "noteNumber": 35,
        "velocity": 114
    },
    {
        "deltaTime": 0,
        "channel": 10,
        "type": "noteOn",
        "noteNumber": 69,
        "velocity": 104
    },
    {
        "deltaTime": 0,
        "running": true,
        "channel": 10,
        "type": "noteOn",
        "noteNumber": 81,
        "velocity": 104
    },
    {
        "deltaTime": 0,
        "channel": 11,
        "type": "noteOn",
        "noteNumber": 41,
        "velocity": 114
    },
    {
        "deltaTime": 0,
        "channel": 12,
        "type": "noteOn",
        "noteNumber": 69,
        "velocity": 124
    },
    {
        "deltaTime": 1,
        "channel": 11,
        "type": "noteOff",
        "noteNumber": 41,
        "velocity": 0,
        "byte9": true
    },
    {
        "deltaTime": 11,
        "channel": 9,
        "type": "noteOff",
        "noteNumber": 35,
        "velocity": 0,
        "byte9": true
    },
    {
        "deltaTime": 3,
        "channel": 7,
        "type": "noteOff",
        "noteNumber": 82,
        "velocity": 0,
        "byte9": true
    },
    {
        "deltaTime": 4,
        "channel": 14,
        "type": "noteOn",
        "noteNumber": 62,
        "velocity": 105
    },
    {
        "deltaTime": 0,
        "running": true,
        "channel": 14,
        "type": "noteOn",
        "noteNumber": 65,
        "velocity": 94
    },
    {
        "deltaTime": 0,
        "running": true,
        "channel": 14,
        "type": "noteOn",
        "noteNumber": 70,
        "velocity": 94
    },
    {
        "deltaTime": 41,
        "channel": 12,
        "type": "noteOff",
        "noteNumber": 70,
        "velocity": 0,
        "byte9": true
    },
    {
        "deltaTime": 95,
        "channel": 5,
        "type": "noteOff",
        "noteNumber": 82,
        "velocity": 0,
        "byte9": true
    },
    {
        "deltaTime": 6,
        "channel": 11,
        "type": "noteOff",
        "noteNumber": 41,
        "velocity": 0,
        "byte9": true
    },
    {
        "deltaTime": 2,
        "channel": 5,
        "type": "noteOff",
        "noteNumber": 74,
        "velocity": 0,
        "byte9": true
    },
    {
        "deltaTime": 4,
        "running": true,
        "channel": 5,
        "type": "noteOff",
        "noteNumber": 77,
        "velocity": 0,
        "byte9": true
    },
    {
        "deltaTime": 8,
        "channel": 14,
        "type": "noteOff",
        "noteNumber": 70,
        "velocity": 0,
        "byte9": true
    },
    {
        "deltaTime": 8,
        "running": true,
        "channel": 14,
        "type": "noteOff",
        "noteNumber": 62,
        "velocity": 0,
        "byte9": true
    },
    {
        "deltaTime": 4,
        "running": true,
        "channel": 14,
        "type": "noteOff",
        "noteNumber": 65,
        "velocity": 0,
        "byte9": true
    },
    {
        "deltaTime": 133,
        "channel": 9,
        "type": "noteOn",
        "noteNumber": 70,
        "velocity": 65
    },
    {
        "deltaTime": 12,
        "running": true,
        "channel": 9,
        "type": "noteOff",
        "noteNumber": 70,
        "velocity": 0,
        "byte9": true
    },
    {
        "deltaTime": 3,
        "channel": 3,
        "type": "noteOff",
        "noteNumber": 76,
        "velocity": 0,
        "byte9": true
    },
    {
        "deltaTime": 0,
        "channel": 3,
        "type": "noteOn",
        "noteNumber": 77,
        "velocity": 114
    },
    {
        "deltaTime": 128,
        "channel": 5,
        "type": "noteOn",
        "noteNumber": 74,
        "velocity": 109
    },
    {
        "deltaTime": 0,
        "running": true,
        "channel": 5,
        "type": "noteOn",
        "noteNumber": 77,
        "velocity": 94
    },
    {
        "deltaTime": 0,
        "running": true,
        "channel": 5,
        "type": "noteOn",
        "noteNumber": 82,
        "velocity": 94
    },
    {
        "deltaTime": 0,
        "channel": 9,
        "type": "noteOn",
        "noteNumber": 44,
        "velocity": 107
    },
    {
        "deltaTime": 0,
        "running": true,
        "channel": 9,
        "type": "noteOn",
        "noteNumber": 54,
        "velocity": 109
    },
    {
        "deltaTime": 12,
        "running": true,
        "channel": 9,
        "type": "noteOff",
        "noteNumber": 44,
        "velocity": 0,
        "byte9": true
    },
    {
        "deltaTime": 0,
        "running": true,
        "channel": 9,
        "type": "noteOff",
        "noteNumber": 54,
        "velocity": 0,
        "byte9": true
    },
    {
        "deltaTime": 1,
        "channel": 1,
        "type": "noteOff",
        "noteNumber": 34,
        "velocity": 0,
        "byte9": true
    },
    {
        "deltaTime": 0,
        "channel": 8,
        "type": "noteOff",
        "noteNumber": 34,
        "velocity": 0,
        "byte9": true
    },
    {
        "deltaTime": 6,
        "channel": 14,
        "type": "noteOn",
        "noteNumber": 62,
        "velocity": 109
    },
    {
        "deltaTime": 0,
        "running": true,
        "channel": 14,
        "type": "noteOn",
        "noteNumber": 65,
        "velocity": 94
    },
    {
        "deltaTime": 0,
        "running": true,
        "channel": 14,
        "type": "noteOn",
        "noteNumber": 70,
        "velocity": 94
    },
    {
        "deltaTime": 122,
        "channel": 5,
        "type": "noteOff",
        "noteNumber": 82,
        "velocity": 0,
        "byte9": true
    },
    {
        "deltaTime": 9,
        "channel": 12,
        "type": "noteOff",
        "noteNumber": 58,
        "velocity": 0,
        "byte9": true
    },
    {
        "deltaTime": 4,
        "channel": 5,
        "type": "noteOff",
        "noteNumber": 74,
        "velocity": 0,
        "byte9": true
    },
    {
        "deltaTime": 0,
        "running": true,
        "channel": 5,
        "type": "noteOff",
        "noteNumber": 77,
        "velocity": 0,
        "byte9": true
    },
    {
        "deltaTime": 7,
        "channel": 14,
        "type": "noteOff",
        "noteNumber": 70,
        "velocity": 0,
        "byte9": true
    },
    {
        "deltaTime": 13,
        "running": true,
        "channel": 14,
        "type": "noteOff",
        "noteNumber": 62,
        "velocity": 0,
        "byte9": true
    },
    {
        "deltaTime": 0,
        "running": true,
        "channel": 14,
        "type": "noteOff",
        "noteNumber": 65,
        "velocity": 0,
        "byte9": true
    },
    {
        "deltaTime": 4,
        "channel": 12,
        "type": "noteOff",
        "noteNumber": 65,
        "velocity": 0,
        "byte9": true
    },
    {
        "deltaTime": 4,
        "running": true,
        "channel": 12,
        "type": "noteOff",
        "noteNumber": 62,
        "velocity": 0,
        "byte9": true
    },
    {
        "deltaTime": 9,
        "running": true,
        "channel": 12,
        "type": "noteOff",
        "noteNumber": 69,
        "velocity": 0,
        "byte9": true
    },
    {
        "deltaTime": 230,
        "channel": 3,
        "type": "noteOff",
        "noteNumber": 77,
        "velocity": 0,
        "byte9": true
    },
    {
        "deltaTime": 3,
        "running": true,
        "channel": 3,
        "type": "noteOn",
        "noteNumber": 76,
        "velocity": 119
    },
    {
        "deltaTime": 52,
        "channel": 10,
        "type": "noteOff",
        "noteNumber": 69,
        "velocity": 0,
        "byte9": true
    },
    {
        "deltaTime": 0,
        "running": true,
        "channel": 10,
        "type": "noteOff",
        "noteNumber": 81,
        "velocity": 0,
        "byte9": true
    },
    {
        "deltaTime": 4,
        "channel": 1,
        "type": "noteOn",
        "noteNumber": 34,
        "velocity": 110
    },
    {
        "deltaTime": 0,
        "channel": 5,
        "type": "noteOn",
        "noteNumber": 74,
        "velocity": 109
    },
    {
        "deltaTime": 0,
        "running": true,
        "channel": 5,
        "type": "noteOn",
        "noteNumber": 77,
        "velocity": 94
    },
    {
        "deltaTime": 0,
        "running": true,
        "channel": 5,
        "type": "noteOn",
        "noteNumber": 82,
        "velocity": 101
    },
    {
        "deltaTime": 0,
        "channel": 7,
        "type": "noteOn",
        "noteNumber": 79,
        "velocity": 104
    },
    {
        "deltaTime": 0,
        "channel": 8,
        "type": "noteOn",
        "noteNumber": 34,
        "velocity": 110
    },
    {
        "deltaTime": 0,
        "channel": 9,
        "type": "noteOn",
        "noteNumber": 35,
        "velocity": 114
    },
    {
        "deltaTime": 0,
        "channel": 10,
        "type": "noteOn",
        "noteNumber": 67,
        "velocity": 104
    },
    {
        "deltaTime": 0,
        "running": true,
        "channel": 10,
        "type": "noteOn",
        "noteNumber": 79,
        "velocity": 104
    },
    {
        "deltaTime": 0,
        "channel": 11,
        "type": "noteOn",
        "noteNumber": 41,
        "velocity": 114
    },
    {
        "deltaTime": 12,
        "channel": 9,
        "type": "noteOff",
        "noteNumber": 35,
        "velocity": 0,
        "byte9": true
    },
    {
        "deltaTime": 3,
        "channel": 7,
        "type": "noteOff",
        "noteNumber": 81,
        "velocity": 0,
        "byte9": true
    },
    {
        "deltaTime": 3,
        "channel": 12,
        "type": "noteOn",
        "noteNumber": 58,
        "velocity": 127
    },
    {
        "deltaTime": 1,
        "channel": 14,
        "type": "noteOn",
        "noteNumber": 62,
        "velocity": 109
    },
    {
        "deltaTime": 0,
        "running": true,
        "channel": 14,
        "type": "noteOn",
        "noteNumber": 65,
        "velocity": 94
    },
    {
        "deltaTime": 0,
        "running": true,
        "channel": 14,
        "type": "noteOn",
        "noteNumber": 70,
        "velocity": 101
    },
    {
        "deltaTime": 136,
        "channel": 5,
        "type": "noteOff",
        "noteNumber": 82,
        "velocity": 0,
        "byte9": true
    },
    {
        "deltaTime": 6,
        "channel": 11,
        "type": "noteOff",
        "noteNumber": 41,
        "velocity": 0,
        "byte9": true
    },
    {
        "deltaTime": 10,
        "channel": 5,
        "type": "noteOff",
        "noteNumber": 74,
        "velocity": 0,
        "byte9": true
    },
    {
        "deltaTime": 0,
        "running": true,
        "channel": 5,
        "type": "noteOff",
        "noteNumber": 77,
        "velocity": 0,
        "byte9": true
    },
    {
        "deltaTime": 4,
        "channel": 14,
        "type": "noteOff",
        "noteNumber": 70,
        "velocity": 0,
        "byte9": true
    },
    {
        "deltaTime": 16,
        "running": true,
        "channel": 14,
        "type": "noteOff",
        "noteNumber": 62,
        "velocity": 0,
        "byte9": true
    },
    {
        "deltaTime": 0,
        "running": true,
        "channel": 14,
        "type": "noteOff",
        "noteNumber": 65,
        "velocity": 0,
        "byte9": true
    },
    {
        "deltaTime": 97,
        "channel": 12,
        "type": "noteOn",
        "noteNumber": 62,
        "velocity": 114
    },
    {
        "deltaTime": 0,
        "channel": 3,
        "type": "noteOn",
        "noteNumber": 79,
        "velocity": 119
    },
    {
        "deltaTime": 29,
        "running": true,
        "channel": 3,
        "type": "noteOff",
        "noteNumber": 76,
        "velocity": 0,
        "byte9": true
    },
    {
        "deltaTime": 27,
        "channel": 5,
        "type": "noteOn",
        "noteNumber": 74,
        "velocity": 108
    },
    {
        "deltaTime": 0,
        "running": true,
        "channel": 5,
        "type": "noteOn",
        "noteNumber": 77,
        "velocity": 97
    },
    {
        "deltaTime": 0,
        "running": true,
        "channel": 5,
        "type": "noteOn",
        "noteNumber": 82,
        "velocity": 98
    },
    {
        "deltaTime": 0,
        "channel": 9,
        "type": "noteOn",
        "noteNumber": 44,
        "velocity": 107
    },
    {
        "deltaTime": 0,
        "running": true,
        "channel": 9,
        "type": "noteOn",
        "noteNumber": 69,
        "velocity": 109
    },
    {
        "deltaTime": 12,
        "running": true,
        "channel": 9,
        "type": "noteOff",
        "noteNumber": 44,
        "velocity": 0,
        "byte9": true
    },
    {
        "deltaTime": 0,
        "running": true,
        "channel": 9,
        "type": "noteOff",
        "noteNumber": 69,
        "velocity": 0,
        "byte9": true
    },
    {
        "deltaTime": 1,
        "channel": 1,
        "type": "noteOff",
        "noteNumber": 34,
        "velocity": 0,
        "byte9": true
    },
    {
        "deltaTime": 0,
        "channel": 8,
        "type": "noteOff",
        "noteNumber": 34,
        "velocity": 0,
        "byte9": true
    },
    {
        "deltaTime": 6,
        "channel": 14,
        "type": "noteOn",
        "noteNumber": 62,
        "velocity": 108
    },
    {
        "deltaTime": 0,
        "running": true,
        "channel": 14,
        "type": "noteOn",
        "noteNumber": 65,
        "velocity": 97
    },
    {
        "deltaTime": 0,
        "running": true,
        "channel": 14,
        "type": "noteOn",
        "noteNumber": 70,
        "velocity": 98
    },
    {
        "deltaTime": 127,
        "channel": 5,
        "type": "noteOff",
        "noteNumber": 82,
        "velocity": 0,
        "byte9": true
    },
    {
        "deltaTime": 12,
        "running": true,
        "channel": 5,
        "type": "noteOff",
        "noteNumber": 74,
        "velocity": 0,
        "byte9": true
    },
    {
        "deltaTime": 5,
        "running": true,
        "channel": 5,
        "type": "noteOff",
        "noteNumber": 77,
        "velocity": 0,
        "byte9": true
    },
    {
        "deltaTime": 3,
        "channel": 14,
        "type": "noteOff",
        "noteNumber": 70,
        "velocity": 0,
        "byte9": true
    },
    {
        "deltaTime": 12,
        "running": true,
        "channel": 14,
        "type": "noteOff",
        "noteNumber": 62,
        "velocity": 0,
        "byte9": true
    },
    {
        "deltaTime": 5,
        "running": true,
        "channel": 14,
        "type": "noteOff",
        "noteNumber": 65,
        "velocity": 0,
        "byte9": true
    },
    {
        "deltaTime": 117,
        "channel": 3,
        "type": "noteOff",
        "noteNumber": 79,
        "velocity": 0,
        "byte9": true
    },
    {
        "deltaTime": 0,
        "channel": 3,
        "type": "noteOn",
        "noteNumber": 77,
        "velocity": 127
    },
    {
        "deltaTime": 16,
        "channel": 1,
        "type": "noteOn",
        "noteNumber": 34,
        "velocity": 110
    },
    {
        "deltaTime": 0,
        "channel": 8,
        "type": "noteOn",
        "noteNumber": 34,
        "velocity": 110
    },
    {
        "deltaTime": 0,
        "channel": 9,
        "type": "noteOn",
        "noteNumber": 35,
        "velocity": 114
    },
    {
        "deltaTime": 0,
        "channel": 11,
        "type": "noteOn",
        "noteNumber": 41,
        "velocity": 114
    },
    {
        "deltaTime": 0,
        "channel": 12,
        "type": "noteOn",
        "noteNumber": 67,
        "velocity": 115
    },
    {
        "deltaTime": 12,
        "channel": 9,
        "type": "noteOff",
        "noteNumber": 35,
        "velocity": 0,
        "byte9": true
    },
    {
        "deltaTime": 139,
        "channel": 12,
        "type": "noteOff",
        "noteNumber": 67,
        "velocity": 0,
        "byte9": true
    },
    {
        "deltaTime": 4,
        "running": true,
        "channel": 12,
        "type": "noteOn",
        "noteNumber": 65,
        "velocity": 105
    },
    {
        "deltaTime": 1,
        "channel": 10,
        "type": "noteOff",
        "noteNumber": 67,
        "velocity": 0,
        "byte9": true
    },
    {
        "deltaTime": 0,
        "running": true,
        "channel": 10,
        "type": "noteOff",
        "noteNumber": 79,
        "velocity": 0,
        "byte9": true
    },
    {
        "deltaTime": 4,
        "channel": 5,
        "type": "noteOn",
        "noteNumber": 74,
        "velocity": 105
    },
    {
        "deltaTime": 0,
        "running": true,
        "channel": 5,
        "type": "noteOn",
        "noteNumber": 77,
        "velocity": 89
    },
    {
        "deltaTime": 0,
        "running": true,
        "channel": 5,
        "type": "noteOn",
        "noteNumber": 82,
        "velocity": 94
    },
    {
        "deltaTime": 0,
        "channel": 7,
        "type": "noteOn",
        "noteNumber": 77,
        "velocity": 104
    },
    {
        "deltaTime": 0,
        "channel": 10,
        "type": "noteOn",
        "noteNumber": 65,
        "velocity": 104
    },
    {
        "deltaTime": 0,
        "running": true,
        "channel": 10,
        "type": "noteOn",
        "noteNumber": 77,
        "velocity": 104
    },
    {
        "deltaTime": 1,
        "channel": 11,
        "type": "noteOff",
        "noteNumber": 41,
        "velocity": 0,
        "byte9": true
    },
    {
        "deltaTime": 14,
        "channel": 7,
        "type": "noteOff",
        "noteNumber": 79,
        "velocity": 0,
        "byte9": true
    },
    {
        "deltaTime": 4,
        "channel": 14,
        "type": "noteOn",
        "noteNumber": 62,
        "velocity": 105
    },
    {
        "deltaTime": 0,
        "running": true,
        "channel": 14,
        "type": "noteOn",
        "noteNumber": 65,
        "velocity": 89
    },
    {
        "deltaTime": 0,
        "running": true,
        "channel": 14,
        "type": "noteOn",
        "noteNumber": 70,
        "velocity": 94
    },
    {
        "deltaTime": 127,
        "channel": 5,
        "type": "noteOff",
        "noteNumber": 82,
        "velocity": 0,
        "byte9": true
    },
    {
        "deltaTime": 6,
        "channel": 3,
        "type": "noteOff",
        "noteNumber": 77,
        "velocity": 0,
        "byte9": true
    },
    {
        "deltaTime": 13,
        "channel": 14,
        "type": "noteOff",
        "noteNumber": 70,
        "velocity": 0,
        "byte9": true
    },
    {
        "deltaTime": 3,
        "channel": 5,
        "type": "noteOff",
        "noteNumber": 74,
        "velocity": 0,
        "byte9": true
    },
    {
        "deltaTime": 0,
        "running": true,
        "channel": 5,
        "type": "noteOff",
        "noteNumber": 77,
        "velocity": 0,
        "byte9": true
    },
    {
        "deltaTime": 20,
        "channel": 14,
        "type": "noteOff",
        "noteNumber": 62,
        "velocity": 0,
        "byte9": true
    },
    {
        "deltaTime": 0,
        "running": true,
        "channel": 14,
        "type": "noteOff",
        "noteNumber": 65,
        "velocity": 0,
        "byte9": true
    },
    {
        "deltaTime": 0,
        "channel": 3,
        "type": "noteOn",
        "noteNumber": 77,
        "velocity": 114
    },
    {
        "deltaTime": 25,
        "channel": 1,
        "type": "noteOff",
        "noteNumber": 34,
        "velocity": 0,
        "byte9": true
    },
    {
        "deltaTime": 0,
        "channel": 8,
        "type": "noteOff",
        "noteNumber": 34,
        "velocity": 0,
        "byte9": true
    },
    {
        "deltaTime": 53,
        "channel": 1,
        "type": "noteOn",
        "noteNumber": 34,
        "velocity": 110
    },
    {
        "deltaTime": 0,
        "channel": 8,
        "type": "noteOn",
        "noteNumber": 34,
        "velocity": 110
    },
    {
        "deltaTime": 0,
        "channel": 9,
        "type": "noteOn",
        "noteNumber": 35,
        "velocity": 114
    },
    {
        "deltaTime": 0,
        "running": true,
        "channel": 9,
        "type": "noteOn",
        "noteNumber": 70,
        "velocity": 65
    },
    {
        "deltaTime": 0,
        "channel": 11,
        "type": "noteOn",
        "noteNumber": 41,
        "velocity": 114
    },
    {
        "deltaTime": 12,
        "channel": 9,
        "type": "noteOff",
        "noteNumber": 35,
        "velocity": 0,
        "byte9": true
    },
    {
        "deltaTime": 0,
        "running": true,
        "channel": 9,
        "type": "noteOff",
        "noteNumber": 70,
        "velocity": 0,
        "byte9": true
    },
    {
        "deltaTime": 148,
        "channel": 5,
        "type": "noteOn",
        "noteNumber": 74,
        "velocity": 109
    },
    {
        "deltaTime": 0,
        "running": true,
        "channel": 5,
        "type": "noteOn",
        "noteNumber": 77,
        "velocity": 97
    },
    {
        "deltaTime": 0,
        "running": true,
        "channel": 5,
        "type": "noteOn",
        "noteNumber": 82,
        "velocity": 110
    },
    {
        "deltaTime": 0,
        "channel": 9,
        "type": "noteOn",
        "noteNumber": 44,
        "velocity": 107
    },
    {
        "deltaTime": 0,
        "running": true,
        "channel": 9,
        "type": "noteOn",
        "noteNumber": 54,
        "velocity": 109
    },
    {
        "deltaTime": 1,
        "channel": 11,
        "type": "noteOff",
        "noteNumber": 41,
        "velocity": 0,
        "byte9": true
    },
    {
        "deltaTime": 11,
        "channel": 9,
        "type": "noteOff",
        "noteNumber": 44,
        "velocity": 0,
        "byte9": true
    },
    {
        "deltaTime": 0,
        "running": true,
        "channel": 9,
        "type": "noteOff",
        "noteNumber": 54,
        "velocity": 0,
        "byte9": true
    },
    {
        "deltaTime": 7,
        "channel": 14,
        "type": "noteOn",
        "noteNumber": 62,
        "velocity": 109
    },
    {
        "deltaTime": 0,
        "running": true,
        "channel": 14,
        "type": "noteOn",
        "noteNumber": 65,
        "velocity": 97
    },
    {
        "deltaTime": 0,
        "running": true,
        "channel": 14,
        "type": "noteOn",
        "noteNumber": 70,
        "velocity": 110
    },
    {
        "deltaTime": 130,
        "channel": 5,
        "type": "noteOff",
        "noteNumber": 82,
        "velocity": 0,
        "byte9": true
    },
    {
        "deltaTime": 9,
        "running": true,
        "channel": 5,
        "type": "noteOff",
        "noteNumber": 74,
        "velocity": 0,
        "byte9": true
    },
    {
        "deltaTime": 3,
        "running": true,
        "channel": 5,
        "type": "noteOff",
        "noteNumber": 77,
        "velocity": 0,
        "byte9": true
    },
    {
        "deltaTime": 7,
        "channel": 14,
        "type": "noteOff",
        "noteNumber": 70,
        "velocity": 0,
        "byte9": true
    },
    {
        "deltaTime": 9,
        "running": true,
        "channel": 14,
        "type": "noteOff",
        "noteNumber": 62,
        "velocity": 0,
        "byte9": true
    },
    {
        "deltaTime": 3,
        "running": true,
        "channel": 14,
        "type": "noteOff",
        "noteNumber": 65,
        "velocity": 0,
        "byte9": true
    },
    {
        "deltaTime": 87,
        "channel": 1,
        "type": "noteOff",
        "noteNumber": 34,
        "velocity": 0,
        "byte9": true
    },
    {
        "deltaTime": 0,
        "channel": 8,
        "type": "noteOff",
        "noteNumber": 34,
        "velocity": 0,
        "byte9": true
    },
    {
        "deltaTime": 31,
        "channel": 12,
        "type": "noteOff",
        "noteNumber": 58,
        "velocity": 0,
        "byte9": true
    },
    {
        "deltaTime": 5,
        "running": true,
        "channel": 12,
        "type": "noteOff",
        "noteNumber": 65,
        "velocity": 0,
        "byte9": true
    },
    {
        "deltaTime": 8,
        "running": true,
        "channel": 12,
        "type": "noteOff",
        "noteNumber": 62,
        "velocity": 0,
        "byte9": true
    },
    {
        "deltaTime": 5,
        "channel": 3,
        "type": "noteOff",
        "noteNumber": 77,
        "velocity": 0,
        "byte9": true
    },
    {
        "deltaTime": 0,
        "channel": 1,
        "type": "noteOn",
        "noteNumber": 34,
        "velocity": 110
    },
    {
        "deltaTime": 0,
        "channel": 3,
        "type": "noteOn",
        "noteNumber": 76,
        "velocity": 119
    },
    {
        "deltaTime": 0,
        "channel": 8,
        "type": "noteOn",
        "noteNumber": 34,
        "velocity": 110
    },
    {
        "deltaTime": 49,
        "channel": 1,
        "type": "noteOff",
        "noteNumber": 34,
        "velocity": 0,
        "byte9": true
    },
    {
        "deltaTime": 0,
        "channel": 8,
        "type": "noteOff",
        "noteNumber": 34,
        "velocity": 0,
        "byte9": true
    },
    {
        "deltaTime": 27,
        "channel": 12,
        "type": "noteOn",
        "noteNumber": 57,
        "velocity": 105
    },
    {
        "deltaTime": 61,
        "running": true,
        "channel": 12,
        "type": "noteOn",
        "noteNumber": 61,
        "velocity": 127
    },
    {
        "deltaTime": 19,
        "channel": 3,
        "type": "noteOff",
        "noteNumber": 76,
        "velocity": 0,
        "byte9": true
    },
    {
        "deltaTime": 0,
        "channel": 1,
        "type": "noteOn",
        "noteNumber": 33,
        "velocity": 110
    },
    {
        "deltaTime": 0,
        "channel": 3,
        "type": "noteOn",
        "noteNumber": 76,
        "velocity": 114
    },
    {
        "deltaTime": 0,
        "channel": 5,
        "type": "noteOn",
        "noteNumber": 73,
        "velocity": 101
    },
    {
        "deltaTime": 0,
        "running": true,
        "channel": 5,
        "type": "noteOn",
        "noteNumber": 76,
        "velocity": 97
    },
    {
        "deltaTime": 0,
        "running": true,
        "channel": 5,
        "type": "noteOn",
        "noteNumber": 81,
        "velocity": 105
    },
    {
        "deltaTime": 0,
        "channel": 7,
        "type": "noteOn",
        "noteNumber": 76,
        "velocity": 104
    },
    {
        "deltaTime": 0,
        "channel": 8,
        "type": "noteOn",
        "noteNumber": 33,
        "velocity": 110
    },
    {
        "deltaTime": 0,
        "channel": 9,
        "type": "noteOn",
        "noteNumber": 35,
        "velocity": 114
    },
    {
        "deltaTime": 0,
        "channel": 10,
        "type": "noteOn",
        "noteNumber": 64,
        "velocity": 104
    },
    {
        "deltaTime": 0,
        "running": true,
        "channel": 10,
        "type": "noteOn",
        "noteNumber": 76,
        "velocity": 104
    },
    {
        "deltaTime": 0,
        "channel": 11,
        "type": "noteOn",
        "noteNumber": 41,
        "velocity": 114
    },
    {
        "deltaTime": 12,
        "channel": 9,
        "type": "noteOff",
        "noteNumber": 35,
        "velocity": 0,
        "byte9": true
    },
    {
        "deltaTime": 3,
        "channel": 7,
        "type": "noteOff",
        "noteNumber": 77,
        "velocity": 0,
        "byte9": true
    },
    {
        "deltaTime": 0,
        "channel": 10,
        "type": "noteOff",
        "noteNumber": 65,
        "velocity": 0,
        "byte9": true
    },
    {
        "deltaTime": 0,
        "running": true,
        "channel": 10,
        "type": "noteOff",
        "noteNumber": 77,
        "velocity": 0,
        "byte9": true
    },
    {
        "deltaTime": 4,
        "channel": 14,
        "type": "noteOn",
        "noteNumber": 61,
        "velocity": 101
    },
    {
        "deltaTime": 0,
        "running": true,
        "channel": 14,
        "type": "noteOn",
        "noteNumber": 64,
        "velocity": 97
    },
    {
        "deltaTime": 0,
        "running": true,
        "channel": 14,
        "type": "noteOn",
        "noteNumber": 69,
        "velocity": 105
    },
    {
        "deltaTime": 15,
        "channel": 12,
        "type": "noteOn",
        "noteNumber": 64,
        "velocity": 119
    },
    {
        "deltaTime": 39,
        "channel": 5,
        "type": "noteOff",
        "noteNumber": 81,
        "velocity": 0,
        "byte9": true
    },
    {
        "deltaTime": 20,
        "channel": 14,
        "type": "noteOff",
        "noteNumber": 69,
        "velocity": 0,
        "byte9": true
    },
    {
        "deltaTime": 28,
        "channel": 5,
        "type": "noteOff",
        "noteNumber": 76,
        "velocity": 0,
        "byte9": true
    },
    {
        "deltaTime": 2,
        "running": true,
        "channel": 5,
        "type": "noteOff",
        "noteNumber": 73,
        "velocity": 0,
        "byte9": true
    },
    {
        "deltaTime": 17,
        "channel": 14,
        "type": "noteOff",
        "noteNumber": 64,
        "velocity": 0,
        "byte9": true
    },
    {
        "deltaTime": 2,
        "running": true,
        "channel": 14,
        "type": "noteOff",
        "noteNumber": 61,
        "velocity": 0,
        "byte9": true
    },
    {
        "deltaTime": 19,
        "channel": 11,
        "type": "noteOff",
        "noteNumber": 41,
        "velocity": 0,
        "byte9": true
    },
    {
        "deltaTime": 319,
        "channel": 5,
        "type": "noteOn",
        "noteNumber": 73,
        "velocity": 111
    },
    {
        "deltaTime": 0,
        "running": true,
        "channel": 5,
        "type": "noteOn",
        "noteNumber": 76,
        "velocity": 107
    },
    {
        "deltaTime": 0,
        "running": true,
        "channel": 5,
        "type": "noteOn",
        "noteNumber": 81,
        "velocity": 105
    },
    {
        "deltaTime": 0,
        "channel": 9,
        "type": "noteOn",
        "noteNumber": 44,
        "velocity": 107
    },
    {
        "deltaTime": 0,
        "running": true,
        "channel": 9,
        "type": "noteOn",
        "noteNumber": 69,
        "velocity": 109
    },
    {
        "deltaTime": 12,
        "running": true,
        "channel": 9,
        "type": "noteOff",
        "noteNumber": 44,
        "velocity": 0,
        "byte9": true
    },
    {
        "deltaTime": 0,
        "running": true,
        "channel": 9,
        "type": "noteOff",
        "noteNumber": 69,
        "velocity": 0,
        "byte9": true
    },
    {
        "deltaTime": 1,
        "channel": 1,
        "type": "noteOff",
        "noteNumber": 33,
        "velocity": 0,
        "byte9": true
    },
    {
        "deltaTime": 0,
        "channel": 8,
        "type": "noteOff",
        "noteNumber": 33,
        "velocity": 0,
        "byte9": true
    },
    {
        "deltaTime": 6,
        "channel": 14,
        "type": "noteOn",
        "noteNumber": 61,
        "velocity": 111
    },
    {
        "deltaTime": 0,
        "running": true,
        "channel": 14,
        "type": "noteOn",
        "noteNumber": 64,
        "velocity": 107
    },
    {
        "deltaTime": 0,
        "running": true,
        "channel": 14,
        "type": "noteOn",
        "noteNumber": 69,
        "velocity": 105
    },
    {
        "deltaTime": 138,
        "channel": 5,
        "type": "noteOff",
        "noteNumber": 81,
        "velocity": 0,
        "byte9": true
    },
    {
        "deltaTime": 7,
        "running": true,
        "channel": 5,
        "type": "noteOff",
        "noteNumber": 76,
        "velocity": 0,
        "byte9": true
    },
    {
        "deltaTime": 4,
        "running": true,
        "channel": 5,
        "type": "noteOff",
        "noteNumber": 73,
        "velocity": 0,
        "byte9": true
    },
    {
        "deltaTime": 9,
        "channel": 14,
        "type": "noteOff",
        "noteNumber": 69,
        "velocity": 0,
        "byte9": true
    },
    {
        "deltaTime": 7,
        "running": true,
        "channel": 14,
        "type": "noteOff",
        "noteNumber": 64,
        "velocity": 0,
        "byte9": true
    },
    {
        "deltaTime": 4,
        "running": true,
        "channel": 14,
        "type": "noteOff",
        "noteNumber": 61,
        "velocity": 0,
        "byte9": true
    },
    {
        "deltaTime": 81,
        "channel": 12,
        "type": "noteOff",
        "noteNumber": 61,
        "velocity": 0,
        "byte9": true
    },
    {
        "deltaTime": 51,
        "channel": 1,
        "type": "noteOn",
        "noteNumber": 33,
        "velocity": 110
    },
    {
        "deltaTime": 0,
        "channel": 8,
        "type": "noteOn",
        "noteNumber": 33,
        "velocity": 110
    },
    {
        "deltaTime": 0,
        "channel": 9,
        "type": "noteOn",
        "noteNumber": 35,
        "velocity": 107
    },
    {
        "deltaTime": 0,
        "channel": 11,
        "type": "noteOn",
        "noteNumber": 41,
        "velocity": 107
    },
    {
        "deltaTime": 12,
        "channel": 9,
        "type": "noteOff",
        "noteNumber": 35,
        "velocity": 0,
        "byte9": true
    },
    {
        "deltaTime": 11,
        "channel": 12,
        "type": "noteOff",
        "noteNumber": 64,
        "velocity": 0,
        "byte9": true
    },
    {
        "deltaTime": 20,
        "running": true,
        "channel": 12,
        "type": "noteOff",
        "noteNumber": 57,
        "velocity": 0,
        "byte9": true
    },
    {
        "deltaTime": 6,
        "channel": 1,
        "type": "noteOff",
        "noteNumber": 33,
        "velocity": 0,
        "byte9": true
    },
    {
        "deltaTime": 0,
        "channel": 8,
        "type": "noteOff",
        "noteNumber": 33,
        "velocity": 0,
        "byte9": true
    },
    {
        "deltaTime": 27,
        "channel": 12,
        "type": "noteOn",
        "noteNumber": 57,
        "velocity": 105
    },
    {
        "deltaTime": 61,
        "running": true,
        "channel": 12,
        "type": "noteOn",
        "noteNumber": 61,
        "velocity": 127
    },
    {
        "deltaTime": 19,
        "channel": 3,
        "type": "noteOff",
        "noteNumber": 76,
        "velocity": 0,
        "byte9": true
    },
    {
        "deltaTime": 0,
        "channel": 1,
        "type": "noteOn",
        "noteNumber": 33,
        "velocity": 110
    },
    {
        "deltaTime": 0,
        "channel": 3,
        "type": "noteOn",
        "noteNumber": 74,
        "velocity": 114
    },
    {
        "deltaTime": 0,
        "channel": 5,
        "type": "noteOn",
        "noteNumber": 73,
        "velocity": 105
    },
    {
        "deltaTime": 0,
        "running": true,
        "channel": 5,
        "type": "noteOn",
        "noteNumber": 76,
        "velocity": 94
    },
    {
        "deltaTime": 0,
        "running": true,
        "channel": 5,
        "type": "noteOn",
        "noteNumber": 81,
        "velocity": 94
    },
    {
        "deltaTime": 0,
        "channel": 8,
        "type": "noteOn",
        "noteNumber": 33,
        "velocity": 110
    },
    {
        "deltaTime": 0,
        "channel": 9,
        "type": "noteOn",
        "noteNumber": 35,
        "velocity": 114
    },
    {
        "deltaTime": 0,
        "channel": 11,
        "type": "noteOn",
        "noteNumber": 41,
        "velocity": 114
    },
    {
        "deltaTime": 1,
        "running": true,
        "channel": 11,
        "type": "noteOff",
        "noteNumber": 41,
        "velocity": 0,
        "byte9": true
    },
    {
        "deltaTime": 11,
        "channel": 9,
        "type": "noteOff",
        "noteNumber": 35,
        "velocity": 0,
        "byte9": true
    },
    {
        "deltaTime": 7,
        "channel": 14,
        "type": "noteOn",
        "noteNumber": 61,
        "velocity": 105
    },
    {
        "deltaTime": 0,
        "running": true,
        "channel": 14,
        "type": "noteOn",
        "noteNumber": 64,
        "velocity": 94
    },
    {
        "deltaTime": 0,
        "running": true,
        "channel": 14,
        "type": "noteOn",
        "noteNumber": 69,
        "velocity": 94
    },
    {
        "deltaTime": 15,
        "channel": 12,
        "type": "noteOn",
        "noteNumber": 64,
        "velocity": 119
    },
    {
        "deltaTime": 121,
        "channel": 5,
        "type": "noteOff",
        "noteNumber": 81,
        "velocity": 0,
        "byte9": true
    },
    {
        "deltaTime": 6,
        "channel": 11,
        "type": "noteOff",
        "noteNumber": 41,
        "velocity": 0,
        "byte9": true
    },
    {
        "deltaTime": 2,
        "channel": 5,
        "type": "noteOff",
        "noteNumber": 73,
        "velocity": 0,
        "byte9": true
    },
    {
        "deltaTime": 4,
        "running": true,
        "channel": 5,
        "type": "noteOff",
        "noteNumber": 76,
        "velocity": 0,
        "byte9": true
    },
    {
        "deltaTime": 8,
        "channel": 14,
        "type": "noteOff",
        "noteNumber": 69,
        "velocity": 0,
        "byte9": true
    },
    {
        "deltaTime": 8,
        "running": true,
        "channel": 14,
        "type": "noteOff",
        "noteNumber": 61,
        "velocity": 0,
        "byte9": true
    },
    {
        "deltaTime": 4,
        "running": true,
        "channel": 14,
        "type": "noteOff",
        "noteNumber": 64,
        "velocity": 0,
        "byte9": true
    },
    {
        "deltaTime": 133,
        "channel": 9,
        "type": "noteOn",
        "noteNumber": 70,
        "velocity": 65
    },
    {
        "deltaTime": 12,
        "running": true,
        "channel": 9,
        "type": "noteOff",
        "noteNumber": 70,
        "velocity": 0,
        "byte9": true
    },
    {
        "deltaTime": 148,
        "channel": 5,
        "type": "noteOn",
        "noteNumber": 73,
        "velocity": 109
    },
    {
        "deltaTime": 0,
        "running": true,
        "channel": 5,
        "type": "noteOn",
        "noteNumber": 76,
        "velocity": 94
    },
    {
        "deltaTime": 0,
        "running": true,
        "channel": 5,
        "type": "noteOn",
        "noteNumber": 81,
        "velocity": 94
    },
    {
        "deltaTime": 0,
        "channel": 9,
        "type": "noteOn",
        "noteNumber": 44,
        "velocity": 107
    },
    {
        "deltaTime": 0,
        "running": true,
        "channel": 9,
        "type": "noteOn",
        "noteNumber": 54,
        "velocity": 109
    },
    {
        "deltaTime": 12,
        "running": true,
        "channel": 9,
        "type": "noteOff",
        "noteNumber": 44,
        "velocity": 0,
        "byte9": true
    },
    {
        "deltaTime": 0,
        "running": true,
        "channel": 9,
        "type": "noteOff",
        "noteNumber": 54,
        "velocity": 0,
        "byte9": true
    },
    {
        "deltaTime": 1,
        "channel": 1,
        "type": "noteOff",
        "noteNumber": 33,
        "velocity": 0,
        "byte9": true
    },
    {
        "deltaTime": 0,
        "channel": 8,
        "type": "noteOff",
        "noteNumber": 33,
        "velocity": 0,
        "byte9": true
    },
    {
        "deltaTime": 6,
        "channel": 14,
        "type": "noteOn",
        "noteNumber": 61,
        "velocity": 109
    },
    {
        "deltaTime": 0,
        "running": true,
        "channel": 14,
        "type": "noteOn",
        "noteNumber": 64,
        "velocity": 94
    },
    {
        "deltaTime": 0,
        "running": true,
        "channel": 14,
        "type": "noteOn",
        "noteNumber": 69,
        "velocity": 94
    },
    {
        "deltaTime": 122,
        "channel": 5,
        "type": "noteOff",
        "noteNumber": 81,
        "velocity": 0,
        "byte9": true
    },
    {
        "deltaTime": 13,
        "running": true,
        "channel": 5,
        "type": "noteOff",
        "noteNumber": 73,
        "velocity": 0,
        "byte9": true
    },
    {
        "deltaTime": 0,
        "running": true,
        "channel": 5,
        "type": "noteOff",
        "noteNumber": 76,
        "velocity": 0,
        "byte9": true
    },
    {
        "deltaTime": 7,
        "channel": 14,
        "type": "noteOff",
        "noteNumber": 69,
        "velocity": 0,
        "byte9": true
    },
    {
        "deltaTime": 13,
        "running": true,
        "channel": 14,
        "type": "noteOff",
        "noteNumber": 61,
        "velocity": 0,
        "byte9": true
    },
    {
        "deltaTime": 0,
        "running": true,
        "channel": 14,
        "type": "noteOff",
        "noteNumber": 64,
        "velocity": 0,
        "byte9": true
    },
    {
        "deltaTime": 95,
        "channel": 12,
        "type": "noteOff",
        "noteNumber": 61,
        "velocity": 0,
        "byte9": true
    },
    {
        "deltaTime": 74,
        "running": true,
        "channel": 12,
        "type": "noteOff",
        "noteNumber": 64,
        "velocity": 0,
        "byte9": true
    },
    {
        "deltaTime": 20,
        "running": true,
        "channel": 12,
        "type": "noteOff",
        "noteNumber": 57,
        "velocity": 0,
        "byte9": true
    },
    {
        "deltaTime": 12,
        "channel": 7,
        "type": "noteOff",
        "noteNumber": 76,
        "velocity": 0,
        "byte9": true
    },
    {
        "deltaTime": 21,
        "channel": 12,
        "type": "noteOn",
        "noteNumber": 57,
        "velocity": 101
    },
    {
        "deltaTime": 28,
        "running": true,
        "channel": 12,
        "type": "noteOn",
        "noteNumber": 61,
        "velocity": 127
    },
    {
        "deltaTime": 52,
        "channel": 3,
        "type": "noteOff",
        "noteNumber": 74,
        "velocity": 0,
        "byte9": true
    },
    {
        "deltaTime": 0,
        "channel": 1,
        "type": "noteOn",
        "noteNumber": 33,
        "velocity": 110
    },
    {
        "deltaTime": 0,
        "channel": 3,
        "type": "noteOn",
        "noteNumber": 73,
        "velocity": 114
    },
    {
        "deltaTime": 0,
        "channel": 5,
        "type": "noteOn",
        "noteNumber": 73,
        "velocity": 109
    },
    {
        "deltaTime": 0,
        "running": true,
        "channel": 5,
        "type": "noteOn",
        "noteNumber": 76,
        "velocity": 94
    },
    {
        "deltaTime": 0,
        "running": true,
        "channel": 5,
        "type": "noteOn",
        "noteNumber": 81,
        "velocity": 101
    },
    {
        "deltaTime": 0,
        "channel": 8,
        "type": "noteOn",
        "noteNumber": 33,
        "velocity": 110
    },
    {
        "deltaTime": 0,
        "channel": 9,
        "type": "noteOn",
        "noteNumber": 35,
        "velocity": 114
    },
    {
        "deltaTime": 0,
        "channel": 10,
        "type": "noteOn",
        "noteNumber": 65,
        "velocity": 104
    },
    {
        "deltaTime": 0,
        "running": true,
        "channel": 10,
        "type": "noteOn",
        "noteNumber": 77,
        "velocity": 104
    },
    {
        "deltaTime": 0,
        "channel": 11,
        "type": "noteOn",
        "noteNumber": 41,
        "velocity": 114
    },
    {
        "deltaTime": 12,
        "channel": 9,
        "type": "noteOff",
        "noteNumber": 35,
        "velocity": 0,
        "byte9": true
    },
    {
        "deltaTime": 2,
        "channel": 12,
        "type": "noteOn",
        "noteNumber": 65,
        "velocity": 114
    },
    {
        "deltaTime": 1,
        "channel": 10,
        "type": "noteOff",
        "noteNumber": 64,
        "velocity": 0,
        "byte9": true
    },
    {
        "deltaTime": 0,
        "running": true,
        "channel": 10,
        "type": "noteOff",
        "noteNumber": 76,
        "velocity": 0,
        "byte9": true
    },
    {
        "deltaTime": 4,
        "channel": 14,
        "type": "noteOn",
        "noteNumber": 61,
        "velocity": 109
    },
    {
        "deltaTime": 0,
        "running": true,
        "channel": 14,
        "type": "noteOn",
        "noteNumber": 64,
        "velocity": 94
    },
    {
        "deltaTime": 0,
        "running": true,
        "channel": 14,
        "type": "noteOn",
        "noteNumber": 69,
        "velocity": 101
    },
    {
        "deltaTime": 136,
        "channel": 5,
        "type": "noteOff",
        "noteNumber": 81,
        "velocity": 0,
        "byte9": true
    },
    {
        "deltaTime": 6,
        "channel": 11,
        "type": "noteOff",
        "noteNumber": 41,
        "velocity": 0,
        "byte9": true
    },
    {
        "deltaTime": 10,
        "channel": 5,
        "type": "noteOff",
        "noteNumber": 73,
        "velocity": 0,
        "byte9": true
    },
    {
        "deltaTime": 0,
        "running": true,
        "channel": 5,
        "type": "noteOff",
        "noteNumber": 76,
        "velocity": 0,
        "byte9": true
    },
    {
        "deltaTime": 4,
        "channel": 14,
        "type": "noteOff",
        "noteNumber": 69,
        "velocity": 0,
        "byte9": true
    },
    {
        "deltaTime": 16,
        "running": true,
        "channel": 14,
        "type": "noteOff",
        "noteNumber": 61,
        "velocity": 0,
        "byte9": true
    },
    {
        "deltaTime": 0,
        "running": true,
        "channel": 14,
        "type": "noteOff",
        "noteNumber": 64,
        "velocity": 0,
        "byte9": true
    },
    {
        "deltaTime": 289,
        "channel": 5,
        "type": "noteOn",
        "noteNumber": 73,
        "velocity": 108
    },
    {
        "deltaTime": 0,
        "running": true,
        "channel": 5,
        "type": "noteOn",
        "noteNumber": 76,
        "velocity": 97
    },
    {
        "deltaTime": 0,
        "running": true,
        "channel": 5,
        "type": "noteOn",
        "noteNumber": 81,
        "velocity": 98
    },
    {
        "deltaTime": 0,
        "channel": 9,
        "type": "noteOn",
        "noteNumber": 44,
        "velocity": 107
    },
    {
        "deltaTime": 0,
        "running": true,
        "channel": 9,
        "type": "noteOn",
        "noteNumber": 69,
        "velocity": 109
    },
    {
        "deltaTime": 12,
        "running": true,
        "channel": 9,
        "type": "noteOff",
        "noteNumber": 44,
        "velocity": 0,
        "byte9": true
    },
    {
        "deltaTime": 0,
        "running": true,
        "channel": 9,
        "type": "noteOff",
        "noteNumber": 69,
        "velocity": 0,
        "byte9": true
    },
    {
        "deltaTime": 1,
        "channel": 1,
        "type": "noteOff",
        "noteNumber": 33,
        "velocity": 0,
        "byte9": true
    },
    {
        "deltaTime": 0,
        "channel": 8,
        "type": "noteOff",
        "noteNumber": 33,
        "velocity": 0,
        "byte9": true
    },
    {
        "deltaTime": 6,
        "channel": 14,
        "type": "noteOn",
        "noteNumber": 61,
        "velocity": 108
    },
    {
        "deltaTime": 0,
        "running": true,
        "channel": 14,
        "type": "noteOn",
        "noteNumber": 64,
        "velocity": 97
    },
    {
        "deltaTime": 0,
        "running": true,
        "channel": 14,
        "type": "noteOn",
        "noteNumber": 69,
        "velocity": 98
    },
    {
        "deltaTime": 127,
        "channel": 5,
        "type": "noteOff",
        "noteNumber": 81,
        "velocity": 0,
        "byte9": true
    },
    {
        "deltaTime": 12,
        "running": true,
        "channel": 5,
        "type": "noteOff",
        "noteNumber": 73,
        "velocity": 0,
        "byte9": true
    },
    {
        "deltaTime": 5,
        "running": true,
        "channel": 5,
        "type": "noteOff",
        "noteNumber": 76,
        "velocity": 0,
        "byte9": true
    },
    {
        "deltaTime": 3,
        "channel": 14,
        "type": "noteOff",
        "noteNumber": 69,
        "velocity": 0,
        "byte9": true
    },
    {
        "deltaTime": 12,
        "running": true,
        "channel": 14,
        "type": "noteOff",
        "noteNumber": 61,
        "velocity": 0,
        "byte9": true
    },
    {
        "deltaTime": 5,
        "running": true,
        "channel": 14,
        "type": "noteOff",
        "noteNumber": 64,
        "velocity": 0,
        "byte9": true
    },
    {
        "deltaTime": 7,
        "channel": 12,
        "type": "noteOff",
        "noteNumber": 61,
        "velocity": 0,
        "byte9": true
    },
    {
        "deltaTime": 46,
        "running": true,
        "channel": 12,
        "type": "noteOff",
        "noteNumber": 57,
        "velocity": 0,
        "byte9": true
    },
    {
        "deltaTime": 84,
        "channel": 1,
        "type": "noteOn",
        "noteNumber": 33,
        "velocity": 110
    },
    {
        "deltaTime": 0,
        "channel": 8,
        "type": "noteOn",
        "noteNumber": 33,
        "velocity": 110
    },
    {
        "deltaTime": 0,
        "channel": 9,
        "type": "noteOn",
        "noteNumber": 35,
        "velocity": 114
    },
    {
        "deltaTime": 0,
        "channel": 11,
        "type": "noteOn",
        "noteNumber": 41,
        "velocity": 114
    },
    {
        "deltaTime": 4,
        "channel": 12,
        "type": "noteOn",
        "noteNumber": 57,
        "velocity": 101
    },
    {
        "deltaTime": 8,
        "channel": 9,
        "type": "noteOff",
        "noteNumber": 35,
        "velocity": 0,
        "byte9": true
    },
    {
        "deltaTime": 1,
        "channel": 12,
        "type": "noteOff",
        "noteNumber": 65,
        "velocity": 0,
        "byte9": true
    },
    {
        "deltaTime": 44,
        "running": true,
        "channel": 12,
        "type": "noteOn",
        "noteNumber": 61,
        "velocity": 127
    },
    {
        "deltaTime": 77,
        "running": true,
        "channel": 12,
        "type": "noteOn",
        "noteNumber": 64,
        "velocity": 114
    },
    {
        "deltaTime": 22,
        "channel": 3,
        "type": "noteOff",
        "noteNumber": 73,
        "velocity": 0,
        "byte9": true
    },
    {
        "deltaTime": 0,
        "channel": 10,
        "type": "noteOff",
        "noteNumber": 65,
        "velocity": 0,
        "byte9": true
    },
    {
        "deltaTime": 0,
        "running": true,
        "channel": 10,
        "type": "noteOff",
        "noteNumber": 77,
        "velocity": 0,
        "byte9": true
    },
    {
        "deltaTime": 0,
        "channel": 3,
        "type": "noteOn",
        "noteNumber": 69,
        "velocity": 114
    },
    {
        "deltaTime": 0,
        "channel": 5,
        "type": "noteOn",
        "noteNumber": 73,
        "velocity": 105
    },
    {
        "deltaTime": 0,
        "running": true,
        "channel": 5,
        "type": "noteOn",
        "noteNumber": 76,
        "velocity": 89
    },
    {
        "deltaTime": 0,
        "running": true,
        "channel": 5,
        "type": "noteOn",
        "noteNumber": 81,
        "velocity": 94
    },
    {
        "deltaTime": 0,
        "channel": 10,
        "type": "noteOn",
        "noteNumber": 64,
        "velocity": 104
    },
    {
        "deltaTime": 0,
        "running": true,
        "channel": 10,
        "type": "noteOn",
        "noteNumber": 76,
        "velocity": 104
    },
    {
        "deltaTime": 1,
        "channel": 11,
        "type": "noteOff",
        "noteNumber": 41,
        "velocity": 0,
        "byte9": true
    },
    {
        "deltaTime": 18,
        "channel": 14,
        "type": "noteOn",
        "noteNumber": 61,
        "velocity": 105
    },
    {
        "deltaTime": 0,
        "running": true,
        "channel": 14,
        "type": "noteOn",
        "noteNumber": 64,
        "velocity": 89
    },
    {
        "deltaTime": 0,
        "running": true,
        "channel": 14,
        "type": "noteOn",
        "noteNumber": 69,
        "velocity": 94
    },
    {
        "deltaTime": 127,
        "channel": 5,
        "type": "noteOff",
        "noteNumber": 81,
        "velocity": 0,
        "byte9": true
    },
    {
        "deltaTime": 19,
        "channel": 14,
        "type": "noteOff",
        "noteNumber": 69,
        "velocity": 0,
        "byte9": true
    },
    {
        "deltaTime": 3,
        "channel": 5,
        "type": "noteOff",
        "noteNumber": 73,
        "velocity": 0,
        "byte9": true
    },
    {
        "deltaTime": 0,
        "running": true,
        "channel": 5,
        "type": "noteOff",
        "noteNumber": 76,
        "velocity": 0,
        "byte9": true
    },
    {
        "deltaTime": 20,
        "channel": 14,
        "type": "noteOff",
        "noteNumber": 61,
        "velocity": 0,
        "byte9": true
    },
    {
        "deltaTime": 0,
        "running": true,
        "channel": 14,
        "type": "noteOff",
        "noteNumber": 64,
        "velocity": 0,
        "byte9": true
    },
    {
        "deltaTime": 79,
        "channel": 1,
        "type": "noteOff",
        "noteNumber": 33,
        "velocity": 0,
        "byte9": true
    },
    {
        "deltaTime": 0,
        "channel": 8,
        "type": "noteOff",
        "noteNumber": 33,
        "velocity": 0,
        "byte9": true
    },
    {
        "deltaTime": 53,
        "channel": 1,
        "type": "noteOn",
        "noteNumber": 33,
        "velocity": 110
    },
    {
        "deltaTime": 0,
        "channel": 8,
        "type": "noteOn",
        "noteNumber": 33,
        "velocity": 110
    },
    {
        "deltaTime": 0,
        "channel": 9,
        "type": "noteOn",
        "noteNumber": 35,
        "velocity": 114
    },
    {
        "deltaTime": 0,
        "running": true,
        "channel": 9,
        "type": "noteOn",
        "noteNumber": 70,
        "velocity": 65
    },
    {
        "deltaTime": 0,
        "channel": 11,
        "type": "noteOn",
        "noteNumber": 41,
        "velocity": 114
    },
    {
        "deltaTime": 12,
        "channel": 9,
        "type": "noteOff",
        "noteNumber": 35,
        "velocity": 0,
        "byte9": true
    },
    {
        "deltaTime": 0,
        "running": true,
        "channel": 9,
        "type": "noteOff",
        "noteNumber": 70,
        "velocity": 0,
        "byte9": true
    },
    {
        "deltaTime": 148,
        "channel": 5,
        "type": "noteOn",
        "noteNumber": 73,
        "velocity": 109
    },
    {
        "deltaTime": 0,
        "running": true,
        "channel": 5,
        "type": "noteOn",
        "noteNumber": 76,
        "velocity": 97
    },
    {
        "deltaTime": 0,
        "running": true,
        "channel": 5,
        "type": "noteOn",
        "noteNumber": 81,
        "velocity": 110
    },
    {
        "deltaTime": 0,
        "channel": 9,
        "type": "noteOn",
        "noteNumber": 44,
        "velocity": 107
    },
    {
        "deltaTime": 0,
        "running": true,
        "channel": 9,
        "type": "noteOn",
        "noteNumber": 54,
        "velocity": 109
    },
    {
        "deltaTime": 1,
        "channel": 11,
        "type": "noteOff",
        "noteNumber": 41,
        "velocity": 0,
        "byte9": true
    },
    {
        "deltaTime": 11,
        "channel": 9,
        "type": "noteOff",
        "noteNumber": 44,
        "velocity": 0,
        "byte9": true
    },
    {
        "deltaTime": 0,
        "running": true,
        "channel": 9,
        "type": "noteOff",
        "noteNumber": 54,
        "velocity": 0,
        "byte9": true
    },
    {
        "deltaTime": 7,
        "channel": 14,
        "type": "noteOn",
        "noteNumber": 61,
        "velocity": 109
    },
    {
        "deltaTime": 0,
        "running": true,
        "channel": 14,
        "type": "noteOn",
        "noteNumber": 64,
        "velocity": 97
    },
    {
        "deltaTime": 0,
        "running": true,
        "channel": 14,
        "type": "noteOn",
        "noteNumber": 69,
        "velocity": 110
    },
    {
        "deltaTime": 54,
        "channel": 12,
        "type": "noteOff",
        "noteNumber": 61,
        "velocity": 0,
        "byte9": true
    },
    {
        "deltaTime": 31,
        "running": true,
        "channel": 12,
        "type": "noteOff",
        "noteNumber": 64,
        "velocity": 0,
        "byte9": true
    },
    {
        "deltaTime": 8,
        "running": true,
        "channel": 12,
        "type": "noteOff",
        "noteNumber": 57,
        "velocity": 0,
        "byte9": true
    },
    {
        "deltaTime": 37,
        "channel": 5,
        "type": "noteOff",
        "noteNumber": 81,
        "velocity": 0,
        "byte9": true
    },
    {
        "deltaTime": 9,
        "running": true,
        "channel": 5,
        "type": "noteOff",
        "noteNumber": 73,
        "velocity": 0,
        "byte9": true
    },
    {
        "deltaTime": 3,
        "running": true,
        "channel": 5,
        "type": "noteOff",
        "noteNumber": 76,
        "velocity": 0,
        "byte9": true
    },
    {
        "deltaTime": 7,
        "channel": 14,
        "type": "noteOff",
        "noteNumber": 69,
        "velocity": 0,
        "byte9": true
    },
    {
        "deltaTime": 9,
        "running": true,
        "channel": 14,
        "type": "noteOff",
        "noteNumber": 61,
        "velocity": 0,
        "byte9": true
    },
    {
        "deltaTime": 3,
        "running": true,
        "channel": 14,
        "type": "noteOff",
        "noteNumber": 64,
        "velocity": 0,
        "byte9": true
    },
    {
        "deltaTime": 87,
        "channel": 1,
        "type": "noteOff",
        "noteNumber": 33,
        "velocity": 0,
        "byte9": true
    },
    {
        "deltaTime": 0,
        "channel": 8,
        "type": "noteOff",
        "noteNumber": 33,
        "velocity": 0,
        "byte9": true
    },
    {
        "deltaTime": 9,
        "channel": 12,
        "type": "noteOn",
        "noteNumber": 53,
        "velocity": 101
    },
    {
        "deltaTime": 28,
        "running": true,
        "channel": 12,
        "type": "noteOn",
        "noteNumber": 57,
        "velocity": 123
    },
    {
        "deltaTime": 16,
        "channel": 1,
        "type": "noteOn",
        "noteNumber": 33,
        "velocity": 110
    },
    {
        "deltaTime": 0,
        "channel": 8,
        "type": "noteOn",
        "noteNumber": 33,
        "velocity": 110
    },
    {
        "deltaTime": 49,
        "channel": 1,
        "type": "noteOff",
        "noteNumber": 33,
        "velocity": 0,
        "byte9": true
    },
    {
        "deltaTime": 0,
        "channel": 8,
        "type": "noteOff",
        "noteNumber": 33,
        "velocity": 0,
        "byte9": true
    },
    {
        "deltaTime": 5,
        "channel": 12,
        "type": "noteOn",
        "noteNumber": 62,
        "velocity": 114
    },
    {
        "deltaTime": 102,
        "channel": 3,
        "type": "noteOff",
        "noteNumber": 69,
        "velocity": 0,
        "byte9": true
    },
    {
        "deltaTime": 0,
        "channel": 10,
        "type": "noteOff",
        "noteNumber": 64,
        "velocity": 0,
        "byte9": true
    },
    {
        "deltaTime": 0,
        "running": true,
        "channel": 10,
        "type": "noteOff",
        "noteNumber": 76,
        "velocity": 0,
        "byte9": true
    },
    {
        "deltaTime": 0,
        "channel": 1,
        "type": "noteOn",
        "noteNumber": 38,
        "velocity": 110
    },
    {
        "deltaTime": 0,
        "channel": 2,
        "type": "noteOn",
        "noteNumber": 50,
        "velocity": 87
    },
    {
        "deltaTime": 0,
        "running": true,
        "channel": 2,
        "type": "noteOn",
        "noteNumber": 53,
        "velocity": 87
    },
    {
        "deltaTime": 0,
        "running": true,
        "channel": 2,
        "type": "noteOn",
        "noteNumber": 57,
        "velocity": 87
    },
    {
        "deltaTime": 0,
        "channel": 3,
        "type": "noteOn",
        "noteNumber": 69,
        "velocity": 114
    },
    {
        "deltaTime": 0,
        "channel": 4,
        "type": "noteOn",
        "noteNumber": 57,
        "velocity": 87
    },
    {
        "deltaTime": 0,
        "running": true,
        "channel": 4,
        "type": "noteOn",
        "noteNumber": 62,
        "velocity": 87
    },
    {
        "deltaTime": 0,
        "channel": 6,
        "type": "noteOn",
        "noteNumber": 50,
        "velocity": 87
    },
    {
        "deltaTime": 0,
        "running": true,
        "channel": 6,
        "type": "noteOn",
        "noteNumber": 53,
        "velocity": 87
    },
    {
        "deltaTime": 0,
        "running": true,
        "channel": 6,
        "type": "noteOn",
        "noteNumber": 57,
        "velocity": 87
    },
    {
        "deltaTime": 0,
        "running": true,
        "channel": 6,
        "type": "noteOn",
        "noteNumber": 62,
        "velocity": 87
    },
    {
        "deltaTime": 0,
        "channel": 7,
        "type": "noteOn",
        "noteNumber": 74,
        "velocity": 104
    },
    {
        "deltaTime": 0,
        "channel": 10,
        "type": "noteOn",
        "noteNumber": 62,
        "velocity": 104
    },
    {
        "deltaTime": 0,
        "running": true,
        "channel": 10,
        "type": "noteOn",
        "noteNumber": 74,
        "velocity": 104
    },
    {
        "deltaTime": 956,
        "channel": 3,
        "type": "noteOff",
        "noteNumber": 69,
        "velocity": 0,
        "byte9": true
    },
    {
        "deltaTime": 859,
        "channel": 7,
        "type": "noteOff",
        "noteNumber": 74,
        "velocity": 0,
        "byte9": true
    },
    {
        "deltaTime": 1735,
        "channel": 12,
        "type": "noteOff",
        "noteNumber": 57,
        "velocity": 0,
        "byte9": true
    },
    {
        "deltaTime": 46,
        "running": true,
        "channel": 12,
        "type": "noteOff",
        "noteNumber": 53,
        "velocity": 0,
        "byte9": true
    },
    {
        "deltaTime": 97,
        "running": true,
        "channel": 12,
        "type": "noteOff",
        "noteNumber": 62,
        "velocity": 0,
        "byte9": true
    },
    {
        "deltaTime": 23,
        "channel": 10,
        "type": "noteOff",
        "noteNumber": 62,
        "velocity": 0,
        "byte9": true
    },
    {
        "deltaTime": 0,
        "running": true,
        "channel": 10,
        "type": "noteOff",
        "noteNumber": 74,
        "velocity": 0,
        "byte9": true
    },
    {
        "deltaTime": 17,
        "channel": 1,
        "type": "noteOff",
        "noteNumber": 38,
        "velocity": 0,
        "byte9": true
    },
    {
        "deltaTime": 122,
        "channel": 2,
        "type": "noteOff",
        "noteNumber": 50,
        "velocity": 0,
        "byte9": true
    },
    {
        "deltaTime": 0,
        "running": true,
        "channel": 2,
        "type": "noteOff",
        "noteNumber": 53,
        "velocity": 0,
        "byte9": true
    },
    {
        "deltaTime": 0,
        "running": true,
        "channel": 2,
        "type": "noteOff",
        "noteNumber": 57,
        "velocity": 0,
        "byte9": true
    },
    {
        "deltaTime": 0,
        "channel": 4,
        "type": "noteOff",
        "noteNumber": 57,
        "velocity": 0,
        "byte9": true
    },
    {
        "deltaTime": 0,
        "running": true,
        "channel": 4,
        "type": "noteOff",
        "noteNumber": 62,
        "velocity": 0,
        "byte9": true
    },
    {
        "deltaTime": 0,
        "channel": 6,
        "type": "noteOff",
        "noteNumber": 50,
        "velocity": 0,
        "byte9": true
    },
    {
        "deltaTime": 0,
        "running": true,
        "channel": 6,
        "type": "noteOff",
        "noteNumber": 53,
        "velocity": 0,
        "byte9": true
    },
    {
        "deltaTime": 0,
        "running": true,
        "channel": 6,
        "type": "noteOff",
        "noteNumber": 57,
        "velocity": 0,
        "byte9": true
    },
    {
        "deltaTime": 0,
        "running": true,
        "channel": 6,
        "type": "noteOff",
        "noteNumber": 62,
        "velocity": 0,
        "byte9": true
    }
]